<svg xmlns="http://www.w3.org/2000/svg" width="990" height="332" viewBox="0 0 990 332">
  <g id="Grupo_187267" data-name="Grupo 187267" transform="translate(-389 -10175.745)">
    <path id="Trazado_247348" data-name="Trazado 247348" d="M0,0H988V330H0Z" transform="translate(390 10176.745)" fill="#fff"/>
    <path id="Trazado_247349" data-name="Trazado 247349" d="M0,0H988V33H0Z" transform="translate(390 10176.745)" fill="#e8e8e8"/>
    <path id="Trazado_247350" data-name="Trazado 247350" d="M0,0H988V330H0Z" transform="translate(390 10176.745)" fill="none" stroke="#636363" stroke-width="2"/>
    <path id="Trazado_247351" data-name="Trazado 247351" d="M0,0V329.5" transform="translate(566.104 10177.245)" fill="none" stroke="#636363" stroke-width="2"/>
    <path id="Trazado_247352" data-name="Trazado 247352" d="M0,0H988" transform="translate(390 10209.731)" fill="none" stroke="#636363" stroke-width="2"/>
    <path id="Trazado_247353" data-name="Trazado 247353" d="M0,0H988" transform="translate(390 10240.899)" fill="none" stroke="#636363" stroke-width="2"/>
    <path id="Trazado_247354" data-name="Trazado 247354" d="M0,0H988" transform="translate(390 10270.466)" fill="none" stroke="#636363" stroke-width="2"/>
    <path id="Trazado_247355" data-name="Trazado 247355" d="M0,0H988" transform="translate(390 10299.907)" fill="none" stroke="#636363" stroke-width="2"/>
    <path id="Trazado_247356" data-name="Trazado 247356" d="M0,0H988" transform="translate(390 10329.474)" fill="none" stroke="#636363" stroke-width="2"/>
    <path id="Trazado_247357" data-name="Trazado 247357" d="M0,0H988" transform="translate(390 10359.039)" fill="none" stroke="#636363" stroke-width="2"/>
    <path id="Trazado_247358" data-name="Trazado 247358" d="M0,0H988" transform="translate(390 10388.481)" fill="none" stroke="#636363" stroke-width="2"/>
    <path id="Trazado_247359" data-name="Trazado 247359" d="M0,0H988" transform="translate(390 10418.048)" fill="none" stroke="#636363" stroke-width="2"/>
    <path id="Trazado_247360" data-name="Trazado 247360" d="M0,0H988" transform="translate(390 10447.613)" fill="none" stroke="#636363" stroke-width="2"/>
    <path id="Trazado_247361" data-name="Trazado 247361" d="M0,0H988" transform="translate(390 10477.179)" fill="none" stroke="#636363" stroke-width="2"/>
    <path id="Trazado_247362" data-name="Trazado 247362" d="M76.168,17H73.91V8.3l-2.7.836V7.3l4.711-1.687h.242ZM78.48,47h-7.8V45.453l3.68-3.922a9.078,9.078,0,0,0,1.121-1.445,2.322,2.322,0,0,0,.363-1.172,1.738,1.738,0,0,0-.383-1.191,1.382,1.382,0,0,0-1.094-.434,1.49,1.49,0,0,0-1.207.527,2.089,2.089,0,0,0-.441,1.387H70.457a3.729,3.729,0,0,1,.5-1.9,3.5,3.5,0,0,1,1.4-1.348,4.262,4.262,0,0,1,2.055-.488,4.036,4.036,0,0,1,2.73.844,2.985,2.985,0,0,1,.973,2.383,3.825,3.825,0,0,1-.437,1.719,9.551,9.551,0,0,1-1.5,2.039L73.59,45.18H78.48Zm-5.5,23.313h1.2a1.7,1.7,0,0,0,1.273-.43,1.575,1.575,0,0,0,.414-1.141,1.392,1.392,0,0,0-.41-1.07,1.59,1.59,0,0,0-1.129-.383,1.666,1.666,0,0,0-1.086.355,1.137,1.137,0,0,0-.437.926H70.551a2.777,2.777,0,0,1,.48-1.6,3.2,3.2,0,0,1,1.344-1.105,4.485,4.485,0,0,1,1.9-.4,4.253,4.253,0,0,1,2.828.863,2.945,2.945,0,0,1,1.023,2.379,2.393,2.393,0,0,1-.477,1.438,3.1,3.1,0,0,1-1.25,1.008,2.826,2.826,0,0,1,1.434,1.031,2.8,2.8,0,0,1,.473,1.625,2.994,2.994,0,0,1-1.105,2.43,4.445,4.445,0,0,1-2.926.914,4.214,4.214,0,0,1-2.785-.9,2.934,2.934,0,0,1-1.082-2.375h2.258a1.308,1.308,0,0,0,.48,1.047,2,2,0,0,0,2.445-.02,1.47,1.47,0,0,0,.457-1.129q0-1.7-1.875-1.7h-1.2Zm4.383,32.406h1.289v1.82H77.363V107H75.105v-2.461H70.441l-.1-1.422,4.742-7.492h2.281Zm-4.773,0h2.516V98.7l-.148.258Zm-1.57,28.688.656-5.781h6.375v1.883H73.527l-.281,2.445a3.58,3.58,0,0,1,1.711-.43,3.279,3.279,0,0,1,2.547,1.008,4.026,4.026,0,0,1,.922,2.82,4.124,4.124,0,0,1-.465,1.973,3.281,3.281,0,0,1-1.332,1.352,4.158,4.158,0,0,1-2.047.48,4.416,4.416,0,0,1-1.914-.418,3.4,3.4,0,0,1-1.395-1.176,3.2,3.2,0,0,1-.543-1.727h2.234a1.669,1.669,0,0,0,.5,1.105,1.573,1.573,0,0,0,1.113.395,1.388,1.388,0,0,0,1.18-.551,2.551,2.551,0,0,0,.414-1.559,2.11,2.11,0,0,0-.477-1.484,1.749,1.749,0,0,0-1.352-.516,1.954,1.954,0,0,0-1.3.422l-.219.2Zm5.789,24.1v1.859H76.59a3.836,3.836,0,0,0-2.465.8A3.238,3.238,0,0,0,73,160.313a3.075,3.075,0,0,1,2.289-.922,2.9,2.9,0,0,1,2.359,1.063,4.259,4.259,0,0,1,.875,2.8,4.19,4.19,0,0,1-.48,2.008,3.446,3.446,0,0,1-1.359,1.4,3.949,3.949,0,0,1-1.988.5,3.689,3.689,0,0,1-2.9-1.25,4.852,4.852,0,0,1-1.105-3.336v-.812a7.3,7.3,0,0,1,.7-3.27,5.127,5.127,0,0,1,2.008-2.2,5.883,5.883,0,0,1,3.035-.785Zm-2.2,5.7a1.8,1.8,0,0,0-.992.285,1.715,1.715,0,0,0-.656.753v.686A3.04,3.04,0,0,0,73.4,164.7a1.439,1.439,0,0,0,1.25.635,1.423,1.423,0,0,0,1.176-.573,2.69,2.69,0,0,0,0-2.983A1.477,1.477,0,0,0,74.605,161.211Zm3.813,25.674L74.02,197H71.637l4.406-9.555H70.387v-1.82h8.031Zm-.32,31.763a2.646,2.646,0,0,1-.414,1.469,2.98,2.98,0,0,1-1.141,1.023,3.3,3.3,0,0,1,1.313,1.1,2.816,2.816,0,0,1,.484,1.645,2.981,2.981,0,0,1-1.031,2.395,4.918,4.918,0,0,1-5.617,0,2.974,2.974,0,0,1-1.039-2.391,2.834,2.834,0,0,1,.484-1.648,3.239,3.239,0,0,1,1.3-1.094,2.95,2.95,0,0,1-1.137-1.023,2.664,2.664,0,0,1-.41-1.469,2.948,2.948,0,0,1,.969-2.316,4.457,4.457,0,0,1,5.262-.008A2.937,2.937,0,0,1,78.1,218.648Zm-2.023,5.07a1.638,1.638,0,0,0-.43-1.187,1.719,1.719,0,0,0-2.3,0,1.853,1.853,0,0,0-.008,2.363,1.762,1.762,0,0,0,2.324.016A1.631,1.631,0,0,0,76.074,223.719Zm-.234-4.961a1.563,1.563,0,0,0-.352-1.066,1.43,1.43,0,0,0-1.977-.012,1.553,1.553,0,0,0-.352,1.078,1.633,1.633,0,0,0,.352,1.094,1.391,1.391,0,0,0,1.98,0A1.645,1.645,0,0,0,75.84,218.758Zm.125,33.7a2.851,2.851,0,0,1-2.062.867,3.049,3.049,0,0,1-2.414-1.035,4.091,4.091,0,0,1-.906-2.793,4.357,4.357,0,0,1,.488-2.051,3.582,3.582,0,0,1,1.363-1.453,3.782,3.782,0,0,1,1.969-.52,3.617,3.617,0,0,1,2,.563,3.7,3.7,0,0,1,1.359,1.617,5.806,5.806,0,0,1,.492,2.414v.836a6.579,6.579,0,0,1-1.414,4.469,5.346,5.346,0,0,1-4.008,1.734l-.555.008v-1.883l.5-.008Q75.723,255.086,75.965,252.453Zm-1.508-.859a1.579,1.579,0,0,0,.941-.281,1.879,1.879,0,0,0,.6-.68v-.93a3.1,3.1,0,0,0-.437-1.781,1.358,1.358,0,0,0-1.172-.633,1.318,1.318,0,0,0-1.117.621,2.641,2.641,0,0,0-.437,1.559A2.57,2.57,0,0,0,73.258,251,1.387,1.387,0,0,0,74.457,251.594ZM71.578,287H69.32v-8.7l-2.7.836V277.3l4.711-1.687h.242Zm11.352-4.7a5.763,5.763,0,0,1-.977,3.609,3.9,3.9,0,0,1-5.7.023,5.594,5.594,0,0,1-1.008-3.516V280.32a5.687,5.687,0,0,1,.988-3.617,3.91,3.91,0,0,1,5.691-.012A5.576,5.576,0,0,1,82.93,280.2Zm-2.258-2.3a4.165,4.165,0,0,0-.387-2.061,1.307,1.307,0,0,0-1.207-.645,1.284,1.284,0,0,0-1.176.614,3.9,3.9,0,0,0-.4,1.92v2.768a4.372,4.372,0,0,0,.379,2.068,1.29,1.29,0,0,0,1.215.676,1.268,1.268,0,0,0,1.2-.649,4.268,4.268,0,0,0,.383-1.986Z" transform="translate(403 10212.745)" fill="#12263f"/>
    <path id="Trazado_247363" data-name="Trazado 247363" d="M0,0V329.5" transform="translate(887.979 10177.245)" fill="none" stroke="#636363" stroke-width="2"/>
    <path id="Trazado_247364" data-name="Trazado 247364" d="M0,0V329.5" transform="translate(726.885 10177.245)" fill="none" stroke="#636363" stroke-width="2"/>
    <path id="Trazado_247365" data-name="Trazado 247365" d="M0,0V329.5" transform="translate(1041.718 10177.245)" fill="none" stroke="#636363" stroke-width="2"/>
    <path id="Trazado_247366" data-name="Trazado 247366" d="M0,0V329.5" transform="translate(1210 10177.245)" fill="none" stroke="#636363" stroke-width="2"/>
    <path id="Trazado_247367" data-name="Trazado 247367" d="M73.852,17H66.4V15.961l3.938-4.375a9.354,9.354,0,0,0,1.207-1.613,2.693,2.693,0,0,0,.332-1.285,2.041,2.041,0,0,0-.539-1.461,1.885,1.885,0,0,0-1.437-.57,2.232,2.232,0,0,0-1.676.613,2.343,2.343,0,0,0-.6,1.707H66.18a3.355,3.355,0,0,1,1.012-2.539A3.751,3.751,0,0,1,69.9,5.469a3.6,3.6,0,0,1,2.508.832,2.838,2.838,0,0,1,.922,2.215q0,1.68-2.141,4l-3.047,3.3h5.711Zm2.2-5.7.578-5.672h5.828V6.961h-4.6l-.344,3.1a3.671,3.671,0,0,1,1.9-.492A3.138,3.138,0,0,1,81.875,10.6a4.026,4.026,0,0,1,.914,2.777,3.886,3.886,0,0,1-.949,2.77,3.46,3.46,0,0,1-2.652,1.012,3.6,3.6,0,0,1-2.461-.836,3.337,3.337,0,0,1-1.086-2.312h1.367a2.3,2.3,0,0,0,.7,1.473,2.162,2.162,0,0,0,1.484.5,1.95,1.95,0,0,0,1.582-.687,2.874,2.874,0,0,0,.574-1.9,2.638,2.638,0,0,0-.621-1.832,2.113,2.113,0,0,0-1.652-.691,2.383,2.383,0,0,0-1.484.414l-.383.313Zm8.422,7.969-.82-.562a3.77,3.77,0,0,0,.766-2.109v-1.3h1.414v1.133A3.559,3.559,0,0,1,85.441,18,3.7,3.7,0,0,1,84.469,19.266ZM94.961,17H87.508V15.961l3.938-4.375a9.354,9.354,0,0,0,1.207-1.613,2.693,2.693,0,0,0,.332-1.285,2.041,2.041,0,0,0-.539-1.461,1.885,1.885,0,0,0-1.437-.57,2.232,2.232,0,0,0-1.676.613,2.343,2.343,0,0,0-.6,1.707H87.289A3.355,3.355,0,0,1,88.3,6.438a3.751,3.751,0,0,1,2.707-.969,3.6,3.6,0,0,1,2.508.832,2.838,2.838,0,0,1,.922,2.215q0,1.68-2.141,4l-3.047,3.3h5.711ZM73.852,47H66.4V45.961l3.938-4.375a9.354,9.354,0,0,0,1.207-1.613,2.693,2.693,0,0,0,.332-1.285,2.041,2.041,0,0,0-.539-1.461,1.885,1.885,0,0,0-1.437-.57,2.232,2.232,0,0,0-1.676.613,2.343,2.343,0,0,0-.6,1.707H66.18a3.355,3.355,0,0,1,1.012-2.539,3.751,3.751,0,0,1,2.707-.969,3.6,3.6,0,0,1,2.508.832,2.838,2.838,0,0,1,.922,2.215q0,1.68-2.141,4l-3.047,3.3h5.711Zm7.633-3.82h1.578v1.18H81.484V47H80.031V44.359h-5.18v-.852l5.094-7.883h1.539Zm-4.992,0h3.539V37.6l-.172.313Zm7.977,6.086-.82-.562a3.77,3.77,0,0,0,.766-2.109v-1.3h1.414v1.133A3.559,3.559,0,0,1,85.441,48,3.7,3.7,0,0,1,84.469,49.266ZM92.258,47H90.8V37.367l-2.914,1.07V37.125l4.141-1.555h.227ZM73.852,77H66.4V75.961l3.938-4.375a9.354,9.354,0,0,0,1.207-1.613,2.693,2.693,0,0,0,.332-1.285,2.041,2.041,0,0,0-.539-1.461,1.885,1.885,0,0,0-1.437-.57,2.232,2.232,0,0,0-1.676.613,2.343,2.343,0,0,0-.6,1.707H66.18a3.355,3.355,0,0,1,1.012-2.539,3.751,3.751,0,0,1,2.707-.969,3.6,3.6,0,0,1,2.508.832,2.838,2.838,0,0,1,.922,2.215q0,1.68-2.141,4l-3.047,3.3h5.711Zm7.633-3.82h1.578v1.18H81.484V77H80.031V74.359h-5.18v-.852l5.094-7.883h1.539Zm-4.992,0h3.539V67.6l-.172.313Zm7.977,6.086-.82-.562a3.77,3.77,0,0,0,.766-2.109v-1.3h1.414v1.133A3.559,3.559,0,0,1,85.441,78,3.7,3.7,0,0,1,84.469,79.266Zm10.172-7.117a6.61,6.61,0,0,1-.867,3.773,3.6,3.6,0,0,1-5.406.027,6.274,6.274,0,0,1-.906-3.605v-1.93a6.463,6.463,0,0,1,.867-3.727,3.668,3.668,0,0,1,5.422-.043,6.237,6.237,0,0,1,.891,3.629ZM93.2,70.172A5.3,5.3,0,0,0,92.68,67.5a1.775,1.775,0,0,0-1.633-.84,1.751,1.751,0,0,0-1.617.836,5.171,5.171,0,0,0-.523,2.57v2.313a5.381,5.381,0,0,0,.535,2.723,1.771,1.771,0,0,0,1.621.879,1.747,1.747,0,0,0,1.59-.828,5.186,5.186,0,0,0,.543-2.609ZM73.852,107H66.4v-1.039l3.938-4.375a9.354,9.354,0,0,0,1.207-1.613,2.693,2.693,0,0,0,.332-1.285,2.041,2.041,0,0,0-.539-1.461,1.885,1.885,0,0,0-1.437-.57,2.232,2.232,0,0,0-1.676.613,2.343,2.343,0,0,0-.6,1.707H66.18a3.355,3.355,0,0,1,1.012-2.539,3.751,3.751,0,0,1,2.707-.969,3.6,3.6,0,0,1,2.508.832,2.838,2.838,0,0,1,.922,2.215q0,1.68-2.141,4l-3.047,3.3h5.711Zm3.633-6.391H78.57a2.387,2.387,0,0,0,1.609-.539,1.8,1.8,0,0,0,.586-1.414,1.764,1.764,0,0,0-1.992-2,2.072,2.072,0,0,0-1.5.535,1.873,1.873,0,0,0-.559,1.418H75.273a2.9,2.9,0,0,1,.988-2.246,3.6,3.6,0,0,1,2.512-.895,3.558,3.558,0,0,1,2.523.852,3.076,3.076,0,0,1,.914,2.367,2.5,2.5,0,0,1-.48,1.438,2.9,2.9,0,0,1-1.309,1.039,2.8,2.8,0,0,1,1.449.984,2.734,2.734,0,0,1,.512,1.68,3.1,3.1,0,0,1-1,2.43,3.745,3.745,0,0,1-2.6.9,3.844,3.844,0,0,1-2.605-.867,2.877,2.877,0,0,1-1-2.289h1.453a1.859,1.859,0,0,0,.586,1.438,2.229,2.229,0,0,0,1.57.539,2.187,2.187,0,0,0,1.6-.547,2.108,2.108,0,0,0,.555-1.57,1.912,1.912,0,0,0-.609-1.523,2.655,2.655,0,0,0-1.758-.547H77.484Zm6.984,8.656-.82-.562a3.77,3.77,0,0,0,.766-2.109v-1.3h1.414v1.133A3.559,3.559,0,0,1,85.441,108,3.7,3.7,0,0,1,84.469,109.266Zm9.938-10.672a2.641,2.641,0,0,1-.449,1.516,3.056,3.056,0,0,1-1.215,1.039,3.26,3.26,0,0,1,1.41,1.117,2.811,2.811,0,0,1,.52,1.664,2.972,2.972,0,0,1-1,2.352,4.367,4.367,0,0,1-5.25,0,2.986,2.986,0,0,1-.988-2.348,2.9,2.9,0,0,1,.5-1.664,3.136,3.136,0,0,1,1.395-1.125,2.981,2.981,0,0,1-1.2-1.039,2.679,2.679,0,0,1-.437-1.508,2.94,2.94,0,0,1,.922-2.281,3.915,3.915,0,0,1,4.855,0A2.934,2.934,0,0,1,94.406,98.594Zm-1.18,5.3a2.1,2.1,0,0,0-.605-1.555,2.147,2.147,0,0,0-1.582-.6,2.034,2.034,0,0,0-2.156,2.156,2.019,2.019,0,0,0,.574,1.523,2.565,2.565,0,0,0,3.191,0A2.014,2.014,0,0,0,93.227,103.9Zm-2.172-7.242a1.865,1.865,0,0,0-1.379.527,2.182,2.182,0,0,0-.008,2.836,2.064,2.064,0,0,0,2.773,0,2.138,2.138,0,0,0-.02-2.816A1.839,1.839,0,0,0,91.055,96.656ZM73.852,137H66.4v-1.039l3.938-4.375a9.354,9.354,0,0,0,1.207-1.613,2.693,2.693,0,0,0,.332-1.285,2.041,2.041,0,0,0-.539-1.461,1.885,1.885,0,0,0-1.437-.57,2.232,2.232,0,0,0-1.676.613,2.343,2.343,0,0,0-.6,1.707H66.18a3.355,3.355,0,0,1,1.012-2.539,3.751,3.751,0,0,1,2.707-.969,3.6,3.6,0,0,1,2.508.832,2.838,2.838,0,0,1,.922,2.215q0,1.68-2.141,4l-3.047,3.3h5.711Zm7.633-3.82h1.578v1.18H81.484V137H80.031v-2.641h-5.18v-.852l5.094-7.883h1.539Zm-4.992,0h3.539V127.6l-.172.313Zm7.977,6.086-.82-.562a3.77,3.77,0,0,0,.766-2.109v-1.3h1.414v1.133A3.559,3.559,0,0,1,85.441,138,3.7,3.7,0,0,1,84.469,139.266Zm5.141-8.656H90.7a2.387,2.387,0,0,0,1.609-.539,1.8,1.8,0,0,0,.586-1.414,1.764,1.764,0,0,0-1.992-2,2.072,2.072,0,0,0-1.5.535,1.873,1.873,0,0,0-.559,1.418H87.4a2.9,2.9,0,0,1,.988-2.246,3.6,3.6,0,0,1,2.512-.895,3.558,3.558,0,0,1,2.523.852,3.076,3.076,0,0,1,.914,2.367,2.5,2.5,0,0,1-.48,1.438,2.9,2.9,0,0,1-1.309,1.039,2.8,2.8,0,0,1,1.449.984,2.734,2.734,0,0,1,.512,1.68,3.1,3.1,0,0,1-1,2.43,3.745,3.745,0,0,1-2.6.9,3.844,3.844,0,0,1-2.605-.867,2.877,2.877,0,0,1-1-2.289H88.75a1.859,1.859,0,0,0,.586,1.438,2.229,2.229,0,0,0,1.57.539,2.187,2.187,0,0,0,1.6-.547,2.108,2.108,0,0,0,.555-1.57,1.912,1.912,0,0,0-.609-1.523,2.655,2.655,0,0,0-1.758-.547H89.609ZM73.852,167H66.4v-1.039l3.938-4.375a9.354,9.354,0,0,0,1.207-1.613,2.693,2.693,0,0,0,.332-1.285,2.041,2.041,0,0,0-.539-1.461,1.885,1.885,0,0,0-1.437-.57,2.232,2.232,0,0,0-1.676.613,2.343,2.343,0,0,0-.6,1.707H66.18a3.355,3.355,0,0,1,1.012-2.539,3.751,3.751,0,0,1,2.707-.969,3.6,3.6,0,0,1,2.508.832,2.838,2.838,0,0,1,.922,2.215q0,1.68-2.141,4l-3.047,3.3h5.711Zm3.633-6.391H78.57a2.387,2.387,0,0,0,1.609-.539,1.8,1.8,0,0,0,.586-1.414,1.764,1.764,0,0,0-1.992-2,2.072,2.072,0,0,0-1.5.535,1.873,1.873,0,0,0-.559,1.418H75.273a2.9,2.9,0,0,1,.988-2.246,3.6,3.6,0,0,1,2.512-.895,3.558,3.558,0,0,1,2.523.852,3.076,3.076,0,0,1,.914,2.367,2.5,2.5,0,0,1-.48,1.438,2.9,2.9,0,0,1-1.309,1.039,2.8,2.8,0,0,1,1.449.984,2.734,2.734,0,0,1,.512,1.68,3.1,3.1,0,0,1-1,2.43,3.745,3.745,0,0,1-2.6.9,3.844,3.844,0,0,1-2.605-.867,2.877,2.877,0,0,1-1-2.289h1.453a1.859,1.859,0,0,0,.586,1.438,2.229,2.229,0,0,0,1.57.539,2.187,2.187,0,0,0,1.6-.547,2.108,2.108,0,0,0,.555-1.57,1.912,1.912,0,0,0-.609-1.523,2.655,2.655,0,0,0-1.758-.547H77.484Zm6.984,8.656-.82-.562a3.77,3.77,0,0,0,.766-2.109v-1.3h1.414v1.133A3.559,3.559,0,0,1,85.441,168,3.7,3.7,0,0,1,84.469,169.266ZM93.047,162a3.536,3.536,0,0,1-1.082.867,2.936,2.936,0,0,1-1.379.328,3.031,3.031,0,0,1-1.715-.484,3.149,3.149,0,0,1-1.129-1.363,4.648,4.648,0,0,1-.4-1.941,4.735,4.735,0,0,1,.434-2.055,3.185,3.185,0,0,1,1.23-1.4,3.509,3.509,0,0,1,1.859-.484,3.177,3.177,0,0,1,2.66,1.262,5.5,5.5,0,0,1,.973,3.441v.422q0,3.32-1.312,4.848a5.043,5.043,0,0,1-3.961,1.566h-.281v-1.227h.3a3.442,3.442,0,0,0,3.8-3.781Zm-2.227,0a2.232,2.232,0,0,0,1.34-.445,2.625,2.625,0,0,0,.895-1.1v-.578a3.977,3.977,0,0,0-.617-2.312,1.887,1.887,0,0,0-3.094-.16,3.013,3.013,0,0,0-.578,1.926,3.136,3.136,0,0,0,.559,1.918A1.769,1.769,0,0,0,90.82,162ZM73.852,197H66.4v-1.039l3.938-4.375a9.354,9.354,0,0,0,1.207-1.613,2.693,2.693,0,0,0,.332-1.285,2.041,2.041,0,0,0-.539-1.461,1.885,1.885,0,0,0-1.437-.57,2.232,2.232,0,0,0-1.676.613,2.343,2.343,0,0,0-.6,1.707H66.18a3.355,3.355,0,0,1,1.012-2.539,3.751,3.751,0,0,1,2.707-.969,3.6,3.6,0,0,1,2.508.832,2.838,2.838,0,0,1,.922,2.215q0,1.68-2.141,4l-3.047,3.3h5.711Zm3.633-6.391H78.57a2.387,2.387,0,0,0,1.609-.539,1.8,1.8,0,0,0,.586-1.414,1.764,1.764,0,0,0-1.992-2,2.072,2.072,0,0,0-1.5.535,1.873,1.873,0,0,0-.559,1.418H75.273a2.9,2.9,0,0,1,.988-2.246,3.6,3.6,0,0,1,2.512-.895,3.558,3.558,0,0,1,2.523.852,3.076,3.076,0,0,1,.914,2.367,2.5,2.5,0,0,1-.48,1.438,2.9,2.9,0,0,1-1.309,1.039,2.8,2.8,0,0,1,1.449.984,2.734,2.734,0,0,1,.512,1.68,3.1,3.1,0,0,1-1,2.43,3.745,3.745,0,0,1-2.6.9,3.844,3.844,0,0,1-2.605-.867,2.877,2.877,0,0,1-1-2.289h1.453a1.859,1.859,0,0,0,.586,1.438,2.229,2.229,0,0,0,1.57.539,2.187,2.187,0,0,0,1.6-.547,2.108,2.108,0,0,0,.555-1.57,1.912,1.912,0,0,0-.609-1.523,2.655,2.655,0,0,0-1.758-.547H77.484Zm6.984,8.656-.82-.562a3.77,3.77,0,0,0,.766-2.109v-1.3h1.414v1.133A3.559,3.559,0,0,1,85.441,198,3.7,3.7,0,0,1,84.469,199.266ZM93.047,192a3.536,3.536,0,0,1-1.082.867,2.936,2.936,0,0,1-1.379.328,3.031,3.031,0,0,1-1.715-.484,3.149,3.149,0,0,1-1.129-1.363,4.648,4.648,0,0,1-.4-1.941,4.735,4.735,0,0,1,.434-2.055,3.185,3.185,0,0,1,1.23-1.4,3.509,3.509,0,0,1,1.859-.484,3.177,3.177,0,0,1,2.66,1.262,5.5,5.5,0,0,1,.973,3.441v.422q0,3.32-1.312,4.848a5.043,5.043,0,0,1-3.961,1.566h-.281v-1.227h.3a3.442,3.442,0,0,0,3.8-3.781Zm-2.227,0a2.232,2.232,0,0,0,1.34-.445,2.625,2.625,0,0,0,.895-1.1v-.578a3.977,3.977,0,0,0-.617-2.312,1.887,1.887,0,0,0-3.094-.16,3.013,3.013,0,0,0-.578,1.926,3.136,3.136,0,0,0,.559,1.918A1.769,1.769,0,0,0,90.82,192ZM73.852,227H66.4v-1.039l3.938-4.375a9.354,9.354,0,0,0,1.207-1.613,2.693,2.693,0,0,0,.332-1.285,2.041,2.041,0,0,0-.539-1.461,1.885,1.885,0,0,0-1.437-.57,2.232,2.232,0,0,0-1.676.613,2.343,2.343,0,0,0-.6,1.707H66.18a3.355,3.355,0,0,1,1.012-2.539,3.751,3.751,0,0,1,2.707-.969,3.6,3.6,0,0,1,2.508.832,2.838,2.838,0,0,1,.922,2.215q0,1.68-2.141,4l-3.047,3.3h5.711Zm7.633-3.82h1.578v1.18H81.484V227H80.031v-2.641h-5.18v-.852l5.094-7.883h1.539Zm-4.992,0h3.539V217.6l-.172.313Zm7.977,6.086-.82-.562a3.77,3.77,0,0,0,.766-2.109v-1.3h1.414v1.133A3.559,3.559,0,0,1,85.441,228,3.7,3.7,0,0,1,84.469,229.266ZM94.961,227H87.508v-1.039l3.938-4.375a9.354,9.354,0,0,0,1.207-1.613,2.693,2.693,0,0,0,.332-1.285,2.041,2.041,0,0,0-.539-1.461,1.885,1.885,0,0,0-1.437-.57,2.232,2.232,0,0,0-1.676.613,2.343,2.343,0,0,0-.6,1.707H87.289a3.355,3.355,0,0,1,1.012-2.539,3.751,3.751,0,0,1,2.707-.969,3.6,3.6,0,0,1,2.508.832,2.838,2.838,0,0,1,.922,2.215q0,1.68-2.141,4l-3.047,3.3h5.711ZM73.852,257H66.4v-1.039l3.938-4.375a9.354,9.354,0,0,0,1.207-1.613,2.693,2.693,0,0,0,.332-1.285,2.041,2.041,0,0,0-.539-1.461,1.885,1.885,0,0,0-1.437-.57,2.232,2.232,0,0,0-1.676.613,2.343,2.343,0,0,0-.6,1.707H66.18a3.355,3.355,0,0,1,1.012-2.539,3.751,3.751,0,0,1,2.707-.969,3.6,3.6,0,0,1,2.508.832,2.838,2.838,0,0,1,.922,2.215q0,1.68-2.141,4l-3.047,3.3h5.711Zm7.633-3.82h1.578v1.18H81.484V257H80.031v-2.641h-5.18v-.852l5.094-7.883h1.539Zm-4.992,0h3.539V247.6l-.172.313Zm7.977,6.086-.82-.562a3.77,3.77,0,0,0,.766-2.109v-1.3h1.414v1.133A3.559,3.559,0,0,1,85.441,258,3.7,3.7,0,0,1,84.469,259.266Zm10.172-7.117a6.61,6.61,0,0,1-.867,3.773,3.6,3.6,0,0,1-5.406.027,6.274,6.274,0,0,1-.906-3.605v-1.93a6.463,6.463,0,0,1,.867-3.727,3.668,3.668,0,0,1,5.422-.043,6.237,6.237,0,0,1,.891,3.629ZM93.2,250.172a5.3,5.3,0,0,0-.516-2.676,1.775,1.775,0,0,0-1.633-.84,1.751,1.751,0,0,0-1.617.836,5.171,5.171,0,0,0-.523,2.57v2.313a5.381,5.381,0,0,0,.535,2.723,1.771,1.771,0,0,0,1.621.879,1.747,1.747,0,0,0,1.59-.828,5.186,5.186,0,0,0,.543-2.609ZM73.852,287H66.4v-1.039l3.938-4.375a9.355,9.355,0,0,0,1.207-1.613,2.693,2.693,0,0,0,.332-1.285,2.041,2.041,0,0,0-.539-1.461,1.885,1.885,0,0,0-1.437-.57,2.232,2.232,0,0,0-1.676.613,2.343,2.343,0,0,0-.6,1.707H66.18a3.355,3.355,0,0,1,1.012-2.539,3.751,3.751,0,0,1,2.707-.969,3.6,3.6,0,0,1,2.508.832,2.838,2.838,0,0,1,.922,2.215q0,1.68-2.141,4l-3.047,3.3h5.711Zm7.633-3.82h1.578v1.18H81.484V287H80.031v-2.641h-5.18v-.852l5.094-7.883h1.539Zm-4.992,0h3.539V277.6l-.172.313Zm7.977,6.086-.82-.562a3.77,3.77,0,0,0,.766-2.109v-1.3h1.414v1.133A3.559,3.559,0,0,1,85.441,288,3.7,3.7,0,0,1,84.469,289.266ZM92.258,287H90.8v-9.633l-2.914,1.07v-1.312l4.141-1.555h.227Z" transform="translate(566 10212.745)" fill="#12263f"/>
    <path id="Trazado_247368" data-name="Trazado 247368" d="M77.211,17H75.758V7.367l-2.914,1.07V7.125L76.984,5.57h.227ZM86.2,17H84.742V7.367l-2.914,1.07V7.125L85.969,5.57H86.2ZM77.211,47H75.758V37.367l-2.914,1.07V37.125l4.141-1.555h.227ZM88.9,47H81.445V45.961l3.938-4.375a9.354,9.354,0,0,0,1.207-1.613,2.693,2.693,0,0,0,.332-1.285,2.041,2.041,0,0,0-.539-1.461,1.885,1.885,0,0,0-1.437-.57,2.232,2.232,0,0,0-1.676.613,2.343,2.343,0,0,0-.6,1.707H81.227a3.355,3.355,0,0,1,1.012-2.539,3.751,3.751,0,0,1,2.707-.969,3.6,3.6,0,0,1,2.508.832,2.838,2.838,0,0,1,.922,2.215q0,1.68-2.141,4l-3.047,3.3H88.9ZM77.211,77H75.758V67.367l-2.914,1.07V67.125l4.141-1.555h.227Zm6.336-6.391h1.086a2.387,2.387,0,0,0,1.609-.539,1.8,1.8,0,0,0,.586-1.414,1.764,1.764,0,0,0-1.992-2,2.072,2.072,0,0,0-1.5.535,1.873,1.873,0,0,0-.559,1.418H81.336a2.9,2.9,0,0,1,.988-2.246,3.6,3.6,0,0,1,2.512-.895,3.558,3.558,0,0,1,2.523.852,3.076,3.076,0,0,1,.914,2.367,2.5,2.5,0,0,1-.48,1.438,2.9,2.9,0,0,1-1.309,1.039,2.8,2.8,0,0,1,1.449.984,2.734,2.734,0,0,1,.512,1.68,3.1,3.1,0,0,1-1,2.43,3.745,3.745,0,0,1-2.6.9,3.844,3.844,0,0,1-2.605-.867,2.877,2.877,0,0,1-1-2.289h1.453a1.859,1.859,0,0,0,.586,1.438,2.229,2.229,0,0,0,1.57.539,2.187,2.187,0,0,0,1.6-.547A2.108,2.108,0,0,0,87,73.859a1.912,1.912,0,0,0-.609-1.523,2.655,2.655,0,0,0-1.758-.547H83.547ZM77.211,107H75.758V97.367l-2.914,1.07V97.125l4.141-1.555h.227Zm10.336-3.82h1.578v1.18H87.547V107H86.094v-2.641h-5.18v-.852l5.094-7.883h1.539Zm-4.992,0h3.539V97.6l-.172.313ZM77.211,137H75.758v-9.633l-2.914,1.07v-1.312l4.141-1.555h.227Zm4.9-5.7.578-5.672h5.828v1.336h-4.6l-.344,3.1a3.671,3.671,0,0,1,1.9-.492,3.138,3.138,0,0,1,2.469,1.027,4.026,4.026,0,0,1,.914,2.777,3.886,3.886,0,0,1-.949,2.77,3.46,3.46,0,0,1-2.652,1.012,3.6,3.6,0,0,1-2.461-.836,3.337,3.337,0,0,1-1.086-2.312H83.07a2.3,2.3,0,0,0,.7,1.473,2.162,2.162,0,0,0,1.484.5,1.95,1.95,0,0,0,1.582-.687,2.874,2.874,0,0,0,.574-1.9,2.638,2.638,0,0,0-.621-1.832,2.113,2.113,0,0,0-1.652-.691,2.383,2.383,0,0,0-1.484.414l-.383.313Zm-4.9,35.7H75.758v-9.633l-2.914,1.07v-1.312l4.141-1.555h.227Zm9.906-11.383v1.227h-.266a3.805,3.805,0,0,0-2.687,1,4.161,4.161,0,0,0-1.156,2.727,3.085,3.085,0,0,1,2.453-1.031,2.95,2.95,0,0,1,2.371,1.047,4.588,4.588,0,0,1-.07,5.516,3.3,3.3,0,0,1-2.566,1.055,3.247,3.247,0,0,1-2.648-1.254,4.97,4.97,0,0,1-1.016-3.23v-.555a7.488,7.488,0,0,1,1.34-4.8,4.921,4.921,0,0,1,3.988-1.7Zm-1.9,5.125a2.429,2.429,0,0,0-2.234,1.563v.531a3.731,3.731,0,0,0,.633,2.266,1.9,1.9,0,0,0,1.578.859,1.838,1.838,0,0,0,1.535-.719,3.452,3.452,0,0,0-.008-3.777A1.816,1.816,0,0,0,85.219,160.742ZM77.211,197H75.758v-9.633l-2.914,1.07v-1.312l4.141-1.555h.227Zm11.578-10.562L84.078,197H82.563l4.7-10.187H81.1v-1.187h7.688ZM77.211,227H75.758v-9.633l-2.914,1.07v-1.312l4.141-1.555h.227Zm11.133-8.406a2.641,2.641,0,0,1-.449,1.516,3.057,3.057,0,0,1-1.215,1.039,3.26,3.26,0,0,1,1.41,1.117,2.811,2.811,0,0,1,.52,1.664,2.972,2.972,0,0,1-1,2.352,4.367,4.367,0,0,1-5.25,0,2.986,2.986,0,0,1-.988-2.348,2.9,2.9,0,0,1,.5-1.664,3.136,3.136,0,0,1,1.395-1.125,2.981,2.981,0,0,1-1.2-1.039,2.679,2.679,0,0,1-.437-1.508,2.94,2.94,0,0,1,.922-2.281,3.915,3.915,0,0,1,4.855,0A2.934,2.934,0,0,1,88.344,218.594Zm-1.18,5.3a2.1,2.1,0,0,0-.605-1.555,2.147,2.147,0,0,0-1.582-.6A2.034,2.034,0,0,0,82.82,223.9a2.019,2.019,0,0,0,.574,1.523,2.565,2.565,0,0,0,3.191,0A2.014,2.014,0,0,0,87.164,223.9Zm-2.172-7.242a1.865,1.865,0,0,0-1.379.527,2.182,2.182,0,0,0-.008,2.836,2.064,2.064,0,0,0,2.773,0,2.138,2.138,0,0,0-.02-2.816A1.839,1.839,0,0,0,84.992,216.656ZM77.211,257H75.758v-9.633l-2.914,1.07v-1.312l4.141-1.555h.227Zm9.773-5a3.536,3.536,0,0,1-1.082.867,2.936,2.936,0,0,1-1.379.328,3.031,3.031,0,0,1-1.715-.484,3.149,3.149,0,0,1-1.129-1.363,4.648,4.648,0,0,1-.4-1.941,4.735,4.735,0,0,1,.434-2.055,3.185,3.185,0,0,1,1.23-1.4,3.509,3.509,0,0,1,1.859-.484,3.177,3.177,0,0,1,2.66,1.262,5.5,5.5,0,0,1,.973,3.441v.422q0,3.32-1.312,4.848a5.043,5.043,0,0,1-3.961,1.566h-.281v-1.227h.3a3.442,3.442,0,0,0,3.8-3.781Zm-2.227,0a2.232,2.232,0,0,0,1.34-.445,2.625,2.625,0,0,0,.895-1.1v-.578a3.977,3.977,0,0,0-.617-2.312,1.887,1.887,0,0,0-3.094-.16,3.013,3.013,0,0,0-.578,1.926,3.136,3.136,0,0,0,.559,1.918A1.769,1.769,0,0,0,84.758,252Zm-4.844,35H72.461v-1.039l3.938-4.375a9.355,9.355,0,0,0,1.207-1.613,2.693,2.693,0,0,0,.332-1.285,2.041,2.041,0,0,0-.539-1.461,1.885,1.885,0,0,0-1.437-.57,2.232,2.232,0,0,0-1.676.613,2.343,2.343,0,0,0-.6,1.707H72.242a3.355,3.355,0,0,1,1.012-2.539,3.751,3.751,0,0,1,2.707-.969,3.6,3.6,0,0,1,2.508.832,2.838,2.838,0,0,1,.922,2.215q0,1.68-2.141,4l-3.047,3.3h5.711Zm8.664-4.852a6.61,6.61,0,0,1-.867,3.773,3.6,3.6,0,0,1-5.406.027,6.274,6.274,0,0,1-.906-3.605v-1.93a6.463,6.463,0,0,1,.867-3.727,3.668,3.668,0,0,1,5.422-.043,6.237,6.237,0,0,1,.891,3.629Zm-1.445-1.977a5.3,5.3,0,0,0-.516-2.676,1.775,1.775,0,0,0-1.633-.84,1.751,1.751,0,0,0-1.617.836,5.171,5.171,0,0,0-.523,2.57v2.313a5.381,5.381,0,0,0,.535,2.723,1.771,1.771,0,0,0,1.621.879,1.747,1.747,0,0,0,1.59-.828,5.186,5.186,0,0,0,.543-2.609Z" transform="translate(728 10212.745)" fill="#12263f"/>
    <path id="Trazado_247369" data-name="Trazado 247369" d="M70.852,17H63.4V15.961l3.938-4.375a9.354,9.354,0,0,0,1.207-1.613,2.693,2.693,0,0,0,.332-1.285,2.041,2.041,0,0,0-.539-1.461,1.885,1.885,0,0,0-1.437-.57,2.232,2.232,0,0,0-1.676.613,2.343,2.343,0,0,0-.6,1.707H63.18a3.355,3.355,0,0,1,1.012-2.539A3.751,3.751,0,0,1,66.9,5.469a3.6,3.6,0,0,1,2.508.832,2.838,2.838,0,0,1,.922,2.215q0,1.68-2.141,4l-3.047,3.3h5.711Zm7.633-3.82h1.578v1.18H78.484V17H77.031V14.359h-5.18v-.852l5.094-7.883h1.539Zm-4.992,0h3.539V7.6l-.172.313Zm7.977,6.086-.82-.562a3.77,3.77,0,0,0,.766-2.109v-1.3h1.414v1.133A3.559,3.559,0,0,1,82.441,18,3.7,3.7,0,0,1,81.469,19.266ZM91.961,17H84.508V15.961l3.938-4.375a9.354,9.354,0,0,0,1.207-1.613,2.693,2.693,0,0,0,.332-1.285,2.041,2.041,0,0,0-.539-1.461,1.885,1.885,0,0,0-1.437-.57,2.232,2.232,0,0,0-1.676.613,2.343,2.343,0,0,0-.6,1.707H84.289A3.355,3.355,0,0,1,85.3,6.438a3.751,3.751,0,0,1,2.707-.969,3.6,3.6,0,0,1,2.508.832,2.838,2.838,0,0,1,.922,2.215q0,1.68-2.141,4l-3.047,3.3h5.711ZM70.852,47H63.4V45.961l3.938-4.375a9.354,9.354,0,0,0,1.207-1.613,2.693,2.693,0,0,0,.332-1.285,2.041,2.041,0,0,0-.539-1.461,1.885,1.885,0,0,0-1.437-.57,2.232,2.232,0,0,0-1.676.613,2.343,2.343,0,0,0-.6,1.707H63.18a3.355,3.355,0,0,1,1.012-2.539,3.751,3.751,0,0,1,2.707-.969,3.6,3.6,0,0,1,2.508.832,2.838,2.838,0,0,1,.922,2.215q0,1.68-2.141,4l-3.047,3.3h5.711Zm7.633-3.82h1.578v1.18H78.484V47H77.031V44.359h-5.18v-.852l5.094-7.883h1.539Zm-4.992,0h3.539V37.6l-.172.313Zm7.977,6.086-.82-.562a3.77,3.77,0,0,0,.766-2.109v-1.3h1.414v1.133A3.559,3.559,0,0,1,82.441,48,3.7,3.7,0,0,1,81.469,49.266ZM89.258,47H87.8V37.367l-2.914,1.07V37.125l4.141-1.555h.227ZM70.852,77H63.4V75.961l3.938-4.375a9.354,9.354,0,0,0,1.207-1.613,2.693,2.693,0,0,0,.332-1.285,2.041,2.041,0,0,0-.539-1.461,1.885,1.885,0,0,0-1.437-.57,2.232,2.232,0,0,0-1.676.613,2.343,2.343,0,0,0-.6,1.707H63.18a3.355,3.355,0,0,1,1.012-2.539,3.751,3.751,0,0,1,2.707-.969,3.6,3.6,0,0,1,2.508.832,2.838,2.838,0,0,1,.922,2.215q0,1.68-2.141,4l-3.047,3.3h5.711Zm7.633-3.82h1.578v1.18H78.484V77H77.031V74.359h-5.18v-.852l5.094-7.883h1.539Zm-4.992,0h3.539V67.6l-.172.313Zm7.977,6.086-.82-.562a3.77,3.77,0,0,0,.766-2.109v-1.3h1.414v1.133A3.559,3.559,0,0,1,82.441,78,3.7,3.7,0,0,1,81.469,79.266Zm10.172-7.117a6.61,6.61,0,0,1-.867,3.773,3.6,3.6,0,0,1-5.406.027,6.274,6.274,0,0,1-.906-3.605v-1.93a6.463,6.463,0,0,1,.867-3.727,3.668,3.668,0,0,1,5.422-.043,6.237,6.237,0,0,1,.891,3.629ZM90.2,70.172A5.3,5.3,0,0,0,89.68,67.5a1.775,1.775,0,0,0-1.633-.84,1.751,1.751,0,0,0-1.617.836,5.171,5.171,0,0,0-.523,2.57v2.313a5.381,5.381,0,0,0,.535,2.723,1.771,1.771,0,0,0,1.621.879,1.747,1.747,0,0,0,1.59-.828,5.186,5.186,0,0,0,.543-2.609ZM70.852,107H63.4v-1.039l3.938-4.375a9.354,9.354,0,0,0,1.207-1.613,2.693,2.693,0,0,0,.332-1.285,2.041,2.041,0,0,0-.539-1.461,1.885,1.885,0,0,0-1.437-.57,2.232,2.232,0,0,0-1.676.613,2.343,2.343,0,0,0-.6,1.707H63.18a3.355,3.355,0,0,1,1.012-2.539,3.751,3.751,0,0,1,2.707-.969,3.6,3.6,0,0,1,2.508.832,2.838,2.838,0,0,1,.922,2.215q0,1.68-2.141,4l-3.047,3.3h5.711Zm3.633-6.391H75.57a2.387,2.387,0,0,0,1.609-.539,1.8,1.8,0,0,0,.586-1.414,1.764,1.764,0,0,0-1.992-2,2.072,2.072,0,0,0-1.5.535,1.873,1.873,0,0,0-.559,1.418H72.273a2.9,2.9,0,0,1,.988-2.246,3.6,3.6,0,0,1,2.512-.895,3.558,3.558,0,0,1,2.523.852,3.076,3.076,0,0,1,.914,2.367,2.5,2.5,0,0,1-.48,1.438,2.9,2.9,0,0,1-1.309,1.039,2.8,2.8,0,0,1,1.449.984,2.734,2.734,0,0,1,.512,1.68,3.1,3.1,0,0,1-1,2.43,3.745,3.745,0,0,1-2.6.9,3.844,3.844,0,0,1-2.605-.867,2.877,2.877,0,0,1-1-2.289h1.453a1.859,1.859,0,0,0,.586,1.438,2.229,2.229,0,0,0,1.57.539,2.187,2.187,0,0,0,1.6-.547,2.108,2.108,0,0,0,.555-1.57,1.912,1.912,0,0,0-.609-1.523,2.655,2.655,0,0,0-1.758-.547H74.484Zm6.984,8.656-.82-.562a3.77,3.77,0,0,0,.766-2.109v-1.3h1.414v1.133A3.559,3.559,0,0,1,82.441,108,3.7,3.7,0,0,1,81.469,109.266Zm9.938-10.672a2.641,2.641,0,0,1-.449,1.516,3.056,3.056,0,0,1-1.215,1.039,3.26,3.26,0,0,1,1.41,1.117,2.811,2.811,0,0,1,.52,1.664,2.972,2.972,0,0,1-1,2.352,4.367,4.367,0,0,1-5.25,0,2.986,2.986,0,0,1-.988-2.348,2.9,2.9,0,0,1,.5-1.664,3.136,3.136,0,0,1,1.395-1.125,2.981,2.981,0,0,1-1.2-1.039,2.679,2.679,0,0,1-.437-1.508,2.94,2.94,0,0,1,.922-2.281,3.915,3.915,0,0,1,4.855,0A2.934,2.934,0,0,1,91.406,98.594Zm-1.18,5.3a2.1,2.1,0,0,0-.605-1.555,2.147,2.147,0,0,0-1.582-.6,2.034,2.034,0,0,0-2.156,2.156,2.019,2.019,0,0,0,.574,1.523,2.565,2.565,0,0,0,3.191,0A2.014,2.014,0,0,0,90.227,103.9Zm-2.172-7.242a1.865,1.865,0,0,0-1.379.527,2.182,2.182,0,0,0-.008,2.836,2.064,2.064,0,0,0,2.773,0,2.138,2.138,0,0,0-.02-2.816A1.839,1.839,0,0,0,88.055,96.656ZM70.852,137H63.4v-1.039l3.938-4.375a9.354,9.354,0,0,0,1.207-1.613,2.693,2.693,0,0,0,.332-1.285,2.041,2.041,0,0,0-.539-1.461,1.885,1.885,0,0,0-1.437-.57,2.232,2.232,0,0,0-1.676.613,2.343,2.343,0,0,0-.6,1.707H63.18a3.355,3.355,0,0,1,1.012-2.539,3.751,3.751,0,0,1,2.707-.969,3.6,3.6,0,0,1,2.508.832,2.838,2.838,0,0,1,.922,2.215q0,1.68-2.141,4l-3.047,3.3h5.711Zm7.633-3.82h1.578v1.18H78.484V137H77.031v-2.641h-5.18v-.852l5.094-7.883h1.539Zm-4.992,0h3.539V127.6l-.172.313Zm7.977,6.086-.82-.562a3.77,3.77,0,0,0,.766-2.109v-1.3h1.414v1.133A3.559,3.559,0,0,1,82.441,138,3.7,3.7,0,0,1,81.469,139.266Zm5.141-8.656H87.7a2.387,2.387,0,0,0,1.609-.539,1.8,1.8,0,0,0,.586-1.414,1.764,1.764,0,0,0-1.992-2,2.072,2.072,0,0,0-1.5.535,1.873,1.873,0,0,0-.559,1.418H84.4a2.9,2.9,0,0,1,.988-2.246,3.6,3.6,0,0,1,2.512-.895,3.558,3.558,0,0,1,2.523.852,3.076,3.076,0,0,1,.914,2.367,2.5,2.5,0,0,1-.48,1.438,2.9,2.9,0,0,1-1.309,1.039,2.8,2.8,0,0,1,1.449.984,2.734,2.734,0,0,1,.512,1.68,3.1,3.1,0,0,1-1,2.43,3.745,3.745,0,0,1-2.6.9,3.844,3.844,0,0,1-2.605-.867,2.877,2.877,0,0,1-1-2.289H85.75a1.859,1.859,0,0,0,.586,1.438,2.229,2.229,0,0,0,1.57.539,2.187,2.187,0,0,0,1.6-.547,2.108,2.108,0,0,0,.555-1.57,1.912,1.912,0,0,0-.609-1.523,2.655,2.655,0,0,0-1.758-.547H86.609ZM70.852,167H63.4v-1.039l3.938-4.375a9.354,9.354,0,0,0,1.207-1.613,2.693,2.693,0,0,0,.332-1.285,2.041,2.041,0,0,0-.539-1.461,1.885,1.885,0,0,0-1.437-.57,2.232,2.232,0,0,0-1.676.613,2.343,2.343,0,0,0-.6,1.707H63.18a3.355,3.355,0,0,1,1.012-2.539,3.751,3.751,0,0,1,2.707-.969,3.6,3.6,0,0,1,2.508.832,2.838,2.838,0,0,1,.922,2.215q0,1.68-2.141,4l-3.047,3.3h5.711Zm3.633-6.391H75.57a2.387,2.387,0,0,0,1.609-.539,1.8,1.8,0,0,0,.586-1.414,1.764,1.764,0,0,0-1.992-2,2.072,2.072,0,0,0-1.5.535,1.873,1.873,0,0,0-.559,1.418H72.273a2.9,2.9,0,0,1,.988-2.246,3.6,3.6,0,0,1,2.512-.895,3.558,3.558,0,0,1,2.523.852,3.076,3.076,0,0,1,.914,2.367,2.5,2.5,0,0,1-.48,1.438,2.9,2.9,0,0,1-1.309,1.039,2.8,2.8,0,0,1,1.449.984,2.734,2.734,0,0,1,.512,1.68,3.1,3.1,0,0,1-1,2.43,3.745,3.745,0,0,1-2.6.9,3.844,3.844,0,0,1-2.605-.867,2.877,2.877,0,0,1-1-2.289h1.453a1.859,1.859,0,0,0,.586,1.438,2.229,2.229,0,0,0,1.57.539,2.187,2.187,0,0,0,1.6-.547,2.108,2.108,0,0,0,.555-1.57,1.912,1.912,0,0,0-.609-1.523,2.655,2.655,0,0,0-1.758-.547H74.484Zm6.984,8.656-.82-.562a3.77,3.77,0,0,0,.766-2.109v-1.3h1.414v1.133A3.559,3.559,0,0,1,82.441,168,3.7,3.7,0,0,1,81.469,169.266ZM90.047,162a3.536,3.536,0,0,1-1.082.867,2.936,2.936,0,0,1-1.379.328,3.031,3.031,0,0,1-1.715-.484,3.149,3.149,0,0,1-1.129-1.363,4.648,4.648,0,0,1-.4-1.941,4.735,4.735,0,0,1,.434-2.055,3.185,3.185,0,0,1,1.23-1.4,3.509,3.509,0,0,1,1.859-.484,3.177,3.177,0,0,1,2.66,1.262,5.5,5.5,0,0,1,.973,3.441v.422q0,3.32-1.312,4.848a5.043,5.043,0,0,1-3.961,1.566h-.281v-1.227h.3a3.442,3.442,0,0,0,3.8-3.781Zm-2.227,0a2.232,2.232,0,0,0,1.34-.445,2.625,2.625,0,0,0,.895-1.1v-.578a3.977,3.977,0,0,0-.617-2.312,1.887,1.887,0,0,0-3.094-.16,3.013,3.013,0,0,0-.578,1.926,3.136,3.136,0,0,0,.559,1.918A1.769,1.769,0,0,0,87.82,162ZM70.852,197H63.4v-1.039l3.938-4.375a9.354,9.354,0,0,0,1.207-1.613,2.693,2.693,0,0,0,.332-1.285,2.041,2.041,0,0,0-.539-1.461,1.885,1.885,0,0,0-1.437-.57,2.232,2.232,0,0,0-1.676.613,2.343,2.343,0,0,0-.6,1.707H63.18a3.355,3.355,0,0,1,1.012-2.539,3.751,3.751,0,0,1,2.707-.969,3.6,3.6,0,0,1,2.508.832,2.838,2.838,0,0,1,.922,2.215q0,1.68-2.141,4l-3.047,3.3h5.711Zm3.633-6.391H75.57a2.387,2.387,0,0,0,1.609-.539,1.8,1.8,0,0,0,.586-1.414,1.764,1.764,0,0,0-1.992-2,2.072,2.072,0,0,0-1.5.535,1.873,1.873,0,0,0-.559,1.418H72.273a2.9,2.9,0,0,1,.988-2.246,3.6,3.6,0,0,1,2.512-.895,3.558,3.558,0,0,1,2.523.852,3.076,3.076,0,0,1,.914,2.367,2.5,2.5,0,0,1-.48,1.438,2.9,2.9,0,0,1-1.309,1.039,2.8,2.8,0,0,1,1.449.984,2.734,2.734,0,0,1,.512,1.68,3.1,3.1,0,0,1-1,2.43,3.745,3.745,0,0,1-2.6.9,3.844,3.844,0,0,1-2.605-.867,2.877,2.877,0,0,1-1-2.289h1.453a1.859,1.859,0,0,0,.586,1.438,2.229,2.229,0,0,0,1.57.539,2.187,2.187,0,0,0,1.6-.547,2.108,2.108,0,0,0,.555-1.57,1.912,1.912,0,0,0-.609-1.523,2.655,2.655,0,0,0-1.758-.547H74.484Zm6.984,8.656-.82-.562a3.77,3.77,0,0,0,.766-2.109v-1.3h1.414v1.133A3.559,3.559,0,0,1,82.441,198,3.7,3.7,0,0,1,81.469,199.266ZM90.047,192a3.536,3.536,0,0,1-1.082.867,2.936,2.936,0,0,1-1.379.328,3.031,3.031,0,0,1-1.715-.484,3.149,3.149,0,0,1-1.129-1.363,4.648,4.648,0,0,1-.4-1.941,4.735,4.735,0,0,1,.434-2.055,3.185,3.185,0,0,1,1.23-1.4,3.509,3.509,0,0,1,1.859-.484,3.177,3.177,0,0,1,2.66,1.262,5.5,5.5,0,0,1,.973,3.441v.422q0,3.32-1.312,4.848a5.043,5.043,0,0,1-3.961,1.566h-.281v-1.227h.3a3.442,3.442,0,0,0,3.8-3.781Zm-2.227,0a2.232,2.232,0,0,0,1.34-.445,2.625,2.625,0,0,0,.895-1.1v-.578a3.977,3.977,0,0,0-.617-2.312,1.887,1.887,0,0,0-3.094-.16,3.013,3.013,0,0,0-.578,1.926,3.136,3.136,0,0,0,.559,1.918A1.769,1.769,0,0,0,87.82,192ZM70.852,227H63.4v-1.039l3.938-4.375a9.354,9.354,0,0,0,1.207-1.613,2.693,2.693,0,0,0,.332-1.285,2.041,2.041,0,0,0-.539-1.461,1.885,1.885,0,0,0-1.437-.57,2.232,2.232,0,0,0-1.676.613,2.343,2.343,0,0,0-.6,1.707H63.18a3.355,3.355,0,0,1,1.012-2.539,3.751,3.751,0,0,1,2.707-.969,3.6,3.6,0,0,1,2.508.832,2.838,2.838,0,0,1,.922,2.215q0,1.68-2.141,4l-3.047,3.3h5.711Zm7.633-3.82h1.578v1.18H78.484V227H77.031v-2.641h-5.18v-.852l5.094-7.883h1.539Zm-4.992,0h3.539V217.6l-.172.313Zm7.977,6.086-.82-.562a3.77,3.77,0,0,0,.766-2.109v-1.3h1.414v1.133A3.559,3.559,0,0,1,82.441,228,3.7,3.7,0,0,1,81.469,229.266ZM91.961,227H84.508v-1.039l3.938-4.375a9.354,9.354,0,0,0,1.207-1.613,2.693,2.693,0,0,0,.332-1.285,2.041,2.041,0,0,0-.539-1.461,1.885,1.885,0,0,0-1.437-.57,2.232,2.232,0,0,0-1.676.613,2.343,2.343,0,0,0-.6,1.707H84.289a3.355,3.355,0,0,1,1.012-2.539,3.751,3.751,0,0,1,2.707-.969,3.6,3.6,0,0,1,2.508.832,2.838,2.838,0,0,1,.922,2.215q0,1.68-2.141,4l-3.047,3.3h5.711ZM70.852,257H63.4v-1.039l3.938-4.375a9.354,9.354,0,0,0,1.207-1.613,2.693,2.693,0,0,0,.332-1.285,2.041,2.041,0,0,0-.539-1.461,1.885,1.885,0,0,0-1.437-.57,2.232,2.232,0,0,0-1.676.613,2.343,2.343,0,0,0-.6,1.707H63.18a3.355,3.355,0,0,1,1.012-2.539,3.751,3.751,0,0,1,2.707-.969,3.6,3.6,0,0,1,2.508.832,2.838,2.838,0,0,1,.922,2.215q0,1.68-2.141,4l-3.047,3.3h5.711Zm7.633-3.82h1.578v1.18H78.484V257H77.031v-2.641h-5.18v-.852l5.094-7.883h1.539Zm-4.992,0h3.539V247.6l-.172.313Zm7.977,6.086-.82-.562a3.77,3.77,0,0,0,.766-2.109v-1.3h1.414v1.133A3.559,3.559,0,0,1,82.441,258,3.7,3.7,0,0,1,81.469,259.266Zm10.172-7.117a6.61,6.61,0,0,1-.867,3.773,3.6,3.6,0,0,1-5.406.027,6.274,6.274,0,0,1-.906-3.605v-1.93a6.463,6.463,0,0,1,.867-3.727,3.668,3.668,0,0,1,5.422-.043,6.237,6.237,0,0,1,.891,3.629ZM90.2,250.172a5.3,5.3,0,0,0-.516-2.676,1.775,1.775,0,0,0-1.633-.84,1.751,1.751,0,0,0-1.617.836,5.171,5.171,0,0,0-.523,2.57v2.313a5.381,5.381,0,0,0,.535,2.723,1.771,1.771,0,0,0,1.621.879,1.747,1.747,0,0,0,1.59-.828,5.186,5.186,0,0,0,.543-2.609ZM70.852,287H63.4v-1.039l3.938-4.375a9.355,9.355,0,0,0,1.207-1.613,2.693,2.693,0,0,0,.332-1.285,2.041,2.041,0,0,0-.539-1.461,1.885,1.885,0,0,0-1.437-.57,2.232,2.232,0,0,0-1.676.613,2.343,2.343,0,0,0-.6,1.707H63.18a3.355,3.355,0,0,1,1.012-2.539,3.751,3.751,0,0,1,2.707-.969,3.6,3.6,0,0,1,2.508.832,2.838,2.838,0,0,1,.922,2.215q0,1.68-2.141,4l-3.047,3.3h5.711Zm7.633-3.82h1.578v1.18H78.484V287H77.031v-2.641h-5.18v-.852l5.094-7.883h1.539Zm-4.992,0h3.539V277.6l-.172.313Zm7.977,6.086-.82-.562a3.77,3.77,0,0,0,.766-2.109v-1.3h1.414v1.133A3.559,3.559,0,0,1,82.441,288,3.7,3.7,0,0,1,81.469,289.266ZM89.258,287H87.8v-9.633l-2.914,1.07v-1.312l4.141-1.555h.227Z" transform="translate(887 10212.745)" fill="#12263f"/>
    <path id="Trazado_247370" data-name="Trazado 247370" d="M83.414,17H75.961V15.961L79.9,11.586a9.354,9.354,0,0,0,1.207-1.613,2.693,2.693,0,0,0,.332-1.285A2.041,2.041,0,0,0,80.9,7.227a1.885,1.885,0,0,0-1.437-.57,2.232,2.232,0,0,0-1.676.613,2.343,2.343,0,0,0-.6,1.707H75.742a3.355,3.355,0,0,1,1.012-2.539,3.751,3.751,0,0,1,2.707-.969,3.6,3.6,0,0,1,2.508.832,2.838,2.838,0,0,1,.922,2.215q0,1.68-2.141,4L77.7,15.82h5.711ZM89.7,17H88.242V7.367l-2.914,1.07V7.125L89.469,5.57H89.7ZM83.414,47H75.961V45.961L79.9,41.586a9.354,9.354,0,0,0,1.207-1.613,2.693,2.693,0,0,0,.332-1.285,2.041,2.041,0,0,0-.539-1.461,1.885,1.885,0,0,0-1.437-.57,2.232,2.232,0,0,0-1.676.613,2.343,2.343,0,0,0-.6,1.707H75.742a3.355,3.355,0,0,1,1.012-2.539,3.751,3.751,0,0,1,2.707-.969,3.6,3.6,0,0,1,2.508.832,2.838,2.838,0,0,1,.922,2.215q0,1.68-2.141,4L77.7,45.82h5.711ZM92.4,47H84.945V45.961l3.938-4.375a9.354,9.354,0,0,0,1.207-1.613,2.693,2.693,0,0,0,.332-1.285,2.041,2.041,0,0,0-.539-1.461,1.885,1.885,0,0,0-1.437-.57,2.232,2.232,0,0,0-1.676.613,2.343,2.343,0,0,0-.6,1.707H84.727a3.355,3.355,0,0,1,1.012-2.539,3.751,3.751,0,0,1,2.707-.969,3.6,3.6,0,0,1,2.508.832,2.838,2.838,0,0,1,.922,2.215q0,1.68-2.141,4l-3.047,3.3H92.4ZM83.414,77H75.961V75.961L79.9,71.586a9.354,9.354,0,0,0,1.207-1.613,2.693,2.693,0,0,0,.332-1.285,2.041,2.041,0,0,0-.539-1.461,1.885,1.885,0,0,0-1.437-.57,2.232,2.232,0,0,0-1.676.613,2.343,2.343,0,0,0-.6,1.707H75.742a3.355,3.355,0,0,1,1.012-2.539,3.751,3.751,0,0,1,2.707-.969,3.6,3.6,0,0,1,2.508.832,2.838,2.838,0,0,1,.922,2.215q0,1.68-2.141,4L77.7,75.82h5.711Zm3.633-6.391h1.086a2.387,2.387,0,0,0,1.609-.539,1.8,1.8,0,0,0,.586-1.414,1.764,1.764,0,0,0-1.992-2,2.072,2.072,0,0,0-1.5.535,1.873,1.873,0,0,0-.559,1.418H84.836a2.9,2.9,0,0,1,.988-2.246,3.6,3.6,0,0,1,2.512-.895,3.558,3.558,0,0,1,2.523.852,3.076,3.076,0,0,1,.914,2.367,2.5,2.5,0,0,1-.48,1.438,2.9,2.9,0,0,1-1.309,1.039,2.8,2.8,0,0,1,1.449.984,2.734,2.734,0,0,1,.512,1.68,3.1,3.1,0,0,1-1,2.43,3.745,3.745,0,0,1-2.6.9,3.844,3.844,0,0,1-2.605-.867,2.877,2.877,0,0,1-1-2.289h1.453a1.859,1.859,0,0,0,.586,1.438,2.229,2.229,0,0,0,1.57.539,2.187,2.187,0,0,0,1.6-.547,2.108,2.108,0,0,0,.555-1.57,1.912,1.912,0,0,0-.609-1.523,2.655,2.655,0,0,0-1.758-.547H87.047ZM83.414,107H75.961v-1.039l3.938-4.375a9.354,9.354,0,0,0,1.207-1.613,2.693,2.693,0,0,0,.332-1.285,2.041,2.041,0,0,0-.539-1.461,1.885,1.885,0,0,0-1.437-.57,2.232,2.232,0,0,0-1.676.613,2.343,2.343,0,0,0-.6,1.707H75.742a3.355,3.355,0,0,1,1.012-2.539,3.751,3.751,0,0,1,2.707-.969,3.6,3.6,0,0,1,2.508.832,2.838,2.838,0,0,1,.922,2.215q0,1.68-2.141,4l-3.047,3.3h5.711Zm7.633-3.82h1.578v1.18H91.047V107H89.594v-2.641h-5.18v-.852l5.094-7.883h1.539Zm-4.992,0h3.539V97.6l-.172.313ZM83.414,137H75.961v-1.039l3.938-4.375a9.354,9.354,0,0,0,1.207-1.613,2.693,2.693,0,0,0,.332-1.285,2.041,2.041,0,0,0-.539-1.461,1.885,1.885,0,0,0-1.437-.57,2.232,2.232,0,0,0-1.676.613,2.343,2.343,0,0,0-.6,1.707H75.742a3.355,3.355,0,0,1,1.012-2.539,3.751,3.751,0,0,1,2.707-.969,3.6,3.6,0,0,1,2.508.832,2.838,2.838,0,0,1,.922,2.215q0,1.68-2.141,4l-3.047,3.3h5.711Zm2.2-5.7.578-5.672h5.828v1.336h-4.6l-.344,3.1a3.671,3.671,0,0,1,1.9-.492,3.138,3.138,0,0,1,2.469,1.027,4.026,4.026,0,0,1,.914,2.777,3.886,3.886,0,0,1-.949,2.77,3.46,3.46,0,0,1-2.652,1.012,3.6,3.6,0,0,1-2.461-.836,3.337,3.337,0,0,1-1.086-2.312H86.57a2.3,2.3,0,0,0,.7,1.473,2.162,2.162,0,0,0,1.484.5,1.95,1.95,0,0,0,1.582-.687,2.874,2.874,0,0,0,.574-1.9,2.638,2.638,0,0,0-.621-1.832,2.113,2.113,0,0,0-1.652-.691,2.383,2.383,0,0,0-1.484.414l-.383.313Zm-2.2,35.7H75.961v-1.039l3.938-4.375a9.354,9.354,0,0,0,1.207-1.613,2.693,2.693,0,0,0,.332-1.285,2.041,2.041,0,0,0-.539-1.461,1.885,1.885,0,0,0-1.437-.57,2.232,2.232,0,0,0-1.676.613,2.343,2.343,0,0,0-.6,1.707H75.742a3.355,3.355,0,0,1,1.012-2.539,3.751,3.751,0,0,1,2.707-.969,3.6,3.6,0,0,1,2.508.832,2.838,2.838,0,0,1,.922,2.215q0,1.68-2.141,4l-3.047,3.3h5.711Zm7.2-11.383v1.227h-.266a3.805,3.805,0,0,0-2.687,1,4.161,4.161,0,0,0-1.156,2.727,3.085,3.085,0,0,1,2.453-1.031,2.95,2.95,0,0,1,2.371,1.047,4.588,4.588,0,0,1-.07,5.516,3.3,3.3,0,0,1-2.566,1.055,3.247,3.247,0,0,1-2.648-1.254,4.97,4.97,0,0,1-1.016-3.23v-.555a7.488,7.488,0,0,1,1.34-4.8,4.921,4.921,0,0,1,3.988-1.7Zm-1.9,5.125a2.429,2.429,0,0,0-2.234,1.563v.531a3.731,3.731,0,0,0,.633,2.266,1.9,1.9,0,0,0,1.578.859,1.838,1.838,0,0,0,1.535-.719,3.452,3.452,0,0,0-.008-3.777A1.816,1.816,0,0,0,88.719,160.742ZM83.414,197H75.961v-1.039l3.938-4.375a9.354,9.354,0,0,0,1.207-1.613,2.693,2.693,0,0,0,.332-1.285,2.041,2.041,0,0,0-.539-1.461,1.885,1.885,0,0,0-1.437-.57,2.232,2.232,0,0,0-1.676.613,2.343,2.343,0,0,0-.6,1.707H75.742a3.355,3.355,0,0,1,1.012-2.539,3.751,3.751,0,0,1,2.707-.969,3.6,3.6,0,0,1,2.508.832,2.838,2.838,0,0,1,.922,2.215q0,1.68-2.141,4l-3.047,3.3h5.711Zm8.875-10.562L87.578,197H86.063l4.7-10.187H84.6v-1.187h7.688ZM83.414,227H75.961v-1.039l3.938-4.375a9.354,9.354,0,0,0,1.207-1.613,2.693,2.693,0,0,0,.332-1.285,2.041,2.041,0,0,0-.539-1.461,1.885,1.885,0,0,0-1.437-.57,2.232,2.232,0,0,0-1.676.613,2.343,2.343,0,0,0-.6,1.707H75.742a3.355,3.355,0,0,1,1.012-2.539,3.751,3.751,0,0,1,2.707-.969,3.6,3.6,0,0,1,2.508.832,2.838,2.838,0,0,1,.922,2.215q0,1.68-2.141,4l-3.047,3.3h5.711Zm8.43-8.406a2.641,2.641,0,0,1-.449,1.516,3.057,3.057,0,0,1-1.215,1.039,3.26,3.26,0,0,1,1.41,1.117,2.811,2.811,0,0,1,.52,1.664,2.972,2.972,0,0,1-1,2.352,4.367,4.367,0,0,1-5.25,0,2.986,2.986,0,0,1-.988-2.348,2.9,2.9,0,0,1,.5-1.664,3.136,3.136,0,0,1,1.395-1.125,2.981,2.981,0,0,1-1.2-1.039,2.679,2.679,0,0,1-.437-1.508,2.94,2.94,0,0,1,.922-2.281,3.915,3.915,0,0,1,4.855,0A2.934,2.934,0,0,1,91.844,218.594Zm-1.18,5.3a2.1,2.1,0,0,0-.605-1.555,2.147,2.147,0,0,0-1.582-.6A2.034,2.034,0,0,0,86.32,223.9a2.019,2.019,0,0,0,.574,1.523,2.565,2.565,0,0,0,3.191,0A2.014,2.014,0,0,0,90.664,223.9Zm-2.172-7.242a1.865,1.865,0,0,0-1.379.527,2.182,2.182,0,0,0-.008,2.836,2.064,2.064,0,0,0,2.773,0,2.138,2.138,0,0,0-.02-2.816A1.839,1.839,0,0,0,88.492,216.656ZM83.414,257H75.961v-1.039l3.938-4.375a9.354,9.354,0,0,0,1.207-1.613,2.693,2.693,0,0,0,.332-1.285,2.041,2.041,0,0,0-.539-1.461,1.885,1.885,0,0,0-1.437-.57,2.232,2.232,0,0,0-1.676.613,2.343,2.343,0,0,0-.6,1.707H75.742a3.355,3.355,0,0,1,1.012-2.539,3.751,3.751,0,0,1,2.707-.969,3.6,3.6,0,0,1,2.508.832,2.838,2.838,0,0,1,.922,2.215q0,1.68-2.141,4l-3.047,3.3h5.711Zm7.07-5a3.536,3.536,0,0,1-1.082.867,2.936,2.936,0,0,1-1.379.328,3.031,3.031,0,0,1-1.715-.484,3.149,3.149,0,0,1-1.129-1.363,4.648,4.648,0,0,1-.4-1.941,4.735,4.735,0,0,1,.434-2.055,3.185,3.185,0,0,1,1.23-1.4,3.509,3.509,0,0,1,1.859-.484,3.177,3.177,0,0,1,2.66,1.262,5.5,5.5,0,0,1,.973,3.441v.422q0,3.32-1.312,4.848a5.043,5.043,0,0,1-3.961,1.566h-.281v-1.227h.3a3.442,3.442,0,0,0,3.8-3.781Zm-2.227,0a2.232,2.232,0,0,0,1.34-.445,2.625,2.625,0,0,0,.895-1.1v-.578a3.977,3.977,0,0,0-.617-2.312,1.887,1.887,0,0,0-3.094-.16,3.013,3.013,0,0,0-.578,1.926,3.136,3.136,0,0,0,.559,1.918A1.769,1.769,0,0,0,88.258,252Zm-10.2,28.609h1.086a2.387,2.387,0,0,0,1.609-.539,1.8,1.8,0,0,0,.586-1.414,1.764,1.764,0,0,0-1.992-2,2.072,2.072,0,0,0-1.5.535,1.873,1.873,0,0,0-.559,1.418H75.852a2.9,2.9,0,0,1,.988-2.246,3.6,3.6,0,0,1,2.512-.895,3.558,3.558,0,0,1,2.523.852,3.076,3.076,0,0,1,.914,2.367,2.5,2.5,0,0,1-.48,1.438A2.9,2.9,0,0,1,81,281.164a2.8,2.8,0,0,1,1.449.984,2.734,2.734,0,0,1,.512,1.68,3.1,3.1,0,0,1-1,2.43,3.745,3.745,0,0,1-2.6.9,3.844,3.844,0,0,1-2.605-.867,2.877,2.877,0,0,1-1-2.289H77.2a1.859,1.859,0,0,0,.586,1.438,2.229,2.229,0,0,0,1.57.539,2.187,2.187,0,0,0,1.6-.547,2.108,2.108,0,0,0,.555-1.57,1.912,1.912,0,0,0-.609-1.523,2.655,2.655,0,0,0-1.758-.547H78.063Zm14.016,1.539a6.61,6.61,0,0,1-.867,3.773,3.6,3.6,0,0,1-5.406.027,6.274,6.274,0,0,1-.906-3.605v-1.93a6.463,6.463,0,0,1,.867-3.727,3.668,3.668,0,0,1,5.422-.043,6.237,6.237,0,0,1,.891,3.629Zm-1.445-1.977a5.3,5.3,0,0,0-.516-2.676,1.775,1.775,0,0,0-1.633-.84,1.751,1.751,0,0,0-1.617.836,5.171,5.171,0,0,0-.523,2.57v2.313a5.381,5.381,0,0,0,.535,2.723,1.771,1.771,0,0,0,1.621.879,1.747,1.747,0,0,0,1.59-.828,5.186,5.186,0,0,0,.543-2.609Z" transform="translate(1042 10212.745)" fill="#12263f"/>
    <path id="Trazado_247371" data-name="Trazado 247371" d="M77.352,17H69.9V15.961l3.938-4.375a9.354,9.354,0,0,0,1.207-1.613,2.693,2.693,0,0,0,.332-1.285,2.041,2.041,0,0,0-.539-1.461,1.885,1.885,0,0,0-1.437-.57,2.232,2.232,0,0,0-1.676.613,2.343,2.343,0,0,0-.6,1.707H69.68a3.355,3.355,0,0,1,1.012-2.539A3.751,3.751,0,0,1,73.4,5.469a3.6,3.6,0,0,1,2.508.832,2.838,2.838,0,0,1,.922,2.215q0,1.68-2.141,4l-3.047,3.3h5.711Zm7.633-3.82h1.578v1.18H84.984V17H83.531V14.359h-5.18v-.852l5.094-7.883h1.539Zm-4.992,0h3.539V7.6l-.172.313Zm7.977,6.086-.82-.562a3.77,3.77,0,0,0,.766-2.109v-1.3h1.414v1.133A3.559,3.559,0,0,1,88.941,18,3.7,3.7,0,0,1,87.969,19.266ZM98.461,17H91.008V15.961l3.938-4.375a9.354,9.354,0,0,0,1.207-1.613,2.693,2.693,0,0,0,.332-1.285,2.041,2.041,0,0,0-.539-1.461,1.885,1.885,0,0,0-1.437-.57,2.232,2.232,0,0,0-1.676.613,2.343,2.343,0,0,0-.6,1.707H90.789A3.355,3.355,0,0,1,91.8,6.438a3.751,3.751,0,0,1,2.707-.969,3.6,3.6,0,0,1,2.508.832,2.838,2.838,0,0,1,.922,2.215q0,1.68-2.141,4l-3.047,3.3h5.711ZM77.352,47H69.9V45.961l3.938-4.375a9.354,9.354,0,0,0,1.207-1.613,2.693,2.693,0,0,0,.332-1.285,2.041,2.041,0,0,0-.539-1.461,1.885,1.885,0,0,0-1.437-.57,2.232,2.232,0,0,0-1.676.613,2.343,2.343,0,0,0-.6,1.707H69.68a3.355,3.355,0,0,1,1.012-2.539,3.751,3.751,0,0,1,2.707-.969,3.6,3.6,0,0,1,2.508.832,2.838,2.838,0,0,1,.922,2.215q0,1.68-2.141,4l-3.047,3.3h5.711Zm7.633-3.82h1.578v1.18H84.984V47H83.531V44.359h-5.18v-.852l5.094-7.883h1.539Zm-4.992,0h3.539V37.6l-.172.313Zm7.977,6.086-.82-.562a3.77,3.77,0,0,0,.766-2.109v-1.3h1.414v1.133A3.559,3.559,0,0,1,88.941,48,3.7,3.7,0,0,1,87.969,49.266ZM95.758,47H94.3V37.367l-2.914,1.07V37.125l4.141-1.555h.227ZM77.352,77H69.9V75.961l3.938-4.375a9.354,9.354,0,0,0,1.207-1.613,2.693,2.693,0,0,0,.332-1.285,2.041,2.041,0,0,0-.539-1.461,1.885,1.885,0,0,0-1.437-.57,2.232,2.232,0,0,0-1.676.613,2.343,2.343,0,0,0-.6,1.707H69.68a3.355,3.355,0,0,1,1.012-2.539,3.751,3.751,0,0,1,2.707-.969,3.6,3.6,0,0,1,2.508.832,2.838,2.838,0,0,1,.922,2.215q0,1.68-2.141,4l-3.047,3.3h5.711Zm7.633-3.82h1.578v1.18H84.984V77H83.531V74.359h-5.18v-.852l5.094-7.883h1.539Zm-4.992,0h3.539V67.6l-.172.313Zm7.977,6.086-.82-.562a3.77,3.77,0,0,0,.766-2.109v-1.3h1.414v1.133A3.559,3.559,0,0,1,88.941,78,3.7,3.7,0,0,1,87.969,79.266Zm10.172-7.117a6.61,6.61,0,0,1-.867,3.773,3.6,3.6,0,0,1-5.406.027,6.274,6.274,0,0,1-.906-3.605v-1.93a6.463,6.463,0,0,1,.867-3.727,3.668,3.668,0,0,1,5.422-.043,6.237,6.237,0,0,1,.891,3.629ZM96.7,70.172A5.3,5.3,0,0,0,96.18,67.5a1.775,1.775,0,0,0-1.633-.84,1.751,1.751,0,0,0-1.617.836,5.171,5.171,0,0,0-.523,2.57v2.313a5.381,5.381,0,0,0,.535,2.723,1.771,1.771,0,0,0,1.621.879,1.747,1.747,0,0,0,1.59-.828,5.186,5.186,0,0,0,.543-2.609ZM77.352,107H69.9v-1.039l3.938-4.375a9.354,9.354,0,0,0,1.207-1.613,2.693,2.693,0,0,0,.332-1.285,2.041,2.041,0,0,0-.539-1.461,1.885,1.885,0,0,0-1.437-.57,2.232,2.232,0,0,0-1.676.613,2.343,2.343,0,0,0-.6,1.707H69.68a3.355,3.355,0,0,1,1.012-2.539,3.751,3.751,0,0,1,2.707-.969,3.6,3.6,0,0,1,2.508.832,2.838,2.838,0,0,1,.922,2.215q0,1.68-2.141,4l-3.047,3.3h5.711Zm3.633-6.391H82.07a2.387,2.387,0,0,0,1.609-.539,1.8,1.8,0,0,0,.586-1.414,1.764,1.764,0,0,0-1.992-2,2.072,2.072,0,0,0-1.5.535,1.873,1.873,0,0,0-.559,1.418H78.773a2.9,2.9,0,0,1,.988-2.246,3.6,3.6,0,0,1,2.512-.895,3.558,3.558,0,0,1,2.523.852,3.076,3.076,0,0,1,.914,2.367,2.5,2.5,0,0,1-.48,1.438,2.9,2.9,0,0,1-1.309,1.039,2.8,2.8,0,0,1,1.449.984,2.734,2.734,0,0,1,.512,1.68,3.1,3.1,0,0,1-1,2.43,3.745,3.745,0,0,1-2.6.9,3.844,3.844,0,0,1-2.605-.867,2.877,2.877,0,0,1-1-2.289h1.453a1.859,1.859,0,0,0,.586,1.438,2.229,2.229,0,0,0,1.57.539,2.187,2.187,0,0,0,1.6-.547,2.108,2.108,0,0,0,.555-1.57,1.912,1.912,0,0,0-.609-1.523,2.655,2.655,0,0,0-1.758-.547H80.984Zm6.984,8.656-.82-.562a3.77,3.77,0,0,0,.766-2.109v-1.3h1.414v1.133A3.559,3.559,0,0,1,88.941,108,3.7,3.7,0,0,1,87.969,109.266Zm9.938-10.672a2.641,2.641,0,0,1-.449,1.516,3.056,3.056,0,0,1-1.215,1.039,3.26,3.26,0,0,1,1.41,1.117,2.811,2.811,0,0,1,.52,1.664,2.972,2.972,0,0,1-1,2.352,4.367,4.367,0,0,1-5.25,0,2.986,2.986,0,0,1-.988-2.348,2.9,2.9,0,0,1,.5-1.664,3.136,3.136,0,0,1,1.395-1.125,2.981,2.981,0,0,1-1.2-1.039,2.679,2.679,0,0,1-.437-1.508,2.94,2.94,0,0,1,.922-2.281,3.915,3.915,0,0,1,4.855,0A2.934,2.934,0,0,1,97.906,98.594Zm-1.18,5.3a2.1,2.1,0,0,0-.605-1.555,2.147,2.147,0,0,0-1.582-.6,2.034,2.034,0,0,0-2.156,2.156,2.019,2.019,0,0,0,.574,1.523,2.565,2.565,0,0,0,3.191,0A2.014,2.014,0,0,0,96.727,103.9Zm-2.172-7.242a1.865,1.865,0,0,0-1.379.527,2.182,2.182,0,0,0-.008,2.836,2.064,2.064,0,0,0,2.773,0,2.138,2.138,0,0,0-.02-2.816A1.839,1.839,0,0,0,94.555,96.656ZM77.352,137H69.9v-1.039l3.938-4.375a9.354,9.354,0,0,0,1.207-1.613,2.693,2.693,0,0,0,.332-1.285,2.041,2.041,0,0,0-.539-1.461,1.885,1.885,0,0,0-1.437-.57,2.232,2.232,0,0,0-1.676.613,2.343,2.343,0,0,0-.6,1.707H69.68a3.355,3.355,0,0,1,1.012-2.539,3.751,3.751,0,0,1,2.707-.969,3.6,3.6,0,0,1,2.508.832,2.838,2.838,0,0,1,.922,2.215q0,1.68-2.141,4l-3.047,3.3h5.711Zm7.633-3.82h1.578v1.18H84.984V137H83.531v-2.641h-5.18v-.852l5.094-7.883h1.539Zm-4.992,0h3.539V127.6l-.172.313Zm7.977,6.086-.82-.562a3.77,3.77,0,0,0,.766-2.109v-1.3h1.414v1.133A3.559,3.559,0,0,1,88.941,138,3.7,3.7,0,0,1,87.969,139.266Zm5.141-8.656H94.2a2.387,2.387,0,0,0,1.609-.539,1.8,1.8,0,0,0,.586-1.414,1.764,1.764,0,0,0-1.992-2,2.072,2.072,0,0,0-1.5.535,1.873,1.873,0,0,0-.559,1.418H90.9a2.9,2.9,0,0,1,.988-2.246,3.6,3.6,0,0,1,2.512-.895,3.558,3.558,0,0,1,2.523.852,3.076,3.076,0,0,1,.914,2.367,2.5,2.5,0,0,1-.48,1.438,2.9,2.9,0,0,1-1.309,1.039,2.8,2.8,0,0,1,1.449.984,2.734,2.734,0,0,1,.512,1.68,3.1,3.1,0,0,1-1,2.43,3.745,3.745,0,0,1-2.6.9,3.844,3.844,0,0,1-2.605-.867,2.877,2.877,0,0,1-1-2.289H92.25a1.859,1.859,0,0,0,.586,1.438,2.229,2.229,0,0,0,1.57.539,2.187,2.187,0,0,0,1.6-.547,2.108,2.108,0,0,0,.555-1.57,1.912,1.912,0,0,0-.609-1.523,2.655,2.655,0,0,0-1.758-.547H93.109ZM77.352,167H69.9v-1.039l3.938-4.375a9.354,9.354,0,0,0,1.207-1.613,2.693,2.693,0,0,0,.332-1.285,2.041,2.041,0,0,0-.539-1.461,1.885,1.885,0,0,0-1.437-.57,2.232,2.232,0,0,0-1.676.613,2.343,2.343,0,0,0-.6,1.707H69.68a3.355,3.355,0,0,1,1.012-2.539,3.751,3.751,0,0,1,2.707-.969,3.6,3.6,0,0,1,2.508.832,2.838,2.838,0,0,1,.922,2.215q0,1.68-2.141,4l-3.047,3.3h5.711Zm3.633-6.391H82.07a2.387,2.387,0,0,0,1.609-.539,1.8,1.8,0,0,0,.586-1.414,1.764,1.764,0,0,0-1.992-2,2.072,2.072,0,0,0-1.5.535,1.873,1.873,0,0,0-.559,1.418H78.773a2.9,2.9,0,0,1,.988-2.246,3.6,3.6,0,0,1,2.512-.895,3.558,3.558,0,0,1,2.523.852,3.076,3.076,0,0,1,.914,2.367,2.5,2.5,0,0,1-.48,1.438,2.9,2.9,0,0,1-1.309,1.039,2.8,2.8,0,0,1,1.449.984,2.734,2.734,0,0,1,.512,1.68,3.1,3.1,0,0,1-1,2.43,3.745,3.745,0,0,1-2.6.9,3.844,3.844,0,0,1-2.605-.867,2.877,2.877,0,0,1-1-2.289h1.453a1.859,1.859,0,0,0,.586,1.438,2.229,2.229,0,0,0,1.57.539,2.187,2.187,0,0,0,1.6-.547,2.108,2.108,0,0,0,.555-1.57,1.912,1.912,0,0,0-.609-1.523,2.655,2.655,0,0,0-1.758-.547H80.984Zm6.984,8.656-.82-.562a3.77,3.77,0,0,0,.766-2.109v-1.3h1.414v1.133A3.559,3.559,0,0,1,88.941,168,3.7,3.7,0,0,1,87.969,169.266ZM96.547,162a3.536,3.536,0,0,1-1.082.867,2.936,2.936,0,0,1-1.379.328,3.031,3.031,0,0,1-1.715-.484,3.149,3.149,0,0,1-1.129-1.363,4.648,4.648,0,0,1-.4-1.941,4.735,4.735,0,0,1,.434-2.055,3.185,3.185,0,0,1,1.23-1.4,3.509,3.509,0,0,1,1.859-.484,3.177,3.177,0,0,1,2.66,1.262A5.5,5.5,0,0,1,98,160.172v.422q0,3.32-1.312,4.848a5.043,5.043,0,0,1-3.961,1.566h-.281v-1.227h.3a3.442,3.442,0,0,0,3.8-3.781Zm-2.227,0a2.232,2.232,0,0,0,1.34-.445,2.625,2.625,0,0,0,.895-1.1v-.578a3.977,3.977,0,0,0-.617-2.312,1.887,1.887,0,0,0-3.094-.16,3.013,3.013,0,0,0-.578,1.926,3.136,3.136,0,0,0,.559,1.918A1.769,1.769,0,0,0,94.32,162ZM77.352,197H69.9v-1.039l3.938-4.375a9.354,9.354,0,0,0,1.207-1.613,2.693,2.693,0,0,0,.332-1.285,2.041,2.041,0,0,0-.539-1.461,1.885,1.885,0,0,0-1.437-.57,2.232,2.232,0,0,0-1.676.613,2.343,2.343,0,0,0-.6,1.707H69.68a3.355,3.355,0,0,1,1.012-2.539,3.751,3.751,0,0,1,2.707-.969,3.6,3.6,0,0,1,2.508.832,2.838,2.838,0,0,1,.922,2.215q0,1.68-2.141,4l-3.047,3.3h5.711Zm3.633-6.391H82.07a2.387,2.387,0,0,0,1.609-.539,1.8,1.8,0,0,0,.586-1.414,1.764,1.764,0,0,0-1.992-2,2.072,2.072,0,0,0-1.5.535,1.873,1.873,0,0,0-.559,1.418H78.773a2.9,2.9,0,0,1,.988-2.246,3.6,3.6,0,0,1,2.512-.895,3.558,3.558,0,0,1,2.523.852,3.076,3.076,0,0,1,.914,2.367,2.5,2.5,0,0,1-.48,1.438,2.9,2.9,0,0,1-1.309,1.039,2.8,2.8,0,0,1,1.449.984,2.734,2.734,0,0,1,.512,1.68,3.1,3.1,0,0,1-1,2.43,3.745,3.745,0,0,1-2.6.9,3.844,3.844,0,0,1-2.605-.867,2.877,2.877,0,0,1-1-2.289h1.453a1.859,1.859,0,0,0,.586,1.438,2.229,2.229,0,0,0,1.57.539,2.187,2.187,0,0,0,1.6-.547,2.108,2.108,0,0,0,.555-1.57,1.912,1.912,0,0,0-.609-1.523,2.655,2.655,0,0,0-1.758-.547H80.984Zm6.984,8.656-.82-.562a3.77,3.77,0,0,0,.766-2.109v-1.3h1.414v1.133A3.559,3.559,0,0,1,88.941,198,3.7,3.7,0,0,1,87.969,199.266ZM96.547,192a3.536,3.536,0,0,1-1.082.867,2.936,2.936,0,0,1-1.379.328,3.031,3.031,0,0,1-1.715-.484,3.149,3.149,0,0,1-1.129-1.363,4.648,4.648,0,0,1-.4-1.941,4.735,4.735,0,0,1,.434-2.055,3.185,3.185,0,0,1,1.23-1.4,3.509,3.509,0,0,1,1.859-.484,3.177,3.177,0,0,1,2.66,1.262A5.5,5.5,0,0,1,98,190.172v.422q0,3.32-1.312,4.848a5.043,5.043,0,0,1-3.961,1.566h-.281v-1.227h.3a3.442,3.442,0,0,0,3.8-3.781Zm-2.227,0a2.232,2.232,0,0,0,1.34-.445,2.625,2.625,0,0,0,.895-1.1v-.578a3.977,3.977,0,0,0-.617-2.312,1.887,1.887,0,0,0-3.094-.16,3.013,3.013,0,0,0-.578,1.926,3.136,3.136,0,0,0,.559,1.918A1.769,1.769,0,0,0,94.32,192ZM77.352,227H69.9v-1.039l3.938-4.375a9.354,9.354,0,0,0,1.207-1.613,2.693,2.693,0,0,0,.332-1.285,2.041,2.041,0,0,0-.539-1.461,1.885,1.885,0,0,0-1.437-.57,2.232,2.232,0,0,0-1.676.613,2.343,2.343,0,0,0-.6,1.707H69.68a3.355,3.355,0,0,1,1.012-2.539,3.751,3.751,0,0,1,2.707-.969,3.6,3.6,0,0,1,2.508.832,2.838,2.838,0,0,1,.922,2.215q0,1.68-2.141,4l-3.047,3.3h5.711Zm7.633-3.82h1.578v1.18H84.984V227H83.531v-2.641h-5.18v-.852l5.094-7.883h1.539Zm-4.992,0h3.539V217.6l-.172.313Zm7.977,6.086-.82-.562a3.77,3.77,0,0,0,.766-2.109v-1.3h1.414v1.133A3.559,3.559,0,0,1,88.941,228,3.7,3.7,0,0,1,87.969,229.266ZM98.461,227H91.008v-1.039l3.938-4.375a9.354,9.354,0,0,0,1.207-1.613,2.693,2.693,0,0,0,.332-1.285,2.041,2.041,0,0,0-.539-1.461,1.885,1.885,0,0,0-1.437-.57,2.232,2.232,0,0,0-1.676.613,2.343,2.343,0,0,0-.6,1.707H90.789a3.355,3.355,0,0,1,1.012-2.539,3.751,3.751,0,0,1,2.707-.969,3.6,3.6,0,0,1,2.508.832,2.838,2.838,0,0,1,.922,2.215q0,1.68-2.141,4l-3.047,3.3h5.711ZM77.352,257H69.9v-1.039l3.938-4.375a9.354,9.354,0,0,0,1.207-1.613,2.693,2.693,0,0,0,.332-1.285,2.041,2.041,0,0,0-.539-1.461,1.885,1.885,0,0,0-1.437-.57,2.232,2.232,0,0,0-1.676.613,2.343,2.343,0,0,0-.6,1.707H69.68a3.355,3.355,0,0,1,1.012-2.539,3.751,3.751,0,0,1,2.707-.969,3.6,3.6,0,0,1,2.508.832,2.838,2.838,0,0,1,.922,2.215q0,1.68-2.141,4l-3.047,3.3h5.711Zm7.633-3.82h1.578v1.18H84.984V257H83.531v-2.641h-5.18v-.852l5.094-7.883h1.539Zm-4.992,0h3.539V247.6l-.172.313Zm7.977,6.086-.82-.562a3.77,3.77,0,0,0,.766-2.109v-1.3h1.414v1.133A3.559,3.559,0,0,1,88.941,258,3.7,3.7,0,0,1,87.969,259.266Zm10.172-7.117a6.61,6.61,0,0,1-.867,3.773,3.6,3.6,0,0,1-5.406.027,6.274,6.274,0,0,1-.906-3.605v-1.93a6.463,6.463,0,0,1,.867-3.727,3.668,3.668,0,0,1,5.422-.043,6.237,6.237,0,0,1,.891,3.629ZM96.7,250.172a5.3,5.3,0,0,0-.516-2.676,1.775,1.775,0,0,0-1.633-.84,1.751,1.751,0,0,0-1.617.836,5.171,5.171,0,0,0-.523,2.57v2.313a5.381,5.381,0,0,0,.535,2.723,1.771,1.771,0,0,0,1.621.879,1.747,1.747,0,0,0,1.59-.828,5.186,5.186,0,0,0,.543-2.609ZM77.352,287H69.9v-1.039l3.938-4.375a9.355,9.355,0,0,0,1.207-1.613,2.693,2.693,0,0,0,.332-1.285,2.041,2.041,0,0,0-.539-1.461,1.885,1.885,0,0,0-1.437-.57,2.232,2.232,0,0,0-1.676.613,2.343,2.343,0,0,0-.6,1.707H69.68a3.355,3.355,0,0,1,1.012-2.539,3.751,3.751,0,0,1,2.707-.969,3.6,3.6,0,0,1,2.508.832,2.838,2.838,0,0,1,.922,2.215q0,1.68-2.141,4l-3.047,3.3h5.711Zm7.633-3.82h1.578v1.18H84.984V287H83.531v-2.641h-5.18v-.852l5.094-7.883h1.539Zm-4.992,0h3.539V277.6l-.172.313Zm7.977,6.086-.82-.562a3.77,3.77,0,0,0,.766-2.109v-1.3h1.414v1.133A3.559,3.559,0,0,1,88.941,288,3.7,3.7,0,0,1,87.969,289.266ZM95.758,287H94.3v-9.633l-2.914,1.07v-1.312l4.141-1.555h.227Z" transform="translate(1210 10212.745)" fill="#12263f"/>
    <path id="Trazado_247372" data-name="Trazado 247372" d="M54.363,5.625l2.922,8.25,2.906-8.25H63.27V17H60.918V13.891l.234-5.367L58.082,17H56.473L53.41,8.531l.234,5.359V17H51.3V5.625ZM70.23,16.141a2.831,2.831,0,0,1-2.312,1.016,2.67,2.67,0,0,1-2.074-.781,3.335,3.335,0,0,1-.73-2.289V8.547h2.258v5.467q0,1.322,1.2,1.322a1.63,1.63,0,0,0,1.578-.8V8.547h2.266V17H70.293Zm7.781,1.016a4.15,4.15,0,0,1-3.027-1.141,4.054,4.054,0,0,1-1.168-3.039v-.219a5.106,5.106,0,0,1,.492-2.277A3.612,3.612,0,0,1,75.7,8.934a3.914,3.914,0,0,1,2.059-.543,3.508,3.508,0,0,1,2.73,1.094,4.444,4.444,0,0,1,1,3.1v.922H76.105a2.1,2.1,0,0,0,.66,1.328,2,2,0,0,0,1.395.5,2.437,2.437,0,0,0,2.039-.945l1.109,1.242a3.389,3.389,0,0,1-1.375,1.121A4.511,4.511,0,0,1,78.012,17.156Zm-.258-6.945a1.411,1.411,0,0,0-1.09.455,2.357,2.357,0,0,0-.535,1.3H79.27v-.181a1.681,1.681,0,0,0-.406-1.165A1.456,1.456,0,0,0,77.754,10.211Zm9.594,4.453a.727.727,0,0,0-.41-.652,4.659,4.659,0,0,0-1.316-.426q-3.016-.633-3.016-2.562a2.323,2.323,0,0,1,.934-1.879,3.766,3.766,0,0,1,2.441-.754,4.053,4.053,0,0,1,2.574.758,2.388,2.388,0,0,1,.965,1.969H87.262a1.092,1.092,0,0,0-.312-.8A1.322,1.322,0,0,0,85.973,10a1.351,1.351,0,0,0-.883.258.814.814,0,0,0-.312.656.7.7,0,0,0,.355.605,3.657,3.657,0,0,0,1.2.4,9.8,9.8,0,0,1,1.422.379,2.336,2.336,0,0,1,1.789,2.273,2.2,2.2,0,0,1-.992,1.871,4.28,4.28,0,0,1-2.562.715,4.47,4.47,0,0,1-1.887-.379,3.166,3.166,0,0,1-1.293-1.039,2.414,2.414,0,0,1-.469-1.426H84.48a1.179,1.179,0,0,0,.445.922,1.766,1.766,0,0,0,1.109.32,1.635,1.635,0,0,0,.98-.246A.766.766,0,0,0,87.348,14.664Zm6.352-8.2V8.547h1.445V10.2H93.7v4.219a1.007,1.007,0,0,0,.18.672.9.9,0,0,0,.688.2,3.6,3.6,0,0,0,.664-.055v1.711a4.648,4.648,0,0,1-1.367.2,2.156,2.156,0,0,1-2.422-2.4V10.2H90.207V8.547h1.234V6.469Zm7.453,4.2a6.134,6.134,0,0,0-.812-.062,1.654,1.654,0,0,0-1.68.867V17H96.4V8.547h2.133L98.6,9.555a2.092,2.092,0,0,1,1.883-1.164,2.366,2.366,0,0,1,.7.1ZM106.9,17a2.507,2.507,0,0,1-.227-.758,2.732,2.732,0,0,1-2.133.914,3,3,0,0,1-2.059-.719,2.312,2.312,0,0,1-.816-1.812,2.389,2.389,0,0,1,1-2.062,4.915,4.915,0,0,1,2.879-.727h1.039v-.484a1.393,1.393,0,0,0-.3-.937,1.183,1.183,0,0,0-.949-.352,1.345,1.345,0,0,0-.895.273.929.929,0,0,0-.324.75h-2.258a2.268,2.268,0,0,1,.453-1.359,3,3,0,0,1,1.281-.98,4.669,4.669,0,0,1,1.859-.355,3.689,3.689,0,0,1,2.48.785,2.747,2.747,0,0,1,.918,2.207v3.664a4.041,4.041,0,0,0,.336,1.82V17Zm-1.867-1.57a1.945,1.945,0,0,0,.922-.223,1.462,1.462,0,0,0,.625-.6V13.156h-.844q-1.7,0-1.8,1.172l-.008.133a.9.9,0,0,0,.3.7A1.153,1.153,0,0,0,105.035,15.43Z" transform="translate(728 10180.745)" fill="#12263f"/>
    <path id="Trazado_247373" data-name="Trazado 247373" d="M37.148,15.117h4.977V17H34.8V5.625h2.344Zm5.82-2.422a5.013,5.013,0,0,1,.484-2.242A3.546,3.546,0,0,1,44.848,8.93a4.069,4.069,0,0,1,2.113-.539,3.849,3.849,0,0,1,2.793,1.047,4.2,4.2,0,0,1,1.207,2.844l.016.578a4.418,4.418,0,0,1-1.086,3.121,4.209,4.209,0,0,1-5.832,0,4.5,4.5,0,0,1-1.09-3.187Zm2.258.16A3.16,3.16,0,0,0,45.68,14.7a1.628,1.628,0,0,0,2.578.008,3.457,3.457,0,0,0,.461-2.015,3.128,3.128,0,0,0-.461-1.831,1.5,1.5,0,0,0-1.3-.649,1.474,1.474,0,0,0-1.281.646A3.516,3.516,0,0,0,45.227,12.856Zm9.219-4.309.07.977a2.951,2.951,0,0,1,2.43-1.133,2.453,2.453,0,0,1,2,.789,3.682,3.682,0,0,1,.672,2.359V17H57.359V11.594a1.465,1.465,0,0,0-.312-1.043,1.4,1.4,0,0,0-1.039-.324,1.553,1.553,0,0,0-1.43.813V17H52.32V8.547ZM61,12.711a4.954,4.954,0,0,1,.926-3.133,3,3,0,0,1,2.5-1.187,2.631,2.631,0,0,1,2.164.953l.094-.8h2.047v8.172a3.613,3.613,0,0,1-.5,1.93A3.236,3.236,0,0,1,66.8,19.9a4.985,4.985,0,0,1-2.141.43,4.635,4.635,0,0,1-1.812-.371A3.217,3.217,0,0,1,61.516,19l1-1.375a2.645,2.645,0,0,0,2.047.945,1.936,1.936,0,0,0,1.4-.48,1.8,1.8,0,0,0,.5-1.363v-.453a2.612,2.612,0,0,1-2.055.883,2.992,2.992,0,0,1-2.465-1.191A4.953,4.953,0,0,1,61,12.8Zm2.258.168a3.085,3.085,0,0,0,.461,1.8,1.466,1.466,0,0,0,1.266.653,1.568,1.568,0,0,0,1.477-.775V11A1.564,1.564,0,0,0,65,10.227a1.476,1.476,0,0,0-1.277.665A3.477,3.477,0,0,0,63.258,12.879ZM72.844,17H70.578V8.547h2.266Zm-2.4-10.641a1.112,1.112,0,0,1,.34-.836,1.465,1.465,0,0,1,1.848,0,1.105,1.105,0,0,1,.344.836,1.108,1.108,0,0,1-.348.844,1.448,1.448,0,0,1-1.836,0A1.108,1.108,0,0,1,70.445,6.359Zm6.961.109V8.547h1.445V10.2H77.406v4.219a1.007,1.007,0,0,0,.18.672.9.9,0,0,0,.688.2,3.6,3.6,0,0,0,.664-.055v1.711a4.648,4.648,0,0,1-1.367.2,2.156,2.156,0,0,1-2.422-2.4V10.2H73.914V8.547h1.234V6.469Zm7.766,9.672a2.831,2.831,0,0,1-2.312,1.016,2.67,2.67,0,0,1-2.074-.781,3.335,3.335,0,0,1-.73-2.289V8.547h2.258v5.467q0,1.322,1.2,1.322a1.63,1.63,0,0,0,1.578-.8V8.547h2.266V17H85.234Zm3.539-3.43A5.094,5.094,0,0,1,89.6,9.563a2.877,2.877,0,0,1,2.426-1.172,2.589,2.589,0,0,1,2.039.922V5h2.266V17H94.289l-.109-.9a2.657,2.657,0,0,1-2.172,1.055,2.869,2.869,0,0,1-2.395-1.176A5.258,5.258,0,0,1,88.711,12.711Zm2.258.168a3.337,3.337,0,0,0,.414,1.823,1.349,1.349,0,0,0,1.2.634,1.511,1.511,0,0,0,1.477-.884V11.111a1.489,1.489,0,0,0-1.461-.884Q90.969,10.227,90.969,12.879Z" transform="translate(900 10180.745)" fill="#12263f"/>
    <path id="Trazado_247374" data-name="Trazado 247374" d="M48.863,5.625l2.922,8.25,2.906-8.25H57.77V17H55.418V13.891l.234-5.367L52.582,17H50.973L47.91,8.531l.234,5.359V17H45.8V5.625ZM64.73,16.141a2.831,2.831,0,0,1-2.312,1.016,2.67,2.67,0,0,1-2.074-.781,3.335,3.335,0,0,1-.73-2.289V8.547h2.258v5.467q0,1.322,1.2,1.322a1.63,1.63,0,0,0,1.578-.8V8.547h2.266V17H64.793Zm7.781,1.016a4.15,4.15,0,0,1-3.027-1.141,4.054,4.054,0,0,1-1.168-3.039v-.219a5.106,5.106,0,0,1,.492-2.277A3.612,3.612,0,0,1,70.2,8.934a3.914,3.914,0,0,1,2.059-.543,3.508,3.508,0,0,1,2.73,1.094,4.444,4.444,0,0,1,1,3.1v.922H70.605a2.1,2.1,0,0,0,.66,1.328,2,2,0,0,0,1.395.5,2.437,2.437,0,0,0,2.039-.945l1.109,1.242a3.389,3.389,0,0,1-1.375,1.121A4.511,4.511,0,0,1,72.512,17.156Zm-.258-6.945a1.411,1.411,0,0,0-1.09.455,2.357,2.357,0,0,0-.535,1.3H73.77v-.181a1.681,1.681,0,0,0-.406-1.165A1.456,1.456,0,0,0,72.254,10.211Zm9.594,4.453a.727.727,0,0,0-.41-.652,4.659,4.659,0,0,0-1.316-.426q-3.016-.633-3.016-2.562a2.323,2.323,0,0,1,.934-1.879,3.766,3.766,0,0,1,2.441-.754,4.053,4.053,0,0,1,2.574.758,2.388,2.388,0,0,1,.965,1.969H81.762a1.092,1.092,0,0,0-.312-.8A1.322,1.322,0,0,0,80.473,10a1.351,1.351,0,0,0-.883.258.814.814,0,0,0-.312.656.7.7,0,0,0,.355.605,3.657,3.657,0,0,0,1.2.4,9.8,9.8,0,0,1,1.422.379,2.336,2.336,0,0,1,1.789,2.273,2.2,2.2,0,0,1-.992,1.871,4.28,4.28,0,0,1-2.562.715,4.47,4.47,0,0,1-1.887-.379,3.166,3.166,0,0,1-1.293-1.039,2.414,2.414,0,0,1-.469-1.426H78.98a1.179,1.179,0,0,0,.445.922,1.766,1.766,0,0,0,1.109.32,1.635,1.635,0,0,0,.98-.246A.766.766,0,0,0,81.848,14.664Zm6.352-8.2V8.547h1.445V10.2H88.2v4.219a1.007,1.007,0,0,0,.18.672.9.9,0,0,0,.688.2,3.6,3.6,0,0,0,.664-.055v1.711a4.648,4.648,0,0,1-1.367.2,2.156,2.156,0,0,1-2.422-2.4V10.2H84.707V8.547h1.234V6.469Zm7.453,4.2a6.134,6.134,0,0,0-.812-.062,1.654,1.654,0,0,0-1.68.867V17H90.9V8.547h2.133L93.1,9.555A2.092,2.092,0,0,1,94.98,8.391a2.366,2.366,0,0,1,.7.1ZM101.4,17a2.507,2.507,0,0,1-.227-.758,2.732,2.732,0,0,1-2.133.914,3,3,0,0,1-2.059-.719,2.312,2.312,0,0,1-.816-1.812,2.389,2.389,0,0,1,1-2.062,4.915,4.915,0,0,1,2.879-.727h1.039v-.484a1.393,1.393,0,0,0-.3-.937,1.183,1.183,0,0,0-.949-.352,1.345,1.345,0,0,0-.895.273.929.929,0,0,0-.324.75H96.355a2.268,2.268,0,0,1,.453-1.359,3,3,0,0,1,1.281-.98,4.669,4.669,0,0,1,1.859-.355,3.689,3.689,0,0,1,2.48.785,2.747,2.747,0,0,1,.918,2.207v3.664a4.041,4.041,0,0,0,.336,1.82V17Zm-1.867-1.57a1.945,1.945,0,0,0,.922-.223,1.462,1.462,0,0,0,.625-.6V13.156h-.844q-1.7,0-1.8,1.172l-.008.133a.9.9,0,0,0,.3.7A1.153,1.153,0,0,0,99.535,15.43Z" transform="translate(1051 10180.745)" fill="#12263f"/>
    <path id="Trazado_247375" data-name="Trazado 247375" d="M46.148,15.117h4.977V17H43.8V5.625h2.344Zm5.82-2.422a5.013,5.013,0,0,1,.484-2.242A3.546,3.546,0,0,1,53.848,8.93a4.069,4.069,0,0,1,2.113-.539,3.849,3.849,0,0,1,2.793,1.047,4.2,4.2,0,0,1,1.207,2.844l.016.578a4.418,4.418,0,0,1-1.086,3.121,4.209,4.209,0,0,1-5.832,0,4.5,4.5,0,0,1-1.09-3.187Zm2.258.16A3.16,3.16,0,0,0,54.68,14.7a1.628,1.628,0,0,0,2.578.008,3.457,3.457,0,0,0,.461-2.015,3.128,3.128,0,0,0-.461-1.831,1.5,1.5,0,0,0-1.3-.649,1.474,1.474,0,0,0-1.281.646A3.516,3.516,0,0,0,54.227,12.856Zm9.219-4.309.07.977a2.951,2.951,0,0,1,2.43-1.133,2.453,2.453,0,0,1,2,.789,3.682,3.682,0,0,1,.672,2.359V17H66.359V11.594a1.465,1.465,0,0,0-.312-1.043,1.4,1.4,0,0,0-1.039-.324,1.553,1.553,0,0,0-1.43.813V17H61.32V8.547ZM70,12.711a4.954,4.954,0,0,1,.926-3.133,3,3,0,0,1,2.5-1.187,2.631,2.631,0,0,1,2.164.953l.094-.8h2.047v8.172a3.613,3.613,0,0,1-.5,1.93A3.236,3.236,0,0,1,75.8,19.9a4.985,4.985,0,0,1-2.141.43,4.635,4.635,0,0,1-1.812-.371A3.217,3.217,0,0,1,70.516,19l1-1.375a2.645,2.645,0,0,0,2.047.945,1.936,1.936,0,0,0,1.4-.48,1.8,1.8,0,0,0,.5-1.363v-.453a2.612,2.612,0,0,1-2.055.883,2.992,2.992,0,0,1-2.465-1.191A4.953,4.953,0,0,1,70,12.8Zm2.258.168a3.085,3.085,0,0,0,.461,1.8,1.466,1.466,0,0,0,1.266.653,1.568,1.568,0,0,0,1.477-.775V11A1.564,1.564,0,0,0,74,10.227a1.476,1.476,0,0,0-1.277.665A3.477,3.477,0,0,0,72.258,12.879ZM81.844,17H79.578V8.547h2.266Zm-2.4-10.641a1.112,1.112,0,0,1,.34-.836,1.465,1.465,0,0,1,1.848,0,1.105,1.105,0,0,1,.344.836,1.108,1.108,0,0,1-.348.844,1.448,1.448,0,0,1-1.836,0A1.108,1.108,0,0,1,79.445,6.359Zm6.961.109V8.547h1.445V10.2H86.406v4.219a1.007,1.007,0,0,0,.18.672.9.9,0,0,0,.688.2,3.6,3.6,0,0,0,.664-.055v1.711a4.648,4.648,0,0,1-1.367.2,2.156,2.156,0,0,1-2.422-2.4V10.2H82.914V8.547h1.234V6.469Zm7.766,9.672a2.831,2.831,0,0,1-2.312,1.016,2.67,2.67,0,0,1-2.074-.781,3.335,3.335,0,0,1-.73-2.289V8.547h2.258v5.467q0,1.322,1.2,1.322a1.63,1.63,0,0,0,1.578-.8V8.547h2.266V17H94.234Zm3.539-3.43A5.094,5.094,0,0,1,98.6,9.563a2.877,2.877,0,0,1,2.426-1.172,2.589,2.589,0,0,1,2.039.922V5h2.266V17h-2.039l-.109-.9a2.657,2.657,0,0,1-2.172,1.055,2.869,2.869,0,0,1-2.395-1.176A5.258,5.258,0,0,1,97.711,12.711Zm2.258.168a3.337,3.337,0,0,0,.414,1.823,1.349,1.349,0,0,0,1.2.634,1.511,1.511,0,0,0,1.477-.884V11.111a1.489,1.489,0,0,0-1.461-.884Q99.969,10.227,99.969,12.879Z" transform="translate(1219 10180.745)" fill="#12263f"/>
    <path id="Trazado_247376" data-name="Trazado 247376" d="M54.363,5.625l2.922,8.25,2.906-8.25H63.27V17H60.918V13.891l.234-5.367L58.082,17H56.473L53.41,8.531l.234,5.359V17H51.3V5.625ZM70.23,16.141a2.831,2.831,0,0,1-2.312,1.016,2.67,2.67,0,0,1-2.074-.781,3.335,3.335,0,0,1-.73-2.289V8.547h2.258v5.467q0,1.322,1.2,1.322a1.63,1.63,0,0,0,1.578-.8V8.547h2.266V17H70.293Zm7.781,1.016a4.15,4.15,0,0,1-3.027-1.141,4.054,4.054,0,0,1-1.168-3.039v-.219a5.106,5.106,0,0,1,.492-2.277A3.612,3.612,0,0,1,75.7,8.934a3.914,3.914,0,0,1,2.059-.543,3.508,3.508,0,0,1,2.73,1.094,4.444,4.444,0,0,1,1,3.1v.922H76.105a2.1,2.1,0,0,0,.66,1.328,2,2,0,0,0,1.395.5,2.437,2.437,0,0,0,2.039-.945l1.109,1.242a3.389,3.389,0,0,1-1.375,1.121A4.511,4.511,0,0,1,78.012,17.156Zm-.258-6.945a1.411,1.411,0,0,0-1.09.455,2.357,2.357,0,0,0-.535,1.3H79.27v-.181a1.681,1.681,0,0,0-.406-1.165A1.456,1.456,0,0,0,77.754,10.211Zm9.594,4.453a.727.727,0,0,0-.41-.652,4.659,4.659,0,0,0-1.316-.426q-3.016-.633-3.016-2.562a2.323,2.323,0,0,1,.934-1.879,3.766,3.766,0,0,1,2.441-.754,4.053,4.053,0,0,1,2.574.758,2.388,2.388,0,0,1,.965,1.969H87.262a1.092,1.092,0,0,0-.312-.8A1.322,1.322,0,0,0,85.973,10a1.351,1.351,0,0,0-.883.258.814.814,0,0,0-.312.656.7.7,0,0,0,.355.605,3.657,3.657,0,0,0,1.2.4,9.8,9.8,0,0,1,1.422.379,2.336,2.336,0,0,1,1.789,2.273,2.2,2.2,0,0,1-.992,1.871,4.28,4.28,0,0,1-2.562.715,4.47,4.47,0,0,1-1.887-.379,3.166,3.166,0,0,1-1.293-1.039,2.414,2.414,0,0,1-.469-1.426H84.48a1.179,1.179,0,0,0,.445.922,1.766,1.766,0,0,0,1.109.32,1.635,1.635,0,0,0,.98-.246A.766.766,0,0,0,87.348,14.664Zm6.352-8.2V8.547h1.445V10.2H93.7v4.219a1.007,1.007,0,0,0,.18.672.9.9,0,0,0,.688.2,3.6,3.6,0,0,0,.664-.055v1.711a4.648,4.648,0,0,1-1.367.2,2.156,2.156,0,0,1-2.422-2.4V10.2H90.207V8.547h1.234V6.469Zm7.453,4.2a6.134,6.134,0,0,0-.812-.062,1.654,1.654,0,0,0-1.68.867V17H96.4V8.547h2.133L98.6,9.555a2.092,2.092,0,0,1,1.883-1.164,2.366,2.366,0,0,1,.7.1ZM106.9,17a2.507,2.507,0,0,1-.227-.758,2.732,2.732,0,0,1-2.133.914,3,3,0,0,1-2.059-.719,2.312,2.312,0,0,1-.816-1.812,2.389,2.389,0,0,1,1-2.062,4.915,4.915,0,0,1,2.879-.727h1.039v-.484a1.393,1.393,0,0,0-.3-.937,1.183,1.183,0,0,0-.949-.352,1.345,1.345,0,0,0-.895.273.929.929,0,0,0-.324.75h-2.258a2.268,2.268,0,0,1,.453-1.359,3,3,0,0,1,1.281-.98,4.669,4.669,0,0,1,1.859-.355,3.689,3.689,0,0,1,2.48.785,2.747,2.747,0,0,1,.918,2.207v3.664a4.041,4.041,0,0,0,.336,1.82V17Zm-1.867-1.57a1.945,1.945,0,0,0,.922-.223,1.462,1.462,0,0,0,.625-.6V13.156h-.844q-1.7,0-1.8,1.172l-.008.133a.9.9,0,0,0,.3.7A1.153,1.153,0,0,0,105.035,15.43Z" transform="translate(398 10180.745)" fill="#12263f"/>
    <path id="Trazado_247377" data-name="Trazado 247377" d="M44.148,15.117h4.977V17H41.8V5.625h2.344Zm5.82-2.422a5.013,5.013,0,0,1,.484-2.242A3.546,3.546,0,0,1,51.848,8.93a4.069,4.069,0,0,1,2.113-.539,3.849,3.849,0,0,1,2.793,1.047,4.2,4.2,0,0,1,1.207,2.844l.016.578a4.418,4.418,0,0,1-1.086,3.121,4.209,4.209,0,0,1-5.832,0,4.5,4.5,0,0,1-1.09-3.187Zm2.258.16A3.16,3.16,0,0,0,52.68,14.7a1.628,1.628,0,0,0,2.578.008,3.457,3.457,0,0,0,.461-2.015,3.128,3.128,0,0,0-.461-1.831,1.5,1.5,0,0,0-1.3-.649,1.474,1.474,0,0,0-1.281.646A3.516,3.516,0,0,0,52.227,12.856Zm9.219-4.309.07.977a2.951,2.951,0,0,1,2.43-1.133,2.453,2.453,0,0,1,2,.789,3.682,3.682,0,0,1,.672,2.359V17H64.359V11.594a1.465,1.465,0,0,0-.312-1.043,1.4,1.4,0,0,0-1.039-.324,1.553,1.553,0,0,0-1.43.813V17H59.32V8.547ZM68,12.711a4.954,4.954,0,0,1,.926-3.133,3,3,0,0,1,2.5-1.187,2.631,2.631,0,0,1,2.164.953l.094-.8h2.047v8.172a3.613,3.613,0,0,1-.5,1.93A3.236,3.236,0,0,1,73.8,19.9a4.985,4.985,0,0,1-2.141.43,4.635,4.635,0,0,1-1.812-.371A3.217,3.217,0,0,1,68.516,19l1-1.375a2.645,2.645,0,0,0,2.047.945,1.936,1.936,0,0,0,1.4-.48,1.8,1.8,0,0,0,.5-1.363v-.453a2.612,2.612,0,0,1-2.055.883,2.992,2.992,0,0,1-2.465-1.191A4.953,4.953,0,0,1,68,12.8Zm2.258.168a3.085,3.085,0,0,0,.461,1.8,1.466,1.466,0,0,0,1.266.653,1.568,1.568,0,0,0,1.477-.775V11A1.564,1.564,0,0,0,72,10.227a1.476,1.476,0,0,0-1.277.665A3.477,3.477,0,0,0,70.258,12.879ZM79.844,17H77.578V8.547h2.266Zm-2.4-10.641a1.112,1.112,0,0,1,.34-.836,1.465,1.465,0,0,1,1.848,0,1.105,1.105,0,0,1,.344.836,1.108,1.108,0,0,1-.348.844,1.448,1.448,0,0,1-1.836,0A1.108,1.108,0,0,1,77.445,6.359Zm6.961.109V8.547h1.445V10.2H84.406v4.219a1.007,1.007,0,0,0,.18.672.9.9,0,0,0,.688.2,3.6,3.6,0,0,0,.664-.055v1.711a4.648,4.648,0,0,1-1.367.2,2.156,2.156,0,0,1-2.422-2.4V10.2H80.914V8.547h1.234V6.469Zm7.766,9.672a2.831,2.831,0,0,1-2.312,1.016,2.67,2.67,0,0,1-2.074-.781,3.335,3.335,0,0,1-.73-2.289V8.547h2.258v5.467q0,1.322,1.2,1.322a1.63,1.63,0,0,0,1.578-.8V8.547h2.266V17H92.234Zm3.539-3.43A5.094,5.094,0,0,1,96.6,9.563a2.877,2.877,0,0,1,2.426-1.172,2.589,2.589,0,0,1,2.039.922V5h2.266V17h-2.039l-.109-.9a2.657,2.657,0,0,1-2.172,1.055,2.869,2.869,0,0,1-2.395-1.176A5.258,5.258,0,0,1,95.711,12.711Zm2.258.168a3.337,3.337,0,0,0,.414,1.823,1.349,1.349,0,0,0,1.2.634,1.511,1.511,0,0,0,1.477-.884V11.111a1.489,1.489,0,0,0-1.461-.884Q97.969,10.227,97.969,12.879Z" transform="translate(575 10180.745)" fill="#12263f"/>
  </g>
</svg>
