<svg xmlns="http://www.w3.org/2000/svg" width="136.973" height="136.973" viewBox="0 0 136.973 136.973">
  <g id="Grupo_187274" data-name="Grupo 187274" transform="translate(5217.772 5937.433)">
    <g id="Trazado_241005" data-name="Trazado 241005" transform="translate(-5217.772 -5937.433)" fill="#fff">
      <path d="M 68.48631286621094 131.9726409912109 C 59.91350936889648 131.9726409912109 51.59981155395508 130.2947692871094 43.77611541748047 126.9856185913086 C 40.01535797119141 125.3949661254883 36.38774871826172 123.4259033203125 32.9940071105957 121.1331405639648 C 29.6312255859375 118.8612899780273 26.46885681152344 116.2520523071289 23.5947265625 113.3779220581055 C 20.72059631347656 110.503791809082 18.11135673522949 107.341423034668 15.83950805664062 103.9786376953125 C 13.5467472076416 100.5848999023438 11.57768249511719 96.95726776123047 9.987030029296875 93.196533203125 C 6.677877902984619 85.37283325195312 5.000008583068848 77.05912017822266 5.000008583068848 68.48631286621094 C 5.000008583068848 59.91350936889648 6.677877902984619 51.59981155395508 9.987030029296875 43.77611541748047 C 11.57768249511719 40.01535797119141 13.5467472076416 36.38774871826172 15.83950805664062 32.9940071105957 C 18.11135673522949 29.6312255859375 20.72059631347656 26.46885681152344 23.5947265625 23.5947265625 C 26.46885681152344 20.72059631347656 29.6312255859375 18.11135673522949 32.9940071105957 15.83950805664062 C 36.38774871826172 13.5467472076416 40.01535797119141 11.57768249511719 43.77611541748047 9.987030029296875 C 51.59981155395508 6.677877902984619 59.91350936889648 5.000008583068848 68.48631286621094 5.000008583068848 C 77.05912017822266 5.000008583068848 85.37283325195312 6.677877902984619 93.196533203125 9.987030029296875 C 96.95726776123047 11.57768249511719 100.5848999023438 13.5467472076416 103.9786376953125 15.83950805664062 C 107.341423034668 18.11135673522949 110.503791809082 20.72059631347656 113.3779220581055 23.5947265625 C 116.2520523071289 26.46885681152344 118.8612899780273 29.6312255859375 121.1331405639648 32.9940071105957 C 123.4259033203125 36.38774871826172 125.3949661254883 40.01535797119141 126.9856185913086 43.77611541748047 C 130.2947692871094 51.59981155395508 131.9726409912109 59.91350936889648 131.9726409912109 68.48631286621094 C 131.9726409912109 77.05912017822266 130.2947692871094 85.37283325195312 126.9856185913086 93.196533203125 C 125.3949661254883 96.95726776123047 123.4259033203125 100.5848999023438 121.1331405639648 103.9786376953125 C 118.8612899780273 107.341423034668 116.2520523071289 110.503791809082 113.3779220581055 113.3779220581055 C 110.503791809082 116.2520523071289 107.341423034668 118.8612899780273 103.9786376953125 121.1331405639648 C 100.5848999023438 123.4259033203125 96.95726776123047 125.3949661254883 93.196533203125 126.9856185913086 C 85.37283325195312 130.2947692871094 77.05912017822266 131.9726409912109 68.48631286621094 131.9726409912109 Z" stroke="none"/>
      <path d="M 68.48631286621094 10.00000762939453 C 36.23686981201172 10.00000762939453 10.00000762939453 36.23686981201172 10.00000762939453 68.48631286621094 C 10.00000762939453 100.7357559204102 36.23686981201172 126.9726181030273 68.48631286621094 126.9726181030273 C 100.7357559204102 126.9726181030273 126.9726181030273 100.7357559204102 126.9726181030273 68.48631286621094 C 126.9726181030273 36.23686981201172 100.7357559204102 10.00000762939453 68.48631286621094 10.00000762939453 M 68.48631286621094 0 C 106.3102569580078 0 136.9726257324219 30.66236877441406 136.9726257324219 68.48631286621094 C 136.9726257324219 106.3102569580078 106.3102569580078 136.9726257324219 68.48631286621094 136.9726257324219 C 30.66236877441406 136.9726257324219 0 106.3102569580078 0 68.48631286621094 C 0 30.66236877441406 30.66236877441406 0 68.48631286621094 0 Z" stroke="none" fill="#5c22c3"/>
    </g>
    <g id="Rate" transform="translate(-5181.546 -5899.508)">
      <path id="Trazado_241299" data-name="Trazado 241299" d="M8.59,13.56a3.958,3.958,0,1,0,0,.055" transform="translate(5.445 21.319)" fill="#e5c7eb"/>
      <path id="Trazado_241300" data-name="Trazado 241300" d="M13.07,7.15a3.93,3.93,0,1,1-3.93,3.93,3.93,3.93,0,0,1,3.93-3.93" transform="translate(13.364 9.988)" fill="#e5c7eb"/>
      <path id="Trazado_241301" data-name="Trazado 241301" d="M18.43,10.36a3.93,3.93,0,1,1-3.93,3.93,3.93,3.93,0,0,1,3.93-3.93" transform="translate(22.839 15.662)" fill="#e5c7eb"/>
      <path id="Trazado_241302" data-name="Trazado 241302" d="M22.74,4a3.93,3.93,0,1,1-3.93,3.93A3.93,3.93,0,0,1,22.74,4" transform="translate(30.458 4.419)" fill="#e5c7eb"/>
      <rect id="Rectángulo_45106" data-name="Rectángulo 45106" width="13.59" height="5.231" transform="translate(41.491 43.459)" fill="#ba68c8"/>
      <path id="Trazado_241303" data-name="Trazado 241303" d="M2.964,1.93A1.384,1.384,0,0,0,1.58,3.314V57.479a1.384,1.384,0,0,0,1.384,1.384H57.129a1.384,1.384,0,1,0,0-2.768H4.348V3.314A1.384,1.384,0,0,0,2.964,1.93Z" transform="translate(0 0.76)" fill="#5c22c3"/>
      <path id="Trazado_241304" data-name="Trazado 241304" d="M9.549,30.017a5.369,5.369,0,1,0,4.179,2.076L20.2,22.6a5.757,5.757,0,0,0,1.744.3,5.314,5.314,0,0,0,3.986-1.744l5.757,4.1a5.868,5.868,0,0,0-.138,1.218,5.314,5.314,0,0,0,10.628,0,5.2,5.2,0,0,0-1.19-3.294l6.172-9.438a5.259,5.259,0,1,0-2.325-1.495l-6.144,9.3a5.535,5.535,0,0,0-1.91-.36,5.342,5.342,0,0,0-3.847,1.633l-5.785-4.041a6.781,6.781,0,0,0,0-1.079,5.314,5.314,0,1,0-9.244,3.321L11.514,30.4A5.176,5.176,0,0,0,9.549,30.017ZM48.713,6.186a2.546,2.546,0,1,1-2.546,2.546,2.546,2.546,0,0,1,2.546-2.546ZM36.784,23.928a2.546,2.546,0,1,1-2.546,2.546A2.546,2.546,0,0,1,36.784,23.928ZM21.949,15.043A2.546,2.546,0,1,1,19.4,17.589,2.546,2.546,0,0,1,21.949,15.043ZM9.549,37.877A2.546,2.546,0,1,1,12.1,35.386,2.546,2.546,0,0,1,9.549,37.877Z" transform="translate(4.486 3.479)" fill="#5c22c3"/>
      <path id="Trazado_241305" data-name="Trazado 241305" d="M5.58,18.574v1.854a1.384,1.384,0,0,0,1.384,1.384,1.412,1.412,0,0,0,1.384-1.384V18.574a1.384,1.384,0,1,0-2.768,0Z" transform="translate(7.071 27.736)" fill="#5c22c3"/>
      <path id="Trazado_241306" data-name="Trazado 241306" d="M12.828,7.888V6.034a1.384,1.384,0,0,0-2.768,0V7.888a1.384,1.384,0,0,0,2.768,0Z" transform="translate(14.991 5.568)" fill="#5c22c3"/>
      <path id="Trazado_241307" data-name="Trazado 241307" d="M16.8,18.61a1.412,1.412,0,0,0,1.384-1.384V15.344A1.412,1.412,0,0,0,16.8,13.96a1.384,1.384,0,0,0-1.384,1.384v1.882A1.384,1.384,0,0,0,16.8,18.61Z" transform="translate(24.466 22.026)" fill="#5c22c3"/>
      <path id="Trazado_241308" data-name="Trazado 241308" d="M22.5,4.738V2.884a1.384,1.384,0,0,0-2.768,0V4.738a1.384,1.384,0,0,0,2.768,0Z" transform="translate(32.085)" fill="#5c22c3"/>
      <path id="Trazado_241309" data-name="Trazado 241309" d="M31.857,22.775V17.544a1.384,1.384,0,0,0-1.384-1.384H16.884A1.384,1.384,0,0,0,15.5,17.544v5.231a1.384,1.384,0,0,0,1.384,1.384h13.59A1.384,1.384,0,0,0,31.857,22.775ZM29.09,21.391H18.268V18.928H29.09Z" transform="translate(24.607 25.915)" fill="#5c22c3"/>
      <path id="Trazado_241310" data-name="Trazado 241310" d="M16.884,19.67A1.412,1.412,0,0,0,15.5,21.054a1.384,1.384,0,0,0,1.384,1.384h8.054a1.384,1.384,0,0,0,1.384-1.384,1.412,1.412,0,0,0-1.384-1.384Z" transform="translate(24.607 32.12)" fill="#5c22c3"/>
    </g>
  </g>
</svg>
