<svg xmlns="http://www.w3.org/2000/svg" xmlns:xlink="http://www.w3.org/1999/xlink" width="610" height="392.789" viewBox="0 0 610 392.789">
  <defs>
    <clipPath id="clip-path">
      <rect id="Rect치ngulo_45134" data-name="Rect치ngulo 45134" width="183.108" height="193.212" fill="none"/>
    </clipPath>
  </defs>
  <g id="Grupo_187271" data-name="Grupo 187271" transform="translate(6576 1794)">
    <g id="Grupo_180472" data-name="Grupo 180472" transform="translate(-6444 -2676.001)">
      <path id="Rect치ngulo_33876" data-name="Rect치ngulo 33876" d="M20,0H610a0,0,0,0,1,0,0V372.789a20,20,0,0,1-20,20H0a0,0,0,0,1,0,0V20A20,20,0,0,1,20,0Z" transform="translate(-132 882.001)" fill="#64b5f6"/>
    </g>
    <circle id="Elipse_4932" data-name="Elipse 4932" cx="157" cy="157" r="157" transform="translate(-6428 -1755)" fill="#fff"/>
    <g id="Grupo_180479" data-name="Grupo 180479" transform="translate(-6362.554 -1694.212)">
      <g id="Grupo_180478" data-name="Grupo 180478" clip-path="url(#clip-path)">
        <path id="Trazado_241825" data-name="Trazado 241825" d="M58.056,16.425,79,28.52V19.594H187.139V59.673a3.249,3.249,0,1,0,6.5,0V16.346a3.25,3.25,0,0,0-3.251-3.25H79V4.33Z" transform="translate(-35.186 -2.624)" fill="#d677e6"/>
        <path id="Trazado_241826" data-name="Trazado 241826" d="M187.357,61.284a4.238,4.238,0,0,1-4.232-4.235V17.954H76.957V27.6l-23.9-13.8L76.957,0V9.486h110.4a4.24,4.24,0,0,1,4.235,4.236V57.049a4.24,4.24,0,0,1-4.235,4.235m-112.37-45.3H185.094V57.049a2.264,2.264,0,1,0,4.528,0V13.722a2.268,2.268,0,0,0-2.266-2.266H74.987V3.411L57,13.8,74.987,24.19Z" transform="translate(-32.156)" fill="#12263f"/>
        <path id="Trazado_241827" data-name="Trazado 241827" d="M335.766,277.3v24.3c0,9.231-12.394,17.029-29.442,19.527a81.634,81.634,0,0,1-27.34-.674c-14.946-3.057-25.46-10.353-25.46-18.853V277.3c0,8.5,10.513,15.766,25.46,18.826a81.534,81.534,0,0,0,27.34.671c17.048-2.468,29.442-10.269,29.442-19.5" transform="translate(-153.652 -168.061)" fill="#5c22c3"/>
        <path id="Trazado_241828" data-name="Trazado 241828" d="M293.116,322.947a79.542,79.542,0,0,1-15.844-1.535c-15.945-3.261-26.248-11.04-26.248-19.817V277.3h1.97c0,7.782,9.685,14.793,24.672,17.861a80.579,80.579,0,0,0,27,.662c16.845-2.438,28.6-10.054,28.6-18.523h1.97v24.3c0,9.609-12.17,17.848-30.284,20.5a79.574,79.574,0,0,1-11.836.851m-40.122-39.14v17.787c0,7.681,9.915,14.869,24.672,17.888a80.688,80.688,0,0,0,27,.665c16.843-2.468,28.6-10.1,28.6-18.553V283.853c-4.136,6.655-14.5,11.918-28.316,13.918a82.546,82.546,0,0,1-27.678-.681c-11.84-2.424-20.569-7.331-24.279-13.283" transform="translate(-152.136 -168.061)" fill="#12263f"/>
        <path id="Trazado_241829" data-name="Trazado 241829" d="M294.619,225.6c-22.708,0-41.125,9.117-41.125,20.356s18.417,20.361,41.125,20.361,41.138-9.116,41.138-20.361S317.34,225.6,294.619,225.6" transform="translate(-153.633 -136.73)" fill="#5c22c3"/>
        <path id="Trazado_241830" data-name="Trazado 241830" d="M293.105,265.791c-11.132,0-21.614-2.154-29.515-6.066-8.122-4.021-12.595-9.448-12.595-15.28s4.473-11.255,12.595-15.275c7.9-3.911,18.384-6.065,29.515-6.065s21.622,2.154,29.526,6.065c8.123,4.021,12.6,9.445,12.6,15.276s-4.474,11.26-12.6,15.28c-7.9,3.912-18.389,6.066-29.526,6.066m0-40.717c-10.834,0-21.005,2.082-28.642,5.861-7.415,3.67-11.5,8.468-11.5,13.51s4.084,9.844,11.5,13.515c7.635,3.78,17.807,5.862,28.642,5.862s21.015-2.082,28.652-5.862c7.417-3.671,11.5-8.47,11.5-13.515s-4.084-9.84-11.5-13.51c-7.637-3.779-17.813-5.861-28.652-5.861" transform="translate(-152.119 -135.215)" fill="#12263f"/>
        <path id="Trazado_241831" data-name="Trazado 241831" d="M335.766,195.323v24.326c0,9.229-12.394,17.03-29.442,19.5a81.412,81.412,0,0,1-27.34-.674c-14.946-3.057-25.46-10.323-25.46-18.823V195.323c0,8.5,10.513,15.8,25.46,18.853a81.647,81.647,0,0,0,27.34.674c17.048-2.5,29.442-10.3,29.442-19.527" transform="translate(-153.652 -118.378)" fill="#5c22c3"/>
        <path id="Trazado_241832" data-name="Trazado 241832" d="M293.116,240.974a79.568,79.568,0,0,1-15.844-1.538c-15.945-3.261-26.248-11.028-26.248-19.788V195.323h1.97c0,7.681,9.915,14.87,24.672,17.888a80.682,80.682,0,0,0,27,.665c16.844-2.468,28.6-10.1,28.6-18.554h1.97v24.326c0,9.623-12.171,17.85-30.285,20.472a79.228,79.228,0,0,1-11.834.854m-40.122-39.129v17.8c0,7.783,9.685,14.793,24.672,17.858a80.445,80.445,0,0,0,27,.666c16.845-2.438,28.6-10.055,28.6-18.524V201.871c-4.136,6.654-14.5,11.93-28.314,13.954a82.631,82.631,0,0,1-27.68-.684c-11.839-2.422-20.568-7.334-24.278-13.3" transform="translate(-152.136 -118.378)" fill="#12263f"/>
        <path id="Trazado_241833" data-name="Trazado 241833" d="M294.619,143.651c-22.708,0-41.125,9.116-41.125,20.355s18.417,20.362,41.125,20.362,41.138-9.116,41.138-20.362-18.417-20.355-41.138-20.355" transform="translate(-153.633 -87.062)" fill="#5c22c3"/>
        <path id="Trazado_241834" data-name="Trazado 241834" d="M293.105,183.838c-11.132,0-21.614-2.154-29.515-6.066-8.122-4.021-12.595-9.447-12.595-15.28s4.473-11.255,12.595-15.275c7.9-3.911,18.384-6.065,29.515-6.065s21.622,2.154,29.526,6.065c8.123,4.02,12.6,9.444,12.6,15.275s-4.474,11.259-12.6,15.28c-7.9,3.912-18.389,6.066-29.526,6.066m0-40.717c-10.834,0-21.006,2.082-28.642,5.861-7.415,3.67-11.5,8.468-11.5,13.51s4.084,9.844,11.5,13.515c7.635,3.78,17.807,5.861,28.642,5.861s21.015-2.082,28.652-5.861c7.417-3.671,11.5-8.47,11.5-13.515s-4.084-9.84-11.5-13.51c-7.637-3.779-17.812-5.861-28.652-5.861" transform="translate(-152.119 -85.546)" fill="#12263f"/>
        <path id="Trazado_241835" data-name="Trazado 241835" d="M335.766,113.347v24.326c0,9.228-12.394,17.029-29.442,19.527a81.636,81.636,0,0,1-27.34-.674c-14.946-3.057-25.46-10.353-25.46-18.853V113.347c0,8.5,10.513,15.8,25.46,18.856a78.928,78.928,0,0,0,15.648,1.515,78.126,78.126,0,0,0,11.693-.844c17.048-2.5,29.442-10.3,29.442-19.527" transform="translate(-153.652 -68.695)" fill="#5c22c3"/>
        <path id="Trazado_241836" data-name="Trazado 241836" d="M293.116,159.026a79.544,79.544,0,0,1-15.844-1.535c-15.945-3.261-26.248-11.04-26.248-19.817V113.348h1.97c0,7.679,9.915,14.87,24.672,17.891a77.8,77.8,0,0,0,15.45,1.495,77.214,77.214,0,0,0,11.545-.832c16.844-2.467,28.605-10.1,28.605-18.553h1.97v24.326c0,9.609-12.17,17.848-30.284,20.5a79.633,79.633,0,0,1-11.836.851m-40.122-39.157v17.805c0,7.681,9.915,14.869,24.672,17.887a80.646,80.646,0,0,0,27,.666c16.843-2.468,28.6-10.1,28.6-18.553V119.9c-4.136,6.654-14.5,11.929-28.314,13.953a79.115,79.115,0,0,1-11.836.854,79.844,79.844,0,0,1-15.844-1.534c-11.84-2.425-20.569-7.338-24.279-13.3" transform="translate(-152.136 -68.696)" fill="#12263f"/>
        <path id="Trazado_241837" data-name="Trazado 241837" d="M294.619,61.7c-22.708,0-41.125,9.117-41.125,20.355s18.417,20.365,41.125,20.365,41.138-9.116,41.138-20.365S317.34,61.7,294.619,61.7" transform="translate(-153.633 -37.393)" fill="#5c22c3"/>
        <path id="Trazado_241838" data-name="Trazado 241838" d="M293.105,101.887c-11.132,0-21.614-2.154-29.515-6.067-8.122-4.021-12.595-9.449-12.595-15.283s4.473-11.255,12.595-15.275c7.9-3.911,18.384-6.065,29.515-6.065s21.622,2.154,29.526,6.065c8.123,4.021,12.6,9.445,12.6,15.276s-4.474,11.262-12.6,15.283c-7.9,3.912-18.389,6.066-29.526,6.066m0-40.72c-10.834,0-21.005,2.082-28.642,5.861-7.415,3.67-11.5,8.468-11.5,13.51s4.084,9.846,11.5,13.518c7.635,3.78,17.807,5.862,28.642,5.862s21.016-2.082,28.652-5.862c7.417-3.671,11.5-8.472,11.5-13.518s-4.084-9.84-11.5-13.51c-7.637-3.779-17.813-5.861-28.652-5.861" transform="translate(-152.119 -35.877)" fill="#12263f"/>
        <path id="Trazado_241839" data-name="Trazado 241839" d="M315.114,78.439C299.76,78.439,287.3,84.6,287.3,92.2s12.455,13.767,27.809,13.767,27.815-6.162,27.815-13.767-12.452-13.764-27.815-13.764" transform="translate(-174.125 -47.539)" fill="#5c22c3"/>
        <path id="Trazado_241840" data-name="Trazado 241840" d="M313.6,105.44c-16.146,0-28.794-6.48-28.794-14.752S297.452,75.939,313.6,75.939s28.8,6.478,28.8,14.749-12.65,14.752-28.8,14.752m0-27.531c-14.54,0-26.825,5.852-26.825,12.779S299.058,103.47,313.6,103.47s26.83-5.854,26.83-12.782S328.142,77.909,313.6,77.909" transform="translate(-172.609 -46.024)" fill="#12263f"/>
        <path id="Trazado_241841" data-name="Trazado 241841" d="M345.493,161.884V186.21a81.636,81.636,0,0,1-27.34-.674V161.213a78.93,78.93,0,0,0,15.648,1.515,78.126,78.126,0,0,0,11.693-.844" transform="translate(-192.821 -97.705)" fill="#5c22c3"/>
        <path id="Trazado_241842" data-name="Trazado 241842" d="M332.285,186.182a79.548,79.548,0,0,1-15.844-1.535l-.788-.161V158.155l1.181.24a80.556,80.556,0,0,0,27,.662l1.133-.172V185.2l-.838.126a79.561,79.561,0,0,1-11.84.852m-14.663-3.309a81.1,81.1,0,0,0,25.371.631V161.166a83.094,83.094,0,0,1-25.371-.612Z" transform="translate(-191.306 -95.852)" fill="#12263f"/>
        <path id="Trazado_241843" data-name="Trazado 241843" d="M345.493,243.855v24.3a81.413,81.413,0,0,1-27.34-.674v-24.3a81.648,81.648,0,0,0,27.34.674" transform="translate(-192.821 -147.383)" fill="#5c22c3"/>
        <path id="Trazado_241844" data-name="Trazado 241844" d="M332.285,268.124a79.571,79.571,0,0,1-15.844-1.538l-.788-.16V240.12l1.181.241a80.657,80.657,0,0,0,27,.665l1.133-.172v26.288l-.837.127a79.21,79.21,0,0,1-11.841.855m-14.663-3.312a80.876,80.876,0,0,0,25.371.632V243.136a83.238,83.238,0,0,1-25.371-.615Z" transform="translate(-191.306 -145.528)" fill="#12263f"/>
        <path id="Trazado_241845" data-name="Trazado 241845" d="M333.8,326.6a78.18,78.18,0,0,0,11.693-.843v24.326a81.636,81.636,0,0,1-27.34-.674V325.088A78.93,78.93,0,0,0,333.8,326.6" transform="translate(-192.821 -197.024)" fill="#5c22c3"/>
        <path id="Trazado_241846" data-name="Trazado 241846" d="M332.285,350.056a79.548,79.548,0,0,1-15.844-1.534l-.788-.161V322.029l1.181.24a80.563,80.563,0,0,0,27,.663l1.133-.172v26.318l-.838.127a79.562,79.562,0,0,1-11.84.851m-14.663-3.309a81.133,81.133,0,0,0,25.371.631V325.041a83.121,83.121,0,0,1-25.371-.613Z" transform="translate(-191.306 -195.17)" fill="#12263f"/>
        <path id="Trazado_241847" data-name="Trazado 241847" d="M84.773,277.3v24.3c0,9.231-12.394,17.029-29.442,19.527a78.518,78.518,0,0,1-11.693.841,78.693,78.693,0,0,1-15.648-1.515c-14.943-3.057-25.46-10.353-25.46-18.853V277.3c0,8.5,10.517,15.766,25.46,18.826a78.925,78.925,0,0,0,15.648,1.515,78.145,78.145,0,0,0,11.693-.843c17.048-2.468,29.442-10.269,29.442-19.5" transform="translate(-1.534 -168.061)" fill="#80b3f2"/>
        <path id="Trazado_241848" data-name="Trazado 241848" d="M42.123,322.947a79.546,79.546,0,0,1-15.845-1.535C10.333,318.151.03,310.372.03,301.6V277.3H2c0,7.781,9.685,14.792,24.673,17.861a77.8,77.8,0,0,0,15.45,1.495,77.21,77.21,0,0,0,11.544-.832c16.846-2.438,28.606-10.055,28.606-18.524h1.97v24.3c0,9.609-12.171,17.848-30.284,20.5a79.5,79.5,0,0,1-11.835.851M2,283.807V301.6c0,7.68,9.915,14.869,24.672,17.888a77.626,77.626,0,0,0,15.451,1.495,77.569,77.569,0,0,0,11.545-.829c16.844-2.468,28.6-10.1,28.6-18.553V283.853c-4.136,6.656-14.5,11.918-28.316,13.919a79.123,79.123,0,0,1-11.834.853,79.815,79.815,0,0,1-15.844-1.534C14.439,294.666,5.71,289.758,2,283.807" transform="translate(-0.018 -168.061)" fill="#12263f"/>
        <path id="Trazado_241849" data-name="Trazado 241849" d="M43.625,225.6C20.917,225.6,2.5,234.72,2.5,245.959S20.917,266.32,43.625,266.32s41.138-9.116,41.138-20.361S66.346,225.6,43.625,225.6" transform="translate(-1.515 -136.73)" fill="#80b3f2"/>
        <path id="Trazado_241850" data-name="Trazado 241850" d="M42.11,265.791c-11.132,0-21.614-2.154-29.515-6.066C4.473,255.7,0,250.277,0,244.445s4.473-11.255,12.595-15.275c7.9-3.911,18.384-6.065,29.515-6.065s21.622,2.154,29.526,6.065c8.123,4.021,12.6,9.445,12.6,15.276s-4.474,11.26-12.6,15.28c-7.9,3.912-18.389,6.066-29.526,6.066m0-40.717c-10.834,0-21.005,2.082-28.642,5.861-7.415,3.67-11.5,8.468-11.5,13.51s4.084,9.844,11.5,13.515c7.635,3.78,17.807,5.862,28.642,5.862s21.015-2.082,28.652-5.862c7.417-3.671,11.5-8.47,11.5-13.515s-4.085-9.84-11.5-13.51c-7.637-3.779-17.813-5.861-28.652-5.861" transform="translate(0 -135.215)" fill="#12263f"/>
        <path id="Trazado_241851" data-name="Trazado 241851" d="M84.773,195.323v24.326c0,9.229-12.394,17.03-29.442,19.5a78.092,78.092,0,0,1-11.693.844,78.689,78.689,0,0,1-15.648-1.518c-14.943-3.057-25.46-10.323-25.46-18.823V195.323c0,8.5,10.517,15.8,25.46,18.853a78.723,78.723,0,0,0,15.648,1.515,78.1,78.1,0,0,0,11.693-.841c17.048-2.5,29.442-10.3,29.442-19.527" transform="translate(-1.534 -118.378)" fill="#80b3f2"/>
        <path id="Trazado_241852" data-name="Trazado 241852" d="M42.123,240.974a79.573,79.573,0,0,1-15.845-1.538C10.333,236.175.03,228.408.03,219.649V195.323H2c0,7.681,9.915,14.869,24.672,17.888a77.657,77.657,0,0,0,15.451,1.495,77.2,77.2,0,0,0,11.544-.829c16.845-2.468,28.606-10.1,28.606-18.554h1.97v24.326c0,9.623-12.171,17.85-30.286,20.472a79.161,79.161,0,0,1-11.834.854M2,201.845v17.8c0,7.662,9.915,14.839,24.672,17.858A77.6,77.6,0,0,0,42.123,239a77.2,77.2,0,0,0,11.544-.832c16.846-2.438,28.606-10.055,28.606-18.524V201.871c-4.136,6.654-14.5,11.93-28.315,13.954a79.151,79.151,0,0,1-11.835.851,79.575,79.575,0,0,1-15.845-1.535C14.439,212.719,5.71,207.806,2,201.845" transform="translate(-0.018 -118.378)" fill="#12263f"/>
        <path id="Trazado_241853" data-name="Trazado 241853" d="M43.625,143.651c-22.708,0-41.125,9.116-41.125,20.355s18.417,20.362,41.125,20.362,41.138-9.116,41.138-20.362-18.417-20.355-41.138-20.355" transform="translate(-1.515 -87.062)" fill="#80b3f2"/>
        <path id="Trazado_241854" data-name="Trazado 241854" d="M42.11,183.838c-11.132,0-21.614-2.154-29.515-6.066C4.473,173.751,0,168.324,0,162.492s4.473-11.255,12.595-15.275c7.9-3.911,18.384-6.065,29.515-6.065s21.623,2.154,29.526,6.065c8.123,4.02,12.6,9.444,12.6,15.275s-4.474,11.259-12.6,15.28c-7.9,3.912-18.389,6.066-29.526,6.066m0-40.717c-10.834,0-21.006,2.082-28.642,5.861-7.415,3.67-11.5,8.468-11.5,13.51s4.084,9.844,11.5,13.515c7.635,3.78,17.807,5.861,28.642,5.861s21.015-2.082,28.652-5.861c7.417-3.671,11.5-8.47,11.5-13.515s-4.085-9.84-11.5-13.51c-7.637-3.779-17.812-5.861-28.652-5.861" transform="translate(0 -85.546)" fill="#12263f"/>
        <path id="Trazado_241855" data-name="Trazado 241855" d="M84.773,113.347v24.326c0,9.228-12.394,17.029-29.442,19.527a78.522,78.522,0,0,1-11.693.841,78.694,78.694,0,0,1-15.648-1.515c-14.943-3.057-25.46-10.353-25.46-18.853V113.347c0,8.5,10.517,15.8,25.46,18.856a78.929,78.929,0,0,0,15.648,1.515,78.1,78.1,0,0,0,11.693-.844c17.048-2.5,29.442-10.3,29.442-19.527" transform="translate(-1.534 -68.695)" fill="#80b3f2"/>
        <path id="Trazado_241856" data-name="Trazado 241856" d="M42.123,159.026a79.55,79.55,0,0,1-15.845-1.535C10.333,154.23.03,146.45.03,137.674V113.348H2c0,7.679,9.915,14.869,24.673,17.891a77.8,77.8,0,0,0,15.45,1.495,77.143,77.143,0,0,0,11.544-.832c16.845-2.468,28.606-10.1,28.606-18.553h1.97v24.326c0,9.609-12.171,17.847-30.284,20.5a79.554,79.554,0,0,1-11.835.851M2,119.868v17.806c0,7.68,9.915,14.868,24.672,17.887a77.6,77.6,0,0,0,15.451,1.5,77.56,77.56,0,0,0,11.545-.83c16.844-2.468,28.6-10.1,28.6-18.553V119.9c-4.136,6.654-14.5,11.929-28.315,13.953a79.1,79.1,0,0,1-11.835.854,79.813,79.813,0,0,1-15.844-1.534C14.439,130.744,5.71,125.831,2,119.868" transform="translate(-0.018 -68.696)" fill="#12263f"/>
        <path id="Trazado_241857" data-name="Trazado 241857" d="M43.625,61.7C20.917,61.7,2.5,70.815,2.5,82.053s18.417,20.365,41.125,20.365S84.763,93.3,84.763,82.053,66.346,61.7,43.625,61.7" transform="translate(-1.515 -37.393)" fill="#80b3f2"/>
        <path id="Trazado_241858" data-name="Trazado 241858" d="M42.11,101.887c-11.132,0-21.614-2.154-29.515-6.067C4.473,91.8,0,86.372,0,80.538S4.473,69.283,12.595,65.262C20.5,61.351,30.979,59.2,42.11,59.2s21.622,2.154,29.526,6.065c8.123,4.021,12.6,9.445,12.6,15.276S79.759,91.8,71.636,95.821c-7.9,3.912-18.389,6.066-29.526,6.066m0-40.72c-10.834,0-21.005,2.082-28.642,5.861C6.054,70.7,1.97,75.5,1.97,80.538s4.084,9.846,11.5,13.518c7.635,3.78,17.807,5.862,28.642,5.862s21.016-2.082,28.652-5.862c7.417-3.671,11.5-8.472,11.5-13.518s-4.085-9.84-11.5-13.51c-7.637-3.779-17.813-5.861-28.652-5.861" transform="translate(0 -35.877)" fill="#12263f"/>
        <path id="Trazado_241859" data-name="Trazado 241859" d="M64.12,78.439c-15.354,0-27.809,6.162-27.809,13.764S48.766,105.97,64.12,105.97,91.938,99.808,91.938,92.2,79.484,78.439,64.12,78.439" transform="translate(-22.007 -47.539)" fill="#80b3f2"/>
        <path id="Trazado_241860" data-name="Trazado 241860" d="M62.6,105.44c-16.146,0-28.794-6.48-28.794-14.752S46.458,75.939,62.6,75.939s28.8,6.478,28.8,14.749S78.755,105.44,62.6,105.44m0-27.531c-14.54,0-26.825,5.852-26.825,12.779S48.064,103.47,62.6,103.47s26.833-5.854,26.833-12.782S77.149,77.909,62.6,77.909" transform="translate(-20.491 -46.024)" fill="#12263f"/>
        <path id="Trazado_241861" data-name="Trazado 241861" d="M94.5,161.884V186.21a81.636,81.636,0,0,1-27.34-.674V161.213a78.93,78.93,0,0,0,15.648,1.515,78.1,78.1,0,0,0,11.693-.844" transform="translate(-40.703 -97.705)" fill="#80b3f2"/>
        <path id="Trazado_241862" data-name="Trazado 241862" d="M81.292,186.182a79.553,79.553,0,0,1-15.845-1.535l-.788-.161V158.155l1.181.24a80.556,80.556,0,0,0,27,.662l1.133-.172V185.2l-.838.126a79.492,79.492,0,0,1-11.84.852m-14.663-3.309A81.1,81.1,0,0,0,92,183.5V161.167a83.134,83.134,0,0,1-25.371-.613Z" transform="translate(-39.187 -95.852)" fill="#12263f"/>
        <path id="Trazado_241863" data-name="Trazado 241863" d="M94.5,243.855v24.3a81.413,81.413,0,0,1-27.34-.674v-24.3a81.648,81.648,0,0,0,27.34.674" transform="translate(-40.703 -147.383)" fill="#80b3f2"/>
        <path id="Trazado_241864" data-name="Trazado 241864" d="M81.292,268.124a79.575,79.575,0,0,1-15.845-1.538l-.788-.16V240.12l1.181.241a80.655,80.655,0,0,0,27,.665l1.133-.172v26.287l-.837.127a79.152,79.152,0,0,1-11.841.855m-14.663-3.312A80.893,80.893,0,0,0,92,265.444V243.136a83.238,83.238,0,0,1-25.371-.615Z" transform="translate(-39.187 -145.528)" fill="#12263f"/>
        <path id="Trazado_241865" data-name="Trazado 241865" d="M82.808,326.6a78.149,78.149,0,0,0,11.693-.843v24.326a81.636,81.636,0,0,1-27.34-.674V325.088A78.93,78.93,0,0,0,82.808,326.6" transform="translate(-40.703 -197.024)" fill="#80b3f2"/>
        <path id="Trazado_241866" data-name="Trazado 241866" d="M81.292,350.056a79.552,79.552,0,0,1-15.845-1.534l-.788-.161V322.029l1.181.24a80.561,80.561,0,0,0,27,.663l1.133-.172v26.318l-.838.127a79.493,79.493,0,0,1-11.84.851m-14.663-3.309A81.133,81.133,0,0,0,92,347.379V325.041a83.121,83.121,0,0,1-25.371-.613Z" transform="translate(-39.187 -195.17)" fill="#12263f"/>
        <path id="Trazado_241867" data-name="Trazado 241867" d="M216.341,358.124v24.3c0,9.231-12.394,17.029-29.442,19.527a81.615,81.615,0,0,1-27.337-.674c-14.947-3.057-25.463-10.35-25.463-18.853v-24.3c0,8.5,10.517,15.766,25.463,18.826a81.52,81.52,0,0,0,27.337.671c17.048-2.468,29.442-10.269,29.442-19.5" transform="translate(-81.272 -217.046)" fill="#fef536"/>
        <path id="Trazado_241868" data-name="Trazado 241868" d="M173.691,403.772a79.561,79.561,0,0,1-15.841-1.535C141.9,398.976,131.6,391.2,131.6,382.42v-24.3h1.97c0,7.781,9.686,14.792,24.675,17.861a80.517,80.517,0,0,0,26.992.663c16.846-2.438,28.606-10.054,28.606-18.523h1.97v24.3c0,9.609-12.171,17.848-30.284,20.5a79.2,79.2,0,0,1-11.835.851m-40.123-39.14V382.42c0,7.68,9.916,14.869,24.675,17.888a80.66,80.66,0,0,0,26.992.665c16.844-2.468,28.605-10.1,28.605-18.554V364.678c-4.136,6.656-14.5,11.918-28.316,13.918a82.5,82.5,0,0,1-27.675-.681c-11.842-2.425-20.572-7.332-24.282-13.283" transform="translate(-79.757 -217.046)" fill="#12263f"/>
        <path id="Trazado_241869" data-name="Trazado 241869" d="M175.2,306.428c-22.708,0-41.129,9.117-41.129,20.356s18.42,20.361,41.129,20.361,41.138-9.116,41.138-20.361-18.418-20.356-41.138-20.356" transform="translate(-81.254 -185.715)" fill="#fef536"/>
        <path id="Trazado_241870" data-name="Trazado 241870" d="M173.682,346.615c-11.132,0-21.614-2.154-29.516-6.066-8.123-4.021-12.6-9.448-12.6-15.28s4.474-11.255,12.6-15.276c7.9-3.911,18.385-6.065,29.516-6.065s21.622,2.154,29.526,6.065c8.123,4.021,12.6,9.445,12.6,15.276s-4.474,11.26-12.6,15.28c-7.9,3.912-18.389,6.066-29.526,6.066m0-40.717c-10.834,0-21.006,2.082-28.643,5.861-7.416,3.671-11.5,8.468-11.5,13.51s4.084,9.844,11.5,13.515c7.636,3.78,17.808,5.862,28.643,5.862s21.016-2.082,28.652-5.862c7.417-3.671,11.5-8.47,11.5-13.515s-4.084-9.84-11.5-13.51c-7.637-3.779-17.813-5.861-28.652-5.861" transform="translate(-79.739 -184.2)" fill="#12263f"/>
        <path id="Trazado_241871" data-name="Trazado 241871" d="M216.341,276.148v24.326c0,9.229-12.394,17.029-29.442,19.5a78.065,78.065,0,0,1-11.693.844,78.891,78.891,0,0,1-15.644-1.515c-14.947-3.06-25.463-10.326-25.463-18.826V276.148c0,8.5,10.517,15.8,25.463,18.853a81.63,81.63,0,0,0,27.337.674c17.048-2.5,29.442-10.3,29.442-19.527" transform="translate(-81.272 -167.363)" fill="#fef536"/>
        <path id="Trazado_241872" data-name="Trazado 241872" d="M173.691,321.8a79.791,79.791,0,0,1-15.841-1.534C141.9,317,131.6,309.231,131.6,300.473V276.147h1.97c0,7.681,9.916,14.87,24.675,17.888a80.66,80.66,0,0,0,26.992.665c16.845-2.468,28.606-10.1,28.606-18.554h1.97v24.326c0,9.623-12.171,17.85-30.286,20.472a79.107,79.107,0,0,1-11.834.854m-40.123-39.13v17.8c0,7.781,9.686,14.792,24.675,17.861a80.518,80.518,0,0,0,26.992.663c16.846-2.438,28.606-10.055,28.606-18.523V282.7c-4.136,6.654-14.5,11.93-28.315,13.954a82.624,82.624,0,0,1-27.677-.683c-11.842-2.422-20.571-7.334-24.281-13.3" transform="translate(-79.757 -167.363)" fill="#12263f"/>
        <path id="Trazado_241873" data-name="Trazado 241873" d="M175.2,224.476c-22.708,0-41.129,9.116-41.129,20.355s18.42,20.362,41.129,20.362,41.138-9.116,41.138-20.362-18.418-20.355-41.138-20.355" transform="translate(-81.254 -136.047)" fill="#fef536"/>
        <path id="Trazado_241874" data-name="Trazado 241874" d="M173.682,264.663c-11.132,0-21.614-2.154-29.516-6.066-8.123-4.021-12.6-9.448-12.6-15.28s4.474-11.255,12.6-15.275c7.9-3.911,18.385-6.065,29.516-6.065s21.622,2.154,29.526,6.065c8.123,4.02,12.6,9.445,12.6,15.275s-4.474,11.26-12.6,15.28c-7.9,3.912-18.389,6.066-29.526,6.066m0-40.717c-10.834,0-21.006,2.081-28.643,5.861-7.416,3.67-11.5,8.468-11.5,13.51s4.084,9.844,11.5,13.515c7.636,3.78,17.808,5.862,28.643,5.862s21.015-2.082,28.652-5.862c7.417-3.671,11.5-8.47,11.5-13.515s-4.084-9.84-11.5-13.51c-7.637-3.779-17.813-5.861-28.652-5.861" transform="translate(-79.739 -134.532)" fill="#12263f"/>
        <path id="Trazado_241875" data-name="Trazado 241875" d="M216.341,194.172V218.5c0,9.231-12.394,17.029-29.442,19.527a81.617,81.617,0,0,1-27.337-.674C144.615,234.294,134.1,227,134.1,218.5V194.172c0,8.5,10.517,15.8,25.463,18.856a81.518,81.518,0,0,0,27.337.671c17.048-2.5,29.442-10.3,29.442-19.527" transform="translate(-81.272 -117.681)" fill="#fef536"/>
        <path id="Trazado_241876" data-name="Trazado 241876" d="M173.691,239.851a79.563,79.563,0,0,1-15.841-1.535C141.9,235.054,131.6,227.275,131.6,218.5V194.172h1.97c0,7.679,9.916,14.87,24.675,17.891a80.519,80.519,0,0,0,26.992.663c16.845-2.468,28.606-10.1,28.606-18.554h1.97V218.5c0,9.609-12.171,17.848-30.284,20.5a79.552,79.552,0,0,1-11.835.851m-40.123-39.158V218.5c0,7.68,9.916,14.869,24.675,17.888a80.652,80.652,0,0,0,26.993.666c16.844-2.468,28.6-10.1,28.6-18.554V200.72c-4.136,6.654-14.5,11.93-28.315,13.954a82.493,82.493,0,0,1-27.676-.68c-11.842-2.425-20.572-7.338-24.282-13.3" transform="translate(-79.757 -117.681)" fill="#12263f"/>
        <path id="Trazado_241877" data-name="Trazado 241877" d="M175.2,142.53c-22.708,0-41.129,9.116-41.129,20.355s18.42,20.362,41.129,20.362,41.138-9.116,41.138-20.362S197.917,142.53,175.2,142.53" transform="translate(-81.254 -86.382)" fill="#fef536"/>
        <path id="Trazado_241878" data-name="Trazado 241878" d="M173.682,182.717c-11.132,0-21.615-2.154-29.516-6.066-8.123-4.021-12.6-9.448-12.6-15.281s4.474-11.255,12.6-15.275c7.9-3.911,18.385-6.065,29.516-6.065s21.622,2.154,29.526,6.065c8.123,4.02,12.6,9.445,12.6,15.275s-4.474,11.26-12.6,15.281c-7.9,3.912-18.389,6.066-29.526,6.066m0-40.717c-10.834,0-21.006,2.081-28.643,5.861-7.416,3.67-11.5,8.468-11.5,13.51s4.084,9.844,11.5,13.515c7.636,3.78,17.808,5.862,28.643,5.862s21.016-2.082,28.652-5.862c7.417-3.671,11.5-8.47,11.5-13.515s-4.084-9.84-11.5-13.51C194.7,144.081,184.522,142,173.682,142" transform="translate(-79.739 -84.867)" fill="#12263f"/>
        <path id="Trazado_241879" data-name="Trazado 241879" d="M195.688,159.263c-15.354,0-27.809,6.162-27.809,13.764s12.455,13.767,27.809,13.767,27.818-6.162,27.818-13.767-12.455-13.764-27.818-13.764" transform="translate(-101.745 -96.523)" fill="#fef536"/>
        <path id="Trazado_241880" data-name="Trazado 241880" d="M194.174,186.264c-16.146,0-28.794-6.48-28.794-14.752s12.648-14.749,28.794-14.749,28.8,6.478,28.8,14.749-12.652,14.752-28.8,14.752m0-27.531c-14.54,0-26.824,5.852-26.824,12.779s12.284,12.782,26.824,12.782,26.833-5.854,26.833-12.782-12.288-12.779-26.833-12.779" transform="translate(-100.231 -95.008)" fill="#12263f"/>
        <path id="Trazado_241881" data-name="Trazado 241881" d="M226.073,242.709v24.326a81.619,81.619,0,0,1-27.337-.674V242.038a81.517,81.517,0,0,0,27.337.671" transform="translate(-120.447 -146.69)" fill="#fef536"/>
        <path id="Trazado_241882" data-name="Trazado 241882" d="M212.865,267.006a79.568,79.568,0,0,1-15.841-1.535l-.788-.16V238.979l1.181.24a80.516,80.516,0,0,0,26.993.663l1.133-.172v26.319l-.838.126a79.555,79.555,0,0,1-11.84.852M198.2,263.7a81.086,81.086,0,0,0,25.368.631V241.991a83.046,83.046,0,0,1-25.368-.613Z" transform="translate(-118.931 -144.836)" fill="#12263f"/>
        <path id="Trazado_241883" data-name="Trazado 241883" d="M226.073,324.68v24.3a78.069,78.069,0,0,1-11.693.844,78.891,78.891,0,0,1-15.644-1.515v-24.3a81.63,81.63,0,0,0,27.337.674" transform="translate(-120.447 -196.368)" fill="#fef536"/>
        <path id="Trazado_241884" data-name="Trazado 241884" d="M212.865,348.949a79.794,79.794,0,0,1-15.841-1.534l-.789-.16V320.945l1.181.241a80.651,80.651,0,0,0,26.993.665l1.133-.172v26.287l-.837.127a79.1,79.1,0,0,1-11.841.855m-14.66-3.309a80.958,80.958,0,0,0,25.368.63V323.961a83.233,83.233,0,0,1-25.368-.615Z" transform="translate(-118.931 -194.513)" fill="#12263f"/>
        <path id="Trazado_241885" data-name="Trazado 241885" d="M214.38,407.428a78.119,78.119,0,0,0,11.693-.843V430.91a81.618,81.618,0,0,1-27.337-.674V405.913a78.894,78.894,0,0,0,15.644,1.515" transform="translate(-120.447 -246.009)" fill="#fef536"/>
        <path id="Trazado_241886" data-name="Trazado 241886" d="M212.865,430.881a79.566,79.566,0,0,1-15.841-1.535l-.788-.16V402.854l1.181.24a80.515,80.515,0,0,0,26.993.663l1.133-.172V429.9l-.837.127a79.209,79.209,0,0,1-11.841.852m-14.66-3.309a81.1,81.1,0,0,0,25.368.632V405.866a83.046,83.046,0,0,1-25.368-.613Z" transform="translate(-118.931 -244.155)" fill="#12263f"/>
        <path id="Trazado_241887" data-name="Trazado 241887" d="M207.476,400.209l-12.092-20.948L183.29,400.209H192.5V414.75H61.025V381.211a3.266,3.266,0,1,0-6.531,0v36.805a3.268,3.268,0,0,0,3.266,3.268H195.768a3.266,3.266,0,0,0,3.265-3.268V400.209Z" transform="translate(-33.027 -229.057)" fill="#d677e6"/>
        <path id="Trazado_241888" data-name="Trazado 241888" d="M194.253,420.754H56.245a4.257,4.257,0,0,1-4.251-4.253V379.7a4.251,4.251,0,1,1,8.5,0V412.25H190V399.678h-9.934l13.8-23.9,13.8,23.9H198.5V416.5a4.257,4.257,0,0,1-4.25,4.253M56.245,377.412a2.285,2.285,0,0,0-2.281,2.284v36.8a2.285,2.285,0,0,0,2.281,2.284H194.253a2.285,2.285,0,0,0,2.28-2.284V397.708h7.722l-10.386-17.993L183.48,397.708h8.492V414.22H58.525V379.7a2.285,2.285,0,0,0-2.281-2.284" transform="translate(-31.512 -227.542)" fill="#12263f"/>
      </g>
    </g>
  </g>
</svg>
