<svg xmlns="http://www.w3.org/2000/svg" width="117" height="93.007" viewBox="0 0 117 93.007">
  <g id="Grupo_187273" data-name="Grupo 187273" transform="translate(-284.963 -9201.745)">
    <path id="Rectángulo_33852" data-name="Rectángulo 33852" d="M20,0h97a0,0,0,0,1,0,0V73.006a20,20,0,0,1-20,20H0a0,0,0,0,1,0,0V20A20,20,0,0,1,20,0Z" transform="translate(284.963 9201.745)" fill="#64b5f6"/>
    <g id="Grupo_80447" data-name="Grupo 80447" transform="translate(303.943 9209.375)">
      <circle id="Elipse_4740" data-name="Elipse 4740" cx="38.874" cy="38.874" r="38.874" transform="translate(0 0)" fill="#fff"/>
      <g id="Grupo_80325" data-name="Grupo 80325" transform="translate(13.355 10.288)">
        <path id="Trazado_115419" data-name="Trazado 115419" d="M-1357.4,1293.615c-2.952.867-6.375.208-9.377-.049s-7.078-.98-9.72.83a2.288,2.288,0,0,0,0,3.906,16.823,16.823,0,0,0,5.092,1.279c1.695.309,3.377.674,5.067,1,3.447.667,7.5,1.288,10.934.273C-1350.779,1299.49-1352.744,1292.249-1357.4,1293.615Z" transform="translate(1386.108 -1253.414)" opacity="0.2"/>
        <g id="Grupo_80324" data-name="Grupo 80324" transform="translate(0 0)">
          <g id="Grupo_80322" data-name="Grupo 80322" transform="translate(0.562 0.562)">
            <path id="Trazado_115420" data-name="Trazado 115420" d="M-1397.434,1216.247l10.484,16.727-3.046,14,12.031-1.267,12.033,15.161-3.043-17.512,10.481-4.624-13.916-9.556-5.555-18.019-5.554,11.606Z" transform="translate(1397.434 -1204.816)" fill="#fef536"/>
            <path id="Trazado_115421" data-name="Trazado 115421" d="M-1397.434,1214.387l13.915,6.512,4.487-9.372-7.426-3.477Z" transform="translate(1397.434 -1202.957)" fill="#c2c7cc"/>
            <path id="Trazado_115422" data-name="Trazado 115422" d="M-1348.866,1201.681l5.555,18.019,10.974-6.337-5.554-18.019Z" transform="translate(1368.335 -1195.344)" fill="#969a9e"/>
            <path id="Trazado_115423" data-name="Trazado 115423" d="M-1335.01,1246.631l13.917,9.556,10.972-6.335-13.915-9.558Z" transform="translate(1360.034 -1222.275)" fill="#c2c7cc"/>
            <path id="Trazado_115424" data-name="Trazado 115424" d="M-1326.441,1283.948l3.043,17.511,10.976-6.335-2.82-16.213-.718.413Z" transform="translate(1354.899 -1245.412)" fill="#ba68c8"/>
          </g>
          <g id="Grupo_80323" data-name="Grupo 80323">
            <path id="Trazado_115425" data-name="Trazado 115425" d="M-1366.771,1260.585a.563.563,0,0,1-.44-.213l-11.841-14.919-11.724,1.235a.559.559,0,0,1-.477-.184.561.561,0,0,1-.131-.494l3-13.773-10.362-16.532a.562.562,0,0,1,.055-.671.562.562,0,0,1,.659-.137l13.41,6.276,5.314-11.1a.554.554,0,0,1,.548-.318.562.562,0,0,1,.5.394l5.5,17.832,13.755,9.445a.561.561,0,0,1,.241.516.561.561,0,0,1-.332.462l-10.08,4.447,2.969,17.079a.562.562,0,0,1-.324.609A.561.561,0,0,1-1366.771,1260.585ZM-1378.8,1244.3a.561.561,0,0,1,.44.212l10.662,13.433-2.666-15.338a.561.561,0,0,1,.327-.61l9.559-4.218-13.085-8.985a.562.562,0,0,1-.219-.3l-5.131-16.646-4.934,10.31a.562.562,0,0,1-.745.266l-12.188-5.7,9.471,15.111a.562.562,0,0,1,.073.418l-2.88,13.237,11.257-1.186C-1378.844,1244.3-1378.824,1244.3-1378.8,1244.3Z" transform="translate(1398.835 -1203.414)" fill="#373a3a"/>
            <path id="Trazado_115426" data-name="Trazado 115426" d="M-1330.235,1228.978a.561.561,0,0,1-.487-.281.562.562,0,0,1,.206-.767l10.2-5.89-13.18-9.054a.562.562,0,0,1-.219-.3l-5.347-17.345-10.364,5.985a.561.561,0,0,1-.767-.206.562.562,0,0,1,.206-.768l10.975-6.337a.561.561,0,0,1,.486-.037.562.562,0,0,1,.332.358l5.5,17.832,13.753,9.446a.563.563,0,0,1,.244.485.562.562,0,0,1-.281.465l-10.972,6.335A.557.557,0,0,1-1330.235,1228.978Z" transform="translate(1369.737 -1193.942)" fill="#373a3a"/>
            <path id="Trazado_115427" data-name="Trazado 115427" d="M-1319.688,1301.182a.561.561,0,0,1-.487-.281.562.562,0,0,1,.206-.767l10.637-6.139-2.753-15.826a.561.561,0,0,1,.457-.65.562.562,0,0,1,.65.457l2.82,16.213a.562.562,0,0,1-.273.583l-10.976,6.335A.56.56,0,0,1-1319.688,1301.182Z" transform="translate(1351.752 -1244.011)" fill="#373a3a"/>
            <path id="Trazado_115428" data-name="Trazado 115428" d="M-1398.273,1214.11a.561.561,0,0,1-.487-.281.562.562,0,0,1,.206-.767l10.976-6.337a.562.562,0,0,1,.519-.023l7.426,3.477a.561.561,0,0,1,.27.747.561.561,0,0,1-.747.27l-7.161-3.353-10.722,6.191A.555.555,0,0,1-1398.273,1214.11Z" transform="translate(1398.835 -1201.555)" fill="#373a3a"/>
            <path id="Trazado_115429" data-name="Trazado 115429" d="M-1335.85,1246.354a.56.56,0,0,1-.487-.281.562.562,0,0,1,.205-.768l10.975-6.337a.562.562,0,0,1,.767.206.562.562,0,0,1-.206.768l-10.974,6.337A.56.56,0,0,1-1335.85,1246.354Z" transform="translate(1361.435 -1220.874)" fill="#373a3a"/>
          </g>
        </g>
      </g>
    </g>
  </g>
</svg>
