<svg xmlns="http://www.w3.org/2000/svg" xmlns:xlink="http://www.w3.org/1999/xlink" width="295" height="567.994" viewBox="0 0 295 567.994">
  <defs>
    <clipPath id="clip-path">
      <rect id="Rectángulo_45149" data-name="Rectángulo 45149" width="201.983" height="287.62" fill="none"/>
    </clipPath>
    <clipPath id="clip-path-3">
      <rect id="Rectángulo_45136" data-name="Rectángulo 45136" width="63.396" height="109.988" fill="none"/>
    </clipPath>
    <clipPath id="clip-path-5">
      <path id="Trazado_241919" data-name="Trazado 241919" d="M27.27,49.288,73.7,159.62l20,47.512,10.61-4.467,102.935-43.32L140.815,1.5Z" transform="translate(-27.27 -1.5)" fill="none"/>
    </clipPath>
    <clipPath id="clip-path-6">
      <rect id="Rectángulo_45138" data-name="Rectángulo 45138" width="71.681" height="54.517" fill="none"/>
    </clipPath>
    <clipPath id="clip-path-7">
      <rect id="Rectángulo_45139" data-name="Rectángulo 45139" width="71.681" height="43.626" fill="none"/>
    </clipPath>
    <clipPath id="clip-path-9">
      <rect id="Rectángulo_45143" data-name="Rectángulo 45143" width="71.399" height="43.696" fill="none"/>
    </clipPath>
    <clipPath id="clip-path-10">
      <rect id="Rectángulo_45147" data-name="Rectángulo 45147" width="30.895" height="83.097" fill="none"/>
    </clipPath>
    <clipPath id="clip-path-13">
      <rect id="Rectángulo_45262" data-name="Rectángulo 45262" width="142.3" height="295.625" fill="none"/>
    </clipPath>
    <clipPath id="clip-path-14">
      <path id="Trazado_241964" data-name="Trazado 241964" d="M11.758,71.724,1.5,171.859l11.574,1.186L31.15,174.9l92.9,9.516,6.648-64.886L141.505,14.052,18.957,1.5Z" transform="translate(-1.5 -1.5)" fill="none"/>
    </clipPath>
    <clipPath id="clip-path-15">
      <rect id="Rectángulo_45250" data-name="Rectángulo 45250" width="129.196" height="112.688" fill="none"/>
    </clipPath>
    <clipPath id="clip-path-18">
      <rect id="Rectángulo_45251" data-name="Rectángulo 45251" width="0.622" height="0.998" fill="none"/>
    </clipPath>
    <clipPath id="clip-path-19">
      <rect id="Rectángulo_45253" data-name="Rectángulo 45253" width="16.508" height="30.746" fill="none"/>
    </clipPath>
    <clipPath id="clip-path-21">
      <path id="Trazado_241989" data-name="Trazado 241989" d="M118.073,126.095,56.784,202.974,46.466,215.919l7.6,4.845,68.236-90.98,2.536-5.758a1.923,1.923,0,0,0-1.36-1.365Z" transform="translate(-46.466 -122.661)" fill="none"/>
    </clipPath>
    <clipPath id="clip-path-22">
      <rect id="Rectángulo_45256" data-name="Rectángulo 45256" width="78.371" height="98.102" fill="none"/>
    </clipPath>
    <clipPath id="clip-path-25">
      <path id="Trazado_241993" data-name="Trazado 241993" d="M58.792,230.612a18.565,18.565,0,0,0-3.943-3.783,14.707,14.707,0,0,0-3.777-2.006c-11.51,12.646-21.915,32.625-21.915,32.625a16.4,16.4,0,0,0,3.582,3.008c7.327-5.956,19.336-17.89,19.336-17.89l5.235-1.354c7.33-10.693,14.944-25.81,14.944-25.81l-.633-.933Z" transform="translate(-29.158 -214.47)" fill="none"/>
    </clipPath>
    <clipPath id="clip-path-26">
      <rect id="Rectángulo_45259" data-name="Rectángulo 45259" width="39.515" height="45.986" fill="none"/>
    </clipPath>
    <clipPath id="clip-path-29">
      <rect id="Rectángulo_45260" data-name="Rectángulo 45260" width="6.645" height="37.36" fill="none"/>
    </clipPath>
    <clipPath id="clip-path-30">
      <rect id="Rectángulo_45264" data-name="Rectángulo 45264" width="42.939" height="42.943" fill="#12263f"/>
    </clipPath>
    <clipPath id="clip-path-31">
      <rect id="Rectángulo_45265" data-name="Rectángulo 45265" width="50.536" height="50.533" fill="#12263f"/>
    </clipPath>
    <clipPath id="clip-path-32">
      <rect id="Rectángulo_45266" data-name="Rectángulo 45266" width="42.5" height="42.5" fill="#12263f"/>
    </clipPath>
  </defs>
  <g id="Grupo_187274" data-name="Grupo 187274" transform="translate(-705 -9342.752)">
    <g id="Grupo_180567" data-name="Grupo 180567" transform="translate(0 -179)">
      <g id="Grupo_180557" data-name="Grupo 180557" transform="translate(705 9618.237)">
        <g id="Grupo_180562" data-name="Grupo 180562">
          <path id="Trazado_242001" data-name="Trazado 242001" d="M125.667-28.9c102,2.667,93.938,84.486,131.42,144.787s45.5,87.642,31.373,157.155S216.333,423.763,137.667,407.763,77.487,354.513,40.333,327.1s-53.273-69.959-26.078-132.39S23.093-16.305,125.667-28.9" transform="translate(0 0)" fill="#fef536"/>
        </g>
      </g>
      <g id="Grupo_180511" data-name="Grupo 180511" transform="translate(705 9690.502)">
        <g id="Grupo_180510" data-name="Grupo 180510" clip-path="url(#clip-path)">
          <g id="Grupo_180487" data-name="Grupo 180487">
            <g id="Grupo_180486" data-name="Grupo 180486" clip-path="url(#clip-path)">
              <g id="Grupo_180485" data-name="Grupo 180485" transform="translate(40.718 162.807)" opacity="0.2">
                <g id="Grupo_180484" data-name="Grupo 180484">
                  <g id="Grupo_180483" data-name="Grupo 180483" clip-path="url(#clip-path-3)">
                    <g id="Grupo_180482" data-name="Grupo 180482" opacity="0.7">
                      <g id="Grupo_180481" data-name="Grupo 180481">
                        <g id="Grupo_180480" data-name="Grupo 180480" clip-path="url(#clip-path-3)">
                          <path id="Trazado_241889" data-name="Trazado 241889" d="M115.507,226.205s4.842,22.483-5.649,38.841-18.561,20.72-22.193,25.6-17.838,32.169-17.838,32.169l-16.6-49.165,16.6-60.823Z" transform="translate(-53.228 -212.827)"/>
                        </g>
                      </g>
                    </g>
                  </g>
                </g>
              </g>
            </g>
          </g>
          <path id="Trazado_241890" data-name="Trazado 241890" d="M207.245,159.344,104.31,202.664,93.7,207.132l-20-47.512L27.27,49.288,140.815,1.5Z" transform="translate(-6.409 -0.353)" fill="#fff"/>
          <g id="Grupo_180507" data-name="Grupo 180507" transform="translate(20.861 1.147)">
            <g id="Grupo_180506" data-name="Grupo 180506" clip-path="url(#clip-path-5)">
              <path id="Trazado_241891" data-name="Trazado 241891" d="M121.951,28.3,72.938,48.929a1.807,1.807,0,1,0,1.4,3.331l49.014-20.627a1.807,1.807,0,1,0-1.4-3.331" transform="translate(-37.743 -7.766)" fill="#263238"/>
              <path id="Trazado_241892" data-name="Trazado 241892" d="M117.4,44.014,92.893,54.328a.9.9,0,1,0,.7,1.666L118.1,45.68a.9.9,0,0,0-.7-1.666" transform="translate(-42.563 -11.475)" fill="#263238"/>
              <g id="Grupo_180490" data-name="Grupo 180490" transform="translate(53.94 95.366)" opacity="0.5">
                <g id="Grupo_180489" data-name="Grupo 180489">
                  <g id="Grupo_180488" data-name="Grupo 180488" clip-path="url(#clip-path-6)">
                    <path id="Trazado_241893" data-name="Trazado 241893" d="M159,126.166s1.034,8.12-1.99,9.392c-2.759,1.161-6.4-3.2-9.569-1.86s-.67,12.846-3.732,14.134-6.749-3.44-9.39-2.329-1.043,7.032-3.765,8.178c-2.247.945-5.463-3.761-8.033-4.794a1.968,1.968,0,0,0-1.531-.076c-2.693,1.134-1.357,13.5-3.681,14.477a4.361,4.361,0,0,1-2.062.337,15.229,15.229,0,0,0-2.622-.247,3.393,3.393,0,0,0-.981.25c-1.984.835-1.713,7.343-3.527,8.106s-3.605-.183-5.542.633-1.9,4.2-4.793,5.413l1.222,2.9,70.459-29.653" transform="translate(-97.782 -126.166)" fill="#ba68c8"/>
                  </g>
                </g>
              </g>
              <path id="Trazado_241894" data-name="Trazado 241894" d="M94.643,187.813a1.147,1.147,0,0,1-1.057-.7l-14.265-33.9a1.147,1.147,0,1,1,2.114-.891l13.821,32.839,72.714-30.6a1.147,1.147,0,1,1,.89,2.114L95.088,187.724a1.151,1.151,0,0,1-.445.09" transform="translate(-39.482 -36.783)" fill="#12263f"/>
              <g id="Grupo_180493" data-name="Grupo 180493" transform="translate(53.94 106.258)" opacity="0.5">
                <g id="Grupo_180492" data-name="Grupo 180492">
                  <g id="Grupo_180491" data-name="Grupo 180491" clip-path="url(#clip-path-7)">
                    <path id="Trazado_241895" data-name="Trazado 241895" d="M164.667,142.983a12.081,12.081,0,0,0-.869-.935c-.912-.88-2.359-2-3.458-1.535-1.075.452-1.17,2.239-1.149,4.148.026,2.322.228,4.823-.939,5.314-.994.418-1.886-.211-2.8-.9-1.046-.782-2.121-1.636-3.409-1.095-2.176.916-1.512,3.749-2.278,6.174a4.691,4.691,0,0,1-2.863,3.091c-1.879.791-3.784.015-5.578-1.211-3.032-2.068-5.753-5.414-7.516-4.672-2.806,1.181.288,8.773-2.728,10.043-1.685.709-5.173-4.607-8.561-9.175-2.679-3.617-5.3-6.765-6.905-6.089-3.637,1.531,2.357,19.683-.288,20.8-.025.011-.054.022-.08.031a2.791,2.791,0,0,1-2.622-.247c-.954-.54-1.73-1.306-2.782-.862-1.948.819-.806,7.936-2.954,8.84s-3.434-.4-5.851.613c-2.044.861-3.256,5.811-3.256,5.811L99,184.03l70.458-29.653" transform="translate(-97.782 -140.404)" fill="#ba68c8"/>
                  </g>
                </g>
              </g>
              <path id="Trazado_241896" data-name="Trazado 241896" d="M158.026,175.389,133.519,185.7a.9.9,0,1,0,.7,1.666l24.507-10.313a.9.9,0,1,0-.7-1.666" transform="translate(-52.111 -42.352)" fill="#263238"/>
              <path id="Trazado_241897" data-name="Trazado 241897" d="M191.652,125.556l-2.368,1a.479.479,0,0,1-.627-.256l-1-2.368a.479.479,0,0,1,.255-.627l2.368-1a.479.479,0,0,1,.627.256l1,2.368a.478.478,0,0,1-.256.627" transform="translate(-64.958 -29.884)" fill="#fef536"/>
              <path id="Rectángulo_45140" data-name="Rectángulo 45140" d="M.626,0H2.9a.627.627,0,0,1,.627.627V2.9a.626.626,0,0,1-.626.626H.626A.626.626,0,0,1,0,2.9V.626A.626.626,0,0,1,.626,0Z" transform="translate(122.517 93.603) rotate(-22.831)" fill="none" stroke="#263238" stroke-miterlimit="10" stroke-width="1"/>
              <path id="Trazado_241898" data-name="Trazado 241898" d="M204.657,116.859l-9.794,4.122a.405.405,0,1,1-.314-.747l9.794-4.122a.405.405,0,0,1,.314.747" transform="translate(-66.527 -28.429)" fill="#263238"/>
              <path id="Trazado_241899" data-name="Trazado 241899" d="M202.563,120.627l-6.806,2.864a.405.405,0,0,1-.315-.747l6.806-2.865a.406.406,0,0,1,.315.747" transform="translate(-66.737 -29.315)" fill="#263238"/>
              <path id="Trazado_241900" data-name="Trazado 241900" d="M195.657,135.074l-2.368,1a.479.479,0,0,1-.627-.256l-1-2.368a.479.479,0,0,1,.256-.627l2.368-1a.479.479,0,0,1,.627.256l1,2.368a.478.478,0,0,1-.255.627" transform="translate(-65.899 -32.121)" fill="#fef536"/>
              <path id="Rectángulo_45141" data-name="Rectángulo 45141" d="M.626,0H2.9a.627.627,0,0,1,.627.627V2.9a.626.626,0,0,1-.626.626H.626A.626.626,0,0,1,0,2.9V.626A.626.626,0,0,1,.626,0Z" transform="translate(125.581 100.884) rotate(-22.831)" fill="none" stroke="#263238" stroke-linecap="round" stroke-linejoin="round" stroke-width="1"/>
              <path id="Trazado_241901" data-name="Trazado 241901" d="M208.662,126.377l-9.794,4.122a.405.405,0,0,1-.314-.747l9.794-4.122a.405.405,0,1,1,.314.747" transform="translate(-67.468 -30.667)" fill="#263238"/>
              <path id="Trazado_241902" data-name="Trazado 241902" d="M206.568,130.145l-6.805,2.864a.405.405,0,1,1-.314-.747l6.805-2.865a.405.405,0,0,1,.314.747" transform="translate(-67.679 -31.552)" fill="#263238"/>
              <path id="Trazado_241903" data-name="Trazado 241903" d="M204.069,165.834l-79.55,33.478a.9.9,0,0,0,.7,1.666l79.55-33.478a.9.9,0,0,0-.7-1.666" transform="translate(-49.996 -40.107)" fill="#263238"/>
              <path id="Trazado_241904" data-name="Trazado 241904" d="M203.386,173.664l-92.5,38.929a.9.9,0,1,0,.7,1.665l92.5-38.929a.9.9,0,1,0-.7-1.666" transform="translate(-46.792 -41.947)" fill="#263238"/>
              <path id="Trazado_241905" data-name="Trazado 241905" d="M206.681,181.5l-92.5,38.929a.9.9,0,1,0,.7,1.665l92.5-38.929a.9.9,0,0,0-.7-1.666" transform="translate(-47.566 -43.787)" fill="#263238"/>
              <path id="Trazado_241906" data-name="Trazado 241906" d="M209.977,189.325l-92.5,38.929a.9.9,0,1,0,.7,1.665l92.5-38.929a.9.9,0,0,0-.7-1.666" transform="translate(-48.341 -45.628)" fill="#263238"/>
              <path id="Trazado_241907" data-name="Trazado 241907" d="M174.418,218.531,120.77,241.109a.9.9,0,0,0,.7,1.666L175.119,220.2a.9.9,0,0,0-.7-1.666" transform="translate(-49.115 -52.492)" fill="#263238"/>
              <g id="Grupo_180496" data-name="Grupo 180496" transform="translate(34.539 49.267)" opacity="0.5">
                <g id="Grupo_180495" data-name="Grupo 180495">
                  <g id="Grupo_180494" data-name="Grupo 180494" clip-path="url(#clip-path-6)">
                    <path id="Trazado_241908" data-name="Trazado 241908" d="M133.638,65.9s1.034,8.119-1.99,9.392c-2.759,1.161-6.4-3.2-9.569-1.86s-.67,12.846-3.732,14.134-6.749-3.441-9.39-2.329-1.043,7.032-3.765,8.178c-2.247.946-5.463-3.761-8.033-4.794a1.967,1.967,0,0,0-1.531-.076c-2.693,1.134-1.357,13.5-3.681,14.476a4.353,4.353,0,0,1-2.062.338,15.228,15.228,0,0,0-2.622-.247,3.393,3.393,0,0,0-.981.25c-1.984.835-1.713,7.343-3.527,8.106s-3.605-.183-5.542.633-1.9,4.2-4.793,5.413l1.222,2.9L144.1,90.768" transform="translate(-72.421 -65.904)" fill="#ba68c8"/>
                  </g>
                </g>
              </g>
              <g id="Grupo_180499" data-name="Grupo 180499" transform="translate(34.821 60.089)" opacity="0.5">
                <g id="Grupo_180498" data-name="Grupo 180498" transform="translate(0)">
                  <g id="Grupo_180497" data-name="Grupo 180497" clip-path="url(#clip-path-9)">
                    <path id="Trazado_241909" data-name="Trazado 241909" d="M138.278,80.05s.646,3.936-.913,4.591c-1.292.544-2.086-.213-3.448-.264a4.53,4.53,0,0,0-1.971.4c-1.245.524-1.548,2.2-1.769,4.013-.272,2.223-.416,4.639-2.044,5.323a5.032,5.032,0,0,1-3.644-.245c-2.023-.7-4.152-1.82-6.2-.956a4.84,4.84,0,0,0-2.235,2.837c-1.277,3.16-1.679,7.736-3.061,8.318-1.968.828-5.569-2.553-7.315-1.818s-1.031,3.767-2.448,4.364-2.225-1.163-4.719-.113-1.281,4.734-4.8,6.213-5.06-1.242-8.464.19-2.784,4.01-5.181,5.019-3.411-.745-5.129-.022c-1.664.7-2.121,3.438-2.148,3.608l.939,2.231,70.459-29.653" transform="translate(-72.79 -80.05)" fill="#ba68c8"/>
                  </g>
                </g>
              </g>
              <path id="Trazado_241910" data-name="Trazado 241910" d="M69.282,127.551a1.148,1.148,0,0,1-1.058-.7l-14.265-33.9a1.147,1.147,0,1,1,2.114-.891L69.894,124.9l72.714-30.6a1.147,1.147,0,0,1,.89,2.114L69.728,127.461a1.149,1.149,0,0,1-.445.09" transform="translate(-33.521 -22.62)" fill="#12263f"/>
              <path id="Trazado_241911" data-name="Trazado 241911" d="M132.375,114.439l-24.507,10.313a.9.9,0,1,0,.7,1.666l24.507-10.313a.9.9,0,0,0-.7-1.666" transform="translate(-46.083 -28.027)" fill="#263238"/>
              <path id="Trazado_241912" data-name="Trazado 241912" d="M164.672,61.448l-2.368,1a.479.479,0,0,1-.627-.256l-1-2.368a.479.479,0,0,1,.256-.627l2.368-1a.479.479,0,0,1,.627.256l1,2.368a.478.478,0,0,1-.256.627" transform="translate(-58.616 -14.816)" fill="#fef536"/>
              <rect id="Rectángulo_45144" data-name="Rectángulo 45144" width="3.527" height="3.527" rx="0.626" transform="translate(101.878 44.563) rotate(-22.831)" fill="none" stroke="#263238" stroke-miterlimit="10" stroke-width="1"/>
              <path id="Trazado_241913" data-name="Trazado 241913" d="M177.677,52.75l-9.794,4.122a.405.405,0,1,1-.314-.747L177.363,52a.405.405,0,1,1,.314.747" transform="translate(-60.186 -13.362)" fill="#263238"/>
              <path id="Trazado_241914" data-name="Trazado 241914" d="M175.583,56.519l-6.806,2.864a.405.405,0,0,1-.314-.747l6.806-2.865a.405.405,0,1,1,.314.747" transform="translate(-60.396 -14.248)" fill="#263238"/>
              <path id="Trazado_241915" data-name="Trazado 241915" d="M168.677,70.966l-2.368,1a.479.479,0,0,1-.627-.256l-1-2.368a.479.479,0,0,1,.256-.627l2.368-1a.479.479,0,0,1,.627.256l1,2.368a.479.479,0,0,1-.255.627" transform="translate(-59.558 -17.053)" fill="#64b5f6"/>
              <path id="Rectángulo_45145" data-name="Rectángulo 45145" d="M.626,0H2.9a.627.627,0,0,1,.627.627V2.9a.626.626,0,0,1-.626.626H.626A.626.626,0,0,1,0,2.9V.626A.626.626,0,0,1,.626,0Z" transform="translate(104.942 51.843) rotate(-22.831)" fill="none" stroke="#263238" stroke-miterlimit="10" stroke-width="1"/>
              <path id="Trazado_241916" data-name="Trazado 241916" d="M181.682,62.268l-9.794,4.122a.405.405,0,0,1-.314-.747l9.794-4.122a.405.405,0,1,1,.314.747" transform="translate(-61.127 -15.599)" fill="#263238"/>
              <path id="Trazado_241917" data-name="Trazado 241917" d="M179.588,66.037,172.783,68.9a.405.405,0,1,1-.314-.747l6.805-2.865a.405.405,0,0,1,.314.747" transform="translate(-61.337 -16.485)" fill="#263238"/>
              <g id="Grupo_180505" data-name="Grupo 180505" transform="translate(46.434 122.535)" opacity="0.2">
                <g id="Grupo_180504" data-name="Grupo 180504">
                  <g id="Grupo_180503" data-name="Grupo 180503" clip-path="url(#clip-path-10)">
                    <g id="Grupo_180502" data-name="Grupo 180502" opacity="0.7">
                      <g id="Grupo_180501" data-name="Grupo 180501">
                        <g id="Grupo_180500" data-name="Grupo 180500" clip-path="url(#clip-path-10)">
                          <path id="Trazado_241918" data-name="Trazado 241918" d="M118.577,240.312l-10.61,4.467-20-47.512a11.772,11.772,0,0,0,3.343-6.556c1.193-6.365.352-26.828,16.286-28.939s2.494,33.72,3.228,40.551c.673,6.219,9.753,24.3,7.749,37.988" transform="translate(-87.97 -161.683)" fill="#fef536"/>
                        </g>
                      </g>
                    </g>
                  </g>
                </g>
              </g>
            </g>
          </g>
          <g id="Grupo_180509" data-name="Grupo 180509">
            <g id="Grupo_180508" data-name="Grupo 180508" clip-path="url(#clip-path)">
              <path id="Trazado_241920" data-name="Trazado 241920" d="M207.245,159.344,104.31,202.664,93.7,207.132l-20-47.512L27.27,49.288,140.815,1.5Z" transform="translate(-6.409 -0.353)" fill="none" stroke="#12263f" stroke-linecap="round" stroke-linejoin="round" stroke-width="3"/>
              <path id="Trazado_241921" data-name="Trazado 241921" d="M91.491,200.928c1.785-6.108,8.763-25.714,7.847-34.381a8.438,8.438,0,0,0-.489-2.111c-2.448-6.473-12.457-5.847-16.3-.483-4.22,5.9-7.668,16.513-7.962,22.974A19.969,19.969,0,0,1,71.562,196c-.007.015-.006.021-.013.029a22.424,22.424,0,0,1-2.025,2.876L46.692,144.727a30.905,30.905,0,0,0-5.974,6.667,10.911,10.911,0,0,0-1.755,4.644c-.468,5.335-6.512,27.258-9.024,36.511-.048.2-.1.384-.152.568-2.416,8.891,3.963,41.907,2.138,51.5S28.967,253.992,28.7,260.8c-.194,4.972-7.309,20.091-15.278,35.611C8.854,305.308,4,314.326,0,321.635l58.383-2.425c1.012-7.093,2.049-14.581,3-21.828a81.6,81.6,0,0,1,1.744-8.961v-.007c1.289-5.2,2.858-9.907,3.813-12.661a119.3,119.3,0,0,0,3.047-12.312c6.789-7.188,15.693-18.485,18.273-26.137.007-.014.013-.036.019-.05a9.5,9.5,0,0,0,.581-4.967,23.023,23.023,0,0,1-.462-4.179c.007-.008.007-.008,0-.015-.295-8.285,1.6-22.076,3.1-27.166" transform="translate(0 -34.015)" fill="#fff"/>
              <path id="Trazado_241922" data-name="Trazado 241922" d="M84.059,196.025c-1.811,3.634-3.992,7.162-5.384,11.236s-2.887,4.648-6.973,7.834-7.068-2.062-7.068-2.062,5.406-5.618,3.61-8.743-8.526-10.911-8.127-15.2-4.08-13.916-4.08-13.916,10.194-5.985,8.216-12.977c-1.08-3.829-6.418-7.9-11.024-10.8a30.9,30.9,0,0,1,5.974-6.668L82.034,198.9a22.375,22.375,0,0,0,2.026-2.876" transform="translate(-12.51 -34.015)" fill="#64b5f6"/>
              <path id="Trazado_241923" data-name="Trazado 241923" d="M38.646,243.949c.138.458,3.456,11.424.657,15.991-2.865,4.669-5.677,10.622-4.308,16.823,1.092,4.955-8.087,22.859-17.447,34.344,7.969-15.52,15.084-30.639,15.278-35.611.265-6.811,1.392-6.6,3.223-16.188s-4.554-42.607-2.138-51.5c.048-.185.1-.37.152-.569,1.782,10.073,5.935,30.138,7.074,36.588,1.452,8.217-2.337.442-2.492.118" transform="translate(-4.124 -48.708)" fill="#64b5f6"/>
              <path id="Trazado_241924" data-name="Trazado 241924" d="M72.61,323.847c6.782-29.21,29.619-51.613,32.711-58.1-2.579,7.653-11.484,18.95-18.273,26.137A119.29,119.29,0,0,1,84,304.2c-.955,2.754-2.524,7.46-3.813,12.661v.007c-6.63,7.813-7.579,6.981-7.579,6.981" transform="translate(-17.065 -62.458)" fill="#64b5f6"/>
              <path id="Trazado_241925" data-name="Trazado 241925" d="M116.343,206.868c-1.5,5.09-3.393,18.881-3.1,27.166-1.2-5.2-3.514-11.808-3.9-21.011-.648-15.6,8.191-10.009,5.108-17.693s-11.871,2.166-7.54-14.109c3.163-11.882,12.162-11.771,16.784-10.844a8.438,8.438,0,0,1,.489,2.111c.916,8.667-6.062,28.273-7.847,34.381" transform="translate(-24.852 -39.956)" fill="#64b5f6"/>
              <path id="Trazado_241926" data-name="Trazado 241926" d="M61.1,317.627c-.039,0-.078,0-.118-.006a1.147,1.147,0,0,1-1.025-1.258l.158-1.565c.994-9.811,2.023-19.957,4.968-30.19,2.519-7.151,4.357-14.349,6.134-21.311a1.167,1.167,0,0,1,.207-.427c1.625-2.09,3.415-4.184,5.146-6.21C82.73,249.452,89.1,242,90.293,232.4a67.135,67.135,0,0,0-.129-7.488c-.225-4.109-.457-8.358.672-12.905l-.138-3.344a1.113,1.113,0,0,1,.008-.189,57.981,57.981,0,0,1,2.3-9.73c.246-.821.5-1.658.746-2.525,2.948-8.734,6.161-18.833,7.182-28.846a6.766,6.766,0,0,0-1.967-4.652,8.483,8.483,0,0,0-7.211-2.059,11.037,11.037,0,0,0-7.718,5.244c-3.207,7.157-4.981,15.058-6.66,23.2l-.061.4c-.55,3.542-1.235,7.949-4.847,10.038a1.147,1.147,0,0,1-1.642-.571c-7.058-17.842-14.565-35.22-22.281-52.909-2.716,2.029-4.3,5.619-5.844,9.1q-.251.569-.5,1.127a72.271,72.271,0,0,0-2.36,11.289c-.321,2.076-.653,4.223-1.071,6.252-.008.039-.018.078-.03.116-2.427,7.647-4.936,15.554-6.01,23.225-.48,7.44.373,15.1,1.2,22.5,1.353,12.146,2.753,24.706-1.618,36.856a10.7,10.7,0,0,0-.139,3.087,12.263,12.263,0,0,1-.249,3.89c-4.894,14.164-11.4,27.112-19.667,42.216a1.148,1.148,0,0,1-2.013-1.1c8.212-15,14.67-27.85,19.494-41.8a10.688,10.688,0,0,0,.143-3.1,12.282,12.282,0,0,1,.249-3.889c4.214-11.719,2.906-23.462,1.521-35.9-.838-7.517-1.7-15.289-1.2-22.945a.768.768,0,0,1,.008-.083c1.095-7.859,3.628-15.854,6.082-23.588.4-1.954.711-3.96,1.039-6.082a73.582,73.582,0,0,1,2.466-11.711q.02-.057.044-.112l.519-1.17c1.8-4.07,3.839-8.683,7.916-10.874a1.147,1.147,0,0,1,1.595.552c7.709,17.664,15.216,35,22.287,52.8,1.753-1.8,2.225-4.835,2.648-7.56l.07-.454c1.72-8.343,3.531-16.4,6.847-23.778.015-.033.031-.065.05-.1a13.375,13.375,0,0,1,9.385-6.422,10.729,10.729,0,0,1,9.119,2.638,9.09,9.09,0,0,1,2.709,6.325,1.436,1.436,0,0,1,0,.162c-1.036,10.277-4.3,20.556-7.283,29.383-.236.826-.489,1.671-.737,2.5A56.791,56.791,0,0,0,93,208.667l.142,3.414a1.128,1.128,0,0,1-.034.332c-1.089,4.269-.874,8.207-.646,12.377a68.564,68.564,0,0,1,.121,7.82c-1.284,10.353-7.882,18.074-14.264,25.541-1.739,2.033-3.383,3.959-4.933,5.94-1.773,6.944-3.611,14.112-6.116,21.216C64.4,295.279,63.38,305.32,62.4,315.029l-.159,1.567a1.147,1.147,0,0,1-1.14,1.031" transform="translate(-2.375 -33.662)" fill="#12263f"/>
              <path id="Trazado_241927" data-name="Trazado 241927" d="M75.288,230.238a1.148,1.148,0,0,1-.783-1.987,11.054,11.054,0,0,1,4.081-2.1c2.147-.75,3.484-1.289,3.89-2.879a48.328,48.328,0,0,1,3.457-8.606,1.147,1.147,0,0,1,2.035,1.06,46.826,46.826,0,0,0-3.267,8.113c-.731,2.864-3.19,3.722-5.359,4.478a9.248,9.248,0,0,0-3.273,1.616,1.144,1.144,0,0,1-.782.308" transform="translate(-17.425 -50.307)" fill="#12263f"/>
              <path id="Trazado_241928" data-name="Trazado 241928" d="M83.752,216.754a1.126,1.126,0,0,1-.287-.037,21.535,21.535,0,0,1-7.091-3.93c-3.637-2.84-10.032-5.116-10.1-5.139a1.147,1.147,0,1,1,.763-2.164c.276.1,6.809,2.421,10.746,5.494a19.834,19.834,0,0,0,6.254,3.519,1.148,1.148,0,0,1-.29,2.257" transform="translate(-15.397 -48.279)" fill="#12263f"/>
              <path id="Trazado_241929" data-name="Trazado 241929" d="M65.619,185.073a19.294,19.294,0,0,1-4.761-.605,1.147,1.147,0,0,1,.618-2.21c.047.013,4.444,1.208,7.878-.071A33.779,33.779,0,0,1,70.323,177a1.148,1.148,0,0,1,2.2.649,34.252,34.252,0,0,0-.957,5.429,1.147,1.147,0,0,1-.65.933,12.42,12.42,0,0,1-5.3,1.058" transform="translate(-14.106 -41.408)" fill="#12263f"/>
              <path id="Trazado_241930" data-name="Trazado 241930" d="M77.69,187.643h-.014c-3.11-.035-3.836-1.016-3.9-1.833a1.148,1.148,0,0,1,2.118-.694,5.254,5.254,0,0,0,1.8.232,1.147,1.147,0,0,1-.012,2.295m-1.622-2.008h0Zm0,0h0Zm0,0v0Zm0,0v0Zm0,0h0Zm0-.005v0m0-.007v0m0,0v0m0,0v0Zm0,0h0Z" transform="translate(-17.339 -43.381)" fill="#12263f"/>
              <path id="Trazado_241931" data-name="Trazado 241931" d="M80.208,313.894a1.147,1.147,0,0,1-1.075-1.549,37.123,37.123,0,0,1,8.659-13.628,1.148,1.148,0,0,1,1.543,1.7,35.476,35.476,0,0,0-8.052,12.732,1.149,1.149,0,0,1-1.075.746" transform="translate(-18.582 -70.137)" fill="#12263f"/>
              <path id="Trazado_241932" data-name="Trazado 241932" d="M47.188,253.691a1.148,1.148,0,0,1-1.14-1.027c-.006-.057-.623-5.771-2.226-13.71-.62-3.067-1.77-7.276-2.99-11.735-2.039-7.458-3.965-14.5-3.809-17.509a1.147,1.147,0,1,1,2.292.119c-.137,2.638,1.918,10.154,3.731,16.785,1.229,4.5,2.39,8.742,3.025,11.886,1.626,8.051,2.252,13.864,2.259,13.922a1.147,1.147,0,0,1-1.02,1.261,1.117,1.117,0,0,1-.123.007" transform="translate(-8.7 -49.033)" fill="#12263f"/>
            </g>
          </g>
        </g>
      </g>
      <g id="Grupo_180555" data-name="Grupo 180555" transform="translate(857.7 9697.627)">
        <g id="Grupo_180554" data-name="Grupo 180554" clip-path="url(#clip-path-13)">
          <path id="Trazado_241933" data-name="Trazado 241933" d="M141.505,14.053,130.7,119.527l-6.648,64.885L31.15,174.9l-18.076-1.851L1.5,171.859,11.758,71.724,18.957,1.5Z" transform="translate(-0.353 -0.352)" fill="#fff"/>
          <g id="Grupo_180519" data-name="Grupo 180519" transform="translate(1.147 1.147)">
            <g id="Grupo_180518" data-name="Grupo 180518" clip-path="url(#clip-path-14)">
              <path id="Trazado_241934" data-name="Trazado 241934" d="M121.128,21.389l-52.9-5.421a1.807,1.807,0,0,0-.369,3.6l52.9,5.421a1.807,1.807,0,0,0,.369-3.6" transform="translate(-16.715 -4.898)" fill="#263238"/>
              <path id="Trazado_241935" data-name="Trazado 241935" d="M111.283,30.111,84.832,27.4a.9.9,0,0,0-.184,1.8l26.45,2.71a.9.9,0,1,0,.184-1.8" transform="translate(-20.851 -7.586)" fill="#263238"/>
              <path id="Trazado_241936" data-name="Trazado 241936" d="M131.073,130l-85.858-8.8a.9.9,0,1,0-.184,1.8l85.858,8.8a.9.9,0,1,0,.184-1.8" transform="translate(-11.54 -29.633)" fill="#263238"/>
              <path id="Trazado_241937" data-name="Trazado 241937" d="M125.911,138.014,26.076,127.784a.9.9,0,1,0-.185,1.8l99.836,10.23a.9.9,0,1,0,.184-1.8" transform="translate(-7.042 -31.179)" fill="#263238"/>
              <path id="Trazado_241938" data-name="Trazado 241938" d="M97.089,143.6l-71.88-7.366a.9.9,0,1,0-.184,1.8L96.9,145.4a.9.9,0,1,0,.184-1.8" transform="translate(-6.838 -33.165)" fill="#263238"/>
              <rect id="Rectángulo_45150" data-name="Rectángulo 45150" width="28.659" height="101.173" transform="translate(14.326 138.555) rotate(-84.149)" fill="#ba68c8"/>
              <rect id="Rectángulo_45151" data-name="Rectángulo 45151" width="28.659" height="101.173" transform="translate(14.326 138.555) rotate(-84.149)" fill="none" stroke="#12263f" stroke-miterlimit="10" stroke-width="2"/>
              <path id="Trazado_241939" data-name="Trazado 241939" d="M82.309,74.773a24.255,24.255,0,1,1-21.657-26.6,24.256,24.256,0,0,1,21.657,26.6" transform="translate(-9.12 -12.439)" fill="#263238"/>
              <path id="Trazado_241940" data-name="Trazado 241940" d="M66.473,75.613l18.635,9.375a21.41,21.41,0,0,0-2.465-22.539Z" transform="translate(-16.771 -15.825)" fill="#fff"/>
              <path id="Trazado_241941" data-name="Trazado 241941" d="M66.634,72.53l15.6-12.7a21.366,21.366,0,0,0-8.715-6.208l-2.814,7.727Z" transform="translate(-16.808 -13.75)" fill="#ba68c8"/>
              <path id="Trazado_241942" data-name="Trazado 241942" d="M68.36,51.975,66.467,70.443,72.822,53a21.436,21.436,0,0,0-4.462-1.02" transform="translate(-16.769 -13.363)" fill="#64b5f6"/>
              <path id="Trazado_241943" data-name="Trazado 241943" d="M58.728,72.937l2.16-21.081A21.394,21.394,0,0,0,39.43,81.7Z" transform="translate(-9.997 -13.316)" fill="#fef536"/>
              <path id="Trazado_241944" data-name="Trazado 241944" d="M57.509,101.158A21.4,21.4,0,0,0,78.648,89.8L59.683,80.257,40.35,89.038a21.389,21.389,0,0,0,17.159,12.119" transform="translate(-10.631 -20.01)" fill="#64b5f6"/>
              <path id="Trazado_241945" data-name="Trazado 241945" d="M111.246,64.16,108.69,63.9a.48.48,0,0,1-.428-.526l.262-2.556a.48.48,0,0,1,.526-.428l2.555.262a.479.479,0,0,1,.428.526l-.262,2.556a.479.479,0,0,1-.526.428" transform="translate(-26.592 -15.34)" fill="#ba68c8"/>
              <path id="Rectángulo_45152" data-name="Rectángulo 45152" d="M.627,0H2.9a.626.626,0,0,1,.626.626V2.9a.626.626,0,0,1-.626.626H.626A.626.626,0,0,1,0,2.9V.627A.627.627,0,0,1,.627,0Z" transform="translate(81.622 48.509) rotate(-84.156)" fill="none" stroke="#263238" stroke-miterlimit="10" stroke-width="1"/>
              <path id="Trazado_241946" data-name="Trazado 241946" d="M148.827,65.9l-32.936-3.375a.405.405,0,0,1,.083-.806l32.936,3.375a.405.405,0,1,1-.083.806" transform="translate(-28.3 -15.652)" fill="#263238"/>
              <path id="Trazado_241947" data-name="Trazado 241947" d="M145.367,67.858l-29.711-3.045a.405.405,0,1,1,.083-.806l29.711,3.045a.405.405,0,1,1-.083.806" transform="translate(-28.244 -16.191)" fill="#263238"/>
              <path id="Trazado_241948" data-name="Trazado 241948" d="M110.193,74.433l-2.555-.262a.48.48,0,0,1-.428-.526l.262-2.556a.479.479,0,0,1,.526-.428l2.555.262a.48.48,0,0,1,.428.526l-.262,2.556a.479.479,0,0,1-.526.428" transform="translate(-26.344 -17.755)" fill="#64b5f6"/>
              <rect id="Rectángulo_45153" data-name="Rectángulo 45153" width="3.527" height="3.527" rx="0.626" transform="translate(80.817 56.368) rotate(-84.154)" fill="none" stroke="#263238" stroke-linecap="round" stroke-linejoin="round" stroke-width="1"/>
              <path id="Trazado_241949" data-name="Trazado 241949" d="M147.775,76.169l-32.936-3.375a.405.405,0,0,1,.083-.806l32.936,3.375a.405.405,0,0,1-.083.806" transform="translate(-28.052 -18.066)" fill="#263238"/>
              <path id="Trazado_241950" data-name="Trazado 241950" d="M144.314,78.131,114.6,75.087a.405.405,0,0,1,.083-.806L144.4,77.325a.405.405,0,0,1-.083.806" transform="translate(-27.997 -18.605)" fill="#263238"/>
              <path id="Trazado_241951" data-name="Trazado 241951" d="M109.14,84.706l-2.555-.262a.48.48,0,0,1-.428-.526l.262-2.556a.479.479,0,0,1,.526-.428l2.555.262a.479.479,0,0,1,.428.526l-.262,2.556a.479.479,0,0,1-.526.428" transform="translate(-26.097 -20.169)" fill="#64b5f6"/>
              <path id="Rectángulo_45154" data-name="Rectángulo 45154" d="M.626,0H2.9a.627.627,0,0,1,.627.627V2.9a.626.626,0,0,1-.626.626H.626A.626.626,0,0,1,0,2.9V.626A.626.626,0,0,1,.626,0Z" transform="translate(80.011 64.226) rotate(-84.154)" fill="none" stroke="#263238" stroke-linecap="round" stroke-linejoin="round" stroke-width="1"/>
              <path id="Trazado_241952" data-name="Trazado 241952" d="M146.722,86.442l-32.936-3.375a.405.405,0,0,1,.083-.806L146.8,85.635a.405.405,0,0,1-.083.806" transform="translate(-27.805 -20.48)" fill="#263238"/>
              <path id="Trazado_241953" data-name="Trazado 241953" d="M143.262,88.4,113.551,85.36a.405.405,0,0,1,.083-.806L143.345,87.6a.405.405,0,0,1-.083.806" transform="translate(-27.75 -21.019)" fill="#263238"/>
              <path id="Trazado_241954" data-name="Trazado 241954" d="M108.087,94.978l-2.556-.262a.48.48,0,0,1-.428-.526l.262-2.556a.479.479,0,0,1,.526-.428l2.555.262a.48.48,0,0,1,.428.526l-.262,2.556a.479.479,0,0,1-.525.428" transform="translate(-25.849 -22.583)" fill="#64b5f6"/>
              <rect id="Rectángulo_45155" data-name="Rectángulo 45155" width="3.527" height="3.527" rx="0.626" transform="translate(79.206 72.084) rotate(-84.154)" fill="none" stroke="#263238" stroke-linecap="round" stroke-linejoin="round" stroke-width="1"/>
              <path id="Trazado_241955" data-name="Trazado 241955" d="M145.669,96.714l-32.936-3.375a.405.405,0,1,1,.083-.806l32.936,3.375a.405.405,0,0,1-.083.806" transform="translate(-27.557 -22.895)" fill="#263238"/>
              <path id="Trazado_241956" data-name="Trazado 241956" d="M142.209,98.677,112.5,95.633a.405.405,0,0,1,.083-.806l29.711,3.045a.405.405,0,0,1-.083.806" transform="translate(-27.502 -23.434)" fill="#263238"/>
              <path id="Trazado_241957" data-name="Trazado 241957" d="M107.035,105.251l-2.556-.262a.48.48,0,0,1-.428-.526l.262-2.556a.479.479,0,0,1,.526-.428l2.555.262a.479.479,0,0,1,.428.526l-.262,2.556a.479.479,0,0,1-.526.428" transform="translate(-25.602 -24.998)" fill="#64b5f6"/>
              <rect id="Rectángulo_45156" data-name="Rectángulo 45156" width="3.527" height="3.527" rx="0.626" transform="translate(78.401 79.943) rotate(-84.156)" fill="none" stroke="#263238" stroke-linecap="round" stroke-linejoin="round" stroke-width="1"/>
              <path id="Trazado_241958" data-name="Trazado 241958" d="M144.617,106.987l-32.936-3.375a.405.405,0,0,1,.083-.806L144.7,106.18a.405.405,0,0,1-.082.806" transform="translate(-27.31 -25.309)" fill="#263238"/>
              <path id="Trazado_241959" data-name="Trazado 241959" d="M141.156,108.949,111.445,105.9a.405.405,0,1,1,.083-.806l29.711,3.045a.405.405,0,1,1-.083.806" transform="translate(-27.255 -25.848)" fill="#263238"/>
              <rect id="Rectángulo_45157" data-name="Rectángulo 45157" width="10.808" height="1.89" transform="matrix(0.102, -0.995, 0.995, 0.102, 102.658, 139.24)" fill="#fef536"/>
              <rect id="Rectángulo_45158" data-name="Rectángulo 45158" width="10.808" height="1.89" transform="matrix(0.102, -0.995, 0.995, 0.102, 102.658, 139.24)" fill="none" stroke="#263238" stroke-linecap="round" stroke-linejoin="round" stroke-width="1"/>
              <rect id="Rectángulo_45159" data-name="Rectángulo 45159" width="5.088" height="1.891" transform="matrix(0.102, -0.995, 0.995, 0.102, 102.824, 137.62)" fill="#64b5f6"/>
              <rect id="Rectángulo_45160" data-name="Rectángulo 45160" width="5.088" height="1.891" transform="matrix(0.102, -0.995, 0.995, 0.102, 102.824, 137.62)" fill="none" stroke="#263238" stroke-miterlimit="10" stroke-width="1"/>
              <rect id="Rectángulo_45161" data-name="Rectángulo 45161" width="10.808" height="1.89" transform="matrix(0.102, -0.995, 0.995, 0.102, 107.169, 136.96)" fill="#fef536"/>
              <rect id="Rectángulo_45162" data-name="Rectángulo 45162" width="10.808" height="1.89" transform="matrix(0.102, -0.995, 0.995, 0.102, 107.169, 136.96)" fill="none" stroke="#263238" stroke-linecap="round" stroke-linejoin="round" stroke-width="1"/>
              <rect id="Rectángulo_45163" data-name="Rectángulo 45163" width="5.088" height="1.891" transform="matrix(0.102, -0.995, 0.995, 0.102, 107.46, 134.125)" fill="#64b5f6"/>
              <rect id="Rectángulo_45164" data-name="Rectángulo 45164" width="5.088" height="1.891" transform="matrix(0.102, -0.995, 0.995, 0.102, 107.46, 134.125)" fill="none" stroke="#263238" stroke-miterlimit="10" stroke-width="1"/>
              <rect id="Rectángulo_45165" data-name="Rectángulo 45165" width="10.808" height="1.89" transform="matrix(0.102, -0.995, 0.995, 0.102, 111.191, 139.456)" fill="#fef536"/>
              <rect id="Rectángulo_45166" data-name="Rectángulo 45166" width="10.808" height="1.89" transform="matrix(0.102, -0.995, 0.995, 0.102, 111.191, 139.456)" fill="none" stroke="#263238" stroke-linecap="round" stroke-linejoin="round" stroke-width="1"/>
              <rect id="Rectángulo_45167" data-name="Rectángulo 45167" width="5.088" height="1.891" transform="translate(111.606 135.407) rotate(-84.148)" fill="#64b5f6"/>
              <rect id="Rectángulo_45168" data-name="Rectángulo 45168" width="5.088" height="1.891" transform="translate(111.606 135.407) rotate(-84.148)" fill="none" stroke="#263238" stroke-miterlimit="10" stroke-width="1"/>
              <rect id="Rectángulo_45169" data-name="Rectángulo 45169" width="10.808" height="1.891" transform="translate(98.642 136.681) rotate(-84.148)" fill="#fef536"/>
              <rect id="Rectángulo_45170" data-name="Rectángulo 45170" width="10.808" height="1.891" transform="translate(98.642 136.681) rotate(-84.148)" fill="none" stroke="#263238" stroke-linecap="round" stroke-linejoin="round" stroke-width="1"/>
              <rect id="Rectángulo_45171" data-name="Rectángulo 45171" width="5.088" height="1.891" transform="matrix(0.102, -0.995, 0.995, 0.102, 98.808, 135.062)" fill="#64b5f6"/>
              <rect id="Rectángulo_45172" data-name="Rectángulo 45172" width="5.088" height="1.891" transform="matrix(0.102, -0.995, 0.995, 0.102, 98.808, 135.062)" fill="none" stroke="#263238" stroke-miterlimit="10" stroke-width="1"/>
              <rect id="Rectángulo_45173" data-name="Rectángulo 45173" width="10.808" height="1.89" transform="matrix(0.102, -0.995, 0.995, 0.102, 94.082, 139.428)" fill="#fef536"/>
              <rect id="Rectángulo_45174" data-name="Rectángulo 45174" width="10.808" height="1.89" transform="matrix(0.102, -0.995, 0.995, 0.102, 94.082, 139.428)" fill="none" stroke="#263238" stroke-linecap="round" stroke-linejoin="round" stroke-width="1"/>
              <rect id="Rectángulo_45175" data-name="Rectángulo 45175" width="5.088" height="1.891" transform="translate(94.207 138.214) rotate(-84.148)" fill="#64b5f6"/>
              <rect id="Rectángulo_45176" data-name="Rectángulo 45176" width="5.088" height="1.891" transform="translate(94.207 138.214) rotate(-84.148)" fill="none" stroke="#263238" stroke-miterlimit="10" stroke-width="1"/>
              <rect id="Rectángulo_45177" data-name="Rectángulo 45177" width="10.808" height="1.891" transform="translate(90.134 136.219) rotate(-84.148)" fill="#fef536"/>
              <rect id="Rectángulo_45178" data-name="Rectángulo 45178" width="10.808" height="1.891" transform="translate(90.134 136.219) rotate(-84.148)" fill="none" stroke="#263238" stroke-linecap="round" stroke-linejoin="round" stroke-width="1"/>
              <rect id="Rectángulo_45179" data-name="Rectángulo 45179" width="5.088" height="1.891" transform="translate(90.175 135.814) rotate(-84.148)" fill="#64b5f6"/>
              <rect id="Rectángulo_45180" data-name="Rectángulo 45180" width="5.088" height="1.891" transform="translate(90.175 135.814) rotate(-84.148)" fill="none" stroke="#263238" stroke-miterlimit="10" stroke-width="1"/>
              <rect id="Rectángulo_45181" data-name="Rectángulo 45181" width="10.808" height="1.89" transform="matrix(0.102, -0.995, 0.995, 0.102, 85.324, 141.406)" fill="#fef536"/>
              <rect id="Rectángulo_45182" data-name="Rectángulo 45182" width="10.808" height="1.89" transform="matrix(0.102, -0.995, 0.995, 0.102, 85.324, 141.406)" fill="none" stroke="#263238" stroke-linecap="round" stroke-linejoin="round" stroke-width="1"/>
              <rect id="Rectángulo_45183" data-name="Rectángulo 45183" width="5.088" height="1.891" transform="translate(85.366 141.001) rotate(-84.148)" fill="#64b5f6"/>
              <rect id="Rectángulo_45184" data-name="Rectángulo 45184" width="5.088" height="1.891" transform="translate(85.366 141.001) rotate(-84.148)" fill="none" stroke="#263238" stroke-miterlimit="10" stroke-width="1"/>
              <rect id="Rectángulo_45185" data-name="Rectángulo 45185" width="10.808" height="1.89" transform="matrix(0.102, -0.995, 0.995, 0.102, 81.784, 134.202)" fill="#fef536"/>
              <rect id="Rectángulo_45186" data-name="Rectángulo 45186" width="10.808" height="1.89" transform="matrix(0.102, -0.995, 0.995, 0.102, 81.784, 134.202)" fill="none" stroke="#263238" stroke-linecap="round" stroke-linejoin="round" stroke-width="1"/>
              <rect id="Rectángulo_45187" data-name="Rectángulo 45187" width="5.088" height="1.891" transform="translate(81.951 132.582) rotate(-84.148)" fill="#64b5f6"/>
              <rect id="Rectángulo_45188" data-name="Rectángulo 45188" width="5.088" height="1.891" transform="translate(81.951 132.582) rotate(-84.148)" fill="none" stroke="#263238" stroke-miterlimit="10" stroke-width="1"/>
              <rect id="Rectángulo_45189" data-name="Rectángulo 45189" width="10.808" height="1.891" transform="translate(77.615 133.14) rotate(-84.148)" fill="#fef536"/>
              <rect id="Rectángulo_45190" data-name="Rectángulo 45190" width="10.808" height="1.891" transform="translate(77.615 133.14) rotate(-84.148)" fill="none" stroke="#263238" stroke-linecap="round" stroke-linejoin="round" stroke-width="1"/>
              <rect id="Rectángulo_45191" data-name="Rectángulo 45191" width="5.088" height="1.891" transform="translate(78.03 129.091) rotate(-84.148)" fill="#64b5f6"/>
              <rect id="Rectángulo_45192" data-name="Rectángulo 45192" width="5.088" height="1.891" transform="translate(78.03 129.091) rotate(-84.148)" fill="none" stroke="#263238" stroke-miterlimit="10" stroke-width="1"/>
              <rect id="Rectángulo_45193" data-name="Rectángulo 45193" width="10.808" height="1.891" transform="translate(72.691 139.454) rotate(-84.148)" fill="#fef536"/>
              <rect id="Rectángulo_45194" data-name="Rectángulo 45194" width="10.808" height="1.891" transform="translate(72.691 139.454) rotate(-84.148)" fill="none" stroke="#263238" stroke-linecap="round" stroke-linejoin="round" stroke-width="1"/>
              <rect id="Rectángulo_45195" data-name="Rectángulo 45195" width="5.088" height="1.891" transform="matrix(0.102, -0.995, 0.995, 0.102, 73.147, 135)" fill="#64b5f6"/>
              <rect id="Rectángulo_45196" data-name="Rectángulo 45196" width="5.088" height="1.891" transform="matrix(0.102, -0.995, 0.995, 0.102, 73.147, 135)" fill="none" stroke="#263238" stroke-miterlimit="10" stroke-width="1"/>
              <rect id="Rectángulo_45197" data-name="Rectángulo 45197" width="10.808" height="1.891" transform="translate(68.941 134.295) rotate(-84.148)" fill="#fef536"/>
              <rect id="Rectángulo_45198" data-name="Rectángulo 45198" width="10.808" height="1.891" transform="translate(68.941 134.295) rotate(-84.148)" fill="none" stroke="#263238" stroke-linecap="round" stroke-linejoin="round" stroke-width="1"/>
              <rect id="Rectángulo_45199" data-name="Rectángulo 45199" width="5.088" height="1.891" transform="matrix(0.102, -0.995, 0.995, 0.102, 69.149, 132.27)" fill="#64b5f6"/>
              <rect id="Rectángulo_45200" data-name="Rectángulo 45200" width="5.088" height="1.891" transform="matrix(0.102, -0.995, 0.995, 0.102, 69.149, 132.27)" fill="none" stroke="#263238" stroke-miterlimit="10" stroke-width="1"/>
              <rect id="Rectángulo_45201" data-name="Rectángulo 45201" width="10.808" height="1.891" transform="translate(64.421 136.666) rotate(-84.148)" fill="#fef536"/>
              <rect id="Rectángulo_45202" data-name="Rectángulo 45202" width="10.808" height="1.891" transform="translate(64.421 136.666) rotate(-84.148)" fill="none" stroke="#263238" stroke-linecap="round" stroke-linejoin="round" stroke-width="1"/>
              <rect id="Rectángulo_45203" data-name="Rectángulo 45203" width="5.088" height="1.891" transform="matrix(0.102, -0.995, 0.995, 0.102, 64.586, 135.047)" fill="#64b5f6"/>
              <rect id="Rectángulo_45204" data-name="Rectángulo 45204" width="5.088" height="1.891" transform="matrix(0.102, -0.995, 0.995, 0.102, 64.586, 135.047)" fill="none" stroke="#263238" stroke-miterlimit="10" stroke-width="1"/>
              <rect id="Rectángulo_45205" data-name="Rectángulo 45205" width="10.808" height="1.891" transform="translate(59.692 141.06) rotate(-84.148)" fill="#fef536"/>
              <rect id="Rectángulo_45206" data-name="Rectángulo 45206" width="10.808" height="1.891" transform="translate(59.692 141.06) rotate(-84.148)" fill="none" stroke="#263238" stroke-linecap="round" stroke-linejoin="round" stroke-width="1"/>
              <rect id="Rectángulo_45207" data-name="Rectángulo 45207" width="5.088" height="1.891" transform="translate(59.692 141.06) rotate(-84.148)" fill="#64b5f6"/>
              <rect id="Rectángulo_45208" data-name="Rectángulo 45208" width="5.088" height="1.891" transform="translate(59.692 141.06) rotate(-84.148)" fill="none" stroke="#263238" stroke-miterlimit="10" stroke-width="1"/>
              <rect id="Rectángulo_45209" data-name="Rectángulo 45209" width="10.808" height="1.891" transform="translate(56.157 133.817) rotate(-84.148)" fill="#fef536"/>
              <rect id="Rectángulo_45210" data-name="Rectángulo 45210" width="10.808" height="1.891" transform="translate(56.157 133.817) rotate(-84.148)" fill="none" stroke="#263238" stroke-linecap="round" stroke-linejoin="round" stroke-width="1"/>
              <rect id="Rectángulo_45211" data-name="Rectángulo 45211" width="5.088" height="1.891" transform="matrix(0.102, -0.995, 0.995, 0.102, 56.281, 132.602)" fill="#64b5f6"/>
              <rect id="Rectángulo_45212" data-name="Rectángulo 45212" width="5.088" height="1.891" transform="matrix(0.102, -0.995, 0.995, 0.102, 56.281, 132.602)" fill="none" stroke="#263238" stroke-miterlimit="10" stroke-width="1"/>
              <rect id="Rectángulo_45213" data-name="Rectángulo 45213" width="10.808" height="1.891" transform="translate(52.408 128.658) rotate(-84.148)" fill="#fef536"/>
              <rect id="Rectángulo_45214" data-name="Rectángulo 45214" width="10.808" height="1.891" transform="translate(52.408 128.658) rotate(-84.148)" fill="none" stroke="#263238" stroke-linecap="round" stroke-linejoin="round" stroke-width="1"/>
              <rect id="Rectángulo_45215" data-name="Rectángulo 45215" width="5.088" height="1.891" transform="matrix(0.102, -0.995, 0.995, 0.102, 52.532, 127.443)" fill="#64b5f6"/>
              <rect id="Rectángulo_45216" data-name="Rectángulo 45216" width="5.088" height="1.891" transform="matrix(0.102, -0.995, 0.995, 0.102, 52.532, 127.443)" fill="none" stroke="#263238" stroke-miterlimit="10" stroke-width="1"/>
              <rect id="Rectángulo_45217" data-name="Rectángulo 45217" width="10.808" height="1.891" transform="translate(47.591 133.915) rotate(-84.148)" fill="#fef536"/>
              <rect id="Rectángulo_45218" data-name="Rectángulo 45218" width="10.808" height="1.891" transform="translate(47.591 133.915) rotate(-84.148)" fill="none" stroke="#263238" stroke-linecap="round" stroke-linejoin="round" stroke-width="1"/>
              <rect id="Rectángulo_45219" data-name="Rectángulo 45219" width="5.088" height="1.891" transform="translate(48.006 129.865) rotate(-84.148)" fill="#64b5f6"/>
              <rect id="Rectángulo_45220" data-name="Rectángulo 45220" width="5.088" height="1.891" transform="translate(48.006 129.865) rotate(-84.148)" fill="none" stroke="#263238" stroke-miterlimit="10" stroke-width="1"/>
              <rect id="Rectángulo_45221" data-name="Rectángulo 45221" width="10.808" height="1.89" transform="translate(42.735 139.558) rotate(-84.146)" fill="#fef536"/>
              <rect id="Rectángulo_45222" data-name="Rectángulo 45222" width="10.808" height="1.89" transform="translate(42.735 139.558) rotate(-84.146)" fill="none" stroke="#263238" stroke-linecap="round" stroke-linejoin="round" stroke-width="1"/>
              <rect id="Rectángulo_45223" data-name="Rectángulo 45223" width="5.088" height="1.891" transform="translate(43.233 134.699) rotate(-84.148)" fill="#64b5f6"/>
              <rect id="Rectángulo_45224" data-name="Rectángulo 45224" width="5.088" height="1.891" transform="translate(43.233 134.699) rotate(-84.148)" fill="none" stroke="#263238" stroke-miterlimit="10" stroke-width="1"/>
              <rect id="Rectángulo_45225" data-name="Rectángulo 45225" width="10.808" height="1.89" transform="translate(39.124 133.047) rotate(-84.146)" fill="#fef536"/>
              <rect id="Rectángulo_45226" data-name="Rectángulo 45226" width="10.808" height="1.89" transform="translate(39.124 133.047) rotate(-84.146)" fill="none" stroke="#263238" stroke-linecap="round" stroke-linejoin="round" stroke-width="1"/>
              <rect id="Rectángulo_45227" data-name="Rectángulo 45227" width="5.088" height="1.891" transform="translate(39.29 131.427) rotate(-84.146)" fill="#64b5f6"/>
              <rect id="Rectángulo_45228" data-name="Rectángulo 45228" width="5.088" height="1.891" transform="translate(39.29 131.427) rotate(-84.146)" fill="none" stroke="#263238" stroke-miterlimit="10" stroke-width="1"/>
              <rect id="Rectángulo_45229" data-name="Rectángulo 45229" width="10.808" height="1.891" transform="translate(35.074 130.825) rotate(-84.148)" fill="#fef536"/>
              <rect id="Rectángulo_45230" data-name="Rectángulo 45230" width="10.808" height="1.891" transform="translate(35.074 130.825) rotate(-84.148)" fill="none" stroke="#263238" stroke-linecap="round" stroke-linejoin="round" stroke-width="1"/>
              <rect id="Rectángulo_45231" data-name="Rectángulo 45231" width="5.088" height="1.891" transform="translate(35.53 126.37) rotate(-84.146)" fill="#64b5f6"/>
              <rect id="Rectángulo_45232" data-name="Rectángulo 45232" width="5.088" height="1.891" transform="translate(35.53 126.37) rotate(-84.146)" fill="none" stroke="#263238" stroke-miterlimit="10" stroke-width="1"/>
              <rect id="Rectángulo_45233" data-name="Rectángulo 45233" width="10.808" height="1.89" transform="translate(30.497 133.744) rotate(-84.146)" fill="#fef536"/>
              <rect id="Rectángulo_45234" data-name="Rectángulo 45234" width="10.808" height="1.89" transform="translate(30.497 133.744) rotate(-84.146)" fill="none" stroke="#263238" stroke-linecap="round" stroke-linejoin="round" stroke-width="1"/>
              <rect id="Rectángulo_45235" data-name="Rectángulo 45235" width="5.088" height="1.891" transform="translate(30.497 133.744) rotate(-84.148)" fill="#64b5f6"/>
              <rect id="Rectángulo_45236" data-name="Rectángulo 45236" width="5.088" height="1.891" transform="translate(30.497 133.744) rotate(-84.148)" fill="none" stroke="#263238" stroke-miterlimit="10" stroke-width="1"/>
              <rect id="Rectángulo_45237" data-name="Rectángulo 45237" width="10.808" height="1.891" transform="translate(26.607 129.957) rotate(-84.148)" fill="#fef536"/>
              <rect id="Rectángulo_45238" data-name="Rectángulo 45238" width="10.808" height="1.891" transform="translate(26.607 129.957) rotate(-84.148)" fill="none" stroke="#263238" stroke-linecap="round" stroke-linejoin="round" stroke-width="1"/>
              <rect id="Rectángulo_45239" data-name="Rectángulo 45239" width="5.088" height="1.891" transform="translate(26.69 129.147) rotate(-84.148)" fill="#64b5f6"/>
              <rect id="Rectángulo_45240" data-name="Rectángulo 45240" width="5.088" height="1.891" transform="translate(26.69 129.147) rotate(-84.148)" fill="none" stroke="#263238" stroke-miterlimit="10" stroke-width="1"/>
              <rect id="Rectángulo_45241" data-name="Rectángulo 45241" width="10.808" height="1.89" transform="translate(22.225 130.973) rotate(-84.146)" fill="#fef536"/>
              <rect id="Rectángulo_45242" data-name="Rectángulo 45242" width="10.808" height="1.89" transform="translate(22.225 130.973) rotate(-84.146)" fill="none" stroke="#263238" stroke-linecap="round" stroke-linejoin="round" stroke-width="1"/>
              <rect id="Rectángulo_45243" data-name="Rectángulo 45243" width="5.088" height="1.891" transform="translate(22.267 130.568) rotate(-84.148)" fill="#64b5f6"/>
              <rect id="Rectángulo_45244" data-name="Rectángulo 45244" width="5.088" height="1.891" transform="translate(22.267 130.568) rotate(-84.148)" fill="none" stroke="#263238" stroke-miterlimit="10" stroke-width="1"/>
              <rect id="Rectángulo_45245" data-name="Rectángulo 45245" width="10.808" height="1.891" transform="translate(18.133 129.159) rotate(-84.148)" fill="#fef536"/>
              <rect id="Rectángulo_45246" data-name="Rectángulo 45246" width="10.808" height="1.891" transform="translate(18.133 129.159) rotate(-84.148)" fill="none" stroke="#263238" stroke-linecap="round" stroke-linejoin="round" stroke-width="1"/>
              <rect id="Rectángulo_45247" data-name="Rectángulo 45247" width="5.088" height="1.891" transform="translate(18.673 123.895) rotate(-84.148)" fill="#64b5f6"/>
              <rect id="Rectángulo_45248" data-name="Rectángulo 45248" width="5.088" height="1.891" transform="translate(18.673 123.895) rotate(-84.148)" fill="none" stroke="#263238" stroke-miterlimit="10" stroke-width="1"/>
              <path id="Trazado_241960" data-name="Trazado 241960" d="M124.1,198.07l-85.858-8.8a.9.9,0,1,0-.184,1.8l85.858,8.8a.9.9,0,1,0,.184-1.8" transform="translate(-9.901 -45.631)" fill="#263238"/>
              <path id="Trazado_241961" data-name="Trazado 241961" d="M118.937,206.081,19.1,195.851a.9.9,0,0,0-.185,1.8l99.836,10.23a.9.9,0,0,0,.185-1.8" transform="translate(-5.403 -47.177)" fill="#263238"/>
              <path id="Trazado_241962" data-name="Trazado 241962" d="M76.135,210.236l-57.9-5.933a.9.9,0,1,0-.184,1.8l57.9,5.933a.9.9,0,1,0,.184-1.8" transform="translate(-5.199 -49.163)" fill="#263238"/>
              <g id="Grupo_180517" data-name="Grupo 180517" transform="translate(0 70.224)" opacity="0.2">
                <g id="Grupo_180516" data-name="Grupo 180516">
                  <g id="Grupo_180515" data-name="Grupo 180515" clip-path="url(#clip-path-15)">
                    <g id="Grupo_180514" data-name="Grupo 180514" opacity="0.7">
                      <g id="Grupo_180513" data-name="Grupo 180513">
                        <g id="Grupo_180512" data-name="Grupo 180512" clip-path="url(#clip-path-15)">
                          <path id="Trazado_241963" data-name="Trazado 241963" d="M125.165,126.416c-2.96-.237-3.986,4.483-3.986,4.483s-4.682-6.135-3.94-20.562c0,0-2.287-6.4-8.415-2.532s-12.477,17.48-10.962,32.312L85.953,100.575c-4.116.872-12.477,6.4-10.274,33.108l-13-13.739a4.9,4.9,0,0,0-5.508,1.981c-1.989,3.121-1.04,25.412.6,33.751s-2.547,25.091-2.547,25.091S50.75,161.8,42.64,157L11.758,93.3,1.5,193.435l11.574,1.186,18.587-9.047c-.1,4.184-.205,8.031-.51,10.9l92.9,9.516L130.7,141.1c-2.257-8.086-4.414-14.6-5.531-14.687" transform="translate(-1.5 -93.3)"/>
                        </g>
                      </g>
                    </g>
                  </g>
                </g>
              </g>
            </g>
          </g>
          <g id="Grupo_180530" data-name="Grupo 180530">
            <g id="Grupo_180529" data-name="Grupo 180529" clip-path="url(#clip-path-13)">
              <path id="Trazado_241965" data-name="Trazado 241965" d="M141.505,14.053,130.7,119.527l-6.648,64.885L31.15,174.9l-18.076-1.851L1.5,171.859,11.758,71.724,18.957,1.5Z" transform="translate(-0.353 -0.352)" fill="none" stroke="#12263f" stroke-linecap="round" stroke-linejoin="round" stroke-width="3"/>
              <path id="Trazado_241966" data-name="Trazado 241966" d="M148.991,309.393l-54.313,9.241s-9.455-50.22-15.093-58.13S74.98,249.336,72.241,244c-1.652-3.221-9.937-9.226-16.439-15.154h-.008c-.566-.513-1.117-1.025-1.645-1.538-.229-.207-.444-.428-.658-.635-.864-.857-1.668-1.691-2.379-2.509q-.39-.436-.734-.872a12.39,12.39,0,0,1-2.632-4.659,1.183,1.183,0,0,1-.046-.237,1.976,1.976,0,0,1-.046-.283c-.145-1.186-.3-2.54-.451-4.008-.031-.291-.061-.6-.1-.9-.015-.122-.031-.237-.046-.367-.13-1.224-.275-2.524-.444-3.863-.168-1.4-.352-2.853-.566-4.314-.069-.5-.138-1.01-.222-1.522,0-.008,0-.015-.008-.015-.084-.566-.176-1.132-.268-1.706l-.252-1.469c-.015-.084-.038-.161-.046-.229-.107-.574-.214-1.132-.321-1.7a.771.771,0,0,1-.038-.191c-.107-.5-.207-.987-.321-1.484-.237-1.109-.5-2.2-.8-3.251a40.335,40.335,0,0,0-2.027-5.814c-3.917-8.744,1.178-5.584-1.889-28.082,0,0,2.257-5.217,8.69-1.048a17.228,17.228,0,0,1,1.438,1.048H50a18.084,18.084,0,0,1,3.419,3.657,21.126,21.126,0,0,1,2.953,6.089,26.477,26.477,0,0,1,.872,10.939s4.835,16.569,7.382,20.341,13.081-17.893,12.4-20.417a34.107,34.107,0,0,1-.543-3.427c-.046-.375-.092-.773-.145-1.193s-.1-.857-.145-1.308c-.031-.214-.054-.444-.084-.666-.008-.092-.015-.184-.031-.268-.092-.864-.2-1.782-.3-2.731-.023-.268-.054-.52-.084-.78-.046-.451-.092-.918-.138-1.377a1.94,1.94,0,0,1-.023-.229c-.031-.26-.061-.528-.084-.8-.061-.535-.115-1.079-.168-1.622-.054-.467-.092-.933-.138-1.4-.092-.88-.176-1.759-.26-2.609-.061-.635-.122-1.262-.176-1.874-.015-.138-.031-.275-.038-.405-.321-3.366-.574-6.135-.666-7.313,0,0-7.657-11.337-8.445-16.676s-.719-10.962,2.486-13.249c7.589-5.4,5.37,3.3,8.767,6.908,3.4,3.618,8.606,9.509,11.559,11.352,2.723,1.729,5.156,8.445,5.5,9.424-.39-1.469-4.284-15.911-4.368-18.818-.1-3.068-2.44-19.247,1.538-25.053s9.264-1.3,9.753-.153.635,16.822,2.035,21.19,7.26,22.544,7.26,22.544.245-17.686,1.568-25.6,4.758-14.106,8.124-14.458,6.479,3.358,6.479,3.358-1.331,12.622-.949,15.537-.551,13.441,1.048,19.1c0,0-.184-15.078,2.157-17.005s4.353-2.853,5.668-1.553,1.6,10.228,2.937,15.6,1.17,12.668,2.05,21.044,4.345,20,3.657,26.652c-.688,6.632-2.807,23.133-4.513,32.81s-6.059,22.934-6.059,22.934a47.542,47.542,0,0,1,1.6,13.387c-.39,6.311,15.139,48.323,15.139,48.323" transform="translate(-9.368 -24.159)" fill="#fff"/>
              <path id="Trazado_241967" data-name="Trazado 241967" d="M117.98,132.806c1.04,3.231,4.517,14.031,6.248,19.424,0,0-7.592,5.58-7.4,10.765s-1.39,15.654-4.8,15.353-3.1-22.074-4.214-25.732c.692,1.57,1.141,2.85,1.232,3.1-.252-.937-4.309-15.926-4.395-18.895-.021-.7-.161-2.086-.317-3.884l0-.035s7.546-7.224,13.089-2.8v.007a18.562,18.562,0,0,0,.56,2.695" transform="translate(-24.521 -30.241)" fill="#64b5f6"/>
              <path id="Trazado_241968" data-name="Trazado 241968" d="M146.961,138.125c-3.535,3.352-8.868,9.275-9.542,14.992,0,0,1.971,15.951,1.128,22.911l-6.891-21.582s.248-17.688,1.571-25.6c.034-.216.076-.439.118-.655a31.452,31.452,0,0,1,13.835-3.381,61.872,61.872,0,0,0-.3,8.471,46.408,46.408,0,0,1,.083,4.848" transform="translate(-30.943 -29.333)" fill="#64b5f6"/>
              <g id="Grupo_180522" data-name="Grupo 180522" transform="translate(118.521 105.547)" opacity="0.4">
                <g id="Grupo_180521" data-name="Grupo 180521">
                  <g id="Grupo_180520" data-name="Grupo 180520" clip-path="url(#clip-path-18)">
                    <path id="Trazado_241969" data-name="Trazado 241969" d="M155.558,138.469l-.008.007-.021.019c-.081.059-.288.222-.592.478a10.03,10.03,0,0,1,.6-1Z" transform="translate(-154.935 -137.975)" fill="#64b5f6"/>
                  </g>
                </g>
              </g>
              <path id="Trazado_241970" data-name="Trazado 241970" d="M156.678,182.189s-4.543-17.046-4.623-30.769c-.033-5.077.554-9.708,2.2-12.839l.008-.006a10.112,10.112,0,0,1,.6-1l.018.493a12.521,12.521,0,0,1,2.707-1.791c-1.276,1.991-2.747,5.885-1.045,12.212,2.665,9.912.346,22.018.136,33.7" transform="translate(-35.737 -32.03)" fill="#64b5f6"/>
              <path id="Trazado_241971" data-name="Trazado 241971" d="M68.836,224.1S70.057,240.341,57,246.157h-.008c-.567-.513-1.112-1.026-1.644-1.537-.226-.211-.445-.428-.658-.639-.863-.855-1.67-1.693-2.38-2.511-.263-.3-.506-.588-.735-.869a12.379,12.379,0,0,1-2.628-4.659,1.442,1.442,0,0,1-.049-.235,2.26,2.26,0,0,1-.046-.285c-.145-1.184-.295-2.538-.451-4.012-.031-.291-.062-.6-.1-.9-.014-.121-.028-.241-.041-.369-.136-1.225-.282-2.523-.446-3.863-.168-1.4-.353-2.852-.566-4.314l-.223-1.52c0-.007,0-.015-.006-.015-.085-.568-.177-1.138-.269-1.706-.083-.491-.172-.982-.255-1.473-.016-.079-.032-.157-.042-.228-.106-.57-.212-1.132-.325-1.7a1.713,1.713,0,0,1-.037-.193c-.1-.5-.207-.991-.317-1.483-.249-1.106-.513-2.192-.8-3.252,5.164-4.969,17.085-1.852,11.315-13.363,0,0,2.906-9.852-5.1-20.536H51.2c5.48,4.418,8.284,12.178,7.248,20.689,0,0,4.833,16.564,7.382,20.338s13.078-17.893,12.4-20.42c-.131-.5-.323-1.737-.536-3.426-.047-.376-.093-.773-.145-1.192s-.1-.858-.152-1.311c-.029-.213-.05-.44-.079-.659-.008-.093-.017-.184-.033-.269-.094-.872-.194-1.786-.3-2.736-.026-.262-.053-.517-.086-.78-.043-.453-.092-.914-.142-1.375-.009-.07-.011-.148-.021-.226-.027-.262-.06-.532-.084-.807-.059-.539-.11-1.077-.168-1.622-.049-.467-.09-.935-.139-1.4-.087-.878-.174-1.756-.256-2.606-.06-.637-.119-1.268-.181-1.87-.013-.142-.026-.276-.038-.41.213,1.005,4.092,19.467,6.306,23.77,2.269,4.426-7.376,27.739-13.335,23.91" transform="translate(-10.571 -41.463)" fill="#64b5f6"/>
              <path id="Trazado_241972" data-name="Trazado 241972" d="M160.864,248.33c-1.707,9.687-6.053,22.935-6.053,22.935a47.452,47.452,0,0,1,1.593,13.388c-.1,1.7.949,5.984,2.528,11.34-.456-1.176-5.333-13.814-5.252-18.222.093-4.626-1.222-5.9-3.8-11.587s-6.511-5.06-6.511-5.06-1.518,14.182-5.078,4.862-4.246-20.16,4.729-57.8c0,0,1.357,4.722.223,18.745s2.215,18.268,2.215,18.268a130.637,130.637,0,0,0,11.927-27.811s-1.159,16.365-2.193,23.819,3.676-8.637,6.968-18.577c3.092-9.327,3.2-12.875,2.028-19.514.874,4.678,1.53,9.138,1.2,12.4-.689,6.638-2.814,23.134-4.519,32.813" transform="translate(-31.924 -47.739)" fill="#64b5f6"/>
              <g id="Grupo_180528" data-name="Grupo 180528" transform="translate(30.492 132.377)" opacity="0.2">
                <g id="Grupo_180527" data-name="Grupo 180527">
                  <g id="Grupo_180526" data-name="Grupo 180526" clip-path="url(#clip-path-19)">
                    <g id="Grupo_180525" data-name="Grupo 180525" opacity="0.7">
                      <g id="Grupo_180524" data-name="Grupo 180524">
                        <g id="Grupo_180523" data-name="Grupo 180523" clip-path="url(#clip-path-19)">
                          <path id="Trazado_241973" data-name="Trazado 241973" d="M56.368,185.457s-13.548,6.862-14.619,18.336c-3.917-8.744,1.178-5.584-1.889-28.082,0,0,2.257-5.217,8.69-1.048a17.228,17.228,0,0,1,1.438,1.048H50a18.084,18.084,0,0,1,3.419,3.657Z" transform="translate(-39.86 -173.048)" fill="#fef536"/>
                        </g>
                      </g>
                    </g>
                  </g>
                </g>
              </g>
              <path id="Trazado_241974" data-name="Trazado 241974" d="M94.32,319.432a1.148,1.148,0,0,1-1.127-.936c-.094-.5-9.466-50.062-14.9-57.679a33,33,0,0,1-5.478-11.393,27.515,27.515,0,0,0-1.951-5.248c-.99-1.928-5.03-5.313-9.307-8.9-6.931-5.805-14.787-12.384-15.4-17.374-.142-1.163-.288-2.489-.446-3.932-.845-7.7-2.122-19.332-5.367-26.578-2.008-4.483-1.782-6.225-1.406-9.112.4-3.068,1-7.706-.581-19.286a1.145,1.145,0,0,1,.084-.613A6.011,6.011,0,0,1,42,155.276c2-.6,4.294-.076,6.82,1.561,6.8,4.406,10.321,13.051,9.233,22.6,1.664,5.675,5.172,16.7,7.1,19.69,2.718-.959,10.663-16.9,10.391-19.423-.688-2.55-2.644-23.368-3.018-27.866-1.17-1.758-7.7-11.758-8.461-16.9-1.083-7.353-.09-12.179,2.953-14.346,2.413-1.717,4.122-2.262,5.535-1.762,1.761.622,2.306,2.566,2.882,4.625a10.185,10.185,0,0,0,1.848,4.2c.579.615,1.21,1.3,1.873,2.011,3.18,3.43,7.137,7.7,9.457,9.155a6.477,6.477,0,0,1,1.313,1.134,71.767,71.767,0,0,1-1.936-9.528c-.015-.481-.093-1.362-.192-2.479-.523-5.87-1.611-18.086,1.929-23.252,2.118-3.09,4.575-3.537,6.259-3.37a7.555,7.555,0,0,1,5.5,3.412c.236.556.326,1.8.581,6.474.281,5.16.667,12.227,1.5,14.81l5.18,16.113a176.59,176.59,0,0,1,1.415-19c1.446-8.664,5.2-15,9.14-15.413s7.332,3.591,7.475,3.761a1.148,1.148,0,0,1,.262.858c-.366,3.474-1.252,12.988-.957,15.267a30.962,30.962,0,0,1,.109,3.609,4.826,4.826,0,0,1,1.238-2.252c1.174-.966,4.749-3.906,7.2-1.481.984.974,1.349,3.5,1.963,8.265a75.2,75.2,0,0,0,1.285,7.874,71.139,71.139,0,0,1,1.4,12.3c.173,2.839.351,5.776.679,8.9s1.046,6.84,1.74,10.421c1.16,5.987,2.359,12.179,1.916,16.462-.733,7.1-2.863,23.443-4.531,32.9a206.221,206.221,0,0,1-5.981,22.764,47.59,47.59,0,0,1,1.541,13.424c-.305,4.978,10.772,36.231,15.067,47.853a1.148,1.148,0,0,1-2.153.795c-1.6-4.324-15.595-42.421-15.2-48.788a46.636,46.636,0,0,0-1.551-13.006,1.147,1.147,0,0,1,.015-.666c.043-.132,4.334-13.285,6.008-22.775,1.659-9.408,3.778-25.673,4.508-32.737.408-3.945-.759-9.967-1.886-15.791-.7-3.629-1.43-7.382-1.769-10.619-.334-3.177-.513-6.138-.687-9a69.653,69.653,0,0,0-1.336-11.882,77.075,77.075,0,0,1-1.335-8.137c-.343-2.666-.813-6.317-1.314-6.941-.636-.629-2.026-.082-4.115,1.637-1.148.944-1.826,9.091-1.739,16.108a1.147,1.147,0,0,1-2.251.326c-1.116-3.948-1.056-10.035-1.013-14.479a47.71,47.71,0,0,0-.076-4.789c-.351-2.7.648-12.854.9-15.291-.993-1.031-3.163-2.812-5.164-2.607-2.379.248-5.776,5.483-7.115,13.508-1.292,7.74-1.553,25.252-1.555,25.428a1.147,1.147,0,0,1-2.24.335l-7.249-22.548c-.92-2.866-1.3-9.808-1.6-15.387-.132-2.408-.28-5.129-.412-5.716a5.636,5.636,0,0,0-3.771-2.023c-1.492-.088-2.824.721-3.972,2.4-3.074,4.486-2,16.585-1.537,21.751.107,1.2.184,2.065.2,2.615.07,2.406,3.177,14.291,4.367,18.668a1.147,1.147,0,0,1-2.194.668c-.686-2.03-2.932-7.593-5.063-8.931-2.577-1.619-6.649-6.01-9.921-9.538-.659-.711-1.286-1.388-1.861-2a11.988,11.988,0,0,1-2.387-5.152c-.393-1.4-.8-2.855-1.437-3.08-.276-.1-1.167-.151-3.44,1.468-2.251,1.6-2.947,5.8-2.014,12.142.74,5.023,8.186,16.093,8.261,16.205a1.155,1.155,0,0,1,.193.55c.33,4.1,2.345,25.433,2.98,27.8.837,3.11-7.67,20.22-11.71,22.066a2.084,2.084,0,0,1-2.74-.7c-2.624-3.881-7.336-19.974-7.536-20.658a1.137,1.137,0,0,1-.037-.46c1.066-8.767-2.067-16.674-8.176-20.635-1.922-1.246-3.565-1.681-4.884-1.3a3.632,3.632,0,0,0-2,1.595c1.561,11.611.942,16.364.532,19.521-.356,2.738-.519,3.987,1.225,7.878,3.393,7.575,4.693,19.424,5.554,27.265.157,1.433.3,2.749.443,3.9.5,4.091,8.315,10.635,14.594,15.894,4.654,3.9,8.672,7.264,9.875,9.606a29.665,29.665,0,0,1,2.111,5.655,30.655,30.655,0,0,0,5.144,10.7c5.722,8.025,14.9,56.526,15.284,58.588a1.149,1.149,0,0,1-.916,1.34,1.2,1.2,0,0,1-.213.019" transform="translate(-9.014 -23.807)" fill="#12263f"/>
              <path id="Trazado_241975" data-name="Trazado 241975" d="M141.17,188.76a1.131,1.131,0,0,1-.434-.086,8.42,8.42,0,0,1-3.511-3.269c-.8-1.251-2.022-5.356-3.933-11.966-1.163-4.026-2.366-8.189-3.048-9.791a1.148,1.148,0,0,1,2.112-.9c.736,1.73,1.9,5.772,3.141,10.053,1.326,4.591,2.978,10.3,3.659,11.362a6.5,6.5,0,0,0,2.466,2.394,1.149,1.149,0,0,1-.452,2.2" transform="translate(-30.589 -38.086)" fill="#12263f"/>
              <path id="Trazado_241976" data-name="Trazado 241976" d="M157.53,192.024a1.148,1.148,0,0,1-1.056-.7c-1.02-2.4-1.839-6.583-3.632-17.166-1.744-10.29-1.426-13.643-1.411-13.781a1.147,1.147,0,0,1,2.283.233c-.006.068-.271,3.358,1.391,13.164,1.681,9.926,2.537,14.433,3.481,16.651a1.148,1.148,0,0,1-1.056,1.6" transform="translate(-35.583 -37.452)" fill="#12263f"/>
              <path id="Trazado_241977" data-name="Trazado 241977" d="M116.987,187.709a1.174,1.174,0,0,1-.593-.158c-.236-.137-1.483-.983-2.773-4.185a53.727,53.727,0,0,1-1.788-7.593,97.751,97.751,0,0,0-2.765-11.673,1.148,1.148,0,1,1,2.173-.738,99.25,99.25,0,0,1,2.843,11.969,55.219,55.219,0,0,0,1.665,7.177c.991,2.457,1.834,3.081,1.842,3.086a1.123,1.123,0,0,1,.394,1.554,1.146,1.146,0,0,1-1,.561" transform="translate(-25.62 -38.212)" fill="#12263f"/>
              <path id="Trazado_241978" data-name="Trazado 241978" d="M117.582,188.187a1.149,1.149,0,0,1-1.085-.773,8.34,8.34,0,0,0-2.536-3.163,1.147,1.147,0,0,1,1.371-1.841,10.575,10.575,0,0,1,3.335,4.254,1.147,1.147,0,0,1-1.085,1.522" transform="translate(-26.676 -42.819)" fill="#12263f"/>
              <path id="Trazado_241979" data-name="Trazado 241979" d="M77.621,238.625c-5.594,0-6.824-8.289-6.875-8.657a1.147,1.147,0,0,1,2.272-.32c.011.07,1.066,7.163,5.075,6.651a1.148,1.148,0,0,1,.288,2.277,6.245,6.245,0,0,1-.76.048" transform="translate(-16.625 -53.742)" fill="#12263f"/>
              <path id="Trazado_241980" data-name="Trazado 241980" d="M86.955,218.289a1.147,1.147,0,0,1-1.014-1.683c1.666-3.158,1.1-10.7.738-13.339a1.148,1.148,0,0,1,2.274-.311c.057.417,1.368,10.264-.983,14.72a1.147,1.147,0,0,1-1.016.612" transform="translate(-20.167 -47.468)" fill="#12263f"/>
              <path id="Trazado_241981" data-name="Trazado 241981" d="M135.472,244.308a1.147,1.147,0,0,1-1.134-1.329c.166-1.037,4.1-25.462,6.448-31.758,1.942-5.211-.587-6.956-.695-7.027a1.157,1.157,0,0,1-.345-1.58,1.138,1.138,0,0,1,1.558-.368c.176.106,4.265,2.71,1.632,9.776-2.267,6.085-6.293,31.069-6.333,31.319a1.146,1.146,0,0,1-1.131.966" transform="translate(-31.57 -47.494)" fill="#12263f"/>
              <path id="Trazado_241982" data-name="Trazado 241982" d="M153.034,249.762a1.2,1.2,0,0,1-.253-.028,1.149,1.149,0,0,1-.867-1.372c.157-.7,3.87-17.17,6.239-24.1,2.214-6.479,2.189-6.578.851-11.744l-.093-.36a1.147,1.147,0,0,1,2.221-.574l.093.358c1.419,5.483,1.535,5.932-.9,13.062-2.329,6.816-6.134,23.695-6.172,23.865a1.148,1.148,0,0,1-1.118.9" transform="translate(-35.697 -49.525)" fill="#12263f"/>
              <path id="Trazado_241983" data-name="Trazado 241983" d="M159.944,290.421a1.147,1.147,0,0,1-1.028-.637c-.1-.209-2.51-5.165-.395-9.41a1.147,1.147,0,1,1,2.054,1.024c-1.6,3.214.378,7.328.4,7.37a1.148,1.148,0,0,1-1.03,1.654" transform="translate(-37.053 -65.747)" fill="#12263f"/>
              <path id="Trazado_241984" data-name="Trazado 241984" d="M99.712,326.922a1.148,1.148,0,0,1-1.105-.842,62.18,62.18,0,0,0-8.1-16.808,1.148,1.148,0,1,1,1.87-1.331,63.506,63.506,0,0,1,8.447,17.529,1.149,1.149,0,0,1-1.107,1.453" transform="translate(-21.221 -72.262)" fill="#12263f"/>
              <path id="Trazado_241985" data-name="Trazado 241985" d="M147.271,122.794l1.557-1.541.708-.2-.047.763-1.435,1.826Z" transform="translate(-34.613 -28.451)" fill="#fef536"/>
              <path id="Trazado_241986" data-name="Trazado 241986" d="M147.271,122.794l1.557-1.541.708-.2-.047.763-1.435,1.826Z" transform="translate(-34.613 -28.451)" fill="none" stroke="#263238" stroke-linecap="round" stroke-linejoin="round" stroke-width="1"/>
              <path id="Trazado_241987" data-name="Trazado 241987" d="M124.837,124.026l-2.535,5.757L54.066,220.764l-7.6-4.845,10.318-12.945L118.072,126.1l5.405-3.435a1.922,1.922,0,0,1,1.359,1.365" transform="translate(-10.921 -28.829)" fill="#64b5f6"/>
            </g>
          </g>
          <g id="Grupo_180538" data-name="Grupo 180538" transform="translate(35.545 93.832)">
            <g id="Grupo_180537" data-name="Grupo 180537" clip-path="url(#clip-path-21)">
              <g id="Grupo_180536" data-name="Grupo 180536" transform="translate(0 0.001)" opacity="0.3">
                <g id="Grupo_180535" data-name="Grupo 180535">
                  <g id="Grupo_180534" data-name="Grupo 180534" clip-path="url(#clip-path-22)">
                    <g id="Grupo_180533" data-name="Grupo 180533" opacity="0.7">
                      <g id="Grupo_180532" data-name="Grupo 180532">
                        <g id="Grupo_180531" data-name="Grupo 180531" clip-path="url(#clip-path-22)">
                          <path id="Trazado_241988" data-name="Trazado 241988" d="M124.837,124.026l-2.535,5.757L54.066,220.764l-7.6-4.845,10.318-12.945c4.74-.49,5.532,2.31,5.532,2.31L121.1,128.555c-.578-2.063-3.031-2.459-3.031-2.459l5.405-3.435a1.922,1.922,0,0,1,1.359,1.365" transform="translate(-46.466 -122.662)" fill="#5c22c3"/>
                        </g>
                      </g>
                    </g>
                  </g>
                </g>
              </g>
            </g>
          </g>
          <g id="Grupo_180540" data-name="Grupo 180540">
            <g id="Grupo_180539" data-name="Grupo 180539" clip-path="url(#clip-path-13)">
              <path id="Trazado_241990" data-name="Trazado 241990" d="M124.837,124.026l-2.535,5.757L54.066,220.764l-7.6-4.845,10.318-12.945L118.072,126.1l5.405-3.435A1.922,1.922,0,0,1,124.837,124.026Z" transform="translate(-10.921 -28.829)" fill="none" stroke="#263238" stroke-linecap="round" stroke-linejoin="round" stroke-width="1"/>
              <path id="Trazado_241991" data-name="Trazado 241991" d="M72.254,215.4s-7.615,15.117-14.944,25.81l-5.235,1.354S40.066,254.5,32.74,260.457a16.431,16.431,0,0,1-3.582-3.007s10.4-19.979,21.915-32.626a14.707,14.707,0,0,1,3.777,2.006,18.545,18.545,0,0,1,3.942,3.783l12.83-16.142Z" transform="translate(-6.853 -50.407)" fill="#64b5f6"/>
            </g>
          </g>
          <g id="Grupo_180548" data-name="Grupo 180548" transform="translate(22.305 164.063)">
            <g id="Grupo_180547" data-name="Grupo 180547" clip-path="url(#clip-path-25)">
              <g id="Grupo_180546" data-name="Grupo 180546" transform="translate(3.582 0.001)" opacity="0.3">
                <g id="Grupo_180545" data-name="Grupo 180545">
                  <g id="Grupo_180544" data-name="Grupo 180544" clip-path="url(#clip-path-26)">
                    <g id="Grupo_180543" data-name="Grupo 180543" opacity="0.7">
                      <g id="Grupo_180542" data-name="Grupo 180542">
                        <g id="Grupo_180541" data-name="Grupo 180541" clip-path="url(#clip-path-26)">
                          <path id="Trazado_241992" data-name="Trazado 241992" d="M73.355,215.4s-7.615,15.117-14.944,25.81l-5.235,1.354S41.167,254.5,33.84,260.457l.2-3.24c7.946-12.141,18.043-25.381,21.911-30.388a18.545,18.545,0,0,1,3.942,3.783l-7.13,9.515,4.085-.735,15.875-24.922Z" transform="translate(-33.84 -214.471)" fill="#5c22c3"/>
                        </g>
                      </g>
                    </g>
                  </g>
                </g>
              </g>
            </g>
          </g>
          <g id="Grupo_180553" data-name="Grupo 180553">
            <g id="Grupo_180552" data-name="Grupo 180552" clip-path="url(#clip-path-13)">
              <path id="Trazado_241994" data-name="Trazado 241994" d="M72.254,215.4s-7.615,15.117-14.944,25.81l-5.235,1.354S40.066,254.5,32.74,260.457a16.431,16.431,0,0,1-3.582-3.007s10.4-19.979,21.915-32.626a14.707,14.707,0,0,1,3.777,2.006,18.545,18.545,0,0,1,3.942,3.783l12.83-16.142Z" transform="translate(-6.853 -50.407)" fill="none" stroke="#263238" stroke-linecap="round" stroke-linejoin="round" stroke-width="1"/>
              <path id="Trazado_241995" data-name="Trazado 241995" d="M108.483,177.837,87.168,198.5l-3.406,3.3c2.332-6,1.2-15.264,1.056-16.393V185.4c-.011-.064-.015-.1-.015-.1a.988.988,0,0,0-.018-.163c-.131-.5-.323-1.737-.535-3.426-.047-.376-.093-.773-.145-1.192s-.1-.858-.152-1.311c-.029-.213-.05-.44-.079-.659-.008-.092-.017-.184-.033-.269-.095-.865-.2-1.786-.3-2.736-.026-.262-.053-.517-.086-.78-.043-.453-.092-.913-.141-1.374-.01-.071-.012-.149-.021-.227-.026-.262-.059-.532-.084-.807-.059-.539-.11-1.077-.168-1.622-.049-.467-.09-.935-.139-1.4-.086-.878-.174-1.756-.256-2.606q-.1-.956-.181-1.869c-.012-.142-.025-.276-.038-.411-.322-3.364-.574-6.131-.664-7.312,0,0-7.652-11.338-8.444-16.679s-.721-10.962,2.488-13.242c7.589-5.405,5.366,3.3,8.762,6.908s8.61,9.5,11.559,11.352,5.538,9.54,5.538,9.54c2.123,6.247,3.321,16.2,4.53,19.205s2.284,3.618,2.284,3.618" transform="translate(-17.135 -29.494)" fill="#fff"/>
              <path id="Trazado_241996" data-name="Trazado 241996" d="M117.582,188.187a1.149,1.149,0,0,1-1.085-.773,8.34,8.34,0,0,0-2.536-3.163,1.147,1.147,0,0,1,1.371-1.841,10.575,10.575,0,0,1,3.335,4.254,1.147,1.147,0,0,1-1.085,1.522" transform="translate(-26.676 -42.819)" fill="#12263f"/>
              <path id="Trazado_241997" data-name="Trazado 241997" d="M84.571,134.122c3.383,3.608,8.577,9.466,11.531,11.336-.417-.208-5.85-2.858-8.889.088-3.159,3.073-5.448,11.59-5.448,11.59s-7.653-11.338-8.444-16.679-.721-10.962,2.488-13.242c7.589-5.405,5.366,3.3,8.762,6.908" transform="translate(-17.135 -29.494)" fill="#64b5f6"/>
              <g id="Grupo_180551" data-name="Grupo 180551" transform="translate(65.295 134.955)" opacity="0.4">
                <g id="Grupo_180550" data-name="Grupo 180550">
                  <g id="Grupo_180549" data-name="Grupo 180549" clip-path="url(#clip-path-29)">
                    <path id="Trazado_241998" data-name="Trazado 241998" d="M90.094,210.475l-3.406,3.3c2.332-6,1.2-15.264,1.055-16.393v-.015a1.111,1.111,0,0,0-.033-.262c-.131-.5-.323-1.737-.536-3.426-.047-.376-.093-.773-.145-1.191s-.1-.858-.152-1.312c-.029-.213-.05-.439-.079-.659-.008-.092-.017-.184-.033-.269-.094-.872-.193-1.786-.3-2.736-.026-.262-.053-.517-.086-.78-.043-.453-.092-.913-.141-1.374-.01-.071-.012-.149-.021-.227-.027-.262-.059-.531-.084-.807-.059-.539-.11-1.077-.168-1.622-.049-.467-.09-.935-.139-1.4-.087-.878-.174-1.756-.255-2.606-.06-.637-.119-1.267-.181-1.869-.013-.142-.025-.276-.038-.411.213,1.005,4.092,19.467,6.306,23.77.836,1.629.057,5.825-1.567,10.287" transform="translate(-85.356 -176.418)" fill="#64b5f6"/>
                  </g>
                </g>
              </g>
              <path id="Trazado_241999" data-name="Trazado 241999" d="M84.433,185.931a1.147,1.147,0,0,1-1.108-.849c-.7-2.592-2.652-23.411-3.027-27.909-1.17-1.758-7.7-11.758-8.46-16.9-1.083-7.353-.09-12.179,2.953-14.345,2.413-1.718,4.122-2.262,5.535-1.763,1.761.622,2.306,2.566,2.882,4.625a10.193,10.193,0,0,0,1.848,4.2c.579.614,1.21,1.3,1.873,2.011,3.18,3.429,7.137,7.7,9.457,9.154,3.2,2.011,5.74,9.316,6.019,10.142a99.254,99.254,0,0,1,2.843,11.967,55.22,55.22,0,0,0,1.665,7.177,7.481,7.481,0,0,0,1.842,3.086,1.122,1.122,0,0,1,.394,1.553,1.169,1.169,0,0,1-1.592.4c-.236-.137-1.483-.983-2.773-4.185A53.847,53.847,0,0,1,103,166.7a97.77,97.77,0,0,0-2.765-11.672c-.687-2.033-2.933-7.6-5.064-8.934-2.578-1.618-6.649-6.01-9.921-9.538-.659-.711-1.286-1.387-1.861-2A11.983,11.983,0,0,1,81,129.405c-.393-1.4-.8-2.855-1.437-3.08-.276-.1-1.167-.151-3.44,1.468-2.251,1.6-2.947,5.8-2.014,12.142.74,5.02,8.186,16.094,8.261,16.205a1.155,1.155,0,0,1,.193.55c.33,4.1,2.345,25.433,2.98,27.8a1.149,1.149,0,0,1-1.109,1.446" transform="translate(-16.784 -29.14)" fill="#12263f"/>
              <path id="Trazado_242000" data-name="Trazado 242000" d="M86.955,218.289a1.147,1.147,0,0,1-1.014-1.683c1.666-3.158,1.1-10.7.738-13.339a1.148,1.148,0,0,1,2.274-.311c.057.417,1.368,10.264-.983,14.72a1.147,1.147,0,0,1-1.016.612" transform="translate(-20.167 -47.468)" fill="#12263f"/>
            </g>
          </g>
        </g>
      </g>
      <g id="Grupo_180558" data-name="Grupo 180558" transform="translate(887.924 10008.309) rotate(16)">
        <path id="Trazado_241138" data-name="Trazado 241138" d="M-6666.481-10769a1.679,1.679,0,0,0-.368.039l-16.425,3.521a1.755,1.755,0,0,0-1.27,1.075,1.757,1.757,0,0,0,.2,1.654l16.425,23.464a1.761,1.761,0,0,0,1.971.67,1.762,1.762,0,0,0,1.23-1.679v-26.984a1.76,1.76,0,0,0-.653-1.368A1.754,1.754,0,0,0-6666.481-10769Zm-13.462,6.444,11.7-2.506v19.223Z" transform="translate(6739.222 10801.852)" fill="#12263f"/>
        <path id="Trazado_241138-2" data-name="Trazado 241138" d="M-6666.481-10769a1.679,1.679,0,0,0-.368.039l-16.425,3.521a1.755,1.755,0,0,0-1.27,1.075,1.757,1.757,0,0,0,.2,1.654l16.425,23.464a1.761,1.761,0,0,0,1.971.67,1.762,1.762,0,0,0,1.23-1.679v-26.984a1.76,1.76,0,0,0-.653-1.368A1.754,1.754,0,0,0-6666.481-10769Zm-13.462,6.444,11.7-2.506v19.223Z" transform="translate(6711.064 10786.598)" fill="#12263f"/>
        <path id="Trazado_241138-3" data-name="Trazado 241138" d="M-6666.481-10769a1.679,1.679,0,0,0-.368.039l-16.425,3.521a1.755,1.755,0,0,0-1.27,1.075,1.757,1.757,0,0,0,.2,1.654l16.425,23.464a1.761,1.761,0,0,0,1.971.67,1.762,1.762,0,0,0,1.23-1.679v-26.984a1.76,1.76,0,0,0-.653-1.368A1.754,1.754,0,0,0-6666.481-10769Zm-13.462,6.444,11.7-2.506v19.223Z" transform="translate(6684.667 10769)" fill="#12263f"/>
      </g>
      <g id="Grupo_80276" data-name="Grupo 80276" transform="matrix(0.966, 0.259, -0.259, 0.966, 788.249, 9525.092)">
        <path id="Trazado_115035" data-name="Trazado 115035" d="M54.338,24.888c.853.49,1,.669-.026,2.875-.8,1.718-2.268,4.9,1.279,6.944,2.77,1.6,6.208,1.065,9.542.55,2.917-.448,5.676-.872,7.477.169a1.58,1.58,0,0,0,1.669-2.683c-.028-.017-.057-.034-.087-.05-2.771-1.6-6.209-1.065-9.542-.55-2.918.448-5.676.872-7.477-.168-.852-.491-1-.67.026-2.876.8-1.718,2.268-4.9-1.279-6.944-2.757-1.6-6.208-1.065-9.542-.559-2.917.447-5.684.872-7.485-.168-.852-.49-1-.669.026-2.875.795-1.718,2.267-4.9-1.26-6.944-2.771-1.6-6.218-1.066-9.551-.55-2.917.448-5.675.871-7.477-.16-.852-.49-1-.675.026-2.884.8-1.718,2.268-4.9-1.259-6.944A8.969,8.969,0,0,0,14.81.006,33.257,33.257,0,0,0,9.844.521C6.926.969,4.167,1.393,2.367.362A1.58,1.58,0,1,0,.794,3.1c2.771,1.59,6.209,1.066,9.534.55,2.918-.448,5.685-.88,7.485.168.853.49,1,.676-.026,2.884-.794,1.718-2.267,4.9,1.279,6.952,2.771,1.59,6.209,1.065,9.534.55,2.918-.447,5.684-.881,7.485.168.852.49,1,.669-.026,2.875-.8,1.718-2.268,4.9,1.259,6.945,2.771,1.6,6.209,1.066,9.543.558,2.918-.448,5.675-.871,7.477.168Z" transform="translate(-13.803 0.241)" fill="#393939"/>
        <path id="Trazado_115036" data-name="Trazado 115036" d="M37.318,24.162c2.77,1.6,6.208,1.066,9.543.558,2.917-.447,5.675-.872,7.477.169.853.49,1,.669-.026,2.875-.795,1.718-2.268,4.9,1.279,6.944,2.771,1.6,6.209,1.065,9.543.558,2.918-.448,5.676-.872,7.477.169A1.579,1.579,0,0,0,74.191,32.7c-2.771-1.6-6.209-1.066-9.542-.559-2.919.447-5.676.872-7.477-.168-.852-.49-1-.669.026-2.876.795-1.718,2.268-4.9-1.279-6.944-2.758-1.6-6.209-1.065-9.542-.558-2.919.448-5.685.871-7.486-.168-.852-.49-1-.67.026-2.875.795-1.718,2.268-4.9-1.259-6.944-2.771-1.6-6.218-1.066-9.551-.55-2.919.448-5.676.872-7.477-.16-.853-.49-1-.675.026-2.884.8-1.718,2.268-4.9-1.259-6.944A8.963,8.963,0,0,0,14.81.006,33.578,33.578,0,0,0,9.844.522C6.926.97,4.168,1.394,2.367.362A1.58,1.58,0,0,0,.794,3.1C3.565,4.693,7,4.169,10.328,3.653c2.918-.447,5.684-.871,7.485.169.853.49,1,.678-.026,2.884-.8,1.718-2.268,4.9,1.279,6.944,2.771,1.59,6.208,1.066,9.534.55,2.917-.448,5.684-.872,7.485.168.853.49,1,.669-.026,2.875-.8,1.718-2.268,4.9,1.259,6.944Z" transform="translate(-7.437 27.278)" fill="#ba68c8"/>
      </g>
      <g id="Grupo_180559" data-name="Grupo 180559" transform="translate(921.441 9561.604)">
        <ellipse id="Elipse_4783" data-name="Elipse 4783" cx="15" cy="16" rx="15" ry="16" transform="translate(1.559 1.396)" fill="#12263f"/>
        <g id="Elipse_4784" data-name="Elipse 4784" transform="translate(-0.441 0.396)" fill="#fff" stroke="#12263f" stroke-width="3">
          <ellipse cx="14" cy="13.5" rx="14" ry="13.5" stroke="none"/>
          <ellipse cx="14" cy="13.5" rx="12.5" ry="12" fill="none"/>
        </g>
      </g>
      <g id="Elipse_4933" data-name="Elipse 4933" transform="translate(953 9538)" fill="#fff" stroke="#12263f" stroke-width="3">
        <circle cx="10.5" cy="10.5" r="10.5" stroke="none"/>
        <circle cx="10.5" cy="10.5" r="9" fill="none"/>
      </g>
      <path id="Trazado_115027" data-name="Trazado 115027" d="M3034.561,3297.294l-4.523-1.071a.938.938,0,0,1-.715-1.131.973.973,0,0,1,.715-.692l4.523-1.071a4.95,4.95,0,0,0,3.69-3.57l1.106-4.376a.985.985,0,0,1,1.191-.689.965.965,0,0,1,.712.689l1.107,4.376a4.951,4.951,0,0,0,3.689,3.57l4.523,1.071a.938.938,0,0,1,.715,1.132.973.973,0,0,1-.715.692l-4.523,1.071a4.951,4.951,0,0,0-3.689,3.57l-1.107,4.377a.982.982,0,0,1-1.19.689.966.966,0,0,1-.713-.689l-1.106-4.377A4.951,4.951,0,0,0,3034.561,3297.294Z" transform="translate(-2203.247 6338.037)" fill="#12263f"/>
      <path id="Trazado_115027-2" data-name="Trazado 115027" d="M3034.561,3297.294l-4.523-1.071a.938.938,0,0,1-.715-1.131.973.973,0,0,1,.715-.692l4.523-1.071a4.95,4.95,0,0,0,3.69-3.57l1.106-4.376a.985.985,0,0,1,1.191-.689.965.965,0,0,1,.712.689l1.107,4.376a4.951,4.951,0,0,0,3.689,3.57l4.523,1.071a.938.938,0,0,1,.715,1.132.973.973,0,0,1-.715.692l-4.523,1.071a4.951,4.951,0,0,0-3.689,3.57l-1.107,4.377a.982.982,0,0,1-1.19.689.966.966,0,0,1-.713-.689l-1.106-4.377A4.951,4.951,0,0,0,3034.561,3297.294Z" transform="translate(-2241.323 6693.459)" fill="#12263f"/>
      <path id="Trazado_115027-3" data-name="Trazado 115027" d="M3036.834,3302.746l-6.475-1.534a1.342,1.342,0,0,1-1.024-1.62,1.393,1.393,0,0,1,1.024-.991l6.475-1.534a7.087,7.087,0,0,0,5.283-5.111l1.584-6.265a1.41,1.41,0,0,1,1.705-.987,1.381,1.381,0,0,1,1.02.987l1.585,6.265a7.088,7.088,0,0,0,5.282,5.111l6.476,1.534a1.342,1.342,0,0,1,1.024,1.621,1.393,1.393,0,0,1-1.024.99l-6.476,1.534a7.089,7.089,0,0,0-5.282,5.111l-1.585,6.266a1.4,1.4,0,0,1-1.7.987,1.383,1.383,0,0,1-1.021-.987l-1.584-6.266A7.088,7.088,0,0,0,3036.834,3302.746Z" transform="translate(-2181.22 6363.817)" fill="#12263f"/>
      <path id="Trazado_115027-4" data-name="Trazado 115027" d="M3036.834,3302.746l-6.475-1.534a1.342,1.342,0,0,1-1.024-1.62,1.393,1.393,0,0,1,1.024-.991l6.475-1.534a7.087,7.087,0,0,0,5.283-5.111l1.584-6.265a1.41,1.41,0,0,1,1.705-.987,1.381,1.381,0,0,1,1.02.987l1.585,6.265a7.088,7.088,0,0,0,5.282,5.111l6.476,1.534a1.342,1.342,0,0,1,1.024,1.621,1.393,1.393,0,0,1-1.024.99l-6.476,1.534a7.089,7.089,0,0,0-5.282,5.111l-1.585,6.266a1.4,1.4,0,0,1-1.7.987,1.383,1.383,0,0,1-1.021-.987l-1.584-6.266A7.088,7.088,0,0,0,3036.834,3302.746Z" transform="translate(-2270.831 6717.239)" fill="#12263f"/>
      <g id="Grupo_180561" data-name="Grupo 180561" transform="translate(730.79 9609.057)">
        <g id="Grupo_180560" data-name="Grupo 180560" transform="translate(0 0)" clip-path="url(#clip-path-30)">
          <path id="Trazado_242002" data-name="Trazado 242002" d="M42.778,29.06,37.908,5.934a7.471,7.471,0,0,0-8.85-5.77L5.931,5.035a7.478,7.478,0,0,0-5.77,8.848L5.032,37.01A7.453,7.453,0,0,0,13.88,42.78L37.008,37.91a7.479,7.479,0,0,0,5.77-8.85m-6.471,5.522L13.18,39.453a4.071,4.071,0,0,1-4.821-3.144L3.489,13.182A4.07,4.07,0,0,1,6.632,8.361L29.76,3.491a4.14,4.14,0,0,1,.847-.088A4.073,4.073,0,0,1,34.58,6.634l4.87,23.128a4.074,4.074,0,0,1-3.143,4.821" transform="translate(0 0)" fill="#12263f"/>
          <path id="Trazado_242003" data-name="Trazado 242003" d="M26.635,16.828l-5.354,1.128L20.153,12.6a1.7,1.7,0,1,0-3.327.7l1.128,5.353L12.6,19.784a1.7,1.7,0,1,0,.7,3.327l5.354-1.127,1.128,5.353a1.7,1.7,0,1,0,3.327-.7l-1.128-5.354,5.354-1.127a1.7,1.7,0,1,0-.7-3.328" transform="translate(1.501 1.502)" fill="#12263f"/>
        </g>
      </g>
      <g id="Grupo_180564" data-name="Grupo 180564" transform="translate(829.075 9927.589)">
        <g id="Grupo_180563" data-name="Grupo 180563" transform="translate(0 0)" clip-path="url(#clip-path-31)">
          <path id="Trazado_242004" data-name="Trazado 242004" d="M33.722,50.533a8.384,8.384,0,0,1-2.642-.428l-25.3-8.383A8.422,8.422,0,0,1,.432,31.078l8.381-25.3A8.432,8.432,0,0,1,19.458.428l25.3,8.383a8.434,8.434,0,0,1,5.348,10.645l-8.383,25.3a8.44,8.44,0,0,1-8,5.776m-1.437-4.069a4.6,4.6,0,0,0,5.8-2.913l8.381-25.3a4.6,4.6,0,0,0-2.913-5.8l-25.3-8.383a4.594,4.594,0,0,0-5.8,2.913l-8.381,25.3a4.589,4.589,0,0,0,2.913,5.8Z" transform="translate(0 0)" fill="#12263f"/>
          <path id="Trazado_242005" data-name="Trazado 242005" d="M12.272,28.292a1.918,1.918,0,0,1-.862-3.631L31.646,14.494a1.918,1.918,0,0,1,1.722,3.428L13.131,28.088a1.909,1.909,0,0,1-.859.2" transform="translate(2.88 3.976)" fill="#12263f"/>
          <path id="Trazado_242006" data-name="Trazado 242006" d="M17.667,19.284a4.741,4.741,0,1,1,4.228-6.869h0a4.741,4.741,0,0,1-4.228,6.868m-.01-5.646a.906.906,0,1,0,.812.5.9.9,0,0,0-.812-.5" transform="translate(3.594 2.728)" fill="#12263f"/>
          <path id="Trazado_242007" data-name="Trazado 242007" d="M23.948,31.8a4.759,4.759,0,0,1-1.5-.244,4.741,4.741,0,1,1,5.728-6.628h0a4.746,4.746,0,0,1-4.232,6.87m-.008-5.65a.906.906,0,0,0-.282,1.767.917.917,0,0,0,.693-.05.907.907,0,0,0-.123-1.671.935.935,0,0,0-.288-.046" transform="translate(5.343 6.208)" fill="#12263f"/>
        </g>
      </g>
      <g id="Grupo_180566" data-name="Grupo 180566" transform="translate(915 9622.7)">
        <g id="Grupo_180565" data-name="Grupo 180565" transform="translate(0 0)" clip-path="url(#clip-path-32)">
          <path id="Trazado_242008" data-name="Trazado 242008" d="M33.1,42.5q-.23,0-.464-.014L7.5,41.035a7.966,7.966,0,0,1-7.485-8.4L1.465,7.5A7.955,7.955,0,0,1,9.867.014L35,1.466a7.966,7.966,0,0,1,7.486,8.4L41.035,35A7.968,7.968,0,0,1,33.1,42.5M9.4,3.622A4.336,4.336,0,0,0,5.081,7.708L3.629,32.842a4.34,4.34,0,0,0,4.077,4.578l25.135,1.45a4.333,4.333,0,0,0,4.577-4.079L38.871,9.658a4.336,4.336,0,0,0-4.079-4.577L9.658,3.629c-.086,0-.171-.007-.256-.007" transform="translate(0 0)" fill="#12263f"/>
          <path id="Trazado_242009" data-name="Trazado 242009" d="M26.849,20.239c-.035,0-.071,0-.106,0l-15.253-.88a1.811,1.811,0,0,1,.209-3.616l15.253.881a1.811,1.811,0,0,1-.1,3.619" transform="translate(2.029 3.263)" fill="#12263f"/>
        </g>
      </g>
    </g>
  </g>
</svg>
