<svg xmlns="http://www.w3.org/2000/svg" xmlns:xlink="http://www.w3.org/1999/xlink" width="610" height="392.789" viewBox="0 0 610 392.789">
  <defs>
    <clipPath id="clip-path">
      <rect id="Rectángulo_45133" data-name="Rectángulo 45133" width="206.667" height="213.433" fill="none"/>
    </clipPath>
  </defs>
  <g id="Grupo_187270" data-name="Grupo 187270" transform="translate(6576 2495)">
    <g id="Grupo_180471" data-name="Grupo 180471" transform="translate(-6444 -3377.001)">
      <path id="Rectángulo_33876" data-name="Rectángulo 33876" d="M20,0H610a0,0,0,0,1,0,0V372.789a20,20,0,0,1-20,20H0a0,0,0,0,1,0,0V20A20,20,0,0,1,20,0Z" transform="translate(-132 882.001)" fill="#64b5f6"/>
    </g>
    <circle id="Elipse_4931" data-name="Elipse 4931" cx="157" cy="157" r="157" transform="translate(-6428 -2456)" fill="#fff"/>
    <g id="Grupo_180477" data-name="Grupo 180477" transform="translate(-6378.919 -2405.717)">
      <g id="Grupo_180476" data-name="Grupo 180476" clip-path="url(#clip-path)">
        <path id="Trazado_241799" data-name="Trazado 241799" d="M32.536,279.335l3.085-6.884v-18.7a29.394,29.394,0,0,1,5.717-17.417l20.2-27.456L84.612,193.5,90.5,245.728l-3.86,29.119L68.507,294.6Z" transform="translate(-18.324 -108.979)" fill="#d9af8a"/>
        <path id="Trazado_241800" data-name="Trazado 241800" d="M66.918,293.454l-37.706-16,3.445-7.687V251.3a30.281,30.281,0,0,1,5.929-18.063L58.9,205.628l24.728-16.485,6.1,54.144L85.8,272.88Zm-34.8-17.14,34.236,14.527L83.727,271.91l3.8-28.645-5.669-50.318L60.428,207.232l-20.083,27.3a28.108,28.108,0,0,0-5.5,16.769v18.929Z" transform="translate(-16.452 -106.526)" fill="#12263f"/>
        <path id="Trazado_241801" data-name="Trazado 241801" d="M240.489,93.911H105.826A15.839,15.839,0,0,0,90.033,109.7v92.175a15.839,15.839,0,0,0,15.793,15.791H240.489a15.839,15.839,0,0,0,15.793-15.791V109.7a15.839,15.839,0,0,0-15.793-15.791" transform="translate(-50.707 -52.891)" fill="#eff0f0"/>
        <path id="Trazado_241802" data-name="Trazado 241802" d="M239.081,217.352H104.418a16.9,16.9,0,0,1-16.884-16.883V108.294a16.9,16.9,0,0,1,16.884-16.883H239.081a16.9,16.9,0,0,1,16.885,16.883v92.175a16.9,16.9,0,0,1-16.885,16.883M104.418,93.595a14.716,14.716,0,0,0-14.7,14.7v92.175a14.716,14.716,0,0,0,14.7,14.7H239.081a14.717,14.717,0,0,0,14.7-14.7V108.294a14.717,14.717,0,0,0-14.7-14.7Z" transform="translate(-49.3 -51.483)" fill="#12263f"/>
        <path id="Trazado_241803" data-name="Trazado 241803" d="M119.119,120.422h-1v100.6H254.7v-100.6Z" transform="translate(-66.527 -67.822)" fill="#ced0d1"/>
        <path id="Trazado_241804" data-name="Trazado 241804" d="M254.382,220.7H115.621V117.921H254.382ZM117.8,218.519H252.2V120.1H117.8Z" transform="translate(-65.118 -66.414)" fill="#12263f"/>
        <path id="Trazado_241805" data-name="Trazado 241805" d="M449.151,229.833a4.454,4.454,0,1,1-4.453-4.453,4.453,4.453,0,0,1,4.453,4.453" transform="translate(-247.947 -126.935)" fill="#cfd6da"/>
        <path id="Trazado_241806" data-name="Trazado 241806" d="M443.289,233.971a5.546,5.546,0,1,1,5.545-5.546,5.553,5.553,0,0,1-5.545,5.546m0-8.908a3.362,3.362,0,1,0,3.361,3.361,3.366,3.366,0,0,0-3.361-3.361" transform="translate(-246.539 -125.527)" fill="#12263f"/>
        <rect id="Rectángulo_45129" data-name="Rectángulo 45129" width="21.654" height="39.401" transform="translate(68.758 98.465)" fill="#80b3f2"/>
        <path id="Trazado_241807" data-name="Trazado 241807" d="M178.752,264.511H154.914V222.927h23.838ZM157.1,262.327h19.47V225.111H157.1Z" transform="translate(-87.248 -125.554)" fill="#12263f"/>
        <rect id="Rectángulo_45130" data-name="Rectángulo 45130" width="21.654" height="60.026" transform="translate(94.695 77.84)" fill="#d677e6"/>
        <path id="Trazado_241808" data-name="Trazado 241808" d="M238.133,237.917H214.3V175.708h23.837Zm-21.653-2.184h19.469V177.892H216.48Z" transform="translate(-120.693 -98.96)" fill="#12263f"/>
        <rect id="Rectángulo_45131" data-name="Rectángulo 45131" width="21.654" height="79.112" transform="translate(120.633 58.753)" fill="#80b3f2"/>
        <path id="Trazado_241809" data-name="Trazado 241809" d="M297.515,213.307H273.677v-81.3h23.838Zm-21.654-2.184h19.47V134.195h-19.47Z" transform="translate(-154.136 -74.349)" fill="#12263f"/>
        <rect id="Rectángulo_45132" data-name="Rectángulo 45132" width="21.651" height="45.215" transform="translate(146.573 92.65)" fill="#d677e6"/>
        <path id="Trazado_241810" data-name="Trazado 241810" d="M356.9,257.013H333.066v-47.4H356.9Zm-21.651-2.184h19.467V211.8H335.25Z" transform="translate(-187.585 -118.056)" fill="#12263f"/>
        <path id="Trazado_241811" data-name="Trazado 241811" d="M77.078,278.777h13.68l15.769,2.63,1.821.3,9.094,1.519a6.7,6.7,0,0,1,2.105,4.518c-.006.06-.006.121-.006.188a4.432,4.432,0,0,1-.036.559,5.6,5.6,0,0,1-.953,2.429c-.06.091-.129.183-.2.267a6.805,6.805,0,0,1-4.713,2.57H97.016l-7.839,31.954L73.638,311.3Z" transform="translate(-41.473 -157.009)" fill="#d9af8a"/>
        <path id="Trazado_241812" data-name="Trazado 241812" d="M99.281,320.637l-2.121-.52,6.825-28.856h17.424a5.708,5.708,0,0,0,3.9-2.14c.057-.073.107-.138.15-.2a4.5,4.5,0,0,0,.784-1.979,3.3,3.3,0,0,0,.026-.41c0-.076,0-.149.006-.221a5.471,5.471,0,0,0-1.537-3.465l-26.25-4.381H87.533v-2.184l11.23.015,27,4.506.239.22a7.745,7.745,0,0,1,2.459,5.312v.059l-.006.059c0,.023,0,.051,0,.079a5.511,5.511,0,0,1-.045.7,6.656,6.656,0,0,1-1.138,2.913c-.062.095-.15.213-.235.321a7.9,7.9,0,0,1-5.458,2.981l-.114.006H105.7Z" transform="translate(-49.299 -155.601)" fill="#12263f"/>
        <path id="Trazado_241813" data-name="Trazado 241813" d="M21.985,387.274l4.609-10.034,37.383,20.844-6.2,11.557Z" transform="translate(-12.382 -212.464)" fill="#fff"/>
        <path id="Trazado_241814" data-name="Trazado 241814" d="M56.394,409.214,18.8,385.72l5.5-11.979,39.353,21.942ZM21.582,384.885l33.99,21.24,5.138-9.582L25.3,376.8Z" transform="translate(-10.586 -210.492)" fill="#12263f"/>
        <path id="Trazado_241815" data-name="Trazado 241815" d="M36.65,404.186,10.574,389.613l-7.1,12.075c7.285,3.868,17.174,9.421,26.752,15.007,5.518,3.21,10.932,6.42,15.667,9.333l6.42-13.082Z" transform="translate(-1.959 -219.432)" fill="#80b3f2"/>
        <path id="Trazado_241816" data-name="Trazado 241816" d="M44.388,425.688l-1.023-.63c-4.334-2.667-9.6-5.8-15.643-9.319-9.743-5.683-19.479-11.145-26.715-14.987L0,400.218l8.215-13.98L51.793,410.6ZM3.037,399.359c7.143,3.817,16.463,9.055,25.784,14.492,5.592,3.252,10.519,6.182,14.665,8.719l5.435-11.075L9.015,389.187Z" transform="translate(0 -217.531)" fill="#12263f"/>
        <path id="Trazado_241817" data-name="Trazado 241817" d="M350.9,308.034c-.252.206-1.223.161-1.529.2l-2.953.38c-3,.392-2.433,1.475-5.422,1.861-6.195.8-12.488.615-18.65,1.567-5.608.867-8.451-2.86-12.1-6.926-5.984-6.66-15.057-12.657-18.01-21.367-1.165-3.443-2.782-7.282-3.314-10.857-.447-3-.3-5.9-1.22-8.894-.871-2.83-4.176-8.105.832-7.944a11.048,11.048,0,0,1,4.494.988c2.061,1.236,3.785,4.077,4.569,6.322.634,1.821.378,3.731,1.016,5.522a26.044,26.044,0,0,0,3.911,6.413,105.089,105.089,0,0,0-1.673-17.436q-.973-7.478-1.949-14.956-1.388-10.651-2.776-21.3c-.006-.043-.012-.087-.015-.131-.175-1.349-.487-2.764-.532-4.123a2.383,2.383,0,0,1,.5-1.437,3.365,3.365,0,0,1,.259-.341c.009-.015.03-.03.039-.045a8.96,8.96,0,0,1,.667-.681,6.624,6.624,0,0,1,7.556-1.05,6.712,6.712,0,0,1,.8.446l.045.031a3.758,3.758,0,0,1,.835.726,2.461,2.461,0,0,1,.529,1.164c.12.763.192,1.511.3,2.28.628,4.862,1.217,9.729,1.832,14.591.418,3.318.679,6.707,1.274,10,.535,2.952,1.346,7.691,2.476,8.795-.153-.756.249-1.956.123-2.86-.132-.96-.273-1.919-.4-2.881-.225-1.691-.874-3.982-.457-5.68.769-3,5.4-4.174,7.934-2.914,2.656,1.325,3.082,4.927,3.716,7.465.187.746,1.406,3.5,1.745,2.3.652-2.313.511-6.567,1.343-7.927,1.568-2.561,5.113-2.91,7.583-1.556,3.6,1.972,3.644,7.79,4.055,11.321.622-.632.334-3.236.9-4.027a5.623,5.623,0,0,1,3.938-2.016c5.879-.384,5.669,6.678,6.594,10.705a107.724,107.724,0,0,1,2.722,22.1,69.163,69.163,0,0,1-.288,10.932c-.448,3.113-2.5,5.84-2.653,9.025-.129,2.633.655,5.568.988,8.176.177,1.367.319,2.492.379,2.962.054.41.243.877-.006,1.085" transform="translate(-160.977 -120)" fill="#d6ac87"/>
        <path id="Trazado_241818" data-name="Trazado 241818" d="M319.343,311.86c-4.725,0-7.578-3.211-10.581-6.588q-.365-.41-.739-.828c-1.741-1.938-3.726-3.8-5.827-5.766-5.033-4.716-10.238-9.592-12.4-15.98-.275-.812-.575-1.645-.88-2.492a46.237,46.237,0,0,1-2.479-8.555c-.165-1.107-.252-2.2-.336-3.255a24.9,24.9,0,0,0-.847-5.479c-.152-.495-.4-1.1-.659-1.745-.89-2.2-1.9-4.688-.749-6.337a3.644,3.644,0,0,1,3.319-1.275,12.667,12.667,0,0,1,5.021,1.143c2.3,1.379,4.187,4.458,5.039,6.9a12.84,12.84,0,0,1,.561,3.011,10.7,10.7,0,0,0,.453,2.5,15.847,15.847,0,0,0,1.706,3.271,115.785,115.785,0,0,0-1.575-13.751c-.654-5.019-1.3-10-1.955-14.989l-2.776-21.3c-.007-.048-.013-.1-.018-.157-.055-.426-.125-.86-.195-1.3a23.383,23.383,0,0,1-.342-2.906,3.435,3.435,0,0,1,.7-2.108c.066-.094.151-.219.259-.349l.021-.035.093-.1a9.7,9.7,0,0,1,.753-.766,7.734,7.734,0,0,1,8.778-1.209,7.828,7.828,0,0,1,.9.507l.041.028a4.861,4.861,0,0,1,1.078.943,3.554,3.554,0,0,1,.767,1.685c.076.479.132.945.189,1.413.036.3.072.595.113.9q.556,4.306,1.083,8.6.373,3,.751,6c.135,1.077.255,2.161.374,3.246.147,1.339.3,2.706.481,4.062,0-.02.009-.041.014-.061a5.43,5.43,0,0,1,3.186-3.5,7.723,7.723,0,0,1,6.3-.128c2.749,1.372,3.462,4.538,4.034,7.083.086.38.168.748.255,1.1,0,.014.008.03.012.045.049-.442.093-.9.136-1.349.188-1.96.35-3.654.948-4.631,1.954-3.189,6.213-3.493,9.039-1.944,2.519,1.381,3.524,4.217,4.02,7.051a7.039,7.039,0,0,1,4.277-1.905c5.813-.373,6.709,5.382,7.308,9.194.135.855.261,1.663.421,2.357a108.96,108.96,0,0,1,2.75,22.32l.023,1.1a61.719,61.719,0,0,1-.322,10.005,18.955,18.955,0,0,1-1.355,4.366,14.262,14.262,0,0,0-1.287,4.555,25.555,25.555,0,0,0,.568,5.4c.15.855.3,1.738.412,2.582.129.991.238,1.857.312,2.437l.066.525c.009.071.026.147.042.224a1.768,1.768,0,0,1-.433,1.84l-.007.007a2.9,2.9,0,0,1-1.8.425c-.115,0-.216.005-.282.013l-2.955.38a4.88,4.88,0,0,0-2.287.784,6.9,6.9,0,0,1-3.134,1.077c-2.912.376-5.872.539-8.736.7-3.262.179-6.635.364-9.886.867a11.55,11.55,0,0,1-1.76.14m-32.437-56.119c-.66,0-1.12.123-1.274.344-.473.678.438,2.925.982,4.267.278.688.542,1.337.722,1.923a26.96,26.96,0,0,1,.937,5.948c.081,1.019.165,2.073.319,3.106a44.694,44.694,0,0,0,2.374,8.138c.309.86.614,1.707.893,2.53,1.99,5.869,6.992,10.555,11.829,15.087,2.042,1.913,4.154,3.892,5.959,5.9.252.281.5.56.746.836,3.207,3.608,5.741,6.459,10.376,5.741,3.358-.519,6.786-.708,10.1-.89,2.824-.155,5.744-.316,8.576-.681a4.793,4.793,0,0,0,2.281-.779,6.942,6.942,0,0,1,3.139-1.081l2.955-.38c.107-.014.284-.023.49-.03l.107,0,0-.027-.067-.531c-.073-.579-.183-1.442-.312-2.433-.1-.8-.245-1.616-.4-2.484a27.116,27.116,0,0,1-.6-5.886,16.122,16.122,0,0,1,1.443-5.265,17.061,17.061,0,0,0,1.22-3.862,60.107,60.107,0,0,0,.3-9.647l-.023-1.108a106.785,106.785,0,0,0-2.695-21.873c-.176-.77-.309-1.614-.449-2.508-.721-4.592-1.453-7.579-5.009-7.353A4.519,4.519,0,0,0,338.7,244.3a6.877,6.877,0,0,0-.22,1.452,4.43,4.43,0,0,1-.787,2.7l-1.6,1.627-.264-2.266c-.054-.465-.1-.97-.152-1.5-.3-3.187-.718-7.552-3.343-8.991-1.956-1.071-4.885-.858-6.127,1.169a13.4,13.4,0,0,0-.637,3.7,24.3,24.3,0,0,1-.585,3.952,1.36,1.36,0,0,1-1.3,1.1h-.018c-1.614-.024-2.528-3.391-2.536-3.425-.091-.364-.177-.749-.266-1.145-.5-2.2-1.058-4.7-2.878-5.608a5.529,5.529,0,0,0-4.413.159,3.407,3.407,0,0,0-1.976,2.049,10.59,10.59,0,0,0,.251,3.866c.088.491.171.954.23,1.4.074.55.152,1.1.23,1.652q.086.613.172,1.224a6.706,6.706,0,0,1-.069,1.763,4.368,4.368,0,0,0-.065,1.029l.705,3.479-2.539-2.481c-1.23-1.2-1.928-4.623-2.713-8.97l-.074-.411c-.409-2.266-.665-4.593-.912-6.843-.118-1.074-.236-2.146-.37-3.211q-.38-3-.752-6.009-.533-4.29-1.08-8.579c-.042-.3-.079-.614-.117-.923-.053-.442-.106-.882-.176-1.327a1.363,1.363,0,0,0-.3-.646,2.672,2.672,0,0,0-.589-.5l-.051-.035a5.855,5.855,0,0,0-7,.492,7.244,7.244,0,0,0-.53.534l-.014.024-.1.1a2.254,2.254,0,0,0-.172.231,1.349,1.349,0,0,0-.309.785,21.83,21.83,0,0,0,.315,2.629c.075.467.149.93.208,1.387l.014.122,2.777,21.308q.978,7.478,1.95,14.956a106.052,106.052,0,0,1,1.683,17.573l.011,3.283-1.975-2.623a26.836,26.836,0,0,1-4.068-6.706,12.541,12.541,0,0,1-.567-3.013,11,11,0,0,0-.45-2.514c-.7-2-2.28-4.654-4.1-5.746a10.1,10.1,0,0,0-3.969-.833c-.062,0-.123,0-.182,0m62.1,49.925h0Zm-53.274-90.755-.012.011Zm-1.556-1.533-.012.012Z" transform="translate(-159.57 -118.598)" fill="#12263f"/>
        <path id="Trazado_241819" data-name="Trazado 241819" d="M383.38,415.212l-40.511,5.407,2.734,10.7,39.8-6.66Z" transform="translate(-193.106 -233.85)" fill="#fff"/>
        <path id="Trazado_241820" data-name="Trazado 241820" d="M343.038,430.99l-3.286-12.859,42.729-5.7,2.469,11.548Zm-.562-11.019,2.181,8.534,37.68-6.306-1.569-7.339Z" transform="translate(-191.35 -232.282)" fill="#12263f"/>
        <path id="Trazado_241821" data-name="Trazado 241821" d="M386.225,430.683l-33.349,6.055-14.243,2.567,3.8,15.425,14.018-2.672,34.039-6.489Z" transform="translate(-190.72 -242.563)" fill="#80b3f2"/>
        <path id="Trazado_241822" data-name="Trazado 241822" d="M339.895,454.383l-4.326-17.56,15.387-2.773,34.32-6.232,4.867,16.986Zm-1.649-15.823,3.274,13.29,45.866-8.744-3.665-12.785L351.345,436.2Z" transform="translate(-188.994 -240.949)" fill="#12263f"/>
        <path id="Trazado_241823" data-name="Trazado 241823" d="M246.591,2.5a9.665,9.665,0,0,0-7,16.335L214.482,60.368a9.67,9.67,0,0,0-8.531.459L187.9,42.772a9.667,9.667,0,1,0-18.041,2.363L151.2,72.677a9.674,9.674,0,1,0,5.645,3.161l17.779-26.246a9.665,9.665,0,0,0,9.744-1.234l17.33,17.33a9.668,9.668,0,1,0,17.6-.818l26.067-43.115A9.667,9.667,0,1,0,246.591,2.5" transform="translate(-78.794 -1.408)" fill="#fef536"/>
        <path id="Trazado_241824" data-name="Trazado 241824" d="M148.165,91.559a10.76,10.76,0,1,1,0-21.52,10.535,10.535,0,0,1,1.1.058l17.927-26.463a10.628,10.628,0,0,1-.909-4.327A10.759,10.759,0,1,1,187.668,41l17.087,17.087a10.876,10.876,0,0,1,7.854-.467l24.229-40.072a10.757,10.757,0,1,1,7.694,3.953L219.123,63.525a10.627,10.627,0,0,1,.908,4.326,10.759,10.759,0,1,1-21-3.288L182.837,48.372a10.771,10.771,0,0,1-9.2,1.141L156.793,74.373a10.757,10.757,0,0,1-8.628,17.185m0-19.336a8.583,8.583,0,1,0,6.449,2.928l-.556-.634,18.759-27.693.83.359a8.576,8.576,0,0,0,8.642-1.095l.76-.59,18.519,18.519-.266.667a8.575,8.575,0,1,0,15.609-.725l-.277-.541,26.749-44.243.7.089a8.582,8.582,0,1,0-5.113-2.591l.576.6L213.517,60.338l-.873-.374a8.574,8.574,0,0,0-7.564.407l-.722.406L185.3,41.715l.126-.582a8.575,8.575,0,1,0-16.954-1.827,8.476,8.476,0,0,0,.95,3.921l.3.576L150.3,72.463l-.693-.117a8.706,8.706,0,0,0-1.443-.124" transform="translate(-77.386)" fill="#12263f"/>
      </g>
    </g>
  </g>
</svg>
