<svg xmlns="http://www.w3.org/2000/svg" xmlns:xlink="http://www.w3.org/1999/xlink" width="85" height="94" viewBox="0 0 85 94">
  <defs>
    <clipPath id="clip-path">
      <rect id="Rect치ngulo_45077" data-name="Rect치ngulo 45077" width="19.399" height="36.417" fill="none"/>
    </clipPath>
  </defs>
  <g id="Grupo_180408" data-name="Grupo 180408" transform="translate(-180 -3151)">
    <path id="Rect치ngulo_33876" data-name="Rect치ngulo 33876" d="M20,0H85a0,0,0,0,1,0,0V74A20,20,0,0,1,65,94H0a0,0,0,0,1,0,0V20A20,20,0,0,1,20,0Z" transform="translate(180 3151)" fill="#5c22c3"/>
    <circle id="Elipse_4740" data-name="Elipse 4740" cx="28.345" cy="28.345" r="28.345" transform="translate(194 3169)" fill="#fff"/>
    <g id="Grupo_180395" data-name="Grupo 180395" transform="translate(210.292 3179.791)">
      <g id="Grupo_180394" data-name="Grupo 180394" transform="translate(0 0)" clip-path="url(#clip-path)">
        <path id="Trazado_241197" data-name="Trazado 241197" d="M13.859,21.279q0,9.131,0,18.262c0,.151-.271.37-.271.37s-5.2-3.033-7.812-4.541a.525.525,0,0,1-.257-.546q0-7.7-.008-15.4c0-1.259-.018-2.518,0-3.776.006-.346-.125-.461-.433-.531C3.5,14.758,1.929,14.377.35,14.01c-.211-.049-.34-.1-.34-.371C.015,11.1,0,8.555,0,6.013A1.31,1.31,0,0,1,.035,5.8a.616.616,0,0,1,.454-.079c.658.106,1.312.234,1.969.344.941.164,1.882.324,2.827.467.891.184,1.789.332,2.688.477.2.033.409.055.609.106.847.171,1.7.271,2.555.422a2.727,2.727,0,0,1,1.192.428c.442.235.87.494,1.3.748a.494.494,0,0,1,.269.474q-.009,5.939,0,11.878a.334.334,0,0,1-.035.212" transform="translate(0 -3.494)" fill="#12263f"/>
        <path id="Trazado_241198" data-name="Trazado 241198" d="M19.453,2.38h0L7.025,0,.089,2.307s3.489.675,5.259.807c2.733.922,6.57.247,8.56,2.615-.131,4.238.133,8.519-.114,12.747q0,8.641,0,17.282a2.1,2.1,0,0,1-.149.661L19.4,32.882Z" transform="translate(-0.054 0)" fill="#12263f"/>
        <path id="Trazado_241199" data-name="Trazado 241199" d="M14.609,26.884q0,6.73,0,13.46c0,.5-.01.508-.441.258-1.594-.924-3.181-1.859-4.78-2.775a.709.709,0,0,1-.382-.712Q9.013,29.174,9,21.234c0-1.259-.026-2.518-.013-3.777,0-.328-.13-.44-.419-.507-1.555-.359-3.1-.739-4.661-1.093a.465.465,0,0,1-.435-.54q.02-2.035-.007-4.071c0-.337.1-.42.42-.364q4.918.856,9.837,1.7a2.307,2.307,0,0,1,.356.083c.491.169.565.275.565.8q0,6.712,0,13.424Z" transform="translate(-2.119 -6.648)" fill="#d677e6"/>
        <path id="Trazado_241200" data-name="Trazado 241200" d="M35.809,13.1V41.149l4.135-2.475V10.866Z" transform="translate(-21.911 -6.649)" fill="#5127bd"/>
        <path id="Trazado_241201" data-name="Trazado 241201" d="M7.061,5.228,11.826,3.8l9.363,1.649L17.713,7.2Z" transform="translate(-4.32 -2.324)" fill="#fef536"/>
      </g>
    </g>
  </g>
</svg>
