<svg id="Grupo_180600" data-name="Grupo 180600" xmlns="http://www.w3.org/2000/svg" xmlns:xlink="http://www.w3.org/1999/xlink" width="52.7" height="52.667" viewBox="0 0 52.7 52.667">
  <defs>
    <clipPath id="clip-path">
      <rect id="Rectángulo_45282" data-name="Rectángulo 45282" width="52.7" height="52.667" fill="none"/>
    </clipPath>
  </defs>
  <g id="Grupo_180599" data-name="Grupo 180599" transform="translate(0 0)" clip-path="url(#clip-path)">
    <path id="Trazado_242241" data-name="Trazado 242241" d="M53.262,29.449l-.694-7.719-5.811-.458a19.794,19.794,0,0,0-1.709-3.652l3.343-4.735L42.9,7.42l-4.7,3.347a19.933,19.933,0,0,0-3.717-1.725L34.009,3.33l-7.722-.659L24.859,8.209a19.905,19.905,0,0,0-4,1.081L16.853,5.253l-.181.128-6.158,4.33,2.457,5.15a20.16,20.16,0,0,0-2.361,3.411l-5.666-.516L2.958,25.243l5.225,2.381a19.9,19.9,0,0,0,.388,4.1L3.859,34.987,7.153,42l5.592-1.549a19.6,19.6,0,0,0,2.884,2.839L14.1,48.882l7.029,3.259,3.319-4.826a20.239,20.239,0,0,0,3.985.322l2.449,5.306,7.479-2.024-.286-2.985-.28-2.871c.556-.32,1.106-.666,1.64-1.038.563-.4,1.1-.816,1.607-1.257l5.3,2.5,4.429-6.359-4.192-4.123a20,20,0,0,0,1.021-3.849ZM35.128,37.9a12.557,12.557,0,0,1-1.62.945,12.253,12.253,0,1,1,1.62-.945" transform="translate(-1.701 -1.536)" fill="#fef536"/>
    <path id="Trazado_242242" data-name="Trazado 242242" d="M28.6,52.667l-2.54-5.5a21.317,21.317,0,0,1-2.812-.228L19.8,51.947l-8.657-4.014,1.579-5.8a20.8,20.8,0,0,1-2.046-2.016l-5.8,1.607L.815,33.089,5.7,29.7a20.991,20.991,0,0,1-.277-2.927L0,24.3l2.446-9.223,5.879.536a21.273,21.273,0,0,1,1.693-2.446L7.468,7.823,15.273,2.33l4.159,4.192A21.061,21.061,0,0,1,22.3,5.748L23.782,0l9.512.812.491,5.929a21.027,21.027,0,0,1,2.652,1.23L41.309,4.5l6.765,6.731-3.469,4.914a20.917,20.917,0,0,1,1.213,2.588l6.026.475.856,9.506-5.867,1.547a21.1,21.1,0,0,1-.718,2.713l4.347,4.275-5.455,7.832-5.5-2.6c-.379.307-.766.6-1.155.875q-.536.374-1.129.738l.586,6.08Zm-1.187-7.642,2.364,5.122,5.747-1.554-.547-5.643.593-.342c.559-.323,1.085-.655,1.562-.989.514-.362,1.027-.764,1.522-1.19l.523-.451,5.116,2.414,3.4-4.887-4.047-3.98.245-.648a18.887,18.887,0,0,0,.966-3.643l.111-.681,5.453-1.438-.534-5.932-5.609-.442-.228-.656a18.782,18.782,0,0,0-1.618-3.455l-.354-.593L45.3,11.47l-4.221-4.2L36.552,10.5l-.6-.354a18.907,18.907,0,0,0-3.519-1.633l-.656-.226-.456-5.51L25.391,2.27,24.013,7.612l-.686.11A18.9,18.9,0,0,0,19.54,8.746L18.892,9,15.031,5.1,10.159,8.528l2.367,4.963-.449.525a19.129,19.129,0,0,0-2.236,3.231l-.335.61-5.465-.5L2.514,23.112l5.037,2.3-.006.69a18.818,18.818,0,0,0,.367,3.878l.137.685L3.5,33.812,6.033,39.2l5.391-1.493.439.53a18.592,18.592,0,0,0,2.727,2.685l.547.435-1.472,5.4,5.4,2.5,3.2-4.653.675.122a19.432,19.432,0,0,0,3.775.305ZM26.27,39.691a13.429,13.429,0,1,1,7.77-2.453h0a13.951,13.951,0,0,1-7.769,2.452m.026-24.7a11.584,11.584,0,0,0-6.475,2.036A11.343,11.343,0,1,0,26.3,14.991" transform="translate(0 0)" fill="#12263f"/>
  </g>
</svg>
