<svg xmlns="http://www.w3.org/2000/svg" xmlns:xlink="http://www.w3.org/1999/xlink" width="302.279" height="224.171" viewBox="0 0 302.279 224.171">
  <defs>
    <clipPath id="clip-path">
      <rect id="Rectángulo_45276" data-name="Rectángulo 45276" width="0.009" height="0.001" fill="none"/>
    </clipPath>
    <clipPath id="clip-path-2">
      <rect id="Rectángulo_45284" data-name="Rectángulo 45284" width="143.764" height="55.541" fill="none"/>
    </clipPath>
    <clipPath id="clip-path-3">
      <rect id="Rectángulo_45285" data-name="Rectángulo 45285" width="143.764" height="52.502" fill="none"/>
    </clipPath>
  </defs>
  <g id="Grupo_187272" data-name="Grupo 187272" transform="translate(0 0.001)">
    <g id="Grupo_180580" data-name="Grupo 180580" transform="translate(0 -0.001)">
      <path id="Trazado_242188" data-name="Trazado 242188" d="M5.092,23.015c0-6.658-1.188-12.319-.365-18.57,98.5,0,146.757.134,245.991.035.95,6.371,0,12.363,0,18.557-99.183,0-146.94-.022-245.627-.022" transform="translate(-3.558 -3.567)" fill="#fff"/>
      <path id="Trazado_242189" data-name="Trazado 242189" d="M270.993,161.171c.485,0,.878,62.607.878,62.122,0-17.709.118-98.516.232-115.736.228-34.4-24.537-69.977-25.232-106.4-.009-.479,24.6-.861-.884-.861-66.9.521-88.641.282-138.122.031C75.885.168,42.815,0,1.2,0A.878.878,0,0,0,.319.863C-.24,34.094.045,65.112.347,97.953.53,117.838.719,201.4.719,223.1a.878.878,0,0,0,.878.878c54.05,0,214.937.19,269.4.19m-.646-116.625c-.112,16.938-.228,97.445-.232,114.869-54.022,0-214.026-.19-267.64-.19C2.47,200.838,2.284,117.558,2.1,97.937c-.3-32.544-.582-63.3-.042-96.181,41.21,0,74.038.17,105.8.332,49.272.25,70.824.488,137.275-.024" transform="translate(0)" fill="#555"/>
      <path id="Trazado_242246" data-name="Trazado 242246" d="M0,0H256.336l44,202.846H0Z" transform="translate(1.943 19.47)" fill="#dee9f0"/>
      <path id="Trazado_242190" data-name="Trazado 242190" d="M100.109,318.711h34.916l-.009-3.17H100.1Z" transform="translate(117.535 -269.211)" fill="#64b5f6"/>
      <path id="Trazado_242231" data-name="Trazado 242231" d="M173.77,318.711H100.1l.019-3.17h73.67Z" transform="translate(-77.161 -171.778)" fill="#64b5f6"/>
      <path id="Trazado_242191" data-name="Trazado 242191" d="M100.113,430.245h50.767l-.013-3.17H100.1Z" transform="translate(101.679 -358.713)" fill="#999898"/>
      <path id="Trazado_242230" data-name="Trazado 242230" d="M213.132,430.245H100.1l.029-3.17H213.161Z" transform="translate(-77.161 -261.28)" fill="#999898"/>
      <path id="Trazado_242201" data-name="Trazado 242201" d="M1287.107,38.406a4.291,4.291,0,1,0-4.291,4.291,4.291,4.291,0,0,0,4.291-4.291" transform="translate(-1267.326 -27.376)" fill="#555"/>
      <path id="Trazado_242202" data-name="Trazado 242202" d="M1149.837,38.406a4.291,4.291,0,1,0-4.291,4.291,4.291,4.291,0,0,0,4.291-4.291" transform="translate(-1102.941 -27.376)" fill="#555"/>
      <path id="Trazado_242203" data-name="Trazado 242203" d="M1012.567,38.406a4.291,4.291,0,1,0-4.291,4.291,4.291,4.291,0,0,0,4.291-4.291" transform="translate(-938.555 -27.376)" fill="#555"/>
      <path id="Trazado_242204" data-name="Trazado 242204" d="M1017.926,45.515a2.54,2.54,0,1,0-2.541,2.541,2.541,2.541,0,0,0,2.541-2.541" transform="translate(-945.664 -34.485)" fill="#fff"/>
      <path id="Trazado_242205" data-name="Trazado 242205" d="M1155.2,45.515a2.541,2.541,0,1,0-2.541,2.541,2.541,2.541,0,0,0,2.541-2.541" transform="translate(-1110.05 -34.485)" fill="#fff"/>
      <path id="Trazado_242206" data-name="Trazado 242206" d="M1292.467,45.515a2.541,2.541,0,1,0-2.541,2.541,2.541,2.541,0,0,0,2.541-2.541" transform="translate(-1274.436 -34.485)" fill="#fff"/>
      <path id="Trazado_242207" data-name="Trazado 242207" d="M100.11,544.42h39.119l-.01-3.17H100.1Z" transform="translate(113.331 -450.335)" fill="#999898"/>
      <path id="Trazado_242229" data-name="Trazado 242229" d="M177.973,544.42H100.1l.02-3.17h77.874Z" transform="translate(-77.16 -352.902)" fill="#999898"/>
      <path id="Trazado_242224" data-name="Trazado 242224" d="M537.069,92.322a44.788,44.788,0,0,1-22.222-5.847,42.986,42.986,0,0,1-20.531-26.706,44.14,44.14,0,0,1,5.123-34.206C512.355,4.2,540.276-3.274,561.678,8.906a42.987,42.987,0,0,1,20.531,26.706,44.14,44.14,0,0,1-5.123,34.206,46.859,46.859,0,0,1-40.016,22.5" transform="translate(-329.545 114.165)" fill="#999898"/>
      <path id="Trazado_242223" data-name="Trazado 242223" d="M502.563,27.738c12.225-20.221,38.55-27.27,58.8-15.746s26.754,37.26,14.529,57.481-38.55,27.271-58.8,15.746-26.754-37.26-14.529-57.481" transform="translate(-330.51 113.25)" fill="#fef536"/>
      <path id="Trazado_242225" data-name="Trazado 242225" d="M626.874,92.189s30.635,31.528,32.409,33.306a43.9,43.9,0,0,0,10.1-11.456,41.136,41.136,0,0,0-1.53-45.891c-14.064,8.265-40.977,24.04-40.977,24.04" transform="translate(-424.08 68.731)" fill="#5c22c3"/>
      <path id="Trazado_242226" data-name="Trazado 242226" d="M634.919,10.011c-.867,4.17-1.695,8.4-2.5,12.507q-.7,3.57-1.4,7.139c-1.478,7.412-2.905,14.947-4.144,21.567,6.3-3.513,12.523-6.806,18.536-9.8,6.549-3.264,13.272-6.426,19.979-9.4l.706-.313q1.849-.82,3.71-1.639A41.191,41.191,0,0,0,654.75,15.527a43.379,43.379,0,0,0-19.832-5.516" transform="translate(-424.08 109.695)" fill="#64b5f6"/>
      <g id="Grupo_180586" data-name="Grupo 180586" transform="translate(203.62 206.487)" opacity="0.129">
        <g id="Grupo_180585" data-name="Grupo 180585">
          <g id="Grupo_180584" data-name="Grupo 180584" clip-path="url(#clip-path)">
            <path id="Trazado_242228" data-name="Trazado 242228" d="M627.436,271.486h0" transform="translate(-627.436 -271.486)"/>
          </g>
        </g>
      </g>
      <rect id="Rectángulo_45283" data-name="Rectángulo 45283" width="134.362" height="60.025" transform="translate(146.091 153.424) rotate(-170)" fill="none"/>
      <line id="Línea_303" data-name="Línea 303" x1="29" y2="39" transform="translate(66.833 38.109)" fill="none" stroke="#999898" stroke-linecap="round" stroke-width="3"/>
      <line id="Línea_305" data-name="Línea 305" x2="46" y2="48" transform="translate(95.833 38.109)" fill="none" stroke="#999898" stroke-linecap="round" stroke-width="3"/>
      <line id="Línea_306" data-name="Línea 306" x1="17" y2="28" transform="translate(141.833 58.109)" fill="none" stroke="#999898" stroke-linecap="round" stroke-width="3"/>
      <line id="Línea_304" data-name="Línea 304" x2="36" y2="26" transform="translate(30.833 51.109)" fill="none" stroke="#999898" stroke-linecap="round" stroke-width="3"/>
      <path id="Trazado_242196" data-name="Trazado 242196" d="M549.619,383.15a7.609,7.609,0,1,0-7.609,7.609,7.609,7.609,0,0,0,7.609-7.609" transform="translate(-382.916 -325.041)" fill="#64b5f6"/>
      <path id="Trazado_242197" data-name="Trazado 242197" d="M723.192,524.974a7.609,7.609,0,1,0-7.609,7.61,7.61,7.61,0,0,0,7.609-7.61" transform="translate(-574.139 -439.256)" fill="#5c22c3"/>
      <path id="Trazado_242198" data-name="Trazado 242198" d="M856.691,292.843a7.609,7.609,0,1,0-7.609,7.609,7.609,7.609,0,0,0,7.609-7.609" transform="translate(-753.639 -255.122)" fill="#5c22c3"/>
      <path id="Trazado_242199" data-name="Trazado 242199" d="M1025.75,579.235a7.609,7.609,0,1,0-7.609,7.609,7.609,7.609,0,0,0,7.609-7.609" transform="translate(-950.959 -502.266)" fill="#64b5f6"/>
      <path id="Trazado_242200" data-name="Trazado 242200" d="M1200.719,264.347a7.609,7.609,0,1,0-7.609,7.609,7.609,7.609,0,0,0,7.609-7.609" transform="translate(-1162.561 -213.291)" fill="#5c22c3"/>
      <g id="Grupo_180612" data-name="Grupo 180612" transform="translate(22.938 69.359)">
        <g id="Grupo_180613" data-name="Grupo 180613">
          <g id="Grupo_180610" data-name="Grupo 180610" transform="translate(0 0)">
            <g id="Grupo_180614" data-name="Grupo 180614">
              <g id="Grupo_180605" data-name="Grupo 180605" transform="translate(0 0)" opacity="0.5">
                <g id="Grupo_180604" data-name="Grupo 180604">
                  <g id="Grupo_180603" data-name="Grupo 180603" clip-path="url(#clip-path-2)">
                    <path id="Trazado_242243" data-name="Trazado 242243" d="M0,32.693V54.275c0,.7.426,1.266.956,1.266H143.764s-5.711-12.459-9.883-12.459c-4.93,0-6.2,3.459-10.589,3.459S115.7,32.331,111.724,32.331c-2.15,0-2.935,2.041-4.194,3.8a5.169,5.169,0,0,1-4.364,2.525,1.523,1.523,0,0,1-.162.006C97.608,38.666,94.756,0,87.334,0c-3.281,0-5.523,7.95-7.527,16.822-2.54,11.211-4.707,23.9-8.146,23.9-6.155,0-6.33-16.636-12.055-16.636-3.6,0-5.873,8.4-9.62,14.652-2.215,3.7-4.953,6.655-8.786,6.656a8.589,8.589,0,0,1-7.216-3.529c-3.1-3.931-4.014-9.753-8.453-9.753-2.627,0-3.869,2.444-5.11,4.73-1.083,2-2.171,3.879-4.2,3.879-2.382,0-3.856-4.836-5.505-9.2C9.361,27.933,7.891,24.667,5.7,24.667c-2.242,0-3.935,3.232-4.874,5.594A25.6,25.6,0,0,0,0,32.693" transform="translate(0 0)" fill="#ba68c8"/>
                  </g>
                </g>
              </g>
              <g id="Grupo_180608" data-name="Grupo 180608" transform="translate(0 3.039)" opacity="0.5">
                <g id="Grupo_180607" data-name="Grupo 180607">
                  <g id="Grupo_180606" data-name="Grupo 180606" clip-path="url(#clip-path-3)">
                    <path id="Trazado_242244" data-name="Trazado 242244" d="M0,4.2V55.436c0,.7.426,1.266.956,1.266H143.764c-5.891-4.153-8.3-10.505-12.256-10.505s-6.365,3.179-10.067,3.179-7.979-12.383-12.028-12.383a5.933,5.933,0,0,0-1.882.3c-1.618.537-2.825,1.686-4.364,2.526a7.7,7.7,0,0,1-3.821.991C94.6,40.813,87.9,16.636,82.4,16.636a3.6,3.6,0,0,0-2.6,1.347c-3.7,3.955-5.843,15.288-10.427,15.288-5.553,0-7.107-12.33-12.493-12.33s-8.33,11.747-14.577,11.747S32.009,9.19,25.53,9.19,15.931,20.2,10.3,20.2C4.13,20.2,0,4.2,0,4.2" transform="translate(0 -4.2)" fill="#ba68c8"/>
                  </g>
                </g>
              </g>
              <path id="Trazado_242245" data-name="Trazado 242245" d="M0,37.121V64.536c0,.7.426,1.266.956,1.266H143.764c-.171-2.975-2.961-7.735-6.356-7.735-3.5,0-3.983,4.078-8.874,4.078s-5.7-5.308-12.642-5.308-7.638,6.306-14.81,6.3S93.33,55.3,88.238,55.3s-5.207,3.926-8.1,3.926-3.864-6.236-7.427-6.236-7.339,9.158-11.352,9.158C58.54,62.144,54.5,53.9,49.986,49c-1.913-2.071-3.913-3.546-5.944-3.546-4.189,0-7.067,3.762-10.058,6.673-1.882,1.831-3.812,3.324-6.137,3.324-3.321,0-5.335-4.4-7.427-8.347-1.7-3.208-3.452-6.113-5.992-6.113a7.994,7.994,0,0,0-3.711.794c-2.325,1.166-3.15,3.208-5.786,3.208C1.752,44.989,0,37.121,0,37.121" transform="translate(0 -10.26)" fill="#ba68c8" opacity="0.5"/>
            </g>
          </g>
        </g>
      </g>
    </g>
  </g>
</svg>
