<svg xmlns="http://www.w3.org/2000/svg" xmlns:xlink="http://www.w3.org/1999/xlink" width="136.973" height="136.973" viewBox="0 0 136.973 136.973">
  <defs>
    <clipPath id="clip-path">
      <rect id="Rectángulo_45088" data-name="Rectángulo 45088" width="68.61" height="76.107" fill="none"/>
    </clipPath>
  </defs>
  <g id="Grupo_187267" data-name="Grupo 187267" transform="translate(-385.228 -5600.567)">
    <g id="Trazado_228314" data-name="Trazado 228314" transform="translate(385.228 5600.567)" fill="#fff">
      <path d="M 68.48631286621094 131.9726409912109 C 59.91350936889648 131.9726409912109 51.59981155395508 130.2947692871094 43.77611541748047 126.9856185913086 C 40.01535797119141 125.3949661254883 36.38774871826172 123.4259033203125 32.9940071105957 121.1331405639648 C 29.6312255859375 118.8612899780273 26.46885681152344 116.2520523071289 23.5947265625 113.3779220581055 C 20.72059631347656 110.503791809082 18.11135673522949 107.341423034668 15.83950805664062 103.9786376953125 C 13.5467472076416 100.5848999023438 11.57768249511719 96.95726776123047 9.987030029296875 93.196533203125 C 6.677877902984619 85.37283325195312 5.000008583068848 77.05912017822266 5.000008583068848 68.48631286621094 C 5.000008583068848 59.91350936889648 6.677877902984619 51.59981155395508 9.987030029296875 43.77611541748047 C 11.57768249511719 40.01535797119141 13.5467472076416 36.38774871826172 15.83950805664062 32.9940071105957 C 18.11135673522949 29.6312255859375 20.72059631347656 26.46885681152344 23.5947265625 23.5947265625 C 26.46885681152344 20.72059631347656 29.6312255859375 18.11135673522949 32.9940071105957 15.83950805664062 C 36.38774871826172 13.5467472076416 40.01535797119141 11.57768249511719 43.77611541748047 9.987030029296875 C 51.59981155395508 6.677877902984619 59.91350936889648 5.000008583068848 68.48631286621094 5.000008583068848 C 77.05912017822266 5.000008583068848 85.37283325195312 6.677877902984619 93.196533203125 9.987030029296875 C 96.95726776123047 11.57768249511719 100.5848999023438 13.5467472076416 103.9786376953125 15.83950805664062 C 107.341423034668 18.11135673522949 110.503791809082 20.72059631347656 113.3779220581055 23.5947265625 C 116.2520523071289 26.46885681152344 118.8612899780273 29.6312255859375 121.1331405639648 32.9940071105957 C 123.4259033203125 36.38774871826172 125.3949661254883 40.01535797119141 126.9856185913086 43.77611541748047 C 130.2947692871094 51.59981155395508 131.9726409912109 59.91350936889648 131.9726409912109 68.48631286621094 C 131.9726409912109 77.05912017822266 130.2947692871094 85.37283325195312 126.9856185913086 93.196533203125 C 125.3949661254883 96.95726776123047 123.4259033203125 100.5848999023438 121.1331405639648 103.9786376953125 C 118.8612899780273 107.341423034668 116.2520523071289 110.503791809082 113.3779220581055 113.3779220581055 C 110.503791809082 116.2520523071289 107.341423034668 118.8612899780273 103.9786376953125 121.1331405639648 C 100.5848999023438 123.4259033203125 96.95726776123047 125.3949661254883 93.196533203125 126.9856185913086 C 85.37283325195312 130.2947692871094 77.05912017822266 131.9726409912109 68.48631286621094 131.9726409912109 Z" stroke="none"/>
      <path d="M 68.48631286621094 10.00000762939453 C 36.23686981201172 10.00000762939453 10.00000762939453 36.23686981201172 10.00000762939453 68.48631286621094 C 10.00000762939453 100.7357559204102 36.23686981201172 126.9726181030273 68.48631286621094 126.9726181030273 C 100.7357559204102 126.9726181030273 126.9726181030273 100.7357559204102 126.9726181030273 68.48631286621094 C 126.9726181030273 36.23686981201172 100.7357559204102 10.00000762939453 68.48631286621094 10.00000762939453 M 68.48631286621094 0 C 106.3102569580078 0 136.9726257324219 30.66236877441406 136.9726257324219 68.48631286621094 C 136.9726257324219 106.3102569580078 106.3102569580078 136.9726257324219 68.48631286621094 136.9726257324219 C 30.66236877441406 136.9726257324219 0 106.3102569580078 0 68.48631286621094 C 0 30.66236877441406 30.66236877441406 0 68.48631286621094 0 Z" stroke="none" fill="#5c22c3"/>
    </g>
    <g id="Grupo_180427" data-name="Grupo 180427" transform="translate(419.424 5631)">
      <g id="Grupo_180426" data-name="Grupo 180426" clip-path="url(#clip-path)">
        <path id="Trazado_241259" data-name="Trazado 241259" d="M35.675,51.9q-2.182-5.655-4.342-11.318-2.1-5.48-4.212-10.957a35.221,35.221,0,0,1,2.138-3.239c2.064-3.054,4.155-6.092,6.226-9.143.076-.112.357-.234.088-.436-.706-.416-1.409-.837-2.118-1.246q-4.269-2.46-8.54-4.916a.733.733,0,0,0-.891-.013c-.733.476-1.5.91-2.275,1.311a9.055,9.055,0,0,1-2.071,1.071Q18.623,9.9,17.563,6.789c-.062-.18-.053-.414-.3-.488a.387.387,0,0,0-.075-.077Q11.852,3.157,6.514.084A.557.557,0,0,0,5.87.129C4.445.944,3.007,1.737,1.593,2.571A5.189,5.189,0,0,0,.026,3.585.706.706,0,0,0,.127,4Q4.216,14.769,8.319,25.53a.9.9,0,0,1-.136.945c-2.666,3.891-5.314,7.8-7.989,11.68-.307.445-.259.632.2.9,3.435,1.978,6.856,3.982,10.284,5.973.13.076.256.226.44.112a3.266,3.266,0,0,0,.34-.151q2-1.152,4-2.311c.153-.089.29-.231.487-.105.736,2.141,1.475,4.281,2.2,6.426a1.248,1.248,0,0,0,.6.733c1.079.612,2.145,1.247,3.219,1.868q3.788,2.193,7.578,4.382c.119.117.2-.008.28-.055,1.879-1.092,3.753-2.2,5.639-3.276.359-.206.343-.418.213-.753" transform="translate(0 0)" fill="#5127bd"/>
        <path id="Trazado_241260" data-name="Trazado 241260" d="M14.774,11.959s-6.1-3.742-7.539-4.591c-.678-.4-1.361-.793-2.041-1.19a3.364,3.364,0,0,1,1.02-.684C7.135,4.93,8.071,4.4,9,3.846a.353.353,0,0,1,.42-.03c2.315,1.387,6.925,4.1,9.244,5.477a.247.247,0,0,1,.048.052c.04.251-.163.3-.308.386-1.041.609-3.629,2.229-3.629,2.229" transform="translate(-2.906 -2.103)" fill="#fff"/>
        <path id="Trazado_241261" data-name="Trazado 241261" d="M6.027,15.681c.386.213.653.355.914.5,1.95,1.119,3.89,2.254,5.853,3.35A2.107,2.107,0,0,1,13.822,20.8c1.3,3.848,2.619,7.686,3.933,11.528a2.092,2.092,0,0,0,.071.207c.059.127.063.33.228.34s.21-.183.279-.306c1.24-2.2,2.469-4.4,3.718-6.6.559-.981.4-.854,1.275-.359,2.085,1.177,4.143,2.4,6.23,3.575.466.263.515.471.214.91-2.072,3.014-4.123,6.043-6.179,9.068-.267.393-.506.809-.8,1.178a1.09,1.09,0,0,0-.12,1.212q3.609,9.372,7.191,18.754c.123.321.234.646.407,1.124-.491-.277-.861-.482-1.227-.695-1.927-1.121-3.847-2.255-5.784-3.36a1.878,1.878,0,0,1-.892-1.111q-1.95-5.737-3.934-11.462c-.111-.323-.245-.639-.375-.974-.3.156-.38.434-.512.663-1.269,2.2-2.541,4.4-3.785,6.621-.23.41-.417.5-.836.248q-3.278-1.942-6.585-3.835c-.388-.222-.4-.415-.17-.756q2.483-3.62,4.948-7.252c.71-1.043,1.407-2.1,2.141-3.122a1.185,1.185,0,0,0,.135-1.256c-1.285-3.327-2.542-6.664-3.809-10q-1.656-4.36-3.312-8.72c-.075-.2-.131-.4-.241-.744" transform="translate(-3.364 -8.774)" fill="#d677e6"/>
        <path id="Trazado_241262" data-name="Trazado 241262" d="M110.484,76.323h0a.536.536,0,0,0-.1-.1q-5.114-2.935-10.228-5.871a.558.558,0,0,0-.629.015q-2.42,1.41-4.851,2.8c-.158.09-.307.265-.53.152-.693-2.291-1.382-4.584-2.085-6.872-.092-.3-.078-.649-.348-.88a2.714,2.714,0,0,0-.268-.2q-4.977-2.857-9.954-5.717a.576.576,0,0,0-.667.024c-.9.526-1.809,1.032-2.712,1.552-1.013.585-2.022,1.177-3.032,1.766-.228.173-.053.355,0,.519q1.77,5.1,3.55,10.2,2.943,8.446,5.89,16.892a3.269,3.269,0,0,1,.183,1.1c0,3.881.013,7.761.013,11.641a.628.628,0,0,0,.326.637q4.59,2.653,9.168,5.322c.13.075.27.22.431.041a1.514,1.514,0,0,0,.175-.075q2.84-1.642,5.681-3.281a.383.383,0,0,0,.209-.39q0-6.2,0-12.4c1-1.653,1.993-3.314,2.908-5.018.859-1.282,1.611-2.628,2.355-3.978.5-.682.793-1.488,1.266-2.188a25.194,25.194,0,0,0,1.658-2.831c.634-.849,1.08-1.813,1.642-2.706.044-.07,0-.118-.055-.156" transform="translate(-41.948 -33.323)" fill="#5127bd"/>
        <path id="Trazado_241263" data-name="Trazado 241263" d="M93.01,95.359,97.6,85.6c.32-.681.324-.688.973-.317q2.968,1.7,5.93,3.406c.6.343.6.351.255.936-2.423,4.15-4.8,8.329-7.3,12.432a7.843,7.843,0,0,0-1.243,4.587c.107,2.751.03,5.509.028,8.264,0,.58-.014.6-.492.32-1.919-1.1-3.83-2.225-5.75-3.326a.882.882,0,0,1-.477-.872c.01-3.391,0-6.781,0-10.172a2.994,2.994,0,0,0-.159-1.006q-3.252-9.315-6.5-18.632-.924-2.652-1.851-5.3a2.121,2.121,0,0,1-.185-.762,4.8,4.8,0,0,1,.481.209c1.991,1.142,3.975,2.3,5.974,3.427a1.464,1.464,0,0,1,.726.92q1.124,3.741,2.267,7.476,1.23,4.04,2.465,8.079c.061.106.11.244.263.095" transform="translate(-45.231 -42.053)" fill="#d677e6"/>
        <path id="Trazado_241264" data-name="Trazado 241264" d="M27.569,22.646l2.515,8.908,3.109-5.842.429-.477-1.7-5.122Z" transform="translate(-15.426 -11.254)" fill="#f1dff3"/>
        <path id="Trazado_241265" data-name="Trazado 241265" d="M44.68,30.307l4.961-2.694,9.107,5.168-5.41,2.536Z" transform="translate(-25.001 -15.451)" fill="#fff"/>
        <path id="Trazado_241266" data-name="Trazado 241266" d="M47.644,56.854l7.588-10.921,4.151-1.995L52.033,54.355Z" transform="translate(-26.659 -24.586)" fill="#fff"/>
        <path id="Trazado_241267" data-name="Trazado 241267" d="M48.115,72.958,56.092,93.8l5-2.8-8.2-20.756Z" transform="translate(-26.923 -39.302)" fill="#fff"/>
        <path id="Trazado_241268" data-name="Trazado 241268" d="M26.465,92.089l2.8-4.787.924,2.547Z" transform="translate(-14.809 -48.85)" fill="#f1dff3"/>
        <path id="Trazado_241269" data-name="Trazado 241269" d="M78.632,65.317l8.974,5.12,4.372-2.644L83.311,62.62Z" transform="translate(-43.999 -35.039)" fill="#fff"/>
        <path id="Trazado_241270" data-name="Trazado 241270" d="M100.073,80.342l3.6,12.529,3.415-7.763-2.281-7.585Z" transform="translate(-55.996 -43.378)" fill="#fff"/>
        <path id="Trazado_241271" data-name="Trazado 241271" d="M126.121,87.619l-4.731,2.718,7.138,4.2,5.081-2.846Z" transform="translate(-67.924 -49.028)" fill="#fff"/>
        <path id="Trazado_241272" data-name="Trazado 241272" d="M133.12,100.745l-8.809,15.416V128l-4.68,2.725V119.3l9.029-16.241Z" transform="translate(-66.94 -56.372)" fill="#fff"/>
      </g>
    </g>
  </g>
</svg>
