<svg xmlns="http://www.w3.org/2000/svg" xmlns:xlink="http://www.w3.org/1999/xlink" width="275.615" height="255.113" viewBox="0 0 275.615 255.113">
  <defs>
    <clipPath id="clip-path">
      <rect id="Rectángulo_45270" data-name="Rectángulo 45270" width="257" height="255.112" fill="none"/>
    </clipPath>
  </defs>
  <g id="Grupo_180577" data-name="Grupo 180577" transform="translate(-1125.385 -439.943)">
    <path id="Trazado_241026" data-name="Trazado 241026" d="M95.01,1.892C74.749,4.771,55.327,11.107,38.825,22.06,14.819,37.995,1.5,61.817.113,87.723c-.917,17.1,3.826,33.774,9.553,50.011,7.369,20.889,12.123,44.683,27.511,62.537,23.955,27.795,70.256,39.5,108.977,34.53,25.016-3.214,51.449-15.448,59.144-37.559,2.849-8.187,4.237-16.983,9.107-24.548,5.836-9.065,16.42-14.36,24.456-21.74,9.927-9.118,13.926-20.477,16.4-32.493,5.412-26.3-1.979-54.161-19.824-75.975C216.813,19.719,189.184,7.509,157.816,2.7q-5.164-.791-10.372-1.347a213.141,213.141,0,0,0-52.434.537" transform="translate(1144.001 449.543)" fill="#fef536"/>
    <g id="Grupo_180574" data-name="Grupo 180574" transform="translate(1144 439.943)">
      <path id="Trazado_242115" data-name="Trazado 242115" d="M362.745,116.848,388,131.315l-.368,57.01-25.1,14.47-25.258-14.468.367-57.01Z" transform="translate(-227.8 -79.219)" fill="#1f1e37"/>
      <path id="Trazado_242116" data-name="Trazado 242116" d="M440.559,161.773l-.368,57.01-25.1,14.47.367-57.011Z" transform="translate(-280.355 -109.677)" fill="#5c22c3"/>
      <g id="Grupo_180573" data-name="Grupo 180573" transform="translate(0 0)">
        <g id="Grupo_180572" data-name="Grupo 180572" clip-path="url(#clip-path)">
          <path id="Trazado_242117" data-name="Trazado 242117" d="M413.406,232.363a.816.816,0,0,1-.407-.109.8.8,0,0,1-.4-.7l.367-57.01a.8.8,0,0,1,.4-.691l25.1-14.47a.818.818,0,0,1,.815,0,.8.8,0,0,1,.4.7l-.368,57.01a.8.8,0,0,1-.4.691l-25.1,14.47a.814.814,0,0,1-.408.109m1.176-57.35-.355,55.141,23.467-13.531.356-55.141Z" transform="translate(-278.667 -107.982)" fill="#12263f"/>
          <path id="Trazado_242118" data-name="Trazado 242118" d="M362.907,176.247l-.367,57.01-25.258-14.468.367-57.01Z" transform="translate(-227.8 -109.681)" fill="#5c22c3"/>
          <path id="Trazado_242119" data-name="Trazado 242119" d="M360.851,232.367a.813.813,0,0,1-.406-.108l-25.258-14.468a.8.8,0,0,1-.406-.7l.367-57.01a.8.8,0,0,1,.408-.694.817.817,0,0,1,.809,0l25.258,14.468a.8.8,0,0,1,.406.7l-.367,57.01a.8.8,0,0,1-.408.693.815.815,0,0,1-.4.107m-24.444-15.736,23.641,13.542.356-55.158-23.641-13.541Z" transform="translate(-226.111 -107.986)" fill="#12263f"/>
          <path id="Trazado_242120" data-name="Trazado 242120" d="M388.768,131.316l-25.1,14.469-25.258-14.467,25.1-14.469Z" transform="translate(-228.564 -79.219)" fill="#fff"/>
          <path id="Trazado_242121" data-name="Trazado 242121" d="M361.983,144.9a.817.817,0,0,1-.406-.108L336.319,130.32a.8.8,0,0,1,0-1.393l25.1-14.469a.816.816,0,0,1,.813,0l25.259,14.467a.8.8,0,0,1,0,1.393l-25.1,14.47a.818.818,0,0,1-.408.109M338.344,129.62l23.638,13.54,23.479-13.537-23.638-13.539Z" transform="translate(-226.876 -77.524)" fill="#12263f"/>
          <path id="Trazado_242122" data-name="Trazado 242122" d="M461.31,2.5l25.261,14.469-.367,112.16-25.1,14.469-25.26-14.469.367-112.16Z" transform="translate(-294.371 -1.695)" fill="#1f1e37"/>
          <path id="Trazado_242123" data-name="Trazado 242123" d="M539.13,47.429l-.368,112.16-25.1,14.469L514.034,61.9Z" transform="translate(-346.93 -32.156)" fill="#fef536"/>
          <path id="Trazado_242124" data-name="Trazado 242124" d="M511.979,173.169a.82.82,0,0,1-.406-.108.8.8,0,0,1-.406-.7L511.534,60.2a.8.8,0,0,1,.4-.694l25.1-14.47a.818.818,0,0,1,.814,0,.8.8,0,0,1,.406.7l-.367,112.16a.8.8,0,0,1-.4.693l-25.1,14.469a.82.82,0,0,1-.408.109m1.177-112.5-.361,110.294,23.47-13.531.361-110.295Z" transform="translate(-345.242 -30.461)" fill="#12263f"/>
          <path id="Trazado_242125" data-name="Trazado 242125" d="M461.474,61.9l-.367,112.159-25.261-14.469.367-112.16Z" transform="translate(-294.371 -32.157)" fill="#fef536"/>
          <path id="Trazado_242126" data-name="Trazado 242126" d="M459.419,173.17a.815.815,0,0,1-.406-.108l-25.26-14.469a.8.8,0,0,1-.406-.7l.367-112.16a.8.8,0,0,1,.407-.7.817.817,0,0,1,.81,0l25.26,14.469a.8.8,0,0,1,.406.7l-.367,112.16a.8.8,0,0,1-.407.7.814.814,0,0,1-.4.107m-24.447-15.738,23.64,13.541.361-110.3-23.64-13.541Z" transform="translate(-292.682 -30.462)" fill="#12263f"/>
          <path id="Trazado_242127" data-name="Trazado 242127" d="M487.335,16.969l-25.1,14.47L436.977,16.97,462.074,2.5Z" transform="translate(-295.134 -1.695)" fill="#fff"/>
          <path id="Trazado_242128" data-name="Trazado 242128" d="M460.55,30.549a.817.817,0,0,1-.406-.108l-25.26-14.469a.8.8,0,0,1,0-1.393l25.1-14.47a.817.817,0,0,1,.813,0l25.261,14.469a.8.8,0,0,1,0,1.393l-25.1,14.47a.818.818,0,0,1-.408.109M436.908,15.273l23.64,13.541,23.479-13.537L460.387,1.736Z" transform="translate(-293.446 0)" fill="#12263f"/>
          <path id="Trazado_242129" data-name="Trazado 242129" d="M637.7,142.149l-.368,99.983-25.1,14.468.367-99.983Z" transform="translate(-413.501 -96.372)" fill="#ba68c8"/>
          <path id="Trazado_242130" data-name="Trazado 242130" d="M610.543,255.711a.814.814,0,0,1-.406-.108.805.805,0,0,1-.405-.7l.367-99.983a.8.8,0,0,1,.4-.693l25.1-14.468a.817.817,0,0,1,.814,0,.8.8,0,0,1,.405.7l-.367,99.983a.8.8,0,0,1-.4.693l-25.1,14.468a.814.814,0,0,1-.407.109m1.177-100.324L611.36,253.5l23.47-13.531.362-98.117Z" transform="translate(-411.813 -94.677)" fill="#12263f"/>
          <path id="Trazado_242131" data-name="Trazado 242131" d="M560.039,156.618l-.368,99.983L534.41,242.132l.368-99.983Z" transform="translate(-360.941 -96.373)" fill="#ba68c8"/>
          <path id="Trazado_242132" data-name="Trazado 242132" d="M557.982,255.71a.814.814,0,0,1-.406-.108l-25.261-14.469a.8.8,0,0,1-.406-.7l.368-99.983a.8.8,0,0,1,.407-.695.816.816,0,0,1,.81,0l25.26,14.468a.8.8,0,0,1,.406.7l-.367,99.983a.8.8,0,0,1-.407.695.816.816,0,0,1-.4.107m-24.448-15.737,23.641,13.541.361-98.128L533.9,141.845Z" transform="translate(-359.252 -94.677)" fill="#12263f"/>
          <path id="Trazado_242133" data-name="Trazado 242133" d="M585.9,111.688l-25.1,14.469-25.26-14.469,25.1-14.469Z" transform="translate(-361.706 -65.911)" fill="#fff"/>
          <path id="Trazado_242134" data-name="Trazado 242134" d="M559.115,125.266a.816.816,0,0,1-.406-.108l-25.26-14.469a.8.8,0,0,1,0-1.393l25.1-14.469a.817.817,0,0,1,.813,0L584.617,109.3a.8.8,0,0,1,0,1.393l-25.1,14.469a.818.818,0,0,1-.408.109M535.473,109.99l23.64,13.541,23.479-13.536-23.64-13.541Z" transform="translate(-360.017 -64.216)" fill="#12263f"/>
          <path id="Trazado_242135" data-name="Trazado 242135" d="M736.26,383.519l-.367,40.58-25.1,14.469.368-40.58Z" transform="translate(-480.072 -260.013)" fill="#80b3f2"/>
          <path id="Trazado_242136" data-name="Trazado 242136" d="M709.108,437.678a.819.819,0,0,1-.408-.109.8.8,0,0,1-.4-.7l.368-40.58a.8.8,0,0,1,.4-.688l25.1-14.469a.818.818,0,0,1,.816,0,.8.8,0,0,1,.4.7l-.367,40.58a.8.8,0,0,1-.4.689l-25.1,14.469a.819.819,0,0,1-.408.109m1.175-40.919-.351,38.708L733.4,421.939l.351-38.708Z" transform="translate(-478.383 -258.319)" fill="#12263f"/>
          <path id="Trazado_242137" data-name="Trazado 242137" d="M658.6,397.988l-.368,40.58L632.975,424.1l.368-40.58Z" transform="translate(-427.511 -260.013)" fill="#80b3f2"/>
          <path id="Trazado_242138" data-name="Trazado 242138" d="M656.547,437.677a.813.813,0,0,1-.406-.108L630.881,423.1a.8.8,0,0,1-.406-.7l.368-40.58a.8.8,0,0,1,.409-.692.816.816,0,0,1,.808,0l25.26,14.469a.8.8,0,0,1,.406.7l-.368,40.58a.8.8,0,0,1-.409.692.815.815,0,0,1-.4.106M632.1,421.942l23.646,13.544.351-38.731-23.646-13.544Z" transform="translate(-425.823 -258.318)" fill="#12263f"/>
          <path id="Trazado_242139" data-name="Trazado 242139" d="M684.467,353.059l-25.1,14.469-25.26-14.469,25.1-14.469Z" transform="translate(-428.278 -229.553)" fill="#fff"/>
          <path id="Trazado_242140" data-name="Trazado 242140" d="M657.683,366.637a.82.82,0,0,1-.406-.108l-25.26-14.469a.8.8,0,0,1,0-1.393l25.1-14.469a.818.818,0,0,1,.813,0l25.261,14.469a.8.8,0,0,1,0,1.394l-25.1,14.469a.817.817,0,0,1-.408.109m-23.642-15.276,23.64,13.541,23.478-13.536-23.64-13.541Z" transform="translate(-426.59 -227.858)" fill="#12263f"/>
          <path id="Trazado_242141" data-name="Trazado 242141" d="M78.61,327.319a23.536,23.536,0,0,1,11.441,2.719l4.518,2.588.253-.144L209.4,398.113l-.247.142,11.2,6.418a9.328,9.328,0,0,1,4.466,4.793,5.517,5.517,0,0,1,.3,2.032c0-.07.009-.141.009-.211L225.1,420c-.007,2.361-1.57,4.718-4.694,6.519L160.423,461.1a25.369,25.369,0,0,1-22.853,0L7.268,386.464c-3.185-1.824-4.775-4.22-4.768-6.611l.025-8.666h0v-.045c0,.007,0,.014,0,.02,0-2.368,1.561-4.734,4.692-6.54L67.2,330.038a23.349,23.349,0,0,1,11.409-2.719m146.515,83.968h0Z" transform="translate(-1.688 -221.912)" fill="#1f1e37"/>
          <path id="Trazado_242142" data-name="Trazado 242142" d="M220.43,510.061l-59.984,34.582c-6.287,3.624-16.522,3.625-22.854,0L7.292,470.007h0c-3.184-1.824-3.6-3.117-4.768-6.611L2.5,472.108c-.006,2.391,1.583,4.787,4.768,6.611l130.3,74.634c6.331,3.627,16.567,3.627,22.854,0l59.983-34.583c3.124-1.8,4.687-4.159,4.694-6.519l.025-8.712c-.007,2.361-1.57,4.717-4.694,6.519" transform="translate(-1.688 -314.167)" fill="#d3d4de"/>
          <path id="Trazado_242143" data-name="Trazado 242143" d="M147.326,555.168a24.383,24.383,0,0,1-11.851-2.813L5.173,477.721C1.829,475.806-.008,473.209,0,470.41L.025,461.7a.812.812,0,0,1,1.581-.252l.029.087c1.14,3.4,1.484,4.425,4.374,6.081l130.3,74.635c6.1,3.492,15.985,3.493,22.04,0l59.984-34.583c2.76-1.591,4.284-3.661,4.29-5.825a.808.808,0,0,1,.811-.8h0a.808.808,0,0,1,.809.807l-.025,8.712c-.009,2.761-1.819,5.322-5.1,7.213l-59.984,34.583a24.2,24.2,0,0,1-11.816,2.812M1.636,465.827l-.013,4.588c-.006,2.2,1.543,4.3,4.362,5.912l130.3,74.634c6.1,3.493,15.984,3.495,22.04,0l59.983-34.582c2.76-1.592,4.284-3.661,4.291-5.826l.012-4.359a12.156,12.156,0,0,1-3.463,2.864l-59.984,34.582c-6.5,3.749-17.12,3.75-23.667,0L5.2,469.009a9.007,9.007,0,0,1-3.562-3.182m217.107,42.539h0Z" transform="translate(0 -312.471)" fill="#12263f"/>
          <path id="Trazado_242144" data-name="Trazado 242144" d="M220.4,404.673c6.331,3.626,6.369,9.506.079,13.133L160.5,452.388c-6.287,3.624-16.522,3.625-22.853,0L7.343,377.752c-6.328-3.624-6.361-9.506-.074-13.131l59.983-34.583c6.29-3.626,16.522-3.624,22.85,0Z" transform="translate(-1.739 -221.912)" fill="#f1f2f7"/>
          <path id="Trazado_242145" data-name="Trazado 242145" d="M220.4,404.673c6.331,3.626,6.369,9.506.079,13.133L160.5,452.388c-6.287,3.624-16.522,3.625-22.853,0L7.343,377.752c-6.328-3.624-6.361-9.506-.074-13.131l59.983-34.583c6.29-3.626,16.522-3.624,22.85,0Z" transform="translate(-1.739 -221.912)" fill="#fff"/>
          <path id="Trazado_242146" data-name="Trazado 242146" d="M147.4,454.235a24.381,24.381,0,0,1-11.85-2.812L5.25,376.787c-3.332-1.908-5.17-4.5-5.173-7.284,0-2.771,1.806-5.343,5.1-7.24l59.983-34.583c6.5-3.75,17.119-3.75,23.663,0l130.3,74.635c3.335,1.91,5.174,4.5,5.178,7.287,0,2.771-1.806,5.341-5.1,7.239l-59.984,34.582a24.2,24.2,0,0,1-11.817,2.812M76.974,326.455a22.532,22.532,0,0,0-11,2.617L5.989,363.655C3.22,365.252,1.7,367.328,1.7,369.5c0,2.19,1.552,4.283,4.362,5.892l130.3,74.635c6.1,3.492,15.985,3.493,22.04,0l59.984-34.582c2.77-1.6,4.293-3.672,4.29-5.845,0-2.19-1.554-4.284-4.367-5.895l-130.3-74.635a22.71,22.71,0,0,0-11.035-2.619" transform="translate(-0.052 -220.25)" fill="#12263f"/>
          <path id="Trazado_242147" data-name="Trazado 242147" d="M228.728,408.982,145.7,456.536,31.122,390.909l83.031-47.559Z" transform="translate(-21.02 -232.78)" fill="#d7e9fd"/>
          <path id="Trazado_242148" data-name="Trazado 242148" d="M142.324,455.509l-116.2-66.557,84.654-48.489,116.2,66.562ZM29.368,388.952l112.956,64.7,81.4-46.625-112.951-64.7Z" transform="translate(-17.643 -230.823)" fill="#12263f"/>
          <path id="Trazado_242149" data-name="Trazado 242149" d="M130.44,381.137l-14.824,8.491a4.157,4.157,0,0,1-3.732,0,1.125,1.125,0,0,1,0-2.138L126.708,379a4.151,4.151,0,0,1,3.732,0,1.126,1.126,0,0,1,0,2.138" transform="translate(-75.044 -256.649)" fill="#1f1e37"/>
          <path id="Trazado_242150" data-name="Trazado 242150" d="M112.887,389.615a4.251,4.251,0,0,1-2.073-.5,1.525,1.525,0,0,1,0-2.849l14.824-8.491a4.548,4.548,0,0,1,4.146,0,1.525,1.525,0,0,1,0,2.849l-14.824,8.492a4.252,4.252,0,0,1-2.073.5M127.712,378.1a3.43,3.43,0,0,0-1.659.387l-14.824,8.491c-.36.206-.566.465-.566.713s.206.508.566.713a3.758,3.758,0,0,0,3.318,0l14.824-8.491c.36-.206.566-.466.566-.713s-.206-.507-.566-.713a3.427,3.427,0,0,0-1.658-.387" transform="translate(-74.182 -255.781)" fill="#1f1e37"/>
          <path id="Trazado_242151" data-name="Trazado 242151" d="M179.942,365.59a5.881,5.881,0,0,0-5.283,0c-1.459.835-1.459,2.19,0,3.026a5.879,5.879,0,0,0,5.283,0c1.459-.836,1.459-2.191,0-3.026" transform="translate(-117.225 -247.433)" fill="#1f1e37"/>
          <path id="Trazado_242152" data-name="Trazado 242152" d="M176.438,368.785a5.842,5.842,0,0,1-2.849-.686,1.993,1.993,0,0,1,0-3.738,6.258,6.258,0,0,1,5.7,0,1.993,1.993,0,0,1,0,3.738,5.844,5.844,0,0,1-2.849.686m0-4.279a5.034,5.034,0,0,0-2.435.567,1.2,1.2,0,0,0,0,2.315,5.511,5.511,0,0,0,4.87,0,1.2,1.2,0,0,0,0-2.315,5.033,5.033,0,0,0-2.435-.567" transform="translate(-116.363 -246.559)" fill="#1f1e37"/>
          <path id="Trazado_242153" data-name="Trazado 242153" d="M97.565,417.491a3.038,3.038,0,0,0-2.731,0,.824.824,0,0,0,0,1.564,3.04,3.04,0,0,0,2.731,0,.824.824,0,0,0,0-1.564" transform="translate(-63.669 -282.825)" fill="#1f1e37"/>
          <path id="Trazado_242154" data-name="Trazado 242154" d="M95.337,418.925a3.223,3.223,0,0,1-1.572-.379,1.224,1.224,0,0,1,0-2.275,3.455,3.455,0,0,1,3.145,0,1.224,1.224,0,0,1,0,2.275,3.225,3.225,0,0,1-1.573.379m0-2.213a2.4,2.4,0,0,0-1.158.27c-.224.129-.359.288-.359.426s.134.3.359.426a2.621,2.621,0,0,0,2.317,0c.224-.128.359-.288.359-.426s-.134-.3-.359-.426a2.4,2.4,0,0,0-1.159-.27" transform="translate(-62.807 -281.961)" fill="#1f1e37"/>
          <path id="Trazado_242155" data-name="Trazado 242155" d="M507.744,631.2a3.418,3.418,0,0,1-1.668-.4l-7.785-4.459a1.367,1.367,0,0,1,0-2.528l17.7-10.136a3.665,3.665,0,0,1,3.338,0l7.785,4.459a1.368,1.368,0,0,1,0,2.529h0l-17.7,10.136a3.423,3.423,0,0,1-1.668.4" transform="translate(-335.973 -415.778)" fill="#12263f"/>
          <path id="Trazado_242156" data-name="Trazado 242156" d="M581.106,661.649v4.313l-6.84,3.917v-4.313Z" transform="translate(-387.859 -448.576)" fill="#12263f"/>
          <path id="Trazado_242157" data-name="Trazado 242157" d="M148,561.378a23.909,23.909,0,0,1-11.65-2.774L6.042,483.726c-3.214-1.847-4.98-4.328-4.973-6.988a.41.41,0,0,1,.411-.407h0a.41.41,0,0,1,.41.41c-.007,2.353,1.614,4.583,4.563,6.277L136.76,557.9c6.208,3.568,16.276,3.569,22.442,0L219.188,523.2c2.889-1.671,4.483-3.869,4.49-6.187a.423.423,0,0,1,.412-.408.409.409,0,0,1,.409.41c-.007,2.621-1.747,5.069-4.9,6.892l-59.986,34.695A23.721,23.721,0,0,1,148,561.378" transform="translate(-0.722 -322.937)" fill="#12263f"/>
          <path id="Trazado_242158" data-name="Trazado 242158" d="M216.662,410.789l-12.147,7c-10.188-5.835-26.654-5.834-36.776,0-6.771,3.9-8.989,9.434-6.663,14.412L144.6,434.744c-6.244-13.229,7.341-26.827,30.342-30.372,15.317-2.362,30.46-.032,41.72,6.417" transform="translate(-96.637 -273.54)" fill="#fef536"/>
          <path id="Trazado_242159" data-name="Trazado 242159" d="M142.434,433.948l-.258-.546a15.558,15.558,0,0,1,.408-14.5c4.509-8.4,15.927-14.759,30.544-17.012,15.461-2.383,30.86-.009,42.251,6.516l1.214.695-13.766,7.936-.407-.233c-9.947-5.7-26.08-5.7-35.962,0-6.207,3.579-8.575,8.581-6.334,13.378l.453.97ZM184.872,402.6a75.522,75.522,0,0,0-11.494.887c-14.115,2.175-25.09,8.223-29.36,16.177a13.983,13.983,0,0,0-.618,12.509l14.85-2.288c-1.861-5.256.894-10.721,7.393-14.469,10.2-5.878,26.752-5.956,37.177-.233l10.512-6.06c-8.04-4.28-17.982-6.524-28.46-6.524" transform="translate(-94.948 -271.856)" fill="#12263f"/>
          <path id="Trazado_242160" data-name="Trazado 242160" d="M182.737,503.3l-4.365,9.476a56.787,56.787,0,0,1-19.5-6.349c-5.216-2.987-9.033-6.781-11.112-11.186l16.476-2.539a15.9,15.9,0,0,0,6.783,6.721,34.085,34.085,0,0,0,11.719,3.877" transform="translate(-99.796 -334.034)" fill="#ba68c8"/>
          <path id="Trazado_242161" data-name="Trazado 242161" d="M176.371,511.792l-.607-.093a57.3,57.3,0,0,1-19.783-6.447c-5.451-3.122-9.3-7.005-11.441-11.542l-.459-.972,18.148-2.8.257.55a15.217,15.217,0,0,0,6.452,6.362,33.375,33.375,0,0,0,11.437,3.778l1.061.162Zm-29.871-17.8c2.075,3.823,5.532,7.137,10.292,9.863a55.148,55.148,0,0,0,18.614,6.155l3.668-7.963a34.362,34.362,0,0,1-10.947-3.8,17.3,17.3,0,0,1-6.839-6.532Z" transform="translate(-97.312 -332.164)" fill="#12263f"/>
          <path id="Trazado_242162" data-name="Trazado 242162" d="M294.749,437.314c-2.078-4.407-5.6-7.892-11.231-11.118l-12.147,7a15.948,15.948,0,0,1,6.762,6.675c2.361,4.992.152,10.543-6.643,14.46-6.771,3.9-16.384,5.2-25.056,3.876l-4.364,9.476a70.885,70.885,0,0,0,22.339,0c23-3.544,36.584-17.142,30.34-30.371" transform="translate(-163.494 -288.947)" fill="#5c22c3"/>
          <path id="Trazado_242163" data-name="Trazado 242163" d="M250.781,467.414a73.811,73.811,0,0,1-11.3-.89l-1.059-.163,5.065-11,.606.092c8.77,1.336,18.167-.111,24.525-3.776,6.23-3.592,8.591-8.609,6.316-13.422a15.267,15.267,0,0,0-6.434-6.32l-1.213-.7,13.765-7.936.407.233c5.747,3.292,9.421,6.938,11.56,11.474a15.56,15.56,0,0,1-.408,14.5c-4.509,8.4-15.927,14.757-30.542,17.009a73.645,73.645,0,0,1-11.29.89m-9.987-2.325a70.346,70.346,0,0,0,21.028-.157c14.113-2.174,25.088-8.221,29.359-16.175a14.016,14.016,0,0,0,.371-13.06h0c-1.969-4.175-5.216-7.435-10.5-10.528l-10.566,6.091a16,16,0,0,1,5.917,6.313c2.631,5.564-.04,11.5-6.97,15.5-6.515,3.757-16.033,5.3-24.978,4.064Z" transform="translate(-161.031 -286.989)" fill="#12263f"/>
          <path id="Trazado_242164" data-name="Trazado 242164" d="M366.607,499.211,305.178,534.4l-8.283-4.744,61.429-35.187Z" transform="translate(-200.523 -335.232)" fill="#5c22c3"/>
          <path id="Trazado_242165" data-name="Trazado 242165" d="M301.8,533.371,291.9,527.7l63.052-36.116,9.905,5.674Zm-6.659-5.674,6.659,3.814,59.806-34.257-6.659-3.815Z" transform="translate(-197.146 -333.276)" fill="#12263f"/>
          <path id="Trazado_242166" data-name="Trazado 242166" d="M403.464,520.491l-61.429,35.187-8.283-4.744,61.429-35.187Z" transform="translate(-225.416 -349.659)" fill="#ba68c8"/>
          <path id="Trazado_242167" data-name="Trazado 242167" d="M338.658,554.651l-9.906-5.674L391.8,512.861l9.906,5.674ZM332,548.977l6.66,3.814,59.806-34.257-6.66-3.815Z" transform="translate(-222.039 -347.703)" fill="#12263f"/>
          <path id="Trazado_242168" data-name="Trazado 242168" d="M440.321,541.771l-61.429,35.186-8.283-4.744,61.43-35.187Z" transform="translate(-250.31 -364.086)" fill="#fef536"/>
          <path id="Trazado_242169" data-name="Trazado 242169" d="M375.515,575.93l-9.906-5.674,63.053-36.116,9.905,5.674Zm-6.659-5.674,6.659,3.815,59.806-34.257L428.662,536Z" transform="translate(-246.932 -362.129)" fill="#12263f"/>
          <path id="Trazado_242170" data-name="Trazado 242170" d="M629.588,770.576c-1.482-1.4-3.667-1.4-5.515-1.748q-1.176-.223-2.366-.359a2.025,2.025,0,0,0-1,.062c-.791.329-.972,1.84-.72,2.568a2.229,2.229,0,0,0,1.066,1.162,4.971,4.971,0,0,0,2.394.616,4.534,4.534,0,0,1,2.383.523c.976.539,1.716,1.163,2.852,1.039a2.09,2.09,0,0,0,1.329-3.4,4.19,4.19,0,0,0-.419-.461" transform="translate(-418.665 -520.974)" fill="#12263f"/>
          <path id="Trazado_242171" data-name="Trazado 242171" d="M588.579,775.72a1.918,1.918,0,0,0-.857-.9,3.96,3.96,0,0,0-2.02-.28,16.232,16.232,0,0,0-1.93.116,4.983,4.983,0,0,1-1.515.229c-.815-.083-1.615-.281-2.434-.325a2.863,2.863,0,0,0-1.237.124,2.09,2.09,0,0,0,.325,3.747,5.389,5.389,0,0,0,2.539.476,4.949,4.949,0,0,1,2.523.383c1.384.639,3,1.558,4.383.29a2.027,2.027,0,0,0,.59-1.344,5.072,5.072,0,0,0-.366-2.512" transform="translate(-390.119 -525.098)" fill="#12263f"/>
          <path id="Trazado_242172" data-name="Trazado 242172" d="M614.136,614.978c-.229-1.116-11.275-1.575-13.611-1.347-2.592.253-3.363-4.392-4.036-1.642-.924,3.776-1.42,14.284-1.385,18.138q.07,7.707.139,15.414c.052,5.8.093,9.724.145,15.529.014,1.579.13,3.391,1.289,4.35a2.84,2.84,0,0,0,3.609-.446c.948-1.155,5.146-37.1,5.146-37.1l.747-.02s1.869,35.549,2.339,36.348c1.059,1.8,4.247,2.117,4.864.3.746-2.2,1.207-47.309.753-49.524" transform="translate(-401.931 -414.317)" fill="#fef536"/>
          <path id="Trazado_242173" data-name="Trazado 242173" d="M596.458,664.983a3.118,3.118,0,0,1-1.989-.643c-1.548-1.281-1.57-3.676-1.581-4.962-.026-2.828-.048-5.209-.071-7.578-.024-2.493-.048-4.974-.074-7.951l-.139-15.414c-.031-3.521.422-14.306,1.408-18.336.1-.425.321-1.31,1.082-1.467.73-.153,1.2.462,1.65,1.053.639.835,1.234,1.523,2.013,1.445a63.434,63.434,0,0,1,7.735.168c6.475.474,6.628,1.22,6.751,1.82.4,1.975.14,47.237-.779,49.942a2.681,2.681,0,0,1-2.387,1.741,4.187,4.187,0,0,1-3.947-1.9c-.175-.3-.392-.666-1.455-18.833-.275-4.692-.535-9.39-.72-12.792-.415,3.456-1,8.28-1.622,13.111-2.365,18.492-2.828,19.055-3.1,19.392a3.5,3.5,0,0,1-2.382,1.181q-.2.018-.388.019m-.933-54.227c-.873,3.958-1.331,14.107-1.3,17.665l.139,15.414c.027,2.976.05,5.456.075,7.95.022,2.37.045,4.75.071,7.579.013,1.525.144,3.033,1,3.74a1.709,1.709,0,0,0,1.181.258,1.944,1.944,0,0,0,1.237-.546c.738-1.827,3.457-23.431,5.011-36.737l.081-.693,2.241-.062.042.785c.716,13.62,1.9,34.269,2.274,36.057a2.625,2.625,0,0,0,2.336,1.033,1.1,1.1,0,0,0,1.013-.654c.585-1.948,1.23-44.6.76-48.88-1.522-.673-10.29-1.174-12.769-.932-1.678.164-2.742-1.131-3.391-1.977m16.127,2.683Z" transform="translate(-400.243 -412.617)" fill="#12263f"/>
          <path id="Trazado_242174" data-name="Trazado 242174" d="M641.664,642.872l-4.008.846.249,3.05,2.32.8,1.663-1.676Z" transform="translate(-430.673 -435.846)" fill="#1f1e37"/>
          <path id="Trazado_242175" data-name="Trazado 242175" d="M616.6,531.733c-.106,6.744-2.207,13.43-1.507,20.14.355,3.407,1.316,7.581-2.19,9.666a13.4,13.4,0,0,1-4.824,1.442,23.983,23.983,0,0,1-6.132.381c-1.557-.157-4.339-.519-5.171-2.046a10.835,10.835,0,0,1-.615-3.907c-.091-1.254.3-22.744.959-24.485,1.5-3.956,6.559-6.229,10.316-7.448,2.5-.81,4.947-1.364,7.1.542a7.246,7.246,0,0,1,2.065,5.714" transform="translate(-402.639 -355.749)" fill="#fff"/>
          <path id="Trazado_242176" data-name="Trazado 242176" d="M601.78,562.559a15.687,15.687,0,0,1-1.572-.075c-2.2-.222-4.843-.7-5.8-2.465a8.844,8.844,0,0,1-.672-3.574c-.012-.234-.023-.456-.038-.657-.014-.186.2-22.7,1.009-24.826,1.265-3.342,4.907-6.009,10.823-7.93,2.512-.815,5.4-1.5,7.892.706,1.594,1.412,2.38,3.541,2.336,6.328a69.866,69.866,0,0,1-.833,8.505,48.249,48.249,0,0,0-.679,11.539c.038.366.083.741.129,1.121.386,3.2.867,7.192-2.709,9.319a13.984,13.984,0,0,1-5.113,1.546,30.654,30.654,0,0,1-4.77.463m7.711-38.708a11.629,11.629,0,0,0-3.459.712c-3.73,1.211-8.46,3.4-9.808,6.966-.577,1.589-1,22.867-.91,24.144.016.212.028.446.04.692a7.9,7.9,0,0,0,.479,2.889c.674,1.237,3.583,1.531,4.539,1.628a23.258,23.258,0,0,0,5.923-.376,12.661,12.661,0,0,0,4.534-1.337c2.674-1.59,2.3-4.719,1.931-7.746-.047-.389-.093-.772-.132-1.147a49.418,49.418,0,0,1,.686-11.926,68.684,68.684,0,0,0,.817-8.309c.036-2.3-.568-4.015-1.794-5.1a4.067,4.067,0,0,0-2.847-1.089" transform="translate(-400.981 -354.07)" fill="#1f1e37"/>
          <path id="Trazado_242177" data-name="Trazado 242177" d="M620.621,484.079a7.653,7.653,0,0,0-3.027-5.826A7.955,7.955,0,0,0,609.93,478c-.742.455-1.046,2-1.339,2.783a15.432,15.432,0,0,0-.94,4.273,15,15,0,0,0,.417,4.823,3.385,3.385,0,0,0,1.382,2.245,3.28,3.28,0,0,0,1.837.272c-.038,2.262.086,2.595.223,2.974.689,1.9,6.724,1.128,6.715-1.14,0-.871-.079-1.6-.25-4.108a6.365,6.365,0,0,0,1.819-1.863,6.983,6.983,0,0,0,.827-4.184" transform="translate(-410.378 -323.483)" fill="#fff"/>
          <path id="Trazado_242178" data-name="Trazado 242178" d="M612.368,495.559c-1.5,0-2.9-.461-3.311-1.609a6.28,6.28,0,0,1-.278-2.432,3.323,3.323,0,0,1-1.415-.384,4.159,4.159,0,0,1-1.771-2.749,15.736,15.736,0,0,1-.44-5.08,16.181,16.181,0,0,1,.989-4.5c.062-.164.123-.365.19-.581a4.518,4.518,0,0,1,1.483-2.605,8.748,8.748,0,0,1,8.546.267,8.354,8.354,0,0,1,3.38,6.43h0a7.756,7.756,0,0,1-.942,4.663,6.907,6.907,0,0,1-1.674,1.828c.036.514.067.945.093,1.314.086,1.207.126,1.758.129,2.408.005,1.4-1.372,2.513-3.593,2.9a8.112,8.112,0,0,1-1.385.123m-1.945-5.72-.015.88a7.093,7.093,0,0,0,.174,2.682c.133.37,1.325.723,2.891.45,1.264-.221,2.253-.8,2.251-1.309,0-.6-.041-1.13-.125-2.3-.034-.471-.075-1.041-.123-1.757l-.031-.451.372-.261a5.506,5.506,0,0,0,1.593-1.622,6.313,6.313,0,0,0,.712-3.7,6.864,6.864,0,0,0-2.673-5.222,7.164,7.164,0,0,0-6.783-.23c-.315.193-.62,1.179-.784,1.709-.077.25-.15.481-.221.671a14.588,14.588,0,0,0-.891,4.051,14.144,14.144,0,0,0,.395,4.565,1.9,1.9,0,0,0,2.373,1.912Z" transform="translate(-408.689 -321.787)" fill="#1f1e37"/>
          <path id="Trazado_242179" data-name="Trazado 242179" d="M610.594,475.416a4.818,4.818,0,0,0-.449-.382,2.271,2.271,0,0,1-1.016-1.218,1.5,1.5,0,0,1,.426-1.28,3.961,3.961,0,0,1,1.158-.785,12.245,12.245,0,0,1,3.469-1.218,8.606,8.606,0,0,1,7.852,2.906l.057.069c3.624,4.448,1.777,12.438-4.4,13.355a3.528,3.528,0,0,1-2.141-.238,2.85,2.85,0,0,1-1.352-1.766,4.321,4.321,0,0,1,.34-2.492,1.478,1.478,0,0,0-.324-1.5c-1.171-.973-1.647,1.108-2.6,1.039a.74.74,0,0,1-.606-.581,2.139,2.139,0,0,1,.023-.886c.138-.824.233-1.67.417-2.485a2.007,2.007,0,0,0-.239-1.675,3.146,3.146,0,0,0-.616-.866" transform="translate(-411.39 -318.933)" fill="#1f1e37"/>
          <path id="Trazado_242180" data-name="Trazado 242180" d="M629.479,471.544a2.173,2.173,0,0,0-.226.391,1.8,1.8,0,0,1-.451.676c-.221.174-.409.161-.5.466a1.655,1.655,0,0,1-.482.992c-.217.18-.6.265-.549.623.06.407.526.447.776.721.219.24.361.555.747.5.4-.056.828-.078,1.22-.16s.781-.237,1.188-.312c.675-.124,2.058-.114,2.4.808a3.891,3.891,0,0,1-1.581.394,1.448,1.448,0,0,0-1.194.631c-.119.215-.339.536-.168.811.26.419.91.2,1.3.167a7.725,7.725,0,0,0,3.3-.576c.132-.078.251-.166.377-.249.366-.239.768-.391,1.145-.6a4.256,4.256,0,0,1,1.267-.449,3.019,3.019,0,0,0,.654-.169c.744-.332.847-1.33.757-2.04a1.952,1.952,0,0,0-.818-1.4c-.5-.321-1.015-.211-1.547-.358a9.947,9.947,0,0,1-1.562-.436c-.458-.211-.923-.4-1.389-.583a6.272,6.272,0,0,0-2.306-.442,7.243,7.243,0,0,0-1.193.087c-.572.1-.892.149-1.165.511" transform="translate(-423.654 -319.286)" fill="#fff"/>
          <path id="Trazado_242181" data-name="Trazado 242181" d="M629.863,477.626a1.221,1.221,0,0,1-1.114-.556,1.331,1.331,0,0,1,.117-1.4l.034-.06a1.958,1.958,0,0,1,1.5-.933,2.806,2.806,0,0,0-.43.044,5.535,5.535,0,0,0-.566.147c-.193.057-.393.117-.607.161a8.452,8.452,0,0,1-.84.118c-.143.015-.284.03-.423.049a1.268,1.268,0,0,1-1.219-.589c-.032-.04-.064-.081-.1-.119a1.146,1.146,0,0,0-.177-.111,1.308,1.308,0,0,1-.761-.948,1.119,1.119,0,0,1,.661-1.139.917.917,0,0,0,.114-.072c.11-.091.136-.16.209-.441.02-.078.042-.158.067-.242a1.152,1.152,0,0,1,.614-.722.737.737,0,0,0,.106-.064,1.449,1.449,0,0,0,.265-.441,2.8,2.8,0,0,1,.3-.508,2.121,2.121,0,0,1,1.559-.756,7.733,7.733,0,0,1,1.316-.1,7.1,7.1,0,0,1,2.547.487c.39.152.9.358,1.424.6a4.7,4.7,0,0,0,.926.27c.181.04.361.081.536.128a2.908,2.908,0,0,0,.476.072,2.62,2.62,0,0,1,1.251.367,2.569,2.569,0,0,1,1.109,1.863,2.486,2.486,0,0,1-1.135,2.708,2.977,2.977,0,0,1-.688.193l-.1.02a3.614,3.614,0,0,0-1.073.377c-.168.095-.34.179-.513.263a5.451,5.451,0,0,0-.6.32l-.123.082c-.091.062-.181.123-.278.181a6.359,6.359,0,0,1-2.952.629c-.216.01-.428.02-.634.036-.066.005-.142.018-.222.03a3.676,3.676,0,0,1-.57.055m.64-4.24a2.312,2.312,0,0,1,2.351,1.29l.18.492-.448.276a3.741,3.741,0,0,1-1.581.451l-.252.033c-.5.068-.637.162-.715.3l-.042.075-.015.027c.088-.009.185-.024.251-.034.116-.018.227-.034.324-.042.218-.016.442-.027.671-.038a5.329,5.329,0,0,0,2.352-.451c.067-.04.134-.087.2-.133l.146-.1a6.513,6.513,0,0,1,.74-.4c.148-.072.3-.144.441-.225a4.923,4.923,0,0,1,1.461-.521l.116-.022a1.954,1.954,0,0,0,.4-.1c.36-.161.449-.824.38-1.373a1.311,1.311,0,0,0-.528-.944,1.424,1.424,0,0,0-.672-.165,3.972,3.972,0,0,1-.695-.113c-.155-.042-.314-.077-.474-.113a5.739,5.739,0,0,1-1.188-.359c-.487-.225-.979-.422-1.353-.567a5.66,5.66,0,0,0-2.043-.4h-.022a6.457,6.457,0,0,0-1.084.078c-.571.1-.654.127-.757.263h0a1.6,1.6,0,0,0-.157.275,2.343,2.343,0,0,1-.637.909,1.917,1.917,0,0,1-.285.183l-.009.005c-.016.055-.029.1-.042.154a1.9,1.9,0,0,1-.635,1.106,1.4,1.4,0,0,1-.127.094,1.711,1.711,0,0,1,.419.322c.055.061.106.124.156.186.025.031.058.072.084.1.132-.017.267-.032.4-.046.254-.027.493-.052.711-.1.162-.033.327-.082.5-.135a6.61,6.61,0,0,1,.7-.18,4.349,4.349,0,0,1,.773-.069" transform="translate(-422.301 -317.93)" fill="#1f1e37"/>
          <path id="Trazado_242182" data-name="Trazado 242182" d="M658.933,492.476c-1.838,2.091-4.939,5.134-6.971,7.483.024-.46.041-.916.05-1.376a7.231,7.231,0,0,0-2.066-5.713,5.137,5.137,0,0,0-1.366-.883c2.989-2.2,9.017-6.2,9.063-8.24.045-2.135-3.6-2.973-4.9-3.466-2.178-.83-1.93-4.666,1.06-4.436,6.69.518,9.56,4.5,9.733,6.231.43,4.272-1.689,7.081-4.6,10.4" transform="translate(-438.05 -322.601)" fill="#fff"/>
          <path id="Trazado_242183" data-name="Trazado 242183" d="M647.67,500.583l.125-2.36c.024-.463.04-.9.048-1.349.036-2.3-.567-4.012-1.795-5.1a4.365,4.365,0,0,0-1.149-.745l-1.29-.555,1.13-.83c.418-.307.895-.65,1.407-1.017,2.368-1.7,7.3-5.236,7.328-6.593.026-1.228-2.359-2.018-3.64-2.443-.285-.095-.538-.178-.737-.254a3.184,3.184,0,0,1-1.878-3.706,2.94,2.94,0,0,1,3.291-2.284c7.376.57,10.284,5.014,10.478,6.953.464,4.608-1.8,7.589-4.8,11.008h0c-.865.985-1.985,2.154-3.171,3.393-1.338,1.4-2.722,2.844-3.8,4.086Zm-.975-10.36q.22.163.433.351a7.49,7.49,0,0,1,2.329,5.538c.763-.823,1.582-1.678,2.384-2.517,1.173-1.226,2.281-2.384,3.124-3.342,2.834-3.226,4.809-5.817,4.408-9.791-.125-1.244-2.579-5.012-8.989-5.508a1.324,1.324,0,0,0-1.582,1.033,1.579,1.579,0,0,0,.876,1.848c.181.069.41.144.669.23,1.8.595,4.8,1.59,4.749,4-.044,2-3.494,4.63-8,7.863l-.4.289" transform="translate(-434.694 -320.907)" fill="#1f1e37"/>
          <path id="Trazado_242184" data-name="Trazado 242184" d="M573.7,642.406a9.255,9.255,0,0,0,.371-1.415,3.369,3.369,0,0,0-.248-2.588,2.026,2.026,0,0,0-.754-.629c-.165-.08-.618-.306-.8-.242a.664.664,0,0,0-.267.226L570.9,639.1a5.847,5.847,0,0,1-1.046,1.207,4.782,4.782,0,0,0-1.9,1.922,1,1,0,0,0-.11.458c-.142.337.568.462.733.518a.309.309,0,0,1,.164.1c.076.107-.065.209-.131.277a2.412,2.412,0,0,0-.528.549c-.389.791.807,1.015,1.33,1.1a3.859,3.859,0,0,0,2.869-.572,4.513,4.513,0,0,0,1.42-2.254" transform="translate(-383.509 -432.218)" fill="#fff"/>
          <path id="Trazado_242185" data-name="Trazado 242185" d="M568.8,644.579a5.4,5.4,0,0,1-.846-.068,2.389,2.389,0,0,1-1.827-.934,1.174,1.174,0,0,1,.018-1.084,1.4,1.4,0,0,1,.184-.28,1.012,1.012,0,0,1-.422-.428.823.823,0,0,1-.066-.541,1.717,1.717,0,0,1,.165-.627,5.371,5.371,0,0,1,2.135-2.2,3.092,3.092,0,0,0,.607-.69c.1-.137.2-.27.3-.388L570.153,636a1.268,1.268,0,0,1,.548-.425,1.709,1.709,0,0,1,1.288.261,2.7,2.7,0,0,1,1.012.84,3.975,3.975,0,0,1,.36,3.075,9.818,9.818,0,0,1-.4,1.514,5.084,5.084,0,0,1-1.648,2.562,4.252,4.252,0,0,1-2.512.757m-1.456-1.561a2.709,2.709,0,0,0,.817.222,3.2,3.2,0,0,0,2.38-.454,3.962,3.962,0,0,0,1.192-1.945h0a8.56,8.56,0,0,0,.345-1.317,2.871,2.871,0,0,0-.136-2.1,1.371,1.371,0,0,0-.513-.427c-.141-.069-.241-.113-.312-.141l-1.07,1.3c-.082.1-.165.214-.251.331a3.925,3.925,0,0,1-.94,1.006,4.252,4.252,0,0,0-1.663,1.644l-.015.035.108.03c.062.016.113.031.147.042a.925.925,0,0,1,.481.331.78.78,0,0,1-.18,1.088c-.085.085-.162.152-.239.217-.048.041-.112.1-.152.137" transform="translate(-382.158 -430.863)" fill="#1f1e37"/>
          <path id="Trazado_242186" data-name="Trazado 242186" d="M582.6,573.085c-.844,1.243-2.368,2.125-3.638,1.312a2.229,2.229,0,0,1-.548-2.9c3.085-7.1,5.309-14.474,5.354-22.206.017-2.948-.736-9.8,3.828-9.831,3.619-.024,3.928,5.369,3.813,7.9a50.4,50.4,0,0,1-8.809,25.727" transform="translate(-390.469 -365.735)" fill="#fff"/>
          <path id="Trazado_242187" data-name="Trazado 242187" d="M578.326,573.826a2.738,2.738,0,0,1-1.5-.447,2.979,2.979,0,0,1-.853-3.9c3.569-8.216,5.249-15.172,5.287-21.891,0-.339-.007-.731-.016-1.158-.055-2.544-.138-6.39,1.743-8.308a3.947,3.947,0,0,1,2.906-1.166h.03a3.657,3.657,0,0,1,2.722,1.138c1.916,1.975,1.951,5.974,1.878,7.6a51.477,51.477,0,0,1-8.947,26.141,4.191,4.191,0,0,1-3.254,1.986m7.6-35.257h-.019a2.348,2.348,0,0,0-1.753.678c-1.407,1.435-1.333,4.875-1.284,7.152.01.443.018.849.016,1.2-.04,6.943-1.762,14.1-5.42,22.52-.1.229-.555,1.4.242,1.906.913.585,2.011-.328,2.525-1.085a49.866,49.866,0,0,0,8.672-25.313c.1-2.284-.217-5.168-1.426-6.413a2.06,2.06,0,0,0-1.553-.645" transform="translate(-388.774 -364.04)" fill="#1f1e37"/>
        </g>
      </g>
    </g>
    <g id="Grupo_80276" data-name="Grupo 80276" transform="translate(1139.699 478.629) rotate(1)">
      <path id="Trazado_115035" data-name="Trazado 115035" d="M44.31,20.3c.7.4.813.545-.021,2.344-.649,1.4-1.85,4,1.043,5.663,2.259,1.3,5.062.869,7.781.449,2.379-.365,4.628-.711,6.1.138A1.288,1.288,0,0,0,60.571,26.7L60.5,26.66c-2.26-1.3-5.063-.869-7.781-.449-2.379.365-4.628.711-6.1-.137-.695-.4-.813-.546.021-2.345.649-1.4,1.85-4-1.043-5.663-2.248-1.3-5.062-.869-7.781-.455-2.379.365-4.635.711-6.1-.137-.695-.4-.813-.546.021-2.345.648-1.4,1.849-4-1.027-5.663-2.26-1.3-5.07-.869-7.789-.448-2.379.365-4.628.711-6.1-.13-.695-.4-.813-.551.021-2.352.649-1.4,1.85-4-1.027-5.663A7.314,7.314,0,0,0,12.077.005a27.12,27.12,0,0,0-4.05.42C5.648.79,3.4,1.136,1.93.3A1.288,1.288,0,1,0,.647,2.53c2.26,1.3,5.063.869,7.775.449,2.379-.365,4.636-.718,6.1.137.7.4.814.551-.021,2.352-.648,1.4-1.849,4,1.043,5.669,2.26,1.3,5.063.869,7.775.448,2.379-.365,4.635-.718,6.1.137.695.4.813.545-.021,2.344-.649,1.4-1.849,4,1.027,5.663,2.26,1.3,5.063.869,7.782.455,2.379-.365,4.628-.711,6.1.137Z" transform="translate(-13.803 0.241)" fill="#393939"/>
      <path id="Trazado_115036" data-name="Trazado 115036" d="M30.431,19.7c2.259,1.3,5.063.869,7.782.455,2.379-.365,4.628-.711,6.1.138.7.4.813.545-.021,2.345-.648,1.4-1.849,4,1.043,5.663,2.26,1.3,5.063.869,7.782.455,2.379-.365,4.628-.711,6.1.138a1.288,1.288,0,0,0,1.29-2.228c-2.26-1.3-5.063-.869-7.781-.455-2.38.365-4.628.711-6.1-.137-.695-.4-.813-.546.021-2.345.648-1.4,1.849-4-1.043-5.663-2.249-1.3-5.063-.869-7.781-.455-2.38.365-4.636.711-6.1-.137-.695-.4-.813-.546.021-2.345.648-1.4,1.849-4-1.027-5.663-2.26-1.3-5.07-.869-7.788-.449-2.38.365-4.629.711-6.1-.13-.7-.4-.813-.551.021-2.352.649-1.4,1.849-4-1.027-5.662A7.309,7.309,0,0,0,12.077.005a27.381,27.381,0,0,0-4.05.421C5.648.791,3.4,1.137,1.93.3A1.289,1.289,0,0,0,.647,2.531c2.26,1.3,5.063.869,7.775.448,2.379-.365,4.635-.71,6.1.138.7.4.813.553-.021,2.352-.649,1.4-1.849,4,1.043,5.662,2.259,1.3,5.063.869,7.774.449,2.379-.365,4.635-.711,6.1.137.7.4.813.546-.021,2.345-.649,1.4-1.849,4,1.027,5.663Z" transform="translate(-8.612 22.289)" fill="#ba68c8"/>
    </g>
    <g id="Grupo_180575" data-name="Grupo 180575" transform="translate(7838.667 11436.724)">
      <path id="Trazado_241138" data-name="Trazado 241138" d="M-6683.667-10769a.952.952,0,0,1,.209.022l9.333,2a1,1,0,0,1,.721.611,1,1,0,0,1-.111.939l-9.333,13.333a1,1,0,0,1-1.12.381,1,1,0,0,1-.7-.954V-10768a1,1,0,0,1,.371-.777A1,1,0,0,1-6683.667-10769Zm7.649,3.662-6.649-1.425v10.923Z" transform="translate(0 0.4)" fill="#12263f"/>
      <path id="Trazado_241138-2" data-name="Trazado 241138" d="M-6683.667-10769a.952.952,0,0,1,.209.022l9.333,2a1,1,0,0,1,.721.611,1,1,0,0,1-.111.939l-9.333,13.333a1,1,0,0,1-1.12.381,1,1,0,0,1-.7-.954V-10768a1,1,0,0,1,.371-.777A1,1,0,0,1-6683.667-10769Zm7.649,3.662-6.649-1.425v10.923Z" transform="translate(16 -8.267)" fill="#12263f"/>
      <path id="Trazado_241138-3" data-name="Trazado 241138" d="M-6683.667-10769a.952.952,0,0,1,.209.022l9.333,2a1,1,0,0,1,.721.611,1,1,0,0,1-.111.939l-9.333,13.333a1,1,0,0,1-1.12.381,1,1,0,0,1-.7-.954V-10768a1,1,0,0,1,.371-.777A1,1,0,0,1-6683.667-10769Zm7.649,3.662-6.649-1.425v10.923Z" transform="translate(31 -18.267)" fill="#12263f"/>
    </g>
    <path id="Trazado_115027" data-name="Trazado 115027" d="M3041.573,3291.011l3.313.784a.687.687,0,0,1,.524.829.713.713,0,0,1-.524.507l-3.313.785a3.627,3.627,0,0,0-2.7,2.615l-.81,3.206a.721.721,0,0,1-.872.5.706.706,0,0,1-.522-.5l-.811-3.206a3.626,3.626,0,0,0-2.7-2.615l-3.313-.785a.687.687,0,0,1-.524-.829.714.714,0,0,1,.524-.507l3.313-.784a3.626,3.626,0,0,0,2.7-2.615l.811-3.206a.719.719,0,0,1,.872-.5.707.707,0,0,1,.522.5l.81,3.206A3.626,3.626,0,0,0,3041.573,3291.011Z" transform="translate(-1832.963 -2826.531)" fill="#12263f"/>
    <path id="Trazado_115027-2" data-name="Trazado 115027" d="M3046.058,3293.329l4.523,1.071a.938.938,0,0,1,.715,1.131.973.973,0,0,1-.715.692l-4.523,1.071a4.951,4.951,0,0,0-3.69,3.571l-1.106,4.376a.985.985,0,0,1-1.191.689.965.965,0,0,1-.712-.689l-1.107-4.376a4.951,4.951,0,0,0-3.689-3.571l-4.523-1.071a.938.938,0,0,1-.715-1.132.973.973,0,0,1,.715-.692l4.523-1.071a4.951,4.951,0,0,0,3.689-3.57l1.107-4.377a.982.982,0,0,1,1.19-.689.966.966,0,0,1,.713.689l1.106,4.377A4.951,4.951,0,0,0,3046.058,3293.329Z" transform="translate(-1812.194 -2844.721)" fill="#12263f"/>
    <g id="Grupo_180576" data-name="Grupo 180576" transform="translate(1203 500)">
      <ellipse id="Elipse_4783" data-name="Elipse 4783" cx="11" cy="11.5" rx="11" ry="11.5" transform="translate(1 1)" fill="#3a3a3a"/>
      <g id="Elipse_4784" data-name="Elipse 4784" transform="translate(0 0)" fill="#fff" stroke="#3a3a3a" stroke-width="1">
        <circle cx="10" cy="10" r="10" stroke="none"/>
        <circle cx="10" cy="10" r="9.5" fill="none"/>
      </g>
    </g>
    <g id="Elipse_4934" data-name="Elipse 4934" transform="translate(1226 485)" fill="#fff" stroke="#12263f" stroke-width="2">
      <circle cx="7.5" cy="7.5" r="7.5" stroke="none"/>
      <circle cx="7.5" cy="7.5" r="6.5" fill="none"/>
    </g>
  </g>
</svg>
