<svg xmlns="http://www.w3.org/2000/svg" xmlns:xlink="http://www.w3.org/1999/xlink" width="117" height="174" viewBox="0 0 117 174">
  <defs>
    <clipPath id="clip-path">
      <rect id="Rect치ngulo_45084" data-name="Rect치ngulo 45084" width="47.812" height="46.809" fill="none"/>
    </clipPath>
  </defs>
  <g id="Grupo_180425" data-name="Grupo 180425" transform="translate(-180 -4399)">
    <path id="Rect치ngulo_33852" data-name="Rect치ngulo 33852" d="M20,0h97a0,0,0,0,1,0,0V154a20,20,0,0,1-20,20H0a0,0,0,0,1,0,0V20A20,20,0,0,1,20,0Z" transform="translate(180 4399)" fill="#64b5f6"/>
    <circle id="Elipse_4740" data-name="Elipse 4740" cx="38.874" cy="38.874" r="38.874" transform="translate(198.98 4447.126)" fill="#fff"/>
    <g id="Grupo_180424" data-name="Grupo 180424" transform="translate(213.948 4462.596)">
      <path id="Trazado_241235" data-name="Trazado 241235" d="M90.509,15.36,84.034,11.6l.052,18.725,6.475,3.763Z" transform="translate(-50.359 -6.95)" fill="#80b3f2"/>
      <path id="Trazado_241236" data-name="Trazado 241236" d="M97.516,5.263,91.041,1.5,84.034,5.546l6.475,3.763Z" transform="translate(-50.359 -0.899)" fill="#fef536"/>
      <path id="Trazado_241237" data-name="Trazado 241237" d="M100.192,14.936l.053,18.725,7.008-4.045L107.2,10.891Z" transform="translate(-60.042 -6.526)" fill="#ba68c8"/>
      <g id="Grupo_180417" data-name="Grupo 180417" transform="translate(0 0)">
        <g id="Grupo_180416" data-name="Grupo 180416" clip-path="url(#clip-path)">
          <path id="Trazado_241238" data-name="Trazado 241238" d="M89.663,27.736a.6.6,0,0,1-.3-.081l-6.475-3.762a.6.6,0,0,1-.3-.518L82.534,4.649a.6.6,0,0,1,.3-.523L89.841.081a.6.6,0,0,1,.6,0l6.476,3.763a.6.6,0,0,1,.3.518l.053,18.726a.6.6,0,0,1-.3.522l-7.007,4.045a.6.6,0,0,1-.3.08m-5.875-4.71,5.876,3.415,6.4-3.7L96.017,4.711,90.141,1.3l-6.4,3.7Z" transform="translate(-49.46 0)" fill="#12263f"/>
          <path id="Trazado_241239" data-name="Trazado 241239" d="M89.61,14.639a.6.6,0,0,1-.3-.081l-6.475-3.763a.6.6,0,1,1,.6-1.039l6.174,3.588,6.705-3.872a.6.6,0,0,1,.6,1.041L89.91,14.558a.6.6,0,0,1-.3.081" transform="translate(-49.46 -5.627)" fill="#12263f"/>
          <path id="Trazado_241240" data-name="Trazado 241240" d="M99.345,39.414a.6.6,0,0,1-.6-.6L98.691,20.09a.6.6,0,0,1,.6-.6h0a.6.6,0,0,1,.6.6l.053,18.725a.6.6,0,0,1-.6.6Z" transform="translate(-59.142 -11.678)" fill="#12263f"/>
        </g>
      </g>
      <path id="Trazado_241241" data-name="Trazado 241241" d="M63,21.88l-6.476-3.763.064,22.469,6.476,3.763Z" transform="translate(-33.876 -10.857)" fill="#80b3f2"/>
      <path id="Trazado_241242" data-name="Trazado 241242" d="M70.012,11.784,63.536,8.021l-7.008,4.046L63,15.829Z" transform="translate(-33.876 -4.807)" fill="#fef536"/>
      <path id="Trazado_241243" data-name="Trazado 241243" d="M72.689,21.457l.064,22.469,7.006-4.045L79.7,17.411Z" transform="translate(-43.56 -10.434)" fill="#ba68c8"/>
      <g id="Grupo_180419" data-name="Grupo 180419" transform="translate(0 0)">
        <g id="Grupo_180418" data-name="Grupo 180418" clip-path="url(#clip-path)">
          <path id="Trazado_241244" data-name="Trazado 241244" d="M62.105,15.532a.6.6,0,0,1-.3-.081l-6.476-3.763a.6.6,0,0,1,0-1.04L62.336,6.6a.6.6,0,0,1,.6,0l6.476,3.763a.6.6,0,0,1,0,1.04l-7.007,4.046a.6.6,0,0,1-.3.081m-5.277-4.362,5.278,3.067,5.807-3.353L62.636,7.816Z" transform="translate(-32.977 -3.908)" fill="#12263f"/>
          <path id="Trazado_241245" data-name="Trazado 241245" d="M62.17,43.629a.6.6,0,0,1-.3-.081l-6.476-3.763a.6.6,0,0,1-.3-.518L55.029,16.8a.6.6,0,0,1,.6-.6h0a.6.6,0,0,1,.6.6l.063,22.125,5.877,3.415,6.4-3.7-.062-22.123a.6.6,0,0,1,.6-.6h0a.6.6,0,0,1,.6.6l.063,22.471a.6.6,0,0,1-.3.523l-7.007,4.045a.6.6,0,0,1-.3.081" transform="translate(-32.977 -9.535)" fill="#12263f"/>
          <path id="Trazado_241246" data-name="Trazado 241246" d="M71.855,49.679a.6.6,0,0,1-.6-.6L71.19,26.61a.6.6,0,0,1,.6-.6h0a.6.6,0,0,1,.6.6l.064,22.47a.6.6,0,0,1-.6.6Z" transform="translate(-42.662 -15.585)" fill="#12263f"/>
        </g>
      </g>
      <path id="Trazado_241247" data-name="Trazado 241247" d="M35.486,23.728,29.01,19.965l.079,28.086,6.475,3.764Z" transform="translate(-17.385 -11.964)" fill="#80b3f2"/>
      <path id="Trazado_241248" data-name="Trazado 241248" d="M42.493,13.634,36.017,9.872,29.01,13.916l6.476,3.763Z" transform="translate(-17.385 -5.916)" fill="#fef536"/>
      <path id="Trazado_241249" data-name="Trazado 241249" d="M45.17,23.3l.079,28.087,7.007-4.046-.079-28.087Z" transform="translate(-27.069 -11.541)" fill="#ba68c8"/>
      <g id="Grupo_180421" data-name="Grupo 180421" transform="translate(0 0)">
        <g id="Grupo_180420" data-name="Grupo 180420" clip-path="url(#clip-path)">
          <path id="Trazado_241250" data-name="Trazado 241250" d="M34.666,45.468a.6.6,0,0,1-.3-.08l-6.554-3.78a.6.6,0,0,1-.3-.521V13.017a.6.6,0,0,1,.3-.521c7.147-4.125,7.147-4.125,7.338-4.125s.194,0,6.749,3.844a.6.6,0,0,1,.3.517l.079,28.087a.6.6,0,0,1-.3.522l-7.007,4.046a.6.6,0,0,1-.3.081M28.713,40.74l5.953,3.433,6.405-3.7-.078-27.4c-2.106-1.235-4.955-2.9-5.846-3.417-.948.539-4.109,2.36-6.435,3.7Z" transform="translate(-16.486 -5.016)" fill="#12263f"/>
          <path id="Trazado_241251" data-name="Trazado 241251" d="M34.587,22.952a.6.6,0,0,1-.3-.079l-6.475-3.709a.6.6,0,1,1,.6-1.043l6.178,3.538L41.3,17.837a.6.6,0,1,1,.6,1.045l-7.007,3.991a.6.6,0,0,1-.3.079" transform="translate(-16.486 -10.641)" fill="#12263f"/>
          <path id="Trazado_241252" data-name="Trazado 241252" d="M44.35,57.063a.6.6,0,0,1-.6-.6L43.67,28.322a.6.6,0,0,1,.6-.6h0a.6.6,0,0,1,.6.6l.079,28.142a.6.6,0,0,1-.6.6Z" transform="translate(-26.17 -16.611)" fill="#12263f"/>
        </g>
      </g>
      <path id="Trazado_241253" data-name="Trazado 241253" d="M7.975,27.85,1.5,24.087,1.593,56.88l6.475,3.763Z" transform="translate(-0.898 -14.435)" fill="#80b3f2"/>
      <path id="Trazado_241254" data-name="Trazado 241254" d="M14.983,17.757,8.507,13.994,1.5,18.039,7.975,21.8Z" transform="translate(-0.899 -8.386)" fill="#fef536"/>
      <path id="Trazado_241255" data-name="Trazado 241255" d="M17.659,27.429l.093,32.793,7.008-4.046-.093-32.791Z" transform="translate(-10.583 -14.014)" fill="#ba68c8"/>
      <g id="Grupo_180423" data-name="Grupo 180423" transform="translate(0 0)">
        <g id="Grupo_180422" data-name="Grupo 180422" clip-path="url(#clip-path)">
          <path id="Trazado_241256" data-name="Trazado 241256" d="M7.077,21.53a.6.6,0,0,1-.3-.082L.3,17.659a.6.6,0,0,1,0-1.039l7.007-4.045a.6.6,0,0,1,.6,0l6.475,3.763a.6.6,0,0,1,0,1.039L7.379,21.449a.6.6,0,0,1-.3.081M1.8,17.143l5.28,3.09,5.81-3.375L7.607,13.79Z" transform="translate(0 -7.487)" fill="#12263f"/>
          <path id="Trazado_241257" data-name="Trazado 241257" d="M16.853,59.923a.6.6,0,0,1-.6-.6L16.16,26.558a.6.6,0,0,1,.6-.6h0a.6.6,0,0,1,.6.6l.089,31.728,5.807-3.353-.091-32.443a.6.6,0,0,1,.6-.6h0a.6.6,0,0,1,.6.6l.093,32.791a.6.6,0,0,1-.3.523l-7.008,4.046a.6.6,0,0,1-.3.081" transform="translate(-9.684 -13.114)" fill="#12263f"/>
          <path id="Trazado_241258" data-name="Trazado 241258" d="M7.169,60.345a.6.6,0,0,1-.3-.081L.392,56.5a.6.6,0,0,1-.3-.518L0,23.19a.6.6,0,0,1,.6-.6h0a.6.6,0,0,1,.6.6l.092,32.448,6.177,3.59a.6.6,0,0,1-.3,1.121" transform="translate(0 -13.536)" fill="#12263f"/>
        </g>
      </g>
    </g>
  </g>
</svg>
