<svg xmlns="http://www.w3.org/2000/svg" xmlns:xlink="http://www.w3.org/1999/xlink" width="85" height="94" viewBox="0 0 85 94">
  <defs>
    <clipPath id="clip-path">
      <rect id="Rect치ngulo_45082" data-name="Rect치ngulo 45082" width="25.682" height="36.417" transform="translate(0 0)" fill="none"/>
    </clipPath>
  </defs>
  <g id="Grupo_180413" data-name="Grupo 180413" transform="translate(-180 -3901)">
    <path id="Rect치ngulo_33876" data-name="Rect치ngulo 33876" d="M20,0H85a0,0,0,0,1,0,0V74A20,20,0,0,1,65,94H0a0,0,0,0,1,0,0V20A20,20,0,0,1,20,0Z" transform="translate(180 3901)" fill="#5c22c3"/>
    <circle id="Elipse_4740" data-name="Elipse 4740" cx="28.345" cy="28.345" r="28.345" transform="translate(194 3919)" fill="#fff"/>
    <g id="Grupo_180405" data-name="Grupo 180405" transform="translate(209.659 3929.136)">
      <g id="Grupo_180404" data-name="Grupo 180404" transform="translate(0 0)" clip-path="url(#clip-path)">
        <path id="Trazado_241225" data-name="Trazado 241225" d="M25.648,24.895A18.871,18.871,0,0,0,20.674,12.91l-.266-.294a1.75,1.75,0,0,1,.526-.347c.328-.21.8-.324.969-.618s.057-.759.057-1.149q0-3.541,0-7.082a1.9,1.9,0,0,0-.741-.5c-2.97-1.687-6.491-3.65-10.024-2.64C8.868.939,3.42,4.479,2.844,5.06A9.208,9.208,0,0,0,.436,9.98a28.338,28.338,0,0,0-.183,8.772,22.117,22.117,0,0,0,7.34,14.209,14.227,14.227,0,0,0,5.227,3.109c1.858.586,2.8.475,5.289-.673.9-.415,2.422-1.359,3.455-1.939a8.063,8.063,0,0,0,3.185-2.821,8.334,8.334,0,0,0,.924-3.954c.018-.589.009-1.186-.026-1.787M16.467,14.8a.262.262,0,0,0,.021.024l-.021.011V14.8M8.062,3.2l0,.007H8.056s0,0,.006-.007M21.017,33.691a.145.145,0,0,1,.044-.009l-.044.009" transform="translate(0 0)" fill="#12263f"/>
        <path id="Trazado_241226" data-name="Trazado 241226" d="M17.3,17.367c0,.725,0,1.45,0,2.175,0,.392-.013.406-.364.213a10.435,10.435,0,0,0-2.894-1.171,3.7,3.7,0,0,0-3.1.478,4.036,4.036,0,0,0-1.469,2.644c-.027.134.016.2.176.142,1.674-.658,3.148-.048,4.565.767a12.807,12.807,0,0,1,5.146,5.846,17.662,17.662,0,0,1,1.7,8.191,8.3,8.3,0,0,1-.437,2.482A4.157,4.157,0,0,1,15.6,42.063a10.542,10.542,0,0,1-4.309-2.041,18.538,18.538,0,0,1-6.472-8.965A20.277,20.277,0,0,1,3.68,24.063a31.112,31.112,0,0,1,.208-4.8,9.891,9.891,0,0,1,1.677-4.383,5.678,5.678,0,0,1,4.57-2.38,11.407,11.407,0,0,1,5.932,1.635c.335.18.653.389.988.567a.45.45,0,0,1,.257.458c-.009.737,0,1.474,0,2.211H17.3" transform="translate(-2.246 -7.624)" fill="#d677e6"/>
        <path id="Trazado_241227" data-name="Trazado 241227" d="M24.209,54.26a4.81,4.81,0,0,1-.346,1.788,1.653,1.653,0,0,1-2.6.866,6.007,6.007,0,0,1-2.805-3.871,12.232,12.232,0,0,1-.376-3.422c.007-.4,0-.807-.005-1.211a1.276,1.276,0,0,1,1.232-1.363,2.3,2.3,0,0,1,1.208.234,5.877,5.877,0,0,1,3,3.281,9.01,9.01,0,0,1,.7,3.7" transform="translate(-11.034 -28.715)" fill="#12263f"/>
        <path id="Trazado_241228" data-name="Trazado 241228" d="M32.459,5.775,28.442,7.746S24.864,4.677,20.7,5.339a10.723,10.723,0,0,1,5.112-1.828c2.172-.171,3.871.949,6.646,2.264" transform="translate(-12.637 -2.133)" fill="#fef536"/>
        <path id="Trazado_241229" data-name="Trazado 241229" d="M42.329,14.625V20.5l4.136-2.147V12.488Z" transform="translate(-25.841 -7.624)" fill="#fef536"/>
        <path id="Trazado_241230" data-name="Trazado 241230" d="M39.2,34.225l-3.262,1.47-3.554-1.47a17.1,17.1,0,0,1,6.817,9.2c1.9,6.281,0,10.615,0,10.615s4.626-1.85,5.064-5.989S42.514,37.292,39.2,34.225" transform="translate(-19.771 -20.894)" fill="#5127bd"/>
      </g>
    </g>
  </g>
</svg>
