<svg xmlns="http://www.w3.org/2000/svg" xmlns:xlink="http://www.w3.org/1999/xlink" width="85" height="94" viewBox="0 0 85 94">
  <defs>
    <clipPath id="clip-path">
      <rect id="Rect치ngulo_45081" data-name="Rect치ngulo 45081" width="22.313" height="36.417" fill="none"/>
    </clipPath>
  </defs>
  <g id="Grupo_180412" data-name="Grupo 180412" transform="translate(-180 -3751)">
    <path id="Rect치ngulo_33876" data-name="Rect치ngulo 33876" d="M20,0H85a0,0,0,0,1,0,0V74A20,20,0,0,1,65,94H0a0,0,0,0,1,0,0V20A20,20,0,0,1,20,0Z" transform="translate(180 3751)" fill="#5c22c3"/>
    <circle id="Elipse_4740" data-name="Elipse 4740" cx="28.345" cy="28.345" r="28.345" transform="translate(194 3769)" fill="#fff"/>
    <g id="Grupo_180403" data-name="Grupo 180403" transform="translate(211.189 3779.137)">
      <g id="Grupo_180402" data-name="Grupo 180402" transform="translate(0 0)" clip-path="url(#clip-path)">
        <path id="Trazado_241220" data-name="Trazado 241220" d="M18.665,17.812a4.453,4.453,0,0,1,.832-.535,14.788,14.788,0,0,0,2.232-1.367.481.481,0,0,0,.038-.13c.009-2.329.013-4.659.03-6.988,0-.2-.107-.27-.241-.346C17.571,6.162,7.773.593,6.9.019c-.171-.063-.3.05-.425.123-.824.466-1.651.927-2.465,1.409-.7.414-1.434.77-2.1,1.238-.219.375-.67,5.5-.9,7.65-.23,2.173-.452,4.346-.688,6.518a.46.46,0,0,0,.19.456c.376.309.743.628,1.114.944.087.074.211.132.141.285a15.151,15.151,0,0,0-1.649.976c-.094.04-.1.123-.1.208a13.622,13.622,0,0,0,.909,5.8A19.61,19.61,0,0,0,5.955,32.84a14.392,14.392,0,0,0,5.37,3.269,4.686,4.686,0,0,0,4.5-.6c.88-.472,3.9-2.218,4.511-2.651,2.017-1.427,2.346-4.8,1.648-8.853a13.2,13.2,0,0,0-3.314-6.192m-1.141,13.18v0l0,0h0" transform="translate(0 0)" fill="#12263f"/>
        <path id="Trazado_241221" data-name="Trazado 241221" d="M3.566,29.253c1.363.791,2.638,1.577,3.958,2.279a2.044,2.044,0,0,1,1.216,1.632,4.732,4.732,0,0,0,2.477,3.48c1.157.637,1.958.291,2.2-1a7.589,7.589,0,0,0-.792-5.652A5.749,5.749,0,0,0,9.45,27.532a1.607,1.607,0,0,0-1.342.116.285.285,0,0,1-.379-.039q-1.792-1.524-3.585-3.048a.464.464,0,0,1-.165-.443q.471-4.362.936-8.724c.092-.863.176-1.727.272-2.589.048-.43.068-.441.437-.229q3.957,2.268,7.911,4.543c1.318.757,2.63,1.526,3.957,2.268a.736.736,0,0,1,.437.752c-.025,1.177-.01,2.355-.012,3.533,0,.479-.021.5-.432.259q-2.813-1.614-5.622-3.235c-.752-.432-1.51-.854-2.255-1.3-.252-.15-.3-.049-.319.18-.132,1.313-.272,2.625-.406,3.938-.018.173-.069.36.219.377a7.9,7.9,0,0,1,4.422,1.963,13.265,13.265,0,0,1,4.958,8.931,11.627,11.627,0,0,1-.147,4.674,3.52,3.52,0,0,1-3.082,2.853,5.284,5.284,0,0,1-2.532-.475,14.581,14.581,0,0,1-5.5-4.086,14.931,14.931,0,0,1-3.45-6.477,8.1,8.1,0,0,1-.207-2.025" transform="translate(-2.321 -8.101)" fill="#d677e7"/>
        <path id="Trazado_241222" data-name="Trazado 241222" d="M14.8,4.707l12.363,7.187-2.474,1.244-12.44-7Z" transform="translate(-7.978 -3.065)" fill="#fef536"/>
        <path id="Trazado_241223" data-name="Trazado 241223" d="M49.753,30.87v4.651L52.805,33.7v-4.47Z" transform="translate(-32.396 -19.036)" fill="#fef536"/>
        <path id="Trazado_241224" data-name="Trazado 241224" d="M39.948,49.145a13.945,13.945,0,0,1,2.927,12.344l-3.053,1.962s3.4-8.758-5.32-16.2l4.223,2.458Z" transform="translate(-22.465 -30.769)" fill="#5127bd"/>
      </g>
    </g>
  </g>
</svg>
