<svg xmlns="http://www.w3.org/2000/svg" xmlns:xlink="http://www.w3.org/1999/xlink" width="85" height="94" viewBox="0 0 85 94">
  <defs>
    <clipPath id="clip-path">
      <rect id="Rect치ngulo_45080" data-name="Rect치ngulo 45080" width="24.255" height="36.417" transform="translate(0 0)" fill="none"/>
    </clipPath>
  </defs>
  <g id="Grupo_180411" data-name="Grupo 180411" transform="translate(-180 -3601)">
    <path id="Rect치ngulo_33876" data-name="Rect치ngulo 33876" d="M20,0H85a0,0,0,0,1,0,0V74A20,20,0,0,1,65,94H0a0,0,0,0,1,0,0V20A20,20,0,0,1,20,0Z" transform="translate(180 3601)" fill="#5c22c3"/>
    <circle id="Elipse_4740" data-name="Elipse 4740" cx="28.345" cy="28.345" r="28.345" transform="translate(194 3619)" fill="#fff"/>
    <g id="Grupo_180401" data-name="Grupo 180401" transform="translate(210.218 3629.137)">
      <g id="Grupo_180400" data-name="Grupo 180400" transform="translate(0 0)" clip-path="url(#clip-path)">
        <path id="Trazado_241212" data-name="Trazado 241212" d="M24.165,21.722l-2.21-1.443s.013-.142.014-.214q.015-3.738.029-7.477c.005-1.4.014-2.791.014-4.186C22.012,7.091,22,5.78,22,4.469c-.015-.114-.113-.146-.193-.191-2.391-1.366-4.786-2.724-7.169-4.1-.322-.186-.576-.269-.888-.012C13.585.3,9.593,3.184,9.593,3.184S2.554,12.363.14,15.485A.57.57,0,0,0,0,15.909c.147,1.7.292,3.4.421,5.1a.785.785,0,0,0,.448.693c2.615,1.5,5.22,3.017,7.832,4.524a.571.571,0,0,1,.332.564c-.009,1.61.005,3.221.006,4.832a.427.427,0,0,0,.219.44q3.666,2.121,7.323,4.26c.137.08.273.16.418.017q2.338-1.358,4.676-2.717c.139-.081.286-.138.276-.363-.023-.524-.014-1.049-.018-1.573,0-.334,0-1.929,0-2.263.037-.084.122-.107.192-.148.614-.356,1.231-.708,1.84-1.071.13-.078.289-.126.286-.354-.027-2.183-.09-6.126-.09-6.126" transform="translate(0 0)" fill="#12263f"/>
        <path id="Trazado_241213" data-name="Trazado 241213" d="M17.777,42.705l-2.5-1.452c-.752-.437-1.5-.883-2.259-1.308a.715.715,0,0,1-.405-.716c.018-1.539,0-3.079.013-4.618a.591.591,0,0,0-.331-.6c-2.613-1.5-5.213-3.034-7.832-4.528A1.053,1.053,0,0,1,3.87,28.5c-.041-.917-.124-1.833-.219-2.746a1.113,1.113,0,0,1,.278-.848Q5.959,22.292,7.98,19.67q2.167-2.8,4.336-5.6c.33-.425.335-.43.79-.17,1.459.833,2.913,1.678,4.376,2.5a.735.735,0,0,1,.416.737c-.016,5-.012,10-.027,15a.67.67,0,0,0,.392.675c.565.308,1.111.65,1.67.968a.413.413,0,0,1,.242.4q0,2.023,0,4.046c0,.282-.1.3-.319.17q-.786-.462-1.581-.908c-.389-.219-.4-.213-.405.227,0,1.492,0,2.984-.005,4.475a.8.8,0,0,1-.09.514" transform="translate(-2.318 -8.728)" fill="#d677e6"/>
        <path id="Trazado_241214" data-name="Trazado 241214" d="M21.411,35.749c.006.115.015.219.015.324q0,3.506,0,7.011c0,.439-.013.453-.4.233-1.116-.639-2.224-1.292-3.339-1.934-.19-.109-.254-.2-.105-.409q1.828-2.559,3.642-5.129a.171.171,0,0,1,.184-.1" transform="translate(-11.133 -22.737)" fill="#12263f"/>
        <path id="Trazado_241215" data-name="Trazado 241215" d="M31.066,6.476,36.1,9.361l3.1-2.087L34.148,4.311Z" transform="translate(-19.759 -2.742)" fill="#fef536"/>
        <path id="Trazado_241216" data-name="Trazado 241216" d="M46.285,32.155V18.007l3.912-2.32v14.49Z" transform="translate(-29.44 -9.977)" fill="#5127bd"/>
        <path id="Trazado_241217" data-name="Trazado 241217" d="M46.348,59.956l1.785.907L52.4,58.5l-1.529-.965Z" transform="translate(-29.48 -36.596)" fill="#fef536"/>
        <path id="Trazado_241218" data-name="Trazado 241218" d="M51.707,65.382v4.595l4.532-2.644V62.874Z" transform="translate(-32.888 -39.991)" fill="#5127bd"/>
        <path id="Trazado_241219" data-name="Trazado 241219" d="M46.285,87.273V82.815l1.115.637,3.124-1.672v3.2Z" transform="translate(-29.44 -52.016)" fill="#5127bd"/>
      </g>
    </g>
  </g>
</svg>
