<svg xmlns="http://www.w3.org/2000/svg" xmlns:xlink="http://www.w3.org/1999/xlink" width="85" height="94" viewBox="0 0 85 94">
  <defs>
    <clipPath id="clip-path">
      <rect id="Rect치ngulo_45083" data-name="Rect치ngulo 45083" width="23.343" height="36.417" fill="none"/>
    </clipPath>
  </defs>
  <g id="Grupo_180414" data-name="Grupo 180414" transform="translate(-180 -4051)">
    <path id="Rect치ngulo_33876" data-name="Rect치ngulo 33876" d="M20,0H85a0,0,0,0,1,0,0V74A20,20,0,0,1,65,94H0a0,0,0,0,1,0,0V20A20,20,0,0,1,20,0Z" transform="translate(180 4051)" fill="#5c22c3"/>
    <circle id="Elipse_4740" data-name="Elipse 4740" cx="28.345" cy="28.345" r="28.345" transform="translate(194 4069)" fill="#fff"/>
    <g id="Grupo_180407" data-name="Grupo 180407" transform="translate(210.674 4079.137)">
      <g id="Grupo_180406" data-name="Grupo 180406" clip-path="url(#clip-path)">
        <path id="Trazado_241231" data-name="Trazado 241231" d="M23.343,10.829A.56.56,0,0,0,23,10.258C20.044,8.593,6.647.409,5.139.007c-.133-.035-.224.056-.323.112C4.052.55.907,2.291.146,2.814a.159.159,0,0,0-.054,0L0,2.8c0,.786.077,5.5.07,7.076a.535.535,0,0,0,.31.534q4.533,2.6,9.062,5.211c.251.144.323.255.175.545q-3.9,7.615-7.775,15.237c-.146.285-.1.41.163.55.421.221,5.387,3.132,7.462,4.341.129.075.257.2.409.038l4.679-2.71a.451.451,0,0,0,.184-.21c2.823-6.012,5.878-11.946,8.519-18.044l.008.009c.1-.114.052-.251.052-.377.008-1.392,0-2.784.025-4.175" transform="translate(0 0)" fill="#12263f"/>
        <path id="Trazado_241232" data-name="Trazado 241232" d="M18.821,27.39c-2.371,4.985-4.715,9.983-7.07,14.975-.141.3-.209.744-.482.838-.252.087-.56-.245-.836-.4-1.327-.768-2.658-1.532-3.974-2.319-.518-.31-.516-.185-.217-.778,1.028-2.04,2.072-4.072,3.11-6.107q2.247-4.4,4.493-8.808c.316-.622.323-.488-.242-.815q-4.693-2.717-9.4-5.412a.852.852,0,0,1-.513-.863c.028-1.178,0-2.357,0-3.536,0-.41.013-.423.385-.209q3.142,1.8,6.278,3.609,4.3,2.471,8.6,4.936a.85.85,0,0,1,.533.925,17.757,17.757,0,0,1-.67,3.968" transform="translate(-2.403 -8.989)" fill="#d677e6"/>
        <path id="Trazado_241233" data-name="Trazado 241233" d="M6.175,5.8l15.85,9.25,3.168-1.468L9.319,4.174Z" transform="translate(-4.018 -2.716)" fill="#fef536"/>
        <path id="Trazado_241234" data-name="Trazado 241234" d="M38.041,36.333l-.262,4.148L30.05,57.2l3.38-1.977,8.017-17.562V34.674Z" transform="translate(-19.554 -22.562)" fill="#5127bd"/>
      </g>
    </g>
  </g>
</svg>
