<svg xmlns="http://www.w3.org/2000/svg" xmlns:xlink="http://www.w3.org/1999/xlink" width="513.88" height="1051" viewBox="0 0 513.88 1051">
  <defs>
    <clipPath id="clip-path">
      <rect id="Rectángulo_45070" data-name="Rectángulo 45070" width="338.153" height="334.48" fill="none"/>
    </clipPath>
    <clipPath id="clip-path-4">
      <rect id="Rectángulo_45073" data-name="Rectángulo 45073" width="355.331" height="307.869" fill="none"/>
    </clipPath>
    <clipPath id="clip-path-5">
      <rect id="Rectángulo_45074" data-name="Rectángulo 45074" width="300.775" height="503" fill="none"/>
    </clipPath>
    <clipPath id="clip-path-6">
      <path id="Trazado_241177" data-name="Trazado 241177" d="M84.931,91.359c-6.3,3.68-11.417,12.624-11.393,19.958a11.284,11.284,0,0,0,.865,4.539,7.444,7.444,0,0,0,.848,1.427c2.028,2.617,5.637,3.051,9.754.651a23.243,23.243,0,0,0,7.842-8.224A26.415,26.415,0,0,0,94.1,107.37a22.405,22.405,0,0,0,2.317-9.4c-.017-5.2-2.6-8.2-6.349-8.2a10.348,10.348,0,0,0-5.133,1.584" transform="translate(-73.538 -89.775)" fill="none"/>
    </clipPath>
    <linearGradient id="linear-gradient" x1="-7.779" y1="9.265" x2="-7.673" y2="9.265" gradientUnits="objectBoundingBox">
      <stop offset="0" stop-color="#8c2a3a"/>
      <stop offset="1" stop-color="#dd4d24"/>
    </linearGradient>
  </defs>
  <g id="Grupo_180415" data-name="Grupo 180415" transform="translate(-909.694 -3122)">
    <g id="Grupo_180367" data-name="Grupo 180367" transform="translate(1376.006 3122) rotate(90)">
      <g id="Grupo_130458" data-name="Grupo 130458" transform="translate(416.164 210.142)">
        <path id="Trazado_121383" data-name="Trazado 121383" d="M218.716,7.587S165.3-4.342,106.787,1.716C80.421,4.445,17.474,14.086,0,7.587" fill="#fef536"/>
      </g>
      <g id="Grupo_130459" data-name="Grupo 130459" transform="translate(0 0)">
        <path id="Trazado_121384" data-name="Trazado 121384" d="M230.164,430.034c-42.017,0-73.614-2.8-98.359-9.083C42.593,398.314-14.9,290.484,3.395,180.1,21.535,70.63,107.431-.238,195.856,20.678c38.855,5.876,191.916-6.787,249.791-11.573,24.015-1.987,44.76-3.7,61.993-4.915,205.4-14.507,390.805,13.212,398.595,14.4,90.391,13.773,154.643,115.6,143.512,227.431s-93.388,191.319-183.8,177.566c-5.069-.75-166.7-24.215-339.514-12.01-15.633,1.1-35.629,2.754-58.788,4.671C363.393,424.868,287.186,430.034,230.164,430.034ZM197.962,21.2l.1.022Z" fill="#fef536"/>
      </g>
    </g>
    <g id="Grupo_180374" data-name="Grupo 180374" transform="translate(1076.632 3122.234)">
      <path id="Trazado_241138" data-name="Trazado 241138" d="M129.829,38.485,84.034,11.6l.371,133.8,45.8,26.888Z" transform="translate(154.136 21.61)" fill="#668fc2"/>
      <path id="Trazado_241139" data-name="Trazado 241139" d="M179.388,28.389,133.593,1.5,84.034,30.41l45.8,26.888Z" transform="translate(154.136 2.796)" fill="#4d6b91"/>
      <path id="Trazado_241140" data-name="Trazado 241140" d="M100.192,39.8l.374,133.8,49.562-28.9-.377-133.81Z" transform="translate(183.774 20.295)" fill="#80b3f2"/>
      <g id="Grupo_180369" data-name="Grupo 180369">
        <g id="Grupo_180368" data-name="Grupo 180368" clip-path="url(#clip-path)">
          <path id="Trazado_241141" data-name="Trazado 241141" d="M136.342,0a4.215,4.215,0,0,1,2.136.582l45.8,26.888a4.3,4.3,0,0,1,2.115,3.7l.38,133.81a4.3,4.3,0,0,1-2.126,3.732l-49.562,28.9a4.214,4.214,0,0,1-4.261-.006l-45.8-26.888a4.3,4.3,0,0,1-2.115-3.7l-.371-133.8a4.3,4.3,0,0,1,2.125-3.732L134.216.576A4.215,4.215,0,0,1,136.342,0ZM177.893,33.66l-41.558-24.4L91.044,35.681,91.4,164.534l41.561,24.4,45.3-26.416Z" transform="translate(151.386 0.001)" fill="#12263f"/>
          <path id="Trazado_241142" data-name="Trazado 241142" d="M132.581,46.891a4.215,4.215,0,0,1-2.136-.582L84.65,19.422a4.32,4.32,0,0,1-1.54-5.872,4.228,4.228,0,0,1,5.812-1.556l43.666,25.638L180.014,9.967a4.228,4.228,0,0,1,5.807,1.572,4.319,4.319,0,0,1-1.556,5.867l-49.559,28.91A4.215,4.215,0,0,1,132.581,46.891Z" transform="translate(151.385 17.499)" fill="#12263f"/>
        </g>
      </g>
      <path id="Línea_297" data-name="Línea 297" d="M3.125,140.892a4.273,4.273,0,0,1-4.251-4.283L-1.5,2.807A4.274,4.274,0,0,1,2.739-1.5,4.273,4.273,0,0,1,7,2.783l.374,133.8a4.274,4.274,0,0,1-4.239,4.307Z" transform="translate(281.214 57.3)" fill="#12263f"/>
      <path id="Trazado_241143" data-name="Trazado 241143" d="M102.332,45l-45.8-26.888.453,160.558,45.8,26.888Z" transform="translate(103.685 33.76)" fill="#668fc2"/>
      <path id="Trazado_241144" data-name="Trazado 241144" d="M151.891,34.909l-45.8-26.888L56.529,36.93l45.8,26.888Z" transform="translate(103.686 14.946)" fill="#4d6b91"/>
      <path id="Trazado_241145" data-name="Trazado 241145" d="M72.69,46.321l.453,160.558,49.553-28.9-.448-160.567Z" transform="translate(133.328 32.445)" fill="#80b3f2"/>
      <path id="Trazado_241146" data-name="Trazado 241146" d="M105.084,70.909a4.215,4.215,0,0,1-2.136-.581L57.144,43.44a4.318,4.318,0,0,1,.01-7.434L106.719,7.1a4.214,4.214,0,0,1,4.262.006l45.8,26.888a4.318,4.318,0,0,1-.01,7.433l-49.559,28.91A4.215,4.215,0,0,1,105.084,70.909ZM67.763,39.738,105.09,61.65l41.07-23.958L108.838,15.78Z" transform="translate(100.934 12.151)" fill="#12263f"/>
      <path id="Trazado_241147" data-name="Trazado 241147" d="M105.537,213.972a4.215,4.215,0,0,1-2.136-.581L57.6,186.5a4.3,4.3,0,0,1-2.115-3.7L55.029,22.24a4.252,4.252,0,1,1,8.5-.025l.447,158.094,41.566,24.4L150.832,178.3l-.441-158.079a4.274,4.274,0,0,1,4.239-4.307h.012a4.273,4.273,0,0,1,4.251,4.283l.448,160.567a4.3,4.3,0,0,1-2.126,3.732l-49.553,28.9A4.216,4.216,0,0,1,105.537,213.972Z" transform="translate(100.934 29.649)" fill="#12263f"/>
      <path id="Línea_298" data-name="Línea 298" d="M3.2,167.649a4.273,4.273,0,0,1-4.251-4.283L-1.5,2.807A4.274,4.274,0,0,1,2.739-1.5,4.273,4.273,0,0,1,7,2.783l.454,160.558a4.274,4.274,0,0,1-4.239,4.307Z" transform="translate(203.266 75.971)" fill="#12263f"/>
      <path id="Trazado_241148" data-name="Trazado 241148" d="M74.811,46.853l-45.8-26.888.564,200.693,45.8,26.9Z" transform="translate(53.212 37.205)" fill="#668fc2"/>
      <path id="Trazado_241149" data-name="Trazado 241149" d="M124.368,36.751,78.567,9.872l-49.556,28.9,45.8,26.888Z" transform="translate(53.212 18.396)" fill="#4d6b91"/>
      <path id="Trazado_241150" data-name="Trazado 241150" d="M45.171,48.169l.558,200.7,49.556-28.913-.558-200.7Z" transform="translate(82.853 35.889)" fill="#80b3f2"/>
      <g id="Grupo_180371" data-name="Grupo 180371">
        <g id="Grupo_180370" data-name="Grupo 180370" clip-path="url(#clip-path)">
          <path id="Trazado_241151" data-name="Trazado 241151" d="M78.123,273.453A4.215,4.215,0,0,1,76,272.879L29.638,245.87a4.3,4.3,0,0,1-2.128-3.721V41.568a4.3,4.3,0,0,1,2.126-3.72c.124-.072,12.534-7.309,24.81-14.453,7.212-4.2,12.968-7.54,17.108-9.939,2.461-1.426,4.373-2.53,5.682-3.282.7-.4,1.252-.718,1.634-.933a4.921,4.921,0,0,1,2.669-.87,4.842,4.842,0,0,1,2.642.859c.351.2.86.5,1.5.87,1.2.7,2.953,1.727,5.208,3.054,3.792,2.231,9.063,5.341,15.666,9.244,11.24,6.644,22.6,13.375,22.712,13.442a4.3,4.3,0,0,1,2.1,3.693l.561,200.7a4.3,4.3,0,0,1-2.125,3.732l-49.556,28.91A4.216,4.216,0,0,1,78.123,273.453ZM36.013,239.668,78.122,264.2l45.3-26.426-.547-195.761c-14.9-8.827-35.049-20.743-41.35-24.418-6.7,3.849-29.064,16.866-45.511,26.455Z" transform="translate(50.459 15.601)" fill="#12263f"/>
          <path id="Trazado_241152" data-name="Trazado 241152" d="M77.564,54.87a4.215,4.215,0,0,1-2.113-.568L29.65,27.8a4.319,4.319,0,0,1-1.577-5.862,4.228,4.228,0,0,1,5.8-1.593l43.694,25.28,47.446-27.306a4.228,4.228,0,0,1,5.8,1.606,4.319,4.319,0,0,1-1.59,5.858L79.668,54.307A4.215,4.215,0,0,1,77.564,54.87Z" transform="translate(50.461 33.093)" fill="#12263f"/>
          <path id="Línea_299" data-name="Línea 299" d="M3.309,208.181A4.273,4.273,0,0,1-.942,203.9L-1.5,2.807A4.274,4.274,0,0,1,2.739-1.5,4.273,4.273,0,0,1,7,2.783l.558,201.091a4.274,4.274,0,0,1-4.239,4.307Z" transform="translate(125.272 80.873)" fill="#12263f"/>
        </g>
      </g>
      <path id="Trazado_241153" data-name="Trazado 241153" d="M47.3,50.975,1.5,24.087l.663,234.321L47.955,285.3Z" transform="translate(2.75 44.886)" fill="#84539c"/>
      <path id="Trazado_241154" data-name="Trazado 241154" d="M96.86,40.882l-45.8-26.888L1.5,42.9,47.3,69.783Z" transform="translate(2.751 26.078)" fill="#633e75"/>
      <path id="Trazado_241155" data-name="Trazado 241155" d="M17.66,52.285l.655,234.324L67.876,257.7,67.219,23.384Z" transform="translate(32.391 43.576)" fill="#ba68c8"/>
      <g id="Grupo_180373" data-name="Grupo 180373">
        <g id="Grupo_180372" data-name="Grupo 180372" clip-path="url(#clip-path)">
          <path id="Trazado_241156" data-name="Trazado 241156" d="M53.81,12.494a4.215,4.215,0,0,1,2.136.581l45.8,26.888a4.318,4.318,0,0,1,0,7.428L52.188,76.481a4.214,4.214,0,0,1-4.283-.007L2.1,49.4a4.318,4.318,0,0,1,.022-7.427l49.559-28.9A4.215,4.215,0,0,1,53.81,12.494ZM91.149,43.677,53.8,21.753,12.712,45.716,50.06,67.8Z" transform="translate(0 23.282)" fill="#12263f"/>
          <path id="Trazado_241157" data-name="Trazado 241157" d="M21.065,293.7a4.215,4.215,0,0,1-2.12-.572,4.3,4.3,0,0,1-2.131-3.711L16.16,55.282a4.252,4.252,0,1,1,8.5-.024l.634,226.72,41.073-23.96L65.719,26.192a4.252,4.252,0,1,1,8.5-.024l.658,234.313a4.3,4.3,0,0,1-2.125,3.732L23.191,293.125A4.216,4.216,0,0,1,21.065,293.7Z" transform="translate(29.64 40.781)" fill="#12263f"/>
          <path id="Trazado_241158" data-name="Trazado 241158" d="M50.7,292.391a4.2,4.2,0,0,1-2.132-.582L2.776,264.92a4.3,4.3,0,0,1-2.115-3.7L0,26.895a4.274,4.274,0,0,1,4.239-4.307A4.273,4.273,0,0,1,8.5,26.87l.653,231.861,43.684,25.65a4.32,4.32,0,0,1,1.539,5.872A4.241,4.241,0,0,1,50.7,292.391Z" transform="translate(0 42.091)" fill="#12263f"/>
        </g>
      </g>
    </g>
    <g id="Grupo_180377" data-name="Grupo 180377" transform="translate(923.854 3487.131)">
      <path id="Trazado_241156-2" data-name="Trazado 241156" d="M67.072,93.5l.193,99.969L114.232,100.2,114.034,3Z" transform="translate(103.337 4.704)" fill="#668fc2"/>
      <g id="Grupo_180376" data-name="Grupo 180376">
        <g id="Grupo_180375" data-name="Grupo 180375" clip-path="url(#clip-path-4)">
          <path id="Trazado_241157-2" data-name="Trazado 241157" d="M69.574,199.671a3.731,3.731,0,0,1-.884-.105,3.843,3.843,0,0,1-2.927-3.737l-.191-99.966a3.9,3.9,0,0,1,.437-1.794l46.96-90.5a3.8,3.8,0,0,1,4.284-1.953,3.841,3.841,0,0,1,2.9,3.732l.2,97.194a3.878,3.878,0,0,1-.417,1.753L72.97,197.567a3.8,3.8,0,0,1-3.4,2.1M73.2,96.8l.158,83.025,39.376-78.2-.165-80.7Z" transform="translate(101.026 2.353)" fill="#12263f"/>
          <path id="Trazado_241158-2" data-name="Trazado 241158" d="M167.707,38.259,4.142,57.778a59.825,59.825,0,0,1-1.456-6.322c-.17-.957-.32-1.91-.442-2.865-.074-.583-.135-1.165-.191-1.738-.094-.957-.158-1.917-.206-2.872-.036-.837-.094-1.674-.094-2.51.061,23.19.124,74.025.191,97.2.005.5.01,1,.025,1.5.01.352.061.706.076,1.068.043.934.1,1.879.2,2.816.053.575.117,1.163.185,1.746.127.963.282,1.92.452,2.885.064.37.1.729.173,1.106.34,1.743.772,3.483,1.281,5.213L167.9,138.225Z" transform="translate(2.702 59.949)" fill="#4d6b91"/>
          <path id="Trazado_241159" data-name="Trazado 241159" d="M6.651,161.2A3.819,3.819,0,0,1,3,158.446c-.554-1.884-1.014-3.755-1.367-5.563-.051-.254-.094-.539-.132-.824l-.053-.336c-.18-1.042-.346-2.051-.478-3.07-.081-.66-.147-1.286-.2-1.9-.1-.952-.17-1.979-.213-2.99l-.028-.318C.5,143.17.48,142.9.472,142.628c-.015-.526-.023-1.052-.025-1.586-.036-12.178-.071-31.976-.1-51.39C.315,72.148.284,54.957.254,43.94v-.118a3.831,3.831,0,0,1,3.806-3.85h.005a3.828,3.828,0,0,1,3.811,3.84v.105c0,.521.033,1.042.058,1.566l.033.678c.043.87.1,1.763.191,2.652.053.562.112,1.109.178,1.656.114.873.257,1.763.414,2.667.175.97.358,1.892.556,2.777L169.573,36.789a3.732,3.732,0,0,1,2.975.942,3.871,3.871,0,0,1,1.283,2.872l.193,99.969a3.837,3.837,0,0,1-3.427,3.838L7.038,161.182a3.852,3.852,0,0,1-.386.021m1.27-97.369c.015,8,.03,16.86.046,25.8.03,19.414.066,39.207.1,51.374,0,.459.01.927.02,1.391l.028.349c.02.216.038.431.048.647.038.87.1,1.735.185,2.593.053.6.117,1.15.18,1.692.114.868.259,1.769.419,2.68l.155,1c.119.606.246,1.214.391,1.83l156.9-16.092-.178-92.155Z" transform="translate(0.391 57.597)" fill="#12263f"/>
          <path id="Trazado_241160" data-name="Trazado 241160" d="M50.713,29.941C10.862,53.187-4.666,85.279,4.145,115.381L167.709,95.86l46.962-90.5C158.474-4.194,95.211,3.979,50.713,29.941" transform="translate(2.7 2.348)" fill="#80b3f2"/>
          <path id="Trazado_241161" data-name="Trazado 241161" d="M6.457,121.579A3.819,3.819,0,0,1,2.8,118.822c-9.655-32.993,8.407-66.583,48.319-89.866C94.8,3.472,158.6-6.121,217.619,3.908A3.818,3.818,0,0,1,220.4,6a3.876,3.876,0,0,1-.041,3.5L173.4,100a3.813,3.813,0,0,1-2.927,2.036L6.907,121.55a3.331,3.331,0,0,1-.45.028M170.563,7.687c-42.77,0-84.529,9.793-115.629,27.938C19.58,56.248,2.738,85.157,9.3,113.513l158.29-18.89,43.56-83.951a275.413,275.413,0,0,0-40.582-2.985M53.028,32.291h0Z" transform="translate(0.385 -0.001)" fill="#12263f"/>
          <path id="Trazado_241162" data-name="Trazado 241162" d="M117.352,121.943l.2,61.28c1.4-.793,2.825-1.53,4.172-2.32,32.724-19.08,49.063-44.138,48.992-69.156l-.193-55.759c.069,25.025-16.268,44.559-48.992,63.644-1.347.78-2.774,1.525-4.179,2.31" transform="translate(180.803 87.729)" fill="#411f97"/>
          <path id="Trazado_241163" data-name="Trazado 241163" d="M119.864,189.419a3.773,3.773,0,0,1-1.918-.524,3.851,3.851,0,0,1-1.893-3.314l-.2-61.278a3.857,3.857,0,0,1,1.967-3.383l1.748-.96c.808-.436,1.611-.875,2.386-1.322,32.6-19.018,47.127-37.613,47.074-60.279v-.01h0a3.83,3.83,0,0,1,3.8-3.861h.013a3.83,3.83,0,0,1,3.811,3.835l.191,55.759c.079,27.569-18,53.318-50.9,72.5-.793.467-1.618.914-2.449,1.368-.587.318-1.176.642-1.758.973a3.8,3.8,0,0,1-1.87.493m3.618-62.841.17,52.44c29.472-17.637,45.633-40.634,45.565-64.91l-.094-27.348c-7.851,13.625-22.028,26.106-43.372,38.558-.747.431-1.5.845-2.269,1.26" transform="translate(178.492 85.38)" fill="#12263f"/>
          <path id="Trazado_241164" data-name="Trazado 241164" d="M72.938,54.016l.2,61.265,112.845,71.032-.2-61.28Z" transform="translate(112.375 84.639)" fill="#311771"/>
          <path id="Trazado_241165" data-name="Trazado 241165" d="M188.292,192.513a3.78,3.78,0,0,1-2.015-.583L73.432,120.9a3.856,3.856,0,0,1-1.8-3.255l-.2-61.265A3.862,3.862,0,0,1,73.392,53a3.8,3.8,0,0,1,3.872.095l112.842,71.017a3.867,3.867,0,0,1,1.8,3.257l.2,61.28a3.852,3.852,0,0,1-1.956,3.376,3.8,3.8,0,0,1-1.855.488M79.251,115.49l105.207,66.224-.17-52.188L79.083,63.314Z" transform="translate(110.064 82.289)" fill="#12263f"/>
          <path id="Trazado_241166" data-name="Trazado 241166" d="M119.905,21.985,72.938,104.206l112.84,71.017c1.4-.785,2.833-1.53,4.179-2.31,65.034-37.944,65.357-88.4.737-126.342C170.31,34.6,145.869,26.405,119.905,21.985" transform="translate(112.375 34.449)" fill="#5127bd"/>
          <path id="Trazado_241167" data-name="Trazado 241167" d="M188.092,181.424a3.774,3.774,0,0,1-2.015-.583L73.235,109.825a3.87,3.87,0,0,1-1.286-5.193l46.97-82.221a3.8,3.8,0,0,1,3.933-1.874c27.086,4.613,52.008,13.276,72.069,25.056,32.841,19.28,50.181,42.2,50.148,66.291-.028,24.234-17.627,47.306-50.893,66.714-.846.49-1.7.957-2.571,1.43l-1.672.914a3.763,3.763,0,0,1-1.842.483m-107.7-76.166L188.222,173.12c.732-.4,1.458-.793,2.16-1.2,30.758-17.951,47.041-38.717,47.066-60.051.028-21.185-16-41.8-46.357-59.622-18.639-10.945-41.721-19.1-66.9-23.662Z" transform="translate(110.063 32.098)" fill="#12263f"/>
          <path id="Trazado_241168" data-name="Trazado 241168" d="M1.5,63.819c5.569,19.011,20.808,37.244,45.811,51.914C65.978,126.7,88.054,134.489,111.525,139.1c56.111,11.04,120.335,4.028,166.38-21.039L165.065,47.044Z" transform="translate(2.311 73.714)" fill="#84539c"/>
          <path id="Trazado_241169" data-name="Trazado 241169" d="M166.791,150.378a279.029,279.029,0,0,1-53.685-5.144c-24.777-4.872-46.782-12.889-65.4-23.824C22.678,106.725,6.235,88,.157,67.261a3.884,3.884,0,0,1,.49-3.239,3.81,3.81,0,0,1,2.78-1.684L166.994,45.563a3.817,3.817,0,0,1,2.4.562l112.84,71.022a3.87,3.87,0,0,1-.206,6.656c-31.865,17.35-73.177,26.575-115.236,26.575M8.958,69.51c6.484,17.08,21.108,32.644,42.579,45.242,17.881,10.5,39.086,18.215,63.024,22.923,54.549,10.732,114.326,3.976,157.937-17.583L166.468,53.356Z" transform="translate(0 71.366)" fill="#12263f"/>
          <path id="Trazado_241170" data-name="Trazado 241170" d="M3.715,59.75c.226.531.434,1.078.671,1.609.912,2.072,1.9,4.128,3.046,6.163.127.226.277.444.412.673,1.059,1.851,2.233,3.673,3.491,5.488.422.6.859,1.2,1.3,1.8,1.021,1.384,2.124,2.759,3.26,4.128.655.785,1.308,1.581,2,2.369,1.237,1.389,2.569,2.749,3.93,4.11.643.639,1.242,1.3,1.906,1.93q2.889,2.745,6.118,5.375c.49.4,1,.788,1.494,1.178,1.989,1.579,4.065,3.139,6.242,4.659.384.27.739.536,1.126.8,2.731,1.871,5.584,3.689,8.6,5.457,2.6,1.527,5.285,2.98,8.008,4.387.882.444,1.791.87,2.678,1.317,1.9.934,3.806,1.843,5.752,2.724q1.585.708,3.191,1.389c1.872.8,3.773,1.574,5.7,2.333,1.08.418,2.152.844,3.242,1.248,2.1.78,4.22,1.517,6.359,2.241.889.29,1.768.611,2.663.886,3.826,1.227,7.724,2.349,11.664,3.391.887.234,1.776.454,2.668.673,4.05,1.014,8.138,1.974,12.289,2.788,2.386.472,4.812.865,7.233,1.268,1.692.285,3.379.57,5.084.824,1.855.277,3.712.511,5.577.739,1.715.218,3.43.439,5.153.624,2.269.239,4.55.444,6.84.629,1.037.087,2.076.19,3.12.262,6.695.475,13.433.708,20.163.7,1,0,1.994-.021,2.99-.028,1.916-.021,3.831-.08,5.745-.144,4.82-.141,9.634-.375,14.418-.765.323-.044.638-.087.96-.105,4.5-.39,8.981-.909,13.435-1.517,1.735-.234,3.468-.467,5.191-.732,1.006-.164,2.017-.321,3.029-.49q4.055-.681,8.064-1.489c.523-.1,1.057-.19,1.58-.3q4.9-1.024,9.705-2.223c.8-.205,1.58-.431,2.376-.629q3.5-.916,6.954-1.92c1.786-.526,3.544-1.1,5.3-1.661,1.565-.5,3.14-1,4.69-1.532,1.773-.608,3.511-1.276,5.254-1.93,1.481-.56,2.97-1.106,4.423-1.686,2.249-.906,4.439-1.879,6.629-2.86,1.042-.467,2.109-.9,3.133-1.381q4.771-2.241,9.329-4.7l.2,86.149c-3.031,1.653-6.151,3.219-9.335,4.708-1.016.483-2.076.9-3.11,1.36-2.193.993-4.388,1.974-6.646,2.875-.279.113-.546.249-.826.359-1.192.475-2.424.888-3.633,1.342-1.725.652-3.443,1.309-5.2,1.915-1.57.536-3.166,1.034-4.743,1.545-1.756.56-3.5,1.127-5.282,1.651-.394.123-.772.254-1.169.377-1.875.531-3.781,1.014-5.686,1.509-.826.213-1.651.459-2.49.667-3.039.757-6.113,1.473-9.218,2.125-.142.023-.295.049-.437.08-.569.126-1.151.218-1.72.326-2.625.526-5.262,1.022-7.914,1.466-1.037.167-2.073.329-3.122.5-1.075.164-2.139.362-3.219.5-.625.092-1.258.133-1.885.221-4.479.611-8.989,1.132-13.529,1.522-.239.023-.475.059-.709.087-.058,0-.117,0-.168.005-4.8.4-9.624.634-14.454.78-.564.023-1.123.087-1.69.092-1.331.028-2.665.028-4,.039-1.014.01-2.022.033-3.041.033-3.318.005-6.629-.033-9.942-.141-3.4-.126-6.809-.321-10.2-.554-1.054-.077-2.1-.185-3.148-.27-1.684-.133-3.369-.246-5.043-.408-.595-.072-1.179-.157-1.776-.223-1.728-.182-3.44-.4-5.163-.616-1.86-.241-3.712-.475-5.562-.744-1.71-.254-3.4-.537-5.1-.814-1.23-.216-2.467-.377-3.694-.6q-1.768-.331-3.532-.667c-4.144-.821-8.232-1.781-12.287-2.785q-1.334-.335-2.655-.683c-3.956-1.037-7.856-2.154-11.68-3.381-.18-.064-.373-.1-.551-.167-.7-.223-1.382-.488-2.088-.729-2.142-.714-4.279-1.458-6.38-2.238-1.087-.4-2.162-.832-3.234-1.242q-2.893-1.14-5.711-2.349c-1.067-.454-2.129-.9-3.178-1.373-1.951-.888-3.864-1.8-5.765-2.726-.887-.444-1.786-.87-2.665-1.317-2.726-1.4-5.414-2.86-8.016-4.389q-1.178-.681-2.337-1.4c-2.172-1.327-4.245-2.68-6.268-4.063-.371-.257-.724-.531-1.1-.788-2.188-1.53-4.271-3.085-6.27-4.68-.49-.39-1-.773-1.479-1.163-1.959-1.609-3.859-3.234-5.628-4.885-.175-.172-.32-.334-.5-.5-.666-.629-1.263-1.291-1.9-1.92-1.367-1.363-2.7-2.729-3.938-4.135-.691-.767-1.334-1.553-1.984-2.331-.633-.76-1.326-1.512-1.926-2.277-.485-.619-.894-1.258-1.362-1.887-.432-.6-.874-1.194-1.288-1.787-1.247-1.81-2.421-3.622-3.473-5.455-.137-.239-.3-.472-.432-.716-.028-.049-.066-.1-.091-.146-1.113-1.987-2.073-3.994-2.955-6.009-.236-.536-.45-1.068-.666-1.609-.264-.637-.569-1.281-.805-1.92-.526-1.427-1-2.831-1.41-4.253L1.5,53.579c.612,2.066,1.38,4.122,2.215,6.171" transform="translate(2.311 83.954)" fill="#ba68c8"/>
          <path id="Trazado_241171" data-name="Trazado 241171" d="M166.456,226.266c-3.2,0-6.342-.049-9.329-.144q-5.2-.2-10.343-.562l-4.782-.4c-1.171-.09-2.343-.18-3.509-.29l-1.842-.231c-1.428-.149-2.879-.329-4.332-.511l-2.01-.257c-1.507-.2-3.008-.39-4.5-.608s-2.985-.467-4.472-.711l-.694-.116c-.549-.095-1.062-.172-1.578-.252-.734-.113-1.466-.226-2.2-.365l-3.56-.673c-3.661-.724-7.62-1.622-12.477-2.824-.915-.231-1.817-.462-2.713-.7-4.253-1.114-8.135-2.241-11.868-3.437-.3-.087-.478-.136-.648-.2-.371-.118-.828-.282-1.291-.449l-.775-.275c-2.144-.711-4.319-1.473-6.464-2.269-.681-.246-1.364-.516-2.05-.78l-1.214-.47c-2.007-.793-3.948-1.586-5.864-2.413l-.579-.244c-.894-.38-1.786-.757-2.665-1.158-1.987-.9-3.928-1.83-5.859-2.77l-2.708-1.337c-3.077-1.584-5.76-3.055-8.237-4.513-.785-.454-1.6-.937-2.4-1.427-2.116-1.3-4.223-2.662-6.425-4.171l-1.105-.791c-2.274-1.591-4.449-3.214-6.489-4.841l-1.494-1.178c-2.358-1.935-4.2-3.54-5.839-5.067L23.8,179.5c-.592-.572-1-.993-1.41-1.414l-.714-.726c-1.265-1.263-2.729-2.752-4.121-4.33-.579-.639-1.148-1.327-1.72-2.015L14.807,169.8c-.45-.513-.894-1.032-1.3-1.55-.33-.418-.628-.845-.925-1.271l-.935-1.3c-.315-.434-.63-.865-.927-1.3-1.413-2.043-2.607-3.915-3.646-5.719l-.137-.226c-.114-.185-.226-.367-.33-.554a1.789,1.789,0,0,1-.13-.226q-1.513-2.688-3.069-6.245c-.239-.544-.46-1.086-.683-1.643l-.295-.693c-.2-.467-.407-.937-.579-1.407-.556-1.512-1.054-3-1.494-4.51A3.77,3.77,0,0,1,.2,142.086L0,55.94a3.836,3.836,0,0,1,3.252-3.817,3.783,3.783,0,0,1,4.207,2.7C7.975,56.551,8.636,58.4,9.55,60.63l.274.67c.114.277.226.56.351.834.973,2.208,1.916,4.117,2.881,5.84l.361.578c.963,1.689,2.045,3.391,3.349,5.278.31.439.64.891.973,1.35l.277.38c.963,1.3,2.02,2.618,3.107,3.93l.257.305c.546.66,1.1,1.322,1.674,1.979,1.174,1.314,2.454,2.623,3.765,3.933l.8.819c.335.349.671.7,1.026,1.034,1.778,1.694,3.709,3.391,5.915,5.2.3.244.62.493.938.742l.5.39c2.025,1.607,4.06,3.129,6.062,4.528l1.082.77c2.716,1.858,5.534,3.65,8.392,5.326,2.3,1.353,4.865,2.754,7.825,4.284l2.642,1.3c1.829.9,3.7,1.792,5.61,2.654,1.021.459,2.063.911,3.11,1.353,1.85.793,3.72,1.553,5.612,2.3l.722.28c.81.316,1.624.634,2.444.937,2.066.77,4.162,1.494,6.263,2.21l1.085.362c.488.167.973.334,1.466.485,3.623,1.163,7.378,2.254,11.527,3.35.861.226,1.728.442,2.6.655,4.66,1.168,8.506,2.041,12.119,2.752,2.152.429,4.332.785,6.509,1.147l.61.1c1.684.282,3.351.565,5.033.816,1.814.272,3.641.5,5.473.721,1.766.228,3.425.442,5.092.619,2.238.239,4.487.442,6.74.621l1.072.092c.668.059,1.334.121,2,.164,6.613.47,13.293.662,19.9.7l2.97-.028c1.875-.021,3.76-.077,5.643-.139,5.244-.154,9.9-.4,14.238-.755.264-.041.63-.087,1.006-.11,4.19-.365,8.524-.852,13.186-1.489l.386-.054c1.585-.216,3.171-.431,4.746-.673l2.973-.48q4-.674,7.95-1.466l1.56-.3c3.262-.678,6.479-1.414,9.55-2.184l.978-.262c.465-.126.932-.252,1.4-.37,2.259-.588,4.54-1.219,6.8-1.879,1.329-.39,2.645-.814,3.961-1.235l2.32-.739c1.184-.38,2.368-.757,3.539-1.163,1.395-.48,2.759-.993,4.118-1.5l2.276-.855c1.047-.4,2.091-.785,3.117-1.2,2.2-.883,4.337-1.838,6.486-2.8l1.339-.588c.579-.246,1.161-.5,1.725-.762,3.313-1.561,6.3-3.065,9.139-4.605a3.767,3.767,0,0,1,3.755.085,3.853,3.853,0,0,1,1.86,3.3l.2,86.151a3.866,3.866,0,0,1-2,3.4c-3.008,1.638-6.217,3.257-9.543,4.813-.648.308-1.329.6-2.012.888l-1.159.5c-2.228,1.006-4.477,2.01-6.781,2.931l-.269.118c-.183.082-.366.167-.554.241-.777.308-1.555.588-2.335.87l-1.69.619c-1.654.626-3.305,1.253-4.985,1.833-1.151.393-2.307.765-3.463,1.135l-2.18.7c-1.507.483-3.013.965-4.543,1.417l-1.123.362c-1.606.457-3.145.855-4.688,1.253l-2.226.59c-.488.133-.978.267-1.471.39-3.318.827-6.377,1.532-9.35,2.156l-.264.049c-.559.118-1.009.2-1.451.277l-.516.095c-2.627.524-5.3,1.032-7.993,1.479l-4.317.69c-.719.118-1.433.236-2.152.331-.333.049-.729.092-1.126.133l-.747.085c-4.85.662-9.335,1.168-13.717,1.543l-.584.077a4.287,4.287,0,0,1-.445.023c-4.51.375-9.19.624-14.5.785l-.551.036c-.407.026-.813.051-1.222.056-1.037.023-2.124.028-3.217.033l-1.69.018q-1.444.027-2.9.023M7.818,141.506c.353,1.16.742,2.31,1.171,3.478.124.331.269.662.414.993l.338.793c.234.575.422,1.05.633,1.527a63.038,63.038,0,0,0,2.79,5.67l.213.352c.1.175.211.347.313.521.9,1.574,1.984,3.268,3.277,5.134.262.382.539.76.816,1.14l.429.59c.183.249.389.539.592.832.218.311.434.624.673.929.33.421.7.839,1.059,1.258l1.136,1.335c.5.608,1.009,1.217,1.545,1.812,1.278,1.45,2.637,2.829,3.8,3.992.267.264.544.552.826.839.325.336.65.675,1,1l.394.39c1.6,1.509,3.331,3.011,5.534,4.818l1.423,1.122c1.928,1.535,3.971,3.062,6.093,4.543l1.07.77c2.091,1.43,4.088,2.726,6.1,3.956q1.124.689,2.254,1.345c2.381,1.4,4.939,2.8,7.853,4.3l2.627,1.3c1.834.893,3.717,1.789,5.638,2.662.818.375,1.654.726,2.49,1.081l.6.257c1.857.8,3.73,1.566,5.617,2.31l1.227.475c.638.249,1.278.5,1.921.734,2.078.77,4.174,1.5,6.273,2.2l.917.326c.379.136.752.272,1.133.4.3.085.5.141.691.213,3.458,1.1,7.216,2.192,11.342,3.275.874.234,1.745.454,2.619.673,4.723,1.173,8.572,2.046,12.1,2.741l3.5.662c.65.121,1.3.221,1.959.321.564.087,1.126.172,1.684.27l.663.108c1.446.239,2.894.477,4.347.693s2.912.4,4.375.59l1.972.254c1.405.175,2.807.349,4.218.5l1.842.231c1.016.1,2.142.182,3.265.27l4.754.393c3.328.228,6.692.421,10.056.547,3.247.1,6.479.136,9.794.139.691,0,1.377-.01,2.058-.021l1.771-.021c1.049,0,2.091-.008,3.135-.033.307,0,.564-.023.818-.039l.805-.049c5.363-.162,10.026-.416,14.291-.77.038,0,.1-.008.173-.01l.661-.077c4.284-.37,8.648-.862,13.372-1.507.33-.044.658-.08.986-.113.285-.031.574-.059.856-.1.7-.092,1.339-.2,1.977-.3l4.324-.69c2.586-.434,5.186-.924,7.772-1.44l.62-.113c.338-.059.678-.121,1.011-.2l.485-.09c2.886-.606,5.856-1.291,9.083-2.095.434-.108.861-.226,1.288-.344l2.34-.619c1.486-.382,2.968-.767,4.431-1.183l1.092-.352c1.512-.447,2.968-.914,4.423-1.381l2.17-.693c1.11-.357,2.221-.711,3.316-1.088,1.6-.552,3.178-1.15,4.756-1.751l1.822-.665c.7-.252,1.4-.5,2.078-.773l.231-.1c.2-.092.4-.182.612-.264,2.185-.873,4.329-1.833,6.474-2.8l1.3-.562c.587-.249,1.176-.5,1.748-.77,2.47-1.155,4.86-2.338,7.139-3.537l-.175-77.539c-1.265.629-2.569,1.258-3.925,1.894-.64.3-1.3.59-1.964.873l-1.227.536c-2.241,1-4.474,1.994-6.768,2.921-1.085.431-2.18.842-3.272,1.255l-2.276.855c-1.428.536-2.858,1.073-4.314,1.571-1.214.424-2.462.821-3.7,1.219l-2.315.739c-1.372.439-2.747.878-4.136,1.289q-3.51,1.028-7.066,1.951c-.462.116-.877.228-1.291.341l-1.1.29c-3.194.8-6.507,1.558-9.876,2.261-.409.085-.816.159-1.217.234l-.442.08c-2.665.536-5.389,1.04-8.13,1.5l-3.044.493c-1.659.254-3.285.477-4.914.7l-.379.049c-4.787.655-9.24,1.158-13.621,1.535-.285.023-.5.051-.724.082-.061.008-.191.023-.252.028-4.477.365-9.258.619-14.617.775-1.923.067-3.869.123-5.813.144l-3.034.028c-6.8.054-13.651-.231-20.427-.711-.714-.049-1.435-.113-2.157-.18l-1.016-.087c-2.3-.185-4.614-.393-6.916-.637-1.725-.182-3.44-.4-5.158-.624-1.954-.241-3.847-.48-5.732-.757-1.73-.262-3.443-.547-5.158-.837l-.6-.1c-2.259-.375-4.517-.75-6.743-1.191-3.735-.732-7.7-1.633-12.472-2.829-.889-.218-1.8-.444-2.706-.68-4.286-1.137-8.163-2.264-11.86-3.45-.518-.159-1.08-.349-1.644-.542l-1.032-.344c-2.223-.757-4.38-1.507-6.512-2.3-.856-.316-1.707-.647-2.558-.978l-.732-.285c-1.979-.78-3.91-1.571-5.816-2.382-1.087-.462-2.177-.934-3.257-1.422-1.994-.9-3.941-1.825-5.877-2.78l-1.273-.626c-.483-.234-.965-.47-1.438-.708-3.115-1.607-5.793-3.075-8.217-4.5-3.008-1.769-5.978-3.653-8.821-5.6-.236-.162-.48-.334-.724-.508l-.432-.308c-2.129-1.489-4.291-3.1-6.428-4.8l-.457-.359c-.361-.282-.724-.565-1.075-.852-2.36-1.935-4.431-3.755-6.336-5.57-.434-.411-.851-.839-1.268-1.271l-.7-.716c-1.42-1.42-2.8-2.834-4.085-4.276-.648-.734-1.245-1.45-1.837-2.161l-.257-.308c-1.184-1.43-2.335-2.862-3.4-4.3l-.287-.39c-.358-.5-.719-.988-1.067-1.486-1.082-1.566-2.027-3.019-2.871-4.413Z" transform="translate(0 81.603)" fill="#12263f"/>
        </g>
      </g>
    </g>
    <g id="Grupo_180384" data-name="Grupo 180384" transform="translate(1122.8 3670)">
      <g id="Grupo_180379" data-name="Grupo 180379">
        <g id="Grupo_180378" data-name="Grupo 180378" clip-path="url(#clip-path-5)">
          <path id="Trazado_241172" data-name="Trazado 241172" d="M43.287,382.584a3.655,3.655,0,0,1-3.635-3.673V48.483a3.635,3.635,0,1,1,7.27,0V378.912a3.655,3.655,0,0,1-3.635,3.673" transform="translate(56.443 64.906)" fill="#12263f"/>
          <path id="Trazado_241173" data-name="Trazado 241173" d="M82.163,358.663a3.655,3.655,0,0,1-3.635-3.673V27.059a3.635,3.635,0,1,1,7.27,0V354.99a3.655,3.655,0,0,1-3.635,3.673" transform="translate(111.781 33.874)" fill="#12263f"/>
          <path id="Trazado_241174" data-name="Trazado 241174" d="M3.638,218A3.633,3.633,0,0,1,.48,216.157a3.7,3.7,0,0,1,1.347-5.014L286.94,46.015a3.62,3.62,0,0,1,4.963,1.359,3.7,3.7,0,0,1-1.345,5.014L5.444,217.519A3.585,3.585,0,0,1,3.638,218" transform="translate(-0.001 65.948)" fill="#12263f"/>
          <path id="Trazado_241175" data-name="Trazado 241175" d="M3.638,262.53A3.633,3.633,0,0,1,.48,260.683a3.7,3.7,0,0,1,1.347-5.014L286.94,90.541A3.62,3.62,0,0,1,291.9,91.9a3.7,3.7,0,0,1-1.345,5.014L5.444,262.045a3.585,3.585,0,0,1-1.805.485" transform="translate(-0.001 130.443)" fill="#12263f"/>
          <path id="Trazado_241176" data-name="Trazado 241176" d="M4.563,503a3.583,3.583,0,0,1-1.813-.49,3.683,3.683,0,0,1-1.822-3.173L0,169.451a3.672,3.672,0,0,1,1.818-3.19L286.006.494a3.593,3.593,0,0,1,3.63,0,3.683,3.683,0,0,1,1.822,3.173l.926,329.888a3.686,3.686,0,0,1-1.818,3.19L6.381,502.507A3.61,3.61,0,0,1,4.563,503M7.278,171.557l.9,321.419L285.107,331.447l-.9-321.421Z" transform="translate(0 0.001)" fill="#12263f"/>
        </g>
      </g>
      <g id="Grupo_180381" data-name="Grupo 180381" transform="translate(178.216 219.812)">
        <g id="Grupo_180380" data-name="Grupo 180380" clip-path="url(#clip-path-6)">
          <rect id="Rectángulo_45075" data-name="Rectángulo 45075" width="22.906" height="30.559" transform="translate(-0.024 0)" fill="url(#linear-gradient)"/>
        </g>
      </g>
      <g id="Grupo_180383" data-name="Grupo 180383">
        <g id="Grupo_180382" data-name="Grupo 180382" clip-path="url(#clip-path-5)">
          <path id="Trazado_241178" data-name="Trazado 241178" d="M73.494,111.3c-.015-7.319,5.094-16.277,11.412-19.97,3.325-1.937,6.3-1.983,8.4-.568l.015-.039,11.836,6.787-16.1,28.226-12.1-6.963.007-.007c-2.118-1.175-3.451-3.756-3.466-7.465" transform="translate(104.615 130.036)" fill="#80b3f2"/>
          <path id="Trazado_241179" data-name="Trazado 241179" d="M91.188,131.576a3.6,3.6,0,0,1-1.8-.482l-12.1-6.961c-.078-.047-.155-.093-.228-.144-3.209-1.934-5.053-5.744-5.067-10.509v0c-.017-8.641,5.794-18.812,13.227-23.155,4.139-2.412,8.344-2.7,11.652-.81a3.189,3.189,0,0,1,.378.186l11.839,6.79a3.692,3.692,0,0,1,1.355,5.027l-16.1,28.226a3.631,3.631,0,0,1-3.153,1.839M81.1,117.872l8.741,5.032,12.474-21.855-8.2-4.7a3.593,3.593,0,0,1-.686-.357c-1-.671-2.668-.419-4.573.693-5.208,3.043-9.6,10.727-9.594,16.774.007,2.123.6,3.714,1.583,4.26.087.049.172.1.257.157" transform="translate(102.48 127.864)" fill="#12263f"/>
          <path id="Trazado_241180" data-name="Trazado 241180" d="M101.463,100.844a22.333,22.333,0,0,1-2.307,9.4c-.376.8-.8,1.582-1.248,2.343a23.282,23.282,0,0,1-7.852,8.229c-4.105,2.395-7.716,1.961-9.745-.654a6.913,6.913,0,0,1-.848-1.427,11.336,11.336,0,0,1-.875-4.539c-.019-7.336,5.089-16.277,11.393-19.955,6.328-3.69,11.468-.73,11.482,6.606" transform="translate(111.866 134.202)" fill="#80b3f2"/>
          <path id="Trazado_241181" data-name="Trazado 241181" d="M87.065,128.214a9.21,9.21,0,0,1-7.481-3.621,10.474,10.474,0,0,1-1.3-2.172,14.982,14.982,0,0,1-1.2-6.04c-.027-8.653,5.778-18.819,13.21-23.155,4.18-2.439,8.472-2.74,11.766-.818,3.277,1.907,5.157,5.769,5.167,10.6A25.864,25.864,0,0,1,104.568,114c-.422.891-.894,1.775-1.4,2.63a26.879,26.879,0,0,1-9.161,9.537,13.906,13.906,0,0,1-6.943,2.052M97.254,98.492a6.968,6.968,0,0,0-3.323,1.094c-5.206,3.036-9.59,10.715-9.573,16.762a7.819,7.819,0,0,0,.555,3.051,3.408,3.408,0,0,0,.393.664c1.294,1.667,3.977.375,5.067-.262a19.563,19.563,0,0,0,6.551-6.934c.383-.654.756-1.342,1.086-2.04a18.735,18.735,0,0,0,1.951-7.8v-.007c0-2.108-.574-3.695-1.529-4.253a2.326,2.326,0,0,0-1.178-.277" transform="translate(109.731 132.034)" fill="#12263f"/>
          <path id="Trazado_241182" data-name="Trazado 241182" d="M3.678,126.272C3.663,118.958,8.775,110,15.095,106.3c3.32-1.932,6.294-1.981,8.4-.568l.017-.034,11.836,6.78L19.239,140.705l-12.1-6.954.01-.007c-2.121-1.18-3.451-3.756-3.468-7.473" transform="translate(5.235 151.736)" fill="#ba68c8"/>
          <path id="Trazado_241183" data-name="Trazado 241183" d="M21.372,146.552a3.611,3.611,0,0,1-1.793-.48l-12.1-6.956c-.092-.054-.179-.108-.264-.169-3.184-1.942-5.012-5.737-5.034-10.487v-.01c-.015-8.638,5.8-18.807,13.232-23.153,4.149-2.417,8.351-2.693,11.657-.8a3.481,3.481,0,0,1,.371.184l11.836,6.782a3.657,3.657,0,0,1,1.713,2.228,3.7,3.7,0,0,1-.356,2.8L24.525,144.714a3.631,3.631,0,0,1-3.153,1.839M11.317,132.875l8.715,5.007L32.5,116.025l-8.206-4.7a3.477,3.477,0,0,1-.681-.355c-1-.668-2.661-.419-4.568.69-5.21,3.043-9.607,10.724-9.6,16.772.01,2.128.6,3.722,1.585,4.268a2.768,2.768,0,0,1,.284.176" transform="translate(3.1 149.564)" fill="#12263f"/>
          <path id="Trazado_241184" data-name="Trazado 241184" d="M31.63,115.812a23.994,23.994,0,0,1-3.72,12c-.458.766-.957,1.5-1.473,2.2a21.73,21.73,0,0,1-6.223,5.773c-6.318,3.68-11.456.722-11.48-6.616-.015-7.314,5.087-16.273,11.4-19.967,6.308-3.673,11.468-.7,11.492,6.616" transform="translate(12.431 155.886)" fill="#ba68c8"/>
          <path id="Trazado_241185" data-name="Trazado 241185" d="M17.2,143.193a9.4,9.4,0,0,1-4.779-1.249c-3.277-1.9-5.169-5.769-5.184-10.6-.017-8.648,5.79-18.819,13.222-23.16,4.173-2.436,8.46-2.728,11.756-.806s5.174,5.769,5.189,10.587v0A27.414,27.414,0,0,1,33.145,131.9c-.511.852-1.071,1.68-1.662,2.475a25.275,25.275,0,0,1-7.309,6.75,14,14,0,0,1-6.977,2.069m10.2-29.729a6.923,6.923,0,0,0-3.3,1.082c-5.208,3.046-9.6,10.729-9.587,16.779.007,2.1.582,3.7,1.539,4.251.977.573,2.649.267,4.493-.813a17.977,17.977,0,0,0,5.133-4.8c.441-.595.872-1.227,1.27-1.888a20.33,20.33,0,0,0,3.192-10.083c-.007-2.1-.584-3.687-1.546-4.248a2.37,2.37,0,0,0-1.192-.282" transform="translate(10.296 153.719)" fill="#12263f"/>
          <path id="Trazado_241186" data-name="Trazado 241186" d="M35.745,157.474c-.015-7.311,5.094-16.277,11.412-19.962,3.32-1.937,6.3-1.991,8.4-.573l.015-.034,11.836,6.78-16.1,28.229-12.1-6.959.007-.012c-2.118-1.175-3.451-3.758-3.466-7.468" transform="translate(50.881 196.928)" fill="#5127bd"/>
          <path id="Trazado_241187" data-name="Trazado 241187" d="M53.44,177.759a3.634,3.634,0,0,1-1.8-.48l-12.105-6.961c-.095-.056-.184-.113-.271-.174-3.18-1.942-5-5.739-5.021-10.484v-.007c-.017-8.643,5.794-18.809,13.232-23.15,4.149-2.424,8.358-2.7,11.666-.8.121.054.24.113.356.179l11.839,6.782a3.657,3.657,0,0,1,1.713,2.228,3.706,3.706,0,0,1-.356,2.8l-16.1,28.228a3.628,3.628,0,0,1-3.153,1.839m-10.048-13.68,8.707,5.007,12.469-21.86-8.208-4.7a3.362,3.362,0,0,1-.683-.355c-1-.673-2.659-.416-4.563.7-5.213,3.041-9.607,10.719-9.6,16.77.007,2.125.6,3.719,1.58,4.265.1.056.2.118.3.181" transform="translate(48.747 194.755)" fill="#12263f"/>
          <path id="Trazado_241188" data-name="Trazado 241188" d="M46.071,146.07a21.506,21.506,0,0,1,6.136-5.661c4.062-2.373,7.646-1.978,9.691.566a7.206,7.206,0,0,1,.877,1.42,11,11,0,0,1,.911,4.62c.027,7.323-5.1,16.295-11.4,19.97s-11.468.71-11.482-6.613a23.973,23.973,0,0,1,3.793-12.135,25.737,25.737,0,0,1,1.478-2.167" transform="translate(58.077 201.092)" fill="#5127bd"/>
          <path id="Trazado_241189" data-name="Trazado 241189" d="M49.268,174.391a9.418,9.418,0,0,1-4.791-1.254c-3.281-1.91-5.167-5.774-5.176-10.6a27.409,27.409,0,0,1,4.338-14.079,29.2,29.2,0,0,1,1.687-2.468,25.242,25.242,0,0,1,7.2-6.6c5.445-3.183,11.078-2.625,14.332,1.432a10.664,10.664,0,0,1,1.333,2.14,14.715,14.715,0,0,1,1.272,6.2c.027,8.65-5.782,18.826-13.225,23.165a13.974,13.974,0,0,1-6.967,2.064m10.159-29.727a7.23,7.23,0,0,0-3.269,1.085,17.984,17.984,0,0,0-5.063,4.711l-.012.015c-.451.593-.872,1.217-1.267,1.861a20.267,20.267,0,0,0-3.245,10.181c0,2.111.577,3.7,1.536,4.255.977.571,2.654.264,4.491-.806,5.22-3.041,9.609-10.724,9.592-16.777a7.517,7.517,0,0,0-.567-3.07,3.427,3.427,0,0,0-.4-.661,2.187,2.187,0,0,0-1.791-.793m-11.221,3.567h0Z" transform="translate(55.942 198.933)" fill="#12263f"/>
          <path id="Trazado_241190" data-name="Trazado 241190" d="M108.051,128.647c-.015-7.311,5.1-16.275,11.412-19.967,3.325-1.929,6.3-1.986,8.4-.57l.015-.032,11.839,6.78-16.106,28.228-12.1-6.956.007-.015c-2.118-1.178-3.451-3.754-3.466-7.468" transform="translate(153.805 155.173)" fill="#ba68c8"/>
          <path id="Trazado_241191" data-name="Trazado 241191" d="M125.745,148.929a3.579,3.579,0,0,1-1.793-.48l-12.1-6.956a3.052,3.052,0,0,1-.33-.213c-3.146-1.954-4.949-5.734-4.968-10.448v-.007c-.017-8.638,5.794-18.807,13.227-23.153,4.171-2.419,8.383-2.7,11.683-.793a3.282,3.282,0,0,1,.347.174l11.839,6.78A3.692,3.692,0,0,1,145,118.862l-16.1,28.228a3.629,3.629,0,0,1-3.153,1.839m-10.006-13.65,8.664,4.98L136.876,118.4l-8.225-4.708a3.269,3.269,0,0,1-.664-.353c-.994-.664-2.659-.416-4.578.7-5.2,3.041-9.6,10.719-9.587,16.767.007,2.125.6,3.719,1.583,4.268a3.854,3.854,0,0,1,.334.208" transform="translate(151.67 153.002)" fill="#12263f"/>
          <path id="Trazado_241192" data-name="Trazado 241192" d="M116.968,119.389a22.973,22.973,0,0,1,7.6-7.8c6.306-3.68,11.47-.73,11.482,6.594s-5.1,16.285-11.4,19.962-11.47.722-11.482-6.611a22.469,22.469,0,0,1,2.525-9.826c.39-.791.819-1.565,1.277-2.319" transform="translate(161.085 159.338)" fill="#ba68c8"/>
          <path id="Trazado_241193" data-name="Trazado 241193" d="M121.628,145.563a9.411,9.411,0,0,1-4.786-1.254c-3.281-1.907-5.167-5.771-5.176-10.6a25.961,25.961,0,0,1,2.911-11.481c.436-.881.916-1.751,1.432-2.6l.01-.017a26.614,26.614,0,0,1,8.877-9.042c4.173-2.439,8.458-2.732,11.754-.813,3.279,1.907,5.167,5.764,5.176,10.582.027,8.633-5.782,18.807-13.225,23.15a13.967,13.967,0,0,1-6.972,2.069m.567-22.073c-.4.661-.775,1.337-1.117,2.027a18.9,18.9,0,0,0-2.142,8.166c0,2.115.579,3.7,1.534,4.26.972.575,2.659.262,4.5-.81,5.215-3.046,9.607-10.727,9.59-16.77,0-2.1-.579-3.68-1.532-4.236-.977-.568-2.656-.264-4.5.81a19.243,19.243,0,0,0-6.332,6.552" transform="translate(158.949 157.169)" fill="#12263f"/>
          <line id="Línea_297-2" data-name="Línea 297" x2="55.197" y2="26.098" transform="translate(209.775 246.787)" fill="#ba68c8"/>
          <path id="Trazado_241194" data-name="Trazado 241194" d="M143.889,132.736a3.568,3.568,0,0,1-1.539-.348l-55.194-26.1A3.688,3.688,0,0,1,85.4,101.41a3.617,3.617,0,0,1,4.832-1.77l55.2,26.1a3.685,3.685,0,0,1,1.75,4.882,3.629,3.629,0,0,1-3.293,2.115" transform="translate(121.079 143.822)" fill="#12263f"/>
          <line id="Línea_298-2" data-name="Línea 298" x1="72.515" y2="86.507" transform="translate(111.897 250.441)" fill="#ba68c8"/>
          <path id="Trazado_241195" data-name="Trazado 241195" d="M48.306,194.638a3.594,3.594,0,0,1-2.348-.869,3.7,3.7,0,0,1-.424-5.179l72.514-86.507a3.611,3.611,0,0,1,5.126-.428,3.7,3.7,0,0,1,.422,5.179L51.083,193.341a3.624,3.624,0,0,1-2.777,1.3" transform="translate(63.589 145.984)" fill="#12263f"/>
          <line id="Línea_299-2" data-name="Línea 299" x2="50.939" y2="57.453" transform="translate(38.868 285.892)" fill="#ba68c8"/>
          <path id="Trazado_241196" data-name="Trazado 241196" d="M69.114,180.066a3.605,3.605,0,0,1-2.709-1.222L15.466,121.388a3.7,3.7,0,0,1,.281-5.186,3.6,3.6,0,0,1,5.135.284l50.936,57.456a3.7,3.7,0,0,1-.281,5.186,3.6,3.6,0,0,1-2.423.938" transform="translate(20.695 166.954)" fill="#12263f"/>
        </g>
      </g>
    </g>
    <g id="Grupo_80276" data-name="Grupo 80276" transform="translate(1236.426 3349.951)">
      <path id="Trazado_115035" data-name="Trazado 115035" d="M6767.071,4591.4c1.062-1.78,1.143-2.259-2.975-5.284-3.205-2.361-9.141-6.729-4.733-14.152,3.439-5.8,10.273-8.36,16.9-10.835,5.793-2.174,11.27-4.229,13.5-8a3.3,3.3,0,0,1,4.5-1.3,3.36,3.36,0,0,1,1.288,4.541c-.031.061-.071.124-.105.183-3.443,5.809-10.274,8.36-16.9,10.837-5.793,2.173-11.271,4.229-13.507,8-1.062,1.786-1.142,2.266,2.977,5.29,3.2,2.355,9.139,6.724,4.729,14.149-3.417,5.79-10.271,8.356-16.886,10.852-5.8,2.176-11.288,4.236-13.524,8.012-1.059,1.78-1.142,2.263,2.977,5.286,3.2,2.357,9.14,6.727,4.765,14.132-3.439,5.8-10.286,8.364-16.913,10.846-5.792,2.173-11.271,4.228-13.512,7.988-1.064,1.782-1.137,2.275,2.981,5.3,3.205,2.359,9.143,6.729,4.77,14.132a18.885,18.885,0,0,1-7.3,6.689,69.157,69.157,0,0,1-9.613,4.152c-5.793,2.177-11.268,4.229-13.516,7.99a3.286,3.286,0,0,1-4.538,1.14,3.36,3.36,0,0,1-1.129-4.587c3.45-5.788,10.273-8.356,16.882-10.825,5.792-2.175,11.292-4.225,13.523-8.014,1.058-1.782,1.135-2.275-2.986-5.3-3.2-2.359-9.142-6.729-4.743-14.169,3.45-5.788,10.274-8.354,16.884-10.825,5.791-2.173,11.292-4.223,13.52-8.014,1.063-1.782,1.144-2.261-2.975-5.286-3.2-2.357-9.141-6.729-4.764-14.13,3.437-5.806,10.27-8.36,16.886-10.848,5.793-2.18,11.269-4.231,13.5-8.011Z" transform="translate(-6617.606 -4551.406)" fill="#ba68c8"/>
      <path id="Trazado_115036" data-name="Trazado 115036" d="M6733.616,4587.042c3.443-5.8,10.275-8.354,16.888-10.848,5.795-2.176,11.27-4.229,13.509-8.009,1.061-1.782,1.141-2.26-2.977-5.286-3.2-2.357-9.141-6.728-4.73-14.151,3.438-5.8,10.273-8.358,16.885-10.848,5.8-2.175,11.271-4.229,13.5-8.007a3.293,3.293,0,0,1,4.571-1.009,3.358,3.358,0,0,1,1.108,4.435c-3.441,5.807-10.274,8.356-16.884,10.851-5.8,2.175-11.273,4.227-13.511,8-1.058,1.786-1.141,2.267,2.976,5.29,3.206,2.355,9.143,6.729,4.734,14.152-3.417,5.792-10.272,8.354-16.886,10.849-5.795,2.175-11.288,4.237-13.524,8.013-1.062,1.782-1.144,2.266,2.976,5.29,3.2,2.355,9.139,6.726,4.766,14.128-3.439,5.809-10.289,8.369-16.914,10.846-5.792,2.172-11.269,4.229-13.513,7.988-1.062,1.782-1.137,2.272,2.983,5.3,3.2,2.359,9.141,6.728,4.77,14.134a18.939,18.939,0,0,1-7.3,6.688,70.5,70.5,0,0,1-9.613,4.154c-5.793,2.176-11.271,4.229-13.516,7.988a3.285,3.285,0,0,1-4.54,1.139,3.36,3.36,0,0,1-1.128-4.587c3.451-5.788,10.274-8.354,16.881-10.825,5.793-2.172,11.288-4.238,13.522-8.014,1.059-1.782,1.134-2.278-2.984-5.3-3.205-2.355-9.141-6.728-4.735-14.15,3.454-5.79,10.274-8.354,16.884-10.827,5.792-2.172,11.284-4.24,13.523-8.014,1.059-1.782,1.142-2.26-2.979-5.284-3.2-2.359-9.141-6.729-4.766-14.132Z" transform="translate(-6687.772 -4497.562)" fill="#12263f"/>
    </g>
    <g id="Grupo_180385" data-name="Grupo 180385" transform="translate(909.694 3346.5)">
      <path id="Trazado_241138-2" data-name="Trazado 241138" d="M-6681.6-10769a2.781,2.781,0,0,1,.644.07l28.651,6.2a3.083,3.083,0,0,1,2.215,1.895,3.135,3.135,0,0,1-.342,2.914l-28.653,41.355a3.057,3.057,0,0,1-3.439,1.184,3.1,3.1,0,0,1-2.146-2.961v-47.559a3.1,3.1,0,0,1,1.139-2.41A3.044,3.044,0,0,1-6681.6-10769Zm23.482,11.359-20.413-4.422v33.883Z" transform="translate(6684.667 10826.897)" fill="#12263f"/>
      <path id="Trazado_241138-3" data-name="Trazado 241138" d="M-6681.6-10769a2.781,2.781,0,0,1,.644.07l28.651,6.2a3.083,3.083,0,0,1,2.215,1.895,3.135,3.135,0,0,1-.342,2.914l-28.653,41.355a3.057,3.057,0,0,1-3.439,1.184,3.1,3.1,0,0,1-2.146-2.961v-47.559a3.1,3.1,0,0,1,1.139-2.41A3.044,3.044,0,0,1-6681.6-10769Zm23.482,11.359-20.413-4.422v33.883Z" transform="translate(6733.787 10800.015)" fill="#12263f"/>
      <path id="Trazado_241138-4" data-name="Trazado 241138" d="M-6681.6-10769a2.781,2.781,0,0,1,.644.07l28.651,6.2a3.083,3.083,0,0,1,2.215,1.895,3.135,3.135,0,0,1-.342,2.914l-28.653,41.355a3.057,3.057,0,0,1-3.439,1.184,3.1,3.1,0,0,1-2.146-2.961v-47.559a3.1,3.1,0,0,1,1.139-2.41A3.044,3.044,0,0,1-6681.6-10769Zm23.482,11.359-20.413-4.422v33.883Z" transform="translate(6779.838 10768.998)" fill="#12263f"/>
    </g>
    <g id="Grupo_180386" data-name="Grupo 180386" transform="translate(943.649 4059)">
      <ellipse id="Elipse_4783" data-name="Elipse 4783" cx="30.5" cy="32.5" rx="30.5" ry="32.5" transform="translate(3.045 3)" fill="#12263f"/>
      <g id="Elipse_4784" data-name="Elipse 4784" transform="translate(0.045 0)" fill="#fff" stroke="#12263f" stroke-width="5">
        <ellipse cx="27.5" cy="28.5" rx="27.5" ry="28.5" stroke="none"/>
        <ellipse cx="27.5" cy="28.5" rx="25" ry="26" fill="none"/>
      </g>
    </g>
    <g id="Elipse_4927" data-name="Elipse 4927" transform="translate(1007.694 4017)" fill="#fff" stroke="#12263f" stroke-width="5">
      <circle cx="21" cy="21" r="21" stroke="none"/>
      <circle cx="21" cy="21" r="18.5" fill="none"/>
    </g>
    <path id="Trazado_115027" data-name="Trazado 115027" d="M3037.257,3303.96l-6.839-1.637a1.432,1.432,0,0,1-1.082-1.728,1.478,1.478,0,0,1,1.082-1.058l6.839-1.637a7.52,7.52,0,0,0,5.58-5.455l1.673-6.686a1.489,1.489,0,0,1,1.8-1.053,1.466,1.466,0,0,1,1.077,1.053l1.675,6.686a7.52,7.52,0,0,0,5.579,5.455l6.84,1.637a1.434,1.434,0,0,1,1.082,1.729,1.479,1.479,0,0,1-1.082,1.057l-6.84,1.637a7.522,7.522,0,0,0-5.579,5.454l-1.675,6.687a1.484,1.484,0,0,1-1.8,1.053,1.469,1.469,0,0,1-1.079-1.053l-1.673-6.687A7.522,7.522,0,0,0,3037.257,3303.96Z" transform="translate(-2105.442 550.337)" fill="#12263f"/>
    <path id="Trazado_115027-2" data-name="Trazado 115027" d="M3037.257,3303.96l-6.839-1.637a1.432,1.432,0,0,1-1.082-1.728,1.478,1.478,0,0,1,1.082-1.058l6.839-1.637a7.52,7.52,0,0,0,5.58-5.455l1.673-6.686a1.489,1.489,0,0,1,1.8-1.053,1.466,1.466,0,0,1,1.077,1.053l1.675,6.686a7.52,7.52,0,0,0,5.579,5.455l6.84,1.637a1.434,1.434,0,0,1,1.082,1.729,1.479,1.479,0,0,1-1.082,1.057l-6.84,1.637a7.522,7.522,0,0,0-5.579,5.454l-1.675,6.687a1.484,1.484,0,0,1-1.8,1.053,1.469,1.469,0,0,1-1.079-1.053l-1.673-6.687A7.522,7.522,0,0,0,3037.257,3303.96Z" transform="translate(-2043.924 -44.199)" fill="#12263f"/>
    <path id="Trazado_115027-3" data-name="Trazado 115027" d="M3037.257,3303.96l-6.839-1.637a1.432,1.432,0,0,1-1.082-1.728,1.478,1.478,0,0,1,1.082-1.058l6.839-1.637a7.52,7.52,0,0,0,5.58-5.455l1.673-6.686a1.489,1.489,0,0,1,1.8-1.053,1.466,1.466,0,0,1,1.077,1.053l1.675,6.686a7.52,7.52,0,0,0,5.579,5.455l6.84,1.637a1.434,1.434,0,0,1,1.082,1.729,1.479,1.479,0,0,1-1.082,1.057l-6.84,1.637a7.522,7.522,0,0,0-5.579,5.454l-1.675,6.687a1.484,1.484,0,0,1-1.8,1.053,1.469,1.469,0,0,1-1.079-1.053l-1.673-6.687A7.522,7.522,0,0,0,3037.257,3303.96Z" transform="translate(-1716.282 299.623)" fill="#12263f"/>
    <path id="Trazado_115027-4" data-name="Trazado 115027" d="M3042.781,3317.348l-11.584-2.772a2.425,2.425,0,0,1-1.832-2.927,2.505,2.505,0,0,1,1.832-1.792l11.584-2.772a12.738,12.738,0,0,0,9.451-9.239l2.833-11.325a2.522,2.522,0,0,1,3.051-1.784,2.482,2.482,0,0,1,1.824,1.784l2.836,11.325a12.739,12.739,0,0,0,9.449,9.239l11.585,2.772a2.429,2.429,0,0,1,1.833,2.93,2.505,2.505,0,0,1-1.833,1.79l-11.585,2.772a12.742,12.742,0,0,0-9.449,9.238l-2.836,11.326a2.528,2.528,0,0,1-4.875,0l-2.833-11.326A12.741,12.741,0,0,0,3042.781,3317.348Z" transform="translate(-2072.133 602.337)" fill="#12263f"/>
    <path id="Trazado_115027-5" data-name="Trazado 115027" d="M3042.781,3317.348l-11.584-2.772a2.425,2.425,0,0,1-1.832-2.927,2.505,2.505,0,0,1,1.832-1.792l11.584-2.772a12.738,12.738,0,0,0,9.451-9.239l2.833-11.325a2.522,2.522,0,0,1,3.051-1.784,2.482,2.482,0,0,1,1.824,1.784l2.836,11.325a12.739,12.739,0,0,0,9.449,9.239l11.585,2.772a2.429,2.429,0,0,1,1.833,2.93,2.505,2.505,0,0,1-1.833,1.79l-11.585,2.772a12.742,12.742,0,0,0-9.449,9.238l-2.836,11.326a2.528,2.528,0,0,1-4.875,0l-2.833-11.326A12.741,12.741,0,0,0,3042.781,3317.348Z" transform="translate(-2105.441 -106.771)" fill="#12263f"/>
    <path id="Trazado_115027-6" data-name="Trazado 115027" d="M3042.781,3317.348l-11.584-2.772a2.425,2.425,0,0,1-1.832-2.927,2.505,2.505,0,0,1,1.832-1.792l11.584-2.772a12.738,12.738,0,0,0,9.451-9.239l2.833-11.325a2.522,2.522,0,0,1,3.051-1.784,2.482,2.482,0,0,1,1.824,1.784l2.836,11.325a12.739,12.739,0,0,0,9.449,9.239l11.585,2.772a2.429,2.429,0,0,1,1.833,2.93,2.505,2.505,0,0,1-1.833,1.79l-11.585,2.772a12.742,12.742,0,0,0-9.449,9.238l-2.836,11.326a2.528,2.528,0,0,1-4.875,0l-2.833-11.326A12.741,12.741,0,0,0,3042.781,3317.348Z" transform="translate(-1670.928 315.891)" fill="#12263f"/>
  </g>
</svg>
