<svg xmlns="http://www.w3.org/2000/svg" xmlns:xlink="http://www.w3.org/1999/xlink" width="295" height="270.8" viewBox="0 0 295 270.8">
  <defs>
    <clipPath id="clip-path">
      <rect id="Rectángulo_44968" data-name="Rectángulo 44968" width="62.861" height="58.438" fill="none"/>
    </clipPath>
    <clipPath id="clip-path-3">
      <path id="Trazado_241030" data-name="Trazado 241030" d="M164.128,351.9,210.2,340.988l10.908,46.071-46.072,10.908Zm-1.066-.658,11.316,47.8,47.8-11.316-11.316-47.8Z" transform="translate(-163.062 -339.921)" fill="none"/>
    </clipPath>
    <clipPath id="clip-path-4">
      <rect id="Rectángulo_44972" data-name="Rectángulo 44972" width="55.271" height="44.283" fill="none"/>
    </clipPath>
    <clipPath id="clip-path-6">
      <rect id="Rectángulo_44979" data-name="Rectángulo 44979" width="254.025" height="270.8" fill="none"/>
    </clipPath>
    <clipPath id="clip-path-7">
      <rect id="Rectángulo_44974" data-name="Rectángulo 44974" width="75.46" height="32.858" fill="none"/>
    </clipPath>
    <clipPath id="clip-path-9">
      <rect id="Rectángulo_44975" data-name="Rectángulo 44975" width="27.593" height="28.156" fill="none"/>
    </clipPath>
    <clipPath id="clip-path-11">
      <rect id="Rectángulo_44978" data-name="Rectángulo 44978" width="8.644" height="95.72" fill="none"/>
    </clipPath>
    <clipPath id="clip-path-13">
      <path id="Trazado_241051" data-name="Trazado 241051" d="M23.724,188.132l-4.836-87.391a.212.212,0,0,1,.2-.224l2.158-.119a.216.216,0,0,1,.154.053.208.208,0,0,1,.07.147l4.836,87.39-1.059,4.272ZM21.2,99.514l-2.157.12A1.1,1.1,0,0,0,18,100.791l4.843,87.524,2.568,6.955,1.784-7.2L22.356,100.55a1.1,1.1,0,0,0-1.1-1.038l-.063,0" transform="translate(-18.002 -99.512)" fill="none"/>
    </clipPath>
    <clipPath id="clip-path-14">
      <rect id="Rectángulo_44981" data-name="Rectángulo 44981" width="7.412" height="95.654" fill="none"/>
    </clipPath>
    <clipPath id="clip-path-17">
      <rect id="Rectángulo_44983" data-name="Rectángulo 44983" width="194.283" height="152.675" fill="none"/>
    </clipPath>
    <clipPath id="clip-path-19">
      <rect id="Rectángulo_44984" data-name="Rectángulo 44984" width="63.077" height="46.757" fill="none"/>
    </clipPath>
    <clipPath id="clip-path-20">
      <rect id="Rectángulo_44985" data-name="Rectángulo 44985" width="10.987" height="12.565" fill="none"/>
    </clipPath>
    <clipPath id="clip-path-21">
      <rect id="Rectángulo_44986" data-name="Rectángulo 44986" width="16.46" height="19.61" fill="none"/>
    </clipPath>
    <clipPath id="clip-path-22">
      <rect id="Rectángulo_44987" data-name="Rectángulo 44987" width="25.892" height="14.24" fill="none"/>
    </clipPath>
    <clipPath id="clip-path-23">
      <rect id="Rectángulo_44988" data-name="Rectángulo 44988" width="2.62" height="2.62" fill="none"/>
    </clipPath>
    <clipPath id="clip-path-24">
      <rect id="Rectángulo_44989" data-name="Rectángulo 44989" width="2.621" height="2.62" fill="none"/>
    </clipPath>
    <clipPath id="clip-path-26">
      <rect id="Rectángulo_44991" data-name="Rectángulo 44991" width="97.429" height="52.014" fill="none"/>
    </clipPath>
    <clipPath id="clip-path-27">
      <rect id="Rectángulo_44992" data-name="Rectángulo 44992" width="163.719" height="82.066" fill="none"/>
    </clipPath>
    <clipPath id="clip-path-28">
      <rect id="Rectángulo_44993" data-name="Rectángulo 44993" width="156.896" height="59.037" fill="none"/>
    </clipPath>
    <clipPath id="clip-path-29">
      <rect id="Rectángulo_44994" data-name="Rectángulo 44994" width="160.557" height="45.74" fill="none"/>
    </clipPath>
    <clipPath id="clip-path-30">
      <rect id="Rectángulo_44996" data-name="Rectángulo 44996" width="3.65" height="12.76" fill="none"/>
    </clipPath>
    <clipPath id="clip-path-36">
      <rect id="Rectángulo_45014" data-name="Rectángulo 45014" width="3.65" height="12.761" fill="none"/>
    </clipPath>
    <clipPath id="clip-path-53">
      <rect id="Rectángulo_45066" data-name="Rectángulo 45066" width="64.217" height="104.832" fill="none"/>
    </clipPath>
    <clipPath id="clip-path-55">
      <rect id="Rectángulo_45068" data-name="Rectángulo 45068" width="48.46" height="102.459" fill="none"/>
    </clipPath>
  </defs>
  <g id="Grupo_180578" data-name="Grupo 180578" transform="translate(-1125 -822.999)">
    <g id="Grupo_180364" data-name="Grupo 180364" transform="translate(1152.975 823)">
      <path id="Trazado_241026" data-name="Trazado 241026" d="M109.059,2.172C85.8,5.477,63.508,12.749,44.566,25.323,17.01,43.613,1.725,70.958.13,100.694-.922,120.323,4.521,139.462,11.1,158.1c8.458,23.977,13.916,51.29,31.579,71.784,27.5,31.9,80.644,45.345,125.091,39.636,28.715-3.689,59.056-17.732,67.889-43.113,3.27-9.4,4.863-19.494,10.453-28.178,6.7-10.406,18.848-16.483,28.072-24.955,11.395-10.467,15.985-23.505,18.824-37.3,6.212-30.186-2.271-62.17-22.755-87.21-21.376-26.132-53.09-40.148-89.1-45.665q-5.928-.908-11.906-1.546a244.657,244.657,0,0,0-60.188.617" transform="translate(-27.975)" fill="#fef536"/>
      <g id="Grupo_180201" data-name="Grupo 180201" transform="translate(98.241 204.523)" opacity="0.2">
        <g id="Grupo_180200" data-name="Grupo 180200">
          <g id="Grupo_180199" data-name="Grupo 180199" clip-path="url(#clip-path)">
            <g id="Grupo_180198" data-name="Grupo 180198" opacity="0.7">
              <g id="Grupo_180197" data-name="Grupo 180197">
                <g id="Grupo_180196" data-name="Grupo 180196" clip-path="url(#clip-path)">
                  <path id="Trazado_241027" data-name="Trazado 241027" d="M166.352,355.54l49.418-9.22s11.183,35.293,13.442,39.856l-1.193,2.772.744,4.637-49.1,11.173-3.937-3.1Z" transform="translate(-166.352 -346.32)"/>
                </g>
              </g>
            </g>
          </g>
        </g>
      </g>
      <rect id="Rectángulo_44969" data-name="Rectángulo 44969" width="49.117" height="49.117" transform="translate(96.298 212.061) rotate(-13.32)" fill="#12263f"/>
      <path id="Trazado_241028" data-name="Trazado 241028" d="M173.763,399.3a.885.885,0,0,1-.862-.682l-11.316-47.8a.886.886,0,0,1,.658-1.066l47.8-11.316a.885.885,0,0,1,1.066.658l11.317,47.8a.887.887,0,0,1-.658,1.066l-47.8,11.316a.887.887,0,0,1-.2.024m-10.25-48.023,10.908,46.072,46.072-10.908-10.908-46.072Z" transform="translate(-66.149 -138.562)" fill="#12263f"/>
      <g id="Grupo_180211" data-name="Grupo 180211" transform="translate(96.298 200.745)">
        <g id="Grupo_180210" data-name="Grupo 180210" clip-path="url(#clip-path-3)">
          <g id="Grupo_180209" data-name="Grupo 180209" transform="translate(3.506 12.89)" opacity="0.2">
            <g id="Grupo_180208" data-name="Grupo 180208">
              <g id="Grupo_180207" data-name="Grupo 180207" clip-path="url(#clip-path-4)">
                <g id="Grupo_180206" data-name="Grupo 180206" opacity="0.7">
                  <g id="Grupo_180205" data-name="Grupo 180205">
                    <g id="Grupo_180204" data-name="Grupo 180204" clip-path="url(#clip-path-4)">
                      <path id="Trazado_241029" data-name="Trazado 241029" d="M216.34,361.748l7.929,33.492-45.577,10.791A271.972,271.972,0,0,1,169,374.984Z" transform="translate(-168.999 -361.748)"/>
                    </g>
                  </g>
                </g>
              </g>
            </g>
          </g>
        </g>
      </g>
      <g id="Grupo_180231" data-name="Grupo 180231">
        <g id="Grupo_180230" data-name="Grupo 180230" clip-path="url(#clip-path-6)">
          <path id="Trazado_241031" data-name="Trazado 241031" d="M223.661,384.671c-11.942,2.828-28.863,5.486-39.068,6.986-5.339.779-8.847,1.239-8.847,1.239-4.524-8.293-12.685-41.658-12.685-41.658l47.8-11.316c.091.409.175.814.265,1.218a331.907,331.907,0,0,0,12.539,43.531" transform="translate(-66.764 -139.177)" fill="#fff"/>
          <path id="Trazado_241032" data-name="Trazado 241032" d="M175.132,393.167a.886.886,0,0,1-.778-.462c-4.528-8.3-12.433-40.5-12.767-41.872a.885.885,0,0,1,.656-1.072l47.8-11.316a.885.885,0,0,1,1.068.669l.265,1.219a334.351,334.351,0,0,0,12.5,43.4.886.886,0,0,1-.622,1.181c-11.478,2.718-27.622,5.307-39.144,7-5.284.77-8.825,1.236-8.86,1.241a.834.834,0,0,1-.115.008m-11.61-41.888c1.287,5.174,8.055,31.957,12.108,40.042,1.23-.165,4.225-.573,8.221-1.155,11.162-1.641,26.67-4.124,38.014-6.743a346.187,346.187,0,0,1-12.222-42.707l-.073-.339Z" transform="translate(-66.149 -138.562)" fill="#12263f"/>
          <path id="Trazado_241033" data-name="Trazado 241033" d="M176.1,366.237a.886.886,0,0,1-.67-1.465,9.34,9.34,0,0,1,2.538-2.065.887.887,0,0,1,1.256.452l.4,1.012,1.665-.6c.648-.236,1.356-.527,1.536-.993a.886.886,0,0,1,.813-.567.9.9,0,0,1,.83.542c.168.4,1.182.318,2.05.039a174.229,174.229,0,0,1,23.746-5.833.886.886,0,0,1,.3,1.746,172.447,172.447,0,0,0-23.5,5.773,4.226,4.226,0,0,1-3.327-.021,5.665,5.665,0,0,1-1.84.977l-2.477.9a.885.885,0,0,1-1.127-.51l-.316-.808a7.621,7.621,0,0,0-1.2,1.116.882.882,0,0,1-.67.307" transform="translate(-71.74 -146.064)" fill="#12263f"/>
          <path id="Trazado_241034" data-name="Trazado 241034" d="M179.461,377.17a1.38,1.38,0,0,0-1.89-.206,1.344,1.344,0,0,1-.653-1.61,1.6,1.6,0,0,1,1.616-1.2,1.788,1.788,0,0,1,1.25.661.888.888,0,0,1,.389-.308.873.873,0,0,1,.384-.063,1.723,1.723,0,0,1,.6-.6,1.756,1.756,0,0,1,1.044-.224,1.819,1.819,0,0,1,.477-.671,1.381,1.381,0,0,1,1.255-.3,1.881,1.881,0,0,1,.762.422c.033.027.066.055.1.08a.533.533,0,0,0,.485,0,.527.527,0,0,0,.34-.348.886.886,0,0,1,1.541-.444c.344.393,1.218.3,1.942.179l8.03-1.368a1.64,1.64,0,0,1,1.734-1.269,1.849,1.849,0,0,1,.968.5,1.133,1.133,0,0,0,.152.122,1.657,1.657,0,0,0,.686-.053,74.343,74.343,0,0,0,11.231-3.377.886.886,0,1,1,.643,1.651,76.1,76.1,0,0,1-11.5,3.458,2.682,2.682,0,0,1-1.952-.148,2.42,2.42,0,0,1-.313-.223,1.805,1.805,0,0,0-.053.243.886.886,0,0,1-.728.746l-8.6,1.465a5.076,5.076,0,0,1-2.586-.081,2.46,2.46,0,0,1-.855.585,2.259,2.259,0,0,1-2.2-.2,1.429,1.429,0,0,0-.011.329.886.886,0,0,1-1.68.462c0,.007,0,.007-.015.007a.087.087,0,0,1,.006.03.871.871,0,0,1-.106,1.122.892.892,0,0,1-1.14.089l-.048-.034a2.09,2.09,0,0,1-1.211.576.886.886,0,0,1-.1.005" transform="translate(-72.412 -150.275)" fill="#12263f"/>
          <path id="Trazado_241035" data-name="Trazado 241035" d="M183.814,389.588q-.37,0-.739-.033a.886.886,0,1,1,.155-1.765,6.853,6.853,0,0,0,2.241-.177,2.857,2.857,0,0,1,1.1-2.513.887.887,0,0,1,1.008-.035l.811.52a54.123,54.123,0,0,0,11.925-1.673c1.8-.462,3.61-1.026,5.358-1.571l10.194-3.178a.886.886,0,0,1,.527,1.691L206.2,384.033c-1.769.552-3.6,1.123-5.445,1.6a55.882,55.882,0,0,1-12.594,1.734.867.867,0,0,1-.5-.139l-.364-.233a1.05,1.05,0,0,0,.033.81.885.885,0,0,1-.475,1.233,8.629,8.629,0,0,1-3.04.553" transform="translate(-74.626 -155.227)" fill="#12263f"/>
          <g id="Grupo_180217" data-name="Grupo 180217" transform="translate(112.715 14.892)" opacity="0.2">
            <g id="Grupo_180216" data-name="Grupo 180216">
              <g id="Grupo_180215" data-name="Grupo 180215" clip-path="url(#clip-path-7)">
                <g id="Grupo_180214" data-name="Grupo 180214" opacity="0.7">
                  <g id="Grupo_180213" data-name="Grupo 180213">
                    <g id="Grupo_180212" data-name="Grupo 180212" clip-path="url(#clip-path-7)">
                      <path id="Trazado_241036" data-name="Trazado 241036" d="M265.654,34.409l-.95.059a1.85,1.85,0,0,1-1.993-1.346c-1.447-5.286-6.75-8.254-12.9-7.873-5.544.344-11.379,3.839-14.762,8.669a5.151,5.151,0,0,1-3.734,2.289L226.6,36.5a3.023,3.023,0,0,1-3.077-1.867c-1.91-4.5-6.747-7.336-12.291-6.992a19.96,19.96,0,0,0-15.664,9.644,3.177,3.177,0,0,1-2.461,1.622l-.95.059a1.042,1.042,0,0,0-.909.854L190.87,42.2a.616.616,0,0,0,.461.743l1.15.344a2,2,0,0,1,1.416,2.111c-.405,7.565,4.934,13.124,12.535,12.653,7.332-.455,14.3-6.368,16.582-13.664a3.764,3.764,0,0,1,2.579-2.456,13.408,13.408,0,0,1,4.98-.351,2.126,2.126,0,0,1,1.886,2.191c-.018,7.172,5.212,12.344,12.555,11.889,7.6-.471,14.817-6.809,16.815-14.473a3.551,3.551,0,0,1,2.117-2.329l1.282-.495a1.064,1.064,0,0,0,.706-.816l.375-2.376a.614.614,0,0,0-.655-.757M206.748,56.04c-7.064.438-11.878-5.126-10.73-12.4s7.83-13.552,14.895-13.99,11.879,5.125,10.73,12.4S213.813,55.6,206.748,56.04m17-15.522q.043-.621.033-1.224a.706.706,0,0,1,.631-.672l8.456-.524a.431.431,0,0,1,.429.607q-.2.608-.353,1.228a15.151,15.151,0,0,0-9.2.585M245.33,53.648c-7.065.438-11.878-5.126-10.73-12.4s7.83-13.552,14.895-13.99,11.878,5.125,10.73,12.4-7.83,13.552-14.895,13.99" transform="translate(-190.86 -25.216)"/>
                    </g>
                  </g>
                </g>
              </g>
            </g>
          </g>
          <path id="Trazado_241037" data-name="Trazado 241037" d="M259.634,43.295l-54.188,7.178a9.224,9.224,0,0,0-6.389,3.918l-7.934,11.536a.858.858,0,0,0,.4,1.287,2.536,2.536,0,0,0,3-.93l7.332-10.654a5.573,5.573,0,0,1,3.809-2.358L259.834,45.6Z" transform="translate(-78.191 -17.727)" fill="#12263f"/>
          <path id="Trazado_241038" data-name="Trazado 241038" d="M183.448,50.364l54.654-.9a9.225,9.225,0,0,1,6.9,2.931l9.551,10.238a.858.858,0,0,1-.2,1.332,2.535,2.535,0,0,1-3.1-.477l-8.826-9.454a5.574,5.574,0,0,0-4.115-1.769l-54.712.41Z" transform="translate(-75.11 -20.25)" fill="#12263f"/>
          <path id="Trazado_241039" data-name="Trazado 241039" d="M237.024,56.839c.673.128.641,4.708-.879,6.28s-3.087-2.228-2.688-3.584,1.458-3.1,3.566-2.7" transform="translate(-95.56 -23.248)" fill="#12263f"/>
          <path id="Trazado_241040" data-name="Trazado 241040" d="M234.779,63.765a1.835,1.835,0,0,1-.925-.261A5.163,5.163,0,0,1,232,58.671c.565-1.916,2.066-3.794,4.581-3.317a1.249,1.249,0,0,1,.943.969c.454,1.427.2,5.191-1.349,6.8a1.935,1.935,0,0,1-1.392.645m1.056-6.711c-1.306,0-1.9,1.294-2.139,2.118a3.759,3.759,0,0,0,.563,2.231c.262.442.475.577.531.591-.013,0,.036-.031.107-.105,1-1.03,1.169-3.866.987-4.834h-.05m.411.04h0" transform="translate(-94.949 -22.633)" fill="#12263f"/>
          <path id="Trazado_241041" data-name="Trazado 241041" d="M255.44,55.777c-.652.21-.054,4.751,1.648,6.124s2.788-2.592,2.224-3.888-1.829-2.893-3.872-2.236" transform="translate(-104.481 -22.775)" fill="#12263f"/>
          <path id="Trazado_241042" data-name="Trazado 241042" d="M257.172,62.455a2,2,0,0,1-1.254-.481c-1.739-1.4-2.453-5.1-2.18-6.578a1.249,1.249,0,0,1,.817-1.078c2.436-.784,4.158.894,4.955,2.725a5.163,5.163,0,0,1-1.246,5.025,1.79,1.79,0,0,1-1.093.387m-1.72-6.535c-.061.982.462,3.775,1.577,4.674a.466.466,0,0,0,.147.089,1.622,1.622,0,0,0,.427-.651,3.759,3.759,0,0,0,.283-2.283c-.347-.8-1.11-2.028-2.434-1.83M255.1,56h0m-.273-.843h0Z" transform="translate(-103.866 -22.159)" fill="#12263f"/>
          <g id="Grupo_180220" data-name="Grupo 180220" transform="translate(112.976 18.544)" opacity="0.7">
            <g id="Grupo_180219" data-name="Grupo 180219">
              <g id="Grupo_180218" data-name="Grupo 180218" clip-path="url(#clip-path-9)">
                <path id="Trazado_241043" data-name="Trazado 241043" d="M195.429,35.686c2.859-2.445,8.909-6.61,15.537-2.649s8.916,8.257,7.553,14.1S212.986,60.758,203.161,59.4s-16.61-16.121-7.732-23.713" transform="translate(-191.302 -31.4)" fill="#64b5f6"/>
              </g>
            </g>
          </g>
          <g id="Grupo_180223" data-name="Grupo 180223" transform="translate(151.614 16.654)" opacity="0.7">
            <g id="Grupo_180222" data-name="Grupo 180222">
              <g id="Grupo_180221" data-name="Grupo 180221" clip-path="url(#clip-path-9)">
                <path id="Trazado_241044" data-name="Trazado 241044" d="M260.855,32.487c2.859-2.445,8.909-6.61,15.536-2.649s8.916,8.257,7.554,14.1S278.412,57.559,268.586,56.2s-16.609-16.121-7.731-23.713" transform="translate(-256.728 -28.201)" fill="#64b5f6"/>
              </g>
            </g>
          </g>
          <path id="Trazado_241045" data-name="Trazado 241045" d="M257.681,35.7l-.95.058a2.431,2.431,0,0,1-2.317-1.3c-2.63-5.128-8.659-8-14.809-7.618a15.983,15.983,0,0,0-13.055,8.441,3.971,3.971,0,0,1-3.281,2.229l-4.719.292A3.97,3.97,0,0,1,215.021,36a15.982,15.982,0,0,0-14-6.764c-6.15.382-11.778,3.976-13.755,9.389a2.43,2.43,0,0,1-2.138,1.58l-.95.058a.784.784,0,0,0-.733.831l.143,2.307a.783.783,0,0,0,.631.72l1.241.332a2.593,2.593,0,0,1,1.9,2.046,14.789,14.789,0,0,0,29.292-1.035,2.768,2.768,0,0,1,2.073-2.388,13.5,13.5,0,0,1,4.971-.35,2.791,2.791,0,0,1,2.394,2.124,14.789,14.789,0,0,0,29.2-2.562,2.592,2.592,0,0,1,1.632-2.265l1.191-.482a.783.783,0,0,0,.536-.793l-.143-2.307a.783.783,0,0,0-.83-.733M202.614,54.891a10.92,10.92,0,1,1,10.223-11.574,10.932,10.932,0,0,1-10.223,11.574m38.615-1.866a11.447,11.447,0,1,1,10.716-12.133,11.459,11.459,0,0,1-10.716,12.133" transform="translate(-75.109 -10.976)" fill="#757575"/>
          <path id="Trazado_241046" data-name="Trazado 241046" d="M201.306,59.054a15.64,15.64,0,0,1-15.431-13.025,1.706,1.706,0,0,0-1.256-1.339l-1.241-.332a1.653,1.653,0,0,1-1.286-1.521l-.143-2.307a1.67,1.67,0,0,1,1.563-1.769l.95-.058a1.541,1.541,0,0,0,1.36-1c2.027-5.55,7.867-9.556,14.533-9.969a16.783,16.783,0,0,1,14.788,7.155,3.071,3.071,0,0,0,2.74,1.416l4.719-.293a3.069,3.069,0,0,0,2.544-1.743,16.784,16.784,0,0,1,13.791-8.926c6.671-.415,12.956,2.841,15.653,8.1a1.547,1.547,0,0,0,1.473.824l.949-.059a1.669,1.669,0,0,1,1.769,1.563l.144,2.306a1.672,1.672,0,0,1-1.143,1.689l-1.136.462a1.707,1.707,0,0,0-1.081,1.484,15.675,15.675,0,0,1-30.951,2.715,1.9,1.9,0,0,0-1.638-1.438,12.509,12.509,0,0,0-4.642.328,1.876,1.876,0,0,0-1.411,1.618,15.608,15.608,0,0,1-14.628,14.09q-.5.03-.988.031m-17.451-16.4,1.221.324a3.484,3.484,0,0,1,2.545,2.753,13.9,13.9,0,0,0,27.537-.972,3.654,3.654,0,0,1,2.737-3.16,14.274,14.274,0,0,1,5.3-.371,3.675,3.675,0,0,1,3.15,2.809A13.9,13.9,0,0,0,253.8,41.63a3.483,3.483,0,0,1,2.185-3.046l1.172-.474-.132-2.13-.847.053a3.319,3.319,0,0,1-3.16-1.783c-2.38-4.64-7.987-7.51-13.967-7.139a15.184,15.184,0,0,0-12.318,7.955,4.824,4.824,0,0,1-4.017,2.714l-4.719.292a4.831,4.831,0,0,1-4.321-2.2A15.17,15.17,0,0,0,200.464,29.5c-5.974.37-11.189,3.91-12.978,8.808a3.313,3.313,0,0,1-2.916,2.16l-.847.053Zm-.078-.021.013,0-.013,0m73.289-7.544h0Zm-55.756,20.1a11.812,11.812,0,1,1,.744-.023q-.373.023-.744.023m.025-21.841c-.21,0-.42.007-.632.02a9.981,9.981,0,1,0,.632-.02M239.892,53.32a12.341,12.341,0,1,1,.777-.024q-.39.024-.777.024m.026-22.894c-.221,0-.442.006-.665.021a10.523,10.523,0,1,0,.665-.021" transform="translate(-74.495 -10.362)" fill="#12263f"/>
          <g id="Grupo_180229" data-name="Grupo 180229" transform="translate(13.137 60.864)" opacity="0.2">
            <g id="Grupo_180228" data-name="Grupo 180228">
              <g id="Grupo_180227" data-name="Grupo 180227" clip-path="url(#clip-path-11)">
                <g id="Grupo_180226" data-name="Grupo 180226" opacity="0.7">
                  <g id="Grupo_180225" data-name="Grupo 180225">
                    <g id="Grupo_180224" data-name="Grupo 180224" clip-path="url(#clip-path-11)">
                      <path id="Trazado_241047" data-name="Trazado 241047" d="M27.221,191.086l1.715,7.694,1.954-8.71-5.14-87.01h-3.5Z" transform="translate(-22.245 -103.061)"/>
                    </g>
                  </g>
                </g>
              </g>
            </g>
          </g>
          <path id="Trazado_241048" data-name="Trazado 241048" d="M22.355,100.551,27.2,188.074l-1.785,7.2-2.568-6.956L18,100.792a1.1,1.1,0,0,1,1.037-1.158l2.157-.119a1.1,1.1,0,0,1,1.158,1.036" transform="translate(-7.37 -40.744)" fill="#12263f"/>
          <path id="Trazado_241049" data-name="Trazado 241049" d="M24.8,195.541a.885.885,0,0,1-.83-.579L21.4,188.006a.893.893,0,0,1-.053-.257L16.5,100.225a1.982,1.982,0,0,1,1.871-2.091l2.158-.119a1.983,1.983,0,0,1,2.091,1.871l4.843,87.523a.9.9,0,0,1-.025.263l-1.784,7.2a.887.887,0,0,1-.811.671H24.8m-1.69-8.023,1.524,4.127,1.059-4.271-4.836-87.39a.209.209,0,0,0-.07-.147.219.219,0,0,0-.154-.054l-2.158.12a.21.21,0,0,0-.2.224Z" transform="translate(-6.756 -40.129)" fill="#12263f"/>
        </g>
      </g>
      <g id="Grupo_180239" data-name="Grupo 180239" transform="translate(10.631 58.768)">
        <g id="Grupo_180238" data-name="Grupo 180238" clip-path="url(#clip-path-13)">
          <g id="Grupo_180237" data-name="Grupo 180237" transform="translate(0 0.105)" opacity="0.2">
            <g id="Grupo_180236" data-name="Grupo 180236">
              <g id="Grupo_180235" data-name="Grupo 180235" clip-path="url(#clip-path-14)">
                <g id="Grupo_180234" data-name="Grupo 180234" opacity="0.7">
                  <g id="Grupo_180233" data-name="Grupo 180233">
                    <g id="Grupo_180232" data-name="Grupo 180232" clip-path="url(#clip-path-14)">
                      <path id="Trazado_241050" data-name="Trazado 241050" d="M25.414,195.343l-2.567-6.956L18,100.864a1.1,1.1,0,0,1,1.036-1.158l.3-.017,4.879,88.166Z" transform="translate(-18.002 -99.689)"/>
                    </g>
                  </g>
                </g>
              </g>
            </g>
          </g>
        </g>
      </g>
      <g id="Grupo_180361" data-name="Grupo 180361">
        <g id="Grupo_180360" data-name="Grupo 180360" clip-path="url(#clip-path-6)">
          <path id="Trazado_241052" data-name="Trazado 241052" d="M20.41,102.226l4.755,85.92a.745.745,0,0,0,.786.7l.519-.028" transform="translate(-8.357 -41.855)" fill="#12263f"/>
          <path id="Trazado_241053" data-name="Trazado 241053" d="M25.3,189.123a1.635,1.635,0,0,1-1.63-1.542l-4.755-85.92a.886.886,0,0,1,1.769-.1l4.747,85.781.379-.021a.9.9,0,0,1,.934.836.886.886,0,0,1-.835.934l-.519.029-.09,0" transform="translate(-7.742 -41.24)" fill="#12263f"/>
          <g id="Grupo_180245" data-name="Grupo 180245" transform="translate(33.413 50.182)" opacity="0.2">
            <g id="Grupo_180244" data-name="Grupo 180244">
              <g id="Grupo_180243" data-name="Grupo 180243" clip-path="url(#clip-path-17)">
                <g id="Grupo_180242" data-name="Grupo 180242" opacity="0.7">
                  <g id="Grupo_180241" data-name="Grupo 180241">
                    <g id="Grupo_180240" data-name="Grupo 180240" clip-path="url(#clip-path-17)">
                      <path id="Trazado_241054" data-name="Trazado 241054" d="M56.721,199.992,72.732,95.386a12.268,12.268,0,0,1,13.983-10.27l153.732,23.53a12.268,12.268,0,0,1,10.271,13.983L234.707,227.234a12.267,12.267,0,0,1-13.983,10.27L66.992,213.975a12.269,12.269,0,0,1-10.271-13.983" transform="translate(-56.578 -84.973)"/>
                    </g>
                  </g>
                </g>
              </g>
            </g>
          </g>
          <path id="Trazado_241055" data-name="Trazado 241055" d="M82.934,95.5l-1.393,9.1-3.348-.513a.584.584,0,0,1-.489-.666L78.92,95.48a.584.584,0,0,1,.666-.489Z" transform="translate(-31.812 -38.89)" fill="#12263f"/>
          <path id="Trazado_241056" data-name="Trazado 241056" d="M80.928,104.876a.873.873,0,0,1-.135-.01l-3.348-.513a1.473,1.473,0,0,1-1.231-1.675l1.217-7.947a1.469,1.469,0,0,1,1.675-1.23l3.348.512a.887.887,0,0,1,.742,1.01l-1.394,9.1a.885.885,0,0,1-.875.752m-2.917-2.228,2.174.332,1.124-7.35L79.136,95.3Z" transform="translate(-31.198 -38.276)" fill="#12263f"/>
          <path id="Trazado_241057" data-name="Trazado 241057" d="M120.064,86.163l-9.1-1.393.513-3.348a.584.584,0,0,1,.666-.489l7.947,1.217a.584.584,0,0,1,.489.666Z" transform="translate(-45.432 -33.134)" fill="#12263f"/>
          <path id="Trazado_241058" data-name="Trazado 241058" d="M119.451,86.434a.953.953,0,0,1-.135-.01l-9.1-1.393a.886.886,0,0,1-.742-1.01l.513-3.348a1.47,1.47,0,0,1,1.675-1.231l7.947,1.216a1.472,1.472,0,0,1,1.231,1.675l-.513,3.349a.887.887,0,0,1-.875.752m-8.092-3.021,7.35,1.125.333-2.174-7.35-1.125Z" transform="translate(-44.818 -32.519)" fill="#12263f"/>
          <path id="Trazado_241059" data-name="Trazado 241059" d="M138.4,88.968l-9.1-1.393.513-3.348a.584.584,0,0,1,.666-.489l7.947,1.217a.584.584,0,0,1,.489.666Z" transform="translate(-52.938 -34.282)" fill="#12263f"/>
          <path id="Trazado_241060" data-name="Trazado 241060" d="M137.782,89.239a.93.93,0,0,1-.134-.01l-9.1-1.393a.886.886,0,0,1-.741-1.01l.512-3.349a1.471,1.471,0,0,1,1.677-1.23l7.945,1.216a1.471,1.471,0,0,1,1.23,1.676l-.512,3.348a.886.886,0,0,1-.876.752m-8.091-3.02,7.35,1.125.333-2.175-7.35-1.124Z" transform="translate(-52.324 -33.668)" fill="#12263f"/>
          <path id="Trazado_241061" data-name="Trazado 241061" d="M53.721,195.992,69.732,91.386a12.268,12.268,0,0,1,13.983-10.27l153.732,23.53a12.268,12.268,0,0,1,10.271,13.983L231.707,223.234a12.267,12.267,0,0,1-13.983,10.27L63.992,209.975a12.269,12.269,0,0,1-10.271-13.983" transform="translate(-21.937 -33.153)" fill="#12263f"/>
          <path id="Trazado_241062" data-name="Trazado 241062" d="M219,233.92a13.317,13.317,0,0,1-2.019-.155L63.244,210.236a13.17,13.17,0,0,1-11.013-14.993L68.242,90.637A13.155,13.155,0,0,1,83.235,79.625l153.732,23.53a13.168,13.168,0,0,1,11.012,14.993L231.969,222.753A13.158,13.158,0,0,1,219,233.92M53.983,195.51a11.4,11.4,0,0,0,9.529,12.975l153.732,23.53a11.382,11.382,0,0,0,12.973-9.529L246.228,117.88a11.4,11.4,0,0,0-9.529-12.973L82.967,81.377a11.382,11.382,0,0,0-12.973,9.529Z" transform="translate(-21.323 -32.538)" fill="#12263f"/>
          <path id="Trazado_241063" data-name="Trazado 241063" d="M219.24,233.123,64.712,209.471a10.5,10.5,0,0,1-8.788-11.964l16.132-105.4A10.5,10.5,0,0,1,84.02,83.318L238.549,106.97a10.5,10.5,0,0,1,8.788,11.964L231.2,224.335a10.5,10.5,0,0,1-11.964,8.788" transform="translate(-22.847 -34.063)" fill="#dee4f0"/>
          <path id="Trazado_241064" data-name="Trazado 241064" d="M220.628,233.335a10.787,10.787,0,0,1-1.638-.125L64.461,209.558a10.792,10.792,0,0,1-9.035-12.3l16.133-105.4a10.791,10.791,0,0,1,12.3-9.034l154.527,23.652a10.79,10.79,0,0,1,9.035,12.3l-16.132,105.4a10.81,10.81,0,0,1-10.661,9.161m-1.55-.709a10.213,10.213,0,0,0,11.627-8.541l16.133-105.4a10.2,10.2,0,0,0-8.54-11.628L83.77,83.4a10.2,10.2,0,0,0-11.627,8.541L56.01,197.346a10.2,10.2,0,0,0,8.541,11.628Z" transform="translate(-22.642 -33.858)" fill="#12263f"/>
          <path id="Trazado_241065" data-name="Trazado 241065" d="M73.233,187.714a.6.6,0,1,1-.5-.686.6.6,0,0,1,.5.686" transform="translate(-29.495 -76.573)" fill="#999"/>
          <path id="Trazado_241066" data-name="Trazado 241066" d="M72.436,188.316a.907.907,0,0,1-.138-.011.892.892,0,1,1,.138.011m0-1.2a.307.307,0,0,0-.047.609.306.306,0,0,0,.35-.256.307.307,0,0,0-.256-.35.318.318,0,0,0-.047,0" transform="translate(-29.29 -76.369)" fill="#263238"/>
          <path id="Trazado_241067" data-name="Trazado 241067" d="M71.992,196.581a1.151,1.151,0,1,1-.964-1.312,1.151,1.151,0,0,1,.964,1.312" transform="translate(-28.539 -79.945)" fill="#12263f"/>
          <path id="Trazado_241068" data-name="Trazado 241068" d="M75.422,174.171a1.151,1.151,0,1,1-.964-1.312,1.151,1.151,0,0,1,.964,1.312" transform="translate(-29.943 -70.77)" fill="#12263f"/>
          <path id="Trazado_241069" data-name="Trazado 241069" d="M70.925,203.124a.839.839,0,1,1-.7-.956.839.839,0,0,1,.7.956" transform="translate(-28.356 -82.771)" fill="#12263f"/>
          <path id="Trazado_241070" data-name="Trazado 241070" d="M246.188,119.847l-16.494,107.79a5.187,5.187,0,0,1-5.906,4.341L94.33,212.164l-2.805-.431-10.553-1.618-5.108-.78-7.382-1.128-1.612-.248a5.184,5.184,0,0,1-4.341-5.906l16.5-107.79a5.175,5.175,0,0,1,5.906-4.335l48.326,7.394,7.311,1.122,6.986,1.069,8.977,1.37,3.248.5,82.071,12.561a5.182,5.182,0,0,1,4.335,5.906" transform="translate(-25.577 -36.795)" fill="#12263f"/>
          <g id="Grupo_180248" data-name="Grupo 180248" transform="translate(43.207 127.63)" opacity="0.1">
            <g id="Grupo_180247" data-name="Grupo 180247">
              <g id="Grupo_180246" data-name="Grupo 180246" clip-path="url(#clip-path-19)">
                <path id="Trazado_241071" data-name="Trazado 241071" d="M129.216,262.856l-54.9-8.4a1.366,1.366,0,0,1-1.142-1.555l5.453-35.625a1.366,1.366,0,0,1,1.555-1.143l54.9,8.4a1.365,1.365,0,0,1,1.142,1.555l-5.453,35.626a1.366,1.366,0,0,1-1.555,1.142M80.114,216.6a.889.889,0,0,0-1.012.744l-5.453,35.626a.888.888,0,0,0,.744,1.012l54.9,8.4a.889.889,0,0,0,1.012-.744l5.453-35.626a.888.888,0,0,0-.744-1.012Z" transform="translate(-73.162 -216.115)" fill="#fff"/>
              </g>
            </g>
          </g>
          <path id="Trazado_241072" data-name="Trazado 241072" d="M112.969,247.661l12.295,6.973a14.507,14.507,0,0,0-.908-15.336Z" transform="translate(-46.254 -97.977)" fill="#64b5f6"/>
          <g id="Grupo_180251" data-name="Grupo 180251" transform="translate(66.833 136.441)" opacity="0.6">
            <g id="Grupo_180250" data-name="Grupo 180250">
              <g id="Grupo_180249" data-name="Grupo 180249" clip-path="url(#clip-path-20)">
                <path id="Trazado_241073" data-name="Trazado 241073" d="M113.168,243.6l10.987-8.07a14.472,14.472,0,0,0-5.688-4.495L116.3,236.17Z" transform="translate(-113.168 -231.036)" fill="#fef536"/>
              </g>
            </g>
          </g>
          <path id="Trazado_241074" data-name="Trazado 241074" d="M115.021,229.3l-1.9,12.434,4.889-11.593a14.538,14.538,0,0,0-2.985-.841" transform="translate(-46.315 -93.884)" fill="#ba68c8"/>
          <g id="Grupo_180254" data-name="Grupo 180254" transform="translate(51.776 135.21)" opacity="0.1">
            <g id="Grupo_180253" data-name="Grupo 180253">
              <g id="Grupo_180252" data-name="Grupo 180252" clip-path="url(#clip-path-21)">
                <path id="Trazado_241075" data-name="Trazado 241075" d="M101.96,243.28l2.172-14.193a14.5,14.5,0,0,0-15.527,19.474Z" transform="translate(-87.672 -228.951)" fill="#fff"/>
              </g>
            </g>
          </g>
          <g id="Grupo_180257" data-name="Grupo 180257" transform="translate(52.881 149.972)" opacity="0.6">
            <g id="Grupo_180256" data-name="Grupo 180256">
              <g id="Grupo_180255" data-name="Grupo 180255" clip-path="url(#clip-path-22)">
                <path id="Trazado_241076" data-name="Trazado 241076" d="M100.747,268.019a14.5,14.5,0,0,0,14.688-6.975l-12.513-7.1-13.379,5.291a14.493,14.493,0,0,0,11.2,8.78" transform="translate(-89.543 -253.948)" fill="#fef536"/>
              </g>
            </g>
          </g>
          <path id="Trazado_241077" data-name="Trazado 241077" d="M148.863,241.216l-1.631-.25a.369.369,0,0,1-.309-.422l.249-1.631a.37.37,0,0,1,.422-.31l1.631.25a.37.37,0,0,1,.31.422l-.25,1.631a.37.37,0,0,1-.422.309" transform="translate(-60.153 -97.692)" fill="#ba68c8"/>
          <path id="Trazado_241078" data-name="Trazado 241078" d="M160.72,241.684,153.6,240.6a.275.275,0,0,1,.083-.543l7.117,1.09a.275.275,0,1,1-.083.543" transform="translate(-62.796 -98.285)" fill="#ba68c8"/>
          <path id="Trazado_241079" data-name="Trazado 241079" d="M158.243,243.353,153.3,242.6a.275.275,0,0,1,.083-.543l4.945.757a.275.275,0,1,1-.083.543" transform="translate(-62.67 -99.104)" fill="#ba68c8"/>
          <g id="Grupo_180260" data-name="Grupo 180260" transform="translate(85.955 146.199)" opacity="0.6">
            <g id="Grupo_180259" data-name="Grupo 180259">
              <g id="Grupo_180258" data-name="Grupo 180258" clip-path="url(#clip-path-23)">
                <path id="Trazado_241080" data-name="Trazado 241080" d="M147.492,250.175l-1.631-.25a.369.369,0,0,1-.309-.422l.25-1.631a.37.37,0,0,1,.421-.31l1.631.25a.37.37,0,0,1,.31.422l-.25,1.631a.37.37,0,0,1-.422.309" transform="translate(-145.547 -247.559)" fill="#fef536"/>
              </g>
            </g>
          </g>
          <path id="Trazado_241081" data-name="Trazado 241081" d="M159.349,250.643l-7.117-1.089a.275.275,0,0,1,.083-.543l7.117,1.09a.275.275,0,0,1-.083.543" transform="translate(-62.234 -101.953)" fill="#ba68c8"/>
          <path id="Trazado_241082" data-name="Trazado 241082" d="M156.872,252.312l-4.945-.757a.275.275,0,0,1,.083-.543l4.945.757a.275.275,0,1,1-.083.543" transform="translate(-62.109 -102.772)" fill="#ba68c8"/>
          <path id="Trazado_241083" data-name="Trazado 241083" d="M146.121,259.134l-1.631-.25a.369.369,0,0,1-.309-.422l.25-1.631a.37.37,0,0,1,.421-.31l1.631.25a.37.37,0,0,1,.31.422l-.25,1.631a.37.37,0,0,1-.422.309" transform="translate(-59.031 -105.028)" fill="#64b5f6"/>
          <path id="Trazado_241084" data-name="Trazado 241084" d="M157.978,259.6l-7.117-1.09a.275.275,0,0,1,.083-.543l7.117,1.09a.275.275,0,0,1-.083.543" transform="translate(-61.673 -105.621)" fill="#ba68c8"/>
          <path id="Trazado_241085" data-name="Trazado 241085" d="M155.5,261.271l-4.945-.757a.275.275,0,0,1,.083-.543l4.945.757a.275.275,0,0,1-.083.543" transform="translate(-61.547 -106.44)" fill="#ba68c8"/>
          <g id="Grupo_180263" data-name="Grupo 180263" transform="translate(84.335 156.781)" opacity="0.2">
            <g id="Grupo_180262" data-name="Grupo 180262">
              <g id="Grupo_180261" data-name="Grupo 180261" clip-path="url(#clip-path-24)">
                <path id="Trazado_241086" data-name="Trazado 241086" d="M144.75,268.093l-1.631-.25a.369.369,0,0,1-.309-.422l.249-1.631a.371.371,0,0,1,.422-.31l1.631.25a.37.37,0,0,1,.31.422l-.25,1.631a.37.37,0,0,1-.422.309" transform="translate(-142.804 -265.477)" fill="#64b5f6"/>
              </g>
            </g>
          </g>
          <path id="Trazado_241087" data-name="Trazado 241087" d="M156.606,268.561l-7.117-1.089a.275.275,0,0,1,.083-.543l7.117,1.09a.275.275,0,1,1-.083.543" transform="translate(-61.111 -109.289)" fill="#ba68c8"/>
          <path id="Trazado_241088" data-name="Trazado 241088" d="M154.129,270.23l-4.945-.757a.275.275,0,1,1,.083-.543l4.945.757a.275.275,0,0,1-.083.543" transform="translate(-60.986 -110.108)" fill="#ba68c8"/>
          <g id="Grupo_180266" data-name="Grupo 180266" transform="translate(83.525 162.072)" opacity="0.1">
            <g id="Grupo_180265" data-name="Grupo 180265">
              <g id="Grupo_180264" data-name="Grupo 180264" clip-path="url(#clip-path-23)">
                <path id="Trazado_241089" data-name="Trazado 241089" d="M143.378,277.052l-1.631-.25a.369.369,0,0,1-.309-.422l.25-1.631a.37.37,0,0,1,.421-.31l1.631.25a.37.37,0,0,1,.31.422l-.25,1.631a.37.37,0,0,1-.422.309" transform="translate(-141.433 -274.436)" fill="#fff"/>
              </g>
            </g>
          </g>
          <path id="Trazado_241090" data-name="Trazado 241090" d="M155.235,277.52l-7.117-1.089a.275.275,0,0,1,.083-.543l7.117,1.09a.275.275,0,1,1-.083.543" transform="translate(-60.55 -112.957)" fill="#ba68c8"/>
          <path id="Trazado_241091" data-name="Trazado 241091" d="M152.758,279.189l-4.945-.757a.275.275,0,0,1,.083-.543l4.945.757a.275.275,0,1,1-.083.543" transform="translate(-60.424 -113.777)" fill="#ba68c8"/>
          <g id="Grupo_180269" data-name="Grupo 180269" transform="translate(106.425 137.306)" opacity="0.1">
            <g id="Grupo_180268" data-name="Grupo 180268">
              <g id="Grupo_180267" data-name="Grupo 180267" clip-path="url(#clip-path-26)">
                <path id="Trazado_241092" data-name="Trazado 241092" d="M276.482,246.176l-89.248-13.66a1.365,1.365,0,0,0-1.556,1.139l-.376,2.456-.072.471-.507,3.312-.072.471-.507,3.308-.072.47-.506,3.308-.072.471-.507,3.312-.072.471-.506,3.308-.072.471-.506,3.308-.072.471-.507,3.313-.072.47-.506,3.308-.072.471-.376,2.456a1.37,1.37,0,0,0,1.144,1.557l89.248,13.66a1.366,1.366,0,0,0,1.553-1.145l.376-2.457.072-.47.507-3.308.072-.471.507-3.312.072-.471.507-3.308.072-.471.506-3.308.072-.471.507-3.313.071-.47.507-3.308.072-.471.506-3.308.072-.471.507-3.313.072-.47.376-2.457a1.36,1.36,0,0,0-1.14-1.551M271.7,283.283a.891.891,0,0,1-1.01.746l-89.248-13.66a.891.891,0,0,1-.745-1.015l.376-2.456,91,13.928Zm.448-2.927-91-13.928.506-3.308,91,13.929Zm.578-3.778-91-13.928.507-3.313,91,13.929Zm.579-3.783-91-13.929.506-3.308,91,13.928Zm.579-3.779-91-13.928.506-3.308,91,13.929Zm.578-3.778-91-13.929.507-3.312,91,13.928Zm.579-3.783-91-13.929.506-3.308,91,13.928Zm.578-3.779-91-13.928.506-3.308,91,13.929Zm.578-3.778-91-13.929.507-3.312,91,13.928Zm-90.423-17.712.376-2.456a.887.887,0,0,1,1.014-.741l89.247,13.66a.888.888,0,0,1,.742,1.009l-.376,2.457Z" transform="translate(-180.209 -232.5)" fill="#fff"/>
              </g>
            </g>
          </g>
          <g id="Grupo_180272" data-name="Grupo 180272" transform="translate(49.834 64.102)" opacity="0.1">
            <g id="Grupo_180271" data-name="Grupo 180271">
              <g id="Grupo_180270" data-name="Grupo 180270" clip-path="url(#clip-path-27)">
                <path id="Trazado_241093" data-name="Trazado 241093" d="M246.783,131.84,94.7,108.561a1.558,1.558,0,0,0-1.773,1.3L84.4,165.54a1.558,1.558,0,0,0,1.3,1.773l152.085,23.278a1.558,1.558,0,0,0,1.773-1.3l8.522-55.676a1.557,1.557,0,0,0-1.3-1.773m-124.041,8.006,10.579,1.619-.92,6.005-10.579-1.619Zm-1.39,5.933-10.579-1.619.92-6.005,10.579,1.619Zm12.439-4.242,10.579,1.619-.92,6.005-10.579-1.619Zm54.849,7.914L178.06,147.83l.919-6,10.579,1.619Zm1.39-5.933,10.578,1.619-.919,6.005-10.579-1.619Zm-34.14,1.4,10.579,1.619-.919,6-10.579-1.619Zm-1.39,5.933-10.579-1.619.919-6.005,10.579,1.619Zm12.439-4.243,10.579,1.619-.919,6.005-10.579-1.619Zm11.049,1.691,10.579,1.619-.92,6.005-10.579-1.619Zm-.4-.542-10.579-1.619.919-6.005,10.579,1.619Zm-11.049-1.691-10.579-1.619.92-6.005,10.579,1.619Zm-11.049-1.691-10.579-1.619.919-6,10.579,1.619Zm-11.049-1.691-10.579-1.619.92-6,10.579,1.619Zm-1.064,6.947-.919,6-10.579-1.619.919-6Zm.471.072,10.579,1.619-.919,6.005-10.579-1.619Zm11.049,1.691,10.579,1.619-.919,6.005L153.98,157.4Zm11.049,1.691,10.579,1.619-.919,6-10.579-1.619ZM177,154.777l10.579,1.619-.919,6-10.579-1.619Zm11.049,1.691,10.579,1.619-.92,6.005-10.578-1.619Zm.072-.47.919-6.005,10.579,1.619-.919,6Zm11.968-4.314,10.579,1.619-.919,6-10.579-1.619Zm11.049,1.691,10.579,1.619L220.8,161l-10.578-1.619Zm.072-.47.919-6.005,10.579,1.619-.919,6Zm-.471-.072-10.579-1.619.919-6.005,10.579,1.619Zm-9.588-8.1.919-6,10.579,1.619-.919,6Zm-.471-.072L190.1,143.046l.919-6.005L201.6,138.66Zm-11.049-1.691-10.579-1.619.919-6,10.579,1.619Zm-11.049-1.691L168,139.663l.919-6,10.579,1.619Zm-11.049-1.691-10.579-1.619.919-6.005,10.579,1.619ZM156.482,137.9,145.9,136.281l.919-6L157.4,131.9Zm-11.049-1.691-10.579-1.619.919-6,10.579,1.619Zm-11.049-1.691L123.8,132.9l.919-6,10.579,1.619Zm-.072.471-.919,6.005-10.579-1.619.92-6.005ZM122.343,139.3l-10.579-1.619.919-6.005,10.579,1.619Zm-11.049-1.691-10.579-1.619.919-6,10.579,1.619Zm-.072.471-.92,6.005-10.579-1.619.92-6.005Zm-.991,6.476-.92,6.005-10.579-1.619.919-6Zm.47.072,10.579,1.619-.919,6.005-10.579-1.619Zm11.049,1.691,10.579,1.619-.919,6.005-10.579-1.619Zm9.588,8.095-.92,6.005L119.84,158.8l.92-6Zm.471.072,10.579,1.619-.919,6.005-10.579-1.619Zm11.049,1.691,10.579,1.619-.92,6-10.579-1.619Zm11.049,1.691,10.579,1.619-.92,6-10.579-1.619Zm11.049,1.691,10.579,1.619-.92,6.005-10.579-1.619Zm11.049,1.691,10.579,1.619-.92,6.005-10.579-1.619Zm11.05,1.691,10.578,1.619-.919,6-10.579-1.619Zm11.049,1.691,10.579,1.619-.919,6.005-10.579-1.619Zm.072-.471.919-6.005,10.579,1.619-.919,6.005Zm11.969-4.314,10.578,1.619-.919,6-10.579-1.619Zm11.049,1.691,10.579,1.619-.919,6.005-10.579-1.619Zm.072-.471.919-6.005,10.579,1.619-.92,6.005Zm.991-6.476.92-6,10.579,1.619-.919,6.005Zm.992-6.476.919-6,10.579,1.619-.919,6.005Zm-.471-.072L212.2,146.428l.92-6,10.578,1.619Zm-9.587-8.095.919-6,10.579,1.619-.92,6.005Zm-.471-.072-10.579-1.619.919-6,10.579,1.619Zm-11.049-1.691-10.579-1.619.919-6.005,10.579,1.619ZM190.622,136.5l-10.579-1.619.919-6.005,10.579,1.619Zm-11.049-1.691-10.579-1.619.919-6.005,10.579,1.619Zm-11.049-1.691L157.944,131.5l.919-6,10.579,1.619Zm-11.049-1.691-10.579-1.619.92-6.005,10.579,1.619Zm-11.049-1.691-10.579-1.619.919-6.005,10.579,1.619Zm-11.049-1.691L124.8,126.423l.919-6,10.579,1.619Zm-11.049-1.691-10.579-1.619.92-6.005,10.579,1.619Zm-.072.471-.919,6-10.579-1.619.919-6.005Zm-11.968,4.314-10.579-1.619.92-6L113.2,125.13Zm-11.049-1.691-10.579-1.619.92-6,10.579,1.619Zm-.072.471-.919,6L89.666,134.3l.919-6.005Zm-.991,6.476-.919,6.005-10.579-1.619.919-6Zm-.991,6.476-.92,6-10.579-1.619.92-6.005Zm-.992,6.476-.919,6.005-10.579-1.619.919-6.005Zm.471.072,10.579,1.619-.919,6L97.742,155.42Zm11.049,1.691,10.579,1.619-.919,6-10.579-1.619ZM119.3,159.2l-.92,6.005L107.8,163.587l.92-6.005Zm.47.072,10.579,1.619-.919,6-10.579-1.619Zm11.049,1.691,10.579,1.619-.92,6.005L129.9,166.969Zm11.049,1.691,10.579,1.619-.92,6.005-10.579-1.619Zm11.049,1.691,10.579,1.619-.919,6.005L152,170.352Zm11.049,1.691,10.579,1.619-.919,6-10.579-1.619Zm11.049,1.691,10.579,1.619-.919,6L174.1,173.734Zm11.049,1.691,10.579,1.619-.919,6.005-10.578-1.619Zm11.049,1.691,10.579,1.619-.919,6.005-10.579-1.619Zm11.049,1.691,10.579,1.619-.92,6.005-10.578-1.619Zm.072-.471.919-6.005,10.579,1.619-.919,6.005Zm11.968-4.314,10.579,1.619-.919,6-10.579-1.619Zm11.049,1.691,10.579,1.619-.919,6-10.578-1.619Zm.072-.471.919-6.005,10.579,1.619-.919,6.005Zm.991-6.476.919-6.005,10.578,1.619-.919,6Zm.992-6.476.919-6.005,10.579,1.619-.919,6.005Zm.991-6.476.919-6.005,10.579,1.619-.919,6Zm.991-6.476.92-6.005,10.578,1.619-.919,6Zm-.47-.072-10.579-1.619.92-6.005,10.579,1.619Zm-9.588-8.1.919-6,10.579,1.619-.919,6.005Zm-.47-.072-10.579-1.619.919-6.005,10.579,1.619Zm-11.049-1.691-10.579-1.619.919-6.005,10.579,1.619Zm-11.049-1.691-10.579-1.619.92-6,10.578,1.619Zm-11.049-1.691L181.034,128.4l.919-6,10.579,1.619Zm-11.05-1.691-10.579-1.619.919-6.005,10.579,1.619Zm-11.049-1.691-10.579-1.619.92-6.005,10.579,1.619Zm-11.049-1.691-10.579-1.619.919-6,10.579,1.619Zm-11.049-1.691-10.579-1.619.919-6,10.579,1.619Zm-11.049-1.691-10.579-1.619.919-6.005,10.579,1.619Zm-11.049-1.691-10.579-1.619.919-6,10.579,1.619Zm-11.049-1.691-10.579-1.619.919-6,10.579,1.619Zm-.072.471-.919,6.005L102.7,123.041l.92-6.005Zm-11.968,4.314L91.648,121.35l.919-6,10.579,1.619ZM86.62,154.2,97.2,155.818l-.919,6L85.7,160.2Zm11.049,1.691,10.579,1.619-.92,6.005L96.75,161.9Zm9.587,8.095-.919,6-10.579-1.619.919-6Zm.471.072,10.579,1.619-.919,6.005-10.579-1.619Zm11.049,1.691,10.579,1.619-.919,6-10.579-1.619Zm11.049,1.691,10.579,1.619-.919,6-10.579-1.619Zm11.049,1.691,10.579,1.619-.919,6-10.579-1.619Zm11.049,1.691,10.579,1.619-.919,6.005-10.579-1.619Zm11.049,1.691,10.579,1.619-.92,6-10.579-1.619Zm11.049,1.691,10.579,1.619-.919,6L173.1,180.209Zm11.049,1.691,10.579,1.619-.92,6L184.154,181.9Zm11.049,1.691,10.579,1.619-.919,6.005L195.2,183.592Zm11.05,1.691L217.75,180.9l-.919,6-10.579-1.619Zm11.049,1.691,10.579,1.619-.919,6L217.3,186.974Zm.072-.471.919-6,10.579,1.619-.919,6.005Zm11.969-4.314L240.84,177.8l-.919,6.005-10.579-1.619Zm17.353-42.643-.756,4.938-10.578-1.619.919-6.005,9.511,1.456a1.081,1.081,0,0,1,.9,1.231M94.626,109.032l9.512,1.456-.92,6-10.579-1.619.756-4.938a1.081,1.081,0,0,1,1.231-.9m-9.753,56.58.756-4.938,10.579,1.619-.92,6-9.511-1.456a1.081,1.081,0,0,1-.9-1.231m152.99,24.509-9.511-1.456.919-6,10.579,1.619-.756,4.938a1.081,1.081,0,0,1-1.231.9" transform="translate(-84.385 -108.543)" fill="#fff"/>
              </g>
            </g>
          </g>
          <g id="Grupo_180275" data-name="Grupo 180275" transform="translate(50.313 86.607)" opacity="0.5">
            <g id="Grupo_180274" data-name="Grupo 180274">
              <g id="Grupo_180273" data-name="Grupo 180273" clip-path="url(#clip-path-28)">
                <path id="Trazado_241094" data-name="Trazado 241094" d="M242.09,187.4l-2.665,17.411a1.032,1.032,0,0,1-1.182.864L86.072,182.385a1.033,1.033,0,0,1-.865-1.178l.357-2.329s7.152-5.763,11.628-5.078c5.289.81,6.227,3.809,10.933,4.529s9.9-10.216,14.163-9.564c2.306.353,2.9,2.129,4.029,3.757a6.1,6.1,0,0,0,4.37,2.754c.056.014.117.023.173.031,5.788.886,13.621-29.839,21.583-28.621,3.52.539,4.943,7.321,6,14.807,1.341,9.461,2.1,20.052,5.788,20.617,6.6,1.01,8.844-12.381,14.986-11.442,3.859.591,5.264,7.741,8.51,13.4,1.919,3.351,4.491,6.182,8.6,6.812a10.57,10.57,0,0,0,8.176-1.662c3.808-2.663,5.51-7.209,10.272-6.48,2.819.432,3.848,2.607,4.9,4.655.915,1.792,1.851,3.486,4.025,3.819,2.555.391,4.733-3.268,7.041-6.517,1.9-2.672,3.877-5.065,6.23-4.705,2.4.368,3.822,3.253,4.537,5.313a17.462,17.462,0,0,1,.584,2.1" transform="translate(-85.195 -146.651)" fill="#ba68c8"/>
              </g>
            </g>
          </g>
          <g id="Grupo_180278" data-name="Grupo 180278" transform="translate(50.313 99.904)" opacity="0.5">
            <g id="Grupo_180277" data-name="Grupo 180277">
              <g id="Grupo_180276" data-name="Grupo 180276" clip-path="url(#clip-path-29)">
                <path id="Trazado_241095" data-name="Trazado 241095" d="M245.752,172.7l-6.327,41.335a1.033,1.033,0,0,1-1.182.864L86.071,191.6a1.033,1.033,0,0,1-.865-1.178l.357-2.329c6.32.967,9.692-3.761,13.932-3.112s6.435,3.61,10.407,4.218,10.089-8.68,14.432-8.015a8.4,8.4,0,0,1,1.981.553,34.061,34.061,0,0,1,4.37,2.754,10.577,10.577,0,0,0,3.976,1.427c5.087.778,15.263-17.626,21.159-16.724a4.442,4.442,0,0,1,2.62,1.514c3.483,3.8,4.38,13.293,9.3,14.045,5.958.912,9.146-8.781,14.925-7.9s7.485,10.845,14.186,11.87,13.951-17.266,20.9-16.2,8.938,10.458,14.978,11.383c6.618,1.013,13.024-11.217,13.024-11.217" transform="translate(-85.195 -169.167)" fill="#ba68c8"/>
              </g>
            </g>
          </g>
          <path id="Trazado_241096" data-name="Trazado 241096" d="M242.81,203.716l-3.385,22.117a1.033,1.033,0,0,1-1.182.864L86.071,203.405a1.031,1.031,0,0,1-.865-1.178l.174-1.139c.22-.212,3.8-3.594,7.443-3.036,3.76.575,3.77,3.943,9.016,4.746s6.773-3.346,14.217-2.206,7.414,6.341,15.108,7.518,9.284-5.056,14.747-4.22,5.1,4.022,8.2,4.5,4.916-4.4,8.737-3.811,6.742,8.593,11.047,9.252c3.026.463,8.373-5.524,13.826-8.739,2.307-1.357,4.635-2.219,6.814-1.885,4.494.688,7.116,4.2,9.966,7.035,1.793,1.786,3.679,3.308,6.173,3.69,3.562.545,6.266-2.677,9-5.515,2.222-2.309,4.458-4.364,7.182-3.947a11.114,11.114,0,0,1,3.884,1.249c2.35,1.323,2.982,3.105,5.811,3.538,3.41.522,6.261-5.538,6.261-5.538" transform="translate(-34.882 -81.065)" fill="#ba68c8"/>
          <path id="Trazado_241097" data-name="Trazado 241097" d="M110.6,102.655l-8.17-1.251a1.456,1.456,0,0,1,.441-2.878l8.17,1.25a1.456,1.456,0,1,1-.441,2.879" transform="translate(-41.431 -40.333)" fill="#ba68c8"/>
          <path id="Trazado_241098" data-name="Trazado 241098" d="M123.75,102.33h0a.928.928,0,0,1,.133.01l8.17,1.251a.866.866,0,0,1,.725.987.871.871,0,0,1-.854.735.929.929,0,0,1-.133-.01l-8.17-1.251a.866.866,0,0,1,.129-1.721m0-.591a1.456,1.456,0,0,0-.219,2.9l8.17,1.25a1.417,1.417,0,0,0,.222.017,1.456,1.456,0,0,0,.219-2.9l-8.17-1.25a1.417,1.417,0,0,0-.222-.017" transform="translate(-50.072 -41.656)" fill="#fef536"/>
          <path id="Trazado_241099" data-name="Trazado 241099" d="M144.855,105.56h0a.928.928,0,0,1,.133.01l8.17,1.251a.866.866,0,0,1,.725.987.871.871,0,0,1-.854.735.927.927,0,0,1-.133-.01l-8.17-1.251a.866.866,0,0,1-.725-.987.871.871,0,0,1,.854-.735m0-.591a1.456,1.456,0,0,0-.219,2.9l8.17,1.25a1.417,1.417,0,0,0,.222.017,1.456,1.456,0,0,0,.219-2.9l-8.17-1.25a1.417,1.417,0,0,0-.222-.017" transform="translate(-58.713 -42.978)" fill="#fef536"/>
          <path id="Trazado_241100" data-name="Trazado 241100" d="M358.9,139.027l.1-.638-.472-.115a1.318,1.318,0,0,0-.074-.3l.365-.32-.382-.52-.414.253a1.325,1.325,0,0,0-.268-.162l.032-.484-.638-.1-.114.472a1.342,1.342,0,0,0-.3.074l-.319-.364-.52.382.253.414a1.325,1.325,0,0,0-.162.268l-.484-.032-.1.638.472.115a1.324,1.324,0,0,0,.074.3l-.365.319.382.52.414-.253a1.351,1.351,0,0,0,.268.162l-.032.484.638.1.115-.472a1.318,1.318,0,0,0,.3-.074l.319.365.52-.382-.252-.414a1.35,1.35,0,0,0,.162-.268Zm-1.817.154a.75.75,0,1,1,.855-.628.75.75,0,0,1-.855.628" transform="translate(-145.514 -55.945)" fill="#ba68c8"/>
          <g id="Grupo_180281" data-name="Grupo 180281" transform="translate(117.879 153.091)" opacity="0.2">
            <g id="Grupo_180280" data-name="Grupo 180280">
              <g id="Grupo_180279" data-name="Grupo 180279" clip-path="url(#clip-path-30)">
                <rect id="Rectángulo_44995" data-name="Rectángulo 44995" width="12.64" height="1.758" transform="translate(0 12.495) rotate(-81.304)" fill="#64b5f6"/>
              </g>
            </g>
          </g>
          <rect id="Rectángulo_44997" data-name="Rectángulo 44997" width="5.95" height="1.758" transform="translate(118.603 160.854) rotate(-81.304)" fill="#ba68c8"/>
          <g id="Grupo_180284" data-name="Grupo 180284" transform="translate(113.485 155.645)" opacity="0.2">
            <g id="Grupo_180283" data-name="Grupo 180283">
              <g id="Grupo_180282" data-name="Grupo 180282" clip-path="url(#clip-path-30)">
                <rect id="Rectángulo_44998" data-name="Rectángulo 44998" width="12.64" height="1.758" transform="translate(0 12.495) rotate(-81.304)" fill="#64b5f6"/>
              </g>
            </g>
          </g>
          <rect id="Rectángulo_45000" data-name="Rectángulo 45000" width="5.95" height="1.758" transform="translate(113.993 164.821) rotate(-81.304)" fill="#ba68c8"/>
          <g id="Grupo_180287" data-name="Grupo 180287" transform="translate(109.941 152.65)" opacity="0.2">
            <g id="Grupo_180286" data-name="Grupo 180286">
              <g id="Grupo_180285" data-name="Grupo 180285" clip-path="url(#clip-path-30)">
                <rect id="Rectángulo_45001" data-name="Rectángulo 45001" width="12.64" height="1.758" transform="translate(0 12.495) rotate(-81.304)" fill="#64b5f6"/>
              </g>
            </g>
          </g>
          <rect id="Rectángulo_45003" data-name="Rectángulo 45003" width="5.95" height="1.758" transform="translate(110.233 163.237) rotate(-81.304)" fill="#ba68c8"/>
          <g id="Grupo_180290" data-name="Grupo 180290" transform="translate(121.412 156.158)" opacity="0.2">
            <g id="Grupo_180289" data-name="Grupo 180289">
              <g id="Grupo_180288" data-name="Grupo 180288" clip-path="url(#clip-path-30)">
                <rect id="Rectángulo_45004" data-name="Rectángulo 45004" width="12.64" height="1.758" transform="translate(0.001 12.494) rotate(-81.304)" fill="#64b5f6"/>
              </g>
            </g>
          </g>
          <rect id="Rectángulo_45006" data-name="Rectángulo 45006" width="5.95" height="1.758" transform="translate(122.136 163.922) rotate(-81.304)" fill="#ba68c8"/>
          <g id="Grupo_180293" data-name="Grupo 180293" transform="translate(125.889 153.06)" opacity="0.2">
            <g id="Grupo_180292" data-name="Grupo 180292">
              <g id="Grupo_180291" data-name="Grupo 180291" clip-path="url(#clip-path-30)">
                <rect id="Rectángulo_45007" data-name="Rectángulo 45007" width="12.64" height="1.758" transform="translate(0 12.495) rotate(-81.304)" fill="#64b5f6"/>
              </g>
            </g>
          </g>
          <rect id="Rectángulo_45009" data-name="Rectángulo 45009" width="5.95" height="1.758" transform="translate(126.685 160.353) rotate(-81.304)" fill="#ba68c8"/>
          <g id="Grupo_180296" data-name="Grupo 180296" transform="translate(129.306 156.884)" opacity="0.2">
            <g id="Grupo_180295" data-name="Grupo 180295">
              <g id="Grupo_180294" data-name="Grupo 180294" clip-path="url(#clip-path-30)">
                <rect id="Rectángulo_45010" data-name="Rectángulo 45010" width="12.64" height="1.758" transform="translate(0.001 12.495) rotate(-81.304)" fill="#64b5f6"/>
              </g>
            </g>
          </g>
          <rect id="Rectángulo_45012" data-name="Rectángulo 45012" width="5.95" height="1.758" transform="translate(130.246 163.237) rotate(-81.304)" fill="#ba68c8"/>
          <g id="Grupo_180299" data-name="Grupo 180299" transform="translate(134.217 150.95)" opacity="0.2">
            <g id="Grupo_180298" data-name="Grupo 180298">
              <g id="Grupo_180297" data-name="Grupo 180297" clip-path="url(#clip-path-36)">
                <rect id="Rectángulo_45013" data-name="Rectángulo 45013" width="12.64" height="1.758" transform="translate(0 12.495) rotate(-81.304)" fill="#64b5f6"/>
              </g>
            </g>
          </g>
          <rect id="Rectángulo_45015" data-name="Rectángulo 45015" width="5.95" height="1.758" transform="translate(135.157 157.303) rotate(-81.304)" fill="#ba68c8"/>
          <g id="Grupo_180302" data-name="Grupo 180302" transform="translate(136.923 159.418)" opacity="0.2">
            <g id="Grupo_180301" data-name="Grupo 180301">
              <g id="Grupo_180300" data-name="Grupo 180300" clip-path="url(#clip-path-30)">
                <rect id="Rectángulo_45016" data-name="Rectángulo 45016" width="12.64" height="1.758" transform="translate(0 12.494) rotate(-81.304)" fill="#64b5f6"/>
              </g>
            </g>
          </g>
          <rect id="Rectángulo_45018" data-name="Rectángulo 45018" width="5.95" height="1.758" transform="translate(137.647 167.181) rotate(-81.304)" fill="#ba68c8"/>
          <g id="Grupo_180305" data-name="Grupo 180305" transform="translate(140.722 160.745)" opacity="0.2">
            <g id="Grupo_180304" data-name="Grupo 180304">
              <g id="Grupo_180303" data-name="Grupo 180303" clip-path="url(#clip-path-30)">
                <rect id="Rectángulo_45019" data-name="Rectángulo 45019" width="12.64" height="1.758" transform="translate(0.001 12.494) rotate(-81.304)" fill="#64b5f6"/>
              </g>
            </g>
          </g>
          <rect id="Rectángulo_45021" data-name="Rectángulo 45021" width="5.95" height="1.758" transform="translate(141.015 171.332) rotate(-81.304)" fill="#ba68c8"/>
          <g id="Grupo_180308" data-name="Grupo 180308" transform="translate(145.834 153.502)" opacity="0.2">
            <g id="Grupo_180307" data-name="Grupo 180307">
              <g id="Grupo_180306" data-name="Grupo 180306" clip-path="url(#clip-path-30)">
                <rect id="Rectángulo_45022" data-name="Rectángulo 45022" width="12.64" height="1.758" transform="translate(0.001 12.495) rotate(-81.304)" fill="#64b5f6"/>
              </g>
            </g>
          </g>
          <rect id="Rectángulo_45024" data-name="Rectángulo 45024" width="5.95" height="1.758" transform="translate(146.054 164.56) rotate(-81.304)" fill="#ba68c8"/>
          <g id="Grupo_180311" data-name="Grupo 180311" transform="translate(148.904 159.592)" opacity="0.2">
            <g id="Grupo_180310" data-name="Grupo 180310">
              <g id="Grupo_180309" data-name="Grupo 180309" clip-path="url(#clip-path-36)">
                <rect id="Rectángulo_45025" data-name="Rectángulo 45025" width="12.64" height="1.758" transform="translate(0.001 12.495) rotate(-81.304)" fill="#64b5f6"/>
              </g>
            </g>
          </g>
          <rect id="Rectángulo_45027" data-name="Rectángulo 45027" width="5.95" height="1.758" transform="translate(149.556 167.827) rotate(-81.304)" fill="#ba68c8"/>
          <g id="Grupo_180314" data-name="Grupo 180314" transform="translate(153.314 156.931)" opacity="0.2">
            <g id="Grupo_180313" data-name="Grupo 180313">
              <g id="Grupo_180312" data-name="Grupo 180312" clip-path="url(#clip-path-30)">
                <rect id="Rectángulo_45028" data-name="Rectángulo 45028" width="12.64" height="1.758" transform="matrix(0.151, -0.989, 0.989, 0.151, 0, 12.495)" fill="#64b5f6"/>
              </g>
            </g>
          </g>
          <rect id="Rectángulo_45030" data-name="Rectángulo 45030" width="5.95" height="1.758" transform="matrix(0.151, -0.989, 0.989, 0.151, 154.038, 164.695)" fill="#ba68c8"/>
          <g id="Grupo_180317" data-name="Grupo 180317" transform="translate(158.084 151.919)" opacity="0.2">
            <g id="Grupo_180316" data-name="Grupo 180316">
              <g id="Grupo_180315" data-name="Grupo 180315" clip-path="url(#clip-path-30)">
                <rect id="Rectángulo_45031" data-name="Rectángulo 45031" width="12.64" height="1.758" transform="matrix(0.151, -0.989, 0.989, 0.151, 0.001, 12.495)" fill="#64b5f6"/>
              </g>
            </g>
          </g>
          <rect id="Rectángulo_45033" data-name="Rectángulo 45033" width="5.95" height="1.758" transform="matrix(0.151, -0.989, 0.989, 0.151, 159.096, 157.801)" fill="#ba68c8"/>
          <g id="Grupo_180320" data-name="Grupo 180320" transform="translate(160.784 160.432)" opacity="0.2">
            <g id="Grupo_180319" data-name="Grupo 180319">
              <g id="Grupo_180318" data-name="Grupo 180318" clip-path="url(#clip-path-30)">
                <rect id="Rectángulo_45034" data-name="Rectángulo 45034" width="12.64" height="1.758" transform="matrix(0.151, -0.989, 0.989, 0.151, 0, 12.495)" fill="#64b5f6"/>
              </g>
            </g>
          </g>
          <rect id="Rectángulo_45036" data-name="Rectángulo 45036" width="5.95" height="1.758" transform="matrix(0.151, -0.989, 0.989, 0.151, 161.58, 167.725)" fill="#ba68c8"/>
          <g id="Grupo_180323" data-name="Grupo 180323" transform="translate(163.854 166.521)" opacity="0.2">
            <g id="Grupo_180322" data-name="Grupo 180322">
              <g id="Grupo_180321" data-name="Grupo 180321" clip-path="url(#clip-path-30)">
                <rect id="Rectángulo_45037" data-name="Rectángulo 45037" width="12.64" height="1.758" transform="matrix(0.151, -0.989, 0.989, 0.151, 0.001, 12.495)" fill="#64b5f6"/>
              </g>
            </g>
          </g>
          <rect id="Rectángulo_45039" data-name="Rectángulo 45039" width="5.95" height="1.758" transform="matrix(0.151, -0.989, 0.989, 0.151, 164.65, 173.814)" fill="#ba68c8"/>
          <g id="Grupo_180326" data-name="Grupo 180326" transform="translate(168.777 160.507)" opacity="0.2">
            <g id="Grupo_180325" data-name="Grupo 180325">
              <g id="Grupo_180324" data-name="Grupo 180324" clip-path="url(#clip-path-30)">
                <rect id="Rectángulo_45040" data-name="Rectángulo 45040" width="12.64" height="1.758" transform="matrix(0.151, -0.989, 0.989, 0.151, 0.001, 12.495)" fill="#64b5f6"/>
              </g>
            </g>
          </g>
          <rect id="Rectángulo_45042" data-name="Rectángulo 45042" width="5.95" height="1.758" transform="matrix(0.151, -0.989, 0.989, 0.151, 169.069, 171.094)" fill="#ba68c8"/>
          <g id="Grupo_180329" data-name="Grupo 180329" transform="translate(173.769 154.043)" opacity="0.2">
            <g id="Grupo_180328" data-name="Grupo 180328">
              <g id="Grupo_180327" data-name="Grupo 180327" clip-path="url(#clip-path-30)">
                <rect id="Rectángulo_45043" data-name="Rectángulo 45043" width="12.64" height="1.758" transform="matrix(0.151, -0.989, 0.989, 0.151, 0.001, 12.495)" fill="#64b5f6"/>
              </g>
            </g>
          </g>
          <rect id="Rectángulo_45045" data-name="Rectángulo 45045" width="5.95" height="1.758" transform="matrix(0.151, -0.989, 0.989, 0.151, 173.917, 165.571)" fill="#ba68c8"/>
          <g id="Grupo_180332" data-name="Grupo 180332" transform="translate(176.599 161.704)" opacity="0.2">
            <g id="Grupo_180331" data-name="Grupo 180331">
              <g id="Grupo_180330" data-name="Grupo 180330" clip-path="url(#clip-path-30)">
                <rect id="Rectángulo_45046" data-name="Rectángulo 45046" width="12.64" height="1.758" transform="matrix(0.151, -0.989, 0.989, 0.151, 0.001, 12.495)" fill="#64b5f6"/>
              </g>
            </g>
          </g>
          <rect id="Rectángulo_45048" data-name="Rectángulo 45048" width="5.95" height="1.758" transform="matrix(0.151, -0.989, 0.989, 0.151, 177.323, 169.468)" fill="#ba68c8"/>
          <g id="Grupo_180335" data-name="Grupo 180335" transform="translate(180.192 164.381)" opacity="0.2">
            <g id="Grupo_180334" data-name="Grupo 180334">
              <g id="Grupo_180333" data-name="Grupo 180333" clip-path="url(#clip-path-36)">
                <rect id="Rectángulo_45049" data-name="Rectángulo 45049" width="12.64" height="1.758" transform="matrix(0.151, -0.989, 0.989, 0.151, 0.001, 12.495)" fill="#64b5f6"/>
              </g>
            </g>
          </g>
          <rect id="Rectángulo_45051" data-name="Rectángulo 45051" width="5.95" height="1.758" transform="matrix(0.151, -0.989, 0.989, 0.151, 180.412, 175.439)" fill="#ba68c8"/>
          <g id="Grupo_180338" data-name="Grupo 180338" transform="translate(184.699 161.083)" opacity="0.2">
            <g id="Grupo_180337" data-name="Grupo 180337">
              <g id="Grupo_180336" data-name="Grupo 180336" clip-path="url(#clip-path-30)">
                <rect id="Rectángulo_45052" data-name="Rectángulo 45052" width="12.64" height="1.758" transform="matrix(0.151, -0.989, 0.989, 0.151, 0.001, 12.495)" fill="#64b5f6"/>
              </g>
            </g>
          </g>
          <rect id="Rectángulo_45054" data-name="Rectángulo 45054" width="5.95" height="1.758" transform="matrix(0.151, -0.989, 0.989, 0.151, 185.712, 166.964)" fill="#ba68c8"/>
          <g id="Grupo_180341" data-name="Grupo 180341" transform="translate(188.014 165.579)" opacity="0.2">
            <g id="Grupo_180340" data-name="Grupo 180340">
              <g id="Grupo_180339" data-name="Grupo 180339" clip-path="url(#clip-path-30)">
                <rect id="Rectángulo_45055" data-name="Rectángulo 45055" width="12.64" height="1.758" transform="matrix(0.151, -0.989, 0.989, 0.151, 0, 12.495)" fill="#64b5f6"/>
              </g>
            </g>
          </g>
          <rect id="Rectángulo_45057" data-name="Rectángulo 45057" width="5.95" height="1.758" transform="matrix(0.151, -0.989, 0.989, 0.151, 188.882, 172.401)" fill="#ba68c8"/>
          <g id="Grupo_180344" data-name="Grupo 180344" transform="translate(192.183 164.491)" opacity="0.2">
            <g id="Grupo_180343" data-name="Grupo 180343">
              <g id="Grupo_180342" data-name="Grupo 180342" clip-path="url(#clip-path-36)">
                <rect id="Rectángulo_45058" data-name="Rectángulo 45058" width="12.64" height="1.758" transform="matrix(0.151, -0.989, 0.989, 0.151, 0.001, 12.495)" fill="#64b5f6"/>
              </g>
            </g>
          </g>
          <rect id="Rectángulo_45060" data-name="Rectángulo 45060" width="5.95" height="1.758" transform="matrix(0.151, -0.989, 0.989, 0.151, 193.123, 170.844)" fill="#ba68c8"/>
          <g id="Grupo_180347" data-name="Grupo 180347" transform="translate(195.848 166.695)" opacity="0.2">
            <g id="Grupo_180346" data-name="Grupo 180346">
              <g id="Grupo_180345" data-name="Grupo 180345" clip-path="url(#clip-path-36)">
                <rect id="Rectángulo_45061" data-name="Rectángulo 45061" width="12.64" height="1.758" transform="matrix(0.151, -0.989, 0.989, 0.151, 0, 12.495)" fill="#64b5f6"/>
              </g>
            </g>
          </g>
          <rect id="Rectángulo_45063" data-name="Rectángulo 45063" width="5.95" height="1.758" transform="matrix(0.151, -0.989, 0.989, 0.151, 195.924, 178.694)" fill="#ba68c8"/>
          <rect id="Rectángulo_45064" data-name="Rectángulo 45064" width="1.026" height="33.145" transform="translate(103.422 180.31) rotate(-81.297)" fill="#999"/>
          <path id="Trazado_241101" data-name="Trazado 241101" d="M207.684,309.721a.28.28,0,0,1-.045,0L174.875,304.7a.293.293,0,0,1-.193-.117.3.3,0,0,1-.054-.22l.155-1.014a.292.292,0,0,1,.337-.247l32.764,5.014a.3.3,0,0,1,.247.337l-.155,1.013a.295.295,0,0,1-.292.251m-32.428-5.557,32.18,4.925.066-.43-32.18-4.925Z" transform="translate(-71.498 -124.101)" fill="#263238"/>
          <g id="Grupo_180353" data-name="Grupo 180353" transform="translate(152.666 112.887)" opacity="0.2">
            <g id="Grupo_180352" data-name="Grupo 180352">
              <g id="Grupo_180351" data-name="Grupo 180351" clip-path="url(#clip-path-53)">
                <g id="Grupo_180350" data-name="Grupo 180350" opacity="0.7">
                  <g id="Grupo_180349" data-name="Grupo 180349">
                    <g id="Grupo_180348" data-name="Grupo 180348" clip-path="url(#clip-path-53)">
                      <path id="Trazado_241102" data-name="Trazado 241102" d="M263.01,191.153s-4.441,2.461-1.615,9.138,20.034,17.641,19.685,23.217c0,0-17.661-11.009-22.569-4.653,0,0,13.343,12.938,14.727,22.675s5.925,14.047,16.349,19.6,33.141,34.856,33.141,34.856l-3.4-49.2-33.063-37.324-16.35-9.316Z" transform="translate(-258.51 -191.152)"/>
                    </g>
                  </g>
                </g>
              </g>
            </g>
          </g>
          <path id="Trazado_241103" data-name="Trazado 241103" d="M352.626,278.394s-29.115,19.122-29.121,19.122a.123.123,0,0,1-.171-.077c-.13-.342-13.01-34.719-16.093-37.4a12.666,12.666,0,0,1-3.673-5.87c0-.006-.006-.006-.006-.012s-.006-.03-.012-.047c-.112-.378-.165-.626-.177-.691a21.41,21.41,0,0,0-7.6-8.54,39.678,39.678,0,0,0-6.874-3.307c-3.661-1.482-7.429-3.012-10.093-5.841a12.367,12.367,0,0,1-1.246-1.553c-4.234-6.2-10.772-13.046-12.951-14.451-2.262-1.465-6.171-1.217-6.207-1.211a.131.131,0,0,1-.142-.106,3.712,3.712,0,0,1,.957-3.006,5.935,5.935,0,0,1,4.506-2.067,17.31,17.31,0,0,1,10.341,4c2.285,2.156,7.748,3.862,8.368,4.051.88-.52,2.929.6,3.715,1.069-.9-3.219-.537-4.459-.4-4.772-1.937-2.51-12.024-9.939-17.38-13.666h-.006c-1.476-1.034-2.587-1.778-3.071-2.061-2.5-1.471-4.565-6.071-4.163-9.284a2.964,2.964,0,0,1,1.187-2.232A2.846,2.846,0,0,1,264,190.01a3.7,3.7,0,0,1,.715.089.243.243,0,0,1,.065.041c.047.065,5.061,6.012,6.8,6.945.85.455,5.374,2.74,9.673,4.866.656.325,1.305.65,1.937.957a47.646,47.646,0,0,1,.3-5.6c.165-.732,1.335-1.778,2.663-2.386a3.211,3.211,0,0,1,2.616-.242c.325.183,1.093.656,2.156,1.317.52.319,1.122.7,1.783,1.1a6.9,6.9,0,0,1,1.37-1.541,7.922,7.922,0,0,1,3.768-.408,61.457,61.457,0,0,1,5.793,3.473c.366.23.738.467,1.116.7.136-.254.455-.785.756-.9a6.746,6.746,0,0,1,3.986-.213,61.026,61.026,0,0,1,6.78,4.677c1.595,1.181,3.124,2.309,4.128,2.988a.144.144,0,0,1,.083.059c.289.195.532.348.715.455,2.138,1.223,7.394,28.79,7.447,29.068.343,1.848,1.595,3.756,2.917,5.776a30.537,30.537,0,0,1,3.638,6.786c1.683,4.919,5.516,12.118,11.132,20.918q.762,1.2,1.571,2.427c1.518,2.327,3.136,4.725,4.724,7.039" transform="translate(-105.723 -77.796)" fill="#fff"/>
          <path id="Trazado_241104" data-name="Trazado 241104" d="M287.741,225.609c-1.128.892-9.313.047-10.317,2.8-.591,1.624-.154,4.081,1.382,7.323a12.367,12.367,0,0,1-1.246-1.553c-4.234-6.2-10.772-13.046-12.951-14.451-2.262-1.465-6.171-1.217-6.207-1.211a.131.131,0,0,1-.142-.106,3.712,3.712,0,0,1,.957-3.006,5.935,5.935,0,0,1,4.506-2.067,17.31,17.31,0,0,1,10.341,4c2.285,2.156,7.748,3.862,8.368,4.051.88-.52,2.929.6,3.715,1.069-.9-3.219-.537-4.459-.4-4.772-1.937-2.51-12.024-9.939-17.38-13.666h-.006c-1.476-1.034-2.587-1.778-3.071-2.061-2.5-1.471-4.565-6.071-4.163-9.284a2.964,2.964,0,0,1,1.187-2.232A2.846,2.846,0,0,1,264,190.01a3.779,3.779,0,0,0-1.11.673c-1.642,1.4,2.274,8.788,4.476,10.831,2.3,2.132,12.662,7.423,16.382,10.577,2.043,1.73,4.725,4.352,4.725,4.352-1.636,2.782.39,8.28-.732,9.166" transform="translate(-105.723 -77.796)" fill="#64b5f6"/>
          <path id="Trazado_241105" data-name="Trazado 241105" d="M372.607,173.765c-.006-.053-.006-.065.006-.041a.035.035,0,0,1-.006.041" transform="translate(-152.558 -71.124)" fill="#ba68c8"/>
          <path id="Trazado_241106" data-name="Trazado 241106" d="M362.3,272.025c-4.388-4.175-10.92-10.677-12.142-13.53-1.866-4.37-3.112-8.4-5.433-11.345s-7.028-34.282-8.38-34.371c-1.317-.094,1.7,12.39,1.86,13.04-.13-.4-1.819-5.717-3.437-11.782-1.677-6.3-3.372-6.644-3.372-6.644-2.25.449-2.262,2.049-3.413,2.026s-5.1-2.829-5.1-2.829c-3.833.555-18.213-8.7-18.213-8.7-3.272.443-4.039,3.3-1.246,5.982s6.969,5.947,6.969,5.947c-2.693,1.311-12.579-4.234-12.579-4.234l-.591-.532c.656.325,1.305.65,1.937.957a47.646,47.646,0,0,1,.3-5.6c.165-.732,1.335-1.778,2.663-2.386a3.211,3.211,0,0,1,2.616-.242c.325.183,1.093.656,2.156,1.317.52.319,1.122.7,1.784,1.1a6.9,6.9,0,0,1,1.37-1.541,7.922,7.922,0,0,1,3.768-.407,61.461,61.461,0,0,1,5.793,3.473c.366.23.738.467,1.116.7.136-.254.455-.785.756-.9a6.746,6.746,0,0,1,3.986-.213,61.03,61.03,0,0,1,6.78,4.677c1.595,1.181,3.124,2.309,4.128,2.988a.144.144,0,0,1,.083.059c.289.195.531.348.715.455,2.138,1.222,7.394,28.79,7.447,29.068.343,1.848,1.595,3.756,2.917,5.776a30.538,30.538,0,0,1,3.638,6.786c1.683,4.919,5.516,12.118,11.132,20.918" transform="translate(-121.693 -80.894)" fill="#64b5f6"/>
          <path id="Trazado_241107" data-name="Trazado 241107" d="M322.934,297.757a.887.887,0,0,1-.83-.576c-5.188-13.872-13.7-35.2-15.881-37.1a13.4,13.4,0,0,1-4.1-6.961,20.931,20.931,0,0,0-7.292-8.141,38.831,38.831,0,0,0-6.744-3.233c-4.386-1.78-8.92-3.62-11.682-7.67-4.181-6.131-10.608-12.868-12.736-14.244-2.045-1.324-5.71-1.095-5.747-1.091a.883.883,0,0,1-.933-.729,4.44,4.44,0,0,1,1.119-3.623,6.7,6.7,0,0,1,5.085-2.339,17.95,17.95,0,0,1,10.861,4.206c1.607,1.518,7.213,3.555,10.523,4.635a8.529,8.529,0,0,1-.2-3.572c-3.054-3.475-17.84-13.973-19.992-15.239-2.72-1.6-4.963-6.569-4.53-10.032a3.684,3.684,0,0,1,1.515-2.764,3.929,3.929,0,0,1,3.014-.441.889.889,0,0,1,.445.285c1.913,2.275,5.391,6.124,6.577,6.762,1.955,1.052,15.766,7.94,17.68,8.706a2.991,2.991,0,0,0,2.7-.167.886.886,0,1,1,1.043,1.432,4.733,4.733,0,0,1-4.4.38c-2.094-.837-16.036-7.808-17.862-8.791-1.721-.927-5.825-5.686-6.887-6.937a1.689,1.689,0,0,0-2.066,1.756c-.377,3.02,1.738,7.149,3.67,8.286,2.127,1.251,18.335,12.721,20.8,16.059a.743.743,0,0,1,.05.99c-.067.21-.336,1.358.549,4.362a.886.886,0,0,1-1.1,1.1c-1.037-.312-10.2-3.12-12.741-5.518a16.15,16.15,0,0,0-9.644-3.723,4.974,4.974,0,0,0-3.727,1.7,3.2,3.2,0,0,0-.719,1.425,11.78,11.78,0,0,1,5.884,1.393c2.569,1.662,9.183,8.788,13.237,14.734,2.46,3.608,6.742,5.346,10.884,7.027a40.738,40.738,0,0,1,7.052,3.395,22.142,22.142,0,0,1,7.985,9.011.874.874,0,0,1,.054.185,11.749,11.749,0,0,0,3.537,6.049c3.221,2.8,15.041,34.238,16.379,37.813a.886.886,0,0,1-.83,1.2" transform="translate(-105.199 -77.269)" fill="#12263f"/>
          <path id="Trazado_241108" data-name="Trazado 241108" d="M320.954,206.672a.937.937,0,0,1-.1-.005c-2.268-.252-8.255-3.87-13.687-7.241-1.006-.624-1.8-1.117-2.1-1.283a2.2,2.2,0,0,0-1.672.26,4.5,4.5,0,0,0-2.127,1.7,48.323,48.323,0,0,0-.271,5.591.886.886,0,0,1-.886.882h0a.885.885,0,0,1-.882-.889,48.878,48.878,0,0,1,.314-5.968c.256-1.153,1.779-2.317,3.086-2.911a3.817,3.817,0,0,1,3.291-.219c.348.19,1.12.67,2.19,1.333,3.259,2.022,10.889,6.757,12.949,6.986a.886.886,0,0,1-.1,1.766" transform="translate(-122.512 -80.37)" fill="#12263f"/>
          <path id="Trazado_241109" data-name="Trazado 241109" d="M334.059,206.793a.9.9,0,0,1-.215-.027c-.959-.24-3.452-1.8-7.444-4.329-2.313-1.468-4.934-3.132-5.594-3.369a7.762,7.762,0,0,0-2.934.338,7.643,7.643,0,0,0-1.1,1.336.886.886,0,0,1-1.463-1A7.416,7.416,0,0,1,317,197.862a8.335,8.335,0,0,1,4.4-.461,53.172,53.172,0,0,1,5.945,3.54,65.456,65.456,0,0,0,6.923,4.106.886.886,0,0,1-.214,1.746" transform="translate(-129.037 -80.764)" fill="#12263f"/>
          <path id="Trazado_241110" data-name="Trazado 241110" d="M383.112,282.77a.885.885,0,0,1-.733-.387c-1.309-1.923-2.538-3.761-3.651-5.465-6.517-9.975-10.946-18.126-12.809-23.573a29.367,29.367,0,0,0-3.53-6.555c-1.381-2.107-2.685-4.1-3.064-6.147-1.691-9.133-5.572-26.862-7-28.4-.888-.519-2.789-1.921-4.983-3.54a70.176,70.176,0,0,0-6.522-4.537,5.71,5.71,0,0,0-3.187.167,3.272,3.272,0,0,0-.367.576.886.886,0,1,1-1.585-.791,2.881,2.881,0,0,1,1.215-1.4,7.38,7.38,0,0,1,4.529-.217c.912.331,3.241,2.026,6.968,4.776,2.006,1.48,4.079,3.01,4.856,3.454.543.311,1.557.89,4.577,14.087,1.6,6.98,2.959,14,3.236,15.5.315,1.7,1.469,3.461,2.8,5.5a31.176,31.176,0,0,1,3.724,6.953c1.816,5.31,6.179,13.324,12.616,23.177,1.107,1.694,2.329,3.523,3.632,5.437a.885.885,0,0,1-.732,1.384" transform="translate(-137.403 -82.805)" fill="#12263f"/>
          <path id="Trazado_241111" data-name="Trazado 241111" d="M314.375,225.729a.91.91,0,0,1-.194-.021.885.885,0,0,1-.671-1.057c.028-.126.707-3.1,2.588-4.514,1.5-1.123,3.217-.387,4.6.2a6.834,6.834,0,0,0,1.58.547.886.886,0,1,1-.22,1.758,8.066,8.066,0,0,1-2.058-.676c-1.3-.559-2.206-.891-2.836-.416a6.9,6.9,0,0,0-1.923,3.483.887.887,0,0,1-.864.692" transform="translate(-128.354 -89.893)" fill="#12263f"/>
          <path id="Trazado_241112" data-name="Trazado 241112" d="M333.3,218.521a.886.886,0,0,1-.852-1.132c.106-.367,1.094-3.607,3.059-4.466,1.449-.635,3.105.22,4.437.906a6.407,6.407,0,0,0,1.264.561.886.886,0,0,1-.165,1.764,5.893,5.893,0,0,1-1.91-.751c-.946-.487-2.239-1.152-2.915-.857-.912.4-1.752,2.259-2.067,3.337a.888.888,0,0,1-.85.638" transform="translate(-136.101 -87.088)" fill="#12263f"/>
          <path id="Trazado_241113" data-name="Trazado 241113" d="M356.515,216.9a1.258,1.258,0,0,1-.4-.066,5.6,5.6,0,0,1-1.562-1.183c-.363-.322-.987-.876-1.325-1.111a7.508,7.508,0,0,0-1.094.867.886.886,0,0,1-1.217-1.287,4.233,4.233,0,0,1,2.339-1.414h.017c.576,0,1.137.449,2.457,1.621.269.239.611.542.834.722l.112-.072a2.843,2.843,0,0,1,1.524-.573h.016a.886.886,0,0,1,.015,1.772,1.519,1.519,0,0,0-.591.287,2.106,2.106,0,0,1-1.125.438" transform="translate(-143.565 -87.088)" fill="#12263f"/>
          <path id="Trazado_241114" data-name="Trazado 241114" d="M310.584,215.073a.877.877,0,0,1-.379-.086c-1.05-.5-2.823-1.521-2.893-2.774a3.658,3.658,0,0,0-.816-1.534.886.886,0,0,1,1.349-1.148,5.235,5.235,0,0,1,1.232,2.536,5.585,5.585,0,0,0,1.887,1.32.886.886,0,0,1-.381,1.686" transform="translate(-125.405 -85.662)" fill="#12263f"/>
          <path id="Trazado_241115" data-name="Trazado 241115" d="M336.476,243.252a.886.886,0,0,1-.733-.388c-1.547-2.279-3.038-7.3-4.236-11.326a37.013,37.013,0,0,0-1.773-5.274.886.886,0,0,1,1.455-1.012c.5.715,1.062,2.568,2.017,5.782,1.163,3.914,2.61,8.784,4,10.835a.886.886,0,0,1-.732,1.384" transform="translate(-134.94 -92.071)" fill="#12263f"/>
          <path id="Trazado_241116" data-name="Trazado 241116" d="M347.615,225.759a.886.886,0,0,1-.843-.614c-.59-1.826-1.3-3.894-1.5-4.318a.886.886,0,0,1,1.2-1.27c.287.192.461.308,1.991,5.044a.886.886,0,0,1-.571,1.115.873.873,0,0,1-.272.043m-2.133-4.729h0" transform="translate(-141.292 -89.834)" fill="#12263f"/>
          <path id="Trazado_241117" data-name="Trazado 241117" d="M378.994,275.426a.884.884,0,0,1-.8-.5,27.194,27.194,0,0,1-2.022-6.84.886.886,0,0,1,1.751-.272,25.855,25.855,0,0,0,1.871,6.35.887.887,0,0,1-.8,1.266" transform="translate(-154.014 -109.344)" fill="#12263f"/>
          <path id="Trazado_241118" data-name="Trazado 241118" d="M333.245,293.788a.886.886,0,0,1-.859-.671c-.04-.159-.107-.5-.195-.951-.288-1.481-.961-4.946-1.658-6.122a.886.886,0,0,1,1.525-.9c.853,1.44,1.517,4.853,1.873,6.687.08.409.139.716.174.859a.886.886,0,0,1-.644,1.074.905.905,0,0,1-.216.027" transform="translate(-135.282 -116.57)" fill="#12263f"/>
          <g id="Grupo_180359" data-name="Grupo 180359" transform="translate(32.459 150.634)" opacity="0.2">
            <g id="Grupo_180358" data-name="Grupo 180358">
              <g id="Grupo_180357" data-name="Grupo 180357" clip-path="url(#clip-path-55)">
                <g id="Grupo_180356" data-name="Grupo 180356" opacity="0.7">
                  <g id="Grupo_180355" data-name="Grupo 180355">
                    <g id="Grupo_180354" data-name="Grupo 180354" clip-path="url(#clip-path-55)">
                      <path id="Trazado_241119" data-name="Trazado 241119" d="M54.963,357.527s19.215-25.837,33.706-30.568,15.209-11.149,14.616-23.126-.151-24.047-4.11-25.488,4.774-17.077.579-23.276L72.339,298.147Z" transform="translate(-54.963 -255.068)"/>
                    </g>
                  </g>
                </g>
              </g>
            </g>
          </g>
          <path id="Trazado_241120" data-name="Trazado 241120" d="M31.319,362.921c-.083-.024-.177-.059-.289-.094.23.13.372.213.413.23-.018-.024-.059-.065-.124-.136m46.714-79.259c-2.392-1.1-7.051-6.284-7.636-6.933,2.965-4.973,5.87-9.768,6.88-10.92,2.1-2.386,4.654-9.254,3.614-12.585-.951-3.059-4.063-2.569-4.488-2.486a.434.434,0,0,0-.047.012.1.1,0,0,0-.077.053c-.065.112-6.4,10.8-8.368,13.353-.939,1.217-3.1,3.986-5.291,6.762-.112-.018-.348-.059-.656-.1a11.364,11.364,0,0,0-4.163.118c-.041.012-.089.03-.136.047a14.268,14.268,0,0,0-2.026,1.075c-.083-.035-.248-.106-.467-.195a16.022,16.022,0,0,0-3.78-1.181c-1.116-.059-5.049,1.766-7.4,3.248a15.847,15.847,0,0,0-4.973-.691c-1.8.077-5.475,1.571-8.427,2.77-1.311.531-2.445.992-3.106,1.2-.2.065-.39.118-.573.177-1.76.526-2.728.821-3.957,3.278-1.276,2.551-2.652,12.065-3.313,16.636l-.089.62a66.905,66.905,0,0,0-.171,8.191c.065,4.606.13,9.366-.555,11.233a29.241,29.241,0,0,1-3.638,6.567c-.195.278-.372.537-.537.785a20.251,20.251,0,0,0-2.191,4.612c-.5,1.311-1.116,2.752-1.719,4.069-1.11,2.439-2.144,4.453-2.144,4.453S29.494,360.9,31.319,362.921a2.521,2.521,0,0,0,.3.094c.071-.118,3.933-6.721,8.026-13.235,3.526-5.622,7.223-11.179,8.8-12.455a14.6,14.6,0,0,0,4.524-7.039c.85-2.734,6.278-6.106,11.528-9.366,5.805-3.6,11.8-7.329,12.012-10.412.112-1.595.478-4.234.9-7.3,1.152-8.3,2.581-18.644.62-19.548m-9.945,13.276-2.581,2.528c-.366-2.067-2.876-4.813-3.272-5.232a21.607,21.607,0,0,0,.384-3.012c.094-1.152.195-2.345.478-2.557a60.214,60.214,0,0,0,3.715-5.911c.177,2.5,2.339,5.25,2.658,5.646Z" transform="translate(-3.521 -102.629)" fill="#fff"/>
          <path id="Trazado_241121" data-name="Trazado 241121" d="M38.929,303.146c-.762,6.8-7.429,23.682-7.429,23.682l-1.2-17S25.152,332.9,23.7,333.731s-3.921,5.244-5.327,8.746c-.939,2.356-4.14,3.969-6.148,4.778.6-1.317,1.222-2.758,1.719-4.069a20.251,20.251,0,0,1,2.191-4.612c.165-.248.343-.508.537-.785a29.242,29.242,0,0,0,3.638-6.567c.685-1.866.62-6.626.555-11.233a66.9,66.9,0,0,1,.171-8.191l.089-.62c.661-4.571,2.037-14.085,3.313-16.636,1.228-2.457,2.2-2.752,3.957-3.278.183-.059.372-.112.573-.177.661-.207,1.8-.667,3.106-1.2,2.953-1.2,6.626-2.693,8.427-2.77a15.848,15.848,0,0,1,4.973.691c2.35-1.482,6.284-3.307,7.4-3.248a16.024,16.024,0,0,1,3.78,1.181,112.184,112.184,0,0,0-10.488,6.939c-7.482,1.595-7.24,10.465-7.24,10.465" transform="translate(-5.007 -116.509)" fill="#64b5f6"/>
          <path id="Trazado_241122" data-name="Trazado 241122" d="M79.82,294.111a65.736,65.736,0,0,1,5.994-3.691c1.913-.9,2.528-4.476,1.181-5.486a.376.376,0,0,0-.171-.071c.047-.018.094-.035.136-.047a11.364,11.364,0,0,1,4.163-.118c-2.474,3.715-4.412,6.561-4.925,7.175-1.73,2.067-6.378,2.238-6.378,2.238" transform="translate(-32.681 -116.51)" fill="#64b5f6"/>
          <path id="Trazado_241123" data-name="Trazado 241123" d="M96.35,340.2l.9.39c-.549,2.191-.9-.39-.9-.39" transform="translate(-39.449 -139.291)" fill="#64b5f6"/>
          <path id="Trazado_241124" data-name="Trazado 241124" d="M99.557,283.662c-2.392-1.1-7.051-6.284-7.636-6.933,2.965-4.973,5.87-9.768,6.88-10.92,2.1-2.386,4.654-9.254,3.614-12.585-.951-3.059-4.063-2.569-4.488-2.486l-.018.13s3.366.419,3.36,5.286-8.746,14.51-8.746,14.51-8.988,16.861-9.585,16.607-1.908,11.268-1.908,11.268,2.5,2.132,1.908,5q-.044.213-.089.39l3.85,1.659s3.862-2.711,5.823,1.276S73.7,325.1,72.06,327.2c0,0-.23,7.943-3.266,9.112-1.967.756-5.433,8.268-7.624,13.471,3.526-5.622,7.223-11.179,8.8-12.455a14.6,14.6,0,0,0,4.524-7.039c.85-2.734,6.278-6.106,11.528-9.366,5.805-3.6,11.8-7.329,12.012-10.412.112-1.595.478-4.234.9-7.3,1.152-8.3,2.581-18.644.62-19.548m-9.945,13.276-2.581,2.528c-.366-2.067-2.876-4.813-3.272-5.232a21.607,21.607,0,0,0,.384-3.012c.094-1.152.195-2.345.478-2.557a60.219,60.219,0,0,0,3.715-5.911c.177,2.5,2.339,5.25,2.658,5.646Z" transform="translate(-25.045 -102.629)" fill="#64b5f6"/>
          <path id="Trazado_241125" data-name="Trazado 241125" d="M91.292,296.3a.886.886,0,0,1-.531-1.6c.615-.459.8-2.739.915-4.1.14-1.694.226-2.735.826-3.239.475-.555,3.02-4.838,5.267-8.621,3.53-5.943,7.532-12.679,8.813-14.136,2.146-2.44,4.271-8.858,3.409-11.614a2.637,2.637,0,0,0-2.992-1.85c-1.142,1.919-6.4,10.727-8.224,13.095-1.943,2.526-9.176,11.772-11.013,13.814a8.869,8.869,0,0,1-4.7,2.674.886.886,0,0,1-.294-1.747,7.181,7.181,0,0,0,3.679-2.113c1.721-1.913,8.792-10.935,10.925-13.708,1.939-2.522,8.253-13.167,8.316-13.275a.887.887,0,0,1,.559-.41,4.46,4.46,0,0,1,5.436,2.992c1.129,3.611-1.513,10.745-3.77,13.312-1.172,1.333-5.3,8.285-8.62,13.871-4.089,6.882-5.114,8.55-5.575,9a11.788,11.788,0,0,0-.275,2.1c-.171,2.079-.365,4.436-1.62,5.374a.878.878,0,0,1-.53.177m2.327-7.561h0m-1.064-1.416-.032.025.032-.025" transform="translate(-33.586 -102.092)" fill="#12263f"/>
          <path id="Trazado_241126" data-name="Trazado 241126" d="M101.888,321.95a.874.874,0,0,1-.306-.055.884.884,0,0,1-.576-.751c-.141-1.543-2.271-4.083-3.08-4.932a.886.886,0,0,1,1.281-1.223,18.1,18.1,0,0,1,3.115,4.412l1.531-1.5,1.287-7.964c-.722-.948-2.7-3.789-2.624-6.319a.875.875,0,0,1,.912-.858.886.886,0,0,1,.859.912c-.06,1.954,1.765,4.6,2.472,5.457a.886.886,0,0,1,.193.706l-1.4,8.636a.882.882,0,0,1-.255.492l-2.792,2.732a.883.883,0,0,1-.619.253" transform="translate(-39.994 -123.961)" fill="#12263f"/>
          <path id="Trazado_241127" data-name="Trazado 241127" d="M46.779,381.311a.875.875,0,0,1-.446-.121.886.886,0,0,1-.318-1.212c.55-.942,13.514-23.1,17.06-25.969a13.6,13.6,0,0,0,4.2-6.555c.958-3.09,6.3-6.411,11.96-9.925,5.325-3.307,11.359-7.057,11.536-9.619.112-1.629.481-4.288.908-7.367.778-5.613,2.4-17.292,1.153-18.522-2.684-1.231-7.769-6.978-7.984-7.222a.886.886,0,0,1,1.329-1.172c1.4,1.585,5.46,5.9,7.446,6.815,2.129.983,1.688,6.8-.188,20.344-.423,3.047-.787,5.679-.9,7.247-.239,3.466-6.131,7.126-12.369,11-4.893,3.041-10.44,6.486-11.2,8.945a15.36,15.36,0,0,1-4.776,7.407c-2.735,2.215-12.943,19.148-16.645,25.486a.886.886,0,0,1-.766.439" transform="translate(-18.791 -120.099)" fill="#12263f"/>
          <path id="Trazado_241128" data-name="Trazado 241128" d="M64,294.627a.886.886,0,0,1-.792-1.282c.53-1.06,1.827-1.482,3.2-1.929a12.47,12.47,0,0,0,2.148-.843c.61-.338,1.97-1.242,3.545-2.288,3.692-2.452,6.61-4.356,7.792-4.724a13.714,13.714,0,0,1,5.26-.025.886.886,0,0,1-.32,1.743,11.791,11.791,0,0,0-4.413-.025c-1.033.321-4.827,2.841-7.338,4.508-1.606,1.067-2.993,1.988-3.664,2.361a14.056,14.056,0,0,1-2.461.979c-.875.284-1.964.638-2.163,1.036a.887.887,0,0,1-.793.49" transform="translate(-25.843 -115.983)" fill="#12263f"/>
          <path id="Trazado_241129" data-name="Trazado 241129" d="M57.136,291.567a.886.886,0,0,1-.225-1.742,16.467,16.467,0,0,0,5.289-2.586c2.128-1.547,7.179-4.035,8.74-3.967a19.926,19.926,0,0,1,4.571,1.465.886.886,0,0,1-.707,1.624,18.431,18.431,0,0,0-3.949-1.319h-.022c-.873,0-5.3,1.964-7.591,3.631a18.269,18.269,0,0,1-5.88,2.866.884.884,0,0,1-.226.029" transform="translate(-23.031 -115.981)" fill="#12263f"/>
          <path id="Trazado_241130" data-name="Trazado 241130" d="M7.983,353.838a.886.886,0,0,1-.765-1.331,49.3,49.3,0,0,0,3.918-8.346,21.2,21.2,0,0,1,2.272-4.772c.166-.247.347-.509.539-.787a28.437,28.437,0,0,0,3.553-6.4c.637-1.733.57-6.633.512-10.956a66.762,66.762,0,0,1,.174-8.312l.09-.622c.666-4.61,2.053-14.2,3.385-16.864,1.376-2.752,2.588-3.117,4.422-3.669.178-.054.364-.109.56-.171.635-.2,1.754-.653,3.05-1.181,3.007-1.222,6.748-2.743,8.678-2.824a16.646,16.646,0,0,1,5.305.748.886.886,0,0,1-.568,1.678,14.806,14.806,0,0,0-4.662-.656c-1.623.068-5.358,1.586-8.085,2.695-1.333.542-2.483,1.01-3.189,1.23-.2.064-.394.121-.578.177a4.163,4.163,0,0,0-3.348,2.765c-1.2,2.405-2.614,12.16-3.216,16.325l-.09.624a66.276,66.276,0,0,0-.156,8.032c.063,4.7.129,9.55-.621,11.592a29.97,29.97,0,0,1-3.758,6.8c-.187.272-.364.529-.527.77a19.548,19.548,0,0,0-2.083,4.406A50.9,50.9,0,0,1,8.75,353.4a.885.885,0,0,1-.767.441" transform="translate(-2.906 -117.75)" fill="#12263f"/>
          <path id="Trazado_241131" data-name="Trazado 241131" d="M53.873,320.04a.944.944,0,0,1-.157-.014A.886.886,0,0,1,53,319c.175-.976.471-2.194.785-3.483.461-1.9,1.158-4.759.98-5.391-.416-1.475-.94-6.275,2.011-8.885a.885.885,0,1,1,1.173,1.326c-2.287,2.023-1.738,6.162-1.479,7.078.284,1.007-.175,3.048-.964,6.291-.307,1.261-.6,2.453-.762,3.375a.887.887,0,0,1-.871.73" transform="translate(-21.694 -123.248)" fill="#12263f"/>
          <path id="Trazado_241132" data-name="Trazado 241132" d="M76.669,311.888a.913.913,0,0,1-.126-.009.886.886,0,0,1-.752-1c.415-2.9,2.562-6.043,7.345-6.145a.886.886,0,0,1,.038,1.772c-4.5.1-5.434,3.265-5.629,4.624a.886.886,0,0,1-.876.761" transform="translate(-31.028 -124.768)" fill="#12263f"/>
          <path id="Trazado_241133" data-name="Trazado 241133" d="M44.248,304.249a.929.929,0,0,1-.17-.016.887.887,0,0,1-.7-1.039c.774-3.983,4.756-6.545,6.617-6.4a.886.886,0,1,1-.126,1.767c-.964-.075-4.133,1.79-4.751,4.969a.886.886,0,0,1-.869.717" transform="translate(-17.754 -121.517)" fill="#12263f"/>
          <path id="Trazado_241134" data-name="Trazado 241134" d="M111.284,313.256a.886.886,0,0,1-.836-1.178c.317-.907,1-2.47,1.988-2.753a.886.886,0,0,1,.55,1.683,5.292,5.292,0,0,0-.867,1.657.886.886,0,0,1-.836.592m1.64-2.228h0" transform="translate(-45.201 -126.635)" fill="#12263f"/>
          <path id="Trazado_241135" data-name="Trazado 241135" d="M106.562,335.894a.885.885,0,0,1-.84-.608,5.518,5.518,0,0,1,.054-3.747,25.516,25.516,0,0,0,1.218-3.278.886.886,0,1,1,1.7.506,26.6,26.6,0,0,1-1.341,3.582,3.892,3.892,0,0,0,.054,2.385.887.887,0,0,1-.843,1.16" transform="translate(-43.156 -134.143)" fill="#12263f"/>
          <path id="Trazado_241136" data-name="Trazado 241136" d="M99.683,337.832a1.1,1.1,0,0,1-.7-.245.886.886,0,0,1,.673-1.562,4.576,4.576,0,0,0,1.75-2.928.885.885,0,0,1,1.769.089,6.074,6.074,0,0,1-2.9,4.512,1.458,1.458,0,0,1-.587.133" transform="translate(-40.396 -136.038)" fill="#12263f"/>
          <path id="Trazado_241137" data-name="Trazado 241137" d="M65.524,346.533a.885.885,0,0,1-.86-1.1c1.595-6.418,3.984-16.523,4.032-18.064a.868.868,0,0,1,.913-.857.885.885,0,0,1,.857.913c-.07,2.223-3.673,16.782-4.083,18.434a.887.887,0,0,1-.859.673" transform="translate(-26.465 -133.685)" fill="#12263f"/>
        </g>
      </g>
      <path id="Trazado_115027" data-name="Trazado 115027" d="M3033.152,3293.915l-3.313-.784a.687.687,0,0,1-.524-.829.712.712,0,0,1,.524-.507l3.313-.785a3.627,3.627,0,0,0,2.7-2.615l.81-3.206a.721.721,0,0,1,.872-.5.706.706,0,0,1,.522.5l.811,3.206a3.626,3.626,0,0,0,2.7,2.615l3.313.785a.687.687,0,0,1,.524.829.714.714,0,0,1-.524.507l-3.313.784a3.626,3.626,0,0,0-2.7,2.615l-.811,3.206a.719.719,0,0,1-.872.5.707.707,0,0,1-.522-.5l-.81-3.206A3.626,3.626,0,0,0,3033.152,3293.915Z" transform="translate(-2834.877 -3058.597)" fill="#12263f"/>
      <path id="Trazado_115027-2" data-name="Trazado 115027" d="M3034.561,3297.294l-4.523-1.071a.938.938,0,0,1-.715-1.131.973.973,0,0,1,.715-.692l4.523-1.071a4.95,4.95,0,0,0,3.69-3.57l1.106-4.376a.985.985,0,0,1,1.191-.689.965.965,0,0,1,.712.689l1.107,4.376a4.951,4.951,0,0,0,3.689,3.57l4.523,1.071a.938.938,0,0,1,.715,1.132.973.973,0,0,1-.715.692l-4.523,1.071a4.951,4.951,0,0,0-3.689,3.57l-1.107,4.377a.982.982,0,0,1-1.19.689.966.966,0,0,1-.713-.689l-1.106-4.377A4.951,4.951,0,0,0,3034.561,3297.294Z" transform="translate(-2814.771 -3046.104)" fill="#12263f"/>
      <g id="Grupo_180366" data-name="Grupo 180366" transform="translate(214.025 27)">
        <ellipse id="Elipse_4783" data-name="Elipse 4783" cx="11" cy="11.5" rx="11" ry="11.5" transform="translate(1 1)" fill="#3a3a3a"/>
        <g id="Elipse_4784" data-name="Elipse 4784" transform="translate(0 0)" fill="#fff" stroke="#3a3a3a" stroke-width="1">
          <circle cx="10" cy="10" r="10" stroke="none"/>
          <circle cx="10" cy="10" r="9.5" fill="none"/>
        </g>
      </g>
      <g id="Elipse_4926" data-name="Elipse 4926" transform="translate(237.025 12)" fill="#fff" stroke="#12263f" stroke-width="2">
        <circle cx="7.5" cy="7.5" r="7.5" stroke="none"/>
        <circle cx="7.5" cy="7.5" r="6.5" fill="none"/>
      </g>
    </g>
    <g id="Grupo_80276" data-name="Grupo 80276" transform="translate(1139.314 823) rotate(1)">
      <path id="Trazado_115035" data-name="Trazado 115035" d="M44.31,20.3c.7.4.813.545-.021,2.344-.649,1.4-1.85,4,1.043,5.663,2.259,1.3,5.062.869,7.781.449,2.379-.365,4.628-.711,6.1.138A1.288,1.288,0,0,0,60.571,26.7L60.5,26.66c-2.26-1.3-5.063-.869-7.781-.449-2.379.365-4.628.711-6.1-.137-.695-.4-.813-.546.021-2.345.649-1.4,1.85-4-1.043-5.663-2.248-1.3-5.062-.869-7.781-.455-2.379.365-4.635.711-6.1-.137-.695-.4-.813-.546.021-2.345.648-1.4,1.849-4-1.027-5.663-2.26-1.3-5.07-.869-7.789-.448-2.379.365-4.628.711-6.1-.13-.695-.4-.813-.551.021-2.352.649-1.4,1.85-4-1.027-5.663A7.314,7.314,0,0,0,12.077.005a27.12,27.12,0,0,0-4.05.42C5.648.79,3.4,1.136,1.93.3A1.288,1.288,0,1,0,.647,2.53c2.26,1.3,5.063.869,7.775.449,2.379-.365,4.636-.718,6.1.137.7.4.814.551-.021,2.352-.648,1.4-1.849,4,1.043,5.669,2.26,1.3,5.063.869,7.775.448,2.379-.365,4.635-.718,6.1.137.695.4.813.545-.021,2.344-.649,1.4-1.849,4,1.027,5.663,2.26,1.3,5.063.869,7.782.455,2.379-.365,4.628-.711,6.1.137Z" transform="translate(-13.803 0.241)" fill="#393939"/>
      <path id="Trazado_115036" data-name="Trazado 115036" d="M30.431,19.7c2.259,1.3,5.063.869,7.782.455,2.379-.365,4.628-.711,6.1.138.7.4.813.545-.021,2.345-.648,1.4-1.849,4,1.043,5.663,2.26,1.3,5.063.869,7.782.455,2.379-.365,4.628-.711,6.1.138a1.288,1.288,0,0,0,1.29-2.228c-2.26-1.3-5.063-.869-7.781-.455-2.38.365-4.628.711-6.1-.137-.695-.4-.813-.546.021-2.345.648-1.4,1.849-4-1.043-5.663-2.249-1.3-5.063-.869-7.781-.455-2.38.365-4.636.711-6.1-.137-.695-.4-.813-.546.021-2.345.648-1.4,1.849-4-1.027-5.663-2.26-1.3-5.07-.869-7.788-.449-2.38.365-4.629.711-6.1-.13-.7-.4-.813-.551.021-2.352.649-1.4,1.849-4-1.027-5.662A7.309,7.309,0,0,0,12.077.005a27.381,27.381,0,0,0-4.05.421C5.648.791,3.4,1.137,1.93.3A1.289,1.289,0,0,0,.647,2.531c2.26,1.3,5.063.869,7.775.448,2.379-.365,4.635-.71,6.1.138.7.4.813.553-.021,2.352-.649,1.4-1.849,4,1.043,5.662,2.259,1.3,5.063.869,7.774.449,2.379-.365,4.635-.711,6.1.137.7.4.813.546-.021,2.345-.649,1.4-1.849,4,1.027,5.663Z" transform="translate(-8.612 22.289)" fill="#ba68c8"/>
    </g>
    <g id="Grupo_180365" data-name="Grupo 180365" transform="translate(7809.667 11770.268)">
      <path id="Trazado_241138" data-name="Trazado 241138" d="M-6683.667-10769a.952.952,0,0,1,.209.022l9.333,2a1,1,0,0,1,.721.611,1,1,0,0,1-.111.939l-9.333,13.333a1,1,0,0,1-1.12.381,1,1,0,0,1-.7-.954V-10768a1,1,0,0,1,.371-.777A1,1,0,0,1-6683.667-10769Zm7.649,3.662-6.649-1.425v10.923Z" transform="translate(0 0.4)" fill="#12263f"/>
      <path id="Trazado_241138-2" data-name="Trazado 241138" d="M-6683.667-10769a.952.952,0,0,1,.209.022l9.333,2a1,1,0,0,1,.721.611,1,1,0,0,1-.111.939l-9.333,13.333a1,1,0,0,1-1.12.381,1,1,0,0,1-.7-.954V-10768a1,1,0,0,1,.371-.777A1,1,0,0,1-6683.667-10769Zm7.649,3.662-6.649-1.425v10.923Z" transform="translate(16 -8.267)" fill="#12263f"/>
      <path id="Trazado_241138-3" data-name="Trazado 241138" d="M-6683.667-10769a.952.952,0,0,1,.209.022l9.333,2a1,1,0,0,1,.721.611,1,1,0,0,1-.111.939l-9.333,13.333a1,1,0,0,1-1.12.381,1,1,0,0,1-.7-.954V-10768a1,1,0,0,1,.371-.777A1,1,0,0,1-6683.667-10769Zm7.649,3.662-6.649-1.425v10.923Z" transform="translate(31 -18.267)" fill="#12263f"/>
    </g>
  </g>
</svg>
