<svg xmlns="http://www.w3.org/2000/svg" width="136.973" height="136.973" viewBox="0 0 136.973 136.973">
  <g id="Grupo_187268" data-name="Grupo 187268" transform="translate(-732.228 -5600.567)">
    <g id="Trazado_228316" data-name="Trazado 228316" transform="translate(732.228 5600.567)" fill="#fff">
      <path d="M 68.48631286621094 131.9726409912109 C 59.91350936889648 131.9726409912109 51.59981155395508 130.2947692871094 43.77611541748047 126.9856185913086 C 40.01535797119141 125.3949661254883 36.38774871826172 123.4259033203125 32.9940071105957 121.1331405639648 C 29.6312255859375 118.8612899780273 26.46885681152344 116.2520523071289 23.5947265625 113.3779220581055 C 20.72059631347656 110.503791809082 18.11135673522949 107.341423034668 15.83950805664062 103.9786376953125 C 13.5467472076416 100.5848999023438 11.57768249511719 96.95726776123047 9.987030029296875 93.196533203125 C 6.677877902984619 85.37283325195312 5.000008583068848 77.05912017822266 5.000008583068848 68.48631286621094 C 5.000008583068848 59.91350936889648 6.677877902984619 51.59981155395508 9.987030029296875 43.77611541748047 C 11.57768249511719 40.01535797119141 13.5467472076416 36.38774871826172 15.83950805664062 32.9940071105957 C 18.11135673522949 29.6312255859375 20.72059631347656 26.46885681152344 23.5947265625 23.5947265625 C 26.46885681152344 20.72059631347656 29.6312255859375 18.11135673522949 32.9940071105957 15.83950805664062 C 36.38774871826172 13.5467472076416 40.01535797119141 11.57768249511719 43.77611541748047 9.987030029296875 C 51.59981155395508 6.677877902984619 59.91350936889648 5.000008583068848 68.48631286621094 5.000008583068848 C 77.05912017822266 5.000008583068848 85.37283325195312 6.677877902984619 93.196533203125 9.987030029296875 C 96.95726776123047 11.57768249511719 100.5848999023438 13.5467472076416 103.9786376953125 15.83950805664062 C 107.341423034668 18.11135673522949 110.503791809082 20.72059631347656 113.3779220581055 23.5947265625 C 116.2520523071289 26.46885681152344 118.8612899780273 29.6312255859375 121.1331405639648 32.9940071105957 C 123.4259033203125 36.38774871826172 125.3949661254883 40.01535797119141 126.9856185913086 43.77611541748047 C 130.2947692871094 51.59981155395508 131.9726409912109 59.91350936889648 131.9726409912109 68.48631286621094 C 131.9726409912109 77.05912017822266 130.2947692871094 85.37283325195312 126.9856185913086 93.196533203125 C 125.3949661254883 96.95726776123047 123.4259033203125 100.5848999023438 121.1331405639648 103.9786376953125 C 118.8612899780273 107.341423034668 116.2520523071289 110.503791809082 113.3779220581055 113.3779220581055 C 110.503791809082 116.2520523071289 107.341423034668 118.8612899780273 103.9786376953125 121.1331405639648 C 100.5848999023438 123.4259033203125 96.95726776123047 125.3949661254883 93.196533203125 126.9856185913086 C 85.37283325195312 130.2947692871094 77.05912017822266 131.9726409912109 68.48631286621094 131.9726409912109 Z" stroke="none"/>
      <path d="M 68.48631286621094 10.00000762939453 C 36.23686981201172 10.00000762939453 10.00000762939453 36.23686981201172 10.00000762939453 68.48631286621094 C 10.00000762939453 100.7357559204102 36.23686981201172 126.9726181030273 68.48631286621094 126.9726181030273 C 100.7357559204102 126.9726181030273 126.9726181030273 100.7357559204102 126.9726181030273 68.48631286621094 C 126.9726181030273 36.23686981201172 100.7357559204102 10.00000762939453 68.48631286621094 10.00000762939453 M 68.48631286621094 0 C 106.3102569580078 0 136.9726257324219 30.66236877441406 136.9726257324219 68.48631286621094 C 136.9726257324219 106.3102569580078 106.3102569580078 136.9726257324219 68.48631286621094 136.9726257324219 C 30.66236877441406 136.9726257324219 0 106.3102569580078 0 68.48631286621094 C 0 30.66236877441406 30.66236877441406 0 68.48631286621094 0 Z" stroke="none" fill="#5c22c3"/>
    </g>
    <g id="_x37_-Pen" transform="translate(766.469 5637.017)">
      <g id="Grupo_180433" data-name="Grupo 180433" transform="translate(10.48)">
        <g id="Grupo_180430" data-name="Grupo 180430" transform="translate(1.123 6.117)">
          <path id="Trazado_241283" data-name="Trazado 241283" d="M40.579,6.1,49.2,11.515,22.229,54.632,11.6,63.055l2.005-13.838Z" transform="translate(-11.6 -6.1)" fill="#f1dff3"/>
        </g>
        <g id="Grupo_180431" data-name="Grupo 180431" transform="translate(32.4 1.082)">
          <rect id="Rectángulo_45090" data-name="Rectángulo 45090" width="7.621" height="5.114" transform="translate(0 6.459) rotate(-57.948)" fill="#ba68c8"/>
        </g>
        <g id="Grupo_180432" data-name="Grupo 180432">
          <path id="Trazado_241284" data-name="Trazado 241284" d="M53.016,15.643l-3.61-2.306.8-1.2a1.047,1.047,0,0,0-.4-1.5l-1.1-.7,3.51-5.515a1.047,1.047,0,0,0-.4-1.5L47.5.2a1.08,1.08,0,0,0-.8-.2,1.16,1.16,0,0,0-.7.5L42.588,6.016l-1.3-.8a.975.975,0,0,0-.9-.1,1.16,1.16,0,0,0-.7.5L12.706,48.733c-.1.1-.1.3-.2.4L10.5,62.871a1.176,1.176,0,0,0,.5,1.1,1.272,1.272,0,0,0,.6.1,1.859,1.859,0,0,0,.7-.2l10.629-8.423.3-.3L48.3,15.141l2.707,1.7L42.086,31.085a1.047,1.047,0,0,0,.4,1.5,1.425,1.425,0,0,0,.6.2,1.053,1.053,0,0,0,.9-.5l9.426-15.141A1.047,1.047,0,0,0,53.016,15.643ZM47.3,2.607l2.407,1.5L46.8,8.724l-2.407-1.5ZM21.43,53.947l-8.222,6.518,1.5-10.83L40.983,7.721l1.3.8h0L46.6,11.231h0l1.1.7Z" transform="translate(-10.48)" fill="#5c22c3"/>
        </g>
      </g>
    </g>
  </g>
</svg>
