<svg xmlns="http://www.w3.org/2000/svg" xmlns:xlink="http://www.w3.org/1999/xlink" width="136.973" height="136.973" viewBox="0 0 136.973 136.973">
  <defs>
    <clipPath id="clip-path">
      <rect id="Rectángulo_45089" data-name="Rectángulo 45089" width="61" height="61" transform="translate(0.333 0.333)" fill="none"/>
    </clipPath>
  </defs>
  <g id="Grupo_187269" data-name="Grupo 187269" transform="translate(-1082.228 -5600.567)">
    <g id="Trazado_228318" data-name="Trazado 228318" transform="translate(1082.228 5600.567)" fill="#fff">
      <path d="M 68.48631286621094 131.9726409912109 C 59.91350936889648 131.9726409912109 51.59981155395508 130.2947692871094 43.77611541748047 126.9856185913086 C 40.01535797119141 125.3949661254883 36.38774871826172 123.4259033203125 32.9940071105957 121.1331405639648 C 29.6312255859375 118.8612899780273 26.46885681152344 116.2520523071289 23.5947265625 113.3779220581055 C 20.72059631347656 110.503791809082 18.11135673522949 107.341423034668 15.83950805664062 103.9786376953125 C 13.5467472076416 100.5848999023438 11.57768249511719 96.95726776123047 9.987030029296875 93.196533203125 C 6.677877902984619 85.37283325195312 5.000008583068848 77.05912017822266 5.000008583068848 68.48631286621094 C 5.000008583068848 59.91350936889648 6.677877902984619 51.59981155395508 9.987030029296875 43.77611541748047 C 11.57768249511719 40.01535797119141 13.5467472076416 36.38774871826172 15.83950805664062 32.9940071105957 C 18.11135673522949 29.6312255859375 20.72059631347656 26.46885681152344 23.5947265625 23.5947265625 C 26.46885681152344 20.72059631347656 29.6312255859375 18.11135673522949 32.9940071105957 15.83950805664062 C 36.38774871826172 13.5467472076416 40.01535797119141 11.57768249511719 43.77611541748047 9.987030029296875 C 51.59981155395508 6.677877902984619 59.91350936889648 5.000008583068848 68.48631286621094 5.000008583068848 C 77.05912017822266 5.000008583068848 85.37283325195312 6.677877902984619 93.196533203125 9.987030029296875 C 96.95726776123047 11.57768249511719 100.5848999023438 13.5467472076416 103.9786376953125 15.83950805664062 C 107.341423034668 18.11135673522949 110.503791809082 20.72059631347656 113.3779220581055 23.5947265625 C 116.2520523071289 26.46885681152344 118.8612899780273 29.6312255859375 121.1331405639648 32.9940071105957 C 123.4259033203125 36.38774871826172 125.3949661254883 40.01535797119141 126.9856185913086 43.77611541748047 C 130.2947692871094 51.59981155395508 131.9726409912109 59.91350936889648 131.9726409912109 68.48631286621094 C 131.9726409912109 77.05912017822266 130.2947692871094 85.37283325195312 126.9856185913086 93.196533203125 C 125.3949661254883 96.95726776123047 123.4259033203125 100.5848999023438 121.1331405639648 103.9786376953125 C 118.8612899780273 107.341423034668 116.2520523071289 110.503791809082 113.3779220581055 113.3779220581055 C 110.503791809082 116.2520523071289 107.341423034668 118.8612899780273 103.9786376953125 121.1331405639648 C 100.5848999023438 123.4259033203125 96.95726776123047 125.3949661254883 93.196533203125 126.9856185913086 C 85.37283325195312 130.2947692871094 77.05912017822266 131.9726409912109 68.48631286621094 131.9726409912109 Z" stroke="none"/>
      <path d="M 68.48631286621094 10.00000762939453 C 36.23686981201172 10.00000762939453 10.00000762939453 36.23686981201172 10.00000762939453 68.48631286621094 C 10.00000762939453 100.7357559204102 36.23686981201172 126.9726181030273 68.48631286621094 126.9726181030273 C 100.7357559204102 126.9726181030273 126.9726181030273 100.7357559204102 126.9726181030273 68.48631286621094 C 126.9726181030273 36.23686981201172 100.7357559204102 10.00000762939453 68.48631286621094 10.00000762939453 M 68.48631286621094 0 C 106.3102569580078 0 136.9726257324219 30.66236877441406 136.9726257324219 68.48631286621094 C 136.9726257324219 106.3102569580078 106.3102569580078 136.9726257324219 68.48631286621094 136.9726257324219 C 30.66236877441406 136.9726257324219 0 106.3102569580078 0 68.48631286621094 C 0 30.66236877441406 30.66236877441406 0 68.48631286621094 0 Z" stroke="none" fill="#5c22c3"/>
    </g>
    <g id="Grupo_180429" data-name="Grupo 180429" transform="translate(1119.667 5638.667)">
      <g id="Grupo_180428" data-name="Grupo 180428" clip-path="url(#clip-path)">
        <path id="Trazado_241273" data-name="Trazado 241273" d="M16.971,46.966H7.987A7.5,7.5,0,0,1,.5,39.479V30.495a2.995,2.995,0,0,1,5.99,0v8.984a1.5,1.5,0,0,0,1.5,1.5h8.984a2.995,2.995,0,1,1,0,5.99" transform="translate(0.249 13.678)" fill="#d677e6"/>
        <path id="Trazado_241274" data-name="Trazado 241274" d="M17.22,47.963H8.236A8.245,8.245,0,0,1,0,39.728V30.743a3.743,3.743,0,0,1,7.487,0v8.984a.75.75,0,0,0,.749.749H17.22a3.743,3.743,0,0,1,0,7.487M3.743,28.5A2.249,2.249,0,0,0,1.5,30.743v8.984a6.746,6.746,0,0,0,6.738,6.738H17.22a2.246,2.246,0,1,0,0-4.492H8.236A2.249,2.249,0,0,1,5.99,39.728V30.743A2.249,2.249,0,0,0,3.743,28.5" transform="translate(0 13.429)" fill="#5127bd"/>
        <path id="Trazado_241275" data-name="Trazado 241275" d="M39.479,46.966H30.495a2.995,2.995,0,0,1,0-5.99h8.984a1.5,1.5,0,0,0,1.5-1.5V30.495a2.995,2.995,0,0,1,5.99,0v8.984a7.5,7.5,0,0,1-7.487,7.487" transform="translate(13.678 13.678)" fill="#d677e6"/>
        <path id="Trazado_241276" data-name="Trazado 241276" d="M39.728,47.963H30.743a3.743,3.743,0,0,1,0-7.487h8.984a.75.75,0,0,0,.749-.749V30.743a3.743,3.743,0,0,1,7.487,0v8.984a8.245,8.245,0,0,1-8.236,8.236m-8.984-5.99a2.246,2.246,0,0,0,0,4.492h8.984a6.746,6.746,0,0,0,6.738-6.738V30.743a2.246,2.246,0,0,0-4.492,0v8.984a2.249,2.249,0,0,1-2.246,2.246Z" transform="translate(13.429 13.429)" fill="#5127bd"/>
        <path id="Trazado_241277" data-name="Trazado 241277" d="M43.971,19.966a3,3,0,0,1-2.995-2.995V7.987a1.5,1.5,0,0,0-1.5-1.5H30.495a2.995,2.995,0,0,1,0-5.99h8.984a7.5,7.5,0,0,1,7.487,7.487v8.984a3,3,0,0,1-2.995,2.995" transform="translate(13.678 0.249)" fill="#d677e6"/>
        <path id="Trazado_241278" data-name="Trazado 241278" d="M44.22,20.963a3.748,3.748,0,0,1-3.743-3.743V8.236a.75.75,0,0,0-.749-.749H30.743a3.743,3.743,0,0,1,0-7.487h8.984a8.245,8.245,0,0,1,8.236,8.236V17.22a3.748,3.748,0,0,1-3.743,3.743M30.743,1.5a2.246,2.246,0,0,0,0,4.492h8.984a2.249,2.249,0,0,1,2.246,2.246V17.22a2.246,2.246,0,1,0,4.492,0V8.236A6.746,6.746,0,0,0,39.728,1.5Z" transform="translate(13.429)" fill="#5127bd"/>
        <path id="Trazado_241279" data-name="Trazado 241279" d="M3.495,19.966A3,3,0,0,1,.5,16.971V7.987A7.5,7.5,0,0,1,7.987.5h8.984a2.995,2.995,0,1,1,0,5.99H7.987a1.5,1.5,0,0,0-1.5,1.5v8.984a3,3,0,0,1-2.995,2.995" transform="translate(0.249 0.249)" fill="#d677e6"/>
        <path id="Trazado_241280" data-name="Trazado 241280" d="M3.743,20.963A3.748,3.748,0,0,1,0,17.22V8.236A8.245,8.245,0,0,1,8.236,0H17.22a3.743,3.743,0,0,1,0,7.487H8.236a.75.75,0,0,0-.749.749V17.22a3.748,3.748,0,0,1-3.743,3.743M8.236,1.5A6.746,6.746,0,0,0,1.5,8.236V17.22a2.246,2.246,0,1,0,4.492,0V8.236A2.249,2.249,0,0,1,8.236,5.99H17.22a2.246,2.246,0,1,0,0-4.492Z" fill="#5127bd"/>
        <path id="Trazado_241281" data-name="Trazado 241281" d="M35.458,9.5H14.495a2.995,2.995,0,1,0,0,5.99h7.487V42.442a2.995,2.995,0,1,0,5.99,0V15.49h7.487a2.995,2.995,0,1,0,0-5.99" transform="translate(5.72 4.725)" fill="#f1dff3"/>
        <path id="Trazado_241282" data-name="Trazado 241282" d="M25.225,46.435a3.748,3.748,0,0,1-3.743-3.743v-26.2H14.743a3.743,3.743,0,0,1,0-7.487H35.707a3.743,3.743,0,0,1,0,7.487H28.969v26.2a3.748,3.748,0,0,1-3.743,3.743M14.743,10.5a2.246,2.246,0,0,0,0,4.492h8.236v27.7a2.246,2.246,0,1,0,4.492,0V14.99h8.236a2.246,2.246,0,1,0,0-4.492Z" transform="translate(5.471 4.476)" fill="#5127bd"/>
      </g>
    </g>
  </g>
</svg>
