<svg xmlns="http://www.w3.org/2000/svg" xmlns:xlink="http://www.w3.org/1999/xlink" width="136.973" height="136.973" viewBox="0 0 136.973 136.973">
  <defs>
    <clipPath id="clip-path">
      <rect id="Rect치ngulo_45091" data-name="Rect치ngulo 45091" width="65" height="65" fill="#5c22c3"/>
    </clipPath>
  </defs>
  <g id="Grupo_187271" data-name="Grupo 187271" transform="translate(6264.772 5937.433)">
    <g id="Trazado_241002" data-name="Trazado 241002" transform="translate(-6264.772 -5937.433)" fill="#fff">
      <path d="M 68.48631286621094 131.9726409912109 C 59.91350936889648 131.9726409912109 51.59981155395508 130.2947692871094 43.77611541748047 126.9856185913086 C 40.01535797119141 125.3949661254883 36.38774871826172 123.4259033203125 32.9940071105957 121.1331405639648 C 29.6312255859375 118.8612899780273 26.46885681152344 116.2520523071289 23.5947265625 113.3779220581055 C 20.72059631347656 110.503791809082 18.11135673522949 107.341423034668 15.83950805664062 103.9786376953125 C 13.5467472076416 100.5848999023438 11.57768249511719 96.95726776123047 9.987030029296875 93.196533203125 C 6.677877902984619 85.37283325195312 5.000008583068848 77.05912017822266 5.000008583068848 68.48631286621094 C 5.000008583068848 59.91350936889648 6.677877902984619 51.59981155395508 9.987030029296875 43.77611541748047 C 11.57768249511719 40.01535797119141 13.5467472076416 36.38774871826172 15.83950805664062 32.9940071105957 C 18.11135673522949 29.6312255859375 20.72059631347656 26.46885681152344 23.5947265625 23.5947265625 C 26.46885681152344 20.72059631347656 29.6312255859375 18.11135673522949 32.9940071105957 15.83950805664062 C 36.38774871826172 13.5467472076416 40.01535797119141 11.57768249511719 43.77611541748047 9.987030029296875 C 51.59981155395508 6.677877902984619 59.91350936889648 5.000008583068848 68.48631286621094 5.000008583068848 C 77.05912017822266 5.000008583068848 85.37283325195312 6.677877902984619 93.196533203125 9.987030029296875 C 96.95726776123047 11.57768249511719 100.5848999023438 13.5467472076416 103.9786376953125 15.83950805664062 C 107.341423034668 18.11135673522949 110.503791809082 20.72059631347656 113.3779220581055 23.5947265625 C 116.2520523071289 26.46885681152344 118.8612899780273 29.6312255859375 121.1331405639648 32.9940071105957 C 123.4259033203125 36.38774871826172 125.3949661254883 40.01535797119141 126.9856185913086 43.77611541748047 C 130.2947692871094 51.59981155395508 131.9726409912109 59.91350936889648 131.9726409912109 68.48631286621094 C 131.9726409912109 77.05912017822266 130.2947692871094 85.37283325195312 126.9856185913086 93.196533203125 C 125.3949661254883 96.95726776123047 123.4259033203125 100.5848999023438 121.1331405639648 103.9786376953125 C 118.8612899780273 107.341423034668 116.2520523071289 110.503791809082 113.3779220581055 113.3779220581055 C 110.503791809082 116.2520523071289 107.341423034668 118.8612899780273 103.9786376953125 121.1331405639648 C 100.5848999023438 123.4259033203125 96.95726776123047 125.3949661254883 93.196533203125 126.9856185913086 C 85.37283325195312 130.2947692871094 77.05912017822266 131.9726409912109 68.48631286621094 131.9726409912109 Z" stroke="none"/>
      <path d="M 68.48631286621094 10.00000762939453 C 36.23686981201172 10.00000762939453 10.00000762939453 36.23686981201172 10.00000762939453 68.48631286621094 C 10.00000762939453 100.7357559204102 36.23686981201172 126.9726181030273 68.48631286621094 126.9726181030273 C 100.7357559204102 126.9726181030273 126.9726181030273 100.7357559204102 126.9726181030273 68.48631286621094 C 126.9726181030273 36.23686981201172 100.7357559204102 10.00000762939453 68.48631286621094 10.00000762939453 M 68.48631286621094 0 C 106.3102569580078 0 136.9726257324219 30.66236877441406 136.9726257324219 68.48631286621094 C 136.9726257324219 106.3102569580078 106.3102569580078 136.9726257324219 68.48631286621094 136.9726257324219 C 30.66236877441406 136.9726257324219 0 106.3102569580078 0 68.48631286621094 C 0 30.66236877441406 30.66236877441406 0 68.48631286621094 0 Z" stroke="none" fill="#5c22c3"/>
    </g>
    <g id="Grupo_180442" data-name="Grupo 180442" transform="translate(-50 159)">
      <rect id="Rect치ngulo_45092" data-name="Rect치ngulo 45092" width="21" height="21" transform="translate(-6157 -6038)" fill="#ba68c8"/>
      <g id="Grupo_180441" data-name="Grupo 180441" transform="translate(-6179 -6060)">
        <g id="Grupo_180440" data-name="Grupo 180440" clip-path="url(#clip-path)">
          <path id="Trazado_241292" data-name="Trazado 241292" d="M59.378,0H5.622A5.629,5.629,0,0,0,0,5.622V59.378A5.629,5.629,0,0,0,5.622,65H59.378A5.628,5.628,0,0,0,65,59.378V5.622A5.628,5.628,0,0,0,59.378,0M22.838,22.838H42.162V42.162H22.838ZM42.162,63.243H22.838V43.919H42.162ZM1.757,22.838H21.081V42.162H1.757ZM22.838,1.757H42.162V21.081H22.838ZM43.919,22.838H63.243V42.162H43.919ZM63.243,5.622V21.081H43.919V1.757H59.378a3.869,3.869,0,0,1,3.865,3.865M5.622,1.757H21.081V21.081H1.757V5.622A3.869,3.869,0,0,1,5.622,1.757M1.757,59.378V43.919H21.081V63.243H5.622a3.869,3.869,0,0,1-3.865-3.865m57.622,3.865H43.919V43.919H63.243V59.378a3.869,3.869,0,0,1-3.865,3.865" transform="translate(0 0)" fill="#5c22c3"/>
        </g>
      </g>
    </g>
  </g>
</svg>
