<svg xmlns="http://www.w3.org/2000/svg" width="136.973" height="136.973" viewBox="0 0 136.973 136.973">
  <g id="Grupo_187272" data-name="Grupo 187272" transform="translate(5914.772 5937.433)">
    <g id="Trazado_241003" data-name="Trazado 241003" transform="translate(-5914.772 -5937.433)" fill="#fff">
      <path d="M 68.48631286621094 131.9726409912109 C 59.91350936889648 131.9726409912109 51.59981155395508 130.2947692871094 43.77611541748047 126.9856185913086 C 40.01535797119141 125.3949661254883 36.38774871826172 123.4259033203125 32.9940071105957 121.1331405639648 C 29.6312255859375 118.8612899780273 26.46885681152344 116.2520523071289 23.5947265625 113.3779220581055 C 20.72059631347656 110.503791809082 18.11135673522949 107.341423034668 15.83950805664062 103.9786376953125 C 13.5467472076416 100.5848999023438 11.57768249511719 96.95726776123047 9.987030029296875 93.196533203125 C 6.677877902984619 85.37283325195312 5.000008583068848 77.05912017822266 5.000008583068848 68.48631286621094 C 5.000008583068848 59.91350936889648 6.677877902984619 51.59981155395508 9.987030029296875 43.77611541748047 C 11.57768249511719 40.01535797119141 13.5467472076416 36.38774871826172 15.83950805664062 32.9940071105957 C 18.11135673522949 29.6312255859375 20.72059631347656 26.46885681152344 23.5947265625 23.5947265625 C 26.46885681152344 20.72059631347656 29.6312255859375 18.11135673522949 32.9940071105957 15.83950805664062 C 36.38774871826172 13.5467472076416 40.01535797119141 11.57768249511719 43.77611541748047 9.987030029296875 C 51.59981155395508 6.677877902984619 59.91350936889648 5.000008583068848 68.48631286621094 5.000008583068848 C 77.05912017822266 5.000008583068848 85.37283325195312 6.677877902984619 93.196533203125 9.987030029296875 C 96.95726776123047 11.57768249511719 100.5848999023438 13.5467472076416 103.9786376953125 15.83950805664062 C 107.341423034668 18.11135673522949 110.503791809082 20.72059631347656 113.3779220581055 23.5947265625 C 116.2520523071289 26.46885681152344 118.8612899780273 29.6312255859375 121.1331405639648 32.9940071105957 C 123.4259033203125 36.38774871826172 125.3949661254883 40.01535797119141 126.9856185913086 43.77611541748047 C 130.2947692871094 51.59981155395508 131.9726409912109 59.91350936889648 131.9726409912109 68.48631286621094 C 131.9726409912109 77.05912017822266 130.2947692871094 85.37283325195312 126.9856185913086 93.196533203125 C 125.3949661254883 96.95726776123047 123.4259033203125 100.5848999023438 121.1331405639648 103.9786376953125 C 118.8612899780273 107.341423034668 116.2520523071289 110.503791809082 113.3779220581055 113.3779220581055 C 110.503791809082 116.2520523071289 107.341423034668 118.8612899780273 103.9786376953125 121.1331405639648 C 100.5848999023438 123.4259033203125 96.95726776123047 125.3949661254883 93.196533203125 126.9856185913086 C 85.37283325195312 130.2947692871094 77.05912017822266 131.9726409912109 68.48631286621094 131.9726409912109 Z" stroke="none"/>
      <path d="M 68.48631286621094 10.00000762939453 C 36.23686981201172 10.00000762939453 10.00000762939453 36.23686981201172 10.00000762939453 68.48631286621094 C 10.00000762939453 100.7357559204102 36.23686981201172 126.9726181030273 68.48631286621094 126.9726181030273 C 100.7357559204102 126.9726181030273 126.9726181030273 100.7357559204102 126.9726181030273 68.48631286621094 C 126.9726181030273 36.23686981201172 100.7357559204102 10.00000762939453 68.48631286621094 10.00000762939453 M 68.48631286621094 0 C 106.3102569580078 0 136.9726257324219 30.66236877441406 136.9726257324219 68.48631286621094 C 136.9726257324219 106.3102569580078 106.3102569580078 136.9726257324219 68.48631286621094 136.9726257324219 C 30.66236877441406 136.9726257324219 0 106.3102569580078 0 68.48631286621094 C 0 30.66236877441406 30.66236877441406 0 68.48631286621094 0 Z" stroke="none" fill="#5c22c3"/>
    </g>
    <g id="Grupo_180445" data-name="Grupo 180445" transform="translate(-5876.463 -5899.983)">
      <g id="Grupo_180444" data-name="Grupo 180444" transform="translate(1.13 1.975)">
        <rect id="Rectángulo_45093" data-name="Rectángulo 45093" width="6.926" height="6.828" transform="translate(5.36 50.378)" fill="#fff"/>
        <rect id="Rectángulo_45094" data-name="Rectángulo 45094" width="6.926" height="13.411" transform="translate(17.865 43.782)" fill="#ba68c8"/>
        <rect id="Rectángulo_45095" data-name="Rectángulo 45095" width="6.926" height="25.452" transform="translate(30.383 31.754)" fill="#fff"/>
        <rect id="Rectángulo_45096" data-name="Rectángulo 45096" width="6.926" height="35.364" transform="translate(42.889 21.83)" fill="#e5c7eb"/>
        <rect id="Rectángulo_45097" data-name="Rectángulo 45097" width="6.339" height="10.12" transform="translate(5.653 29.086)" fill="#fff"/>
        <rect id="Rectángulo_45098" data-name="Rectángulo 45098" width="6.339" height="10.12" transform="translate(18.159 23.262)" fill="#ba68c8"/>
        <rect id="Rectángulo_45099" data-name="Rectángulo 45099" width="6.339" height="10.12" transform="translate(30.383 13.583)" fill="#fff"/>
        <rect id="Rectángulo_45100" data-name="Rectángulo 45100" width="6.339" height="10.12" transform="translate(43.183 3.255)" fill="#e5c7eb"/>
        <g id="Grupo_180443" data-name="Grupo 180443">
          <path id="Trazado_241294" data-name="Trazado 241294" d="M58.336,57.668H51.948V23.21a.924.924,0,0,0-.918-.918H44.1a.924.924,0,0,0-.918.918V57.656H39.443V33.134a.924.924,0,0,0-.918-.918H31.6a.924.924,0,0,0-.918.918V57.668H26.937V45.162a.924.924,0,0,0-.918-.918H19.093a.924.924,0,0,0-.918.918V57.656H14.431v-5.91a.924.924,0,0,0-.918-.918H6.575a.924.924,0,0,0-.918.918v5.91H2.965V2.3a.918.918,0,0,0-1.835,0V58.586a.924.924,0,0,0,.918.918H58.336a.918.918,0,1,0,0-1.835Zm-50.843,0V52.675h5.09v4.992H7.493Zm12.518,0V46.092H25.1V57.668Zm12.506,0V34.051h5.09V57.668Zm12.506,0V24.14h5.09V57.668Z" transform="translate(-1.13 -1.38)" fill="#5c22c3"/>
          <path id="Trazado_241295" data-name="Trazado 241295" d="M5.988,36.794H8.239v1.432a.918.918,0,0,0,1.835,0V36.794h2.252a.924.924,0,0,0,.918-.918V25.757a.924.924,0,0,0-.918-.918H10.075V23.408a.918.918,0,1,0-1.835,0v1.432H5.988a.924.924,0,0,0-.918.918v10.12A.924.924,0,0,0,5.988,36.794Zm.918-10.132h4.5v8.284h-4.5Z" transform="translate(-0.249 3.341)" fill="#5c22c3"/>
          <path id="Trazado_241296" data-name="Trazado 241296" d="M16.218,32.034h2.252v1.432a.918.918,0,1,0,1.835,0V32.034h2.252a.924.924,0,0,0,.918-.918V21a.924.924,0,0,0-.918-.918H20.3V18.648a.918.918,0,1,0-1.835,0v1.432H16.218A.924.924,0,0,0,15.3,21v10.12A.917.917,0,0,0,16.218,32.034Zm.918-10.12h4.5V30.2h-4.5Z" transform="translate(2.039 2.277)" fill="#5c22c3"/>
          <path id="Trazado_241297" data-name="Trazado 241297" d="M26.2,24.114h2.252v1.432a.918.918,0,1,0,1.835,0V24.114h2.252a.924.924,0,0,0,.918-.918V13.077a.924.924,0,0,0-.918-.918H30.285V10.728a.918.918,0,1,0-1.835,0v1.432H26.2a.924.924,0,0,0-.918.918V23.2A.909.909,0,0,0,26.2,24.114Zm.918-10.12h4.5v8.284h-4.5Z" transform="translate(4.271 0.505)" fill="#5c22c3"/>
          <path id="Trazado_241298" data-name="Trazado 241298" d="M36.658,15.684h2.252v1.432a.918.918,0,0,0,1.835,0V15.684H43a.924.924,0,0,0,.918-.918V4.635A.924.924,0,0,0,43,3.717H40.745V2.3a.918.918,0,0,0-1.835,0V3.729H36.658a.924.924,0,0,0-.918.918v10.12A.916.916,0,0,0,36.658,15.684Zm.918-10.132h4.5v8.284h-4.5Z" transform="translate(6.611 -1.38)" fill="#5c22c3"/>
        </g>
      </g>
    </g>
  </g>
</svg>
