<svg xmlns="http://www.w3.org/2000/svg" width="136.973" height="136.973" viewBox="0 0 136.973 136.973">
  <g id="Grupo_187275" data-name="Grupo 187275" transform="translate(4868 5937)">
    <g id="Trazado_241006" data-name="Trazado 241006" transform="translate(-4868 -5937)" fill="#fff">
      <path d="M 68.48631286621094 131.9726409912109 C 59.91350936889648 131.9726409912109 51.59981155395508 130.2947692871094 43.77611541748047 126.9856185913086 C 40.01535797119141 125.3949661254883 36.38774871826172 123.4259033203125 32.9940071105957 121.1331405639648 C 29.6312255859375 118.8612899780273 26.46885681152344 116.2520523071289 23.5947265625 113.3779220581055 C 20.72059631347656 110.503791809082 18.11135673522949 107.341423034668 15.83950805664062 103.9786376953125 C 13.5467472076416 100.5848999023438 11.57768249511719 96.95726776123047 9.987030029296875 93.196533203125 C 6.677877902984619 85.37283325195312 5.000008583068848 77.05912017822266 5.000008583068848 68.48631286621094 C 5.000008583068848 59.91350936889648 6.677877902984619 51.59981155395508 9.987030029296875 43.77611541748047 C 11.57768249511719 40.01535797119141 13.5467472076416 36.38774871826172 15.83950805664062 32.9940071105957 C 18.11135673522949 29.6312255859375 20.72059631347656 26.46885681152344 23.5947265625 23.5947265625 C 26.46885681152344 20.72059631347656 29.6312255859375 18.11135673522949 32.9940071105957 15.83950805664062 C 36.38774871826172 13.5467472076416 40.01535797119141 11.57768249511719 43.77611541748047 9.987030029296875 C 51.59981155395508 6.677877902984619 59.91350936889648 5.000008583068848 68.48631286621094 5.000008583068848 C 77.05912017822266 5.000008583068848 85.37283325195312 6.677877902984619 93.196533203125 9.987030029296875 C 96.95726776123047 11.57768249511719 100.5848999023438 13.5467472076416 103.9786376953125 15.83950805664062 C 107.341423034668 18.11135673522949 110.503791809082 20.72059631347656 113.3779220581055 23.5947265625 C 116.2520523071289 26.46885681152344 118.8612899780273 29.6312255859375 121.1331405639648 32.9940071105957 C 123.4259033203125 36.38774871826172 125.3949661254883 40.01535797119141 126.9856185913086 43.77611541748047 C 130.2947692871094 51.59981155395508 131.9726409912109 59.91350936889648 131.9726409912109 68.48631286621094 C 131.9726409912109 77.05912017822266 130.2947692871094 85.37283325195312 126.9856185913086 93.196533203125 C 125.3949661254883 96.95726776123047 123.4259033203125 100.5848999023438 121.1331405639648 103.9786376953125 C 118.8612899780273 107.341423034668 116.2520523071289 110.503791809082 113.3779220581055 113.3779220581055 C 110.503791809082 116.2520523071289 107.341423034668 118.8612899780273 103.9786376953125 121.1331405639648 C 100.5848999023438 123.4259033203125 96.95726776123047 125.3949661254883 93.196533203125 126.9856185913086 C 85.37283325195312 130.2947692871094 77.05912017822266 131.9726409912109 68.48631286621094 131.9726409912109 Z" stroke="none"/>
      <path d="M 68.48631286621094 10.00000762939453 C 36.23686981201172 10.00000762939453 10.00000762939453 36.23686981201172 10.00000762939453 68.48631286621094 C 10.00000762939453 100.7357559204102 36.23686981201172 126.9726181030273 68.48631286621094 126.9726181030273 C 100.7357559204102 126.9726181030273 126.9726181030273 100.7357559204102 126.9726181030273 68.48631286621094 C 126.9726181030273 36.23686981201172 100.7357559204102 10.00000762939453 68.48631286621094 10.00000762939453 M 68.48631286621094 0 C 106.3102569580078 0 136.9726257324219 30.66236877441406 136.9726257324219 68.48631286621094 C 136.9726257324219 106.3102569580078 106.3102569580078 136.9726257324219 68.48631286621094 136.9726257324219 C 30.66236877441406 136.9726257324219 0 106.3102569580078 0 68.48631286621094 C 0 30.66236877441406 30.66236877441406 0 68.48631286621094 0 Z" stroke="none" fill="#5c22c3"/>
    </g>
    <g id="Grupo_180454" data-name="Grupo 180454" transform="translate(-4832 -5917.092)">
      <g id="Grupo_180447" data-name="Grupo 180447" transform="translate(1 75.318)">
        <path id="Trazado_241311" data-name="Trazado 241311" d="M62.613,479.346H1.948a.948.948,0,0,1,0-1.9H62.614a.948.948,0,1,1,0,1.9Z" transform="translate(-1 -477.45)" fill="#5c22c3"/>
      </g>
      <g id="Grupo_180448" data-name="Grupo 180448" transform="translate(6.2 20.534)">
        <path id="Trazado_241312" data-name="Trazado 241312" d="M44.339,68.073a.948.948,0,0,1-.584-1.7l45.2-35.334a.948.948,0,0,1,1.168,1.494l-45.2,35.334A.942.942,0,0,1,44.339,68.073Z" transform="translate(-43.391 -30.844)" fill="#ba68c8"/>
      </g>
      <g id="Grupo_180449" data-name="Grupo 180449" transform="translate(39.321 19.092)">
        <path id="Trazado_241313" data-name="Trazado 241313" d="M324.98,34.488c-.037,0-.076,0-.114-.006a.948.948,0,0,1-.828-1.055l1.333-11.111-11.142-1.333a.948.948,0,1,1,.227-1.883l12.084,1.446a.949.949,0,0,1,.828,1.055l-1.446,12.053A.95.95,0,0,1,324.98,34.488Z" transform="translate(-313.394 -19.092)" fill="#ba68c8"/>
      </g>
      <g id="Grupo_180450" data-name="Grupo 180450" transform="translate(52.452 33.385)">
        <rect id="Rectángulo_45107" data-name="Rectángulo 45107" width="5.331" height="41.934" transform="translate(0.948 0.948)" fill="#e5c7eb"/>
        <path id="Trazado_241314" data-name="Trazado 241314" d="M426.718,179.44h-5.33a.948.948,0,0,1-.948-.948V136.558a.948.948,0,0,1,.948-.948h5.33a.948.948,0,0,1,.948.948v41.933A.947.947,0,0,1,426.718,179.44Zm-4.382-1.9h3.435V137.506h-3.435Z" transform="translate(-420.44 -135.61)" fill="#5c22c3"/>
      </g>
      <g id="Grupo_180451" data-name="Grupo 180451" transform="translate(39.11 40.994)">
        <rect id="Rectángulo_45108" data-name="Rectángulo 45108" width="5.331" height="34.325" transform="translate(0.948 0.948)" fill="#e5c7eb"/>
        <path id="Trazado_241315" data-name="Trazado 241315" d="M317.949,233.86h-5.331a.948.948,0,0,1-.948-.948V198.588a.948.948,0,0,1,.948-.948h5.331a.948.948,0,0,1,.948.948v34.324A.948.948,0,0,1,317.949,233.86Zm-4.383-1.9H317V199.536h-3.435Z" transform="translate(-311.67 -197.64)" fill="#5c22c3"/>
      </g>
      <g id="Grupo_180452" data-name="Grupo 180452" transform="translate(25.767 50.63)">
        <rect id="Rectángulo_45109" data-name="Rectángulo 45109" width="5.331" height="24.69" transform="translate(0.948 0.948)" fill="#e5c7eb"/>
        <path id="Trazado_241316" data-name="Trazado 241316" d="M209.179,302.775h-5.331a.948.948,0,0,1-.948-.948V277.138a.948.948,0,0,1,.948-.948h5.331a.948.948,0,0,1,.948.948v24.688A.948.948,0,0,1,209.179,302.775Zm-4.383-1.9h3.435V278.086H204.8Z" transform="translate(-202.9 -276.19)" fill="#5c22c3"/>
      </g>
      <g id="Grupo_180453" data-name="Grupo 180453" transform="translate(12.425 61.143)">
        <rect id="Rectángulo_45110" data-name="Rectángulo 45110" width="5.639" height="14.177" transform="translate(0.948 0.948)" fill="#e5c7eb"/>
        <path id="Trazado_241317" data-name="Trazado 241317" d="M100.727,377.962H95.088a.948.948,0,0,1-.948-.948V362.838a.948.948,0,0,1,.948-.948h5.639a.948.948,0,0,1,.948.948v14.176A.95.95,0,0,1,100.727,377.962Zm-4.692-1.9h3.744v-12.28H96.035Z" transform="translate(-94.14 -361.89)" fill="#5c22c3"/>
      </g>
    </g>
  </g>
</svg>
