<svg xmlns="http://www.w3.org/2000/svg" width="136.973" height="136.973" viewBox="0 0 136.973 136.973">
  <g id="Grupo_187270" data-name="Grupo 187270" transform="translate(6611.772 5937.433)">
    <g id="Trazado_241001" data-name="Trazado 241001" transform="translate(-6611.772 -5937.433)" fill="#fff">
      <path d="M 68.48631286621094 131.9726409912109 C 59.91350936889648 131.9726409912109 51.59981155395508 130.2947692871094 43.77611541748047 126.9856185913086 C 40.01535797119141 125.3949661254883 36.38774871826172 123.4259033203125 32.9940071105957 121.1331405639648 C 29.6312255859375 118.8612899780273 26.46885681152344 116.2520523071289 23.5947265625 113.3779220581055 C 20.72059631347656 110.503791809082 18.11135673522949 107.341423034668 15.83950805664062 103.9786376953125 C 13.5467472076416 100.5848999023438 11.57768249511719 96.95726776123047 9.987030029296875 93.196533203125 C 6.677877902984619 85.37283325195312 5.000008583068848 77.05912017822266 5.000008583068848 68.48631286621094 C 5.000008583068848 59.91350936889648 6.677877902984619 51.59981155395508 9.987030029296875 43.77611541748047 C 11.57768249511719 40.01535797119141 13.5467472076416 36.38774871826172 15.83950805664062 32.9940071105957 C 18.11135673522949 29.6312255859375 20.72059631347656 26.46885681152344 23.5947265625 23.5947265625 C 26.46885681152344 20.72059631347656 29.6312255859375 18.11135673522949 32.9940071105957 15.83950805664062 C 36.38774871826172 13.5467472076416 40.01535797119141 11.57768249511719 43.77611541748047 9.987030029296875 C 51.59981155395508 6.677877902984619 59.91350936889648 5.000008583068848 68.48631286621094 5.000008583068848 C 77.05912017822266 5.000008583068848 85.37283325195312 6.677877902984619 93.196533203125 9.987030029296875 C 96.95726776123047 11.57768249511719 100.5848999023438 13.5467472076416 103.9786376953125 15.83950805664062 C 107.341423034668 18.11135673522949 110.503791809082 20.72059631347656 113.3779220581055 23.5947265625 C 116.2520523071289 26.46885681152344 118.8612899780273 29.6312255859375 121.1331405639648 32.9940071105957 C 123.4259033203125 36.38774871826172 125.3949661254883 40.01535797119141 126.9856185913086 43.77611541748047 C 130.2947692871094 51.59981155395508 131.9726409912109 59.91350936889648 131.9726409912109 68.48631286621094 C 131.9726409912109 77.05912017822266 130.2947692871094 85.37283325195312 126.9856185913086 93.196533203125 C 125.3949661254883 96.95726776123047 123.4259033203125 100.5848999023438 121.1331405639648 103.9786376953125 C 118.8612899780273 107.341423034668 116.2520523071289 110.503791809082 113.3779220581055 113.3779220581055 C 110.503791809082 116.2520523071289 107.341423034668 118.8612899780273 103.9786376953125 121.1331405639648 C 100.5848999023438 123.4259033203125 96.95726776123047 125.3949661254883 93.196533203125 126.9856185913086 C 85.37283325195312 130.2947692871094 77.05912017822266 131.9726409912109 68.48631286621094 131.9726409912109 Z" stroke="none"/>
      <path d="M 68.48631286621094 10.00000762939453 C 36.23686981201172 10.00000762939453 10.00000762939453 36.23686981201172 10.00000762939453 68.48631286621094 C 10.00000762939453 100.7357559204102 36.23686981201172 126.9726181030273 68.48631286621094 126.9726181030273 C 100.7357559204102 126.9726181030273 126.9726181030273 100.7357559204102 126.9726181030273 68.48631286621094 C 126.9726181030273 36.23686981201172 100.7357559204102 10.00000762939453 68.48631286621094 10.00000762939453 M 68.48631286621094 0 C 106.3102569580078 0 136.9726257324219 30.66236877441406 136.9726257324219 68.48631286621094 C 136.9726257324219 106.3102569580078 106.3102569580078 136.9726257324219 68.48631286621094 136.9726257324219 C 30.66236877441406 136.9726257324219 0 106.3102569580078 0 68.48631286621094 C 0 30.66236877441406 30.66236877441406 0 68.48631286621094 0 Z" stroke="none" fill="#5c22c3"/>
    </g>
    <g id="Grupo_180439" data-name="Grupo 180439" transform="translate(-6587.417 -5904.892)">
      <g id="Grupo_180434" data-name="Grupo 180434" transform="translate(20.099 14.934)">
        <path id="Trazado_241285" data-name="Trazado 241285" d="M104.52,134.233l28.245,28.653a4.66,4.66,0,0,0,6.59,0l17.5-17.5a4.66,4.66,0,0,0,0-6.59l-27.906-27.9-20.648-.48a3.693,3.693,0,0,0-3.778,3.692Z" transform="translate(-103.461 -109.353)" fill="#ba68c8"/>
        <path id="Trazado_241286" data-name="Trazado 241286" d="M129.39,158.637a5.684,5.684,0,0,1-4.044-1.675L97.1,128.3a1.06,1.06,0,0,1-.306-.744V107.432a4.718,4.718,0,0,1,1.431-3.4,4.653,4.653,0,0,1,3.43-1.351l20.648.48a1.057,1.057,0,0,1,.724.31l27.906,27.906a5.72,5.72,0,0,1,0,8.088l-17.495,17.5A5.684,5.684,0,0,1,129.39,158.637ZM98.909,127.125l27.939,28.343a3.6,3.6,0,0,0,5.088-.005l17.5-17.5a3.6,3.6,0,0,0,0-5.093l-27.6-27.6L101.6,104.8a2.673,2.673,0,0,0-1.9.75,2.609,2.609,0,0,0-.793,1.884Z" transform="translate(-96.79 -102.679)" fill="#5c22c3"/>
      </g>
      <g id="Grupo_180435" data-name="Grupo 180435" transform="translate(26.348 21.097)">
        <circle id="Elipse_4928" data-name="Elipse 4928" cx="5.434" cy="5.434" r="5.434" transform="translate(1.058 1.059)" fill="#eaf3f2"/>
        <path id="Trazado_241287" data-name="Trazado 241287" d="M148.882,160.635a6.492,6.492,0,1,1,6.492-6.492A6.5,6.5,0,0,1,148.882,160.635Zm0-10.868a4.374,4.374,0,1,0,4.374,4.374A4.38,4.38,0,0,0,148.882,149.767Z" transform="translate(-142.39 -147.65)" fill="#5c22c3"/>
      </g>
      <g id="Grupo_180436" data-name="Grupo 180436" transform="translate(7.92 1)">
        <path id="Trazado_241288" data-name="Trazado 241288" d="M21,32.631a1.156,1.156,0,0,1-.2-.019A16.4,16.4,0,0,1,7.92,16.933C7.92,8.147,14.51,1,22.61,1S37.3,8.147,37.3,16.931a16.108,16.108,0,0,1-8.589,14.5,1.059,1.059,0,1,1-.941-1.9,13.976,13.976,0,0,0,7.411-12.6c0-7.617-5.639-13.814-12.571-13.814s-12.571,6.2-12.571,13.814a14.239,14.239,0,0,0,11.168,13.6,1.059,1.059,0,0,1-.2,2.1Z" transform="translate(-7.92 -1)" fill="#5c22c3"/>
      </g>
      <g id="Grupo_180437" data-name="Grupo 180437" transform="translate(7.92 1)">
        <path id="Trazado_241289" data-name="Trazado 241289" d="M28.241,31.54a1.059,1.059,0,0,1-.471-2.008,13.976,13.976,0,0,0,7.411-12.6c0-7.617-5.639-13.814-12.571-13.814s-12.571,6.2-12.571,13.814a1.059,1.059,0,1,1-2.119,0C7.92,8.147,14.51,1,22.61,1S37.3,8.147,37.3,16.931a16.108,16.108,0,0,1-8.589,14.5A1.056,1.056,0,0,1,28.241,31.54Z" transform="translate(-7.92 -1)" fill="#5c22c3"/>
      </g>
      <g id="Grupo_180438" data-name="Grupo 180438" transform="translate(32.501 27.154)">
        <path id="Trazado_241290" data-name="Trazado 241290" d="M224.666,214.261l-14.925,14.925a.313.313,0,0,1-.443,0l-20.544-20.544a.314.314,0,0,1,0-.443l14.925-14.925a.314.314,0,0,1,.443,0l20.544,20.544A.313.313,0,0,1,224.666,214.261Z" transform="translate(-188.474 -192.999)" fill="#f1dff3"/>
        <path id="Trazado_241291" data-name="Trazado 241291" d="M208.334,228.307a3.464,3.464,0,0,1-2.459-1.017L188.31,209.724a3.474,3.474,0,0,1,0-4.917l11.949-11.947a3.48,3.48,0,0,1,4.916,0l17.568,17.568a3.481,3.481,0,0,1,0,4.917L210.794,227.29A3.467,3.467,0,0,1,208.334,228.307Zm-5.619-34.35a1.355,1.355,0,0,0-.961.4L189.806,206.3a1.357,1.357,0,0,0,0,1.921l17.568,17.568a1.362,1.362,0,0,0,1.923,0l11.949-11.947a1.361,1.361,0,0,0,0-1.921l-17.569-17.569A1.355,1.355,0,0,0,202.716,193.957Z" transform="translate(-187.29 -191.842)" fill="#5c22c3"/>
      </g>
    </g>
  </g>
</svg>
