<svg xmlns="http://www.w3.org/2000/svg" width="79.965" height="80.214" viewBox="0 0 79.965 80.214">
  <g id="Grupo_82628" data-name="Grupo 82628" transform="translate(400.033 -1512.927)">
    <path id="Trazado_118593" data-name="Trazado 118593" d="M-317.615,1586.415l6.844-7.53,6.783-9.141,3.23-14.2v-10.175l-1.7-6.783-5.572-3.715h-6.622l-9.045,3.473-17.919,10.579-11.153,7.349-8.56,11.122-4.442,13.589v10.5l1.454,8.494,5.032,4.606,4.013.64,6.137-.946,11.064-6.092,9.933-6.138,4.442,4.2,8.479,1.777,6.057-.727-3.715-2.665-4.1-4.926Z" transform="translate(-20.678 -13.243)" fill="#fff"/>
    <path id="Trazado_118594" data-name="Trazado 118594" d="M-253.607,1599.941c0-.479-.121-.845-.316-.958a.451.451,0,0,0-.226-.052,1.66,1.66,0,0,0-.768.256,5.372,5.372,0,0,0-2.356,4.088c0,.479.122.844.318.958a1.145,1.145,0,0,0,.992-.2A5.371,5.371,0,0,0-253.607,1599.941Z" transform="translate(-86.146 -51.898)" fill="#3a3a3a"/>
    <path id="Trazado_118595" data-name="Trazado 118595" d="M-284.682,1617.893a1.139,1.139,0,0,0-.32-.958,1.134,1.134,0,0,0-.99.2,5.394,5.394,0,0,0-2.362,4.091,1.143,1.143,0,0,0,.323.959,1.148,1.148,0,0,0,.993-.2A5.325,5.325,0,0,0-284.682,1617.893Z" transform="translate(-67.392 -62.73)" fill="#3a3a3a"/>
    <path id="Trazado_118596" data-name="Trazado 118596" d="M-315.749,1635.844c0-.477-.122-.844-.319-.957a.449.449,0,0,0-.225-.052,1.639,1.639,0,0,0-.763.256,5.307,5.307,0,0,0-2.364,4.088,1.138,1.138,0,0,0,.32.958,1.132,1.132,0,0,0,.989-.2A5.3,5.3,0,0,0-315.749,1635.844Z" transform="translate(-48.645 -73.563)" fill="#3a3a3a"/>
    <path id="Trazado_118597" data-name="Trazado 118597" d="M-349.287,1520.783-375.642,1536c-10.523,6.077-19.085,20.906-19.085,33.056v5.3c0,5.7,1.878,9.9,5.289,11.825l6.661,3.76a19.6,19.6,0,0,1-1.771-8.652v-5.3c0-12.82,9.033-28.466,20.137-34.878l26.355-15.214a19.769,19.769,0,0,1,8.163-2.772l-6.65-3.754C-339.9,1517.473-344.423,1517.976-349.287,1520.783Z" transform="translate(-3.202 -3.205)" fill="#fef536"/>
    <path id="Trazado_118598" data-name="Trazado 118598" d="M-307.642,1531.959a1.049,1.049,0,0,1,.32,1.356,1.051,1.051,0,0,1-1.426.424l-.136-.074-5.518-3.115a19.767,19.767,0,0,0-8.163,2.772l-26.355,15.214c-11.1,6.411-20.137,22.058-20.137,34.878v5.3a19.6,19.6,0,0,0,1.771,8.652l5.621,3.173a1.052,1.052,0,0,1,.4,1.434,1.05,1.05,0,0,1-.917.534,1.047,1.047,0,0,1-.474-.119,11.123,11.123,0,0,0,5.5,1.385,18.864,18.864,0,0,0,9.285-2.826l17.529-10.119c4.827,5.432,12.261,7.181,20.548,4.794a1.052,1.052,0,0,0,.76-.973,1.052,1.052,0,0,0-.688-1.025c-4.163-1.531-7.371-4.807-9.317-9.5,10.116-7.252,17.66-21.39,17.66-33.27v-5.3C-301.377,1539.108-303.6,1534.3-307.642,1531.959Zm4.161,18.9c0,11.326-7.656,25.387-17.429,32.012a1.052,1.052,0,0,0-.395,1.24,19.3,19.3,0,0,0,8.051,10.156c-6.642,1.133-12.261-.754-16.03-5.445a1.052,1.052,0,0,0-1.346-.252l-18.291,10.558c-4.864,2.807-9.39,3.309-12.743,1.411-3.412-1.92-5.289-6.117-5.289-11.82v-5.3c0-12.15,8.561-26.979,19.085-33.055l26.356-15.214a16.784,16.784,0,0,1,8.23-2.542,9.105,9.105,0,0,1,4.4,1.062c3.486,1.9,5.406,6.12,5.406,11.89Z" transform="translate(-18.691 -10.634)" fill="#3a3a3a"/>
    <path id="Trazado_118599" data-name="Trazado 118599" d="M-256.072,1593.966a3.072,3.072,0,0,0-3.1.2,7.426,7.426,0,0,0-3.409,5.915,3.059,3.059,0,0,0,1.37,2.776,2.521,2.521,0,0,0,1.273.331,3.676,3.676,0,0,0,1.824-.534,7.421,7.421,0,0,0,3.409-5.914A3.059,3.059,0,0,0-256.072,1593.966Zm-4.085,7.072c-.2-.113-.318-.479-.318-.955a5.372,5.372,0,0,1,2.356-4.091,1.658,1.658,0,0,1,.768-.256.452.452,0,0,1,.226.051c.2.113.316.479.316.958a5.37,5.37,0,0,1-2.356,4.089A1.146,1.146,0,0,1-260.158,1601.037Z" transform="translate(-82.944 -48.702)" fill="#3a3a3a"/>
    <path id="Trazado_118600" data-name="Trazado 118600" d="M-287.152,1611.915a3.063,3.063,0,0,0-3.094.2,7.447,7.447,0,0,0-3.414,5.914,3.069,3.069,0,0,0,1.376,2.781,2.518,2.518,0,0,0,1.271.33,3.692,3.692,0,0,0,1.827-.534,7.461,7.461,0,0,0,3.406-5.913A3.063,3.063,0,0,0-287.152,1611.915Zm-4.08,7.075a1.143,1.143,0,0,1-.323-.959,5.394,5.394,0,0,1,2.362-4.091,1.135,1.135,0,0,1,.99-.2,1.139,1.139,0,0,1,.32.958,5.324,5.324,0,0,1-2.355,4.091A1.147,1.147,0,0,1-291.232,1618.99Z" transform="translate(-64.19 -59.533)" fill="#3a3a3a"/>
    <path id="Trazado_118601" data-name="Trazado 118601" d="M-318.22,1629.865a3.058,3.058,0,0,0-3.092.208,7.441,7.441,0,0,0-3.414,5.908,3.063,3.063,0,0,0,1.373,2.781,2.523,2.523,0,0,0,1.273.331,3.661,3.661,0,0,0,1.819-.532,7.435,7.435,0,0,0,3.415-5.914A3.06,3.06,0,0,0-318.22,1629.865Zm-4.082,7.074a1.138,1.138,0,0,1-.32-.958,5.306,5.306,0,0,1,2.364-4.088,1.64,1.64,0,0,1,.763-.256.45.45,0,0,1,.225.051c.2.114.319.48.319.957a5.3,5.3,0,0,1-2.362,4.092A1.133,1.133,0,0,1-322.3,1636.939Z" transform="translate(-45.443 -70.366)" fill="#3a3a3a"/>
    <path id="Trazado_118602" data-name="Trazado 118602" d="M-379.958,1591.341a1.052,1.052,0,0,0-.4-1.434l-5.621-3.173-6.661-3.76c-3.411-1.928-5.289-6.128-5.289-11.825v-5.3c0-12.15,8.562-26.978,19.085-33.056l26.355-15.213c4.863-2.807,9.389-3.31,12.744-1.416l6.65,3.754,5.518,3.115.136.074a1.051,1.051,0,0,0,1.426-.424,1.049,1.049,0,0,0-.32-1.356.983.983,0,0,0-.1-.07l-12.272-6.924c-4.03-2.276-9.3-1.769-14.831,1.425l-26.355,15.214c-11.1,6.412-20.137,22.059-20.137,34.878v5.3c0,6.49,2.258,11.339,6.358,13.657l12.283,6.933c.013.008.028.01.042.017a1.045,1.045,0,0,0,.474.119A1.05,1.05,0,0,0-379.958,1591.341Z" transform="translate(0 0)" fill="#3a3a3a"/>
  </g>
</svg>
