<svg xmlns="http://www.w3.org/2000/svg" xmlns:xlink="http://www.w3.org/1999/xlink" width="610" height="392.789" viewBox="0 0 610 392.789">
  <defs>
    <clipPath id="clip-path">
      <rect id="Rectángulo_45128" data-name="Rectángulo 45128" width="215.839" height="207.917" fill="none"/>
    </clipPath>
  </defs>
  <g id="Grupo_187269" data-name="Grupo 187269" transform="translate(6576 3205)">
    <g id="Grupo_180470" data-name="Grupo 180470" transform="translate(-6444 -4087.001)">
      <path id="Rectángulo_33876" data-name="Rectángulo 33876" d="M20,0H610a0,0,0,0,1,0,0V372.789a20,20,0,0,1-20,20H0a0,0,0,0,1,0,0V20A20,20,0,0,1,20,0Z" transform="translate(-132 882.001)" fill="#64b5f6"/>
    </g>
    <circle id="Elipse_4930" data-name="Elipse 4930" cx="157" cy="157" r="157" transform="translate(-6428 -3166)" fill="#fff"/>
    <g id="Grupo_180475" data-name="Grupo 180475" transform="translate(-6378.919 -3112.959)">
      <path id="Trazado_241780" data-name="Trazado 241780" d="M223.136,390.172h-39.12l-3.762,31.945H226.9Z" transform="translate(-103.492 -224.016)" fill="#eff0f0"/>
      <path id="Trazado_241781" data-name="Trazado 241781" d="M226.478,421.746H177.442l4.013-34.075h41.012Zm-46.642-2.129h44.247L220.574,389.8H183.348Z" transform="translate(-101.878 -222.58)" fill="#12263f"/>
      <g id="Grupo_180474" data-name="Grupo 180474">
        <g id="Grupo_180473" data-name="Grupo 180473" clip-path="url(#clip-path)">
          <path id="Trazado_241782" data-name="Trazado 241782" d="M219.41,472.309l-2.223-3.395c-2.619-1.726-17.612-2.691-17.612-2.691H199.5l-.183-1.037H152.674l-.183,1.037h-.076s-14.993.965-17.612,2.691l-2.223,3.395c-.916.6.018,1.628,1.473,1.628h83.883c1.456,0,2.388-1.024,1.473-1.628" transform="translate(-75.912 -267.085)" fill="#eff0f0"/>
          <path id="Trazado_241783" data-name="Trazado 241783" d="M216.5,473.566H132.618a2.824,2.824,0,0,1-2.832-1.66,1.647,1.647,0,0,1,.569-1.769l2.243-3.426.184-.121c2.51-1.654,14.039-2.577,17.37-2.812l.193-1.091h48.428l.192,1.091c3.329.235,14.861,1.158,17.371,2.812l.184.121,2.243,3.426a1.647,1.647,0,0,1,.568,1.769,2.824,2.824,0,0,1-2.831,1.66m-84.4-2.2a1.718,1.718,0,0,0,.521.075H216.5a1.73,1.73,0,0,0,.521-.075L215,468.269c-2.116-1.1-11.372-2.06-16.9-2.416l-.93-.015-.18-1.022H152.131l-.18,1.022-.929.016c-5.527.356-14.784,1.315-16.9,2.416Z" transform="translate(-74.476 -265.649)" fill="#12263f"/>
          <path id="Trazado_241784" data-name="Trazado 241784" d="M199.765,104.883H3.269a.77.77,0,0,0-.77.77V229.7a.77.77,0,0,0,.77.77h196.5a.77.77,0,0,0,.77-.77V105.655a.771.771,0,0,0-.772-.772" transform="translate(-1.435 -60.218)" fill="#eff0f0"/>
          <path id="Trazado_241785" data-name="Trazado 241785" d="M198.332,230.1H1.835A1.837,1.837,0,0,1,0,228.263V104.217a1.837,1.837,0,0,1,1.835-1.835h196.5a1.838,1.838,0,0,1,1.836,1.837V228.263a1.837,1.837,0,0,1-1.835,1.835m-196.2-2.129H198.038V104.512H2.129Z" transform="translate(0 -58.782)" fill="#12263f"/>
          <rect id="Rectángulo_45121" data-name="Rectángulo 45121" width="176.786" height="108.195" transform="translate(11.691 53.36)" fill="#12263f"/>
          <path id="Trazado_241786" data-name="Trazado 241786" d="M157.77,130.281H33.54V233.664H204.6V130.281Z" transform="translate(-19.257 -74.801)" fill="#ced0d1"/>
          <path id="Trazado_241787" data-name="Trazado 241787" d="M319.076,43.293l-.7-7.734-5.823-.459a19.833,19.833,0,0,0-1.713-3.659l3.349-4.744-5.5-5.476-4.705,3.354a19.973,19.973,0,0,0-3.725-1.728l-.474-5.724-7.737-.66-1.432,5.548a19.944,19.944,0,0,0-4.008,1.083L282.6,19.05l-.181.129-6.17,4.338,2.461,5.16a20.2,20.2,0,0,0-2.365,3.417l-5.677-.517-1.99,7.5,5.235,2.385a19.938,19.938,0,0,0,.389,4.1l-4.721,3.273,3.3,7.027,5.6-1.552a19.636,19.636,0,0,0,2.889,2.844l-1.527,5.6,7.043,3.265,3.326-4.836a20.272,20.272,0,0,0,3.992.322l2.453,5.316,7.494-2.027-.287-2.991-.281-2.876c.557-.321,1.108-.667,1.643-1.04.564-.4,1.1-.818,1.61-1.26l5.315,2.507,4.437-6.371-4.2-4.131a20.042,20.042,0,0,0,1.023-3.856Zm-18.169,8.472a12.582,12.582,0,0,1-1.623.947,12.277,12.277,0,1,1,1.623-.947" transform="translate(-154.258 -9.452)" fill="#fef536"/>
          <path id="Trazado_241788" data-name="Trazado 241788" d="M294.369,66.561l-2.544-5.513a21.359,21.359,0,0,1-2.818-.229l-3.452,5.02-8.674-4.022,1.582-5.808a20.846,20.846,0,0,1-2.05-2.02L270.6,55.6l-4.064-8.655,4.9-3.394a21.038,21.038,0,0,1-.278-2.933l-5.436-2.477,2.451-9.241,5.89.537a21.313,21.313,0,0,1,1.7-2.45L273.2,21.629l7.82-5.5,4.167,4.2a21.1,21.1,0,0,1,2.873-.776l1.486-5.759,9.53.814.492,5.941a21.068,21.068,0,0,1,2.657,1.232l4.882-3.48,6.778,6.744-3.475,4.924a20.96,20.96,0,0,1,1.215,2.593l6.038.476.858,9.525-5.878,1.55a21.148,21.148,0,0,1-.719,2.718l4.356,4.283-5.465,7.847-5.513-2.6c-.38.307-.767.6-1.157.876q-.537.374-1.132.74l.587,6.091ZM293.18,58.9l2.369,5.132,5.758-1.557-.548-5.654.594-.342c.56-.324,1.087-.657,1.565-.991.515-.363,1.029-.765,1.525-1.192l.524-.452,5.126,2.419,3.409-4.9-4.055-3.987.246-.649a18.925,18.925,0,0,0,.968-3.65l.111-.683,5.464-1.441-.535-5.943-5.62-.443-.229-.658a18.819,18.819,0,0,0-1.621-3.462l-.355-.594,3.23-4.575-4.23-4.208-4.539,3.236-.6-.355a18.944,18.944,0,0,0-3.526-1.636l-.658-.226-.457-5.52-5.945-.508-1.381,5.352-.687.11a18.94,18.94,0,0,0-3.794,1.026l-.649.251-3.869-3.9-4.881,3.432,2.372,4.973-.45.526a19.166,19.166,0,0,0-2.241,3.238l-.336.611-5.476-.5-1.529,5.765,5.046,2.3-.006.692a18.855,18.855,0,0,0,.368,3.885l.138.686-4.556,3.159,2.536,5.4,5.4-1.5.439.531a18.629,18.629,0,0,0,2.732,2.691l.548.436-1.475,5.412,5.412,2.509,3.206-4.662.676.122a19.471,19.471,0,0,0,3.782.306Zm-1.143-5.345a13.455,13.455,0,1,1,7.785-2.458h0a13.978,13.978,0,0,1-7.784,2.457m.026-24.748a11.607,11.607,0,0,0-6.488,2.04,11.366,11.366,0,1,0,6.488-2.04" transform="translate(-152.56 -7.918)" fill="#12263f"/>
          <path id="Trazado_241789" data-name="Trazado 241789" d="M440.085,27.97l-.656-7.293-5.491-.432a18.6,18.6,0,0,0-1.616-3.45l3.158-4.474-5.188-5.163-4.437,3.164a18.829,18.829,0,0,0-3.512-1.631l-.448-5.4-7.3-.623L413.251,7.9a18.807,18.807,0,0,0-3.781,1.022L405.688,5.11l-.171.121L399.7,9.322l2.321,4.867a18.8,18.8,0,0,0-2.231,3.222l-5.354-.488L392.56,24l4.936,2.249a18.551,18.551,0,0,0,.367,3.87L393.412,33.2l3.111,6.626,5.282-1.461a18.691,18.691,0,0,0,2.725,2.682L403.09,46.33l6.642,3.079,3.136-4.56a18.968,18.968,0,0,0,3.765.3l2.313,5.013,7.064-1.91-.27-2.822-.265-2.712c.526-.3,1.046-.629,1.549-.981q.8-.563,1.519-1.188l5.011,2.364,4.185-6.006-3.96-3.9a18.984,18.984,0,0,0,.965-3.636Zm-17.132,7.988a11.817,11.817,0,0,1-1.53.893,11.665,11.665,0,0,1-11.9-19.988,11.9,11.9,0,0,1,1.428-.843,11.666,11.666,0,0,1,12.006,19.938" transform="translate(-225.387 -1.534)" fill="#fef536"/>
          <path id="Trazado_241790" data-name="Trazado 241790" d="M416.657,49.894l-2.4-5.209a20,20,0,0,1-2.59-.211L408.4,49.219l-8.273-3.836,1.5-5.488a19.883,19.883,0,0,1-1.885-1.857l-5.5,1.521-3.876-8.254,4.627-3.208a19.633,19.633,0,0,1-.255-2.7L389.6,23.058l2.335-8.811,5.569.508a19.859,19.859,0,0,1,1.562-2.255l-2.415-5.065,7.458-5.247,3.937,3.969a19.943,19.943,0,0,1,2.645-.714L412.095,0l9.088.776.467,5.615a19.994,19.994,0,0,1,2.444,1.134l4.614-3.289,6.462,6.431-3.285,4.653A19.683,19.683,0,0,1,433,17.7l5.707.449.817,9.083L433.973,28.7a20.228,20.228,0,0,1-.66,2.5l4.117,4.05-5.213,7.481-5.21-2.458c-.346.279-.7.549-1.066.8-.326.229-.673.457-1.037.681l.554,5.758Zm-1.049-7.354,2.229,4.83,5.329-1.441-.515-5.321.595-.343c.528-.3,1.023-.617,1.469-.93.494-.348.977-.726,1.433-1.12l.525-.454,4.824,2.277,3.157-4.532-3.814-3.752.245-.649a17.97,17.97,0,0,0,.91-3.432l.112-.681,5.139-1.356-.495-5.5-5.288-.416-.228-.658a17.622,17.622,0,0,0-1.524-3.253l-.356-.594,3.039-4.3-3.914-3.9-4.272,3.046-.6-.357A17.805,17.805,0,0,0,420.3,8.163l-.656-.227-.432-5.192-5.5-.47-1.3,5.035-.688.111a17.844,17.844,0,0,0-3.567.964l-.649.25-3.638-3.67-4.518,3.177,2.232,4.681-.452.526a17.8,17.8,0,0,0-2.1,3.04l-.335.612-5.154-.469-1.415,5.335,4.75,2.164-.007.692a17.566,17.566,0,0,0,.345,3.648l.139.687L393.06,32.03l2.347,5,5.08-1.405.439.53a17.616,17.616,0,0,0,2.57,2.529l.547.437-1.388,5.089,5.011,2.323,3.017-4.386.677.122a18.027,18.027,0,0,0,3.553.287Zm-1.117-4.916a12.746,12.746,0,0,1-7.283-23.166,12.93,12.93,0,0,1,1.555-.921,12.783,12.783,0,0,1,16.19,4.01A12.642,12.642,0,0,1,420.2,36.268a12.773,12.773,0,0,1-5.711,1.356m.025-23.337a10.51,10.51,0,0,0-4.784,1.146,10.762,10.762,0,0,0-1.3.766,10.609,10.609,0,0,0,12.208,17.354h0a10.594,10.594,0,0,0-6.125-19.266" transform="translate(-223.689 0.001)" fill="#12263f"/>
          <rect id="Rectángulo_45122" data-name="Rectángulo 45122" width="21.065" height="36.403" transform="translate(24.443 110.756)" fill="#80b3f2"/>
          <path id="Trazado_241791" data-name="Trazado 241791" d="M78.091,296.113H54.9V257.581H78.091Zm-21.065-2.129H75.962V259.71H57.026Z" transform="translate(-31.519 -147.889)" fill="#12263f"/>
          <rect id="Rectángulo_45123" data-name="Rectángulo 45123" width="21.065" height="55.458" transform="translate(49.676 91.701)" fill="#d677e6"/>
          <path id="Trazado_241792" data-name="Trazado 241792" d="M137.344,270.421H114.15V212.833h23.194Zm-21.065-2.129h18.936V214.962H116.279Z" transform="translate(-65.539 -122.197)" fill="#12263f"/>
          <rect id="Rectángulo_45124" data-name="Rectángulo 45124" width="21.065" height="73.093" transform="translate(74.91 74.066)" fill="#80b3f2"/>
          <path id="Trazado_241793" data-name="Trazado 241793" d="M196.6,246.645H173.406V171.422H196.6Zm-21.065-2.129h18.936V173.551H175.535Z" transform="translate(-99.56 -98.421)" fill="#12263f"/>
          <rect id="Rectángulo_45125" data-name="Rectángulo 45125" width="21.065" height="41.776" transform="translate(100.145 105.383)" fill="#d677e6"/>
          <path id="Trazado_241794" data-name="Trazado 241794" d="M255.857,288.867H232.662V244.961h23.195Zm-21.065-2.129h18.936V247.09H234.791Z" transform="translate(-133.582 -140.643)" fill="#12263f"/>
          <rect id="Rectángulo_45126" data-name="Rectángulo 45126" width="21.065" height="58.309" transform="translate(126.839 88.85)" fill="#80b3f2"/>
          <path id="Trazado_241795" data-name="Trazado 241795" d="M318.541,266.577H295.346V206.138h23.195Zm-21.065-2.129h18.936v-56.18H297.476Z" transform="translate(-169.572 -118.353)" fill="#12263f"/>
          <rect id="Rectángulo_45127" data-name="Rectángulo 45127" width="21.065" height="42.634" transform="translate(152.072 104.525)" fill="#d677e6"/>
          <path id="Trazado_241796" data-name="Trazado 241796" d="M377.794,287.711H354.6V242.948h23.195Zm-21.065-2.129h18.936v-40.5H356.729Z" transform="translate(-203.592 -139.488)" fill="#12263f"/>
          <path id="Trazado_241797" data-name="Trazado 241797" d="M387.579,105.195l-.895-9.931-7.476-.588a25.333,25.333,0,0,0-2.2-4.7l4.3-6.093-7.067-7.033L368.2,81.161a25.552,25.552,0,0,0-4.782-2.22l-.611-7.351-9.935-.846-1.838,7.125a25.707,25.707,0,0,0-5.147,1.39l-5.152-5.194-.234.167L332.58,79.8l3.161,6.625a25.761,25.761,0,0,0-3.038,4.391l-7.291-.666-2.555,9.633,6.724,3.064a25.33,25.33,0,0,0,.5,5.272l-6.064,4.2,4.237,9.023,7.195-1.99a25.363,25.363,0,0,0,3.71,3.65L337.2,130.2l9.045,4.194,4.27-6.211a25.864,25.864,0,0,0,5.127.415l3.152,6.825,9.62-2.6-.368-3.842-.36-3.694c.716-.411,1.424-.855,2.109-1.335.725-.511,1.411-1.051,2.068-1.617l6.825,3.219,5.7-8.181-5.393-5.3a25.891,25.891,0,0,0,1.314-4.953Zm-23.33,10.879a16.114,16.114,0,0,1-2.085,1.216,15.885,15.885,0,0,1-16.209-27.22,16.059,16.059,0,0,1,1.945-1.147,15.886,15.886,0,0,1,16.349,27.152" transform="translate(-185.367 -40.617)" fill="#fef536"/>
          <path id="Trazado_241798" data-name="Trazado 241798" d="M356.505,135.15l-3.242-7.018a27.1,27.1,0,0,1-3.954-.322l-4.4,6.393-10.676-4.951,2.016-7.4a26.507,26.507,0,0,1-2.872-2.829l-7.406,2.049-5-10.651,6.236-4.323a26.479,26.479,0,0,1-.388-4.1L319.9,98.846l3.016-11.371,7.5.686a27,27,0,0,1,2.371-3.425l-3.254-6.82,9.624-6.775,5.3,5.348a26.921,26.921,0,0,1,4.015-1.084l1.891-7.331,11.728,1,.629,7.565a26.722,26.722,0,0,1,3.717,1.726l6.216-4.432L381,82.23,376.575,88.5a26.62,26.62,0,0,1,1.7,3.635l7.689.6,1.056,11.722-7.485,1.975a26.921,26.921,0,0,1-1.011,3.816l5.547,5.455-6.726,9.657-7.021-3.312c-.527.433-1.068.846-1.618,1.234-.508.355-1.042.7-1.6,1.037l.748,7.757Zm-1.888-9.164,3.067,6.64,7.886-2.132-.709-7.325.6-.342c.714-.409,1.4-.841,2.028-1.283.677-.477,1.344-1,1.983-1.551l.524-.453,6.637,3.131,4.67-6.705-5.246-5.16.245-.649a24.842,24.842,0,0,0,1.259-4.748l.112-.681,7.071-1.866-.733-8.14-7.274-.572-.229-.658a24.335,24.335,0,0,0-2.108-4.5l-.356-.594,4.182-5.924-5.793-5.764-5.876,4.19-.6-.356a24.57,24.57,0,0,0-4.583-2.128l-.657-.226-.594-7.148-8.143-.694-1.788,6.928-.687.111a24.677,24.677,0,0,0-4.934,1.332l-.649.25-5.007-5.049-6.686,4.7,3.072,6.438-.451.526a24.788,24.788,0,0,0-2.913,4.209l-.335.612-7.091-.648-2.094,7.9,6.535,2.977-.006.692a24.387,24.387,0,0,0,.479,5.051l.138.686-5.9,4.089,3.473,7.395,6.993-1.935.44.53a24.306,24.306,0,0,0,3.554,3.5l.548.437-1.909,7,7.413,3.438,4.151-6.037.678.123a24.728,24.728,0,0,0,4.916.4Zm-1.276-7.473a16.972,16.972,0,0,1-9.7-30.847,16.962,16.962,0,0,1,19.52,27.746h0a17.677,17.677,0,0,1-9.822,3.1m.034-31.779a14.692,14.692,0,0,0-6.689,1.6,14.7,14.7,0,0,0-5.413,21.736,14.732,14.732,0,0,0,18.718,4.73,14.8,14.8,0,0,0-6.616-28.071" transform="translate(-183.669 -39.084)" fill="#12263f"/>
        </g>
      </g>
    </g>
  </g>
</svg>
