<svg xmlns="http://www.w3.org/2000/svg" width="1030" height="347.965" viewBox="0 0 1030 347.965">
  <g id="Grupo_187266" data-name="Grupo 187266" transform="translate(-285 -2571)">
    <path id="Trazado_247340" data-name="Trazado 247340" d="M49.32,0H770.68A49.32,49.32,0,0,1,820,49.32v86.388a49.32,49.32,0,0,1-49.32,49.32H49.32A49.32,49.32,0,0,1,0,135.708V49.32A49.32,49.32,0,0,1,49.32,0Z" transform="translate(390 2652.468)" fill="#5c22c3"/>
    <path id="Trazado_247355" data-name="Trazado 247355" d="M60.177,15.277H51.428V39H44.4V15.277H35.813V9.852H60.177ZM69.946,39H63.179V17.339h6.767ZM62.779,11.753A3.011,3.011,0,0,1,63.82,9.391a4.426,4.426,0,0,1,5.405,0,3.011,3.011,0,0,1,1.041,2.362,3.011,3.011,0,0,1-1.041,2.362,4.426,4.426,0,0,1-5.405,0A3.011,3.011,0,0,1,62.779,11.753ZM94.21,28.33a13.063,13.063,0,0,1-2.272,8.058A7.285,7.285,0,0,1,85.8,39.4a6.245,6.245,0,0,1-4.9-2.182v10.11H74.15V17.339h6.306l.2,2a6.245,6.245,0,0,1,5.1-2.4,7.344,7.344,0,0,1,6.226,2.953q2.222,2.953,2.222,8.118Zm-6.747-.42q0-5.766-3.363-5.766a3.175,3.175,0,0,0-3.2,1.722v8.528a3.278,3.278,0,0,0,3.243,1.8q3.223,0,3.323-5.565Zm8.869.06a12.785,12.785,0,0,1,1.261-5.776,9.019,9.019,0,0,1,3.624-3.894,10.913,10.913,0,0,1,5.545-1.361,9.96,9.96,0,0,1,7.667,3.013,11.561,11.561,0,0,1,2.8,8.2v.24a11.217,11.217,0,0,1-2.813,8.038A9.986,9.986,0,0,1,106.8,39.4a10.1,10.1,0,0,1-7.427-2.773,10.845,10.845,0,0,1-3.023-7.517Zm6.747.42a8.06,8.06,0,0,0,.941,4.4,3.135,3.135,0,0,0,2.783,1.4q3.6,0,3.684-5.545v-.681q0-5.826-3.724-5.826-3.383,0-3.664,5.025Zm28.468,4.524a1.559,1.559,0,0,0-.9-1.381,13.7,13.7,0,0,0-3.423-1.081,15.61,15.61,0,0,1-4.164-1.471,6.975,6.975,0,0,1-2.5-2.212,5.282,5.282,0,0,1-.861-2.983,5.987,5.987,0,0,1,2.462-4.915,10.143,10.143,0,0,1,6.446-1.932,11.238,11.238,0,0,1,6.887,1.942,6.073,6.073,0,0,1,2.6,5.1h-6.767q0-2.6-2.743-2.6a2.719,2.719,0,0,0-1.782.591,1.829,1.829,0,0,0-.721,1.471,1.678,1.678,0,0,0,.881,1.461,8.323,8.323,0,0,0,2.813.921,24.307,24.307,0,0,1,3.393.861q4.885,1.682,4.885,6.026a5.673,5.673,0,0,1-2.633,4.825A11.545,11.545,0,0,1,128.6,39.4a11.781,11.781,0,0,1-4.965-1,8.3,8.3,0,0,1-3.4-2.723,6.165,6.165,0,0,1-1.221-3.624h6.306a2.607,2.607,0,0,0,1,2.192,4.117,4.117,0,0,0,2.462.691,3.239,3.239,0,0,0,2.072-.561A1.793,1.793,0,0,0,131.546,32.914Zm19.019-4.9q0-5.145,2.222-8.108a7.314,7.314,0,0,1,6.206-2.963,6.221,6.221,0,0,1,4.885,2.282V8.25h6.767V39h-6.066l-.34-2.322a6.388,6.388,0,0,1-5.285,2.723,7.3,7.3,0,0,1-6.126-2.963Q150.565,33.475,150.565,28.009Zm6.747.42q0,5.766,3.363,5.766a3.321,3.321,0,0,0,3.2-1.882V24.065a3.232,3.232,0,0,0-3.163-1.922q-3.123,0-3.383,5.045ZM184.958,39.4a11.135,11.135,0,0,1-8.068-2.973,10.266,10.266,0,0,1-3.083-7.738v-.561a13.3,13.3,0,0,1,1.231-5.866,9.009,9.009,0,0,1,3.594-3.934,10.848,10.848,0,0,1,5.605-1.391,9.376,9.376,0,0,1,7.207,2.833q2.643,2.833,2.643,7.9v2.623H180.674a4.863,4.863,0,0,0,1.582,2.863,4.706,4.706,0,0,0,3.163,1.041,6.063,6.063,0,0,0,5-2.242l3.083,3.644a8.618,8.618,0,0,1-3.573,2.773A12.076,12.076,0,0,1,184.958,39.4ZM184.2,22.144q-2.963,0-3.523,3.924h6.807v-.521a3.342,3.342,0,0,0-.821-2.512A3.266,3.266,0,0,0,184.2,22.144ZM63.049,85.4A11.3,11.3,0,0,1,58.3,88.3a20.464,20.464,0,0,1-6.847,1.1,12.208,12.208,0,0,1-9.149-3.5q-3.423-3.5-3.664-9.75l-.02-2.522a17.4,17.4,0,0,1,1.521-7.517A11.3,11.3,0,0,1,44.5,61.163a12.317,12.317,0,0,1,6.556-1.732q5.445,0,8.458,2.492t3.513,7.437H56.263A5.526,5.526,0,0,0,54.7,65.877a5.038,5.038,0,0,0-3.4-1.041,4.585,4.585,0,0,0-4.084,2.242,11.972,11.972,0,0,0-1.461,6.406v1.762q0,4.364,1.491,6.556A5.275,5.275,0,0,0,51.938,84a5.9,5.9,0,0,0,4.084-1.221V78.25H51.138V73.425H63.049ZM79.926,73.445l-2.222-.16q-3.183,0-4.084,2V89H66.873V67.339H73.2l.22,2.783q1.7-3.183,4.745-3.183a6.579,6.579,0,0,1,1.882.24ZM93.959,89a7.618,7.618,0,0,1-.641-1.942A6.273,6.273,0,0,1,88.114,89.4a7.685,7.685,0,0,1-5.205-1.852,5.894,5.894,0,0,1-2.142-4.655,6.058,6.058,0,0,1,2.6-5.325q2.6-1.8,7.567-1.8h2.082V74.62q0-3-2.583-3A2.111,2.111,0,0,0,88.034,74H81.287a6.048,6.048,0,0,1,2.673-5.1,11.232,11.232,0,0,1,6.817-1.96,9.847,9.847,0,0,1,6.546,2.022,7.03,7.03,0,0,1,2.462,5.545V84.1a9.82,9.82,0,0,0,.921,4.564V89Zm-4.224-4.4a3.763,3.763,0,0,0,2.092-.541,3.388,3.388,0,0,0,1.191-1.221V79.371H91.057q-3.523,0-3.523,3.163a1.931,1.931,0,0,0,.621,1.491A2.246,2.246,0,0,0,89.735,84.6ZM91.417,58.25h7.127l-5.565,6.286-5.505-.01ZM105.09,89V72.023h-3.143V67.339h3.143v-.721a8.271,8.271,0,0,1,2.843-6.626q2.643-2.162,7.387-2.162a26.215,26.215,0,0,1,7.047,1.161l-.921,5.325-1.121-.3a17.839,17.839,0,0,0-4.6-.581q-3.864,0-3.864,3.523v.38H116.1v4.685h-4.244V89Zm20.38,0h-6.787V67.339h6.787Zm13.273-4.8a3,3,0,0,0,2.2-.771,2.826,2.826,0,0,0,.761-2.152h6.326a7.489,7.489,0,0,1-2.552,5.846A9.494,9.494,0,0,1,138.9,89.4a9.613,9.613,0,0,1-7.447-2.963q-2.723-2.963-2.723-8.208v-.28a13.194,13.194,0,0,1,1.211-5.8,8.819,8.819,0,0,1,3.493-3.864,10.416,10.416,0,0,1,5.405-1.351,9.375,9.375,0,0,1,6.707,2.342,8.308,8.308,0,0,1,2.482,6.346h-6.326a3.7,3.7,0,0,0-.821-2.583,2.833,2.833,0,0,0-2.2-.9q-2.623,0-3.063,3.343a23.59,23.59,0,0,0-.14,2.923,9.266,9.266,0,0,0,.781,4.524A2.7,2.7,0,0,0,138.743,84.2Zm11.291-6.226a12.785,12.785,0,0,1,1.261-5.776,9.019,9.019,0,0,1,3.624-3.894,10.913,10.913,0,0,1,5.545-1.361,9.96,9.96,0,0,1,7.667,3.013,11.561,11.561,0,0,1,2.8,8.2v.24a11.217,11.217,0,0,1-2.813,8.038A9.986,9.986,0,0,1,160.5,89.4a10.1,10.1,0,0,1-7.427-2.773,10.845,10.845,0,0,1-3.023-7.517Zm6.747.42a8.06,8.06,0,0,0,.941,4.4,3.135,3.135,0,0,0,2.783,1.4q3.6,0,3.684-5.545v-.681q0-5.826-3.724-5.826-3.383,0-3.664,5.025Zm28.468,4.524a1.559,1.559,0,0,0-.9-1.381,13.7,13.7,0,0,0-3.423-1.081,15.61,15.61,0,0,1-4.164-1.471,6.975,6.975,0,0,1-2.5-2.212,5.282,5.282,0,0,1-.861-2.983,5.987,5.987,0,0,1,2.462-4.915,10.143,10.143,0,0,1,6.446-1.932,11.238,11.238,0,0,1,6.887,1.942,6.073,6.073,0,0,1,2.6,5.1h-6.767q0-2.6-2.743-2.6a2.719,2.719,0,0,0-1.782.591,1.829,1.829,0,0,0-.721,1.471,1.678,1.678,0,0,0,.881,1.461,8.323,8.323,0,0,0,2.813.921,24.307,24.307,0,0,1,3.393.861q4.885,1.682,4.885,6.026a5.673,5.673,0,0,1-2.633,4.825,11.545,11.545,0,0,1-6.817,1.862,11.781,11.781,0,0,1-4.965-1,8.3,8.3,0,0,1-3.4-2.723,6.165,6.165,0,0,1-1.221-3.624h6.306a2.607,2.607,0,0,0,1,2.192,4.117,4.117,0,0,0,2.462.691,3.239,3.239,0,0,0,2.072-.561A1.793,1.793,0,0,0,185.249,82.914Z" transform="translate(685 2692.799)" fill="#fff"/>
    <path id="Trazado_122490" data-name="Trazado 122490" d="M-3843.447,1715.306l4.037-.992a.867.867,0,0,0,.636-1.05.869.869,0,0,0-.636-.638l-4.037-.99a4.481,4.481,0,0,1-3.284-3.283l-.99-4.036a.87.87,0,0,0-1.052-.638.872.872,0,0,0-.636.638l-.989,4.036a4.48,4.48,0,0,1-3.283,3.283l-4.038.99a.87.87,0,0,0-.636,1.051.869.869,0,0,0,.636.636l4.038.992a4.479,4.479,0,0,1,3.283,3.282l.989,4.037a.869.869,0,0,0,1.051.636.869.869,0,0,0,.637-.636l.99-4.037A4.478,4.478,0,0,1-3843.447,1715.306Z" transform="translate(-913.359 -1171.083) rotate(-90)" fill="#fef536"/>
    <path id="Trazado_122490-2" data-name="Trazado 122490" d="M-3843.447,1715.306l4.037-.992a.867.867,0,0,0,.636-1.05.869.869,0,0,0-.636-.638l-4.037-.99a4.481,4.481,0,0,1-3.284-3.283l-.99-4.036a.87.87,0,0,0-1.052-.638.872.872,0,0,0-.636.638l-.989,4.036a4.48,4.48,0,0,1-3.283,3.283l-4.038.99a.87.87,0,0,0-.636,1.051.869.869,0,0,0,.636.636l4.038.992a4.479,4.479,0,0,1,3.283,3.282l.989,4.037a.869.869,0,0,0,1.051.636.869.869,0,0,0,.637-.636l.99-4.037A4.478,4.478,0,0,1-3843.447,1715.306Z" transform="translate(-913.359 -1036.082) rotate(-90)" fill="#fef536"/>
    <g id="Grupo_130458" data-name="Grupo 130458" transform="translate(384.938 2635.628) rotate(90)">
      <path id="Trazado_121383" data-name="Trazado 121383" d="M218.716,7.665S165.3-4.386,106.787,1.733C80.421,4.491,17.474,14.231,0,7.665" fill="#fef536"/>
    </g>
    <g id="Grupo_130459" data-name="Grupo 130459" transform="translate(475 2571) rotate(90)">
      <path id="Trazado_121384" data-name="Trazado 121384" d="M76.2,190c-13.911,0-24.372-1.239-32.565-4.013C14.1,175.985-4.934,128.343,1.124,79.573,7.13,31.206,35.568-.1,64.844,9.136c12.864,2.6,63.54-3,82.7-5.113,7.951-.878,14.819-1.635,20.525-2.171,68-6.41,129.388,5.837,131.967,6.361,29.927,6.085,51.2,51.074,47.514,100.485s-30.919,84.53-60.853,78.453c-1.678-.332-55.191-10.7-112.406-5.306-5.176.486-11.8,1.217-19.464,2.064C120.312,187.718,95.081,190,76.2,190ZM65.541,9.365l.032.01Z" fill="#fef536"/>
    </g>
    <g id="Grupo_138709" data-name="Grupo 138709" transform="translate(349.311 2644.467)">
      <g id="Rectángulo_43951" data-name="Rectángulo 43951" transform="translate(22.389 76.901)" fill="#64b5f6" stroke="#12263f" stroke-width="5">
        <rect width="18.495" height="27.256" stroke="none"/>
        <rect x="2.5" y="2.5" width="13.495" height="22.256" fill="none"/>
      </g>
      <g id="Rectángulo_43954" data-name="Rectángulo 43954" transform="translate(0 0)" fill="#5c22c3" stroke="#12263f" stroke-width="5">
        <rect width="18.495" height="104.157" stroke="none"/>
        <rect x="2.5" y="2.5" width="13.495" height="99.157" fill="none"/>
      </g>
    </g>
    <g id="Grupo_138710" data-name="Grupo 138710" transform="translate(403.823 2644.467)">
      <g id="Rectángulo_43951-2" data-name="Rectángulo 43951" transform="translate(22.389 76.901)" fill="#64b5f6" stroke="#12263f" stroke-width="5">
        <rect width="18.495" height="27.256" stroke="none"/>
        <rect x="2.5" y="2.5" width="13.495" height="22.256" fill="none"/>
      </g>
      <g id="Rectángulo_43954-2" data-name="Rectángulo 43954" transform="translate(0 0)" fill="#5c22c3" stroke="#12263f" stroke-width="5">
        <rect width="18.495" height="104.157" stroke="none"/>
        <rect x="2.5" y="2.5" width="13.495" height="99.157" fill="none"/>
      </g>
    </g>
    <path id="Trazado_126295" data-name="Trazado 126295" d="M122.651,2.5H0A2.5,2.5,0,0,1-2.5,0,2.5,2.5,0,0,1,0-2.5H122.651a2.5,2.5,0,0,1,2.5,2.5A2.5,2.5,0,0,1,122.651,2.5Z" transform="translate(335.683 2757.383)" fill="#12263f"/>
    <path id="Trazado_126291" data-name="Trazado 126291" d="M9.734,2.5H0A2.5,2.5,0,0,1-2.5,0,2.5,2.5,0,0,1,0-2.5H9.734a2.5,2.5,0,0,1,2.5,2.5A2.5,2.5,0,0,1,9.734,2.5Z" transform="translate(330.816 2747.649)" fill="#12263f"/>
    <path id="Trazado_126289" data-name="Trazado 126289" d="M9.878,2.5H0A2.5,2.5,0,0,1-2.5,0,2.5,2.5,0,0,1,0-2.5H9.878a2.5,2.5,0,0,1,2.5,2.5A2.5,2.5,0,0,1,9.878,2.5Z" transform="translate(369.797 2752.038) rotate(90)" fill="#12263f"/>
    <path id="Trazado_126288" data-name="Trazado 126288" d="M9.878,2.5H0A2.5,2.5,0,0,1-2.5,0,2.5,2.5,0,0,1,0-2.5H9.878a2.5,2.5,0,0,1,2.5,2.5A2.5,2.5,0,0,1,9.878,2.5Z" transform="translate(424.386 2752.038) rotate(90)" fill="#12263f"/>
    <path id="Trazado_126292" data-name="Trazado 126292" d="M9.734,2.5H0A2.5,2.5,0,0,1-2.5,0,2.5,2.5,0,0,1,0-2.5H9.734a2.5,2.5,0,0,1,2.5,2.5A2.5,2.5,0,0,1,9.734,2.5Z" transform="translate(330.816 2712.606)" fill="#12263f"/>
    <path id="Trazado_126293" data-name="Trazado 126293" d="M9.734,2.5H0A2.5,2.5,0,0,1-2.5,0,2.5,2.5,0,0,1,0-2.5H9.734a2.5,2.5,0,0,1,2.5,2.5A2.5,2.5,0,0,1,9.734,2.5Z" transform="translate(330.816 2678.537)" fill="#12263f"/>
    <path id="Trazado_126294" data-name="Trazado 126294" d="M9.734,2.5H0A2.5,2.5,0,0,1-2.5,0,2.5,2.5,0,0,1,0-2.5H9.734a2.5,2.5,0,0,1,2.5,2.5A2.5,2.5,0,0,1,9.734,2.5Z" transform="translate(330.816 2644.467)" fill="#12263f"/>
    <path id="Trazado_126290" data-name="Trazado 126290" d="M0,136.538a2.5,2.5,0,0,1-2.5-2.5V0A2.5,2.5,0,0,1,0-2.5,2.5,2.5,0,0,1,2.5,0V134.038A2.5,2.5,0,0,1,0,136.538Z" transform="translate(335.683 2623.346)" fill="#12263f"/>
    <path id="Trazado_126285" data-name="Trazado 126285" d="M-.5-3.486A4.074,4.074,0,0,1-1.28-.82,2.683,2.683,0,0,1-3.469.117a2.7,2.7,0,0,1-2.2-.943,4.067,4.067,0,0,1-.779-2.66V-5.045a4.074,4.074,0,0,1,.776-2.666A2.69,2.69,0,0,1-3.48-8.648a2.691,2.691,0,0,1,2.2.943A4.077,4.077,0,0,1-.5-5.039ZM-2.479-5.3a3.043,3.043,0,0,0-.24-1.374.8.8,0,0,0-.762-.454.784.784,0,0,0-.741.422,2.866,2.866,0,0,0-.249,1.277v2.18a3.066,3.066,0,0,0,.24,1.4.806.806,0,0,0,.762.442.8.8,0,0,0,.744-.431,2.927,2.927,0,0,0,.246-1.351Z" transform="translate(323.214 2752.969)" fill="#12263f"/>
    <path id="Trazado_126286" data-name="Trazado 126286" d="M1.169-1.328H-1.179L-1.589,0H-3.42L-.813-7.109H.8L3.425,0H1.584ZM-.769-2.651H.759L-.007-5.117Z" transform="translate(369.885 2773.225)" fill="#12263f"/>
    <path id="Trazado_126287" data-name="Trazado 126287" d="M-2.688,0V-7.109H-.134a3.616,3.616,0,0,1,2.087.5,1.673,1.673,0,0,1,.715,1.46,1.692,1.692,0,0,1-.254.942,1.48,1.48,0,0,1-.747.576,1.5,1.5,0,0,1,.854.547,1.59,1.59,0,0,1,.3.977,1.882,1.882,0,0,1-.662,1.57A3.149,3.149,0,0,1,.2,0ZM-.974-3.022v1.7H.149a1.068,1.068,0,0,0,.713-.212.743.743,0,0,0,.249-.6.788.788,0,0,0-.884-.894Zm0-1.123h.894a1.269,1.269,0,0,0,.8-.206.73.73,0,0,0,.239-.593A.766.766,0,0,0,.7-5.593a1.385,1.385,0,0,0-.835-.2h-.84Z" transform="translate(424.397 2773.225)" fill="#12263f"/>
    <path id="Trazado_126284" data-name="Trazado 126284" d="M-15.949,0h-1.98V-6.3l-1.945.568v-1.5l3.744-1.295h.182Zm8.5-3.486A4.074,4.074,0,0,1-8.229-.82a2.683,2.683,0,0,1-2.188.938,2.7,2.7,0,0,1-2.2-.943,4.067,4.067,0,0,1-.779-2.66V-5.045a4.074,4.074,0,0,1,.776-2.666,2.69,2.69,0,0,1,2.194-.937,2.691,2.691,0,0,1,2.2.943,4.077,4.077,0,0,1,.779,2.666ZM-9.428-5.3a3.043,3.043,0,0,0-.24-1.374.8.8,0,0,0-.762-.454.784.784,0,0,0-.741.422,2.866,2.866,0,0,0-.249,1.277v2.18a3.066,3.066,0,0,0,.24,1.4.806.806,0,0,0,.762.442.8.8,0,0,0,.744-.431,2.927,2.927,0,0,0,.246-1.351ZM-.5-3.486A4.074,4.074,0,0,1-1.28-.82,2.683,2.683,0,0,1-3.469.117a2.7,2.7,0,0,1-2.2-.943,4.067,4.067,0,0,1-.779-2.66V-5.045a4.074,4.074,0,0,1,.776-2.666A2.69,2.69,0,0,1-3.48-8.648a2.691,2.691,0,0,1,2.2.943A4.077,4.077,0,0,1-.5-5.039ZM-2.479-5.3a3.043,3.043,0,0,0-.24-1.374.8.8,0,0,0-.762-.454.784.784,0,0,0-.741.422,2.866,2.866,0,0,0-.249,1.277v2.18a3.066,3.066,0,0,0,.24,1.4.806.806,0,0,0,.762.442.8.8,0,0,0,.744-.431,2.927,2.927,0,0,0,.246-1.351Z" transform="translate(323.666 2716.872)" fill="#12263f"/>
    <path id="Trazado_126283" data-name="Trazado 126283" d="M-14.373,0h-5.953V-1.289l2.742-2.883A3.273,3.273,0,0,0-16.57-6.006a1.276,1.276,0,0,0-.24-.838.858.858,0,0,0-.7-.287.868.868,0,0,0-.732.384,1.577,1.577,0,0,0-.281.958H-20.5a2.8,2.8,0,0,1,.393-1.45,2.753,2.753,0,0,1,1.09-1.04,3.237,3.237,0,0,1,1.559-.375,3.185,3.185,0,0,1,2.13.639,2.28,2.28,0,0,1,.747,1.834,2.663,2.663,0,0,1-.187.981,4.3,4.3,0,0,1-.583,1,14.686,14.686,0,0,1-1.274,1.4l-1.1,1.271h3.357Zm6.92-3.486A4.074,4.074,0,0,1-8.229-.82a2.683,2.683,0,0,1-2.188.938,2.7,2.7,0,0,1-2.2-.943,4.067,4.067,0,0,1-.779-2.66V-5.045a4.074,4.074,0,0,1,.776-2.666,2.69,2.69,0,0,1,2.194-.937,2.691,2.691,0,0,1,2.2.943,4.077,4.077,0,0,1,.779,2.666ZM-9.428-5.3a3.043,3.043,0,0,0-.24-1.374.8.8,0,0,0-.762-.454.784.784,0,0,0-.741.422,2.866,2.866,0,0,0-.249,1.277v2.18a3.066,3.066,0,0,0,.24,1.4.806.806,0,0,0,.762.442.8.8,0,0,0,.744-.431,2.927,2.927,0,0,0,.246-1.351ZM-.5-3.486A4.074,4.074,0,0,1-1.28-.82,2.683,2.683,0,0,1-3.469.117a2.7,2.7,0,0,1-2.2-.943,4.067,4.067,0,0,1-.779-2.66V-5.045a4.074,4.074,0,0,1,.776-2.666A2.69,2.69,0,0,1-3.48-8.648a2.691,2.691,0,0,1,2.2.943A4.077,4.077,0,0,1-.5-5.039ZM-2.479-5.3a3.043,3.043,0,0,0-.24-1.374.8.8,0,0,0-.762-.454.784.784,0,0,0-.741.422,2.866,2.866,0,0,0-.249,1.277v2.18a3.066,3.066,0,0,0,.24,1.4.806.806,0,0,0,.762.442.8.8,0,0,0,.744-.431,2.927,2.927,0,0,0,.246-1.351Z" transform="translate(323.666 2682.829)" fill="#12263f"/>
    <path id="Trazado_126282" data-name="Trazado 126282" d="M-18.521-5.092h.932a.969.969,0,0,0,1.107-1.084.937.937,0,0,0-.264-.688,1,1,0,0,0-.744-.267,1.07,1.07,0,0,0-.683.229.7.7,0,0,0-.29.568h-1.975a2.021,2.021,0,0,1,.375-1.2,2.476,2.476,0,0,1,1.04-.823,3.556,3.556,0,0,1,1.462-.3A3.494,3.494,0,0,1-15.322-8a2.162,2.162,0,0,1,.814,1.787,1.8,1.8,0,0,1-.337,1.04,2.4,2.4,0,0,1-.981.794,2.294,2.294,0,0,1,1.066.747A1.967,1.967,0,0,1-14.373-2.4a2.2,2.2,0,0,1-.879,1.828,3.648,3.648,0,0,1-2.309.686A3.783,3.783,0,0,1-19.116-.2,2.437,2.437,0,0,1-20.2-1.087a2.3,2.3,0,0,1-.369-1.286h1.986a.889.889,0,0,0,.316.68,1.117,1.117,0,0,0,.779.287,1.17,1.17,0,0,0,.832-.29.969.969,0,0,0,.311-.741,1.133,1.133,0,0,0-.322-.914,1.347,1.347,0,0,0-.891-.27h-.961ZM-7.453-3.486A4.074,4.074,0,0,1-8.229-.82a2.683,2.683,0,0,1-2.188.938,2.7,2.7,0,0,1-2.2-.943,4.067,4.067,0,0,1-.779-2.66V-5.045a4.074,4.074,0,0,1,.776-2.666,2.69,2.69,0,0,1,2.194-.937,2.691,2.691,0,0,1,2.2.943,4.077,4.077,0,0,1,.779,2.666ZM-9.428-5.3a3.043,3.043,0,0,0-.24-1.374.8.8,0,0,0-.762-.454.784.784,0,0,0-.741.422,2.866,2.866,0,0,0-.249,1.277v2.18a3.066,3.066,0,0,0,.24,1.4.806.806,0,0,0,.762.442.8.8,0,0,0,.744-.431,2.927,2.927,0,0,0,.246-1.351ZM-.5-3.486A4.074,4.074,0,0,1-1.28-.82,2.683,2.683,0,0,1-3.469.117a2.7,2.7,0,0,1-2.2-.943,4.067,4.067,0,0,1-.779-2.66V-5.045a4.074,4.074,0,0,1,.776-2.666A2.69,2.69,0,0,1-3.48-8.648a2.691,2.691,0,0,1,2.2.943A4.077,4.077,0,0,1-.5-5.039ZM-2.479-5.3a3.043,3.043,0,0,0-.24-1.374.8.8,0,0,0-.762-.454.784.784,0,0,0-.741.422,2.866,2.866,0,0,0-.249,1.277v2.18a3.066,3.066,0,0,0,.24,1.4.806.806,0,0,0,.762.442.8.8,0,0,0,.744-.431,2.927,2.927,0,0,0,.246-1.351Z" transform="translate(323.666 2648.896)" fill="#12263f"/>
    <path id="Trazado_247356" data-name="Trazado 247356" d="M22.465,20.891a6.614,6.614,0,0,1-2.777,1.7,11.979,11.979,0,0,1-4.008.645,7.146,7.146,0,0,1-5.355-2.051A8.3,8.3,0,0,1,8.18,15.477L8.168,14a10.182,10.182,0,0,1,.891-4.4,6.614,6.614,0,0,1,2.549-2.895,7.21,7.21,0,0,1,3.838-1.014A7.559,7.559,0,0,1,20.4,7.15,6.182,6.182,0,0,1,22.453,11.5H18.492a3.235,3.235,0,0,0-.914-2.039,2.949,2.949,0,0,0-1.992-.609A2.684,2.684,0,0,0,13.2,10.168a7.008,7.008,0,0,0-.855,3.75v1.031a6.86,6.86,0,0,0,.873,3.838,3.088,3.088,0,0,0,2.748,1.283,3.456,3.456,0,0,0,2.391-.715V16.707H15.492V13.883h6.973Zm9.879-7-1.3-.094a2.336,2.336,0,0,0-2.391,1.172V23H24.7V10.32h3.7l.129,1.629a3.058,3.058,0,0,1,2.777-1.863,3.851,3.851,0,0,1,1.1.141ZM40.559,23a4.459,4.459,0,0,1-.375-1.137,3.672,3.672,0,0,1-3.047,1.371A4.5,4.5,0,0,1,34.09,22.15a3.45,3.45,0,0,1-1.254-2.725,3.546,3.546,0,0,1,1.523-3.117,7.761,7.761,0,0,1,4.43-1.055h1.219v-.671q0-1.755-1.512-1.755a1.236,1.236,0,0,0-1.406,1.39H33.141a3.54,3.54,0,0,1,1.564-2.985,6.575,6.575,0,0,1,3.99-1.147,5.764,5.764,0,0,1,3.832,1.184,4.115,4.115,0,0,1,1.441,3.246v5.613a5.748,5.748,0,0,0,.539,2.672V23Zm-2.473-2.578a2.2,2.2,0,0,0,1.225-.316,1.983,1.983,0,0,0,.7-.715V17.363H38.859q-2.062,0-2.062,1.852a1.131,1.131,0,0,0,.363.873A1.315,1.315,0,0,0,38.086,20.422ZM47.074,23V13.063h-1.84V10.32h1.84V9.9A4.841,4.841,0,0,1,48.738,6.02a6.649,6.649,0,0,1,4.324-1.266,15.345,15.345,0,0,1,4.125.68l-.539,3.117-.656-.176a10.443,10.443,0,0,0-2.7-.34q-2.262,0-2.262,2.063v.223H53.52v2.742H51.035V23ZM59,23H55.031V10.32H59Zm7.77-2.812a1.756,1.756,0,0,0,1.289-.451,1.654,1.654,0,0,0,.445-1.26h3.7A4.384,4.384,0,0,1,70.717,21.9a5.558,5.558,0,0,1-3.85,1.336A5.627,5.627,0,0,1,62.508,21.5a6.834,6.834,0,0,1-1.594-4.8v-.164a7.723,7.723,0,0,1,.709-3.393,5.162,5.162,0,0,1,2.045-2.262,6.1,6.1,0,0,1,3.164-.791,5.488,5.488,0,0,1,3.926,1.371,4.863,4.863,0,0,1,1.453,3.715h-3.7a2.168,2.168,0,0,0-.48-1.512,1.658,1.658,0,0,0-1.289-.527q-1.535,0-1.793,1.957a13.809,13.809,0,0,0-.082,1.711,5.424,5.424,0,0,0,.457,2.648A1.582,1.582,0,0,0,66.773,20.188Zm6.609-3.645a7.484,7.484,0,0,1,.738-3.381,5.28,5.28,0,0,1,2.121-2.279,6.388,6.388,0,0,1,3.246-.8,5.83,5.83,0,0,1,4.488,1.764,6.768,6.768,0,0,1,1.641,4.8v.141a6.566,6.566,0,0,1-1.646,4.705,5.846,5.846,0,0,1-4.459,1.74,5.912,5.912,0,0,1-4.348-1.623,6.348,6.348,0,0,1-1.77-4.4Zm3.949.246a4.718,4.718,0,0,0,.551,2.578,1.835,1.835,0,0,0,1.629.82q2.109,0,2.156-3.246v-.4q0-3.41-2.18-3.41-1.98,0-2.145,2.941Zm15.5-.223a7.746,7.746,0,0,1,1.3-4.746,4.282,4.282,0,0,1,3.633-1.734,3.641,3.641,0,0,1,2.859,1.336V5h3.961V23h-3.551l-.2-1.359a3.739,3.739,0,0,1-3.094,1.594A4.274,4.274,0,0,1,94.16,21.5,7.991,7.991,0,0,1,92.836,16.566Zm3.949.246q0,3.375,1.969,3.375a1.944,1.944,0,0,0,1.875-1.1V14.258a1.892,1.892,0,0,0-1.852-1.125q-1.828,0-1.98,2.953Zm16.184,6.422a6.518,6.518,0,0,1-4.723-1.74,6.009,6.009,0,0,1-1.8-4.529v-.328a7.787,7.787,0,0,1,.721-3.434,5.274,5.274,0,0,1,2.1-2.3,6.35,6.35,0,0,1,3.281-.814,5.489,5.489,0,0,1,4.219,1.658,6.516,6.516,0,0,1,1.547,4.623V17.9h-7.852a2.846,2.846,0,0,0,.926,1.676,2.755,2.755,0,0,0,1.852.609,3.549,3.549,0,0,0,2.93-1.312l1.8,2.133a5.045,5.045,0,0,1-2.092,1.623A7.069,7.069,0,0,1,112.969,23.234Zm-.445-10.1q-1.734,0-2.062,2.3h3.984v-.3a1.956,1.956,0,0,0-.48-1.471A1.912,1.912,0,0,0,112.523,13.133ZM41.32,46.766a7.728,7.728,0,0,1-1.289,4.793A4.318,4.318,0,0,1,36.4,53.234,3.747,3.747,0,0,1,33.281,51.7L33.117,53H29.578V35h3.949v6.34a3.615,3.615,0,0,1,2.848-1.254,4.319,4.319,0,0,1,3.656,1.7,7.768,7.768,0,0,1,1.289,4.781Zm-3.961-.252a5.155,5.155,0,0,0-.486-2.6,1.639,1.639,0,0,0-1.494-.778,1.891,1.891,0,0,0-1.852,1.018v5.031A1.9,1.9,0,0,0,35.4,50.188a1.677,1.677,0,0,0,1.77-1.357A9.745,9.745,0,0,0,37.359,46.514ZM50.2,53a4.459,4.459,0,0,1-.375-1.137,3.672,3.672,0,0,1-3.047,1.371,4.5,4.5,0,0,1-3.047-1.084,3.45,3.45,0,0,1-1.254-2.725A3.546,3.546,0,0,1,44,46.309a7.761,7.761,0,0,1,4.43-1.055h1.219v-.671q0-1.755-1.512-1.755a1.236,1.236,0,0,0-1.406,1.39H42.785a3.54,3.54,0,0,1,1.564-2.985,6.575,6.575,0,0,1,3.99-1.147,5.764,5.764,0,0,1,3.832,1.184,4.115,4.115,0,0,1,1.441,3.246v5.613a5.748,5.748,0,0,0,.539,2.672V53ZM47.73,50.422a2.2,2.2,0,0,0,1.225-.316,1.983,1.983,0,0,0,.7-.715V47.363H48.5q-2.062,0-2.062,1.852a1.131,1.131,0,0,0,.363.873A1.315,1.315,0,0,0,47.73,50.422Zm15.738-6.527-1.3-.094a2.336,2.336,0,0,0-2.391,1.172V53H55.828V40.32h3.7l.129,1.629a3.058,3.058,0,0,1,2.777-1.863,3.851,3.851,0,0,1,1.1.141Zm9.094,0-1.3-.094a2.336,2.336,0,0,0-2.391,1.172V53H64.922V40.32h3.7l.129,1.629a3.058,3.058,0,0,1,2.777-1.863,3.851,3.851,0,0,1,1.1.141ZM80.777,53a4.459,4.459,0,0,1-.375-1.137,3.672,3.672,0,0,1-3.047,1.371,4.5,4.5,0,0,1-3.047-1.084,3.45,3.45,0,0,1-1.254-2.725,3.546,3.546,0,0,1,1.523-3.117,7.761,7.761,0,0,1,4.43-1.055h1.219v-.671q0-1.755-1.512-1.755a1.236,1.236,0,0,0-1.406,1.39H73.359a3.54,3.54,0,0,1,1.564-2.985,6.575,6.575,0,0,1,3.99-1.147,5.764,5.764,0,0,1,3.832,1.184,4.115,4.115,0,0,1,1.441,3.246v5.613a5.748,5.748,0,0,0,.539,2.672V53ZM78.3,50.422a2.2,2.2,0,0,0,1.225-.316,1.983,1.983,0,0,0,.7-.715V47.363H79.078q-2.062,0-2.062,1.852a1.131,1.131,0,0,0,.363.873A1.315,1.315,0,0,0,78.3,50.422Zm14.707-.984a.912.912,0,0,0-.527-.809,8.021,8.021,0,0,0-2-.633,9.138,9.138,0,0,1-2.437-.861,4.083,4.083,0,0,1-1.465-1.295,3.092,3.092,0,0,1-.5-1.746,3.5,3.5,0,0,1,1.441-2.877,5.938,5.938,0,0,1,3.773-1.131,6.579,6.579,0,0,1,4.031,1.137,3.555,3.555,0,0,1,1.523,2.988H92.883q0-1.523-1.605-1.523a1.591,1.591,0,0,0-1.043.346,1.07,1.07,0,0,0-.422.861.982.982,0,0,0,.516.855,4.872,4.872,0,0,0,1.646.539,14.228,14.228,0,0,1,1.986.5q2.859.984,2.859,3.527a3.321,3.321,0,0,1-1.541,2.824,6.758,6.758,0,0,1-3.99,1.09,6.9,6.9,0,0,1-2.906-.586,4.86,4.86,0,0,1-1.992-1.594,3.609,3.609,0,0,1-.715-2.121h3.691a1.526,1.526,0,0,0,.586,1.283,2.41,2.41,0,0,0,1.441.4,1.9,1.9,0,0,0,1.213-.328A1.05,1.05,0,0,0,93.012,49.438Z" transform="translate(321 2803.496)" fill="#12263f"/>
    <g id="Grupo_130458-2" data-name="Grupo 130458" transform="translate(594.938 2635.628) rotate(90)">
      <path id="Trazado_121383-2" data-name="Trazado 121383" d="M218.716,7.665S165.3-4.386,106.787,1.733C80.421,4.491,17.474,14.231,0,7.665" fill="#fef536"/>
    </g>
    <g id="Grupo_130459-2" data-name="Grupo 130459" transform="translate(685 2571) rotate(90)">
      <path id="Trazado_121384-2" data-name="Trazado 121384" d="M76.2,190c-13.911,0-24.372-1.239-32.565-4.013C14.1,175.985-4.934,128.343,1.124,79.573,7.13,31.206,35.568-.1,64.844,9.136c12.864,2.6,63.54-3,82.7-5.113,7.951-.878,14.819-1.635,20.525-2.171,68-6.41,129.388,5.837,131.967,6.361,29.927,6.085,51.2,51.074,47.514,100.485s-30.919,84.53-60.853,78.453c-1.678-.332-55.191-10.7-112.406-5.306-5.176.486-11.8,1.217-19.464,2.064C120.312,187.718,95.081,190,76.2,190ZM65.541,9.365l.032.01Z" fill="#fef536"/>
    </g>
    <path id="Trazado_126261" data-name="Trazado 126261" d="M-7881-8329.919l21.333-21.081,25.334,8.462,11.777-17.7,12.223,13.028,11.11-13.128,12.445,17.694,32.444-13.028" transform="translate(8406.999 11092.957)" fill="none" stroke="#12263f" stroke-linecap="round" stroke-linejoin="round" stroke-width="5"/>
    <g id="Grupo_155464" data-name="Grupo 155464" transform="translate(525.999 2681.389)">
      <path id="Trazado_126262" data-name="Trazado 126262" d="M-7881-8414.3l19.333-12.363,17.778,14.218,24.666-22.254,30.445,15.272,16.889-19.908,17.556,22.563" transform="translate(7881 8444.221)" fill="none" stroke="#12263f" stroke-linecap="round" stroke-linejoin="round" stroke-width="5"/>
      <g id="Elipse_4709" data-name="Elipse 4709" transform="translate(13.333 12.667)" fill="#fff" stroke="#64b5f6" stroke-width="4">
        <circle cx="6" cy="6" r="6" stroke="none"/>
        <circle cx="6" cy="6" r="4" fill="none"/>
      </g>
      <g id="Elipse_4710" data-name="Elipse 4710" transform="translate(31.333 24.667)" fill="#fff" stroke="#64b5f6" stroke-width="4">
        <circle cx="6" cy="6" r="6" stroke="none"/>
        <circle cx="6" cy="6" r="4" fill="none"/>
      </g>
      <g id="Elipse_4711" data-name="Elipse 4711" transform="translate(56.667 4.667)" fill="#fff" stroke="#64b5f6" stroke-width="4">
        <circle cx="6" cy="6" r="6" stroke="none"/>
        <circle cx="6" cy="6" r="4" fill="none"/>
      </g>
      <g id="Elipse_4712" data-name="Elipse 4712" transform="translate(86 18)" fill="#fff" stroke="#64b5f6" stroke-width="4">
        <circle cx="6" cy="6" r="6" stroke="none"/>
        <circle cx="6" cy="6" r="4" fill="none"/>
      </g>
      <g id="Elipse_4713" data-name="Elipse 4713" transform="translate(103.334)" fill="#fff" stroke="#64b5f6" stroke-width="4">
        <circle cx="6" cy="6" r="6" stroke="none"/>
        <circle cx="6" cy="6" r="4" fill="none"/>
      </g>
    </g>
    <path id="Trazado_126265" data-name="Trazado 126265" d="M-7881-8390.909l21.758-13.673,20.053,30.08,14.855-16.407,17.5,10.938,20.052-24.611,12.3,13.673,20.143-21.419" transform="translate(8406.999 11053.815)" fill="none" stroke="#12263f" stroke-linecap="round" stroke-linejoin="round" stroke-width="5"/>
    <path id="Trazado_247341" data-name="Trazado 247341" d="M0,0H126.667" transform="translate(526 2763.039)" fill="none" stroke="#12263f" stroke-linecap="round" stroke-width="5"/>
    <path id="Trazado_247342" data-name="Trazado 247342" d="M0,0V127" transform="translate(526 2636.039)" fill="none" stroke="#12263f" stroke-linecap="round" stroke-width="5"/>
    <g id="Trazado_247343" data-name="Trazado 247343" transform="translate(541.333 2644.055)" fill="#fff">
      <path d="M 6.000021457672119 10.00004100799561 C 3.794401407241821 10.00004100799561 2.000001430511475 8.205641746520996 2.000001430511475 6.000021457672119 C 2.000001430511475 3.794401407241821 3.794401407241821 2.000001430511475 6.000021457672119 2.000001430511475 C 8.205641746520996 2.000001430511475 10.00004100799561 3.794401407241821 10.00004100799561 6.000021457672119 C 10.00004100799561 8.205641746520996 8.205641746520996 10.00004100799561 6.000021457672119 10.00004100799561 Z" stroke="none"/>
      <path d="M 6.000021457672119 4.000001907348633 C 4.89721155166626 4.000001907348633 4.000001907348633 4.89721155166626 4.000001907348633 6.000021457672119 C 4.000001907348633 7.102831363677979 4.89721155166626 8.000041961669922 6.000021457672119 8.000041961669922 C 7.102831363677979 8.000041961669922 8.000041961669922 7.102831363677979 8.000041961669922 6.000021457672119 C 8.000041961669922 4.89721155166626 7.102831363677979 4.000001907348633 6.000021457672119 4.000001907348633 M 6.000021457672119 1.9073486328125e-06 C 9.313741683959961 1.9073486328125e-06 12.00004100799561 2.686301231384277 12.00004100799561 6.000021457672119 C 12.00004100799561 9.313741683959961 9.313741683959961 12.00004100799561 6.000021457672119 12.00004100799561 C 2.686301231384277 12.00004100799561 1.9073486328125e-06 9.313741683959961 1.9073486328125e-06 6.000021457672119 C 1.9073486328125e-06 2.686301231384277 2.686301231384277 1.9073486328125e-06 6.000021457672119 1.9073486328125e-06 Z" stroke="none" fill="#ba68c8"/>
    </g>
    <g id="Trazado_247344" data-name="Trazado 247344" transform="translate(562.666 2672.646)" fill="#fff">
      <path d="M 6.000021457672119 10.00004100799561 C 3.794401407241821 10.00004100799561 2.000001430511475 8.205641746520996 2.000001430511475 6.000021457672119 C 2.000001430511475 3.794401407241821 3.794401407241821 2.000001430511475 6.000021457672119 2.000001430511475 C 8.205641746520996 2.000001430511475 10.00004100799561 3.794401407241821 10.00004100799561 6.000021457672119 C 10.00004100799561 8.205641746520996 8.205641746520996 10.00004100799561 6.000021457672119 10.00004100799561 Z" stroke="none"/>
      <path d="M 6.000021457672119 4.000001907348633 C 4.89721155166626 4.000001907348633 4.000001907348633 4.89721155166626 4.000001907348633 6.000021457672119 C 4.000001907348633 7.102831363677979 4.89721155166626 8.000041961669922 6.000021457672119 8.000041961669922 C 7.102831363677979 8.000041961669922 8.000041961669922 7.102831363677979 8.000041961669922 6.000021457672119 C 8.000041961669922 4.89721155166626 7.102831363677979 4.000001907348633 6.000021457672119 4.000001907348633 M 6.000021457672119 1.9073486328125e-06 C 9.313741683959961 1.9073486328125e-06 12.00004100799561 2.686301231384277 12.00004100799561 6.000021457672119 C 12.00004100799561 9.313741683959961 9.313741683959961 12.00004100799561 6.000021457672119 12.00004100799561 C 2.686301231384277 12.00004100799561 1.9073486328125e-06 9.313741683959961 1.9073486328125e-06 6.000021457672119 C 1.9073486328125e-06 2.686301231384277 2.686301231384277 1.9073486328125e-06 6.000021457672119 1.9073486328125e-06 Z" stroke="none" fill="#ba68c8"/>
    </g>
    <g id="Trazado_247345" data-name="Trazado 247345" transform="translate(575.999 2657.389)" fill="#fff">
      <path d="M 6.000021457672119 10.00004100799561 C 3.794401407241821 10.00004100799561 2.000001430511475 8.205641746520996 2.000001430511475 6.000021457672119 C 2.000001430511475 3.794401407241821 3.794401407241821 2.000001430511475 6.000021457672119 2.000001430511475 C 8.205641746520996 2.000001430511475 10.00004100799561 3.794401407241821 10.00004100799561 6.000021457672119 C 10.00004100799561 8.205641746520996 8.205641746520996 10.00004100799561 6.000021457672119 10.00004100799561 Z" stroke="none"/>
      <path d="M 6.000021457672119 4.000001907348633 C 4.89721155166626 4.000001907348633 4.000001907348633 4.89721155166626 4.000001907348633 6.000021457672119 C 4.000001907348633 7.102831363677979 4.89721155166626 8.000041961669922 6.000021457672119 8.000041961669922 C 7.102831363677979 8.000041961669922 8.000041961669922 7.102831363677979 8.000041961669922 6.000021457672119 C 8.000041961669922 4.89721155166626 7.102831363677979 4.000001907348633 6.000021457672119 4.000001907348633 M 6.000021457672119 1.9073486328125e-06 C 9.313741683959961 1.9073486328125e-06 12.00004100799561 2.686301231384277 12.00004100799561 6.000021457672119 C 12.00004100799561 9.313741683959961 9.313741683959961 12.00004100799561 6.000021457672119 12.00004100799561 C 2.686301231384277 12.00004100799561 1.9073486328125e-06 9.313741683959961 1.9073486328125e-06 6.000021457672119 C 1.9073486328125e-06 2.686301231384277 2.686301231384277 1.9073486328125e-06 6.000021457672119 1.9073486328125e-06 Z" stroke="none" fill="#ba68c8"/>
    </g>
    <g id="Trazado_247346" data-name="Trazado 247346" transform="translate(593.999 2667.313)" fill="#fff">
      <path d="M 6.000021457672119 10.00004100799561 C 3.794401407241821 10.00004100799561 2.000001430511475 8.205641746520996 2.000001430511475 6.000021457672119 C 2.000001430511475 3.794401407241821 3.794401407241821 2.000001430511475 6.000021457672119 2.000001430511475 C 8.205641746520996 2.000001430511475 10.00004100799561 3.794401407241821 10.00004100799561 6.000021457672119 C 10.00004100799561 8.205641746520996 8.205641746520996 10.00004100799561 6.000021457672119 10.00004100799561 Z" stroke="none"/>
      <path d="M 6.000021457672119 4.000001907348633 C 4.89721155166626 4.000001907348633 4.000001907348633 4.89721155166626 4.000001907348633 6.000021457672119 C 4.000001907348633 7.102831363677979 4.89721155166626 8.000041961669922 6.000021457672119 8.000041961669922 C 7.102831363677979 8.000041961669922 8.000041961669922 7.102831363677979 8.000041961669922 6.000021457672119 C 8.000041961669922 4.89721155166626 7.102831363677979 4.000001907348633 6.000021457672119 4.000001907348633 M 6.000021457672119 1.9073486328125e-06 C 9.313741683959961 1.9073486328125e-06 12.00004100799561 2.686301231384277 12.00004100799561 6.000021457672119 C 12.00004100799561 9.313741683959961 9.313741683959961 12.00004100799561 6.000021457672119 12.00004100799561 C 2.686301231384277 12.00004100799561 1.9073486328125e-06 9.313741683959961 1.9073486328125e-06 6.000021457672119 C 1.9073486328125e-06 2.686301231384277 2.686301231384277 1.9073486328125e-06 6.000021457672119 1.9073486328125e-06 Z" stroke="none" fill="#ba68c8"/>
    </g>
    <g id="Trazado_247347" data-name="Trazado 247347" transform="translate(614 2644.055)" fill="#fff">
      <path d="M 6.000021457672119 10.00004100799561 C 3.794401407241821 10.00004100799561 2.000001430511475 8.205641746520996 2.000001430511475 6.000021457672119 C 2.000001430511475 3.794401407241821 3.794401407241821 2.000001430511475 6.000021457672119 2.000001430511475 C 8.205641746520996 2.000001430511475 10.00004100799561 3.794401407241821 10.00004100799561 6.000021457672119 C 10.00004100799561 8.205641746520996 8.205641746520996 10.00004100799561 6.000021457672119 10.00004100799561 Z" stroke="none"/>
      <path d="M 6.000021457672119 4.000001907348633 C 4.89721155166626 4.000001907348633 4.000001907348633 4.89721155166626 4.000001907348633 6.000021457672119 C 4.000001907348633 7.102831363677979 4.89721155166626 8.000041961669922 6.000021457672119 8.000041961669922 C 7.102831363677979 8.000041961669922 8.000041961669922 7.102831363677979 8.000041961669922 6.000021457672119 C 8.000041961669922 4.89721155166626 7.102831363677979 4.000001907348633 6.000021457672119 4.000001907348633 M 6.000021457672119 1.9073486328125e-06 C 9.313741683959961 1.9073486328125e-06 12.00004100799561 2.686301231384277 12.00004100799561 6.000021457672119 C 12.00004100799561 9.313741683959961 9.313741683959961 12.00004100799561 6.000021457672119 12.00004100799561 C 2.686301231384277 12.00004100799561 1.9073486328125e-06 9.313741683959961 1.9073486328125e-06 6.000021457672119 C 1.9073486328125e-06 2.686301231384277 2.686301231384277 1.9073486328125e-06 6.000021457672119 1.9073486328125e-06 Z" stroke="none" fill="#ba68c8"/>
    </g>
    <g id="Trazado_247348" data-name="Trazado 247348" transform="translate(627.333 2656.722)" fill="#fff">
      <path d="M 6.000021457672119 10.00004100799561 C 3.794401407241821 10.00004100799561 2.000001430511475 8.205641746520996 2.000001430511475 6.000021457672119 C 2.000001430511475 3.794401407241821 3.794401407241821 2.000001430511475 6.000021457672119 2.000001430511475 C 8.205641746520996 2.000001430511475 10.00004100799561 3.794401407241821 10.00004100799561 6.000021457672119 C 10.00004100799561 8.205641746520996 8.205641746520996 10.00004100799561 6.000021457672119 10.00004100799561 Z" stroke="none"/>
      <path d="M 6.000021457672119 4.000001907348633 C 4.89721155166626 4.000001907348633 4.000001907348633 4.89721155166626 4.000001907348633 6.000021457672119 C 4.000001907348633 7.102831363677979 4.89721155166626 8.000041961669922 6.000021457672119 8.000041961669922 C 7.102831363677979 8.000041961669922 8.000041961669922 7.102831363677979 8.000041961669922 6.000021457672119 C 8.000041961669922 4.89721155166626 7.102831363677979 4.000001907348633 6.000021457672119 4.000001907348633 M 6.000021457672119 1.9073486328125e-06 C 9.313741683959961 1.9073486328125e-06 12.00004100799561 2.686301231384277 12.00004100799561 6.000021457672119 C 12.00004100799561 9.313741683959961 9.313741683959961 12.00004100799561 6.000021457672119 12.00004100799561 C 2.686301231384277 12.00004100799561 1.9073486328125e-06 9.313741683959961 1.9073486328125e-06 6.000021457672119 C 1.9073486328125e-06 2.686301231384277 2.686301231384277 1.9073486328125e-06 6.000021457672119 1.9073486328125e-06 Z" stroke="none" fill="#ba68c8"/>
    </g>
    <g id="Trazado_247349" data-name="Trazado 247349" transform="translate(541.332 2736.831)" fill="#fff">
      <path d="M 6.000021457672119 10.00004100799561 C 3.794401407241821 10.00004100799561 2.000001430511475 8.205641746520996 2.000001430511475 6.000021457672119 C 2.000001430511475 3.794401407241821 3.794401407241821 2.000001430511475 6.000021457672119 2.000001430511475 C 8.205641746520996 2.000001430511475 10.00004100799561 3.794401407241821 10.00004100799561 6.000021457672119 C 10.00004100799561 8.205641746520996 8.205641746520996 10.00004100799561 6.000021457672119 10.00004100799561 Z" stroke="none"/>
      <path d="M 6.000021457672119 4.000001907348633 C 4.89721155166626 4.000001907348633 4.000001907348633 4.89721155166626 4.000001907348633 6.000021457672119 C 4.000001907348633 7.102831363677979 4.89721155166626 8.000041961669922 6.000021457672119 8.000041961669922 C 7.102831363677979 8.000041961669922 8.000041961669922 7.102831363677979 8.000041961669922 6.000021457672119 C 8.000041961669922 4.89721155166626 7.102831363677979 4.000001907348633 6.000021457672119 4.000001907348633 M 6.000021457672119 1.9073486328125e-06 C 9.313741683959961 1.9073486328125e-06 12.00004100799561 2.686301231384277 12.00004100799561 6.000021457672119 C 12.00004100799561 9.313741683959961 9.313741683959961 12.00004100799561 6.000021457672119 12.00004100799561 C 2.686301231384277 12.00004100799561 1.9073486328125e-06 9.313741683959961 1.9073486328125e-06 6.000021457672119 C 1.9073486328125e-06 2.686301231384277 2.686301231384277 1.9073486328125e-06 6.000021457672119 1.9073486328125e-06 Z" stroke="none" fill="#5c22c3"/>
    </g>
    <g id="Trazado_247350" data-name="Trazado 247350" transform="translate(567 2743.831)" fill="#fff">
      <path d="M 6.000021457672119 10.00004100799561 C 3.794401407241821 10.00004100799561 2.000001430511475 8.205641746520996 2.000001430511475 6.000021457672119 C 2.000001430511475 3.794401407241821 3.794401407241821 2.000001430511475 6.000021457672119 2.000001430511475 C 8.205641746520996 2.000001430511475 10.00004100799561 3.794401407241821 10.00004100799561 6.000021457672119 C 10.00004100799561 8.205641746520996 8.205641746520996 10.00004100799561 6.000021457672119 10.00004100799561 Z" stroke="none"/>
      <path d="M 6.000021457672119 4.000001907348633 C 4.89721155166626 4.000001907348633 4.000001907348633 4.89721155166626 4.000001907348633 6.000021457672119 C 4.000001907348633 7.102831363677979 4.89721155166626 8.000041961669922 6.000021457672119 8.000041961669922 C 7.102831363677979 8.000041961669922 8.000041961669922 7.102831363677979 8.000041961669922 6.000021457672119 C 8.000041961669922 4.89721155166626 7.102831363677979 4.000001907348633 6.000021457672119 4.000001907348633 M 6.000021457672119 1.9073486328125e-06 C 9.313741683959961 1.9073486328125e-06 12.00004100799561 2.686301231384277 12.00004100799561 6.000021457672119 C 12.00004100799561 9.313741683959961 9.313741683959961 12.00004100799561 6.000021457672119 12.00004100799561 C 2.686301231384277 12.00004100799561 1.9073486328125e-06 9.313741683959961 1.9073486328125e-06 6.000021457672119 C 1.9073486328125e-06 2.686301231384277 2.686301231384277 1.9073486328125e-06 6.000021457672119 1.9073486328125e-06 Z" stroke="none" fill="#5c22c3"/>
    </g>
    <g id="Trazado_247351" data-name="Trazado 247351" transform="translate(578 2726.623)" fill="#fff">
      <path d="M 6.000021457672119 10.00004100799561 C 3.794401407241821 10.00004100799561 2.000001430511475 8.205641746520996 2.000001430511475 6.000021457672119 C 2.000001430511475 3.794401407241821 3.794401407241821 2.000001430511475 6.000021457672119 2.000001430511475 C 8.205641746520996 2.000001430511475 10.00004100799561 3.794401407241821 10.00004100799561 6.000021457672119 C 10.00004100799561 8.205641746520996 8.205641746520996 10.00004100799561 6.000021457672119 10.00004100799561 Z" stroke="none"/>
      <path d="M 6.000021457672119 4.000001907348633 C 4.89721155166626 4.000001907348633 4.000001907348633 4.89721155166626 4.000001907348633 6.000021457672119 C 4.000001907348633 7.102831363677979 4.89721155166626 8.000041961669922 6.000021457672119 8.000041961669922 C 7.102831363677979 8.000041961669922 8.000041961669922 7.102831363677979 8.000041961669922 6.000021457672119 C 8.000041961669922 4.89721155166626 7.102831363677979 4.000001907348633 6.000021457672119 4.000001907348633 M 6.000021457672119 1.9073486328125e-06 C 9.313741683959961 1.9073486328125e-06 12.00004100799561 2.686301231384277 12.00004100799561 6.000021457672119 C 12.00004100799561 9.313741683959961 9.313741683959961 12.00004100799561 6.000021457672119 12.00004100799561 C 2.686301231384277 12.00004100799561 1.9073486328125e-06 9.313741683959961 1.9073486328125e-06 6.000021457672119 C 1.9073486328125e-06 2.686301231384277 2.686301231384277 1.9073486328125e-06 6.000021457672119 1.9073486328125e-06 Z" stroke="none" fill="#5c22c3"/>
    </g>
    <g id="Trazado_247352" data-name="Trazado 247352" transform="translate(591 2739.831)" fill="#fff">
      <path d="M 6.000021457672119 10.00004100799561 C 3.794401407241821 10.00004100799561 2.000001430511475 8.205641746520996 2.000001430511475 6.000021457672119 C 2.000001430511475 3.794401407241821 3.794401407241821 2.000001430511475 6.000021457672119 2.000001430511475 C 8.205641746520996 2.000001430511475 10.00004100799561 3.794401407241821 10.00004100799561 6.000021457672119 C 10.00004100799561 8.205641746520996 8.205641746520996 10.00004100799561 6.000021457672119 10.00004100799561 Z" stroke="none"/>
      <path d="M 6.000021457672119 4.000001907348633 C 4.89721155166626 4.000001907348633 4.000001907348633 4.89721155166626 4.000001907348633 6.000021457672119 C 4.000001907348633 7.102831363677979 4.89721155166626 8.000041961669922 6.000021457672119 8.000041961669922 C 7.102831363677979 8.000041961669922 8.000041961669922 7.102831363677979 8.000041961669922 6.000021457672119 C 8.000041961669922 4.89721155166626 7.102831363677979 4.000001907348633 6.000021457672119 4.000001907348633 M 6.000021457672119 1.9073486328125e-06 C 9.313741683959961 1.9073486328125e-06 12.00004100799561 2.686301231384277 12.00004100799561 6.000021457672119 C 12.00004100799561 9.313741683959961 9.313741683959961 12.00004100799561 6.000021457672119 12.00004100799561 C 2.686301231384277 12.00004100799561 1.9073486328125e-06 9.313741683959961 1.9073486328125e-06 6.000021457672119 C 1.9073486328125e-06 2.686301231384277 2.686301231384277 1.9073486328125e-06 6.000021457672119 1.9073486328125e-06 Z" stroke="none" fill="#5c22c3"/>
    </g>
    <g id="Trazado_247353" data-name="Trazado 247353" transform="translate(615 2743.831)" fill="#fff">
      <path d="M 6.000021457672119 10.00004100799561 C 3.794401407241821 10.00004100799561 2.000001430511475 8.205641746520996 2.000001430511475 6.000021457672119 C 2.000001430511475 3.794401407241821 3.794401407241821 2.000001430511475 6.000021457672119 2.000001430511475 C 8.205641746520996 2.000001430511475 10.00004100799561 3.794401407241821 10.00004100799561 6.000021457672119 C 10.00004100799561 8.205641746520996 8.205641746520996 10.00004100799561 6.000021457672119 10.00004100799561 Z" stroke="none"/>
      <path d="M 6.000021457672119 4.000001907348633 C 4.89721155166626 4.000001907348633 4.000001907348633 4.89721155166626 4.000001907348633 6.000021457672119 C 4.000001907348633 7.102831363677979 4.89721155166626 8.000041961669922 6.000021457672119 8.000041961669922 C 7.102831363677979 8.000041961669922 8.000041961669922 7.102831363677979 8.000041961669922 6.000021457672119 C 8.000041961669922 4.89721155166626 7.102831363677979 4.000001907348633 6.000021457672119 4.000001907348633 M 6.000021457672119 1.9073486328125e-06 C 9.313741683959961 1.9073486328125e-06 12.00004100799561 2.686301231384277 12.00004100799561 6.000021457672119 C 12.00004100799561 9.313741683959961 9.313741683959961 12.00004100799561 6.000021457672119 12.00004100799561 C 2.686301231384277 12.00004100799561 1.9073486328125e-06 9.313741683959961 1.9073486328125e-06 6.000021457672119 C 1.9073486328125e-06 2.686301231384277 2.686301231384277 1.9073486328125e-06 6.000021457672119 1.9073486328125e-06 Z" stroke="none" fill="#5c22c3"/>
    </g>
    <path id="Trazado_247354" data-name="Trazado 247354" d="M16.318,20.891a6.614,6.614,0,0,1-2.777,1.7,11.979,11.979,0,0,1-4.008.645,7.146,7.146,0,0,1-5.355-2.051,8.3,8.3,0,0,1-2.145-5.707L2.021,14a10.182,10.182,0,0,1,.891-4.4A6.614,6.614,0,0,1,5.461,6.705,7.21,7.21,0,0,1,9.3,5.691,7.559,7.559,0,0,1,14.25,7.15,6.182,6.182,0,0,1,16.307,11.5H12.346a3.235,3.235,0,0,0-.914-2.039,2.949,2.949,0,0,0-1.992-.609,2.684,2.684,0,0,0-2.391,1.313,7.008,7.008,0,0,0-.855,3.75v1.031a6.86,6.86,0,0,0,.873,3.838A3.088,3.088,0,0,0,9.814,20.07a3.456,3.456,0,0,0,2.391-.715V16.707H9.346V13.883h6.973Zm9.879-7L24.9,13.8a2.336,2.336,0,0,0-2.391,1.172V23H18.557V10.32h3.7l.129,1.629a3.058,3.058,0,0,1,2.777-1.863,3.851,3.851,0,0,1,1.1.141ZM34.412,23a4.459,4.459,0,0,1-.375-1.137,3.672,3.672,0,0,1-3.047,1.371,4.5,4.5,0,0,1-3.047-1.084,3.45,3.45,0,0,1-1.254-2.725,3.546,3.546,0,0,1,1.523-3.117,7.761,7.761,0,0,1,4.43-1.055h1.219v-.671q0-1.755-1.512-1.755a1.236,1.236,0,0,0-1.406,1.39H26.994a3.54,3.54,0,0,1,1.564-2.985,6.575,6.575,0,0,1,3.99-1.147,5.764,5.764,0,0,1,3.832,1.184,4.115,4.115,0,0,1,1.441,3.246v5.613a5.748,5.748,0,0,0,.539,2.672V23Zm-2.473-2.578a2.2,2.2,0,0,0,1.225-.316,1.983,1.983,0,0,0,.7-.715V17.363H32.713q-2.062,0-2.062,1.852a1.131,1.131,0,0,0,.363.873A1.315,1.315,0,0,0,31.939,20.422ZM32.924,5H37.1L33.838,8.68l-3.223-.006Zm8,18V13.063h-1.84V10.32h1.84V9.9A4.841,4.841,0,0,1,42.592,6.02a6.649,6.649,0,0,1,4.324-1.266,15.345,15.345,0,0,1,4.125.68L50.5,8.551l-.656-.176a10.443,10.443,0,0,0-2.7-.34q-2.262,0-2.262,2.063v.223h2.484v2.742H44.889V23Zm11.93,0H48.885V10.32h3.973Zm7.77-2.812a1.756,1.756,0,0,0,1.289-.451,1.654,1.654,0,0,0,.445-1.26h3.7A4.384,4.384,0,0,1,64.57,21.9a5.558,5.558,0,0,1-3.85,1.336A5.627,5.627,0,0,1,56.361,21.5a6.834,6.834,0,0,1-1.594-4.8v-.164a7.723,7.723,0,0,1,.709-3.393,5.162,5.162,0,0,1,2.045-2.262,6.1,6.1,0,0,1,3.164-.791,5.488,5.488,0,0,1,3.926,1.371,4.863,4.863,0,0,1,1.453,3.715h-3.7a2.168,2.168,0,0,0-.48-1.512,1.658,1.658,0,0,0-1.289-.527q-1.535,0-1.793,1.957a13.809,13.809,0,0,0-.082,1.711,5.424,5.424,0,0,0,.457,2.648A1.582,1.582,0,0,0,60.627,20.188Zm6.609-3.645a7.484,7.484,0,0,1,.738-3.381A5.28,5.28,0,0,1,70.1,10.883a6.388,6.388,0,0,1,3.246-.8A5.83,5.83,0,0,1,77.83,11.85a6.768,6.768,0,0,1,1.641,4.8v.141a6.566,6.566,0,0,1-1.646,4.705,5.846,5.846,0,0,1-4.459,1.74,5.912,5.912,0,0,1-4.348-1.623,6.348,6.348,0,0,1-1.77-4.4Zm3.949.246a4.718,4.718,0,0,0,.551,2.578,1.835,1.835,0,0,0,1.629.82q2.109,0,2.156-3.246v-.4q0-3.41-2.18-3.41-1.98,0-2.145,2.941ZM87.85,19.438a.912.912,0,0,0-.527-.809,8.021,8.021,0,0,0-2-.633,9.138,9.138,0,0,1-2.437-.861,4.083,4.083,0,0,1-1.465-1.295,3.092,3.092,0,0,1-.5-1.746,3.5,3.5,0,0,1,1.441-2.877,5.938,5.938,0,0,1,3.773-1.131,6.579,6.579,0,0,1,4.031,1.137,3.555,3.555,0,0,1,1.523,2.988H87.721q0-1.523-1.605-1.523a1.591,1.591,0,0,0-1.043.346,1.07,1.07,0,0,0-.422.861.982.982,0,0,0,.516.855,4.872,4.872,0,0,0,1.646.539,14.228,14.228,0,0,1,1.986.5q2.859.984,2.859,3.527a3.321,3.321,0,0,1-1.541,2.824,6.758,6.758,0,0,1-3.99,1.09,6.9,6.9,0,0,1-2.906-.586,4.86,4.86,0,0,1-1.992-1.594,3.609,3.609,0,0,1-.715-2.121h3.691a1.526,1.526,0,0,0,.586,1.283,2.41,2.41,0,0,0,1.441.4,1.9,1.9,0,0,0,1.213-.328A1.05,1.05,0,0,0,87.85,19.438Zm11.133-2.871a7.746,7.746,0,0,1,1.3-4.746,4.282,4.282,0,0,1,3.633-1.734,3.641,3.641,0,0,1,2.859,1.336V5h3.961V23h-3.551l-.2-1.359a3.739,3.739,0,0,1-3.094,1.594,4.274,4.274,0,0,1-3.586-1.734A7.991,7.991,0,0,1,98.982,16.566Zm3.949.246q0,3.375,1.969,3.375a1.944,1.944,0,0,0,1.875-1.1V14.258a1.892,1.892,0,0,0-1.852-1.125q-1.828,0-1.98,2.953Zm16.184,6.422a6.518,6.518,0,0,1-4.723-1.74,6.009,6.009,0,0,1-1.8-4.529v-.328a7.787,7.787,0,0,1,.721-3.434,5.274,5.274,0,0,1,2.1-2.3,6.35,6.35,0,0,1,3.281-.814,5.489,5.489,0,0,1,4.219,1.658,6.516,6.516,0,0,1,1.547,4.623V17.9h-7.852a2.846,2.846,0,0,0,.926,1.676,2.755,2.755,0,0,0,1.852.609,3.549,3.549,0,0,0,2.93-1.312l1.8,2.133a5.045,5.045,0,0,1-2.092,1.623A7.069,7.069,0,0,1,119.115,23.234Zm-.445-10.1q-1.734,0-2.062,2.3h3.984v-.3a1.956,1.956,0,0,0-.48-1.471A1.912,1.912,0,0,0,118.67,13.133ZM35.736,53H31.775V35h3.961Zm6.738,0H38.5V40.32h3.973ZM41,35.234H45.17l-3.258,3.68-3.223-.006Zm7.641,5.086.129,1.488a4.3,4.3,0,0,1,3.621-1.723,3.618,3.618,0,0,1,2.959,1.184,5.635,5.635,0,0,1,1.014,3.563V53H52.4V45a2.14,2.14,0,0,0-.387-1.412,1.789,1.789,0,0,0-1.406-.451,1.883,1.883,0,0,0-1.723.914V53H44.936V40.32ZM64.682,53.234a6.518,6.518,0,0,1-4.723-1.74,6.009,6.009,0,0,1-1.8-4.529v-.328a7.787,7.787,0,0,1,.721-3.434,5.274,5.274,0,0,1,2.1-2.3,6.35,6.35,0,0,1,3.281-.814,5.489,5.489,0,0,1,4.219,1.658,6.516,6.516,0,0,1,1.547,4.623V47.9H62.174a2.846,2.846,0,0,0,.926,1.676,2.755,2.755,0,0,0,1.852.609,3.549,3.549,0,0,0,2.93-1.312l1.8,2.133a5.045,5.045,0,0,1-2.092,1.623A7.069,7.069,0,0,1,64.682,53.234Zm-.445-10.1q-1.734,0-2.062,2.3h3.984v-.3a1.956,1.956,0,0,0-.48-1.471A1.912,1.912,0,0,0,64.236,43.133ZM78.756,53a4.459,4.459,0,0,1-.375-1.137,3.672,3.672,0,0,1-3.047,1.371,4.5,4.5,0,0,1-3.047-1.084,3.45,3.45,0,0,1-1.254-2.725,3.546,3.546,0,0,1,1.523-3.117,7.761,7.761,0,0,1,4.43-1.055h1.219v-.671q0-1.755-1.512-1.755a1.236,1.236,0,0,0-1.406,1.39H71.338A3.54,3.54,0,0,1,72.9,41.233a6.575,6.575,0,0,1,3.99-1.147,5.764,5.764,0,0,1,3.832,1.184,4.115,4.115,0,0,1,1.441,3.246v5.613a5.748,5.748,0,0,0,.539,2.672V53Zm-2.473-2.578a2.2,2.2,0,0,0,1.225-.316,1.983,1.983,0,0,0,.7-.715V47.363H77.057q-2.062,0-2.062,1.852a1.131,1.131,0,0,0,.363.873A1.315,1.315,0,0,0,76.283,50.422Zm14.707-.984a.912.912,0,0,0-.527-.809,8.021,8.021,0,0,0-2-.633,9.138,9.138,0,0,1-2.437-.861,4.083,4.083,0,0,1-1.465-1.295,3.092,3.092,0,0,1-.5-1.746,3.5,3.5,0,0,1,1.441-2.877,5.938,5.938,0,0,1,3.773-1.131A6.579,6.579,0,0,1,93.3,41.223a3.555,3.555,0,0,1,1.523,2.988H90.861q0-1.523-1.605-1.523a1.591,1.591,0,0,0-1.043.346,1.07,1.07,0,0,0-.422.861.982.982,0,0,0,.516.855,4.872,4.872,0,0,0,1.646.539,14.228,14.228,0,0,1,1.986.5q2.859.984,2.859,3.527a3.321,3.321,0,0,1-1.541,2.824,6.758,6.758,0,0,1-3.99,1.09,6.9,6.9,0,0,1-2.906-.586,4.86,4.86,0,0,1-1.992-1.594,3.609,3.609,0,0,1-.715-2.121h3.691a1.526,1.526,0,0,0,.586,1.283,2.41,2.41,0,0,0,1.441.4,1.9,1.9,0,0,0,1.213-.328A1.05,1.05,0,0,0,90.99,49.438Z" transform="translate(532 2803.496)" fill="#12263f"/>
    <g id="Grupo_130458-3" data-name="Grupo 130458" transform="translate(1014.938 2635.628) rotate(90)">
      <path id="Trazado_121383-3" data-name="Trazado 121383" d="M218.716,7.665S165.3-4.386,106.787,1.733C80.421,4.491,17.474,14.231,0,7.665" fill="#fef536"/>
    </g>
    <g id="Grupo_130459-3" data-name="Grupo 130459" transform="translate(1105 2571) rotate(90)">
      <path id="Trazado_121384-3" data-name="Trazado 121384" d="M76.2,190c-13.911,0-24.372-1.239-32.565-4.013C14.1,175.985-4.934,128.343,1.124,79.573,7.13,31.206,35.568-.1,64.844,9.136c12.864,2.6,63.54-3,82.7-5.113,7.951-.878,14.819-1.635,20.525-2.171,68-6.41,129.388,5.837,131.967,6.361,29.927,6.085,51.2,51.074,47.514,100.485s-30.919,84.53-60.853,78.453c-1.678-.332-55.191-10.7-112.406-5.306-5.176.486-11.8,1.217-19.464,2.064C120.312,187.718,95.081,190,76.2,190ZM65.541,9.365l.032.01Z" fill="#fef536"/>
    </g>
    <g id="Trazado_247336" data-name="Trazado 247336" transform="translate(935 2629.54)" fill="#5c22c3">
      <path d="M 71.5 140.5 C 62.1839599609375 140.5 53.14789962768555 138.6759948730469 44.64286041259766 135.0786590576172 C 40.55485916137695 133.3495788574219 36.61180114746094 131.2093353271484 32.92317962646484 128.7173614501953 C 29.26898002624512 126.2486419677734 25.83263969421387 123.4133834838867 22.70964050292969 120.2903594970703 C 19.58662033081055 117.1673583984375 16.7513599395752 113.7310180664062 14.28264045715332 110.0768203735352 C 11.79065990447998 106.3881988525391 9.650420188903809 102.4451370239258 7.921339988708496 98.35713958740234 C 4.323999881744385 89.85209655761719 2.5 80.8160400390625 2.5 71.5 C 2.5 62.1839599609375 4.323999881744385 53.14789962768555 7.921339988708496 44.64286041259766 C 9.650420188903809 40.55485916137695 11.79065990447998 36.61180114746094 14.28264045715332 32.92317962646484 C 16.7513599395752 29.26898002624512 19.58662033081055 25.83263969421387 22.70964050292969 22.70964050292969 C 25.83263969421387 19.58662033081055 29.26898002624512 16.7513599395752 32.92317962646484 14.28264045715332 C 36.61180114746094 11.79065990447998 40.55485916137695 9.650420188903809 44.64286041259766 7.921339988708496 C 53.14789962768555 4.323999881744385 62.1839599609375 2.5 71.5 2.5 C 80.8160400390625 2.5 89.85209655761719 4.323999881744385 98.35713958740234 7.921339988708496 C 102.4451370239258 9.650420188903809 106.3881988525391 11.79065990447998 110.0768203735352 14.28264045715332 C 113.7310180664062 16.7513599395752 117.1673583984375 19.58662033081055 120.2903594970703 22.70964050292969 C 123.4133834838867 25.83263969421387 126.2486419677734 29.26898002624512 128.7173614501953 32.92317962646484 C 131.2093353271484 36.61180114746094 133.3495788574219 40.55485916137695 135.0786590576172 44.64286041259766 C 138.6759948730469 53.14789962768555 140.5 62.1839599609375 140.5 71.5 C 140.5 80.8160400390625 138.6759948730469 89.85209655761719 135.0786590576172 98.35713958740234 C 133.3495788574219 102.4451370239258 131.2093353271484 106.3881988525391 128.7173614501953 110.0768203735352 C 126.2486419677734 113.7310180664062 123.4133834838867 117.1673583984375 120.2903594970703 120.2903594970703 C 117.1673583984375 123.4133834838867 113.7310180664062 126.2486419677734 110.0768203735352 128.7173614501953 C 106.3881988525391 131.2093353271484 102.4451370239258 133.3495788574219 98.35713958740234 135.0786590576172 C 89.85209655761719 138.6759948730469 80.8160400390625 140.5 71.5 140.5 Z" stroke="none"/>
      <path d="M 71.5 5 C 62.52036285400391 5 53.81195831298828 6.757537841796875 45.61672973632812 10.22384643554688 C 41.67740631103516 11.89004516601562 37.87754821777344 13.95259094238281 34.32270812988281 16.35417938232422 C 30.80033874511719 18.73386383056641 27.48790740966797 21.46688842773438 24.47738647460938 24.47738647460938 C 21.46688842773438 27.48790740966797 18.73386383056641 30.80033874511719 16.35417938232422 34.32270812988281 C 13.95259094238281 37.87754821777344 11.89004516601562 41.67740631103516 10.22384643554688 45.61672973632812 C 6.757537841796875 53.81195831298828 5 62.52036285400391 5 71.5 C 5 80.47963714599609 6.757537841796875 89.18804931640625 10.22384643554688 97.38327026367188 C 11.89004516601562 101.3225860595703 13.95259094238281 105.1224517822266 16.35417938232422 108.6772918701172 C 18.73386383056641 112.1996612548828 21.46688842773438 115.512092590332 24.47738647460938 118.5226135253906 C 27.48790740966797 121.5331115722656 30.80033874511719 124.2661361694336 34.32270812988281 126.6458206176758 C 37.87754821777344 129.0474090576172 41.67740631103516 131.1099548339844 45.61672973632812 132.7761535644531 C 53.81195831298828 136.2424621582031 62.52036285400391 138 71.5 138 C 80.47963714599609 138 89.18804931640625 136.2424621582031 97.38327026367188 132.7761535644531 C 101.3225860595703 131.1099548339844 105.1224517822266 129.0474090576172 108.6772918701172 126.6458206176758 C 112.1996612548828 124.2661361694336 115.512092590332 121.5331115722656 118.5226135253906 118.5226135253906 C 121.5331115722656 115.512092590332 124.2661361694336 112.1996612548828 126.6458206176758 108.6772918701172 C 129.0474090576172 105.1224517822266 131.1099548339844 101.3225860595703 132.7761535644531 97.38327026367188 C 136.2424621582031 89.18804931640625 138 80.47963714599609 138 71.5 C 138 62.52036285400391 136.2424621582031 53.81195831298828 132.7761535644531 45.61672973632812 C 131.1099548339844 41.67740631103516 129.0474090576172 37.87754821777344 126.6458206176758 34.32270812988281 C 124.2661361694336 30.80033874511719 121.5331115722656 27.48790740966797 118.5226135253906 24.47738647460938 C 115.512092590332 21.46688842773438 112.1996612548828 18.73386383056641 108.6772918701172 16.35417938232422 C 105.1224517822266 13.95259094238281 101.3225860595703 11.89004516601562 97.38327026367188 10.22384643554688 C 89.18804931640625 6.757537841796875 80.47963714599609 5 71.5 5 M 71.5 0 C 110.9883651733398 0 143 32.01163482666016 143 71.5 C 143 110.9883651733398 110.9883651733398 143 71.5 143 C 32.01163482666016 143 0 110.9883651733398 0 71.5 C 0 32.01163482666016 32.01163482666016 0 71.5 0 Z" stroke="none" fill="#12263f"/>
    </g>
    <path id="Trazado_247337" data-name="Trazado 247337" d="M9.783,105.712h0A69.977,69.977,0,0,1,70,0V70Z" transform="translate(937 2629.54)" fill="#64b5f6" stroke="#12263f" stroke-linecap="round" stroke-width="5"/>
    <path id="Trazado_247338" data-name="Trazado 247338" d="M0,70V0A70,70,0,0,1,70,70a69.934,69.934,0,0,1-31.37,58.385Z" transform="translate(1007 2629.539)" fill="#ba68c8" stroke="#12263f" stroke-linecap="round" stroke-width="5"/>
    <path id="Trazado_126270" data-name="Trazado 126270" d="M11.5,9.993a5.142,5.142,0,0,1-.426,2.162,3.221,3.221,0,0,1-1.218,1.428,3.349,3.349,0,0,1-1.822.5,3.357,3.357,0,0,1-1.816-.5,3.27,3.27,0,0,1-1.232-1.419,4.981,4.981,0,0,1-.44-2.124V9.567A5.1,5.1,0,0,1,4.978,7.4,3.267,3.267,0,0,1,6.2,5.967a3.338,3.338,0,0,1,1.816-.5,3.368,3.368,0,0,1,1.816.492,3.225,3.225,0,0,1,1.223,1.416,5.087,5.087,0,0,1,.438,2.15Zm-1.456-.437A3.664,3.664,0,0,0,9.514,7.42,1.723,1.723,0,0,0,8.02,6.678a1.718,1.718,0,0,0-1.477.74A3.593,3.593,0,0,0,6,9.51v.484a3.636,3.636,0,0,0,.538,2.136,1.733,1.733,0,0,0,1.494.754,1.713,1.713,0,0,0,1.488-.737,3.714,3.714,0,0,0,.521-2.153Zm8.226,1.359a3.709,3.709,0,0,1-.656,2.306,2.28,2.28,0,0,1-3.4.187V16.36h-1.4V7.737H14.1l.058.633a2.055,2.055,0,0,1,1.675-.748,2.123,2.123,0,0,1,1.787.849,3.807,3.807,0,0,1,.648,2.357Zm-1.393-.121A2.6,2.6,0,0,0,16.5,9.314a1.207,1.207,0,0,0-1.062-.547,1.287,1.287,0,0,0-1.232.708v2.763a1.3,1.3,0,0,0,1.243.725,1.206,1.206,0,0,0,1.045-.538A2.86,2.86,0,0,0,16.874,10.794Zm5.135,2.17a1.265,1.265,0,0,0,.869-.305,1.042,1.042,0,0,0,.368-.754h1.318A2.055,2.055,0,0,1,24.2,12.99a2.379,2.379,0,0,1-.921.8,2.745,2.745,0,0,1-1.255.294,2.656,2.656,0,0,1-2.072-.846,3.356,3.356,0,0,1-.766-2.337v-.144a3.3,3.3,0,0,1,.76-2.277,2.632,2.632,0,0,1,2.072-.855,2.559,2.559,0,0,1,1.81.648,2.32,2.32,0,0,1,.734,1.7H23.246a1.281,1.281,0,0,0-.366-.881,1.176,1.176,0,0,0-.872-.345,1.231,1.231,0,0,0-1.048.492,2.511,2.511,0,0,0-.374,1.494v.225a2.553,2.553,0,0,0,.366,1.511A1.23,1.23,0,0,0,22.008,12.964Zm10.247,1H30.862V7.232l-2.055.7V6.758l3.27-1.2h.178ZM10.464,26.82h.852a1.525,1.525,0,0,0,1.022-.334,1.191,1.191,0,0,0,.377-.95,1.3,1.3,0,0,0-.314-.93,1.263,1.263,0,0,0-.958-.331,1.336,1.336,0,0,0-.927.325,1.087,1.087,0,0,0-.363.849h-1.4A2.117,2.117,0,0,1,9.1,24.275a2.3,2.3,0,0,1,.956-.826,3.113,3.113,0,0,1,1.373-.3,2.883,2.883,0,0,1,1.972.63,2.212,2.212,0,0,1,.717,1.753,1.781,1.781,0,0,1-.36,1.062,2.256,2.256,0,0,1-.93.751,2.056,2.056,0,0,1,1.051.743,2.033,2.033,0,0,1,.36,1.209,2.251,2.251,0,0,1-.774,1.8,3.006,3.006,0,0,1-2.035.668,2.983,2.983,0,0,1-1.98-.645A2.123,2.123,0,0,1,8.673,29.4h1.4a1.17,1.17,0,0,0,.371.9,1.408,1.408,0,0,0,1,.345,1.452,1.452,0,0,0,1.025-.345,1.3,1.3,0,0,0,.374-1,1.309,1.309,0,0,0-.391-1.019,1.674,1.674,0,0,0-1.163-.357h-.823Zm5.457.674.455-4.225h4.5v1.209H17.538l-.23,2a2.588,2.588,0,0,1,1.313-.334,2.335,2.335,0,0,1,1.862.766,3.034,3.034,0,0,1,.665,2.061,2.793,2.793,0,0,1-.737,2.035,2.689,2.689,0,0,1-2.021.757,2.817,2.817,0,0,1-1.908-.653,2.362,2.362,0,0,1-.82-1.724h1.353a1.477,1.477,0,0,0,.438.935,1.331,1.331,0,0,0,.933.325,1.2,1.2,0,0,0,1-.461,1.988,1.988,0,0,0,.36-1.255,1.756,1.756,0,0,0-.4-1.212,1.389,1.389,0,0,0-1.094-.446,1.528,1.528,0,0,0-1.22.5ZM22.19,24.88a1.682,1.682,0,0,1,.489-1.246,1.775,1.775,0,0,1,3.063,1.275v.414a1.671,1.671,0,0,1-.486,1.238,1.737,1.737,0,0,1-1.281.484,1.792,1.792,0,0,1-1.281-.475,1.676,1.676,0,0,1-.5-1.281Zm.979.441a.923.923,0,0,0,.222.644.75.75,0,0,0,.584.245.734.734,0,0,0,.576-.245.965.965,0,0,0,.219-.667v-.421a.934.934,0,0,0-.222-.646.746.746,0,0,0-.584-.248.724.724,0,0,0-.579.251.978.978,0,0,0-.216.661Zm3.051,4.274a1.648,1.648,0,0,1,.5-1.249,1.952,1.952,0,0,1,2.559,0,1.7,1.7,0,0,1,.5,1.289v.409a1.684,1.684,0,0,1-.481,1.235,1.727,1.727,0,0,1-1.287.486,1.778,1.778,0,0,1-1.3-.481,1.694,1.694,0,0,1-.492-1.269Zm.979.443a.918.918,0,0,0,.227.642.754.754,0,0,0,.584.25.73.73,0,0,0,.579-.239.982.982,0,0,0,.21-.671v-.432a.91.91,0,0,0-.225-.645.81.81,0,0,0-1.154,0,.951.951,0,0,0-.222.668Zm-2.936.984-.72-.414,4.093-6.551.72.414Z" transform="translate(956.436 2663.469)" fill="#12263f"/>
    <path id="Trazado_126271" data-name="Trazado 126271" d="M11.5,9.993a5.142,5.142,0,0,1-.426,2.162,3.221,3.221,0,0,1-1.218,1.428,3.349,3.349,0,0,1-1.822.5,3.357,3.357,0,0,1-1.816-.5,3.27,3.27,0,0,1-1.232-1.419,4.981,4.981,0,0,1-.44-2.124V9.567A5.1,5.1,0,0,1,4.978,7.4,3.267,3.267,0,0,1,6.2,5.967a3.338,3.338,0,0,1,1.816-.5,3.368,3.368,0,0,1,1.816.492,3.225,3.225,0,0,1,1.223,1.416,5.087,5.087,0,0,1,.438,2.15Zm-1.456-.437A3.664,3.664,0,0,0,9.514,7.42,1.723,1.723,0,0,0,8.02,6.678a1.718,1.718,0,0,0-1.477.74A3.593,3.593,0,0,0,6,9.51v.484a3.636,3.636,0,0,0,.538,2.136,1.733,1.733,0,0,0,1.494.754,1.713,1.713,0,0,0,1.488-.737,3.714,3.714,0,0,0,.521-2.153Zm8.226,1.359a3.709,3.709,0,0,1-.656,2.306,2.28,2.28,0,0,1-3.4.187V16.36h-1.4V7.737H14.1l.058.633a2.055,2.055,0,0,1,1.675-.748,2.123,2.123,0,0,1,1.787.849,3.807,3.807,0,0,1,.648,2.357Zm-1.393-.121A2.6,2.6,0,0,0,16.5,9.314a1.207,1.207,0,0,0-1.062-.547,1.287,1.287,0,0,0-1.232.708v2.763a1.3,1.3,0,0,0,1.243.725,1.206,1.206,0,0,0,1.045-.538A2.86,2.86,0,0,0,16.874,10.794Zm5.135,2.17a1.265,1.265,0,0,0,.869-.305,1.042,1.042,0,0,0,.368-.754h1.318A2.055,2.055,0,0,1,24.2,12.99a2.379,2.379,0,0,1-.921.8,2.745,2.745,0,0,1-1.255.294,2.656,2.656,0,0,1-2.072-.846,3.356,3.356,0,0,1-.766-2.337v-.144a3.3,3.3,0,0,1,.76-2.277,2.632,2.632,0,0,1,2.072-.855,2.559,2.559,0,0,1,1.81.648,2.32,2.32,0,0,1,.734,1.7H23.246a1.281,1.281,0,0,0-.366-.881,1.176,1.176,0,0,0-.872-.345,1.231,1.231,0,0,0-1.048.492,2.511,2.511,0,0,0-.374,1.494v.225a2.553,2.553,0,0,0,.366,1.511A1.23,1.23,0,0,0,22.008,12.964Zm12.095,1H28.467V13l2.792-3.045a6.952,6.952,0,0,0,.861-1.125,1.823,1.823,0,0,0,.256-.907,1.378,1.378,0,0,0-.337-.967,1.168,1.168,0,0,0-.907-.368,1.346,1.346,0,0,0-1.053.414A1.63,1.63,0,0,0,29.7,8.14h-1.4a2.742,2.742,0,0,1,.348-1.379,2.4,2.4,0,0,1,1-.953,3.17,3.17,0,0,1,1.494-.34,2.835,2.835,0,0,1,1.926.613,2.128,2.128,0,0,1,.705,1.7,2.877,2.877,0,0,1-.354,1.315,7.48,7.48,0,0,1-1.16,1.563l-2.049,2.193H34.1Zm-20.525,14.7H14.62v1.123H13.578V31.65h-1.4V29.785H8.558l-.04-.852,3.615-5.664h1.445Zm-3.592,0h2.193v-3.5l-.1.184Zm11.2,2.988H15.547v-.961l2.792-3.045a6.952,6.952,0,0,0,.861-1.125,1.823,1.823,0,0,0,.256-.907,1.378,1.378,0,0,0-.337-.967,1.168,1.168,0,0,0-.907-.368,1.346,1.346,0,0,0-1.053.414,1.63,1.63,0,0,0-.374,1.134h-1.4a2.742,2.742,0,0,1,.348-1.379,2.4,2.4,0,0,1,1-.953,3.17,3.17,0,0,1,1.494-.34,2.835,2.835,0,0,1,1.926.613,2.128,2.128,0,0,1,.705,1.7,2.877,2.877,0,0,1-.354,1.315,7.48,7.48,0,0,1-1.16,1.563l-2.049,2.193h3.891Zm1.007-6.77a1.682,1.682,0,0,1,.489-1.246,1.775,1.775,0,0,1,3.063,1.275v.414a1.671,1.671,0,0,1-.486,1.238,1.737,1.737,0,0,1-1.281.484,1.792,1.792,0,0,1-1.281-.475,1.676,1.676,0,0,1-.5-1.281Zm.979.441a.923.923,0,0,0,.222.644.75.75,0,0,0,.584.245.734.734,0,0,0,.576-.245.965.965,0,0,0,.219-.667v-.421a.934.934,0,0,0-.222-.646.746.746,0,0,0-.584-.248.724.724,0,0,0-.579.251.978.978,0,0,0-.216.661Zm3.051,4.274a1.648,1.648,0,0,1,.5-1.249,1.952,1.952,0,0,1,2.559,0,1.7,1.7,0,0,1,.5,1.289v.409a1.684,1.684,0,0,1-.481,1.235,1.727,1.727,0,0,1-1.287.486,1.778,1.778,0,0,1-1.3-.481,1.694,1.694,0,0,1-.492-1.269Zm.979.443a.918.918,0,0,0,.227.642.754.754,0,0,0,.584.25.73.73,0,0,0,.579-.239.982.982,0,0,0,.21-.671v-.432a.91.91,0,0,0-.225-.645.81.81,0,0,0-1.154,0,.951.951,0,0,0-.222.668Zm-2.936.984-.72-.414,4.093-6.551.72.414Z" transform="translate(1022.752 2675.995)" fill="#fff"/>
    <path id="Trazado_126272" data-name="Trazado 126272" d="M11.5,9.993a5.142,5.142,0,0,1-.426,2.162,3.221,3.221,0,0,1-1.218,1.428,3.349,3.349,0,0,1-1.822.5,3.357,3.357,0,0,1-1.816-.5,3.27,3.27,0,0,1-1.232-1.419,4.981,4.981,0,0,1-.44-2.124V9.567A5.1,5.1,0,0,1,4.978,7.4,3.267,3.267,0,0,1,6.2,5.967a3.338,3.338,0,0,1,1.816-.5,3.368,3.368,0,0,1,1.816.492,3.225,3.225,0,0,1,1.223,1.416,5.087,5.087,0,0,1,.438,2.15Zm-1.456-.437A3.664,3.664,0,0,0,9.514,7.42,1.723,1.723,0,0,0,8.02,6.678a1.718,1.718,0,0,0-1.477.74A3.593,3.593,0,0,0,6,9.51v.484a3.636,3.636,0,0,0,.538,2.136,1.733,1.733,0,0,0,1.494.754,1.713,1.713,0,0,0,1.488-.737,3.714,3.714,0,0,0,.521-2.153Zm8.226,1.359a3.709,3.709,0,0,1-.656,2.306,2.28,2.28,0,0,1-3.4.187V16.36h-1.4V7.737H14.1l.058.633a2.055,2.055,0,0,1,1.675-.748,2.123,2.123,0,0,1,1.787.849,3.807,3.807,0,0,1,.648,2.357Zm-1.393-.121A2.6,2.6,0,0,0,16.5,9.314a1.207,1.207,0,0,0-1.062-.547,1.287,1.287,0,0,0-1.232.708v2.763a1.3,1.3,0,0,0,1.243.725,1.206,1.206,0,0,0,1.045-.538A2.86,2.86,0,0,0,16.874,10.794Zm5.135,2.17a1.265,1.265,0,0,0,.869-.305,1.042,1.042,0,0,0,.368-.754h1.318A2.055,2.055,0,0,1,24.2,12.99a2.379,2.379,0,0,1-.921.8,2.745,2.745,0,0,1-1.255.294,2.656,2.656,0,0,1-2.072-.846,3.356,3.356,0,0,1-.766-2.337v-.144a3.3,3.3,0,0,1,.76-2.277,2.632,2.632,0,0,1,2.072-.855,2.559,2.559,0,0,1,1.81.648,2.32,2.32,0,0,1,.734,1.7H23.246a1.281,1.281,0,0,0-.366-.881,1.176,1.176,0,0,0-.872-.345,1.231,1.231,0,0,0-1.048.492,2.511,2.511,0,0,0-.374,1.494v.225a2.553,2.553,0,0,0,.366,1.511A1.23,1.23,0,0,0,22.008,12.964Zm8.076-3.828h.852A1.525,1.525,0,0,0,31.959,8.8a1.191,1.191,0,0,0,.377-.95,1.3,1.3,0,0,0-.314-.93,1.263,1.263,0,0,0-.958-.331,1.336,1.336,0,0,0-.927.325,1.087,1.087,0,0,0-.363.849h-1.4a2.117,2.117,0,0,1,.343-1.174,2.3,2.3,0,0,1,.956-.826,3.113,3.113,0,0,1,1.373-.3,2.883,2.883,0,0,1,1.972.63,2.212,2.212,0,0,1,.717,1.753,1.781,1.781,0,0,1-.36,1.062,2.256,2.256,0,0,1-.93.751,2.056,2.056,0,0,1,1.051.743,2.033,2.033,0,0,1,.36,1.209,2.251,2.251,0,0,1-.774,1.8,3.4,3.4,0,0,1-4.015.023,2.123,2.123,0,0,1-.771-1.715h1.4a1.17,1.17,0,0,0,.371.9,1.408,1.408,0,0,0,1,.345,1.452,1.452,0,0,0,1.025-.345,1.3,1.3,0,0,0,.374-1,1.309,1.309,0,0,0-.391-1.019,1.674,1.674,0,0,0-1.163-.357h-.823ZM14.482,31.65H8.846v-.961l2.792-3.045a6.952,6.952,0,0,0,.861-1.125,1.823,1.823,0,0,0,.256-.907,1.378,1.378,0,0,0-.337-.967,1.168,1.168,0,0,0-.907-.368,1.346,1.346,0,0,0-1.053.414,1.63,1.63,0,0,0-.374,1.134h-1.4a2.742,2.742,0,0,1,.348-1.379,2.4,2.4,0,0,1,1-.953,3.17,3.17,0,0,1,1.494-.34,2.835,2.835,0,0,1,1.926.613,2.128,2.128,0,0,1,.705,1.7,2.877,2.877,0,0,1-.354,1.315,7.48,7.48,0,0,1-1.16,1.563L10.59,30.533h3.891Zm2.683-4.83h.852a1.525,1.525,0,0,0,1.022-.334,1.191,1.191,0,0,0,.377-.95,1.3,1.3,0,0,0-.314-.93,1.263,1.263,0,0,0-.958-.331,1.336,1.336,0,0,0-.927.325,1.087,1.087,0,0,0-.363.849h-1.4a2.117,2.117,0,0,1,.343-1.174,2.3,2.3,0,0,1,.956-.826,3.113,3.113,0,0,1,1.373-.3,2.883,2.883,0,0,1,1.972.63,2.212,2.212,0,0,1,.717,1.753,1.781,1.781,0,0,1-.36,1.062,2.256,2.256,0,0,1-.93.751,2.056,2.056,0,0,1,1.051.743,2.033,2.033,0,0,1,.36,1.209,2.251,2.251,0,0,1-.774,1.8,3.006,3.006,0,0,1-2.035.668,2.983,2.983,0,0,1-1.98-.645,2.123,2.123,0,0,1-.771-1.715h1.4a1.17,1.17,0,0,0,.371.9,1.408,1.408,0,0,0,1,.345,1.452,1.452,0,0,0,1.025-.345,1.3,1.3,0,0,0,.374-1,1.309,1.309,0,0,0-.391-1.019,1.674,1.674,0,0,0-1.163-.357h-.823Zm5.025-1.94a1.682,1.682,0,0,1,.489-1.246,1.775,1.775,0,0,1,3.063,1.275v.414a1.671,1.671,0,0,1-.486,1.238,1.737,1.737,0,0,1-1.281.484,1.792,1.792,0,0,1-1.281-.475,1.676,1.676,0,0,1-.5-1.281Zm.979.441a.923.923,0,0,0,.222.644.75.75,0,0,0,.584.245.734.734,0,0,0,.576-.245.965.965,0,0,0,.219-.667v-.421a.934.934,0,0,0-.222-.646.746.746,0,0,0-.584-.248.724.724,0,0,0-.579.251.978.978,0,0,0-.216.661Zm3.051,4.274a1.648,1.648,0,0,1,.5-1.249,1.952,1.952,0,0,1,2.559,0,1.7,1.7,0,0,1,.5,1.289v.409a1.684,1.684,0,0,1-.481,1.235,1.727,1.727,0,0,1-1.287.486,1.778,1.778,0,0,1-1.3-.481,1.694,1.694,0,0,1-.492-1.269Zm.979.443a.918.918,0,0,0,.227.642.754.754,0,0,0,.584.25.73.73,0,0,0,.579-.239.982.982,0,0,0,.21-.671v-.432a.91.91,0,0,0-.225-.645.81.81,0,0,0-1.154,0,.951.951,0,0,0-.222.668Zm-2.936.984-.72-.414,4.093-6.551.72.414Z" transform="translate(977.805 2721.68)" fill="#fff"/>
    <path id="Trazado_247339" data-name="Trazado 247339" d="M38.736,20.891a6.614,6.614,0,0,1-2.777,1.7,11.979,11.979,0,0,1-4.008.645A7.146,7.146,0,0,1,26.6,21.184a8.3,8.3,0,0,1-2.145-5.707L24.439,14a10.182,10.182,0,0,1,.891-4.4,6.614,6.614,0,0,1,2.549-2.895,7.21,7.21,0,0,1,3.838-1.014A7.559,7.559,0,0,1,36.668,7.15,6.182,6.182,0,0,1,38.725,11.5H34.764a3.235,3.235,0,0,0-.914-2.039,2.949,2.949,0,0,0-1.992-.609,2.684,2.684,0,0,0-2.391,1.313,7.008,7.008,0,0,0-.855,3.75v1.031a6.86,6.86,0,0,0,.873,3.838,3.088,3.088,0,0,0,2.748,1.283,3.456,3.456,0,0,0,2.391-.715V16.707H31.764V13.883h6.973Zm9.879-7-1.3-.094a2.336,2.336,0,0,0-2.391,1.172V23H40.975V10.32h3.7l.129,1.629a3.058,3.058,0,0,1,2.777-1.863,3.851,3.851,0,0,1,1.1.141ZM56.83,23a4.459,4.459,0,0,1-.375-1.137,3.672,3.672,0,0,1-3.047,1.371,4.5,4.5,0,0,1-3.047-1.084,3.45,3.45,0,0,1-1.254-2.725,3.546,3.546,0,0,1,1.523-3.117,7.761,7.761,0,0,1,4.43-1.055h1.219v-.671q0-1.755-1.512-1.755a1.236,1.236,0,0,0-1.406,1.39H49.412a3.54,3.54,0,0,1,1.564-2.985,6.575,6.575,0,0,1,3.99-1.147A5.764,5.764,0,0,1,58.8,11.27a4.115,4.115,0,0,1,1.441,3.246v5.613a5.748,5.748,0,0,0,.539,2.672V23Zm-2.473-2.578a2.2,2.2,0,0,0,1.225-.316,1.983,1.983,0,0,0,.7-.715V17.363H55.131q-2.062,0-2.062,1.852a1.131,1.131,0,0,0,.363.873A1.315,1.315,0,0,0,54.357,20.422ZM55.342,5h4.172L56.256,8.68l-3.223-.006Zm8,18V13.063h-1.84V10.32h1.84V9.9A4.841,4.841,0,0,1,65.01,6.02a6.649,6.649,0,0,1,4.324-1.266,15.345,15.345,0,0,1,4.125.68L72.92,8.551l-.656-.176a10.443,10.443,0,0,0-2.7-.34q-2.262,0-2.262,2.063v.223h2.484v2.742H67.307V23Zm11.93,0H71.3V10.32h3.973Zm7.77-2.812a1.756,1.756,0,0,0,1.289-.451,1.654,1.654,0,0,0,.445-1.26h3.7A4.384,4.384,0,0,1,86.988,21.9a5.558,5.558,0,0,1-3.85,1.336A5.627,5.627,0,0,1,78.779,21.5a6.834,6.834,0,0,1-1.594-4.8v-.164a7.723,7.723,0,0,1,.709-3.393,5.162,5.162,0,0,1,2.045-2.262,6.1,6.1,0,0,1,3.164-.791,5.488,5.488,0,0,1,3.926,1.371,4.863,4.863,0,0,1,1.453,3.715h-3.7a2.168,2.168,0,0,0-.48-1.512,1.658,1.658,0,0,0-1.289-.527q-1.535,0-1.793,1.957a13.809,13.809,0,0,0-.082,1.711,5.424,5.424,0,0,0,.457,2.648A1.582,1.582,0,0,0,83.045,20.188Zm6.609-3.645a7.484,7.484,0,0,1,.738-3.381,5.28,5.28,0,0,1,2.121-2.279,6.388,6.388,0,0,1,3.246-.8,5.83,5.83,0,0,1,4.488,1.764,6.768,6.768,0,0,1,1.641,4.8v.141a6.566,6.566,0,0,1-1.646,4.705,5.846,5.846,0,0,1-4.459,1.74,5.912,5.912,0,0,1-4.348-1.623,6.348,6.348,0,0,1-1.77-4.4Zm3.949.246a4.718,4.718,0,0,0,.551,2.578,1.835,1.835,0,0,0,1.629.82q2.109,0,2.156-3.246v-.4q0-3.41-2.18-3.41-1.98,0-2.145,2.941Zm-65.32,33.4a1.756,1.756,0,0,0,1.289-.451,1.654,1.654,0,0,0,.445-1.26h3.7A4.384,4.384,0,0,1,32.227,51.9a5.558,5.558,0,0,1-3.85,1.336A5.627,5.627,0,0,1,24.018,51.5a6.834,6.834,0,0,1-1.594-4.8v-.164a7.723,7.723,0,0,1,.709-3.393,5.162,5.162,0,0,1,2.045-2.262,6.1,6.1,0,0,1,3.164-.791,5.488,5.488,0,0,1,3.926,1.371,4.863,4.863,0,0,1,1.453,3.715h-3.7a2.168,2.168,0,0,0-.48-1.512,1.658,1.658,0,0,0-1.289-.527q-1.535,0-1.793,1.957a13.809,13.809,0,0,0-.082,1.711,5.424,5.424,0,0,0,.457,2.648A1.582,1.582,0,0,0,28.283,50.188ZM39.557,53H35.6V40.32h3.961Zm-4.2-15.949a1.763,1.763,0,0,1,.609-1.383,2.591,2.591,0,0,1,3.164,0,1.874,1.874,0,0,1,0,2.766,2.591,2.591,0,0,1-3.164,0A1.763,1.763,0,0,1,35.361,37.051Zm14.3,6.844-1.3-.094a2.336,2.336,0,0,0-2.391,1.172V53H42.018V40.32h3.7l.129,1.629a3.058,3.058,0,0,1,2.777-1.863,3.851,3.851,0,0,1,1.1.141Zm6.563,6.293a1.756,1.756,0,0,0,1.289-.451,1.654,1.654,0,0,0,.445-1.26h3.7A4.384,4.384,0,0,1,60.164,51.9a5.558,5.558,0,0,1-3.85,1.336A5.627,5.627,0,0,1,51.955,51.5a6.834,6.834,0,0,1-1.594-4.8v-.164a7.723,7.723,0,0,1,.709-3.393,5.162,5.162,0,0,1,2.045-2.262,6.1,6.1,0,0,1,3.164-.791,5.488,5.488,0,0,1,3.926,1.371,4.863,4.863,0,0,1,1.453,3.715h-3.7a2.168,2.168,0,0,0-.48-1.512,1.658,1.658,0,0,0-1.289-.527q-1.535,0-1.793,1.957a13.809,13.809,0,0,0-.082,1.711,5.424,5.424,0,0,0,.457,2.648A1.582,1.582,0,0,0,56.221,50.188Zm14.66,1.441a4.072,4.072,0,0,1-3.387,1.605,3.993,3.993,0,0,1-3.158-1.213,5.1,5.1,0,0,1-1.072-3.486V40.32h3.949v8.238a1.419,1.419,0,0,0,1.582,1.629,2.064,2.064,0,0,0,1.934-.973V40.32H74.7V53H71ZM81.029,53H77.068V35h3.961ZM90.6,53a4.459,4.459,0,0,1-.375-1.137,3.672,3.672,0,0,1-3.047,1.371,4.5,4.5,0,0,1-3.047-1.084,3.45,3.45,0,0,1-1.254-2.725A3.546,3.546,0,0,1,84.4,46.309a7.761,7.761,0,0,1,4.43-1.055h1.219v-.671q0-1.755-1.512-1.755a1.236,1.236,0,0,0-1.406,1.39H83.186a3.54,3.54,0,0,1,1.564-2.985,6.575,6.575,0,0,1,3.99-1.147,5.764,5.764,0,0,1,3.832,1.184,4.115,4.115,0,0,1,1.441,3.246v5.613a5.748,5.748,0,0,0,.539,2.672V53Zm-2.473-2.578a2.2,2.2,0,0,0,1.225-.316,1.983,1.983,0,0,0,.7-.715V47.363H88.9q-2.062,0-2.062,1.852a1.131,1.131,0,0,0,.363.873A1.315,1.315,0,0,0,88.131,50.422Zm15.738-6.527-1.3-.094a2.336,2.336,0,0,0-2.391,1.172V53H96.229V40.32h3.7l.129,1.629a3.058,3.058,0,0,1,2.777-1.863,3.851,3.851,0,0,1,1.1.141Z" transform="translate(952 2803.496)" fill="#12263f"/>
    <g id="Grupo_130458-4" data-name="Grupo 130458" transform="translate(1224.938 2635.628) rotate(90)">
      <path id="Trazado_121383-4" data-name="Trazado 121383" d="M218.716,7.665S165.3-4.386,106.787,1.733C80.421,4.491,17.474,14.231,0,7.665" fill="#fef536"/>
    </g>
    <g id="Grupo_130459-4" data-name="Grupo 130459" transform="translate(1315 2571) rotate(90)">
      <path id="Trazado_121384-4" data-name="Trazado 121384" d="M76.2,190c-13.911,0-24.372-1.239-32.565-4.013C14.1,175.985-4.934,128.343,1.124,79.573,7.13,31.206,35.568-.1,64.844,9.136c12.864,2.6,63.54-3,82.7-5.113,7.951-.878,14.819-1.635,20.525-2.171,68-6.41,129.388,5.837,131.967,6.361,29.927,6.085,51.2,51.074,47.514,100.485s-30.919,84.53-60.853,78.453c-1.678-.332-55.191-10.7-112.406-5.306-5.176.486-11.8,1.217-19.464,2.064C120.312,187.718,95.081,190,76.2,190ZM65.541,9.365l.032.01Z" fill="#fef536"/>
    </g>
    <g id="Trazado_247319" data-name="Trazado 247319" transform="translate(1208.312 2677.48)" fill="#64b5f6">
      <path d="M 14.34515285491943 61.95988464355469 L 2.499997138977051 61.95988464355469 L 2.499997138977051 2.50000524520874 L 14.34515285491943 2.50000524520874 L 14.34515285491943 61.95988464355469 Z" stroke="none"/>
      <path d="M 5.000001907348633 4.999992370605469 L 5.000001907348633 59.45987319946289 L 11.84514808654785 59.45987319946289 L 11.84514808654785 4.999992370605469 L 5.000001907348633 4.999992370605469 M 1.9073486328125e-06 -7.62939453125e-06 L 16.84514808654785 -7.62939453125e-06 L 16.84514808654785 64.45986938476562 L 1.9073486328125e-06 64.45986938476562 L 1.9073486328125e-06 -7.62939453125e-06 Z" stroke="none" fill="#12263f"/>
    </g>
    <g id="Trazado_247320" data-name="Trazado 247320" transform="translate(1187.921 2709.136)" fill="#5c22c3">
      <path d="M 14.34515476226807 30.30447769165039 L 2.500005006790161 30.30447769165039 L 2.500005006790161 2.499996900558472 L 14.34515476226807 2.499996900558472 L 14.34515476226807 30.30447769165039 Z" stroke="none"/>
      <path d="M 4.999995231628418 4.999996185302734 L 4.999995231628418 27.80447769165039 L 11.8451452255249 27.80447769165039 L 11.8451452255249 4.999996185302734 L 4.999995231628418 4.999996185302734 M -5.7220458984375e-06 -3.814697265625e-06 L 16.84514427185059 -3.814697265625e-06 L 16.84514427185059 32.80447769165039 L -5.7220458984375e-06 32.80447769165039 L -5.7220458984375e-06 -3.814697265625e-06 Z" stroke="none" fill="#12263f"/>
    </g>
    <g id="Trazado_247321" data-name="Trazado 247321" transform="translate(1249.095 2677.48)" fill="#64b5f6">
      <path d="M 14.34515285491943 61.95988464355469 L 2.499997138977051 61.95988464355469 L 2.499997138977051 2.50000524520874 L 14.34515285491943 2.50000524520874 L 14.34515285491943 61.95988464355469 Z" stroke="none"/>
      <path d="M 5.000001907348633 4.999992370605469 L 5.000001907348633 59.45987319946289 L 11.84514808654785 59.45987319946289 L 11.84514808654785 4.999992370605469 L 5.000001907348633 4.999992370605469 M 1.9073486328125e-06 -7.62939453125e-06 L 16.84514808654785 -7.62939453125e-06 L 16.84514808654785 64.45986938476562 L 1.9073486328125e-06 64.45986938476562 L 1.9073486328125e-06 -7.62939453125e-06 Z" stroke="none" fill="#12263f"/>
    </g>
    <g id="Trazado_247322" data-name="Trazado 247322" transform="translate(1269.631 2709.711)" fill="#5c22c3">
      <path d="M 14.34515476226807 29.730224609375 L 2.500005006790161 29.730224609375 L 2.500005006790161 2.500004291534424 L 14.34515476226807 2.500004291534424 L 14.34515476226807 29.730224609375 Z" stroke="none"/>
      <path d="M 4.999995231628418 5.000003814697266 L 4.999995231628418 27.230224609375 L 11.8451452255249 27.230224609375 L 11.8451452255249 5.000003814697266 L 4.999995231628418 5.000003814697266 M -5.7220458984375e-06 3.814697265625e-06 L 16.84514427185059 3.814697265625e-06 L 16.84514427185059 32.230224609375 L -5.7220458984375e-06 32.230224609375 L -5.7220458984375e-06 3.814697265625e-06 Z" stroke="none" fill="#12263f"/>
    </g>
    <g id="Trazado_247323" data-name="Trazado 247323" transform="translate(1228.703 2647.075)" fill="#5c22c3">
      <path d="M 14.34514617919922 92.36520385742188 L 2.500003576278687 92.36520385742188 L 2.500003576278687 2.500001907348633 L 14.34514617919922 2.500001907348633 L 14.34514617919922 92.36520385742188 Z" stroke="none"/>
      <path d="M 4.999991416931152 5 L 4.999991416931152 89.86520385742188 L 11.84514236450195 89.86520385742188 L 11.84514236450195 5 L 4.999991416931152 5 M -7.62939453125e-06 0 L 16.84514236450195 0 L 16.84514236450195 94.86520385742188 L -7.62939453125e-06 94.86520385742188 L -7.62939453125e-06 0 Z" stroke="none" fill="#12263f"/>
    </g>
    <path id="Trazado_247324" data-name="Trazado 247324" d="M0,0H111.71" transform="translate(1177.79 2749.918)" fill="none" stroke="#12263f" stroke-linecap="round" stroke-width="5"/>
    <path id="Trazado_247325" data-name="Trazado 247325" d="M0,0H8.866" transform="translate(1173.357 2741.053)" fill="none" stroke="#12263f" stroke-linecap="round" stroke-width="5"/>
    <path id="Trazado_247326" data-name="Trazado 247326" d="M0,0H9" transform="translate(1197.014 2745.05) rotate(90)" fill="none" stroke="#12263f" stroke-linecap="round" stroke-width="5"/>
    <path id="Trazado_247327" data-name="Trazado 247327" d="M0,0H9" transform="translate(1217.405 2745.05) rotate(90)" fill="none" stroke="#12263f" stroke-linecap="round" stroke-width="5"/>
    <path id="Trazado_247328" data-name="Trazado 247328" d="M0,0H9" transform="translate(1237.797 2745.05) rotate(90)" fill="none" stroke="#12263f" stroke-linecap="round" stroke-width="5"/>
    <path id="Trazado_247329" data-name="Trazado 247329" d="M0,0H9" transform="translate(1258.258 2745.05) rotate(90)" fill="none" stroke="#12263f" stroke-linecap="round" stroke-width="5"/>
    <path id="Trazado_247330" data-name="Trazado 247330" d="M0,0H9" transform="translate(1278.719 2745.05) rotate(90)" fill="none" stroke="#12263f" stroke-linecap="round" stroke-width="5"/>
    <path id="Trazado_247331" data-name="Trazado 247331" d="M0,0H8.866" transform="translate(1173.357 2709.136)" fill="none" stroke="#12263f" stroke-linecap="round" stroke-width="5"/>
    <path id="Trazado_247332" data-name="Trazado 247332" d="M0,0H8.866" transform="translate(1173.357 2678.105)" fill="none" stroke="#12263f" stroke-linecap="round" stroke-width="5"/>
    <path id="Trazado_247333" data-name="Trazado 247333" d="M0,0H8.866" transform="translate(1173.357 2647.075)" fill="none" stroke="#12263f" stroke-linecap="round" stroke-width="5"/>
    <path id="Trazado_247334" data-name="Trazado 247334" d="M0,0V122.081" transform="translate(1177.79 2627.838)" fill="none" stroke="#12263f" stroke-linecap="round" stroke-width="5"/>
    <path id="Trazado_126277" data-name="Trazado 126277" d="M-.5-3.486A4.074,4.074,0,0,1-1.28-.82,2.683,2.683,0,0,1-3.469.117a2.7,2.7,0,0,1-2.2-.943,4.067,4.067,0,0,1-.779-2.66V-5.045a4.074,4.074,0,0,1,.776-2.666A2.69,2.69,0,0,1-3.48-8.648a2.691,2.691,0,0,1,2.2.943A4.077,4.077,0,0,1-.5-5.039ZM-2.479-5.3a3.043,3.043,0,0,0-.24-1.374.8.8,0,0,0-.762-.454.784.784,0,0,0-.741.422,2.866,2.866,0,0,0-.249,1.277v2.18a3.066,3.066,0,0,0,.24,1.4.806.806,0,0,0,.762.442.8.8,0,0,0,.744-.431,2.927,2.927,0,0,0,.246-1.351Z" transform="translate(1167.058 2743.414)" fill="#12263f"/>
    <path id="Trazado_126278" data-name="Trazado 126278" d="M1.169-1.328H-1.179L-1.589,0H-3.42L-.813-7.109H.8L3.425,0H1.584ZM-.769-2.651H.759L-.007-5.117Z" transform="translate(1196.541 2767)" fill="#12263f"/>
    <path id="Trazado_126279" data-name="Trazado 126279" d="M-2.688,0V-7.109H-.134a3.616,3.616,0,0,1,2.087.5,1.673,1.673,0,0,1,.715,1.46,1.692,1.692,0,0,1-.254.942,1.48,1.48,0,0,1-.747.576,1.5,1.5,0,0,1,.854.547,1.59,1.59,0,0,1,.3.977,1.882,1.882,0,0,1-.662,1.57A3.149,3.149,0,0,1,.2,0ZM-.974-3.022v1.7H.149a1.068,1.068,0,0,0,.713-.212.743.743,0,0,0,.249-.6.788.788,0,0,0-.884-.894Zm0-1.123h.894a1.269,1.269,0,0,0,.8-.206.73.73,0,0,0,.239-.593A.766.766,0,0,0,.7-5.593a1.385,1.385,0,0,0-.835-.2h-.84Z" transform="translate(1216.932 2767)" fill="#12263f"/>
    <path id="Trazado_126280" data-name="Trazado 126280" d="M3.008-2.407a2.6,2.6,0,0,1-.4,1.311A2.416,2.416,0,0,1,1.58-.215,3.5,3.5,0,0,1,.068.1,2.792,2.792,0,0,1-2.139-.815a3.77,3.77,0,0,1-.806-2.578v-.352a4.3,4.3,0,0,1,.364-1.829A2.756,2.756,0,0,1-1.533-6.785,2.922,2.922,0,0,1,.049-7.212a3.064,3.064,0,0,1,2.08.681,2.691,2.691,0,0,1,.894,1.877H1.313a1.273,1.273,0,0,0-.327-.933,1.346,1.346,0,0,0-.937-.283,1.024,1.024,0,0,0-.937.479A3.075,3.075,0,0,0-1.2-3.862v.5A3.4,3.4,0,0,0-.916-1.733a1.045,1.045,0,0,0,.984.488,1.316,1.316,0,0,0,.9-.278A1.181,1.181,0,0,0,1.3-2.407Z" transform="translate(1237.323 2767)" fill="#12263f"/>
    <path id="Trazado_126281" data-name="Trazado 126281" d="M-2.7,0V-7.109h2.29a3.369,3.369,0,0,1,1.694.427A3,3,0,0,1,2.463-5.476,3.641,3.641,0,0,1,2.891-3.73V-3.4a3.662,3.662,0,0,1-.413,1.75A3.016,3.016,0,0,1,1.316-.442,3.3,3.3,0,0,1-.356,0ZM-.981-5.786v4.468h.6A1.333,1.333,0,0,0,.747-1.843a2.572,2.572,0,0,0,.4-1.56v-.308a2.551,2.551,0,0,0-.4-1.553A1.356,1.356,0,0,0-.405-5.786Z" transform="translate(1257.714 2767)" fill="#12263f"/>
    <path id="Trazado_126273" data-name="Trazado 126273" d="M2.148-3.018h-2.7v1.7H2.637V0h-4.9V-7.109H2.646v1.323H-.547v1.5h2.7Z" transform="translate(1278.175 2767)" fill="#12263f"/>
    <path id="Trazado_126276" data-name="Trazado 126276" d="M-17.278,0h-2.146V-6.83l-2.107.616V-7.839l4.056-1.4h.2Zm9.2-3.777A4.413,4.413,0,0,1-8.915-.889,2.906,2.906,0,0,1-11.286.127,2.922,2.922,0,0,1-13.673-.9a4.406,4.406,0,0,1-.844-2.882V-5.465a4.413,4.413,0,0,1,.841-2.888A2.914,2.914,0,0,1-11.3-9.369a2.915,2.915,0,0,1,2.38,1.022,4.417,4.417,0,0,1,.844,2.888Zm-2.139-1.961a3.3,3.3,0,0,0-.26-1.489.87.87,0,0,0-.825-.492.849.849,0,0,0-.8.457,3.105,3.105,0,0,0-.27,1.384v2.361A3.321,3.321,0,0,0-12.111-2a.873.873,0,0,0,.825.479.862.862,0,0,0,.806-.467,3.171,3.171,0,0,0,.267-1.463ZM-.546-3.777A4.413,4.413,0,0,1-1.387-.889,2.906,2.906,0,0,1-3.758.127,2.922,2.922,0,0,1-6.145-.9a4.406,4.406,0,0,1-.844-2.882V-5.465a4.413,4.413,0,0,1,.841-2.888A2.914,2.914,0,0,1-3.771-9.369,2.915,2.915,0,0,1-1.39-8.347,4.417,4.417,0,0,1-.546-5.459ZM-2.685-5.738a3.3,3.3,0,0,0-.26-1.489.87.87,0,0,0-.825-.492.849.849,0,0,0-.8.457,3.105,3.105,0,0,0-.27,1.384v2.361A3.321,3.321,0,0,0-4.583-2a.873.873,0,0,0,.825.479.862.862,0,0,0,.806-.467,3.171,3.171,0,0,0,.267-1.463Z" transform="translate(1167.986 2714.27)" fill="#12263f"/>
    <path id="Trazado_126275" data-name="Trazado 126275" d="M-15.571,0H-22.02V-1.4l2.971-3.123a3.546,3.546,0,0,0,1.1-1.987,1.382,1.382,0,0,0-.26-.908.929.929,0,0,0-.755-.311.941.941,0,0,0-.793.416,1.709,1.709,0,0,0-.3,1.038H-22.21a3.035,3.035,0,0,1,.425-1.571A2.982,2.982,0,0,1-20.6-8.969a3.507,3.507,0,0,1,1.688-.406,3.45,3.45,0,0,1,2.307.692A2.47,2.47,0,0,1-15.8-6.7,2.885,2.885,0,0,1-16-5.634a4.663,4.663,0,0,1-.632,1.085,15.91,15.91,0,0,1-1.381,1.52L-19.208-1.65h3.637Zm7.5-3.777A4.413,4.413,0,0,1-8.915-.889,2.906,2.906,0,0,1-11.286.127,2.922,2.922,0,0,1-13.673-.9a4.406,4.406,0,0,1-.844-2.882V-5.465a4.413,4.413,0,0,1,.841-2.888A2.914,2.914,0,0,1-11.3-9.369a2.915,2.915,0,0,1,2.38,1.022,4.417,4.417,0,0,1,.844,2.888Zm-2.139-1.961a3.3,3.3,0,0,0-.26-1.489.87.87,0,0,0-.825-.492.849.849,0,0,0-.8.457,3.105,3.105,0,0,0-.27,1.384v2.361A3.321,3.321,0,0,0-12.111-2a.873.873,0,0,0,.825.479.862.862,0,0,0,.806-.467,3.171,3.171,0,0,0,.267-1.463ZM-.546-3.777A4.413,4.413,0,0,1-1.387-.889,2.906,2.906,0,0,1-3.758.127,2.922,2.922,0,0,1-6.145-.9a4.406,4.406,0,0,1-.844-2.882V-5.465a4.413,4.413,0,0,1,.841-2.888A2.914,2.914,0,0,1-3.771-9.369,2.915,2.915,0,0,1-1.39-8.347,4.417,4.417,0,0,1-.546-5.459ZM-2.685-5.738a3.3,3.3,0,0,0-.26-1.489.87.87,0,0,0-.825-.492.849.849,0,0,0-.8.457,3.105,3.105,0,0,0-.27,1.384v2.361A3.321,3.321,0,0,0-4.583-2a.873.873,0,0,0,.825.479.862.862,0,0,0,.806-.467,3.171,3.171,0,0,0,.267-1.463Z" transform="translate(1167.5 2682.504)" fill="#12263f"/>
    <path id="Trazado_126274" data-name="Trazado 126274" d="M-20.065-5.516h1.009a1.049,1.049,0,0,0,1.2-1.174,1.015,1.015,0,0,0-.286-.746,1.083,1.083,0,0,0-.806-.289,1.16,1.16,0,0,0-.74.248A.755.755,0,0,0-20-6.862h-2.139a2.19,2.19,0,0,1,.406-1.3,2.683,2.683,0,0,1,1.127-.892,3.852,3.852,0,0,1,1.584-.321,3.785,3.785,0,0,1,2.425.7,2.342,2.342,0,0,1,.882,1.936,1.952,1.952,0,0,1-.365,1.127,2.6,2.6,0,0,1-1.063.86,2.485,2.485,0,0,1,1.155.809A2.131,2.131,0,0,1-15.571-2.6a2.385,2.385,0,0,1-.952,1.98,3.952,3.952,0,0,1-2.5.743,4.1,4.1,0,0,1-1.685-.346,2.64,2.64,0,0,1-1.177-.958,2.492,2.492,0,0,1-.4-1.393h2.152a.963.963,0,0,0,.343.736,1.21,1.21,0,0,0,.844.311,1.268,1.268,0,0,0,.9-.314,1.05,1.05,0,0,0,.336-.8,1.228,1.228,0,0,0-.349-.99,1.459,1.459,0,0,0-.965-.292h-1.041ZM-8.074-3.777A4.413,4.413,0,0,1-8.915-.889,2.906,2.906,0,0,1-11.286.127,2.922,2.922,0,0,1-13.673-.9a4.406,4.406,0,0,1-.844-2.882V-5.465a4.413,4.413,0,0,1,.841-2.888A2.914,2.914,0,0,1-11.3-9.369a2.915,2.915,0,0,1,2.38,1.022,4.417,4.417,0,0,1,.844,2.888Zm-2.139-1.961a3.3,3.3,0,0,0-.26-1.489.87.87,0,0,0-.825-.492.849.849,0,0,0-.8.457,3.105,3.105,0,0,0-.27,1.384v2.361A3.321,3.321,0,0,0-12.111-2a.873.873,0,0,0,.825.479.862.862,0,0,0,.806-.467,3.171,3.171,0,0,0,.267-1.463ZM-.546-3.777A4.413,4.413,0,0,1-1.387-.889,2.906,2.906,0,0,1-3.758.127,2.922,2.922,0,0,1-6.145-.9a4.406,4.406,0,0,1-.844-2.882V-5.465a4.413,4.413,0,0,1,.841-2.888A2.914,2.914,0,0,1-3.771-9.369,2.915,2.915,0,0,1-1.39-8.347,4.417,4.417,0,0,1-.546-5.459ZM-2.685-5.738a3.3,3.3,0,0,0-.26-1.489.87.87,0,0,0-.825-.492.849.849,0,0,0-.8.457,3.105,3.105,0,0,0-.27,1.384v2.361A3.321,3.321,0,0,0-4.583-2a.873.873,0,0,0,.825.479.862.862,0,0,0,.806-.467,3.171,3.171,0,0,0,.267-1.463Z" transform="translate(1167.986 2651.447)" fill="#12263f"/>
    <path id="Trazado_247335" data-name="Trazado 247335" d="M25.5,23h-4.09V15.875H15.35V23H11.236V5.938H15.35v6.773h6.059V5.938H25.5Zm6.586,0H28.123V10.32h3.961Zm-4.2-15.949A1.763,1.763,0,0,1,28.5,5.668a2.591,2.591,0,0,1,3.164,0,1.763,1.763,0,0,1,.609,1.383,1.763,1.763,0,0,1-.609,1.383,2.591,2.591,0,0,1-3.164,0A1.763,1.763,0,0,1,27.889,7.051ZM41.154,19.438a.912.912,0,0,0-.527-.809,8.021,8.021,0,0,0-2-.633,9.138,9.138,0,0,1-2.437-.861,4.083,4.083,0,0,1-1.465-1.295,3.092,3.092,0,0,1-.5-1.746,3.5,3.5,0,0,1,1.441-2.877,5.938,5.938,0,0,1,3.773-1.131,6.579,6.579,0,0,1,4.031,1.137,3.555,3.555,0,0,1,1.523,2.988H41.025q0-1.523-1.605-1.523a1.591,1.591,0,0,0-1.043.346,1.07,1.07,0,0,0-.422.861.982.982,0,0,0,.516.855,4.872,4.872,0,0,0,1.646.539,14.228,14.228,0,0,1,1.986.5q2.859.984,2.859,3.527a3.321,3.321,0,0,1-1.541,2.824,6.758,6.758,0,0,1-3.99,1.09,6.9,6.9,0,0,1-2.906-.586,4.86,4.86,0,0,1-1.992-1.594,3.609,3.609,0,0,1-.715-2.121H37.51a1.526,1.526,0,0,0,.586,1.283,2.41,2.41,0,0,0,1.441.4,1.9,1.9,0,0,0,1.213-.328A1.05,1.05,0,0,0,41.154,19.438ZM51.408,7.168V10.32h2.086v2.742H51.408v5.8a1.481,1.481,0,0,0,.258,1,1.383,1.383,0,0,0,1.02.281,5.793,5.793,0,0,0,.984-.07v2.824a7.288,7.288,0,0,1-2.227.34,4.137,4.137,0,0,1-3.012-.961,3.939,3.939,0,0,1-.973-2.918V13.063H45.842V10.32h1.617V7.168ZM54.2,16.543a7.484,7.484,0,0,1,.738-3.381,5.28,5.28,0,0,1,2.121-2.279,6.388,6.388,0,0,1,3.246-.8,5.83,5.83,0,0,1,4.488,1.764,6.768,6.768,0,0,1,1.641,4.8v.141a6.566,6.566,0,0,1-1.646,4.705,5.846,5.846,0,0,1-4.459,1.74,5.912,5.912,0,0,1-4.348-1.623,6.348,6.348,0,0,1-1.77-4.4Zm3.949.246a4.718,4.718,0,0,0,.551,2.578,1.835,1.835,0,0,0,1.629.82q2.109,0,2.156-3.246v-.4q0-3.41-2.18-3.41-1.98,0-2.145,2.941Zm9.563-.223a8.561,8.561,0,0,1,.633-3.4,5.094,5.094,0,0,1,1.816-2.279,4.788,4.788,0,0,1,2.754-.8,3.807,3.807,0,0,1,3.094,1.336l.141-1.1h3.586v12.2a5.346,5.346,0,0,1-.779,2.912,5,5,0,0,1-2.256,1.9,8.292,8.292,0,0,1-3.422.662,7.153,7.153,0,0,1-2.7-.527,4.876,4.876,0,0,1-2-1.371l1.652-2.32a3.621,3.621,0,0,0,2.906,1.3q2.625,0,2.625-2.7v-.4a3.708,3.708,0,0,1-2.871,1.254,4.583,4.583,0,0,1-3.75-1.775,7.356,7.356,0,0,1-1.43-4.752Zm3.961.246a4.511,4.511,0,0,0,.586,2.467,1.849,1.849,0,0,0,1.641.908,2.1,2.1,0,0,0,1.863-.855V14a2.045,2.045,0,0,0-1.84-.867,1.861,1.861,0,0,0-1.652.943A5.144,5.144,0,0,0,71.67,16.813Zm17.977-2.918-1.3-.094a2.336,2.336,0,0,0-2.391,1.172V23H82.006V10.32h3.7l.129,1.629a3.058,3.058,0,0,1,2.777-1.863,3.851,3.851,0,0,1,1.1.141ZM97.861,23a4.459,4.459,0,0,1-.375-1.137,3.672,3.672,0,0,1-3.047,1.371,4.5,4.5,0,0,1-3.047-1.084,3.45,3.45,0,0,1-1.254-2.725,3.546,3.546,0,0,1,1.523-3.117,7.761,7.761,0,0,1,4.43-1.055h1.219v-.671q0-1.755-1.512-1.755a1.236,1.236,0,0,0-1.406,1.39H90.443a3.54,3.54,0,0,1,1.564-2.985A6.575,6.575,0,0,1,96,10.086,5.764,5.764,0,0,1,99.83,11.27a4.115,4.115,0,0,1,1.441,3.246v5.613a5.748,5.748,0,0,0,.539,2.672V23Zm-2.473-2.578a2.2,2.2,0,0,0,1.225-.316,1.983,1.983,0,0,0,.7-.715V17.363H96.162q-2.062,0-2.062,1.852a1.131,1.131,0,0,0,.363.873A1.315,1.315,0,0,0,95.389,20.422Zm11.8-10.1.129,1.488a4.36,4.36,0,0,1,3.621-1.723A3.21,3.21,0,0,1,114.186,12a4.22,4.22,0,0,1,3.727-1.91q3.855,0,3.961,4.664V23h-3.961V15a2.417,2.417,0,0,0-.328-1.418,1.4,1.4,0,0,0-1.2-.445,1.871,1.871,0,0,0-1.746,1.043l.012.164V23h-3.961V15.02a2.541,2.541,0,0,0-.316-1.441,1.393,1.393,0,0,0-1.207-.445,1.894,1.894,0,0,0-1.734,1.043V23h-3.949V10.32ZM131.271,23a4.459,4.459,0,0,1-.375-1.137,3.672,3.672,0,0,1-3.047,1.371A4.5,4.5,0,0,1,124.8,22.15a3.45,3.45,0,0,1-1.254-2.725,3.546,3.546,0,0,1,1.523-3.117,7.761,7.761,0,0,1,4.43-1.055h1.219v-.671q0-1.755-1.512-1.755a1.236,1.236,0,0,0-1.406,1.39h-3.949a3.54,3.54,0,0,1,1.564-2.985,6.575,6.575,0,0,1,3.99-1.147,5.764,5.764,0,0,1,3.832,1.184,4.115,4.115,0,0,1,1.441,3.246v5.613a5.748,5.748,0,0,0,.539,2.672V23ZM128.8,20.422a2.2,2.2,0,0,0,1.225-.316,1.983,1.983,0,0,0,.7-.715V17.363h-1.148q-2.062,0-2.062,1.852a1.131,1.131,0,0,0,.363.873A1.315,1.315,0,0,0,128.8,20.422Zm14.707-.984a.912.912,0,0,0-.527-.809,8.021,8.021,0,0,0-2-.633,9.138,9.138,0,0,1-2.437-.861,4.083,4.083,0,0,1-1.465-1.295,3.092,3.092,0,0,1-.5-1.746,3.5,3.5,0,0,1,1.441-2.877,5.938,5.938,0,0,1,3.773-1.131,6.579,6.579,0,0,1,4.031,1.137,3.555,3.555,0,0,1,1.523,2.988h-3.961q0-1.523-1.605-1.523a1.591,1.591,0,0,0-1.043.346,1.07,1.07,0,0,0-.422.861.982.982,0,0,0,.516.855,4.872,4.872,0,0,0,1.646.539,14.228,14.228,0,0,1,1.986.5q2.859.984,2.859,3.527a3.321,3.321,0,0,1-1.541,2.824,6.758,6.758,0,0,1-3.99,1.09,6.9,6.9,0,0,1-2.906-.586,4.86,4.86,0,0,1-1.992-1.594,3.609,3.609,0,0,1-.715-2.121h3.691a1.526,1.526,0,0,0,.586,1.283,2.41,2.41,0,0,0,1.441.4,1.9,1.9,0,0,0,1.213-.328A1.05,1.05,0,0,0,143.506,19.438Z" transform="translate(1148 2818.496)" fill="#12263f"/>
  </g>
</svg>
