<svg xmlns="http://www.w3.org/2000/svg" xmlns:xlink="http://www.w3.org/1999/xlink" width="85" height="94" viewBox="0 0 85 94">
  <defs>
    <clipPath id="clip-path">
      <rect id="Rect치ngulo_45078" data-name="Rect치ngulo 45078" width="22.209" height="36.417" fill="none"/>
    </clipPath>
  </defs>
  <g id="Grupo_180409" data-name="Grupo 180409" transform="translate(-180 -3300)">
    <path id="Rect치ngulo_33876" data-name="Rect치ngulo 33876" d="M20,0H85a0,0,0,0,1,0,0V74A20,20,0,0,1,65,94H0a0,0,0,0,1,0,0V20A20,20,0,0,1,20,0Z" transform="translate(180 3300)" fill="#5c22c3"/>
    <circle id="Elipse_4740" data-name="Elipse 4740" cx="28.345" cy="28.345" r="28.345" transform="translate(194 3318)" fill="#fff"/>
    <g id="Grupo_180397" data-name="Grupo 180397" transform="translate(211.241 3328.137)">
      <g id="Grupo_180396" data-name="Grupo 180396" transform="translate(0 0)" clip-path="url(#clip-path)">
        <path id="Trazado_241202" data-name="Trazado 241202" d="M17.518,39.049c-.028-1.369-.011-2.738-.009-4.107a.7.7,0,0,0-.4-.689c-.542-.3-1.077-.605-1.61-.919-1.485-.874-2.982-1.729-4.472-2.594-.194-.112-.154-.2-.018-.319a1.514,1.514,0,0,1,.463-.388c.571-.377,1.18-.694,1.743-1.086.41-.275.81-.563,1.207-.858.192-.153.35-.341.53-.507a6.11,6.11,0,0,0,.528-.568,6.626,6.626,0,0,0,.43-.575,4.96,4.96,0,0,0,.268-.457c.069-.129.159-.247.217-.383.054-.159.129-.31.183-.468.061-.184.124-.367.186-.55.054-.221.119-.44.162-.664,0-.332.1-.655.085-.989,0-.612.034-1.224-.02-1.836a10.462,10.462,0,0,0-.358-1.955,12.681,12.681,0,0,0-.582-1.858c-.164-.369-.324-.738-.5-1.1a15.842,15.842,0,0,0-4.228-5.261,20.343,20.343,0,0,0-2.967-2,11.742,11.742,0,0,0-1.117-.522c-.194-.065-.381-.148-.571-.225-.142-.069-.306-.064-.449-.128a1.346,1.346,0,0,0-.311-.091c-.253-.055-.515-.057-.766-.122a.719.719,0,0,0-.113-.019c-.215-.019-.431,0-.646-.009-.059,0-.117,0-.176,0a2.8,2.8,0,0,0-.633.077,5.409,5.409,0,0,0-.636.237A4.685,4.685,0,0,0,.287,11.364,12.771,12.771,0,0,0,0,14.8a.537.537,0,0,0,.318.531c1.536.877,3.061,1.773,4.6,2.644.762.431,1.493.916,2.291,1.283l0,0c0,.025,0,.051,0,.076a.171.171,0,0,0,.165-.03l2.045-1.192a.509.509,0,0,0,.079-.081c.124.006.119.126.131.238a2.541,2.541,0,0,1-.477,1.785,6.626,6.626,0,0,1-1.871,1.784Q4.048,23.917.8,25.979a.648.648,0,0,0-.339.634Q.489,29,.478,31.394a.533.533,0,0,0,.3.536Q8.989,36.7,17.189,41.48c.093.054.184.171.317.074.036-.835.008-1.669.012-2.5M7.381,17.325c0-.013,0-.027,0-.04l.107-.043c-.038.026-.073.055-.11.083" transform="translate(0 -5.174)" fill="#12263f"/>
        <path id="Trazado_241203" data-name="Trazado 241203" d="M27.988,28.323a13.83,13.83,0,0,0-.022-1.67c-.017-.079-.085-.11-.145-.145-2.183-1.261-4.373-2.511-6.55-3.783-.029-.167.114-.219.21-.291,2.276-1.711,4.912-2.872,5.778-5.859a8.635,8.635,0,0,0,.231-3.13A14.834,14.834,0,0,0,21.778,3.028a3.085,3.085,0,0,1-.257-.183A11.81,11.81,0,0,0,16.138.076c-2.731-.5-5.189,1.538-7.408,2.863a2.368,2.368,0,0,1,.638-.146A14.09,14.09,0,0,1,19.448,8.161,15.369,15.369,0,0,1,22.7,16.515c.266,3.972-2.039,6.19-5.188,8.117-.423.259-1.329.566-.664,1.049,2.009,1.172,4.01,2.357,6.034,3.5a.534.534,0,0,1,.323.549c-.007,1.354,0,2.708,0,4.061,0,.743,0,1.486,0,2.23,0,.124-.041.265.094.356,1.473-.854,2.944-1.711,4.422-2.557a.464.464,0,0,0,.268-.472c-.01-1.675,0-3.351,0-5.027m-3.751-7.761-.019.034h0a.1.1,0,0,1,.019-.034" transform="translate(-5.794 0)" fill="#12263f"/>
        <path id="Trazado_241204" data-name="Trazado 241204" d="M4,32.432c0-.4.031-.812-.008-1.213A.88.88,0,0,1,4.5,30.3c1.932-1.212,3.849-2.449,5.774-3.673a10.1,10.1,0,0,0,1.5-1.2,4.211,4.211,0,0,0,1.245-4.358,4.382,4.382,0,0,0-2.443-3.148,1.266,1.266,0,0,0-1.8.625,3.256,3.256,0,0,0-.363,1.511c-.005.29-.074.36-.34.2q-2.155-1.257-4.32-2.5a.357.357,0,0,1-.217-.335,5.884,5.884,0,0,1,.817-3.17A3.559,3.559,0,0,1,8.269,12.7a10.405,10.405,0,0,1,3.917,1.809,13.128,13.128,0,0,1,5.393,6.93,11.063,11.063,0,0,1,.514,3.871,6.628,6.628,0,0,1-1.911,4.18,19.1,19.1,0,0,1-5.445,3.889s-.354.284.028.506q1.786,1.041,3.575,2.077c1.305.758,2.607,1.521,3.918,2.269a.626.626,0,0,1,.36.625C18.6,40,18.607,41.145,18.6,42.287c0,.436-.029.457-.4.241q-3.854-2.235-7.7-4.477c-1.993-1.159-3.981-2.325-5.982-3.47A.839.839,0,0,1,4,33.68,11.368,11.368,0,0,0,4,32.432" transform="translate(-2.353 -8.374)" fill="#d677e6"/>
        <path id="Trazado_241205" data-name="Trazado 241205" d="M16.109,5.123S19.05,3.2,21.362,3.742c2.031.48,7.314,4.246,9.038,9.038s-.075,8.027-3.23,9.857a12.033,12.033,0,0,0-1.856-11.749c-4.822-6.309-9.2-5.766-9.2-5.766" transform="translate(-10.692 -2.419)" fill="#fef536"/>
        <path id="Trazado_241206" data-name="Trazado 241206" d="M30.479,71.284l3.783-1.85,5.884,3.2-3.362,2.184Z" transform="translate(-20.229 -46.084)" fill="#fef536"/>
        <path id="Trazado_241207" data-name="Trazado 241207" d="M51.774,83.864l0,5.22L55.5,86.94V81.56Z" transform="translate(-34.36 -54.131)" fill="#5127bd"/>
      </g>
    </g>
  </g>
</svg>
