<svg xmlns="http://www.w3.org/2000/svg" xmlns:xlink="http://www.w3.org/1999/xlink" width="85" height="94" viewBox="0 0 85 94">
  <defs>
    <clipPath id="clip-path">
      <rect id="Rect치ngulo_45079" data-name="Rect치ngulo 45079" width="24.361" height="36.417" fill="none"/>
    </clipPath>
  </defs>
  <g id="Grupo_180410" data-name="Grupo 180410" transform="translate(-180 -3451)">
    <path id="Rect치ngulo_33876" data-name="Rect치ngulo 33876" d="M20,0H85a0,0,0,0,1,0,0V74A20,20,0,0,1,65,94H0a0,0,0,0,1,0,0V20A20,20,0,0,1,20,0Z" transform="translate(180 3451)" fill="#5c22c3"/>
    <circle id="Elipse_4740" data-name="Elipse 4740" cx="28.345" cy="28.345" r="28.345" transform="translate(194 3469)" fill="#fff"/>
    <g id="Grupo_180399" data-name="Grupo 180399" transform="translate(210.319 3479.137)">
      <g id="Grupo_180398" data-name="Grupo 180398" transform="translate(0 0)" clip-path="url(#clip-path)">
        <path id="Trazado_241208" data-name="Trazado 241208" d="M24.323,27.224a12.44,12.44,0,0,0-2.464-6.7l-.082-.14c.049-.143.172-.206.29-.279A4.383,4.383,0,0,0,24,16.8c.542-4.287-1.9-8.627-4.729-11.654C16.8,2.5,13.218,0,9.462,0H9.107C8.384,0,1.113,3.488.5,6.378A15.343,15.343,0,0,0,.345,9.253a.465.465,0,0,0,.285.469q2.613,1.488,5.213,3c.109.063.244.1.277.252a2.055,2.055,0,0,0-.576.349c-.131.08-.078.212-.078.321,0,.554,0,1.109,0,1.663,0,.126.039.262-.065.371-.164-.138-.3-.046-.451.04-.594.346-1.193.683-1.787,1.029q-1.518.883-3.033,1.772c-.13.05-.114.164-.118.27a15.018,15.018,0,0,0,1.281,6.868,19.932,19.932,0,0,0,6.259,7.715,15.688,15.688,0,0,0,5.517,2.8,5.135,5.135,0,0,0,4.582-.666c1.677-.938,3.343-1.9,4.978-2.907,1.82-1.125,1.794-3.487,1.694-5.357v-.017M7.767.7s0,.007,0,.012H7.754c0-.005.01-.008.014-.012M4.833,2.978c-.01.012-.02.023-.029.036-.014-.007-.028-.012-.041-.02.024,0,.046-.01.07-.016" transform="translate(0 0)" fill="#12263f"/>
        <path id="Trazado_241209" data-name="Trazado 241209" d="M3.672,28.393c.656.375,1.313.749,1.967,1.126.945.545,1.886,1.1,2.835,1.638a.859.859,0,0,1,.452.653,5.794,5.794,0,0,0,3.9,4.678,1.416,1.416,0,0,0,1.984-1.339,5.753,5.753,0,0,0-2.35-5.421,22.789,22.789,0,0,0-2.834-1.7A.98.98,0,0,1,9.026,27c.044-1.139.012-2.28.012-3.42,0-.435.006-.443.394-.225.692.39,1.377.794,2.068,1.186a4.221,4.221,0,0,0,1.377.558,1.16,1.16,0,0,0,1.437-.89,4.247,4.247,0,0,0,.054-2.289,5.014,5.014,0,0,0-3.446-3.836,1.219,1.219,0,0,0-1.7,1c-.023.21-.1.259-.3.146q-2.4-1.39-4.812-2.769c-.107-.061-.2-.128-.193-.271A3.846,3.846,0,0,1,5.45,12.767,3.744,3.744,0,0,1,8.159,12.3,10.618,10.618,0,0,1,12.4,14.06a16.23,16.23,0,0,1,6.553,7.487,10.491,10.491,0,0,1,.828,4.8A3.255,3.255,0,0,1,18.347,29a3.423,3.423,0,0,1-1.617.489.474.474,0,0,0-.338.086l.485.55a12.193,12.193,0,0,1,3.152,6.195,7.77,7.77,0,0,1-.151,3.562A3.278,3.278,0,0,1,16.335,42.3a9.5,9.5,0,0,1-3.969-1.256,17.047,17.047,0,0,1-7.954-8.607A10.693,10.693,0,0,1,3.6,28.806a.6.6,0,0,1,.069-.413" transform="translate(-2.281 -7.763)" fill="#d677e6"/>
        <path id="Trazado_241210" data-name="Trazado 241210" d="M27.582,22.985c1.936-2.32,1.279-6.663-1.63-10.915-3.566-5.212-8.727-7.315-11.019-7.085l3.7-1.877a16.248,16.248,0,0,1,10.744,7.041c4.1,6.256,2.5,8.84,2.149,9.647-.914,2.1-3.948,3.189-3.948,3.189" transform="translate(-9.471 -1.971)" fill="#fef536"/>
        <path id="Trazado_241211" data-name="Trazado 241211" d="M46.229,60.508l3.641-1.4a7.775,7.775,0,0,1,2.111,4.618c.362,2.733,0,4.343-1.048,5.2a19.276,19.276,0,0,1-2.617,1.53,7.586,7.586,0,0,0,.274-5.039c-.905-3.96-2.361-4.91-2.361-4.91" transform="translate(-29.32 -37.49)" fill="#5127bd"/>
      </g>
    </g>
  </g>
</svg>
